<?xml version="1.0" encoding="UTF-8"?>
<svg xmlns="http://www.w3.org/2000/svg" version="1.1" viewBox="0 0 86 108">
  <defs>
    <style>
      .cls-1 {
        fill: #f5b751;
      }

      .cls-2 {
        fill: #fff;
      }
    </style>
  </defs>
  <!-- Generator: Adobe Illustrator 28.7.3, SVG Export Plug-In . SVG Version: 1.2.0 Build 164)  -->
  <g>
    <g id="Layer_1">
      <g>
        <path class="cls-2" d="M14.22,102.02c-5.07,0-9.05-4.6-9.05-10.46V16.45c0-5.87,3.97-10.46,9.05-10.46,1.65,0,3.27.52,4.68,1.49l57.56,39.72c2.83,1.95,4.46,5.43,4.36,9.3-.1,3.81-1.87,7.13-4.75,8.9l-57.56,35.38c-1.32.81-2.8,1.24-4.3,1.24h0Z"/>
        <path class="cls-1" d="M14.22,10.98c.61,0,1.24.19,1.84.61l57.56,39.72c3.01,2.08,2.91,7.93-.17,9.82L15.9,96.52c-.55.34-1.12.5-1.68.5-2.13,0-4.05-2.31-4.05-5.46V16.45c0-3.17,1.93-5.46,4.05-5.46M14.22.98C6.34.98.17,7.78.17,16.45v75.1c0,8.67,6.17,15.46,14.05,15.46,2.42,0,4.81-.68,6.92-1.98l57.56-35.38c4.32-2.65,6.98-7.52,7.13-13.02.15-5.57-2.29-10.63-6.52-13.55L21.74,3.36c-2.25-1.55-4.85-2.38-7.52-2.38h0Z"/>
      </g>
    </g>
  </g>
</svg>