<?xml version="1.0" encoding="UTF-8"?>
<svg xmlns="http://www.w3.org/2000/svg" version="1.1" viewBox="0 0 86 108">
  <defs>
    <style>
      .cls-1 {
        fill: #f6b751;
      }

      .cls-2 {
        fill: #fff;
      }
    </style>
  </defs>
  <!-- Generator: Adobe Illustrator 28.7.3, SVG Export Plug-In . SVG Version: 1.2.0 Build 164)  -->
  <g>
    <g id="Layer_1">
      <g>
        <g>
          <path class="cls-2" d="M42.92,84.25c1,0,1.95.08,2.88-.01,10.77-1.1,18.85-6.37,24.18-15.79,2.23-3.95,3.36-8.26,3.57-12.8.31-6.82-1.48-13.04-5.32-18.67-1.32-1.94-.86-4.44,1.02-5.73,1.88-1.29,4.38-.8,5.71,1.13,3.46,5.03,5.7,10.56,6.41,16.64,1.58,13.43-2.64,24.78-12.62,33.88-5.32,4.84-11.64,7.81-18.75,9-1.99.33-4.02.48-6.05.72.07.08.2.23.33.36,1.87,1.86,3.75,3.71,5.6,5.58,1.59,1.61,1.56,4.17-.02,5.74-1.59,1.58-4.1,1.6-5.73.04-.6-.58-1.19-1.17-1.78-1.76-3.86-3.84-7.72-7.68-11.57-11.52-1.92-1.91-1.9-4.31,0-6.22,4.4-4.42,8.8-8.85,13.2-13.27,1.22-1.23,3.04-1.57,4.56-.89,1.58.71,2.55,2.28,2.43,4.02-.08,1.18-.65,2.1-1.48,2.92-2.07,2.06-4.13,4.13-6.19,6.2-.13.13-.25.27-.4.43Z"/>
          <path class="cls-1" d="M46.98,107.78c-1.59,0-3.18-.6-4.43-1.8-.48-.46-.95-.93-1.4-1.38l-2.78-2.76c-3.07-3.05-6.13-6.1-9.2-9.16-1.38-1.37-2.1-3.01-2.1-4.73,0-1.71.73-3.34,2.1-4.71,2.51-2.52,5.02-5.04,7.53-7.57,1.89-1.9,3.78-3.8,5.67-5.7,1.87-1.88,4.72-2.43,7.1-1.36,2.47,1.1,3.95,3.56,3.78,6.24-.11,1.63-.81,3.06-2.15,4.39-.75.75-1.51,1.5-2.26,2.26,8.43-1.66,14.72-6.32,19.15-14.16,1.98-3.5,3.08-7.46,3.28-11.78.29-6.26-1.37-12.07-4.92-17.29-2.02-2.97-1.31-6.88,1.62-8.89,2.93-2.01,6.83-1.26,8.87,1.72,3.78,5.49,6.06,11.43,6.8,17.66,1.67,14.18-2.82,26.23-13.35,35.83-5.56,5.07-12.26,8.29-19.91,9.57-.49.08-.98.15-1.47.22.87.86,1.74,1.73,2.6,2.61,2.44,2.48,2.43,6.5-.04,8.95-1.25,1.24-2.87,1.86-4.48,1.86ZM46.92,72.61c-.48,0-.95.2-1.32.57-1.89,1.9-3.78,3.8-5.67,5.7-2.51,2.52-5.02,5.05-7.53,7.57-.35.35-.77.9-.77,1.51,0,.6.41,1.14.76,1.49,3.06,3.05,6.13,6.1,9.19,9.15l2.78,2.77c.44.44.9.89,1.34,1.33.74.71,1.83.7,2.55,0,.69-.69.69-1.82,0-2.52-1.24-1.26-2.52-2.53-3.76-3.76-.61-.6-1.22-1.21-1.82-1.81-.15-.15-.28-.29-.36-.39l-.05-.05-2.98-3.28,4.4-.51c.65-.08,1.3-.14,1.95-.21,1.39-.14,2.7-.28,3.99-.49,6.77-1.13,12.69-3.97,17.59-8.44,4.7-4.28,8.08-9.13,10.05-14.43,1.97-5.29,2.59-11.18,1.85-17.5-.65-5.48-2.67-10.74-6.03-15.61-.61-.89-1.71-1.12-2.55-.54-.85.58-1.03,1.69-.43,2.57,4.12,6.05,6.04,12.8,5.71,20.06-.23,5.04-1.53,9.69-3.86,13.82-5.69,10.06-14.41,15.76-25.93,16.93-.78.08-1.51.06-2.22.04-.29,0-.59-.02-.89-.02h-5.2l3.66-3.96c.11-.13.22-.24.33-.35.54-.54,1.08-1.08,1.62-1.63,1.5-1.51,3.04-3.07,4.58-4.59.67-.67.79-1.11.81-1.45.05-.78-.37-1.46-1.09-1.79-.22-.1-.46-.15-.7-.15Z"/>
        </g>
        <g>
          <path class="cls-2" d="M43.16,23.75c-.99,0-1.9-.07-2.79.01-10.44,1.01-18.43,5.99-23.81,14.97-3.51,5.85-4.68,12.26-3.83,19.03.61,4.83,2.34,9.22,5.07,13.24,1.69,2.48.48,5.68-2.4,6.38-1.56.37-3.27-.25-4.21-1.61-3.34-4.78-5.46-10.06-6.39-15.82-.52-3.2-.63-6.42-.32-9.63.72-7.44,3.34-14.16,7.96-20.04,5.58-7.09,12.79-11.67,21.56-13.77,2.59-.62,5.22-.94,7.88-.97.07,0,.15-.01.33-.03-.18-.2-.31-.35-.45-.48-1.87-1.86-3.75-3.71-5.6-5.58-1.51-1.54-1.56-3.92-.16-5.53,1.38-1.58,3.79-1.9,5.44-.63.82.63,1.52,1.42,2.26,2.16,3.87,3.85,7.74,7.7,11.61,11.56,1.85,1.84,1.83,4.29-.02,6.14-4.41,4.42-8.8,8.84-13.2,13.26-1.25,1.26-3.06,1.61-4.6.92-1.57-.7-2.52-2.26-2.43-3.97.07-1.2.65-2.14,1.49-2.97,2.1-2.08,4.18-4.19,6.27-6.28.09-.09.18-.19.33-.35Z"/>
          <path class="cls-1" d="M14.49,79.76c-2.02,0-3.98-.99-5.17-2.69-3.51-5.03-5.79-10.67-6.77-16.76-.55-3.41-.67-6.85-.34-10.22.77-7.94,3.6-15.08,8.44-21.23,5.87-7.46,13.55-12.36,22.83-14.57,1.2-.29,2.42-.51,3.64-.68-.85-.85-1.71-1.71-2.56-2.57-2.35-2.39-2.46-6.09-.25-8.62,2.2-2.52,5.95-2.93,8.55-.93.74.57,1.36,1.2,1.95,1.81.17.18.35.36.52.53,3.87,3.85,7.74,7.7,11.61,11.56,1.33,1.32,2.06,2.99,2.05,4.69,0,1.69-.74,3.35-2.06,4.67-2.92,2.93-5.84,5.86-8.76,8.8-1.48,1.49-2.96,2.98-4.44,4.47-1.92,1.93-4.73,2.48-7.15,1.39-2.44-1.1-3.92-3.52-3.77-6.17.09-1.66.8-3.12,2.16-4.46.75-.74,1.5-1.5,2.26-2.25-8.06,1.6-14.34,6.09-18.71,13.38-3.14,5.24-4.33,11.16-3.52,17.57.55,4.35,2.13,8.47,4.69,12.24,1.22,1.79,1.5,4.03.75,5.99-.76,1.96-2.4,3.38-4.5,3.89-.48.11-.96.17-1.44.17ZM39.1,4.78c-.5,0-1.02.22-1.38.64-.63.73-.6,1.75.07,2.43,1.24,1.26,2.53,2.54,3.77,3.77.6.6,1.21,1.2,1.81,1.8.12.12.23.24.36.39.05.05.1.11.15.17l3.13,3.42-4.76.4c-.1,0-.22.02-.36.02-2.46.02-4.94.32-7.37.9-8.25,1.97-15.09,6.33-20.3,12.96-4.29,5.45-6.81,11.79-7.49,18.85-.29,2.98-.18,6.03.31,9.05.88,5.41,2.9,10.41,6.01,14.88.4.57,1.14.86,1.81.7.86-.21,1.19-.78,1.32-1.1.22-.57.12-1.22-.26-1.78-2.98-4.37-4.81-9.16-5.45-14.23-.94-7.45.45-14.34,4.13-20.48,5.74-9.58,14.33-14.98,25.54-16.06.74-.07,1.45-.05,2.13-.04.29,0,.58.01.88.01h5.27l-3.74,3.97c-.1.1-.17.18-.25.26-.57.58-1.15,1.16-1.72,1.73-1.49,1.5-3.02,3.05-4.55,4.56-.69.68-.8,1.13-.82,1.49-.04.76.37,1.44,1.09,1.76.69.31,1.47.14,2.06-.45,1.48-1.49,2.96-2.98,4.44-4.47,2.92-2.94,5.84-5.87,8.76-8.8.33-.33.73-.86.73-1.48,0-.61-.38-1.12-.71-1.45-3.87-3.85-7.74-7.71-11.61-11.56-.19-.19-.38-.39-.57-.58-.51-.52-.98-1.01-1.47-1.38-.28-.21-.61-.31-.96-.31Z"/>
        </g>
      </g>
    </g>
  </g>
</svg>