<?xml version="1.0" encoding="UTF-8"?>
<svg xmlns="http://www.w3.org/2000/svg" xmlns:xlink="http://www.w3.org/1999/xlink" version="1.1" viewBox="0 0 620 586">
  <defs>
    <style>
      .cls-1 {
        fill: url(#linear-gradient-8);
      }

      .cls-2 {
        fill: url(#linear-gradient-7);
      }

      .cls-3 {
        fill: url(#linear-gradient-5);
      }

      .cls-4 {
        fill: url(#linear-gradient-6);
      }

      .cls-5 {
        fill: url(#linear-gradient-9);
      }

      .cls-6 {
        fill: url(#linear-gradient-4);
      }

      .cls-7 {
        fill: url(#linear-gradient-3);
      }

      .cls-8 {
        fill: url(#linear-gradient-2);
      }

      .cls-9 {
        fill: url(#linear-gradient);
      }

      .cls-10 {
        fill: url(#linear-gradient-10);
      }

      .cls-11 {
        fill: url(#linear-gradient-11);
      }

      .cls-12 {
        fill: url(#linear-gradient-12);
      }

      .cls-13 {
        fill: url(#linear-gradient-13);
      }

      .cls-14 {
        fill: url(#linear-gradient-19);
      }

      .cls-15 {
        fill: url(#linear-gradient-14);
      }

      .cls-16 {
        fill: url(#linear-gradient-21);
      }

      .cls-17 {
        fill: url(#linear-gradient-20);
      }

      .cls-18 {
        fill: url(#linear-gradient-22);
      }

      .cls-19 {
        fill: url(#linear-gradient-23);
      }

      .cls-20 {
        fill: url(#linear-gradient-25);
      }

      .cls-21 {
        fill: url(#linear-gradient-15);
      }

      .cls-22 {
        fill: url(#linear-gradient-16);
      }

      .cls-23 {
        fill: url(#linear-gradient-17);
      }

      .cls-24 {
        fill: url(#linear-gradient-18);
      }

      .cls-25 {
        fill: url(#linear-gradient-27);
      }

      .cls-26 {
        fill: url(#linear-gradient-24);
      }

      .cls-27 {
        fill: url(#linear-gradient-26);
      }
    </style>
    <linearGradient id="linear-gradient" x1="41.56" y1="165.37" x2="41.56" y2=".63" gradientUnits="userSpaceOnUse">
      <stop offset="0" stop-color="#e93e3a"/>
      <stop offset=".11" stop-color="#ed683c"/>
      <stop offset=".33" stop-color="#f3903f"/>
      <stop offset=".72" stop-color="#fdc70c"/>
      <stop offset=".8" stop-color="#fdca0f"/>
      <stop offset=".88" stop-color="#fdd51b"/>
      <stop offset=".96" stop-color="#fee62d"/>
      <stop offset="1" stop-color="#fff33b"/>
    </linearGradient>
    <linearGradient id="linear-gradient-2" x1="116.94" x2="116.94" y2="3.95" xlink:href="#linear-gradient"/>
    <linearGradient id="linear-gradient-3" x1="190.07" x2="190.07" xlink:href="#linear-gradient"/>
    <linearGradient id="linear-gradient-4" x1="257.19" y1="162.05" x2="257.19" y2="3.95" xlink:href="#linear-gradient"/>
    <linearGradient id="linear-gradient-5" x1="326.33" x2="326.33" xlink:href="#linear-gradient"/>
    <linearGradient id="linear-gradient-6" x1="413.07" y1="162.05" x2="413.07" y2="3.95" xlink:href="#linear-gradient"/>
    <linearGradient id="linear-gradient-7" x1="482.07" y1="162.05" x2="482.07" y2="3.95" xlink:href="#linear-gradient"/>
    <linearGradient id="linear-gradient-8" x1="528.71" y1="162.05" x2="528.71" y2="3.95" xlink:href="#linear-gradient"/>
    <linearGradient id="linear-gradient-9" x1="586.52" y1="162.05" x2="586.52" y2="3.95" xlink:href="#linear-gradient"/>
    <linearGradient id="linear-gradient-10" x1="33.79" y1="372.05" x2="33.79" y2="213.95" xlink:href="#linear-gradient"/>
    <linearGradient id="linear-gradient-11" x1="103.76" y1="375.37" x2="103.76" y2="210.63" xlink:href="#linear-gradient"/>
    <linearGradient id="linear-gradient-12" x1="178.83" y1="375.37" x2="178.83" y2="213.95" xlink:href="#linear-gradient"/>
    <linearGradient id="linear-gradient-13" x1="253.57" y1="372.05" x2="253.57" y2="213.95" xlink:href="#linear-gradient"/>
    <linearGradient id="linear-gradient-14" x1="352.21" y1="375.37" x2="352.21" y2="210.63" xlink:href="#linear-gradient"/>
    <linearGradient id="linear-gradient-15" x1="425.21" y1="372.05" x2="425.21" y2="213.95" xlink:href="#linear-gradient"/>
    <linearGradient id="linear-gradient-16" x1="509.23" y1="372.05" x2="509.23" y2="213.95" xlink:href="#linear-gradient"/>
    <linearGradient id="linear-gradient-17" x1="588.59" y1="372.05" x2="588.59" y2="213.95" xlink:href="#linear-gradient"/>
    <linearGradient id="linear-gradient-18" x1="24.83" y1="582.05" x2="24.83" y2="423.95" xlink:href="#linear-gradient"/>
    <linearGradient id="linear-gradient-19" x1="85.76" y1="582.05" x2="85.76" y2="423.95" xlink:href="#linear-gradient"/>
    <linearGradient id="linear-gradient-20" x1="154.09" y1="582.05" x2="154.09" y2="423.95" xlink:href="#linear-gradient"/>
    <linearGradient id="linear-gradient-21" x1="217.09" y1="582.05" x2="217.09" y2="423.95" xlink:href="#linear-gradient"/>
    <linearGradient id="linear-gradient-22" x1="281.2" y1="582.05" x2="281.2" y2="423.95" xlink:href="#linear-gradient"/>
    <linearGradient id="linear-gradient-23" x1="337.76" y1="582.05" x2="337.76" y2="423.95" xlink:href="#linear-gradient"/>
    <linearGradient id="linear-gradient-24" x1="387.69" y1="582.05" x2="387.69" y2="423.95" xlink:href="#linear-gradient"/>
    <linearGradient id="linear-gradient-25" x1="451.79" y1="582.05" x2="451.79" y2="423.95" xlink:href="#linear-gradient"/>
    <linearGradient id="linear-gradient-26" x1="527.2" y1="585.37" x2="527.2" y2="420.63" xlink:href="#linear-gradient"/>
    <linearGradient id="linear-gradient-27" x1="595.17" y1="582.05" x2="595.17" y2="423.95" xlink:href="#linear-gradient"/>
  </defs>
  <!-- Generator: Adobe Illustrator 28.7.3, SVG Export Plug-In . SVG Version: 1.2.0 Build 164)  -->
  <g>
    <g id="Layer_1">
      <g>
        <path class="cls-9" d="M74.93,72.8h-28.23v-27.48c0-7.99-.3-12.98-.91-14.96-.6-1.98-1.93-2.97-3.99-2.97-2.33,0-3.8,1.21-4.43,3.61-.63,2.41-.94,7.62-.94,15.62v73.44c0,7.68.31,12.7.94,15.04s2.03,3.52,4.23,3.52,3.47-1.17,4.12-3.52.97-7.87.97-16.54v-19.87h28.23v6.16c0,16.37-.79,27.97-2.38,34.82-1.59,6.85-5.1,12.85-10.53,18-5.43,5.15-12.13,7.73-20.08,7.73s-15.09-2.18-20.45-6.54-8.92-10.4-10.66-18.12c-1.74-7.71-2.62-19.32-2.62-34.81v-46.19c0-11.39.27-19.94.8-25.63.54-5.7,2.13-11.18,4.79-16.46s6.35-9.42,11.06-12.45S35,.63,41.13.63c8.32,0,15.18,2.34,20.59,7.02,5.41,4.68,8.96,10.52,10.66,17.51,1.7,6.99,2.55,17.86,2.55,32.62v15.02Z"/>
        <path class="cls-8" d="M149.23,3.95v105.66c0,11.98-.27,20.39-.8,25.24-.54,4.85-2.12,9.83-4.76,14.94-2.64,5.11-6.11,8.98-10.43,11.62s-9.4,3.96-15.26,3.96c-6.48,0-12.21-1.56-17.17-4.69s-8.67-7.19-11.13-12.21-3.91-10.3-4.36-15.87c-.45-5.57-.67-17.27-.67-35.11V3.95h28.23v118.56c0,6.9.26,11.31.77,13.23.51,1.92,1.55,2.88,3.12,2.88,1.79,0,2.94-1.06,3.45-3.17s.77-7.11.77-14.99V3.95h28.23Z"/>
        <path class="cls-7" d="M219.97,51.8h-26.22v-11.72c0-5.47-.33-8.95-1.01-10.45-.67-1.5-1.79-2.25-3.35-2.25-1.7,0-2.98,1.01-3.86,3.03s-1.31,5.08-1.31,9.19c0,5.28.49,9.25,1.47,11.92.94,2.67,3.59,5.89,7.98,9.67,12.57,10.86,20.48,19.78,23.75,26.74s4.9,18.2,4.9,33.69c0,11.26-.91,19.56-2.72,24.9s-5.31,9.81-10.49,13.43c-5.19,3.61-11.22,5.42-18.11,5.42-7.56,0-14.01-2.08-19.35-6.25s-8.84-9.47-10.49-15.92c-1.65-6.45-2.48-15.59-2.48-27.44v-10.35h26.22v19.24c0,5.92.37,9.73,1.11,11.43.74,1.69,2.04,2.54,3.92,2.54s3.28-1.07,4.19-3.22,1.38-5.34,1.38-9.57c0-9.31-.87-15.4-2.62-18.26-1.79-2.87-6.19-7.65-13.21-14.36-7.02-6.77-11.67-11.69-13.95-14.75-2.28-3.06-4.17-7.29-5.67-12.7-1.5-5.4-2.25-12.3-2.25-20.7,0-12.11,1.06-20.96,3.19-26.56,2.12-5.6,5.55-9.98,10.29-13.13,4.74-3.16,10.46-4.74,17.17-4.74,7.33,0,13.58,1.73,18.74,5.18,5.16,3.45,8.58,7.8,10.26,13.04,1.68,5.24,2.51,14.14,2.51,26.71v6.25Z"/>
        <path class="cls-6" d="M288.04,3.95v31.64h-16.76v126.47h-28.23V35.59h-16.7V3.95h61.69Z"/>
        <path class="cls-3" d="M358.99,96.53c0,15.88-.26,27.13-.77,33.74-.51,6.61-2.12,12.65-4.83,18.12-2.71,5.47-6.36,9.67-10.96,12.6-4.61,2.93-9.97,4.39-16.09,4.39s-11.03-1.38-15.66-4.15c-4.63-2.77-8.35-6.92-11.17-12.45s-4.49-11.56-5.03-18.07c-.54-6.51-.8-17.9-.8-34.18v-27.05c0-15.89.26-27.13.77-33.74.51-6.61,2.12-12.65,4.83-18.12,2.7-5.47,6.36-9.67,10.96-12.6s9.97-4.39,16.09-4.39c5.81,0,11.03,1.38,15.66,4.15,4.63,2.77,8.35,6.92,11.16,12.45,2.82,5.53,4.49,11.56,5.03,18.07.54,6.51.8,17.9.8,34.18v27.05ZM330.75,44.57c0-7.36-.28-12.06-.84-14.11-.56-2.05-1.71-3.08-3.45-3.08-1.47,0-2.6.83-3.39,2.49s-1.17,6.56-1.17,14.7v73.83c0,9.18.26,14.84.77,16.99.51,2.15,1.71,3.22,3.59,3.22s3.15-1.24,3.69-3.71c.54-2.47.8-8.37.8-17.68V44.57Z"/>
        <path class="cls-4" d="M456.62,3.95v158.11h-24.68l-.03-106.74-9.82,106.74h-17.5l-10.36-104.3-.03,104.3h-24.68V3.95h36.53c1.08,9.51,2.2,20.71,3.35,33.61l4.01,40.22,6.49-73.83h36.73Z"/>
        <path class="cls-2" d="M496.19,3.95v158.11h-28.23V3.95h28.23Z"/>
        <path class="cls-1" d="M554.73,3.95v31.64l-21.02,94.82h21.02v31.64h-52.04v-22.95l21.73-103.52h-19.18V3.95h49.49Z"/>
        <path class="cls-5" d="M562.04,3.95h47.08v31.64h-18.84v29.98h17.64v30.08h-17.64v34.77h20.72v31.64h-48.95V3.95Z"/>
        <path class="cls-10" d="M67.08,213.95l-20.59,100.88v57.23h-26.15v-57.23L.49,213.95h25.93c4.05,30.86,6.34,51.63,6.86,62.3,1.56-16.87,4.19-37.64,7.86-62.3h25.93Z"/>
        <path class="cls-11" d="M136.42,306.53c0,15.88-.26,27.13-.77,33.74-.51,6.61-2.12,12.65-4.83,18.12-2.71,5.47-6.36,9.67-10.96,12.6s-9.97,4.39-16.09,4.39-11.03-1.38-15.66-4.15c-4.63-2.77-8.35-6.92-11.17-12.45-2.82-5.53-4.49-11.56-5.03-18.07s-.8-17.9-.8-34.18v-27.05c0-15.88.26-27.13.77-33.74.51-6.61,2.12-12.65,4.83-18.12,2.7-5.47,6.36-9.67,10.96-12.6,4.6-2.93,9.97-4.39,16.09-4.39s11.03,1.38,15.66,4.15,8.35,6.92,11.17,12.45,4.49,11.56,5.03,18.07c.54,6.51.8,17.9.8,34.18v27.05ZM108.19,254.57c0-7.36-.28-12.06-.84-14.11-.56-2.05-1.71-3.08-3.45-3.08-1.48,0-2.61.83-3.39,2.49-.78,1.66-1.17,6.56-1.17,14.7v73.83c0,9.18.26,14.84.77,16.99.51,2.15,1.71,3.22,3.59,3.22s3.15-1.24,3.69-3.71c.54-2.47.8-8.37.8-17.68v-72.66Z"/>
        <path class="cls-12" d="M211.12,213.95v105.66c0,11.98-.27,20.39-.8,25.24-.54,4.85-2.12,9.83-4.76,14.94s-6.11,8.98-10.43,11.62-9.4,3.96-15.26,3.96c-6.48,0-12.2-1.56-17.17-4.69-4.96-3.12-8.67-7.19-11.13-12.21s-3.91-10.3-4.36-15.87c-.45-5.57-.67-17.27-.67-35.11v-93.55h28.23v118.55c0,6.9.26,11.31.77,13.23.51,1.92,1.55,2.88,3.12,2.88,1.79,0,2.94-1.06,3.45-3.17.51-2.12.77-7.11.77-14.99v-116.5h28.23Z"/>
        <path class="cls-13" d="M222.05,213.95h19.98c13.32,0,22.34.75,27.06,2.25,4.72,1.5,8.56,5.32,11.53,11.47,2.97,6.15,4.46,15.97,4.46,29.44,0,12.3-1.05,20.57-3.15,24.8-2.1,4.23-6.24,6.77-12.41,7.62,5.59,2.02,9.34,4.72,11.27,8.11,1.92,3.38,3.12,6.49,3.59,9.33.47,2.83.7,10.63.7,23.39v41.7h-26.22v-52.54c0-8.46-.46-13.71-1.38-15.72-.92-2.02-3.32-3.03-7.21-3.03v71.29h-28.23v-158.11ZM250.28,241v35.16c3.17,0,5.4-.63,6.67-1.9,1.27-1.27,1.91-5.39,1.91-12.35v-8.69c0-5.01-.62-8.3-1.84-9.86s-3.48-2.34-6.74-2.34Z"/>
        <path class="cls-15" d="M385,272.15h-28.23v-14.36c0-9.05-.27-14.71-.8-16.99-.54-2.28-1.81-3.42-3.82-3.42-1.74,0-2.93.98-3.55,2.93s-.94,6.97-.94,15.04v75.88c0,7.1.31,11.77.94,14.01s1.88,3.37,3.75,3.37c2.06,0,3.45-1.27,4.19-3.81.74-2.54,1.11-7.49,1.11-14.84v-18.75h-5.7v-24.02h33.06v84.86h-17.74l-2.61-11.33c-1.92,4.88-4.35,8.54-7.28,10.99-2.93,2.44-6.39,3.66-10.37,3.66-4.74,0-9.18-1.68-13.32-5.03-4.14-3.35-7.28-7.5-9.43-12.45s-3.49-10.14-4.03-15.58c-.54-5.44-.8-13.59-.8-24.46v-46.97c0-15.1.56-26.07,1.68-32.91,1.12-6.84,4.32-13.1,9.62-18.8s12.15-8.54,20.55-8.54,15.13,2.47,20.59,7.42,9.01,10.82,10.66,17.63c1.65,6.8,2.48,16.68,2.48,29.64v6.84Z"/>
        <path class="cls-21" d="M444.74,213.95l16.14,158.11h-28.85l-1.51-28.42h-10.1l-1.7,28.42h-29.19l14.4-158.11h40.8ZM429.77,315.61c-1.43-17.91-2.86-40.04-4.3-66.41-2.88,30.28-4.68,52.41-5.42,66.41h9.72Z"/>
        <path class="cls-22" d="M552.79,213.95v158.11h-24.68l-.03-106.74-9.82,106.74h-17.5l-10.36-104.3-.03,104.3h-24.68v-158.11h36.53c1.08,9.51,2.2,20.71,3.35,33.61l4.01,40.22,6.49-73.83h36.73Z"/>
        <path class="cls-23" d="M564.12,213.95h47.07v31.64h-18.84v29.98h17.64v30.08h-17.64v34.77h20.72v31.64h-48.95v-158.11Z"/>
        <path class="cls-24" d="M.36,423.95h47.08v31.64h-18.84v29.98h17.64v30.08h-17.64v34.77h20.72v31.64H.36v-158.11Z"/>
        <path class="cls-14" d="M114.66,423.95l-9.92,69.92,14.95,88.18h-26.15c-3.13-15.76-5.99-34.97-8.58-57.62-.71,10.03-1.7,20.64-2.98,31.84l-2.66,25.78h-27.49l10.26-88.18-10.26-69.92h27.29c.5,4.35,1.48,11.61,2.94,21.77,1.18,7.74,2.15,14.87,2.89,21.39l6.04-43.16h23.67Z"/>
        <path class="cls-17" d="M123.68,423.95h28.43c7.69,0,13.6.88,17.74,2.64s7.24,4.3,9.32,7.62c2.08,3.32,3.49,7.34,4.22,12.06.74,4.72,1.11,12.03,1.11,21.92v13.77c0,10.09-.71,17.45-2.15,22.07s-4.06,8.17-7.88,10.64-8.82,3.71-14.99,3.71h-7.58v63.67h-28.23v-158.11ZM151.91,451v40.23c.8.06,1.5.1,2.08.1,2.59,0,4.39-.93,5.4-2.78s1.51-5.71,1.51-11.57v-12.99c0-5.4-.58-8.92-1.74-10.55-1.16-1.63-3.58-2.44-7.24-2.44Z"/>
        <path class="cls-16" d="M192.61,423.95h47.08v31.64h-18.84v29.98h17.64v30.08h-17.64v34.77h20.72v31.64h-48.95v-158.11Z"/>
        <path class="cls-18" d="M249.68,423.95h19.98c13.32,0,22.34.75,27.06,2.25s8.56,5.32,11.53,11.47c2.97,6.15,4.46,15.97,4.46,29.44,0,12.3-1.05,20.57-3.15,24.8s-6.24,6.77-12.41,7.62c5.59,2.02,9.34,4.72,11.27,8.11,1.92,3.38,3.12,6.49,3.59,9.33.47,2.83.71,10.63.71,23.39v41.7h-26.22v-52.54c0-8.46-.46-13.71-1.38-15.72s-3.32-3.03-7.21-3.03v71.29h-28.23v-158.11ZM277.91,451v35.16c3.17,0,5.4-.63,6.67-1.9,1.27-1.27,1.91-5.39,1.91-12.35v-8.69c0-5.01-.62-8.3-1.84-9.86-1.23-1.56-3.48-2.34-6.74-2.34Z"/>
        <path class="cls-19" d="M351.88,423.95v158.11h-28.23v-158.11h28.23Z"/>
        <path class="cls-26" d="M363.21,423.95h47.08v31.64h-18.84v29.98h17.64v30.08h-17.64v34.77h20.72v31.64h-48.95v-158.11Z"/>
        <path class="cls-20" d="M483.31,423.95v158.11h-24.75l-14.69-71.88v71.88h-23.6v-158.11h23.6l15.83,71.19v-71.19h23.6Z"/>
        <path class="cls-27" d="M560.56,492.8h-28.23v-27.48c0-7.99-.3-12.98-.91-14.96s-1.93-2.97-3.99-2.97c-2.33,0-3.8,1.21-4.43,3.61s-.94,7.62-.94,15.62v73.44c0,7.68.31,12.7.94,15.04s2.03,3.52,4.23,3.52,3.48-1.17,4.12-3.52c.65-2.35.97-7.87.97-16.54v-19.87h28.23v6.16c0,16.37-.79,27.97-2.38,34.82-1.59,6.85-5.1,12.85-10.53,18s-12.13,7.73-20.08,7.73-15.09-2.18-20.45-6.54c-5.36-4.36-8.92-10.4-10.66-18.12-1.74-7.71-2.62-19.32-2.62-34.81v-46.19c0-11.39.27-19.94.8-25.63.54-5.7,2.13-11.18,4.79-16.46,2.66-5.27,6.35-9.42,11.06-12.45s10.14-4.54,16.26-4.54c8.32,0,15.18,2.34,20.59,7.02s8.96,10.52,10.66,17.51c1.7,6.99,2.55,17.86,2.55,32.62v15.02Z"/>
        <path class="cls-25" d="M570.69,423.95h47.07v31.64h-18.84v29.98h17.64v30.08h-17.64v34.77h20.72v31.64h-48.95v-158.11Z"/>
      </g>
    </g>
  </g>
</svg>