<?xml version="1.0" encoding="UTF-8"?>
<svg id="Layer_1" xmlns="http://www.w3.org/2000/svg" xmlns:xlink="http://www.w3.org/1999/xlink" version="1.1" viewBox="0 0 310 491">
  <!-- Generator: Adobe Illustrator 29.1.0, SVG Export Plug-In . SVG Version: 2.1.0 Build 142)  -->
  <defs>
    <style>
      .st0 {
        fill: none;
      }

      .st1 {
        fill: #c45f41;
      }

      .st2 {
        fill: #185651;
      }

      .st3 {
        fill: url(#linear-gradient2);
      }

      .st4 {
        fill: url(#linear-gradient1);
      }

      .st5 {
        fill: #232323;
      }

      .st6 {
        fill: #8e3226;
      }

      .st7 {
        fill: #e4e4ea;
      }

      .st8 {
        fill: #f7b750;
      }

      .st9 {
        fill: #a34737;
      }

      .st10 {
        fill: #cf99ce;
      }

      .st11 {
        fill: #281a26;
      }

      .st12 {
        fill: url(#linear-gradient);
      }

      .st13 {
        fill: #bdeded;
      }

      .st14 {
        fill: #c12e4b;
      }

      .st15 {
        fill: #c35f41;
      }

      .st16 {
        fill: #ddcfe4;
      }

      .st17 {
        fill: #f8ae89;
      }

      .st18 {
        isolation: isolate;
        opacity: .2;
      }

      .st18, .st19 {
        fill: #7aebe9;
      }

      .st20 {
        fill: #7f2c86;
      }

      .st21 {
        fill: #dcb5d8;
      }

      .st22 {
        fill: #dcbdd8;
      }

      .st23 {
        fill: #a66bb7;
      }

      .st24 {
        fill: #7971a7;
      }

      .st25 {
        fill: #fbfbfc;
      }

      .st26 {
        fill: #cc5637;
      }

      .st27 {
        fill: #3d3d4b;
      }

      .st28 {
        fill: #c386c3;
      }

      .st29 {
        fill: #fcf8e9;
      }

      .st30 {
        fill: #ac4a30;
      }

      .st31 {
        fill: #c9892d;
      }

      .st32 {
        fill: #e6794d;
      }

      .st33 {
        fill: #efd870;
      }

      .st34 {
        fill-opacity: 0;
      }

      .st34, .st35 {
        fill: #1d121b;
      }

      .st36 {
        fill: #c392c2;
      }

      .st37 {
        fill: #3c4c4e;
      }

      .st38 {
        fill: #f3f0ed;
      }

      .st39 {
        fill: #661b6a;
      }

      .st40 {
        fill: #d7643c;
      }

      .st41 {
        fill: #bfcbb8;
      }

      .st42 {
        fill: #95409b;
      }

      .st43 {
        fill: #46ded9;
      }

      .st44 {
        fill: #e67a4d;
      }

      .st45 {
        fill: #353535;
      }

      .st46 {
        fill: #12141c;
      }

      .st47 {
        fill: #309c97;
      }

      .st48 {
        fill: #bb7ba0;
      }

      .st49 {
        fill: #120f12;
      }

      .st50 {
        fill: #320532;
      }
    </style>
    <linearGradient id="linear-gradient" x1="159.1" y1="295.8" x2="159.1" y2="444.2" gradientTransform="translate(0 491.9) scale(1 -1)" gradientUnits="userSpaceOnUse">
      <stop offset="0" stop-color="#e6794d"/>
      <stop offset="1" stop-color="#f0935d"/>
    </linearGradient>
    <linearGradient id="linear-gradient1" x1="120.5" y1="360.9" x2="124.1" y2="381.6" gradientTransform="translate(0 491.9) scale(1 -1)" gradientUnits="userSpaceOnUse">
      <stop offset="0" stop-color="#3a310b"/>
      <stop offset="1" stop-color="#2a1d0f"/>
    </linearGradient>
    <linearGradient id="linear-gradient2" x1="187.3" y1="359.7" x2="187.3" y2="379.9" gradientTransform="translate(0 491.9) scale(1 -1)" gradientUnits="userSpaceOnUse">
      <stop offset="0" stop-color="#3a310b"/>
      <stop offset="1" stop-color="#2a1d0f"/>
    </linearGradient>
  </defs>
  <g>
    <g>
      <g>
        <path class="st44" d="M112.9,227.7c-7.5.6-11.2.9-18.3,5-10.2,5.9-21.1,27.1-18.4,32.3,3.5,6.9,12.7,13.9,19.7,19.9,1.9,1.6,2.5-1.8,4.9-2.9,3.4-2.6,11-50.1,11-50.1,0,0,1.1-4.2,1.1-4.2Z"/>
        <path class="st15" d="M87.8,276.9s7,3,13-1c6.1-4.1-3,13-3,13,0,0-6.1-5.3-10-12Z"/>
      </g>
      <path class="st21" d="M121.3,288.9"/>
      <g>
        <path class="st42" d="M112.7,227.7c-7.5.6-11.2.9-18.3,5-10.2,5.9-19.4,22.5-18.3,28.3,2.5,12.7,21.5,27.9,21.5,27.9,0,0,1.6-4.6,2.9-6.9,3.4-2.6,11-50.1,11-50.1l1.1-4.2h.1Z"/>
        <path class="st39" d="M95.8,259.6l6.9,17.5c.2.5-1.7,5.1-2.3,6.5l-2.7,5.3s2-22.6-1.9-29.3Z"/>
      </g>
      <path d="M55.8,190.6s-.7,0-.9-.4c.5-.5.9.4.9.4Z"/>
    </g>
    <path class="st42" d="M77.3,253.1c0,.3-.3.6-.4.9-4.6,14.3-4,24.7-3.9,31.9.4,20.2.9,89.1.9,89.1l36.7,1.2-8.7-87.2-24.2-36.8s-.4.7-.5,1h0Z"/>
    <path class="st39" d="M90.2,326.1c-4.3-11.4-2.5-49.1-2.5-49.1l31.5,35.3-4.6,28.7s-7.4-3.4-9.6-4.6,4.8,1.8,4.8,1.8l-2.1,40.5s-32.9-21.8-33.8-30.2c-.2-2.2,20.4,3.9,20.4,3.9,0,0,4.3-4-4.1-26.2h0Z"/>
    <path class="st41" d="M187.3,470.1v2h-50.5l-1.5-3c17.2,1.8,34.7,2.6,52,1Z"/>
    <g>
      <path class="st48" d="M241.3,349.6c-.5,3.2-.2,6.7-1.5,7-.2-6.1-2.7-7.9-2.5-8.2.8-1.4,3.8,2.7,3.5-1.2h.5v2.5h0Z"/>
      <g>
        <path class="st39" d="M209,381.6c8.4,1.7,16.1,5.3,23.1,10.2-2-5.9-4.3-11.7-7.2-17.2-4.2-3.3-9.5-6.4-15.2-9.7-.2,4-.4,8-.5,11.9v2.2c.3.2.5.5.8.7-.3,0-.5,0-.8.1v1.6l-.2.2Z"/>
        <path class="st39" d="M278.8,376.1c-4.7,15.5-24.6,18.8-37.7,12.5-5.2-2.5-8.5-7.6-12.7-11l4.5,1c1.2,1.7,3.6-4.4,4.2-4.5.3,0,4.2,3.2,5,3.5,8.9,3.5,30.4,7.6,36.7-1.5Z"/>
        <path class="st39" d="M249.3,334.9c-7.3-2.1-14.7-4.1-22-6.2v9.7c-2.8-.1-5.6-.3-8.5-.5,3.4-3.2,6.5-8.4,7.5-13l1,2.7c.2-9.4-.6-18.6-3.8-27.5-2.2.3,10.5,23.9-13.1,35.4v2.9c7.2,1.2,13.4,4.6,21.1,6.7.5.1,2-2,9.3,1.5-1.6-5.3-25.1-8.9,8.5-11.7Z"/>
        <g>
          <path class="st42" d="M263.8,292.9c-4.5-16.7-5.3-36.7-17-50.5-9.2-10.9-19.1-10.5-27.3-11.7-3.9,6.2-8.4,12.1-13.5,17.8-1.2,1.4-2.5,2.7-3.8,3.9,2.4,6.8,3.7,14.1,4,21.3.1,2.8,0,5.7-.5,8.6,3,17.4,4.7,35,4.7,52.6v.7c23.6-11.5,10.9-35.1,13.1-35.4,3.2,8.9,3.9,18.1,3.8,27.5v1c7.3,2.1,14.7,4.1,22,6.2-33.6,2.9-10.1,6.5-8.5,11.7v.5h.5c1.4,1.2,0,2.4,0,2.5-.5,3.2-.2,6.7-1.5,7,.2,5-1.4,9.4-3,14-1,2.8-1.7,5.8-4,8,1.2,1.7,3.6-4.4,4.2-4.5.3,0,4.2,3.2,5,3.5,8.9,3.5,30.4,7.6,36.7-1.5,2.1-16.8-2.9-28.6-17.5-37.2,4.2,0,14.1,8.6,16,11.5,2.5,3.8,1.7,11.2,3,5.2-1.5-12.7-12.4-47.6-16.5-62.7h.1Z"/>
          <g>
            <path class="st20" d="M280.3,355.6c.6,5.4,1.6,16.1-1.5,20.5,2.1-16.8-2.9-28.6-17.5-37.2,4.2,0,14.1,8.6,16,11.5,2.5,3.8,1.7,11.2,3,5.2Z"/>
            <path class="st20" d="M237.1,337.1c7.2,1,13,1,19.7,3.7-5.7-.6-18.5-1.1-19.7-3.7h0Z"/>
            <path class="st39" d="M241.3,349.6v-2.5c1.4,1.2,0,2.4,0,2.5Z"/>
          </g>
        </g>
      </g>
    </g>
    <path class="st33" d="M185.3,334.9c.5.3,2.4,0,2.5,0,1.5.4,2.9,1.2,4.5,1,.3,1.4.5.9.5,1,1.2,10.2-2.9,10.2-11.5,7,1.2-1.8,1.8-9,4-9Z"/>
    <g>
      <g>
        <path class="st8" d="M187.6,469.8c-17.2,1.6-91.2-26.6-87-9.8.2,1,4.2,17.7,8,21,7,6,43,8,67,7,14.3,0,54-11.1,55-16.2,1-4.8,1-6,2-12-14.1,5.2-30.1,8.6-45,10Z"/>
        <path class="st31" d="M160.9,488.3l-1.3-10.7s2.7,10.7,4,10.7h-2.7Z"/>
      </g>
      <path class="st32" d="M157,226.8c.7,3.5,2.5,6.8,4.2,9.9.5,2.8-4.4.7-7.8,1.4-6.8,1.3-8,7.9-3.5-3.5,1.1-2.9,2.6-5.5,3.5-8.5,3,1.7,2.5.9,3.5.7h.1Z"/>
      <g>
        <path class="st42" d="M225.7,320.9s2-1.3,2-1c.8.2,24.1-24.1,27-32,.8-2.1,5-16,3.6-22.2-2.2-8.6-5.3-16.9-11.1-23.7-11.1-13-23.1-9.9-32-12.7-2.1,4.4-4.6,8.6-7.5,12.5-1.8,6.5-15.1,23.1-21.7,23.5-9.4.6-15-13.5-21.2-17.5.8,7-1.5,13.2-8,16.7.3,1.2,3.3-2.5,4,2.7,5-2.5-2.8,6-6.2,6.5-7.5,1-10.5-8.7-11.2-14.7-.3-2.5-.3-9.5,1-8.7-.4-5.9,2.2-10.9,5-16-.5.2.2-1.5-3,1.7-3.2,3.3-20.5,27.5-22.2,27.7-.3,0-5.1-2.5-5.2-2.7-1.4-3.1,0-30.7-2.7-32.2-.7-.4-3.6.9-3.2-1-7.5.6-11.2.9-18.2,5-10.2,5.9-20.9,23-18.2,28.2,3.5,6.9,12.5,17.9,19.5,23.9,1.9,1.6,3.8-.9,4.9-2.9-3.3,7.7-9.1,19.8-7.9,29.9,1.4,11.4,6.9,18,11,21,2.7,2.1,9,4,9,4,0,0,5,5.2-1,15-2.4,4-10,14.2-19,37.3-4.9,19.1-7.8,38.1-11.1,57.7-.4,2.1-.6,4.9-1,7,14.7,9.9,37.8,12.9,55.2,14.7,17.2,1.8,34.7,2.6,52,1,14.9-1.4,30.9-4.8,45-10,4.7-1.7,10.2-4,14.5-6.5-2.2-15.6-5.7-30.9-10-46-3.2-11.3-6.5-22.5-12-33-7.4-5.9-5.1-31.1-3.9-43l4.4-10.3h-.6Z"/>
        <path class="st39" d="M221.7,324.9v.2-.2Z"/>
        <path class="st39" d="M221.8,325.1v1.1c.1-.5.1-.8,0-1.1Z"/>
      </g>
      <path class="st42" d="M88.6,321"/>
      <path class="st39" d="M225.1,372.3c-4.9-7-4.7-26.6-3.5-39.5,2.3-3,4.3-6.8,5-10.2,1-3.6.4-15.8-2.8-24.7-1.6.2,4.6,12.7-.8,23.9-2.1,3-4.9,6.9-9.4,9.9-2.2,1.3-4.8,2.6-7.9,3.6-5.9,1.6-13.7,1.7-24.2-1.3.6.2,35.3,40.1,43,56,7.5,15.4,16.2,62.8,15,67,.5-.1,6.8-3.4,10-5,2-1-2.7-48.6-24.5-79.7h0Z"/>
      <path class="st39" d="M118.6,338.3c5,0,10-3,10-3-6,3-16,1.7-16,1.7,0,0,1.1,1.8,1,5,0,3.3-1.5,8.1-4,12.3-4,7-7.1,12.9-9.6,17.9-2.8,4.8-4.9,10.2-6.1,13.6-.9,2.3-1.3,3.5-1.3,3.5-4.9,19.1-9.3,45.1-12,64.7,6.6,4,7,4,7,4,0,0-3.2-21.9,2-42.4,7.5-29,19.6-41.2,23-46.6,15-24,6-30.7,6-30.7Z"/>
      <path class="st42" d="M88.7,320.9"/>
      <path class="st39" d="M87.7,276.9s7,3,13-1c6.1-4.1-3,13-3,13,0,0-6.1-5.3-10-12Z"/>
      <path class="st16" d="M153.7,293.6c-3.1,1-3.9-4.7-1-5,2.6-.3,3.1,4.3,1,5"/>
      <path class="st16" d="M153.7,313.6c-3.1,1-3.9-4.7-1-5,2.6-.3,3.1,4.3,1,5"/>
      <g>
        <path class="st39" d="M153.7,227.2c-.7,2.1-1.7,4-2.5,6-1.8-.3-1.9,1-2,1-.5.2.2-1.5-3,1.7-3.2,3.3-20.5,27.5-22.2,27.7-.3,0-5.1-2.5-5.2-2.7-1.4-3.1,0-30.7-2.7-32.2-.7-.4-3.6.9-3.2-1,2-.2,3.9.9,6,.5-.6,8.8-.2,18.2,6.7,24.5.4,0,3.6-3.9,4.2-4.5,6.8-6.2,12.8-13.3,19.5-19.5.9-.9,2.3-1.4,3-2.5.2.2,1.2.8,1.5,1h-.1Z"/>
        <path class="st39" d="M144.2,250.2v2.7c.2.5,1.1.9,1.5,1.2-4.8,6.4,6.8,10.2,2.7,9.5-.5,0-2-1.4-2.5-2,2.4,8.5,7.2,9.3,14.7,5.5,5-2.5-2.8,6-6.2,6.5-7.5,1-10.5-8.7-11.2-14.7-.3-2.5-.3-9.5,1-8.7h0Z"/>
        <g>
          <path class="st28" d="M196.7,211.3c2.5,7.4,10.1,15.3,18.5,18-2.1,4.4-4.6,8.6-7.5,12.5-3.7,4.9-16.4,18.3-22.7,17.5-5.6-.7-24-26-26.7-32.5,10.7-3.6,21.3-9.8,28.5-18.5-.3-2.1-1.6-5.9-2-8,5.7.6,8.9,9.1,12,11h-.1Z"/>
          <path class="st39" d="M158.2,226.7c2.8,6.5,21.1,31.8,26.7,32.5,6.3.8,19-12.6,22.7-17.5-1.8,6.5-15.1,23.1-21.7,23.5-9.4.6-16.7-11.6-21.2-17.5-2-2.6-2.3-3.5-3-5.6-.4-1.3-.5-1.8-1-3-1.1-2.5-1.4-4.2-1.5-4.4-1.2-2.2-2.5-4.5-3-7,.1,0-.5-.2,2-1h0Z"/>
          <g>
            <path class="st23" d="M142.2,210.7c-1.4-.2-1.7,4.5-2.5,7-2.7,9.1-10.1,26.8-10.5,28.2-.2.6-.2,2.3.5,2.2-.6.6-3.8,4.5-4.2,4.5-7-6.3-7.3-15.7-6.7-24.5,6.5-4,11.2-9.9,15.5-16,2.9-4.1,4.5-9.1,8.5-12.5-.3,3.1-1,8.1-.5,11h-.1Z"/>
            <path class="st28" d="M149.2,228.7c-6.7,6.2-12.7,13.3-19.5,19.5-.7,0-.7-1.6-.5-2.2.4-1.5,7.8-19.2,10.5-28.2l9.5,11h0Z"/>
            <path class="st10" d="M142.2,210.7c.6,4,3.6,6.9,6,10,.6.8,3.7,5.3,4,5.5-.7,1.1-2.1,1.6-3,2.5l-9.5-11c.8-2.5,1.1-7.2,2.5-7Z"/>
          </g>
        </g>
      </g>
      <g>
        <path class="st22" d="M164.7,248.1c.8,7-1.7,12.9-8.1,16.5.3,1.2,3.3-2.5,4,2.7-7.6,3.8-12.4,3-14.7-5.5.5.6,2,1.9,2.5,2,4,.7-7.5-3.1-2.7-9.5,1.1,1,10,4.6,10.7,4,1-.7-.7-3.4-.2-4.7.3-1,3-1.6,4-3,1.5-2.2.8-6.5,3-8.2.7,2.1,1.4,3.3,1.6,5.8h-.1Z"/>
        <path class="st22" d="M151.1,233.3c-3.2,8.1-2.3,3.5,2.5,2.5-5.5,4.2-3.9,6.8-3.2,13,5.6-11.8,6.3,5,7.2-7.2l4-2.7c.5,1.2,1.1,2.2,1.5,3.5-2.2,1.7-1.5,6-3,8.2-1,1.4-3.7,2-4,3-.4,1.4,1.2,4,.2,4.7-.8.6-9.6-3-10.7-4-.4-.3-1.3-.8-1.5-1.2v-2.7c-.4-5.9,2.2-10.9,5-16,.1,0,.2-1.3,2-1h0Z"/>
        <path class="st36" d="M161.6,238.8l-4,2.7c-1,12.2-1.7-4.6-7.2,7.2-.7-6.2-2.2-8.8,3.2-13,2.4-.5,5.9,1,5.5-1,.1.2,1.4,1.5,2.5,4h0Z"/>
      </g>
      <path class="st39" d="M126.1,334l1,11.4c.8,8.5,8.2,14.8,16.7,14.2l22.3-1.6c4.1-.3,8.1.8,11.4,3.2,13.4,9.4,48.2,34.7,53.7,46.8,6.9,15.1-15.1-49.9-15.1-49.9,0,0-26.8-48.8-46.6-56.1s-40.2,24.5-43.5,32.1h0Z"/>
    </g>
    <path class="st9" d="M237.4,371.2c-1,2.8-1.7,5.8-4,8l-4.5-1c-1.2-1-2.2-2-3.5-3-9.9-7.8-41.7-24.9-52.4-33.4.5-.4,17.1,6.9,17.6,6.9,15.1,8.5,30.8,15.8,46.7,22.5h0Z"/>
    <path class="st32" d="M205.9,338.2c9.9,1.3,16.3,2.9,25.7,5.5.5.1,2.1-2.4,9.7,3.5v.5c.3,3.9-2.7-.2-3.5,1.2-.2.4,2.3,2.1,2.5,8.2.2,5-1.4,9.4-3,14-16-6.7-31.6-14-46.7-22.5-.5,0-14.8-5.8-16-6.6.3-.3-.3-3.1-.2-3.2,8.6,3.2,19.6,8,18.5-2.2,4.3.6,8.7.9,13,1.5h0Z"/>
    <path class="st33" d="M185.9,334.6c.5.3,2.4,0,2.5,0,1.5.4,2.9,1.2,4.5,1,.3,1.4.5.9.5,1,1.2,10.2-2.9,10.2-11.5,7,1.2-1.8,1.8-9,4-9Z"/>
    <path class="st39" d="M87.6,458s72.2-45.6,59.1-64.1c-3.3-4.7-2.3-19.2-25.6-25.9,0,0-45.6-17.9-44.2-6.4,1.2,9.2,7.4,77.5,9.1,93.3s1.5,3,1.5,3h.1Z"/>
    <g>
      <rect class="st43" x="112" y="401.8" width="18.7" height="10.2" transform="translate(-176.8 104.6) rotate(-28)"/>
      <path class="st47" d="M64.5,401.9c-.3-.5-.6-1-.8-1.5-.8-1.5-.3-3,1.1-3.8.9-.5,1.9-.8,2.5-1.7,1,.2,1.7-.6,2.6-1q2.3-1.2,2-3.8c-.6-5.8-1.3-11.6-2.8-17.2-1.8-7.2-4.5-14-7.8-20.6-2.9-5.7-6.3-11.1-9.9-16.4-2.9-4.2-5.9-8.2-9-12.2-.6-.8-.6-1.2.3-1.7,3.9-2,7.8-4.1,11.8-6.2,1,2.1,2.1,4.2,3.1,6.3,2.2,4.7,4.3,9.5,6.6,14.2,1.8,3.8,3.5,7.6,5.4,11.3,3.7,7.3,7.5,14.4,11.9,21.3,2.8,4.5,5.7,8.9,9.2,13,.5.5.8.5,1.3.2,1.5-.8,3.1-1.7,4.6-2.5.9-.4,1-.8.2-1.5-1.6-1.4-3.1-2.8-4.6-4.4-3.4-3.6-6.4-7.4-9.4-11.4-3.3-4.4-6.2-9.2-8.9-14-3.6-6.3-6.7-12.9-9.5-19.7-1.1-2.6-2.1-5.3-3-8-.9-2.4-1.7-4.9-2.5-7.3,1.1-.6,2.1-1.2,3.2-1.7,1,2.2,1.6,4.6,2.4,6.9,1.2,3.6,2.6,7,4,10.5,2.3,5.6,4.7,11.1,7.8,16.2,2.3,3.8,4.6,7.6,7.3,11.1,4,5.3,8.6,10,13.5,14.4,1.8,1.6,3.6,3.1,5.6,4.5.7.5,1.1.5,1.8.1.6-.3,1.1-.7,1.8-.9,2.1-.9,4.4.7,4.2,2.9-15.3,8.1-30.5,16.3-45.8,24.4l-.2.2Z"/>
      <path class="st47" d="M6.9,278.2c.8-.3,1.5.1,2.2.4,1,.6,2.2.6,3.3.8,1.4.3,2.1-.4,2.6-1.6.7-2,.6-4.2,1.2-6.2.4-1.3.8-2.6,1.5-3.8.4-.7.3-1-.5-1.3-2.9-1-4.4-3.4-4.2-6.3.2-2.2,2.7-4.7,5.3-5,3.5-.4,7.4,2.7,6.4,7-.3,1.4,0,1.6,1.3,1.7,2.6.1,4.9,1.5,7.3,2.5h.2c3,1.5,4.1,1.1,5-2.1.5-1.8,1-3.7,1.5-5.6,0-.5.4-1,.6-1.4.4-.8.8-1.5,1.8-1.5s1.4.7,1.8,1.5c3.2,6.4,4.9,13.2,5.1,20.4,0,4.1-.4,8.3-.2,12.4,0,.5,0,1,0,1.5q.3,2.2,2.4,1.6c1-.3,1.7,0,2.2.9.6,1.1,0,1.9-.6,2.6-.5.4-1.1.7-1.8.7-6.4,3.4-12.7,6.8-19.1,10.2-.5.3-1.1.4-1.3,1-.9.3-1.7,1.2-2.9,1-.9-.2-1.6-.5-1.7-1.4-.1-.8,0-1.6.9-2.1.6-.3,1.1-.8,1.6-1.2,1.5-.2,2.6-1.2,3.9-1.8.9-.4.8-1,.2-1.5-1.1-.9-2.1-1.9-3.3-2.7-4.1-2.7-8.4-5.1-12.2-8.3-4.3-3.6-8-7.6-10.6-12.6v.2ZM42.8,297.9c1.3-.3,1.8-1.2,1.4-2.7-.2-1,0-2.1,0-3.1.5-4.7,1.6-9.3,1.6-14.1s-1.6-10.8-3.6-15.9c0-.3-.2-.7-.7-.6-.3,0-.4.3-.5.6-.8,2.2-1.6,4.4-2.2,6.7-.3,1.1-.4,2.2,0,3.4.6,2.2,1.2,4.4,1.3,6.6.2,4.7,0,9.5-.2,14.2,0,1.5,0,3.1.3,4.6.3,1,.7,1.6,1.8.8.2-.2.5-.3,1-.5h-.2ZM20.4,261.3c1.1-.6,1.7-2.2,1.1-3.2-.7-1.2-2.3-1.6-3.5-1-1.3.7-1.7,2.1-1,3.3.8,1.3,1.9,1.6,3.4.8h0Z"/>
      <path class="st47" d="M69.6,429.2c-.2-.8.6-1.3.7-2,.7,0,1.3-.4,2-.7,9.3-5,18.6-9.9,27.9-14.8,9.3-5,18.6-10,28-14.9,1,.1,2.1,0,3,.4,2.2,1.1,3.2,3.1,3.3,5.3.1,2.1-1.1,3.7-3.1,4.7-1.7.9-3.4,1.8-5.1,2.6,2.4-3.3.8-7.4-1.9-8.7-1.3-.7-2.3,0-3.3.4-1.6.7-3.2,1.7-4.8,2.5-1.4.7-1.4,1,0,1.8,1.3.8,2.2,1.9,2.5,3.4.6,2.5-.4,4.9-2.6,6.1-10.1,5.4-20.2,10.7-30.3,16.1,0-.1-.3-.3-.4-.3-4-.1-6-1.9-6.1-5.8,0-1.2-.4-1.1-1.2-.6-2.8,1.5-5.7,3-8.5,4.5h0Z"/>
      <path class="st2" d="M128.1,396.8c-9.3,5-18.6,10-28,14.9-9.3,5-18.6,9.9-27.9,14.8-.6.3-1.3.6-2,.7-3.1-1.6-5.1-4.2-6.9-7.2-3-5-2.1-12.1,2-16.1.6-.6.9-1-.2-1.4-.3-.1-.7-.4-.8-.7,15.3-8.1,30.5-16.3,45.8-24.4.5.7.2,1.4,0,2.2-.5.2-.9.6-1.4.9-1.4.8-3,1.2-4.2,2.4-3.2,1.1-6.1,3-9.1,4.6-1.5.8-3,1.5-4.5,2.3-4.3,2.3-8.5,4.5-12.8,6.8-1.5.8-2.7,1.8-3.7,3.1-5.6,7-2.6,15.8,3.2,20.5.7.6,1.2.5,1.9.1,11.2-6,22.3-11.9,33.5-17.9,2.7-1.5,5.5-2.9,8.2-4.4,2.3-1.2,4.6-2.2,6.6-3.8.2.8.2,1.7,0,2.5h.3Z"/>
      <path class="st2" d="M62,311.7c-1.1.6-2.1,1.2-3.2,1.7-1.4.8-2.8,1.5-4.2,2.3-3.9,2.1-7.8,4.2-11.8,6.2s-.9.9-.3,1.7c3.1,4,6.1,8,9,12.2,3.6,5.3,7.1,10.7,9.9,16.4,3.3,6.6,6,13.4,7.8,20.6,1.4,5.7,2.2,11.4,2.8,17.2q.3,2.6-2,3.8c-.8.4-1.5,1.2-2.6,1-.4-3.7-.8-7.4-1.3-11.1-.6-4.9-2-9.7-3.4-14.4-1.7-5.6-4.1-10.8-6.7-16-1.6-3.1-3.3-6.1-5.2-9-1.7-2.7-3.5-5.4-5.3-8-2.7-3.9-5.6-7.6-8.4-11.3-.4-.5-.8-1.1-1.1-1.6,0-.5.6-.7,1-.9,7.8-4.1,15.5-8.3,23.3-12.4.4-.2.8-.6,1.3-.4.2.6.4,1.2.6,1.9h-.2Z"/>
      <path class="st47" d="M61.4,309.8c-.5-.2-.9.1-1.3.4-7.8,4.1-15.5,8.3-23.3,12.4-.4.2-.9.4-1,.9-.9.4-1.8.9-2.6,1.3-1.7.8-3.8.1-4.7-1.6-.9-1.5-.2-3.7,1.4-4.6.7-.4,1.5-.8,2.2-1.2,1-.6,2-1.3,3.1-1.6,1.6-.5,1.9-1.8,1.9-3.1s0-2.6-.4-3.9c-.2-.8,0-1.3.7-1.6,2.1-1.1,4.1-2.5,6.5-3.2l1.5,1.5c2.9,2.6,4.2,2.7,7.1,1,.3-.2.7-.2.6-.6,0-.3-.4-.3-.7-.4-1.9-.9-3.7-1.8-4.9-3.6,1.7-.9,3.3-2,5.2-2.5,1.1.9,2.2,1.8,3.3,2.5,1.4,1,2.8,1.4,4.5.4,1.9-1.2,4.1-.6,4.8,1.2.9,2.2.6,3.6-1.4,5-.8.5-1.6.9-2.5,1.4h0Z"/>
      <path class="st2" d="M6.9,278.2c2.6,5,6.4,9,10.6,12.6,3.8,3.2,8.1,5.6,12.2,8.3,1.2.8,2.2,1.7,3.3,2.7.6.5.7,1.1-.2,1.5-1.3.6-2.4,1.6-3.9,1.8-2.4-2.7-5.5-4.4-8.5-6.2-6-3.7-11.5-8-15.6-13.8-1.3-1.8-2.5-3.7-3.4-5.7-.6-1.3-.2-2.2,1.3-2.4,1.6-.2,3.1,0,4.3,1.3h0Z"/>
      <path class="st37" d="M128.1,394.3c-2,1.6-4.4,2.6-6.6,3.8,0-1.6-.2-3.3-.8-4.8-1.3-3.5-3.3-6.6-6.6-8.6-2.9-1.7-6-2-9.2-1.7,1.2-1.2,2.8-1.7,4.2-2.4.5-.3.9-.6,1.4-.9,1.8-.2,3.6-.6,5.4-.4,4.3.7,7.8,2.7,9.9,6.6,1,1.8,2,3.6,2.4,5.7.2,1,.2,1.8,0,2.7h-.1Z"/>
      <path class="st2" d="M78.1,424.7c.8-.4,1.2-.5,1.2.6.2,3.9,2.1,5.7,6.1,5.8.2,0,.3.2.4.3-.5.3-8.5,5.2-9.8,5.3-5.6.7-9.4-4.4-5.5-8.1s5.9-3.1,7.5-3.9h.1Z"/>
      <path class="st2" d="M52.6,299.4c-1.9.5-3.5,1.6-5.2,2.5-1.2.7-2.7,1-3.6,2.2-2.3.7-4.3,2.1-6.5,3.2-.6.3-.9.7-.7,1.6.3,1.3.4,2.6.4,3.9s-.3,2.6-1.9,3.1c-1.1.4-2.1,1.1-3.1,1.6,0-1.7.4-3.4,0-5.2-.2-1.3-.5-2.5-.9-3.7.2-.6.8-.8,1.3-1,6.4-3.4,12.7-6.8,19.1-10.2.4.7.7,1.3,1.1,2Z"/>
      <path class="st43" d="M54.5,315.7c1.4-.8,2.8-1.5,4.2-2.3.8,2.4,1.7,4.9,2.5,7.3,1,2.7,2,5.4,3,8,2.8,6.7,5.9,13.3,9.5,19.7,2.8,4.8,5.6,9.5,8.9,14,2.9,3.9,6,7.8,9.4,11.4,1.4,1.5,3,3,4.6,4.4.8.7.7,1-.2,1.5-1.6.8-3.1,1.6-4.6,2.5-.5.3-.8.3-1.3-.2-3.4-4-6.3-8.5-9.2-13-4.3-6.9-8.2-14.1-11.9-21.3-1.9-3.7-3.6-7.5-5.4-11.3-2.2-4.7-4.4-9.4-6.6-14.2-1-2.1-2.1-4.2-3.1-6.3l.2-.2Z"/>
      <path class="st43" d="M42.8,297.9c-.5.2-.7.4-1,.5-1.1.7-1.5.2-1.8-.8-.4-1.5-.4-3.1-.3-4.6.3-4.7.4-9.5.2-14.2,0-2.3-.7-4.5-1.3-6.6-.3-1.2-.2-2.3,0-3.4.6-2.3,1.5-4.5,2.2-6.7,0-.3.2-.6.5-.6s.6.3.7.6c2,5.1,3.7,10.3,3.6,15.9,0,4.8-1.1,9.4-1.6,14.1,0,1-.3,2.1,0,3.1.4,1.5,0,2.5-1.4,2.7h.2Z"/>
      <path class="st43" d="M20.4,261.3c-1.4.8-2.6.5-3.4-.8-.7-1.2-.3-2.6,1-3.3,1.2-.7,2.8-.2,3.5,1,.6,1,0,2.6-1.1,3.2h0Z"/>
      <path class="st47" d="M113.3,402.5c-11.2,6-22.3,11.9-33.5,17.9-.7.4-1.2.4-1.9-.1-5.8-4.7-8.8-13.5-3.2-20.5,1.1-1.3,2.3-2.3,3.7-3.1,4.3-2.3,8.5-4.5,12.8-6.8,1.5-.8,3-1.6,4.5-2.3,0,.2.3.3.6.2,7.8-1.7,14.3,3.8,16.2,11.2.3,1.2,0,2.5.8,3.5h0Z"/>
      <path class="st43" d="M113.3,402.5c-.7-1.1-.5-2.4-.8-3.5-1.9-7.3-8.3-12.8-16.2-11.2-.3,0-.4,0-.6-.2,3-1.5,5.9-3.4,9.1-4.6,3.2-.3,6.4,0,9.2,1.7,3.4,2,5.3,5,6.6,8.6.6,1.5.7,3.2.8,4.8-2.7,1.5-5.5,2.9-8.2,4.4h0Z"/>
      <path class="st43" d="M43.8,304.1c1-1.1,2.4-1.5,3.6-2.2,1.2,1.8,3,2.7,4.9,3.6.2.1.6.1.7.4,0,.4-.4.5-.6.6-2.8,1.7-4.2,1.5-7.1-1l-1.5-1.5h0Z"/>
    </g>
    <g>
      <path class="st32" d="M67.2,355.2c3-.2,16.6-7,16.6-.5s-19.8,9.5-24,9.4c12.5,1.8,23.2-6,24.5-6.2,4.3-.5,7.6,1.8,5.4,5.4-2.9,4.7-25.4,6-27.3,9.5-5.4-.5-6.9-7.7-8.6-11.7-.2-1.8-2.2-5-2.7-8s.3-7.8.3-7.8l2.5,4s3.6,4.2,5.6,6.9c1.1-.2,6.7-1,7.8-1.1h0Z"/>
      <path class="st32" d="M92,372.2s5,3.9-10.7,12.7-10.6,5.8-14.1-2.1c7.3-4.8,17-6.2,24.9-10.6h-.1Z"/>
      <path class="st6" d="M62.3,372.9c-1.3,2.3.9,6.1,3.2,6.8,3,.9,22.7-5.9,26-9,0,1,.4,1.3.4,1.5-7.8,4.5-17.5,5.8-24.9,10.6-.6.4-1.4.5-2.1.8-7.3-7.1-10.2-12.6-11.3-22.4,1.7,4,3.3,11.2,8.6,11.7h0Z"/>
      <path class="st9" d="M69.7,388c-2.4-.7-3.2-2.9-4.7-4.4.6-.3,1.5-.5,2.1-.8,3.6,7.9,13.5,2.5,14.1,2.1,5.3-3.6-6,4.6-11.5,3.1h0Z"/>
      <path class="st32" d="M92.4,366.7c.4,2.1-.8,3.8-.8,4-3.3,3.2-23.1,9.9-26,9-2.3-.7-4.5-4.5-3.2-6.8,1.1.1,15.1-3,17.6-3.7,6.5-1.9,9.3-6.5,12.5-2.6h0Z"/>
      <path class="st6" d="M92.4,366.7c-3.1-3.9-6,.7-12.5,2.6-2.5.7-16.5,3.8-17.6,3.7,1.9-3.4,24.4-4.7,27.3-9.5,1.2,1.4,2.4,1,2.8,3.2h0Z"/>
    </g>
    <g>
      <g>
        <path class="st26" d="M184.2,196.2c-9.1,11.6-21.8,20.5-36,24.5-2.4-3.1-5.4-6-6-10-.5-2.9.2-7.9.5-11,0-.7.1-4.2.5-4.9,12.4,2.2,27.7-1.8,38.5-7.6,1.2,2.9,1.7,6,2.5,9Z"/>
        <path class="st32" d="M186.2,201.7c.4,2.1.7,4.2,1,6.2-7.3,8.7-18.3,15.1-29,18.7-2.5.8-1.9,1-2,1-.7.2-.4.7-2.5-.5-.3-.2-1.3-.8-1.5-1-.3-.2-3.4-4.7-4-5.5,14.2-4,26.9-12.9,36-24.5.7,2.4,1.9,5.2,2,5.5h0Z"/>
      </g>
      <g>
        <g>
          <path class="st12" d="M215,98.7s-6.4-19.7-10.1-25.6c-4.8-7.7-19-20.8-27.7-23.4s-26.2-2.6-36.4-.7c0,0-32.8,1.7-41.1,39.7-.9,4.3,3.5,25.3-1.5,42.9,0,.3,0,.7,0,1v7.6c2.6,9.2,3.9,21.2,12.5,31.6,7.6,9.2,31.6,23.9,35.9,24.3,2.3,0,9.1-1.4,19-5.6,9.2-3.8,22.2-12.3,27.9-20.5,2.8-4,12.3-22.9,10.1-25.7,7.3-3.4,16.7-4.2,16.7-16s-2.9-19.9-5.1-29.6h0ZM114.6,146.9c1,0,2.1.1,3.2.1-1,0-2.1,0-3.2-.1ZM171.4,143.9c1,.5,2.1.9,3.3,1.3-1.2-.4-2.3-.8-3.3-1.3Z"/>
          <path class="st40" d="M219.9,128.1s1.3-1.3-1.4-12.6c-.8-3.8-2.6-12.7-2.6-12.7,0,0-.5-.6-1.1-1.4s-1.2-1.2-1.8-1.7c-7.1-6-20.5-5.6-24.3-5.7-8.5,0-16.8,1.2-20.8,6s-4,13.8-2.5,24.6c.3,1.3,1.1,4,1.1,3.4,0-1.7,1.1-6.7,2.4-9.6,2.2-4.9,4.6-8.1,10.9-10.6,15.6-6.1,31.8,20.6,32.6,21.8-1.8,6.6-5.1,12.3-11.1,14.7,3.9.7-5.7,21.3-8.6,25.6-5.7,8.2-18.6,16-27.7,19.8-10,4.2-16.7,6.3-19,6.2.2,0,0,.1.6.2,15.3,1.1,24.2-2.5,37.4-10,19.9-11.2,20.3-13.6,30.2-32.4,1.1-2.1,1.1-4.5,2.9-6.8.4-.5,9.7-1.5.7-7.9,13.3-19.1,20.4-3.9,13,6.5-6.8,9.5-18.6-4.2-10.8,11.9,25.7,5,20.2-57.3,0-29.2h0Z"/>
          <path class="st30" d="M219.9,157.3c-2.6-.5-3.2-2.9-5.8-3.6,1.1-2.1,1.1-4.5,2.9-6.8.4-.5,9.7-1.5.7-7.9,13.3-19.1,20.4-3.9,13,6.5-6.8,9.5-18.6-4.2-10.8,11.9h0Z"/>
        </g>
        <path class="st40" d="M214.4,101.8"/>
      </g>
      <path class="st17" d="M98.3,138.9c3.5,16.3,5,23.6,11.9,32.3,4.4,5.6,24.1,20.2,35.7,24.7-5.5,0-34.1-17-40.2-24.7-6.7-8.4-8.3-18.4-8.5-25.1s.3-5,.5-6.6.4-2.7.4-2.7c0,0,.2,1.6.3,2.1h-.1Z"/>
      <path class="st32" d="M107.5,101.8c-1.9,0,1.4-4.4,2.2-6.3,1.1-2.9,1.1-6.4,2-9.2,6-19.8,23.8-27.8,10.5-24.2-10.5,2.8-20.8,35.1-21.9,44.7l.2,6.2c2.5-3.2,3.6-4.2,8-6.6,8.5-4.7,18.4-1.3,22.4,9.3,0,0,2.4,10.4,2.4,11.2s0-9.4.2-10.9c-1-13.2-15.4-14.4-25.9-14v-.2Z"/>
      <g>
        <path class="st32" d="M98,137.2c-10.3,3.7-5.4,11.1-2.8,18.2-12.4-9.8-7.4-25.4-2.6-25.8s2.6,0,3.8.9,1.6,1.7,1.6,1.7v5h0Z"/>
        <path class="st40" d="M95.9,132.3c.9,0,2.1,1.3,2.1,4.1s-1,7.3-.8,11.6c0,0,.5,5.7,1.6,9.6-1.4-.5-2.5-1.3-3.6-2.2-2.6-7.1-9.6-19.4.7-23h0Z"/>
      </g>
      <g>
        <path class="st11" d="M291.1,150.8c-.1-.1-.3-.3-.5-.5-.3-18.3-12.2-12.5-19.3-17.2-4.6-3-7.8-19.4,14.1-18.4,5.6,7.9-14,6.4-11.9,10.5.5,1,15.1,6.1,17.2,8.6,3,3.6,3,13.9.5,16.9h-.1Z"/>
        <path class="st35" d="M44.3,134.5c-.8,1.3-5,3.9-3.3,11.9-5.8-2.1-15-2.7-13.8-10.7,1.8-13,15.7-1.2,17.2-1.2h-.1Z"/>
        <path class="st35" d="M56.7,116.9c.3,2.9.7,5.9,1,8.8-4.5,2.9-8.9,5.9-13.4,8.8.5-.9,2.2-2.1,2.4-2.6,2-5.4-4.4-9.4-3.8-14.8,0,0,13.8-.2,13.8-.2Z"/>
        <g>
          <path class="st49" d="M98,132.4"/>
          <path class="st35" d="M298.2,82c-4.4-2.2-5-1.6-9.5-2.6,2.8-7.4,4.1-10.6,0-17.4-.5-.4-.6-.5,0,0-3.8-6.4-10.8-9.3-17.9-6.2-2.8-.5.9-5.9-9.8-11.7,8.4-15.5-11.3-28.1-21.2-13.6-17.6-19.8-42.2-28.6-66.8-15.3-16.7-19-48.4-16.7-65.6.2-1.7,1.6,0,4-12.7,9.3-2,0-9.9-10.8-21.2-1.4h0c-2.9,2.4-5.6,6.4-5.7,10.3,0,.8,1.6,8.5,1.9,8.8-1.2.2-2.3.9-3.3,1.4-7.7,4.2-5.2,3.5-8.8,11-18.3-1.5-25.2,16.3-12.2,28.9-2.6.8-5.1,1.1-7.6,2.1-2,.8-3.2,1.4-4.8,2.9-9.1,8.5-4.8,20.5,5.7,25.1.6,1.8-3.9,4.4,0,13.4-18.1-2.1-24.5,18.3-7.6,26.3-3.6,8.8,2.8,20.4,12.7,16.9,7.9,7.8-2,7.8-.2,18.9,1.4,8.6,13.5,14.1,20.8,8.8,10.3,4.3,5.3,4.9,8.8,9.8,4.5,6.2,15.7,5.6,20.8.2,1.4.3.7,13.5,19.1,11,4.4-7.8,5.9-2.4,12.9-5.7,5.2-2.5,5.1-9.4,10.3-4.8,2.7-3.9,3.2-8.1,6.9-11.3,0-.7.1-1.4.2-2-6.4-2.2-25.4-13.4-31.3-18.4-9.3-8-13.3-20.4-13-19.3-1.4-.5-2.5-1.3-3.6-2.2-12.4-9.8-7.4-25.4-2.6-25.8.6,0,2.6,0,3.8.9,1.1.8,1.6,1.7,1.6,1.7.9-3.6,1.9-8.4,2.1-11.7.9-5.9.9-15.3.9-15.5.5-7.8,10.9-38.5,20-42.5,5.4-2.4,10.3,1.5,16.9-8.1,21.9,12.3,30.3-2.2,32-2.9,6.6-2.5,8.3,5.2,8.8,5.5,13.7,7.9,27,21.4,30.5,27,.5.7,2.5,5.8,3.6,9.5,3.7,11.3,6.8,34.7,6.8,34.7,0,0,3.9-5.6,7.4-6.8,0,0,3.7-1.4,6.5,1.8,5.2,5.9,4.6,25.8-3.7,32-5,3.7-10.2,2.9-13.4,0-1.2-1.1-2.4-1.4-2.4-1.4,0,0-.3.7-1,1.9-1.6,2.8-5.4,11.2-9.3,15.7-8,9.3-15.7,11.8-22.1,16,.9,3.2,1.6,5.7,2.4,8.5.6,2.3,1.8,4.9,1.9,5.3,5.5.5,7.2,3.8,10.1,5.6.5.3,3.4.9,4.5,1,6.7,13.2,24.4,10.2,28.6-3.8,9.2,9.7,23.3,11.6,27.2-3.8,7,0,12,.7,16.7-5.3,17.5,1.9,24.2-15.7,11.7-27.5l6-7.9c5.9,1.5,11.5.1,14.6-5.3,3.9-6.8,2-13.9-4.3-18.4,1.5-16.7-7.5-16.8-8.1-17.7-3-4.1,5.5-3.8,10-9.1,6.8-8,4.8-22.1-4.8-27"/>
        </g>
        <path class="st11" d="M50.5,154.1c-.3,0-1.5,1.8-5,2.9-.6-.1-4.4-9.9-4.5-10.5-1.6-8,2.6-10.6,3.3-11.9,4.5-2.9,8.9-5.9,13.4-8.8-.3-2.9-.7-5.9-1-8.8,0-2.7-8-6.9-13.4-10.5-2.1-4.4-1-9.9,1.9-13.8,8.5-3.8,19-1.6,19.1-7.9,0-.5-2.1-5.7-2.4-9.8-.7-10.7,14.1-12.8,15.3-14.1.5-.5,1.7-5.6,1.9-6.9,1.4-2.1,3.2-3.8,4.8-5.7,2.2-2.7,3.6-.4,1.9-8.8,15.4-17.1,14.5-10.7,36-7.9,3.2-.7,3.2-14.6,10-15.8,9.6-1.6,12,10.3,8.1,13.4-3.7,2.9-3.2-2.6-6.7-7.6-3.8,22.6-17.7,15.1-34.9,12.9-8.5,5.8-4.5,10.2-5.5,13.1-.3.8-7.6,7.1-8.1,8.1-3,6.4,5.2,5.2-16.7,16.7-2.4,6,9,16.3-6.9,23.2-4.6,2-16.6,2.2-13.4,6.2,2.7,3.3,15.3,6,16,17.4,1.4,22.7-27,10.2-13.4,35.1l.2-.2Z"/>
        <g>
          <g>
            <path class="st11" d="M185.3,17.1c12-1.1,20.7,19.5,43.4,11.9,11,14.6,20.3,10.1,15.5,27.9,2.5,1.2,11.9,9.5,12.7,9.8,5.3,1.9,20.8-2.8,16,16.5,4.5,1.6,20.5,7.8,22.4,11.5,2.3,4.2.7,12.4-4.1,14.1-11.1,3.9-.8-9.2-1.2-10.7-11.9-10.9-28.6-.8-22-23.4-4.2-.4-8.4-.8-12.7-1.2-8-10.6-12.6-7.7-15.5-11.2-7.7-9.3,11.9-21.6-18.9-17.4-.8-2.7-1.6-5.4-2.4-8.1-11.7.4-21.9-6.3-31-12.9-4.1-.3-16.4,7.7-13.6-.7.6-1.8,9.1-5.8,11.2-6h.2Z"/>
            <path class="st50" d="M230.2,34.8c3-.2-2.5,2.1-3.3,2.4-11.5,4.2-3.3-1.9,3.3-2.4Z"/>
          </g>
          <path class="st0" d="M131.9,15.7c-6.8,1.2-6.8,15-10,15.8-21.5-2.8-20.6-9.3-36,7.9,1.6,8.4.3,6.1-1.9,8.8-1.6,2-3.4,3.6-4.8,5.7h0c-.2,1.3-1.4,6.4-1.9,6.9-1.2,1.3-16,3.3-15.3,14.1.3,4,2.4,9.3,2.4,9.8,0,6.2-10.6,4.1-19.1,7.9-3,4-4,9.4-1.9,13.8,5.3,3.6,13.5,7.8,13.4,10.5-4.6,0-9.2.1-13.8.2-.5,5.4,5.8,9.4,3.8,14.8-.2.6-1.9,1.7-2.4,2.6-1.5,0-15.4-11.8-17.2,1.2-1.1,8.1,8.1,8.7,13.8,10.7,0,.6,4,10.4,4.5,10.5,3.5-1.1,4.7-2.8,5-2.9-13.6-24.8,14.8-12.4,13.4-35.1-.7-11.4-13.3-14.1-16-17.4-3.3-4,8.8-4.2,13.4-6.2,16-6.9,4.6-17.2,6.9-23.2,21.9-11.5,13.7-10.3,16.7-16.7.5-1,7.8-7.3,8.1-8.1,1-3-3-7.3,5.5-13.1,17.2,2.2,31.1,9.7,34.9-12.9,3.5,5.1,3,10.5,6.7,7.6,3.9-3.1,1.5-15-8.1-13.4v.2Z"/>
          <path class="st0" d="M273.4,125.2c-2-4.2,17.5-2.6,11.9-10.5-21.9-1-18.7,15.3-14.1,18.4,7.1,4.7,19-1.1,19.3,17.2.2.2.3.3.5.5,2.5-3,2.5-13.3-.5-16.9-2.1-2.5-16.7-7.6-17.2-8.6h.1Z"/>
        </g>
      </g>
      <g>
        <path class="st29" d="M132.3,123.6c-.5-1.5-1.4-5.2-5.7-9.4s-5.8-4.4-8-4.7c-1.4-.2-2.7-.2-3.9,0-2.3,0-5.7,1.4-7.9,3.2-5.9,4.7-4.6,12.5,1.1,15.8.2.1.5.3.8.4,3.2,1.8,5.7,1.8,9.2,1.9,0,0,6.2.4,14-2.7,7.8-3.1,1.4-.7,1.4-.7,0,0-.2-2-1-3.8h0Z"/>
        <path d="M100.9,109.4c2.6,2.2,6.4-6.2,17.1-5.2,8.7.8,15.6,12.1,15.2,22.3-1.2-2.1-2.2-5.2-2.6-5.5,0,0-.2,0-1.3-.9,1.2-4-7-10.2-10.7-10.7-6.6-.8-10.8,2.4-13.7,7.7s-.6,1.2-.9,2.1c-1.1,4,1,7.7,4.7,9.7-.7,0-3.8-2-4.2-2.4-4-3.4-7.6-12.5-7.6-18.1,0-1.1.3-4.6.8-3.2,1,2.6,2.4,3.6,3.2,4.2Z"/>
        <path d="M117.7,122.3c1.9-.5,2.5-3.1,2.2-4.9,11.2-1.4,3.9,16.2-2.2,4.9Z"/>
        <path class="st4" d="M130.7,121.9v-1h0c-.8-6.6-8.4-11.1-12-11.6-.4,1.4-2.7,2.5-3.4,3.9,0,.3-.8,2.1,0,2.1,2,0,2.6.3,3.4.4,0,.4,1.3,1.6,1.3,1.7,10.9-1.4,3.8,15.8-2.1,4.7-2.3.6-4.3-1.6-4.7-.6.8,3.7,1.3,6.9,4.7,8.8,1.2.7,3.2.5,7.7-.3,4.5-.8,5-4.6,5.1-8.2h0Z"/>
        <path class="st29" d="M182.5,112.5c.9-.2,3.8-.5,5-.5,2.9.2,5.9,2.2,5.9,2.2,7.3,5.1,10.2,9.3,3.2,16.3-.7.3-2.8,1.2-3,1.3-5.7,1.4-21.2,1.3-27-2s0,0,0,0c-.3-.2-.3-2.9,0-4,3.4-6.8,7.9-12.2,15.9-13.3h0Z"/>
        <g>
          <path d="M202.7,116.4c2.2,1.8,3.7.7,5.2-1.2.9-1,.8-1.6,1-1.2s.3,1.8-.3,3.8c-1.4,4.3-5.3,9.8-12,12.8,6.9-7,4.1-11.2-3.2-16.3,0,0-1.9-1.4-5.6-2.1s-3.6.2-5.4.4c-7.9,1.2-12.4,6.5-15.9,13.3,1.5-13.8,12.1-22.6,26.4-17.6,5.7,2,8.2,7,9.7,8.2h.1Z"/>
          <path class="st3" d="M195.8,120.7c-.2-2.4-3.1-7.8-7.9-8.6-1.8-.3-3.6.2-5.4.4-4.3,6-2.2,3.1,1.5,4.3.4,0,1.1.8,1.5,1.3s1.5.2,3.9.9c5,5.8-3,11.7-6.4,4.7-1.9.3-4.2-1.7-4.3-1.5.3,14.3,18.7,12.7,17.2-1.5h-.1Z"/>
          <path d="M189.3,119c5,5.8-3,11.7-6.4,4.7,2.3-.3,3.8-3.5,2.6-5.6,1.7-.2,2.8,0,3.9.9h-.1Z"/>
        </g>
      </g>
      <path class="st1" d="M226.8,152.5l1,2c1,2-3,3-3,3-1.2.4-2,1-3,0l1-5c1-2,3.7-.5,4,0Z"/>
      <g>
        <path class="st13" d="M227.8,160.5c0-2,0-5-1-6s-1.8-2-3-1-1.8,4.6-2,7,.4,3.4,1.1,4c2,1.5,3.3,1.3,4,.2,2-3.2,1-2.8,1-4.2h-.1Z"/>
        <path class="st19" d="M228.4,159.7c-.2-2.8-.5-4.8-1.6-5.2-3-1-1,3-4,5s-.6,3.3,0,4c3.4,4.1,5.8-1,5.6-3.8Z"/>
      </g>
      <g>
        <path d="M99.6,95.3c-.3,0-.6-.3-.4-.5,1.2-2,4.7-7.3,6.9-8.8s9.4-5,14.5-4c4,.8,4.1,4.5,4.2,6.1s0,0,0,0c-2.7,1.5-4.4.4-8.9,0s-3.2,0-4.9.5c-2.6.7-4.9,2.4-7,4.9s-2.7,2-4.3,1.8h0Z"/>
        <path d="M199.7,88.2c.1.5,2.3,3.2,2.9,5.4l-1.1,1.1c-14.8-10.3-26.1-.3-29.2-7.2,2.6-2.2,3.2-11.9,27.4.7h0Z"/>
      </g>
      <g>
        <path class="st26" d="M158.7,144.9c1.8,8-20.2,11.3-20.9,2.2,5.6,5.6,15,2.2,20.9-2.2Z"/>
        <g>
          <path class="st14" d="M177,151.3c2.6.3,5,1.6,6.1,4-8.5.6-12.2,25.1-29.2,27.7-25.2,3.9-14.9-25.6-27.7-19.8.7-9.3,39.9-.3,54-8.6l-3.2-3.2h0Z"/>
          <path class="st25" d="M172,160c4.4-.6-4.9,8.3-6.5,9.4-9.1,5.7-30.7,7.4-30.2-4.3,15.2,3.6,34.6-4.8,36.7-5h0Z"/>
        </g>
        <path class="st17" d="M142.5,141.3c2.2,1.7,5.3,2.2,5.4,2.5,1.6,4.5-6.7,4.9-5.4-2.5Z"/>
      </g>
      <g>
        <path class="st18" d="M139,114.5c0,15.7-15.3,27-28,27s-19-10.3-19-26,9.3-22,22-22,25,5.3,25,21Z"/>
        <path class="st18" d="M218,115.7c0,22.8-17.9,29.8-32.8,29.8s-22.2-11.3-22.2-28.7,10.9-24.3,25.7-24.3,29.3,5.8,29.3,23.2Z"/>
        <g>
          <path d="M223,124.5c4.2-9.7-4.3-20.7-5.7-23.8-2.2-4.8-6-8.2-9.3-9.2s-6-1-13-1-29-3-34.5,13.7c-7.2-3.1-12.6-2.6-20-1-1.5-2.7-5.5-11.7-20.5-12.7-1.9,0-9.2-.7-16,1s-7.9,2.9-10,5-4.6,9.8-5,18c-.3,7,2,17,3,19s3,6,5.8,7.5c8.6,5,15,5,21.2,4.5,15-1,26.3-18.5,26-32.8,21.2-1.9,7.5,3.4,18.2,22.7,2.6,4.6,9.8,11,16.8,13,4.9,1.4,14.8,1.8,23-2,13-6,17.7-16.6,20-22h0ZM136.7,117.3c-.3,7.5-3.3,13.5-8.1,17.3-6.2,5-15.2,6.5-24.9,3.7-5.8-1.7-7.8-6.3-8.8-8.7-4-10,0-24,1-27,1.9-5.8,10.4-7.7,16-8,8.6-.5,17.3.2,21.7,8.7,2.1,4,3.2,9.5,3,14h.1ZM169.7,135.5c-3.5-4.7-5.4-13.9-5.5-19.7-.4-15.9,5.2-19.1,20-20.5,5.6-.5,11.5-.9,17,0,.8,0,2.4.4,3,.5,2.1.6,4.2,1.3,5.8,2.8s4.4,6,6,16.9c.5,3.4,0,8-1.7,12.7h0c-8.9,20.4-36.1,18.5-44.5,7.2h-.1Z"/>
          <path class="st45" d="M236.7,109.8c-.5-.7-12.9-8-15-8.9-2.4-1-4.8-2.3-5.2-2,.6,2.4,7.8,13,7.6,18.8,0,.9,1.9,1.1,1.9,1.1v-.8c9.2.4,12.2-1.5,15.1.6-.2-1.6-3.6-7.7-4.4-8.9h0Z"/>
          <g>
            <path class="st5" d="M90.3,105.3c-3.3,1.5-6.7,3-10,4.5-.5-1.1-2.6-9.7-1.2-10.5,22.8-3.4,17.7-10.3,11.2,6Z"/>
            <path d="M90.3,105.3c-.4,3.3-.8,6.7-1.2,10-3.2-2.1-6.9-1.7-8.7-5.5,3.3-1.5,6.7-3,10-4.5h-.1Z"/>
          </g>
          <path d="M235.2,125.2c.4-.2,4.8-5.6,5.9-6.6-2.7-2-6-1-13.6-.6-9.6-.3-10.3-3.5-10.3-3.5l.6,3.1c0,.5.2,2.5.5,4.5l4.4,2.9c3.7-3.8,5.3-4.8,9.3-3.3,2.1,1.2,2.7,2.9,3.1,3.5h.1Z"/>
        </g>
      </g>
    </g>
  </g>
  <g>
    <g>
      <g>
        <path class="st24" d="M136.3,293.7c8.1,3.3,3.4,2.1,2.7,7.4,1.8-2.8,3.6-5.8,4.8-8.9-.1-.1-1.7-3.3-1.9-3.4-1.4-.6-2.3,3-3.4,1.6-.7,1-1.9,2.9-2.2,3.2h0Z"/>
        <path class="st46" d="M122.6,324.2c-5.1,3.3,2.7,12.3,6.4,8.4,3.2-3.4-3-10.6-6.4-8.4Z"/>
        <path class="st38" d="M155.5,308.7c-.2-1.1-.4-1.3-1.3-2.5-2.4-3.7-21.2-35.6-30.6-42.7-1.9-1.4-3.3-.5-4.2.4-4.5,5-29.9,20.8-31.5,24-.7,1.4.3,3.3.9,4.5,1,1.7,20.1,27.1,23.5,31.7,13.3,17.7,13.2,22.6,22.5,14.9-.2-.3,22.3-18.5,25.1-22.5-1.3-.6-4.3-7-4.4-7.8h0Z"/>
      </g>
      <g>
        <g>
          <g>
            <path class="st11" d="M148.1,330.1c-.1,0-.8-1.9-.9-2-3,3-14.8,13.1-16.7,13.9-5.7,2.4-7.8-4.6-18.1-17.9-3.5-4.5-22.6-30-23.5-31.7-.7-1.2-1.6-3.1-.9-4.5,1.6-3.2,27-19,31.5-24,1.1-1,4.4-.8,6.6,2.2,7.8,10.7,26.9,38.5,29.5,42.4.9,1.2,1.1-.7,2.3-.5-4.4-6.6-29.7-44.4-32.8-46.5-4.4-2.9-8,2.3-11.3,4.5-1,.7-1.9,1.4-2.9,2-.5.3-1,.7-1.5,1-1.2.7-3.3,2.6-4,2.3,0-3.4-2.6-8,1.4-9.9,5.1,0,33.6-10,35.7-8.7,4.9,9.4,8.3,19.8,12.1,29.8,3.1,8.1,6.8,17,9.4,25.2.4.3.6-.1,1,.3l2.7,2.2c-1.2-2.3-4.1-11.5-5.5-14.8-1.8-4.4-3.3-8.9-5-13.4-1.3-3.5-2.8-6.8-4.1-10.4-.4-1.2-3.8-8.1-3.2-8.8,4.2.9,23.9.6,25.3,3.9.7,1.6-4.8,30.6-5.5,35-.4,2.9-1,5.7-1.2,8.6,0,0-.6.3,1.2,1.6,2.2.3,5.8-39.6,7.8-43,2.1-9.8-18-6.4-28.7-8.6-1.8-3.9-2.4-9.4-7.5-10.4-1.9-.4-32.9,9.3-37.7,10.4-3.1,2.9-.7,9.2-.3,12.8-6.7,6-21.7,11.4-17.2,19,6.7,7.2,35.5,50,39.6,52.3,4.1,2.4,19-12.7,22.4-14.6v.3Z"/>
            <path class="st27" d="M88,285.2c-5.1,7.2,1.5-.7,9.6-6.2l-9.6,6.2Z"/>
          </g>
          <path class="st7" d="M154.4,282.6c-3.8-9.9-7.2-20.4-12.1-29.8-1.9-1.5-29.9,7.3-35.7,8.7-4.1,1.9-1.5,7-1.5,10.4,3.3-2.5,5.6-3.2,9.7-6.9s3.3-2.5,4.4-3.3c2-1.4,4.7-1.1,5.5-.1,7.3,8.2,21.6,29.7,32.9,46.9.4-.5,5.6-1.1,6.1-.7-2.6-8.2-6.3-17.1-9.4-25.2h0Z"/>
        </g>
        <path class="st7" d="M152.8,271.7c2.7,6.9,7.4,18.8,7.4,18.8l6.9,18.8s.5,1,1.4,1.5c.7-4.4,7.3-42.3,6.6-43.9-1.4-3.3-21.6-3.2-25.8-4.1.2.6,3.2,7.8,3.6,9h0Z"/>
      </g>
      <path class="st11" d="M112,287.1c-.2-1.1.8-2,1.9-1.6,1.7.7,4,1.4,6.3,2,21.2,4.8,25.9,8.7,22.2,15.9-4.7,9-19.8,1.1-.5,10,.5.2.6.8.2,1.2l-10.6,7.8c-.4.3-1,0-1.1-.5-.8-24.3-.6,1.2-12.5-1.3-8.8-1.9-6.3-15.2-5.3-25.3.3-3.1,0-6.1-.6-8.1h0Z"/>
      <path class="st14" d="M138.5,260.5c7.7-1.9,1.5,7.2-.6,10s-.3,0-.3,0c-1.5-2.9-6.9-3.6-6.2-7.1.8-3.7,4.8-.9,5.1-1,.1,0,.6-1.6,1.9-1.9h.1Z"/>
      <path class="st14" d="M164,281.8l-2.8-6.8v-.5l4-6.3c.3-.5,1.4-.4,1.7.1l2.8,6.8v.5l-4,6.3c-.3.5-1.4.4-1.7-.1Z"/>
    </g>
    <path class="st34" d="M122.2,261.4c3.1,2,28,38.9,32.3,45.5.5,0,3.1-.5,5.8.5-.2-.9-.3-.6-.7-1.2-5-6.4-8.6-13.8-12.8-20.7-2.7-4.4-12.3-17.9-12.6-18.3-6-7.7-5.2-12.1-12-5.8Z"/>
    <path class="st34" d="M150.4,271.5c1.3,3.5,2.8,6.9,4.1,10.4,1.7,4.5,3.2,8.9,5,13.4,1.3,3.3,3.4,10.2,4.6,12.5.3.6.8,1.7,1.1,2.1.2.2.5.4.7.6.2-2.9.8-5.8,1.2-8.6-.2-6.2-10.6-26.9-16.6-30.2v-.2Z"/>
    <g>
      <path class="st32" d="M133.3,324.2c.5,0,1.1-.2,1.5-.3,2.4-1,4.4-2.6,6.4-3.7.6-.4,13.5-9.3,14.2-9.1.6.2.4.2.4,1.2,3.1-1.1,10.9-3.9,12.3-2.2-.5-.4-1.5-1.8-2.1-2.2-6.1-3.2-16.8.6-23.6.3-4.3,2.8-6.4,7.3-9,11.4-1.4,2.1-6,4.9.1,4.6h-.2Z"/>
      <path class="st32" d="M158.1,342.9c2.4.2,5.7-.5,7.8-1.8-1.4,0,1.1-1.6,2.2-2.3.7-.9,1-2.3,1.3-2.9-.6-2.9-6.5,2.6-6.9,2,.2-3.4,5.2-3.9,8.2-4.9,2.3,2.1,2.4,6.1,4.1,8.2-.2-2.8-2-6.4-1.5-8.5-4.3-.5-2.3-2.2-3.3-2.4-.6,0-2.6,3.2-10.2,5.7,2.6,6.9,3.8,4,4.4,4.2,2,.7-2.7,2-3,2-1.1,0-1.8-2.3-3.1.8h0Z"/>
      <path class="st9" d="M165.9,341.2c1.5-.5,7.8.8,8.9,1.2v-.9c-5.7-1.6-1.9-5.5-6.7-2.6-1.1.7-3.6,2.4-2.2,2.3Z"/>
      <path class="st1" d="M146.9,316.1s.5-.9.6.3c2.4-2.1,5-3,8.2-4.1,0-1,.2-1-.4-1.2-.7-.2-12.2,4.3-12.8,4.7-1.2,1.4-8.5,8.6-7.7,8.1,2.7-1.5,5.6-2.8,12.2-7.8h-.1Z"/>
      <path class="st9" d="M174.8,341.5v-.3c-1.8-2.1-1.8-6.1-4.1-8.2.2,2.9-.9,2.1-1.3,2.9-.3.6-.6,2-1.3,2.9,4.8-2.9,1,1,6.7,2.6h0Z"/>
      <path class="st6" d="M141.1,321c.8-.4,3.9-2.8,5-3.2,0,0,1.6-1.1,2.2-1.8-.9-.6-1.8,0-3.1.9-3.3,2.7-6.4,4.7-10.4,6.8s-1.3.4-1.6.4c.9,0,1.7,0,2.6-.5,1.9-.9,5-2.6,5.3-2.7h0Z"/>
      <g>
        <path class="st32" d="M140,333.9c0,.3.4.4.7.5.7.2,1.6,0,1.7,0,0,0,.4,0,1.5-.8,1.9-2,.5-5.2,2.6-6.7,2.2-1.6.7.5,2.2,4.2l2.5,5.7c3.1,3.8,2.8,5.9,6.9,6.2,1.3-3.1,2.1-.8,3.1-.8s5-1.3,3-2c-.6-.2-1.8,2.8-4.4-4.2,7.6-2.5,9.6-5.8,10.2-5.7,1,.1-1,1.9,3.3,2.4-.5,2.2,1.3,5.7,1.5,8.5v.3s20.1,9.3,22.9,11c2.5-3.5-1.8-9.5-.5-13.6.2-.8-.3-1.2-.2-1.3-1.4-.4-2.6-1.2-3.8-1.9-9.2-5.3-14.2-12.5-20.9-20.4-2.6.5-3.1-3.2-4-4.9,0,0,0-.1-.3-.3-1.4-1.6-9.1,1.1-12.3,2.2s-5.8,2-8.2,4.1c0,0-.2.2-.3.3-.1.1-2,2.1-2.2,2.3-.6.7-.9.8-.9.9-4.1,5.2-3,7.9-4.1,14.1h0Z"/>
        <g>
          <path class="st32" d="M172.2,315.3c-1.5-1.8-2.1-3.1-4-4.9.9,1.7,1.3,5.4,4,4.9Z"/>
          <path class="st9" d="M149.8,323.4c0,.2-2.1,2.8-1.9,2.9.7-.6,1.3-1.8,3.5-2.9,5.5-2.6,14.3-5.6,11.2-6.6-1.2,1.7-12.4,5.9-12.7,6.5h-.1Z"/>
          <path class="st1" d="M148.8,331c-1.5-3.8,0-5.8-2.2-4.2-.3,1.6,1.4,4.8,2.2,4.2Z"/>
          <path class="st9" d="M156.6,328.9c2.5-.7,6.7-2.4,7.5-4-.8.5-9.3,3.7-9.4,4.7,0,.1-.2,1.8,0,2.5,0,0,2.4,8,3.1,9s1.5,1.2,1.5,1.2c0,0,.3-.2-.2-.8s-.8-1.1-.9-1.5c-.6-1.8-1.5-4-1.9-4.7s-.4-2.1-1.1-3.4c.1-.8.2-2.6,1.6-3h-.2Z"/>
        </g>
      </g>
      <path class="st9" d="M169.3,335.9c.4-.8,1.5,0,1.3-2.9-3,1-8,1.5-8.2,4.9.4.7,6.3-4.8,6.9-2Z"/>
    </g>
  </g>
</svg>