<?xml version="1.0" encoding="UTF-8"?>
<svg id="Layer_1" xmlns="http://www.w3.org/2000/svg" version="1.1" viewBox="0 0 310 491">
  <defs>
    <style>
      .st0 {
        fill: #c45f41;
      }

      .st1 {
        fill: #c05e58;
      }

      .st2 {
        fill: #185651;
      }

      .st3 {
        fill: #232323;
      }

      .st4 {
        fill: #8e3226;
      }

      .st5 {
        fill: #e4e4ea;
      }

      .st6 {
        fill: #f7b750;
      }

      .st7 {
        fill: #a34737;
      }

      .st8 {
        fill: #cf99ce;
      }

      .st9 {
        fill: #23110a;
      }

      .st10 {
        fill: #281a26;
      }

      .st11 {
        fill: #f0935d;
      }

      .st12 {
        fill: #bdeded;
      }

      .st13 {
        fill: #c12e4b;
      }

      .st14 {
        fill: #c35f41;
      }

      .st15 {
        fill: #ddcfe4;
      }

      .st16 {
        fill: #e5fdfe;
      }

      .st17 {
        fill: #7f2c86;
      }

      .st18 {
        fill: #dcb5d8;
      }

      .st19 {
        fill: #dcbdd8;
      }

      .st20 {
        fill: #2e643c;
      }

      .st21 {
        fill: #a66bb7;
      }

      .st22 {
        fill: #7971a7;
      }

      .st23 {
        fill: #fbfbfc;
      }

      .st24 {
        fill: #3d3d4b;
      }

      .st25 {
        fill: #c386c3;
      }

      .st26 {
        opacity: .2;
      }

      .st26, .st27 {
        fill: #7aebe9;
      }

      .st28 {
        fill: #c9892d;
      }

      .st29 {
        fill: #e6794d;
      }

      .st30 {
        fill: #efd870;
      }

      .st31 {
        fill: #511407;
      }

      .st32 {
        fill: #c392c2;
      }

      .st33 {
        fill: #3c4c4e;
      }

      .st34 {
        fill: #f3f0ed;
      }

      .st35 {
        fill: #661b6a;
      }

      .st36 {
        fill: #17ae9d;
      }

      .st37 {
        fill: #d53a5c;
      }

      .st38 {
        fill: #bfcbb8;
      }

      .st39 {
        fill: #95409b;
      }

      .st40 {
        fill: #46ded9;
      }

      .st41 {
        fill: #e67a4d;
      }

      .st42 {
        fill: #353535;
      }

      .st43 {
        fill: #12141c;
      }

      .st44 {
        fill: #309c97;
      }

      .st45 {
        fill: #bb7ba0;
      }

      .st46 {
        fill: #120f12;
      }

      .st47 {
        fill: #320532;
      }

      .st48 {
        opacity: 0;
      }

      .st48, .st49 {
        fill: #1d121b;
      }

      .st50 {
        fill: #4e0b1b;
      }
    </style>
  </defs>
  <g>
    <g>
      <g>
        <path class="st41" d="M111,230.1c-7.3.6-10.8.9-17.7,4.8-9.9,5.7-20.4,26.2-17.9,31.3,3.4,6.7,12.3,13.5,19.1,19.3,1.8,1.6,2.4-1.8,4.8-2.8,3.2-2.6,10.7-48.5,10.7-48.5l1-4.1Z"/>
        <path class="st14" d="M86.7,277.7s6.8,2.9,12.6-1c5.9-4-2.9,12.6-2.9,12.6,0,0-5.9-5.1-9.7-11.6Z"/>
      </g>
      <path class="st18" d="M119.2,289.4"/>
      <g>
        <path class="st39" d="M110.8,230.1c-7.3.6-10.8.9-17.7,4.8-9.9,5.7-18.8,21.8-17.7,27.4,2.4,12.3,20.8,27.1,20.8,27.1,0,0,1.5-4.4,2.8-6.7,3.2-2.6,10.7-48.5,10.7-48.5l1-4.1Z"/>
        <path class="st35" d="M94.5,261l6.7,16.9c.2.4-1.7,4.9-2.3,6.3l-2.6,5.2s2-21.9-1.8-28.4Z"/>
      </g>
      <path d="M55.7,194.1c0,0-.7,0-.9-.4.5-.5.8.4.9.4Z"/>
    </g>
    <path class="st39" d="M76.5,254.6c-.1.3-.3.6-.4.9-4.4,13.9-3.9,23.9-3.8,30.9.4,19.6.9,86.3.9,86.3l35.6,1.1-8.4-84.5-23.5-35.7s-.3.7-.4,1Z"/>
    <path class="st35" d="M89,325.3c-4.2-11.1-2.4-47.6-2.4-47.6l30.6,34.2-4.5,27.8s-7.2-3.3-9.3-4.4,4.7,1.8,4.7,1.8l-2,39.2s-31.9-21.1-32.8-29.3c-.2-2.1,19.8,3.8,19.8,3.8,0,0,4.2-3.9-4-25.4Z"/>
    <path class="st11" d="M181.7,105.3l4.8,22.3s2.5,3.5,3.9,2.9c4-1.6,6.8-8.7,6.8-16.5s-3.9-13.6-3.9-13.6l-11.6,4.8Z"/>
    <path class="st0" d="M216.6,139.2l1,1.9c1,1.9-2.9,2.9-2.9,2.9-1.1.4-1.9,1-2.9,0l1-4.8c1-1.9,3.6-.4,3.9,0Z"/>
    <g>
      <path class="st12" d="M217.6,146.9c0-1.9,0-4.8-1-5.8s-1.7-2-2.9-1c-.8.7-1.8,4.5-1.9,6.8,0,.8.3,3.3,1,3.8,1.9,1.5,3.2,1.2,3.8.2,1.9-3.1,1-2.7,1-4Z"/>
      <path class="st27" d="M218.1,146.2c-.2-2.7-.4-4.7-1.5-5-2.9-1-1,2.9-3.9,4.8-1.1.8-.5,3.2,0,3.9,3.3,4,5.6-1,5.4-3.7Z"/>
    </g>
    <path class="st38" d="M183.1,465v1.9c-16.3,0-32.6,0-48.9,0l-1.5-2.9c16.7,1.7,33.7,2.5,50.4,1Z"/>
    <g>
      <path class="st45" d="M235.5,348.2c-.5,3.1-.2,6.5-1.5,6.8-.2-5.9-2.6-7.6-2.4-8,.7-1.4,3.7,2.6,3.4-1.2h.5v2.4Z"/>
      <g>
        <path class="st35" d="M204.1,379.2c8.1,1.7,15.6,5.1,22.4,9.9-1.9-5.7-4.1-11.3-7-16.7-4-3.2-9.3-6.3-14.7-9.4-.2,3.9-.3,7.7-.5,11.6,0,.7,0,1.4,0,2.1.3.2.5.5.8.7-.3,0-.5,0-.8.1,0,.5,0,1.1,0,1.6Z"/>
        <path class="st35" d="M271.8,373.9c-4.5,15-23.8,18.2-36.6,12.1-5-2.4-8.3-7.4-12.4-10.7l4.4,1c1.2,1.7,3.5-4.2,4.1-4.4.3,0,4,3.1,4.8,3.4,8.6,3.4,29.5,7.4,35.6-1.5Z"/>
        <path class="st35" d="M243.2,333.9q-10.7-3-21.3-6.1c0,3.1,0,6.3,0,9.4q-4.1-.2-8.2-.5c3.3-3.1,6.3-8.1,7.3-12.6l1,2.7c.2-9.1-.6-18-3.6-26.6-2.1.3,10.2,23.2-12.7,34.3,0,.9,0,1.9,0,2.8,7,1.1,13,4.5,20.5,6.5.5.1,1.9-1.9,9,1.5-1.6-5.1-24.3-8.6,8.2-11.4Z"/>
        <g>
          <path class="st39" d="M257.3,293.2c-4.4-16.2-5.1-35.5-16.5-48.9-8.9-10.5-18.5-10.2-26.4-11.4-3.7,6-8.1,11.7-13.1,17.2-1.2,1.3-2.4,2.6-3.7,3.8,2.4,6.6,3.6,13.7,3.9,20.6.1,2.7,0,5.5-.5,8.3,2.9,16.9,4.6,33.9,4.6,51,0,.2,0,.4,0,.7,22.9-11.1,10.6-34,12.7-34.3,3.1,8.7,3.8,17.6,3.6,26.6,0,.3,0,.6,0,1q10.7,3,21.3,6.1c-32.5,2.8-9.8,6.3-8.2,11.4,0,.1,0,.3,0,.5h.5c1.4,1.2,0,2.3,0,2.4-.5,3.1-.2,6.5-1.5,6.8.2,4.9-1.3,9.1-2.9,13.6-1,2.7-1.6,5.6-3.9,7.8,1.2,1.7,3.5-4.2,4.1-4.4.3,0,4,3.1,4.8,3.4,8.6,3.4,29.5,7.4,35.6-1.5,2-16.3-2.8-27.7-17-36.1,4.1,0,13.7,8.4,15.5,11.1,2.4,3.7,1.6,10.8,2.9,5.1-1.4-12.3-12.1-46.1-16-60.8Z"/>
          <g>
            <path class="st17" d="M273.2,354c.6,5.2,1.5,15.6-1.5,19.9,2-16.3-2.8-27.7-17-36.1,4.1,0,13.7,8.4,15.5,11.1,2.4,3.7,1.6,10.8,2.9,5.1Z"/>
            <path class="st17" d="M231.3,336.1c6.9.9,12.6,1,19.1,3.6-5.5-.6-17.9-1.1-19.1-3.6Z"/>
            <path class="st35" d="M235.5,348.2v-2.4c1.4,1.2,0,2.3,0,2.4Z"/>
          </g>
        </g>
      </g>
    </g>
    <path class="st30" d="M181.2,333.9c.5.3,2.3,0,2.4,0,1.4.3,2.8,1.1,4.4,1,.3,1.4.5.9.5,1,1.2,9.8-2.8,9.8-11.1,6.8,1.1-1.8,1.7-8.7,3.9-8.7Z"/>
    <g>
      <g>
        <path class="st46" d="M226.3,118.5c-3-1.7-1.6,4.7-10.7,5.3,0-7.3-1.3-10.1-6.8-15.3l.7-.7c2.2.7,14.9,6.2,15.5,6.8.9,1,.8,2.3,1.2,3.9Z"/>
        <path class="st46" d="M226.3,118.5c.5,1.8.2,4.7,1,5.3-1.1.3-8.6,7.7-12.1,7.3.4-2.2.5-5,.5-7.3,9-.6,7.6-7,10.7-5.3Z"/>
      </g>
      <g>
        <path class="st46" d="M78.5,53.1c-1.6,2-3.5,3.7-4.8,5.8.2-1.4.7-2.7.5-4.1-1.5-.5-9.8-7-10.2-7.5-.3-.4-2-8.2-1.9-9,.1-3.9,2.9-8,5.8-10.4-6,13.3,9.3,19,10.2,21.6.5,1.4-1.1,3.4.5,3.6Z"/>
        <path class="st46" d="M286.4,67.2c4.2,6.9,2.8,10.2,0,17.7,4.6,1.1,5.3.4,9.7,2.7l-.2,1c-1-2-.6,1.7-5.8-1.5-1.2,5.5-7.1-2.4-4.6,5.1-6.5,3-2.2-16.5,1.9-17.4.3-.8-5.5-11-1-7.5Z"/>
        <path class="st10" d="M44.6,160.7c-.3.1-1.5,1.8-5.1,2.9-.6-.1-4.5-10.1-4.6-10.7-1.7-8.1,2.6-10.8,3.4-12.1q6.8-4.5,13.6-9-.5-4.5-1-9c.1-2.8-8.2-7-13.6-10.7-2.1-4.5-1.1-10,1.9-14.1,8.6-3.8,19.3-1.7,19.4-8,0-.5-2.1-5.8-2.4-9.9-.7-10.9,14.3-13,15.5-14.3.5-.6,1.8-5.7,1.9-7,1.4-2.2,3.3-3.8,4.8-5.8,2.2-2.8,3.6-.4,1.9-9,15.7-17.4,14.7-10.9,36.6-8,3.3-.8,3.2-14.8,10.2-16,9.7-1.7,12.2,10.5,8.2,13.6-3.7,2.9-3.3-2.6-6.8-7.8-3.8,23-18,15.3-35.4,13.1-8.6,5.9-4.5,10.3-5.6,13.3-.3.8-7.7,7.2-8.2,8.2-3,6.5,5.3,5.3-17,17-2.4,6.1,9.2,16.5-7,23.5-4.6,2-16.9,2.2-13.6,6.3,2.7,3.3,15.5,6.1,16.2,17.7,1.5,23.1-27.4,10.4-13.6,35.6Z"/>
        <path class="st10" d="M288.8,157.3c-.1-.1-.3-.3-.5-.5-.3-18.6-12.4-12.7-19.6-17.4-4.7-3.1-7.9-19.7,14.3-18.7,5.6,8.1-14.2,6.4-12.1,10.7.5,1,15.3,6.2,17.4,8.7,3,3.7,3,14.1.5,17.2Z"/>
        <path class="st49" d="M38.3,140.8c-.8,1.4-5,4-3.4,12.1-5.9-2.1-15.2-2.7-14.1-10.9,1.8-13.2,16-1.2,17.4-1.2Z"/>
        <path class="st49" d="M50.9,122.9q.5,4.5,1,9-6.8,4.5-13.6,9c.5-.9,2.2-2.1,2.4-2.7,2-5.5-4.4-9.5-3.9-15l14.1-.2Z"/>
        <g>
          <path class="st46" d="M82.4,118.5q-.6,4.8-1.2,9.7c-3.1-2-6.7-1.6-8.5-5.3q4.8-2.2,9.7-4.4Z"/>
          <path class="st36" d="M93.6,114.7c-1.4,3.6-2.7,5.5-2.9,9.7-3.4,2-1.2-8.6,3.4-11.9q-.2,1.1-.5,2.2Z"/>
        </g>
        <g>
          <path class="st49" d="M299,142c1.5-17-7.6-17-8.2-17.9-3-4.2,5.6-3.8,10.2-9.2,6.9-8.1,4.9-22.5-4.8-27.4l-.2,1c-1-2-.6,1.7-5.8-1.5-1.2,5.5-7.1-2.4-4.6,5.1-6.5,3-2.2-16.5,1.9-17.4.3-.8-5.5-11-1-7.5-3.9-6.5-10.9-9.5-18.2-6.3-2.8-.6,1-6-9.9-11.9,8.5-15.7-11.5-28.5-21.6-13.8-17.9-20.1-42.9-29-67.8-15.5-17-19.2-49.1-16.9-66.6.2-1.7,1.7,0,4.1-12.8,9.4-2,0-10.1-11-21.6-1.5-6,13.3,9.3,19,10.2,21.6.5,1.4-1.1,3.4.5,3.6,2.2-2.8,3.6-.4,1.9-9,15.7-17.4,14.7-10.9,36.6-8,3.3-.8,3.2-14.8,10.2-16,9.7-1.7,12.2,10.5,8.2,13.6-3.7,2.9-3.3-2.6-6.8-7.8-3.8,23-18,15.3-35.4,13.1-8.6,5.9-4.5,10.3-5.6,13.3-.3.8-7.7,7.2-8.2,8.2-3,6.5,5.3,5.3-17,17-2.4,6.1,9.2,16.5-7,23.5-4.6,2-16.9,2.2-13.6,6.3,2.7,3.3,15.5,6.1,16.2,17.7,1.5,23.1-27.4,10.4-13.6,35.6-.3.1-1.5,1.8-5.1,2.9-.6-.1-4.5-10.1-4.6-10.7-5.9-2.1-15.2-2.7-14.1-10.9,1.8-13.2,16-1.2,17.4-1.2.5-.9,2.2-2.1,2.4-2.7,2-5.5-4.4-9.5-3.9-15l14.1-.2c.1-2.8-8.2-7-13.6-10.7-2.1-4.5-1.1-10,1.9-14.1,8.6-3.8,19.3-1.7,19.4-8,0-.5-2.1-5.8-2.4-9.9-.8,0-1.5,0-2.2,0,.7,0,1.5,0,2.2,0-.7-10.9,14.3-13,15.5-14.3.5-.6,1.8-5.7,1.9-7,.2-1.4.7-2.7.5-4.1-1.5-.5-9.8-7-10.2-7.5-1.2.2-2.3.9-3.4,1.5-.6.9-1.1,1.8-1.5,2.7.4-.9.9-1.7,1.5-2.7-7.8,4.2-5.2,3.5-9,11.1-18.6-1.5-25.6,16.6-12.4,29.3-2.6.8-5.2,1.1-7.8,2.2-2,.8-3.2,1.4-4.8,2.9-9.2,8.7-4.9,20.9,5.8,25.4.6,1.8-3.9,4.4,0,13.6-18.3-2.1-24.9,18.6-7.8,26.6-3.7,9,2.9,20.7,12.8,17.2,8.1,7.9-2,8-.2,19.1,1.4,8.7,13.7,14.3,21.1,9,10.4,4.3,5.4,5,9,9.9,4.6,6.3,15.9,5.7,21.1.2,1.4.3.7,13.7,19.4,11.1,4.5-8,6-2.4,13.1-5.8,5.3-2.5,5.2-9.6,10.4-4.8,2.8-3.9,4.4-8.9,8.2-12.1,0-.7.1-.9.5-1.5-7.5-1.3-26-15.2-32-20.5-10.1-8.9-16.1-16.9-15.9-30.6.2-.6-.4-8.1-1.5-10.4-.4-.8-.3-9.1,0-16.5-3.4,2-1.2-8.6,3.4-11.9q-.2,1.1-.5,2.2c.2-.4,1.4-3.2,1.5-3.4,1.3-2.5,2.4-6.8,6.3-5.6q-1-1.3-1.9-2.7c1-9.2,7.7-31.3,17-35.4,5.5-2.4,10.7,1.1,17.2-8.2,22.2,12.5,30.8-2.3,32.5-2.9,6.7-2.5,8.6,5.1,9,5.6,7.7,8.7,15.6,5.5,22.3,17.4,2.6,4.7,3.5,10.9,6.3,15.5,1.2,1.9-.8,16.1.4,18.9,4.4,10,3.9,20.4,1,24.9,6.5-10.3,1.7,3.6,7.8-1.9.5-1.2,2.3-5.2,2.4-5.8.4-2.2.5-5,.5-7.3,0-7.3-1.3-10.1-6.8-15.3l.7-.7c2.2.7,14.9,6.2,15.5,6.8.9,1,.8,2.3,1.2,3.9.5,1.8.2,4.7,1,5.3,11.4-2.7,16.6,18.4,3.1,29.6-10.4,8.7-16-2.4-22.5,7.5-.3.5-.9,4.6-5.3,10.9-6,8.6-16.1,14.9-25.2,19.9,1.2,2.8,1.6,5.8,2.4,8.7.7,2.3,1.9,5,1.9,5.3,5.5.6,7.7,6.4,10.7,8.2.6.3,3.5.9,4.6,1,6.8,13.4,24.8,10.3,29.1-3.9,9.4,9.9,23.6,11.8,27.6-3.9,7.1,0,12.2.8,17-5.3,17.8,1.9,24.5-15.9,11.9-27.9q3-4,6.1-8c6,1.5,11.6.1,14.8-5.3,4-6.9,2.1-14.1-4.4-18.7ZM58.1,53.9c-.3.8-.5,1.6-.7,2.3.2-.7.4-1.5.7-2.3ZM42,62.8c.5-.2,1.1-.4,1.7-.4.6,0,1.1-.1,1.7-.1-.6,0-1.1,0-1.7.1-.6,0-1.1.2-1.7.4-.4.2-.8.4-1.1.6.4-.3.7-.5,1.1-.6ZM37.4,69.1c.1-.5.2-1,.4-1.5-.2.5-.3,1-.4,1.5-.2.8-.2,1.6-.1,2.4,0-.8,0-1.6.1-2.4ZM288.8,157.3c-.1-.1-.3-.3-.5-.5-.3-18.6-12.4-12.7-19.6-17.4-4.7-3.1-7.9-19.7,14.3-18.7,5.6,8.1-14.2,6.4-12.1,10.7.5,1,15.3,6.2,17.4,8.7,3,3.7,3,14.1.5,17.2Z"/>
          <g>
            <path class="st10" d="M181.5,21.6c12.2-1.1,21.1,19.8,44.1,12.1,11.2,14.9,20.6,10.3,15.7,28.3,2.5,1.2,12.1,9.7,12.8,9.9,5.3,1.9,21.1-2.9,16.2,16.7,4.6,1.6,20.8,8,22.8,11.6,2.3,4.2.7,12.6-4.1,14.3-11.2,3.9-.8-9.3-1.2-10.9-12.1-11.1-29-.8-22.3-23.7q-6.4-.6-12.8-1.2c-8.2-10.7-12.8-7.9-15.7-11.4-7.8-9.4,12.1-21.9-19.1-17.7q-1.2-4.1-2.4-8.2c-11.9.4-22.3-6.4-31.5-13.1-4.1-.3-16.6,7.9-13.8-.7.6-1.8,9.3-5.9,11.4-6.1Z"/>
            <path class="st47" d="M227.1,39.6c3-.2-2.5,2.1-3.4,2.4-11.6,4.2-3.4-1.9,3.4-2.4Z"/>
          </g>
        </g>
      </g>
      <g>
        <g>
          <g>
            <path class="st4" d="M179.8,200.4c-8.8,11.2-21.1,19.9-34.9,23.7-2.3-3-5.2-5.8-5.8-9.7-.4-2.8.2-7.6.5-10.7,0-.7.1-.9.5-1.5,12.1,2.1,26.8-5,37.3-10.7,1.2,2.8,1.6,5.8,2.4,8.7Z"/>
            <path class="st29" d="M181.7,205.8c.4,2,.7,4,1,6.1-7,8.4-17.7,14.7-28.1,18.2-2.4.8-1.8.9-1.9,1-.7.2-.3.7-2.4-.5-.3-.2-1.3-.8-1.5-1-.3-.2-3.3-4.6-3.9-5.3,13.8-3.9,26.1-12.5,34.9-23.7.7,2.3,1.9,5,1.9,5.3Z"/>
          </g>
          <path class="st29" d="M205,163.1c-6.2,16.3-47.5,36.2-59.4,35.9-15.1-.4-45.1-25.1-48.7-40.9,5.3,1.1,10.8,1.2,16-.2.6.8,3,2.9,6.3,8.2,6.7,10.7,10.8,21.7,26.2,19.9,12.3-1.5,15.2-9.8,18.9-14.1,3.1-3.6,6.6-7,9.7-10.7,3.5.9,7.4,1.4,10.9,1,2.1-.3,11.4-3.9,10.4-5.8,2.3-1.1,8-5.5,9.7-7.3,1.9,4.4,1.7,9.5,0,14.1Z"/>
          <path class="st1" d="M195.3,156.3c1,1.9-8.3,5.6-10.4,5.8-3.5.4-7.5-.1-10.9-1,.4-.5.6-1.4,1-1.9,6.6,1.3,14.3,0,20.4-2.9Z"/>
          <g>
            <path class="st29" d="M202.6,171.8c-1.6-1.6,4.5-5.9,2.4-8.7,1.7-4.6,1.9-9.7,0-14.1,1.6-1.8,5.7-9.5,6.7-11.8.5-1.2,3.3-5.4,3.4-6.1,3.5.5,11-7,12.1-7.3,11.4-2.7,16.6,18.4,3.1,29.6-10.4,8.7-16-2.4-22.5,7.5-.3.5-.9,4.6-5.3,10.9Z"/>
            <path class="st7" d="M229.2,142.3c1.8,6.8-4.7,7.6-7,6.3-2.4-1.3-3.5-10-2.2-13.1,4.1,1.7,8.4,10.3,9.2,6.8Z"/>
            <path class="st31" d="M229.2,142.3c-.8,3.6-5.1-5.1-9.2-6.8,1.9-4.4,16.4-7.3,13.8,4.4-1.3-9.5-9.2-5.6-9.4-4.6-.2.7,4,3.9,4.8,7Z"/>
          </g>
          <path class="st11" d="M173,159.7c-1.7.4-3.2,2-5.3,2.4-18.4,4-33.8,5.2-50.9-4.4-.9-.5-2-.9-2.9-1.5,14-3,24.3-18.6,24-32.5,20.6-1.9,7.3,3.3,17.7,22,4.3,7.7,9.8,10.4,17.4,13.8Z"/>
          <g>
            <path class="st50" d="M113.9,156.3c1,.5,2,.9,2.9,1.5,2.3,3.5,7.1,6.5,10.7,9.7.2.2.9,2.6,2.4,4.1.7.7,1.6,1.1,2.4,1.7-3.8,1.8-9.5-5.4-13.1-7.3-3.3-5.3-5.7-7.4-6.3-8.2,0,0,0-.7-.5-1.5.5,0,1,0,1.5,0Z"/>
            <path class="st50" d="M175,159.2c-.4.6-.5,1.4-1,1.9-3.1,3.6-6.5,7.1-9.7,10.7-1.5.2-5.9,1.1-6.8,1.5,2.2-2.5,4.5-4.9,6.8-7.3,1.1-1.2,2.6-2.4,3.4-3.9,2.1-.5,3.6-2,5.3-2.4l1.9-.5Z"/>
            <path class="st37" d="M164.3,171.8c-3.7,4.2-6.6,12.6-18.9,14.1-9.2-.5-17.8-10.8-12.6-12.1,11.5,6.9,19.6,1.3,24.7-.5.9-.3,5.3-1.2,6.8-1.5Z"/>
            <path class="st13" d="M132.3,173.3c.6.4.5.5.5.5-5.2,1.3,3.4,11.7,12.6,12.1-15.4,1.8-19.4-9.2-26.2-19.9,3.6,1.8,9.3,9.1,13.1,7.3Z"/>
            <path class="st13" d="M167.7,162.1c-.8,1.4-2.3,2.7-3.4,3.9-11.9,4.3-24.7,5.4-36.8,1.5-3.5-3.2-8.4-6.2-10.7-9.7,17.1,9.5,32.4,8.4,50.9,4.4Z"/>
            <path class="st23" d="M164.3,166c-2.3,2.4-4.6,4.8-6.8,7.3-5.1,1.8-13.2,7.4-24.7.5,0,0,0-.1-.5-.5-.8-.5-1.7-1-2.4-1.7-1.5-1.6-2.2-4-2.4-4.1,12.1,4,24.9,2.8,36.8-1.5Z"/>
          </g>
        </g>
        <g>
          <g>
            <path class="st23" d="M188.5,135.5c1.7-1.8,1-1.5,1.5-3.4,0-.4,0-1,0-1.5,0-.1,1.3-.4,0-2.9,2.9.6,6.8,4.4,6.8,6.3,0,7.1-19,8.1-27.4,1-4.2-3.6-.8-2.3.7-3.4,3.2-2.4,5.3-8.5,14.8-6.8,5.1.9-3.5,0-5.6,3.6-3.9,7.1,4.1,12.5,9.2,7Z"/>
            <path class="st16" d="M190,127.7c1.3,2.5,0,2.8,0,2.9l-1.5,1.5c-6.4,1.4-4.8-5.7,1.5-4.4Z"/>
            <path class="st27" d="M190,132.1c-.4,1.9.3,1.5-1.5,3.4-2.9-1.7,0-1.5.5-3.4h1Z"/>
            <path class="st20" d="M190,132.1h-1c-.2,0-.3,0-.5,0l1.5-1.5c0,.5,0,1,0,1.5Z"/>
          </g>
          <g>
            <path class="st49" d="M104.2,104.3c-6.6,8.4-8,30.2-7.8,29.1.5.7-4.5,20.1-4.8,19.4-3.9-6.8-9.7-21.3-1.9-36.8,1.9-3.8,9.1-11.3,14.5-11.6Z"/>
            <path class="st11" d="M205,138.9c4.7-10.6-8-4.8-8.2-4.8,0,7.1-19,8.1-27.4,1-4.2-3.6-.8-2.3.7-3.4-.6-4.4,3.1-7.9,6.7-9.9,1.8-1,5.8-1,8.7-1s6.8,2.9,9.3,5.5c.8,1,13.6-18.3,13.8-18.4.2,0,1.8-3.9,1.7-4.6-.2-1.7-5.6-6.3-6.8-8.2-2.8-4.6-3.7-10.8-6.3-15.5-6.7-12-14.6-8.7-22.3-17.4-.4-.5-2.3-8.1-9-5.6-1.7.6-10.3,15.4-32.5,2.9-6.5,9.4-11.7,5.8-17.2,8.2-8.3,10.5-21,43.1-20.8,42.8-1,3.9-3,8.7-3,13.2-.5,3.6-.5,12.6-1,13.6-3.9,8.7-1,18.4,0,20.4.1.3,14.2-.3,20.9-1.3.5,0,1,0,1.5,0,14-3,24.3-18.6,24-32.5,20.6-1.9,7.3,3.3,17.7,22,4.3,7.7,9.8,10.4,17.4,13.8l1.9-.5c6.6,1.3,14.3,0,20.4-2.9,2.3-1.1,8-5.5,9.7-7.3,1.6-1.8,6.7-9.7,7.8-12.1-6.1,5.5-1.1-8.3-7.8,1.9ZM129.9,128.2c-1.9-.4-.5,3-1,3.6-.9,1.2-3.2-1.5-3.9,1.2,0,.6,0,1.6,0,1.9,4.8,1.1-3.9,11.6-5.6,11.6-1.4,0-2.6-4.9-6.8-4.4-2,.2-10.2-1.6-14.9-8.8.4-2.7,1-7.4,1.1-7.7.1-.3-.2-1.5.5-2.7,4.2-7.3,20.1-8.8,27.6-8.5,2,3.9,3.1,9.2,2.9,13.6ZM176.5,95.3c-1.2,0-2.3,0-3.4.2,1.1-.1,2.2-.2,3.4-.2ZM167,96.9c-.5.2-.9.5-1.3.8.3-.3.8-.5,1.3-.8Z"/>
            <path class="st23" d="M115.4,125.3c-16.1,3.9,1.1,19.2,4.8,7.3.6-1.9.6-3.4.5-5.3.5,0,3.3,2.8,3.9,4.4,0,.2.5,1.4.5,1.5,0,.2,0,.6,0,.9s0,.8,0,1c-1.7,5.7-18,5.1-24.7,2.9-2.4-.8-2.7-3.4-2.4-5.3.8-6.6,15.6-10.2,17.4-7.3Z"/>
            <path class="st29" d="M127,114.7c-7.5-.3-23.5,1.2-27.6,8.5-.7,1.2-.4,2.4-.5,2.7,6.6-9.6,26.9-7.1,25.7,5.8,0,.2.8,1.6,0,4.3-3.2,4.7-18.6,3.5-24.3,2-.4,0-2.6-1.1-1.5.5,3.3,4.7,11.3,6.9,14,7.6,3.9,1,5.3,1.1,6.6.7,7.9-2.6,9.9-14.2,10.4-18.4.4-3.4-.9-9.7-2.9-13.6Z"/>
            <path class="st12" d="M120.2,132.6c-2.1,2.6-4.7,1.3-3.4-1.9,2-.4,2.8-3.4,3.9-3.4,0,1.9.1,3.4-.5,5.3Z"/>
          </g>
        </g>
      </g>
    </g>
    <path class="st46" d="M95.4,139.2"/>
    <path class="st0" d="M92.5,147.9c4.8,5,13.3,9.4,19.9,8.4.6.7.4,1.4.5,1.5-5.2,1.4-10.7,1.3-16,.2,3.6,15.8,33.6,40.5,48.7,40.9,11.9.4,53.2-19.6,59.4-35.9,2.1,2.8-4.1,7.1-2.4,8.7-6,8.6-16.1,14.9-25.2,19.9-10.5,5.7-25.3,12.8-37.3,10.7-7.5-1.3-27.2-13.6-33.2-18.9-9.5-8.4-17.4-22.9-17.3-36.5,0,0,2.8,1,2.9,1Z"/>
    <path class="st0" d="M104.2,100.1c-1.7.9-7.3,9.7-8.8,10.9,1-9.2,10.7-40.7,20.9-43.4,12.9-3.4-4.3,4.3-10.2,23.5-.9,2.8-.9,6.1-1.9,9Z"/>
    <g>
      <path class="st29" d="M142,156.8c-4-.2-7.5-2.8-10.2-5.3-1.9-10,3.3-.9,5.6.5,6,3.6,17.5-.3,4.6,4.8Z"/>
      <path class="st31" d="M131.8,151.5c2.6,2.6,6.2,5.2,10.2,5.3,3.6.2,14-5.5,8.5-1-10.4,8.6-26.1-6.7-20.4-6.8.5,0,.4,1.2,1.7,2.4Z"/>
    </g>
    <path class="st29" d="M175,107.9c2.9-.3.8.7-3,2.2-5.9,2.5-9.7,6.8-6.7,19.8.1.5-.4.4-.7.7l-9-2.9c-.4-15.4,5.8-18.6,19.4-19.9Z"/>
    <path class="st29" d="M210.8,103.3c-.2-3.8-4-3.7-6.8-7.8-2.3-3.4-3.7-11.2-3.9-11.6-2.9-9.7-11.6-13.6-11.6-13.6,0,0,13.6,16.5,8.7,38.8-.6-.1-4-2.1-4.8-2.2-5.3.6-1,1.6,1.5,6.1,3.3,5.9,5,12.9,3.4,19.6,0,.3,0,1.8,0,1.7,0,0-1,2.1-1.9,2.9-4.8,3.9-14.5,2.8-17.4,1.9-1.9-.5-4.8-1.9-4.8-1.9,0,0,2.9,8.7,19.4,8.7s13.9-12.5,14.5-15.5c.9-4.4,0-9.7-2.9-15.5-.1-.2,6.9-9.8,6.8-11.6Z"/>
    <g>
      <path d="M94.4,112.5c0,.3.5,0,1-.4,5.8-3.9,8.7-5.8,10.7-6.8,3.9-1.9,6.4-2,6.8-2.1,3.6-1.2,17.1,3.5,12.4-3.6-4.3-6.5-16.6-1.5-21.8,1.2-1.7.9-9,7.4-9,11.7Z"/>
      <path d="M191.6,107.5c.6.6.7-2.3.2-3.9-3.9-10.6-26.6-8.7-27.9-4.1-1.9,6.9,10.1,1.2,20.8,3.9,2.7.9,3.6.9,6.8,4.1Z"/>
    </g>
    <path class="st0" d="M197.7,123.6c0,.3-.4.6-.5.4-3.8-7.1-16.6-8.9-21.6-6.5-3,1.4,7.3-7.9,16.8-3.5,4.7,2.2,5,7.7,5.3,9.6Z"/>
    <path class="st9" d="M203.8,127.3c-4.2,1.2-7,.8-8.5-.7-.4-.4-.7-.7-1.1-1-6.7-9.6-25.1-4.8-24.1,6.1,3.2-2.4,5.3-8.5,14.8-6.8,5.1.9-3.5,0-5.6,3.6-3.9,7.1,4.1,12.5,9.2,7-2.9-1.7,0-1.5.5-3.4-.2,0-.3,0-.5,0-6.4,1.4-4.8-5.7,1.5-4.4,2.9.6,6.8,4.4,6.8,6.3.4,1.3-.6,2.3-.5,2.2,1-1,1.9-2.9,1-3.6,2.3,0,6.5-5.4,6.5-5.4Z"/>
    <path class="st0" d="M98.4,124.6s4.2-5.4,7.8-6.8c5.4-2.1,18.4-3.9,21.3-2.9s-11.3-4.4-20.5-1c-1.3.5-3.4,1.7-4.7,2.9-3.9,3.9-3.9,7.8-3.9,7.8Z"/>
    <path class="st11" d="M192.3,118.1l4.8,22.3s2.5,3.5,3.9,2.9c4-1.6,6.8-8.7,6.8-16.5s-3.9-13.6-3.9-13.6l-11.6,4.8Z"/>
    <g>
      <g>
        <path class="st46" d="M226.3,118.7c-3-1.7-1.6,4.7-10.7,5.3,0-7.3-1.3-10.1-6.8-15.3l.7-.7c2.2.7,14.9,6.2,15.5,6.8.9,1,.8,2.3,1.2,3.9Z"/>
        <path class="st46" d="M226.3,118.7c.5,1.8.2,4.7,1,5.3-1.1.3-8.6,7.7-12.1,7.3.4-2.2.5-5,.5-7.3,9-.6,7.6-7,10.7-5.3Z"/>
      </g>
      <g>
        <path class="st46" d="M78.5,53.3c-1.6,2-3.5,3.7-4.8,5.8.2-1.4.7-2.7.5-4.1-1.5-.5-9.8-7-10.2-7.5-.3-.4-2-8.2-1.9-9,.1-3.9,2.9-8,5.8-10.4-6,13.3,9.3,19,10.2,21.6.5,1.4-1.1,3.4.5,3.6Z"/>
        <path class="st46" d="M286.3,67.4c4.2,6.9,2.8,10.2,0,17.7,4.6,1.1,5.3.4,9.7,2.7q-.1.5-.2,1c-1-2-.6,1.7-5.8-1.5-1.2,5.5-7.1-2.4-4.6,5.1-6.5,3-2.2-16.5,1.9-17.4.3-.8-5.5-11-1-7.5Z"/>
        <path class="st10" d="M44.6,160.9c-.3.1-1.5,1.8-5.1,2.9-.6-.1-4.5-10.1-4.6-10.7-1.7-8.1,2.6-10.8,3.4-12.1q6.8-4.5,13.6-9-.5-4.5-1-9c.1-2.8-8.2-7-13.6-10.7-2.1-4.5-1.1-10,1.9-14.1,8.6-3.8,19.3-1.7,19.4-8,0-.5-2.1-5.8-2.4-9.9-.7-10.9,14.3-13,15.5-14.3.5-.6,1.8-5.7,1.9-7,1.4-2.2,3.3-3.8,4.8-5.8,2.2-2.8,3.6-.4,1.9-9,15.7-17.4,14.7-10.9,36.6-8,3.3-.8,3.2-14.8,10.2-16,9.7-1.7,12.2,10.5,8.2,13.6-3.7,2.9-3.3-2.6-6.8-7.8-3.8,23-18,15.3-35.4,13.1-8.6,5.9-4.5,10.3-5.6,13.3-.3.8-7.7,7.2-8.2,8.2-3,6.5,5.3,5.3-17,17-2.4,6.1,9.2,16.5-7,23.5-4.6,2-16.9,2.2-13.6,6.3,2.7,3.3,15.5,6.1,16.2,17.7,1.5,23.1-27.4,10.4-13.6,35.6Z"/>
        <path class="st10" d="M288.8,157.5c-.1-.1-.3-.3-.5-.5-.3-18.6-12.4-12.7-19.6-17.4-4.7-3.1-7.9-19.7,14.3-18.7,5.6,8.1-14.2,6.4-12.1,10.7.5,1,15.3,6.2,17.4,8.7,3,3.7,3,14.1.5,17.2Z"/>
        <path class="st49" d="M38.3,141c-.8,1.4-5,4-3.4,12.1-5.9-2.1-15.2-2.7-14.1-10.9,1.8-13.2,16-1.2,17.4-1.2Z"/>
        <path class="st49" d="M50.9,123.1q.5,4.5,1,9-6.8,4.5-13.6,9c.5-.9,2.2-2.1,2.4-2.7,2-5.5-4.4-9.5-3.9-15l14.1-.2Z"/>
        <g>
          <path class="st46" d="M82.3,118.7q-.6,4.8-1.2,9.7c-3.1-2-6.7-1.6-8.5-5.3q4.8-2.2,9.7-4.4Z"/>
          <path class="st36" d="M93.5,114.9c-1.4,3.6-2.7,5.5-2.9,9.7-3.4,2-1.2-8.6,3.4-11.9q-.2,1.1-.5,2.2Z"/>
        </g>
        <g>
          <path class="st49" d="M298.9,142.2c1.5-17-7.6-17-8.2-17.9-3-4.2,5.6-3.8,10.2-9.2,6.9-8.1,4.9-22.5-4.8-27.4l-.2,1c-1-2-.6,1.7-5.8-1.5-1.2,5.5-7.1-2.4-4.6,5.1-6.5,3-2.2-16.5,1.9-17.4.3-.8-5.5-11-1-7.5-3.9-6.5-10.9-9.5-18.2-6.3-2.8-.6,1-6-9.9-11.9,8.5-15.7-11.5-28.5-21.6-13.8-17.9-20.1-42.9-29-67.8-15.5-17-19.2-49.1-16.9-66.6.2-1.7,1.7,0,4.1-12.8,9.4-2,0-10.1-11-21.6-1.5-6,13.3,9.3,19,10.2,21.6.5,1.4-1.1,3.4.5,3.6,2.2-2.8,3.6-.4,1.9-9,15.7-17.4,14.7-10.9,36.6-8,3.3-.8,3.2-14.8,10.2-16,9.7-1.7,12.2,10.5,8.2,13.6-3.7,2.9-3.3-2.6-6.8-7.8-3.8,23-18,15.3-35.4,13.1-8.6,5.9-4.5,10.3-5.6,13.3-.3.8-7.7,7.2-8.2,8.2-3,6.5,5.3,5.3-17,17-2.4,6.1,9.2,16.5-7,23.5-4.6,2-16.9,2.2-13.6,6.3,2.7,3.3,15.5,6.1,16.2,17.7,1.5,23.1-27.4,10.4-13.6,35.6-.3.1-1.5,1.8-5.1,2.9-.6-.1-4.5-10.1-4.6-10.7-5.9-2.1-15.2-2.7-14.1-10.9,1.8-13.2,16-1.2,17.4-1.2.5-.9,2.2-2.1,2.4-2.7,2-5.5-4.4-9.5-3.9-15l14.1-.2c.1-2.8-8.2-7-13.6-10.7-2.1-4.5-1.1-10,1.9-14.1,8.6-3.8,19.3-1.7,19.4-8,0-.5-2.1-5.8-2.4-9.9-.8,0-1.5,0-2.2,0,.7,0,1.5,0,2.2,0-.7-10.9,14.3-13,15.5-14.3.5-.6,1.8-5.7,1.9-7,.2-1.4.7-2.7.5-4.1-1.5-.5-9.8-7-10.2-7.5-1.2.2-2.3.9-3.4,1.5-.6.9-1.1,1.8-1.5,2.7.4-.9.9-1.7,1.5-2.7-7.8,4.2-5.2,3.5-9,11.1-18.6-1.5-25.6,16.6-12.4,29.3-2.6.8-5.2,1.1-7.8,2.2-2,.8-3.2,1.4-4.8,2.9-9.2,8.7-4.9,20.9,5.8,25.4.6,1.8-3.9,4.4,0,13.6-18.3-2.1-24.9,18.6-7.8,26.6-3.7,9,2.9,20.7,12.8,17.2,8.1,7.9-2,8-.2,19.1,1.4,8.7,13.7,14.3,21.1,9,10.4,4.3,5.4,5,9,9.9,4.6,6.3,15.9,5.7,21.1.2,1.4.3.7,13.7,19.4,11.1,4.5-8,6-2.4,13.1-5.8,5.3-2.5,5.2-9.6,10.4-4.8,2.8-3.9,4.4-8.9,8.2-12.1,0-.7.1-.9.5-1.5-7.5-1.3-26-15.2-32-20.5-10.1-8.9-16.1-16.9-15.9-30.6.2-.6-.4-8.1-1.5-10.4-.4-.8-.3-9.1,0-16.5-3.4,2-1.2-8.6,3.4-11.9q-.2,1.1-.5,2.2c.2-.4,1.4-3.2,1.5-3.4,1.3-2.5,2.4-6.8,6.3-5.6q-1-1.3-1.9-2.7c1-9.2,7.7-31.3,17-35.4,5.5-2.4,10.7,1.1,17.2-8.2,22.2,12.5,30.8-2.3,32.5-2.9,6.7-2.5,8.6,5.1,9,5.6,7.7,8.7,15.6,5.5,22.3,17.4,2.6,4.7,3.5,10.9,6.3,15.5,1.2,1.9-.8,16.1.4,18.9,4.4,10,3.9,20.4,1,24.9,6.5-10.3,1.7,3.6,7.8-1.9.5-1.2,2.3-5.2,2.4-5.8.4-2.2.5-5,.5-7.3,0-7.3-1.3-10.1-6.8-15.3l.7-.7c2.2.7,14.9,6.2,15.5,6.8.9,1,.8,2.3,1.2,3.9.5,1.8.2,4.7,1,5.3,11.4-2.7,16.6,18.4,3.1,29.6-10.4,8.7-16-2.4-22.5,7.5-.3.5-.9,4.6-5.3,10.9-6,8.6-16.1,14.9-25.2,19.9,1.2,2.8,1.6,5.8,2.4,8.7.7,2.3,1.9,5,1.9,5.3,5.5.6,7.7,6.4,10.7,8.2.6.3,3.5.9,4.6,1,6.8,13.4,24.8,10.3,29.1-3.9,9.4,9.9,23.6,11.8,27.6-3.9,7.1,0,12.2.8,17-5.3,17.8,1.9,24.5-15.9,11.9-27.9q3-4,6.1-8c6,1.5,11.6.1,14.8-5.3,4-6.9,2.1-14.1-4.4-18.7ZM58,54.1c-.3.8-.5,1.6-.7,2.3.2-.7.4-1.5.7-2.3ZM41.9,63c.5-.2,1.1-.4,1.7-.4.6,0,1.1-.1,1.7-.1-.6,0-1.1,0-1.7.1-.6,0-1.1.2-1.7.4-.4.2-.8.4-1.1.6.4-.3.7-.5,1.1-.6ZM37.3,69.3c.1-.5.2-1,.4-1.5-.2.5-.3,1-.4,1.5-.2.8-.2,1.6-.1,2.4,0-.8,0-1.6.1-2.4ZM288.8,157.5c-.1-.1-.3-.3-.5-.5-.3-18.6-12.4-12.7-19.6-17.4-4.7-3.1-7.9-19.7,14.3-18.7,5.6,8.1-14.2,6.4-12.1,10.7.5,1,15.3,6.2,17.4,8.7,3,3.7,3,14.1.5,17.2Z"/>
          <g>
            <path class="st10" d="M181.4,21.8c12.2-1.1,21.1,19.8,44.1,12.1,11.2,14.9,20.6,10.3,15.7,28.3,2.5,1.2,12.1,9.7,12.8,9.9,5.3,1.9,21.1-2.9,16.2,16.7,4.6,1.6,20.8,8,22.8,11.6,2.3,4.2.7,12.6-4.1,14.3-11.2,3.9-.8-9.3-1.2-10.9-12.1-11.1-29-.8-22.3-23.7q-6.4-.6-12.8-1.2c-8.2-10.7-12.8-7.9-15.7-11.4-7.8-9.4,12.1-21.9-19.1-17.7l-2.4-8.2c-11.9.4-22.3-6.4-31.5-13.1-4.1-.3-16.6,7.9-13.8-.7.6-1.8,9.3-5.9,11.4-6.1Z"/>
            <path class="st47" d="M227,39.8c3-.2-2.5,2.1-3.4,2.4-11.6,4.2-3.4-1.9,3.4-2.4Z"/>
          </g>
        </g>
      </g>
      <g>
        <g>
          <g>
            <path class="st4" d="M179.7,200.6c-8.8,11.2-21.1,19.9-34.9,23.7-2.3-3-5.2-5.8-5.8-9.7-.4-2.8.2-7.6.5-10.7,0-.7.1-.9.5-1.5,12.1,2.1,26.8-5,37.3-10.7,1.2,2.8,1.6,5.8,2.4,8.7Z"/>
            <path class="st29" d="M181.7,206c.4,2,.7,4,1,6.1-7,8.4-17.7,14.7-28.1,18.2-2.4.8-1.8.9-1.9,1-.7.2-.3.7-2.4-.5-.3-.2-1.3-.8-1.5-1-.3-.2-3.3-4.6-3.9-5.3,13.8-3.9,26.1-12.5,34.9-23.7.7,2.3,1.9,5,1.9,5.3Z"/>
          </g>
          <path class="st29" d="M204.9,163.3c-6.2,16.3-47.5,36.2-59.4,35.9-15.1-.4-45.1-25.1-48.7-40.9,5.3,1.1,10.8,1.2,16-.2.6.8,3,2.9,6.3,8.2,6.7,10.7,10.8,21.7,26.2,19.9,12.3-1.5,15.2-9.8,18.9-14.1,3.1-3.6,6.6-7,9.7-10.7,3.5.9,7.4,1.4,10.9,1,2.1-.3,11.4-3.9,10.4-5.8,2.3-1.1,8-5.5,9.7-7.3,1.9,4.4,1.7,9.5,0,14.1Z"/>
          <path class="st1" d="M195.2,156.5c1,1.9-8.3,5.6-10.4,5.8-3.5.4-7.5-.1-10.9-1,.4-.5.6-1.4,1-1.9,6.6,1.3,14.3,0,20.4-2.9Z"/>
          <g>
            <path class="st29" d="M202.5,172c-1.6-1.6,4.5-5.9,2.4-8.7,1.7-4.6,1.9-9.7,0-14.1,1.6-1.8,5.7-9.5,6.7-11.8.5-1.2,3.3-5.4,3.4-6.1,3.5.5,11-7,12.1-7.3,11.4-2.7,16.6,18.4,3.1,29.6-10.4,8.7-16-2.4-22.5,7.5-.3.5-.9,4.6-5.3,10.9Z"/>
            <path class="st7" d="M229.2,142.5c1.8,6.8-4.7,7.6-7,6.3-2.4-1.3-3.5-10-2.2-13.1,4.1,1.7,8.4,10.3,9.2,6.8Z"/>
            <path class="st31" d="M229.2,142.5c-.8,3.6-5.1-5.1-9.2-6.8,1.9-4.4,16.4-7.3,13.8,4.4-1.3-9.5-9.2-5.6-9.4-4.6-.2.7,4,3.9,4.8,7Z"/>
          </g>
          <path class="st11" d="M173,159.9c-1.7.4-3.2,2-5.3,2.4-18.4,4-33.8,5.2-50.9-4.4-.9-.5-2-.9-2.9-1.5,14-3,24.3-18.6,24-32.5,20.6-1.9,7.3,3.3,17.7,22,4.3,7.7,9.8,10.4,17.4,13.8Z"/>
          <g>
            <path class="st50" d="M113.8,156.5c1,.5,2,.9,2.9,1.5,2.3,3.5,7.1,6.5,10.7,9.7.2.2.9,2.6,2.4,4.1.7.7,1.6,1.1,2.4,1.7-3.8,1.8-9.5-5.4-13.1-7.3-3.3-5.3-5.7-7.4-6.3-8.2,0,0,0-.7-.5-1.5.5,0,1,0,1.5,0Z"/>
            <path class="st50" d="M174.9,159.4c-.4.6-.5,1.4-1,1.9-3.1,3.6-6.5,7.1-9.7,10.7-1.5.2-5.9,1.1-6.8,1.5,2.2-2.5,4.5-4.9,6.8-7.3,1.1-1.2,2.6-2.4,3.4-3.9,2.1-.5,3.6-2,5.3-2.4l1.9-.5Z"/>
            <path class="st37" d="M164.2,172c-3.7,4.2-6.6,12.6-18.9,14.1-9.2-.5-17.8-10.8-12.6-12.1,11.5,6.9,19.6,1.3,24.7-.5.9-.3,5.3-1.2,6.8-1.5Z"/>
            <path class="st13" d="M132.3,173.5c.6.4.5.5.5.5-5.2,1.3,3.4,11.7,12.6,12.1-15.4,1.8-19.4-9.2-26.2-19.9,3.6,1.8,9.3,9.1,13.1,7.3Z"/>
            <path class="st13" d="M167.6,162.3c-.8,1.4-2.3,2.7-3.4,3.9-11.9,4.3-24.7,5.4-36.8,1.5-3.5-3.2-8.4-6.2-10.7-9.7,17.1,9.5,32.4,8.4,50.9,4.4Z"/>
            <path class="st23" d="M164.2,166.2c-2.3,2.4-4.6,4.8-6.8,7.3-5.1,1.8-13.2,7.4-24.7.5,0,0,0-.1-.5-.5-.8-.5-1.7-1-2.4-1.7-1.5-1.6-2.2-4-2.4-4.1,12.1,4,24.9,2.8,36.8-1.5Z"/>
          </g>
        </g>
        <g>
          <g>
            <path class="st23" d="M188.5,135.7c1.7-1.8,1-1.5,1.5-3.4,0-.4,0-1,0-1.5,0-.1,1.3-.4,0-2.9,2.9.6,6.8,4.4,6.8,6.3,0,7.1-19,8.1-27.4,1-4.2-3.6-.8-2.3.7-3.4,3.2-2.4,5.3-8.5,14.8-6.8,5.1.9-3.5,0-5.6,3.6-3.9,7.1,4.1,12.5,9.2,7Z"/>
            <path class="st16" d="M189.9,127.9c1.3,2.5,0,2.8,0,2.9l-1.5,1.5c-6.4,1.4-4.8-5.7,1.5-4.4Z"/>
            <path class="st27" d="M189.9,132.3c-.4,1.9.3,1.5-1.5,3.4-2.9-1.7,0-1.5.5-3.4h1Z"/>
            <path class="st20" d="M189.9,132.3h-1c-.2,0-.3,0-.5,0l1.5-1.5c0,.5,0,1,0,1.5Z"/>
          </g>
          <g>
            <path class="st49" d="M104.1,104.5c-6.6,8.4-8,30.2-7.8,29.1.5.7-4.5,20.1-4.8,19.4-3.9-6.8-9.7-21.3-1.9-36.8s9.1-11.3,14.5-11.6Z"/>
            <path class="st11" d="M204.9,139.1c4.7-10.6-8-4.8-8.2-4.8,0,7.1-19,8.1-27.4,1-4.2-3.6-.8-2.3.7-3.4-.6-4.4,3.1-7.9,6.7-9.9,1.8-1,5.8-1,8.7-1s6.8,2.9,9.3,5.5c.8,1,13.6-18.3,13.8-18.4.2,0,1.8-3.9,1.7-4.6-.2-1.7-5.6-6.3-6.8-8.2-2.8-4.6-3.7-10.8-6.3-15.5-6.7-12-14.6-8.7-22.3-17.4-.4-.5-2.3-8.1-9-5.6-1.7.6-10.3,15.4-32.5,2.9-6.5,9.4-11.7,5.8-17.2,8.2-8.3,10.5-21,43.1-20.8,42.8-1,3.9-3,8.7-3,13.2-.5,3.6-.5,12.6-1,13.6-3.9,8.7-1,18.4,0,20.4.1.3,14.2-.3,20.9-1.3.5,0,1,0,1.5,0,14-3,24.3-18.6,24-32.5,20.6-1.9,7.3,3.3,17.7,22,4.3,7.7,9.8,10.4,17.4,13.8l1.9-.5c6.6,1.3,14.3,0,20.4-2.9,2.3-1.1,8-5.5,9.7-7.3,1.6-1.8,6.7-9.7,7.8-12.1-6.1,5.5-1.1-8.3-7.8,1.9ZM129.8,128.4c-1.9-.4-.5,3-1,3.6-.9,1.2-3.2-1.5-3.9,1.2,0,.6,0,1.6,0,1.9,4.8,1.1-3.9,11.6-5.6,11.6-1.4,0-2.6-4.9-6.8-4.4-2,.2-10.2-1.6-14.9-8.8.4-2.7,1-7.4,1.1-7.7.1-.3-.2-1.5.5-2.7,4.2-7.3,20.1-8.8,27.6-8.5,2,3.9,3.1,9.2,2.9,13.6ZM176.5,95.5c-1.2,0-2.3,0-3.4.2,1.1-.1,2.2-.2,3.4-.2ZM166.9,97.1c-.5.2-.9.5-1.3.8.3-.3.8-.5,1.3-.8Z"/>
            <path class="st23" d="M115.3,125.5c-16.1,3.9,1.1,19.2,4.8,7.3.6-1.9.6-3.4.5-5.3.5,0,3.3,2.8,3.9,4.4,0,.2.5,1.4.5,1.5,0,.2,0,.6,0,.9s0,.8,0,1c-1.7,5.7-18,5.1-24.7,2.9s-2.7-3.4-2.4-5.3c.8-6.6,15.6-10.2,17.4-7.3Z"/>
            <path class="st29" d="M126.9,114.9c-7.5-.3-23.5,1.2-27.6,8.5-.7,1.2-.4,2.4-.5,2.7,6.6-9.6,26.9-7.1,25.7,5.8,0,.2.8,1.6,0,4.3-3.2,4.7-18.6,3.5-24.3,2-.4,0-2.6-1.1-1.5.5,3.3,4.7,11.3,6.9,14,7.6,3.9,1,5.3,1.1,6.6.7,7.9-2.6,9.9-14.2,10.4-18.4.4-3.4-.9-9.7-2.9-13.6Z"/>
            <path class="st12" d="M120.1,132.8c-2.1,2.6-4.7,1.3-3.4-1.9,2-.4,2.8-3.4,3.9-3.4,0,1.9.1,3.4-.5,5.3Z"/>
          </g>
        </g>
      </g>
    </g>
    <path class="st46" d="M95.4,139.4"/>
    <path class="st0" d="M92.5,148.1c4.8,5,13.3,9.4,19.9,8.4.6.7.4,1.4.5,1.5-5.2,1.4-10.7,1.3-16,.2,3.6,15.8,33.6,40.5,48.7,40.9,11.9.4,53.2-19.6,59.4-35.9,2.1,2.8-4.1,7.1-2.4,8.7-6,8.6-16.1,14.9-25.2,19.9-10.5,5.7-25.3,12.8-37.3,10.7-7.5-1.3-27.2-13.6-33.2-18.9-9.5-8.4-17.4-22.9-17.3-36.5,0,0,2.8,1,2.9,1Z"/>
    <path class="st0" d="M104.2,100.3c-1.7.9-7.3,9.7-8.8,10.9,1-9.2,10.7-40.7,20.9-43.4,12.9-3.4-4.3,4.3-10.2,23.5-.9,2.8-.9,6.1-1.9,9Z"/>
    <g>
      <path class="st29" d="M141.9,157c-4-.2-7.5-2.8-10.2-5.3-1.9-10,3.3-.9,5.6.5,6,3.6,17.5-.3,4.6,4.8Z"/>
      <path class="st31" d="M131.8,151.7c2.6,2.6,6.2,5.2,10.2,5.3,3.6.2,14-5.5,8.5-1-10.4,8.6-26.1-6.7-20.4-6.8.5,0,.4,1.2,1.7,2.4Z"/>
    </g>
    <path class="st29" d="M174.9,108.1c2.9-.3.8.7-3,2.2-5.9,2.5-9.7,6.8-6.7,19.8.1.5-.4.4-.7.7q-4.5-1.5-9-2.9c-.4-15.4,5.8-18.6,19.4-19.9Z"/>
    <path class="st0" d="M227.2,152l1,1.9c1,1.9-2.9,2.9-2.9,2.9-1.1.4-1.9,1-2.9,0l1-4.8c1-1.9,3.6-.4,3.9,0Z"/>
    <path class="st29" d="M210.7,103.5c-.2-3.8-4-3.7-6.8-7.8-2.3-3.4-3.7-11.2-3.9-11.6-2.9-9.7-11.6-13.6-11.6-13.6,0,0,13.6,16.5,8.7,38.8-.6-.1-4-2.1-4.8-2.2-5.3.6-1,1.6,1.5,6.1,3.3,5.9,5,12.9,3.4,19.6,0,.3,0,1.8,0,1.7,0,0-1,2.1-1.9,2.9-4.8,3.9-14.5,2.8-17.4,1.9-1.9-.5-4.8-1.9-4.8-1.9,0,0,2.9,8.7,19.4,8.7s13.9-12.5,14.5-15.5c.9-4.4,0-9.7-2.9-15.5-.1-.2,6.9-9.8,6.8-11.6Z"/>
    <g>
      <path d="M94.4,112.7c0,.3.5,0,1-.4,5.8-3.9,8.7-5.8,10.7-6.8,3.9-1.9,6.4-2,6.8-2.1,3.6-1.2,17.1,3.5,12.4-3.6-4.3-6.5-16.6-1.5-21.8,1.2-1.7.9-9,7.4-9,11.7Z"/>
      <path d="M191.6,107.7c.6.6.7-2.3.2-3.9-3.9-10.6-26.6-8.7-27.9-4.1-1.9,6.9,10.1,1.2,20.8,3.9,2.7.9,3.6.9,6.8,4.1Z"/>
    </g>
    <g>
      <path class="st12" d="M228.1,159.7c0-1.9,0-4.8-1-5.8s-1.7-2-2.9-1c-.8.7-1.8,4.5-1.9,6.8,0,.8.3,3.3,1,3.8,1.9,1.5,3.2,1.2,3.8.2,1.9-3.1,1-2.7,1-4Z"/>
      <path class="st27" d="M228.7,159c-.2-2.7-.4-4.7-1.5-5-2.9-1-1,2.9-3.9,4.8-1.1.8-.5,3.2,0,3.9,3.3,4,5.6-1,5.4-3.7Z"/>
    </g>
    <path class="st0" d="M197.6,123.8c0,.3-.4.6-.5.4-3.8-7.1-16.6-8.9-21.6-6.5-3,1.4,7.3-7.9,16.8-3.5,4.7,2.2,5,7.7,5.3,9.6Z"/>
    <path class="st9" d="M203.7,127.5c-4.2,1.2-7,.8-8.5-.7-.4-.4-.7-.7-1.1-1-6.7-9.6-25.1-4.8-24.1,6.1,3.2-2.4,5.3-8.5,14.8-6.8,5.1.9-3.5,0-5.6,3.6-3.9,7.1,4.1,12.5,9.2,7-2.9-1.7,0-1.5.5-3.4-.2,0-.3,0-.5,0-6.4,1.4-4.8-5.7,1.5-4.4,2.9.6,6.8,4.4,6.8,6.3.4,1.3-.6,2.3-.5,2.2,1-1,1.9-2.9,1-3.6,2.3,0,6.5-5.4,6.5-5.4Z"/>
    <path class="st0" d="M98.3,124.8s4.2-5.4,7.8-6.8c5.4-2.1,18.4-3.9,21.3-2.9s-11.3-4.4-20.5-1c-1.3.5-3.4,1.7-4.7,2.9-3.9,3.9-3.9,7.8-3.9,7.8Z"/>
    <path class="st9" d="M99.5,125.2h0c-3.1,2.7-7.1.4-7.1.4,0,0,1.4,3.5,4.5,4.2.1,0,.3,0,.5.1,0,1.8,0,2.2.6,2.9.8-6.6,15.6-10.2,17.4-7.3.1.1.2.2.3.3.2.2.2.4,0,.5.2,0,.2-.2,0-.5,0,0-.2-.2-.3-.3-16.1,3.9,1.1,19.2,4.8,7.3-2.1,2.6-4.7,1.3-3.4-1.9-.8-.3-1.5-.5-2-.6.5.2,1.2.4,2,.6,2-.4,2.8-3.4,3.9-3.4.5,0,3.3,2.8,3.9,4.4,1.2-12.5-17.9-15.2-25-6.6Z"/>
    <g>
      <path class="st26" d="M131.2,126.8c0,15.3-14.8,26.2-27.1,26.2s-18.4-9.9-18.4-25.2,9-21.3,21.3-21.3,24.2,5.1,24.2,20.4Z"/>
      <path class="st26" d="M207.8,127.9c0,22.1-17.3,28.9-31.8,28.9s-21.5-11-21.5-27.8,10.5-23.5,24.9-23.5,28.4,5.6,28.4,22.5Z"/>
      <g>
        <path d="M212.6,136.5c5.6-9.3-3.7-18.3-4.8-21.3-2.9-7.8-6.6-9.7-9.7-10.7s-5.8-1-12.6-1-28.1-2.9-33.4,13.3c-7-3-12.2-2.5-19.4-1-1.5-2.6-5.3-11.3-19.9-12.3-1.9-.1-8.9-.7-15.5,1s-7.6,2.8-9.7,4.8c-2.2,2.2-4.5,9.5-4.8,17.4-.3,6.8,1.9,16.5,2.9,18.4.6,1.2,2.9,5.8,5.6,7.2,12.8,7.3,14.5,4.8,20.6,4.4,14.5-1,25.5-17.9,25.2-31.8,20.6-1.9,7.3,3.3,17.7,22,2.5,4.5,9.4,10.7,16.2,12.6s14.4,1.7,22.3-1.9c12.6-5.8,16.5-16.5,19.4-21.3ZM129.1,129.4c-.2,7.3-3.2,13.1-7.9,16.8-6,4.8-14.8,6.3-24.1,3.5-5.6-1.7-7.5-6.1-8.5-8.4-3.9-9.7,0-23.3,1-26.2,1.9-5.6,10.1-7.4,15.5-7.8,8.3-.5,16.8.2,21.1,8.4,2,3.9,3.1,9.2,2.9,13.6ZM161,147.1c-3.4-4.6-5.2-13.5-5.3-19.1-.4-15.4,5-18.5,19.4-19.9,5.4-.5,11.1-.8,16.5,0,.8.1,2.4.3,2.9.5,2.1.5,4.1,1.3,5.6,2.8s4.2,5.8,5.8,16.4c.5,3.3,0,7.8-1.7,12.3,0,0,0,0,0,0-8.6,19.7-35,17.9-43.1,7Z"/>
        <path class="st42" d="M226.7,113.9c-.6-.6-13.3-6.1-15.5-6.8-2.5-.7-7.9-.1-8.3.3,4.6,4.3,2.8,14.4,6.8,18.4.6.6,3.5-1.1,5.6-2.2l.2.2h1.9v-.8c8.8-.7,11.5-2.9,14.5-1.2-.4-1.6-4.4-7-5.3-8Z"/>
        <g>
          <path class="st3" d="M84,117.8q-4.8,2.2-9.7,4.4c-.5-1.1-2.6-9.4-1.2-10.2,22.1-3.3,17.2-9.9,10.9,5.8Z"/>
          <path d="M84,117.8q-.6,4.8-1.2,9.7c-3.1-2-6.7-1.6-8.5-5.3q4.8-2.2,9.7-4.4Z"/>
        </g>
        <path d="M228.1,123.9c-.8-.6,4.3-1.1,3.9-2.9-2.9-1.6-5.9.8-13.1,2-9.2.8-12.1-2-12.1-2l1,2.9c0,.5.5,2.4,1,4.2l-2,.7,2,6.7c5.3-5.3,8.1-3.4,14.5-8.7,2.3-1.8,4.3-2.8,4.8-2.9Z"/>
      </g>
    </g>
    <g>
      <g>
        <path class="st6" d="M183.4,464.7c-16.7,1.5-88.4-25.8-84.3-9.5.2,1,4.1,17.2,7.8,20.4,6.8,5.8,41.7,7.8,64.9,6.8,13.9,0,52.4-10.8,53.3-15.7.9-4.7,1-5.8,1.9-11.6-13.7,5-29.1,8.4-43.6,9.7Z"/>
        <path class="st28" d="M157.5,482.5l-1.3-10.3s2.6,10.3,3.9,10.3h-2.6Z"/>
      </g>
      <path class="st29" d="M153.7,229.1c.7,3.4,2.5,6.6,4.1,9.6.5,2.7-4.2.7-7.5,1.4-6.5,1.3-7.7,7.7-3.4-3.4,1.1-2.8,2.5-5.4,3.4-8.2,2.9,1.7,2.4.9,3.4.7Z"/>
      <g>
        <path class="st39" d="M220.3,320.4s1.9-1.3,1.9-1c.8.2,23.3-23.4,26.2-31,.8-2,4.8-15.5,3.5-21.5-2.1-8.4-5.2-16.4-10.8-23-10.7-12.6-22.4-9.6-31-12.4-2,4.3-4.4,8.4-7.3,12.1-1.7,6.3-14.6,22.4-21.1,22.8-9.1.6-14.5-13.1-20.6-17,.7,6.8-1.5,12.8-7.8,16.2.3,1.1,3.2-2.4,3.9,2.7,4.8-2.5-2.8,5.8-6.1,6.3-7.3,1-10.2-8.5-10.9-14.3-.3-2.4-.3-9.2,1-8.5-.4-5.7,2.1-10.6,4.8-15.5-.5.2.2-1.4-2.9,1.7-3.1,3.2-19.9,26.6-21.6,26.9-.3,0-5-2.4-5.1-2.7-1.4-3,0-29.7-2.7-31.3-.7-.4-3.5.8-3.1-1-7.3.6-10.8.9-17.7,4.8-9.9,5.7-20.2,22.3-17.7,27.4,3.4,6.7,12.1,17.4,18.9,23.2,1.8,1.6,3.7-.9,4.8-2.8-3.2,7.4-8.9,19.2-7.7,29,1.3,11.1,6.7,17.4,10.7,20.4,2.6,2,8.7,3.9,8.7,3.9,0,0,4.9,5.1-1,14.5-2.4,3.8-9.6,13.8-18.4,36.2-4.7,18.5-7.6,37-10.8,56-.4,2.1-.6,4.8-1,6.8,14.3,9.5,36.6,12.5,53.5,14.3,16.7,1.7,33.7,2.5,50.4,1,14.5-1.3,29.9-4.6,43.6-9.7,4.5-1.7,9.9-3.9,14.1-6.3-2.1-15.1-5.5-29.9-9.7-44.6-3.1-11-6.3-21.8-11.6-32-7.2-5.7-5-30.1-3.8-41.7l4.3-10Z"/>
        <path class="st35" d="M216.4,324.2c0,0,0,.1,0,.2,0-.2,0-.2,0-.2Z"/>
        <path class="st35" d="M216.5,324.5c0,.2,0,.6,0,1.1.1-.4.1-.8,0-1.1Z"/>
      </g>
      <path class="st39" d="M87.4,320.5"/>
      <path class="st35" d="M219.7,370.2c-4.7-6.8-4.6-25.8-3.4-38.3,2.3-2.9,4.2-6.6,4.9-9.9.9-3.5.4-15.3-2.7-24-1.5.2,4.5,12.3-.8,23.1-2,2.9-4.8,6.7-9.1,9.6-2.1,1.3-4.7,2.5-7.6,3.5-5.8,1.6-13.3,1.7-23.5-1.2.6.2,34.2,38.9,41.7,54.3,7.3,15,15.7,60.8,14.5,64.9.5,0,6.6-3.3,9.7-4.8,1.9-1-2.7-47.1-23.7-77.2Z"/>
      <path class="st35" d="M116.5,337.3c4.8,0,9.7-2.9,9.7-2.9-5.8,2.9-15.5,1.6-15.5,1.6,0,0,1.1,1.8,1,4.8-.1,3.2-1.5,7.9-3.8,11.9-3.9,6.7-6.9,12.5-9.3,17.3-2.7,4.6-4.7,9.9-5.9,13.2-.9,2.3-1.3,3.4-1.3,3.4-4.7,18.5-9.1,43.7-11.7,62.7,6.4,3.9,6.8,3.9,6.8,3.9,0,0-3.1-21.3,2-41.1,7.2-28.1,19-40,22.3-45.2,14.5-23.3,5.9-29.7,5.9-29.7Z"/>
      <path class="st39" d="M87.5,320.4"/>
      <path class="st35" d="M86.6,277.7s6.8,2.9,12.6-1c5.9-4-2.9,12.6-2.9,12.6,0,0-5.9-5.1-9.7-11.6Z"/>
      <path class="st15" d="M150.5,293.9c-3,1-3.8-4.5-1-4.8,2.6-.3,3,4.2,1,4.8"/>
      <path class="st15" d="M150.5,313.3c-3,1-3.8-4.5-1-4.8,2.6-.3,3,4.2,1,4.8"/>
      <g>
        <path class="st35" d="M150.6,229.6c-.7,2-1.7,3.8-2.4,5.8-1.8-.3-1.8.9-1.9,1-.5.2.2-1.4-2.9,1.7-3.1,3.2-19.9,26.6-21.6,26.9-.3,0-5-2.4-5.1-2.7-1.4-3,0-29.7-2.7-31.3-.7-.4-3.5.8-3.1-1,2-.1,3.8.8,5.8.5-.6,8.6-.2,17.6,6.5,23.7.4,0,3.5-3.8,4.1-4.4,6.6-6,12.4-12.9,18.9-18.9.9-.8,2.2-1.3,2.9-2.4.2.2,1.2.8,1.5,1Z"/>
        <path class="st35" d="M141.4,251.9c0,.9,0,1.8,0,2.7.2.5,1.1.9,1.5,1.2-4.6,6.2,6.6,9.9,2.7,9.2-.5,0-1.9-1.3-2.4-1.9,2.3,8.2,7,9,14.3,5.3,4.8-2.5-2.8,5.8-6.1,6.3-7.3,1-10.2-8.5-10.9-14.3-.3-2.4-.3-9.2,1-8.5Z"/>
        <g>
          <path class="st25" d="M192.2,214.1c2.4,7.2,9.8,14.9,17.9,17.4-2,4.3-4.4,8.4-7.3,12.1-3.6,4.7-15.9,17.7-22,17-5.4-.7-23.2-25.2-25.9-31.5,10.4-3.5,20.6-9.5,27.6-17.9-.3-2-1.6-5.8-1.9-7.8,5.5.6,8.7,8.8,11.6,10.7Z"/>
          <path class="st35" d="M154.9,229.1c2.7,6.3,20.5,30.8,25.9,31.5,6.1.8,18.4-12.2,22-17-1.7,6.3-14.6,22.4-21.1,22.8-9.1.6-16.2-11.2-20.6-17-1.9-2.5-2.2-3.4-2.9-5.4-.4-1.2-.5-1.7-1-2.9-1.1-2.5-1.4-4-1.5-4.2-1.2-2.1-2.4-4.4-2.9-6.8.1,0-.5-.2,1.9-1Z"/>
          <g>
            <path class="st21" d="M139.4,213.6c-1.4-.2-1.7,4.4-2.4,6.8-2.6,8.8-9.8,26-10.2,27.4-.2.6-.2,2.3.5,2.2-.6.6-3.7,4.4-4.1,4.4-6.8-6.1-7.1-15.2-6.5-23.7,6.3-3.8,10.9-9.6,15-15.5,2.8-3.9,4.4-8.9,8.2-12.1-.3,3-.9,7.9-.5,10.7Z"/>
            <path class="st25" d="M146.2,231c-6.5,6-12.3,12.9-18.9,18.9-.6,0-.6-1.6-.5-2.2.4-1.4,7.5-18.6,10.2-27.4l9.2,10.7Z"/>
            <path class="st8" d="M139.4,213.6c.6,3.9,3.5,6.7,5.8,9.7.6.8,3.6,5.1,3.9,5.3-.7,1.1-2,1.6-2.9,2.4l-9.2-10.7c.7-2.4,1-7,2.4-6.8Z"/>
          </g>
        </g>
      </g>
      <g>
        <path class="st19" d="M161.2,249.8c.7,6.8-1.6,12.5-7.9,16,.3,1.1,3.2-2.4,3.9,2.7-7.3,3.7-12,2.9-14.3-5.3.5.6,1.9,1.9,2.4,1.9,3.9.7-7.3-3-2.7-9.2,1.1,1,9.7,4.4,10.4,3.9,1-.7-.6-3.3-.2-4.6.3-1,3-1.6,3.9-2.9,1.5-2.2.8-6.3,2.9-8,.7,2.1,1.3,3.2,1.6,5.6Z"/>
        <path class="st19" d="M148,235.5c-3.1,7.9-2.2,3.3,2.4,2.4-5.3,4.1-3.8,6.6-3.1,12.6,5.4-11.5,6.1,4.8,7-7l3.9-2.7c.5,1.2,1,2.2,1.5,3.4-2.1,1.7-1.4,5.8-2.9,8-.9,1.4-3.6,1.9-3.9,2.9-.4,1.3,1.2,3.9.2,4.6-.8.5-9.3-2.9-10.4-3.9-.4-.3-1.3-.7-1.5-1.2,0-.9,0-1.8,0-2.7-.4-5.7,2.1-10.6,4.8-15.5.1,0,.2-1.3,1.9-1Z"/>
        <path class="st32" d="M158.2,240.8l-3.9,2.7c-.9,11.9-1.6-4.4-7,7-.6-6-2.1-8.5,3.1-12.6,2.3-.5,5.7.9,5.3-1,.1.2,1.4,1.4,2.4,3.9Z"/>
      </g>
      <path class="st35" d="M123.8,333l1,11.1c.7,8.2,7.9,14.3,16.1,13.7l21.6-1.6c3.9-.3,7.9.8,11.1,3.1,12.9,9.1,46.7,33.6,52,45.4,6.7,14.6-14.6-48.4-14.6-48.4,0,0-26-47.3-45.1-54.4-22.5-8.3-39,23.7-42.2,31.1Z"/>
    </g>
    <path class="st9" d="M99.5,125h0c-3.1,2.7-7.1.4-7.1.4,0,0,1.4,3.5,4.5,4.2.1,0,.3,0,.5.1,0,1.8,0,2.2.6,2.9.8-6.6,15.6-10.2,17.4-7.3.1.1.2.2.3.3.2.2.2.4,0,.5.2,0,.2-.2,0-.5,0,0-.2-.2-.3-.3-16.1,3.9,1.1,19.2,4.8,7.3-2.1,2.6-4.7,1.3-3.4-1.9-.8-.3-1.5-.5-2-.6.5.2,1.2.4,2,.6,2-.4,2.8-3.4,3.9-3.4.5,0,3.3,2.8,3.9,4.4,1.2-12.5-17.9-15.2-25-6.6Z"/>
    <g>
      <path class="st26" d="M131.3,126.6c0,15.3-14.8,26.2-27.1,26.2s-18.4-9.9-18.4-25.2,9-21.3,21.3-21.3,24.2,5.1,24.2,20.4Z"/>
      <path class="st26" d="M207.9,127.7c0,22.1-17.3,28.9-31.8,28.9s-21.5-11-21.5-27.8,10.5-23.5,24.9-23.5,28.4,5.6,28.4,22.5Z"/>
      <g>
        <path d="M212.7,136.3c5.6-9.3-3.7-18.3-4.8-21.3-2.9-7.8-6.6-9.7-9.7-10.7-1.9-.6-5.8-1-12.6-1s-28.1-2.9-33.4,13.3c-7-3-12.2-2.5-19.4-1-1.5-2.6-5.3-11.3-19.9-12.3-1.9-.1-8.9-.7-15.5,1-7.8,1.9-7.6,2.8-9.7,4.8-2.2,2.2-4.5,9.5-4.8,17.4-.3,6.8,1.9,16.5,2.9,18.4s2.9,5.8,5.6,7.2c12.8,7.3,14.5,4.8,20.6,4.4,14.5-1,25.5-17.9,25.2-31.8,20.6-1.9,7.3,3.3,17.7,22,2.5,4.5,9.4,10.7,16.2,12.6,4.8,1.4,14.4,1.7,22.3-1.9,12.6-5.8,16.5-16.5,19.4-21.3ZM129.1,129.2c-.2,7.3-3.2,13.1-7.9,16.8-6,4.8-14.8,6.3-24.1,3.5-5.6-1.7-7.5-6.1-8.5-8.4-3.9-9.7,0-23.3,1-26.2,1.9-5.6,10.1-7.4,15.5-7.8,8.3-.5,16.8.2,21.1,8.4,2,3.9,3.1,9.2,2.9,13.6ZM161.1,146.9c-3.4-4.6-5.2-13.5-5.3-19.1-.4-15.4,5-18.5,19.4-19.9,5.4-.5,11.1-.8,16.5,0,.8.1,2.4.3,2.9.5,2.1.5,4.1,1.3,5.6,2.8.5.4,4.2,5.8,5.8,16.4.5,3.3,0,7.8-1.7,12.3,0,0,0,0,0,0-8.6,19.7-35,17.9-43.1,7Z"/>
        <path class="st42" d="M226.8,113.7c-.6-.6-13.3-6.1-15.5-6.8-2.5-.7-7.9-.1-8.3.3,4.6,4.3,2.8,14.4,6.8,18.4.6.6,3.5-1.1,5.6-2.2l.2.2h1.9v-.8c8.8-.7,11.5-2.9,14.5-1.2-.4-1.6-4.4-7-5.3-8Z"/>
        <g>
          <path class="st3" d="M84.1,117.6q-4.8,2.2-9.7,4.4c-.5-1.1-2.6-9.4-1.2-10.2,22.1-3.3,17.2-9.9,10.9,5.8Z"/>
          <path d="M84.1,117.6q-.6,4.8-1.2,9.7c-3.1-2-6.7-1.6-8.5-5.3q4.8-2.2,9.7-4.4Z"/>
        </g>
        <path d="M228.2,123.7c-.8-.6,4.3-1.1,3.9-2.9-2.9-1.6-5.9.8-13.1,2-9.2.8-12.1-2-12.1-2l1,2.9c0,.5.5,2.4,1,4.2l-2,.7,2,6.7c5.3-5.3,8.1-3.4,14.5-8.7,2.3-1.8,4.3-2.8,4.8-2.9Z"/>
      </g>
    </g>
    <path class="st7" d="M231.6,369.1c-1,2.7-1.6,5.6-3.9,7.8l-4.4-1c-1.2-.9-2.1-1.9-3.4-2.9-9.6-7.6-40.4-24.1-50.7-32.3.5-.4,16.6,6.7,17.1,6.6,14.7,8.2,29.8,15.3,45.3,21.8Z"/>
    <path class="st29" d="M201.1,337.1c9.6,1.3,15.8,2.8,25,5.3.5.1,2-2.3,9.4,3.4,0,.1,0,.3,0,.5.3,3.8-2.7-.2-3.4,1.2-.2.4,2.2,2.1,2.4,8,.2,4.9-1.3,9.1-2.9,13.6-15.5-6.5-30.7-13.6-45.3-21.8-.5,0-14.4-5.6-15.5-6.4.3-.3-.3-3-.2-3.1,8.3,3.1,19,7.7,17.9-2.1,4.2.6,8.4.9,12.6,1.5Z"/>
    <path class="st30" d="M181.8,333.6c.5.3,2.3,0,2.4,0,1.4.3,2.8,1.1,4.4,1,.3,1.4.5.9.5,1,1.2,9.8-2.8,9.8-11.1,6.8,1.1-1.8,1.7-8.7,3.9-8.7Z"/>
    <path class="st35" d="M86.4,453.2s69.9-44.2,57.3-62.1c-3.2-4.6-2.2-18.6-24.8-25.1,0,0-44.2-17.3-42.8-6.2,1.1,8.9,7.1,75.1,8.8,90.4.2,2,1.5,2.9,1.5,2.9Z"/>
    <g>
      <rect class="st40" x="110.3" y="398.5" width="18.1" height="9.9" transform="translate(-175.7 103.5) rotate(-28)"/>
      <path class="st44" d="M64.1,398.8c-.3-.5-.6-.9-.8-1.4-.8-1.5-.3-2.9,1.1-3.7.9-.5,1.9-.8,2.5-1.7,1,.2,1.7-.6,2.5-1,2.2-1.1,2.2-1.2,2-3.6-.6-5.6-1.3-11.2-2.7-16.7-1.7-6.9-4.4-13.6-7.5-20-2.8-5.5-6.1-10.8-9.6-15.9-2.8-4-5.7-8-8.7-11.8-.6-.8-.6-1.2.3-1.7,3.8-2,7.6-4,11.4-6,1,2.1,2.1,4.1,3,6.1,2.1,4.6,4.2,9.2,6.4,13.7,1.7,3.7,3.4,7.4,5.2,11,3.6,7,7.3,14,11.5,20.7,2.7,4.3,5.5,8.6,8.9,12.6.4.5.7.5,1.3.2,1.5-.8,3-1.6,4.5-2.4.9-.4,1-.7.2-1.4-1.5-1.3-3-2.8-4.4-4.2-3.3-3.5-6.2-7.2-9.1-11-3.2-4.3-6-8.9-8.7-13.5-3.5-6.1-6.5-12.5-9.2-19.1-1.1-2.6-2-5.2-3-7.8-.9-2.3-1.6-4.7-2.5-7.1,1-.6,2.1-1.1,3.1-1.7,1,2.1,1.6,4.4,2.3,6.7,1.1,3.5,2.5,6.8,3.9,10.2,2.2,5.4,4.6,10.7,7.6,15.7,2.2,3.7,4.5,7.3,7.1,10.8,3.9,5.1,8.3,9.7,13.1,14,1.7,1.5,3.5,3,5.4,4.4.7.5,1.1.5,1.7.1.6-.3,1.1-.7,1.7-.9,2.1-.8,4.3.7,4.1,2.8-14.8,7.9-29.6,15.8-44.4,23.7Z"/>
      <path class="st44" d="M8.3,278.9c.8-.3,1.5,0,2.1.4,1,.6,2.1.6,3.2.8,1.3.3,2-.4,2.5-1.6.7-2,.6-4,1.2-6,.4-1.3.8-2.5,1.4-3.7.4-.7.3-1-.5-1.3-2.8-1-4.3-3.3-4-6.1.2-2.2,2.6-4.6,5.1-4.9,3.4-.4,7.2,2.6,6.2,6.7-.3,1.4,0,1.6,1.3,1.6,2.6.1,4.8,1.4,7.1,2.4,0,0,.1.1.2.1,2.9,1.4,3.9.9,4.8-2.1.5-1.8,1-3.6,1.5-5.4.1-.5.3-.9.6-1.4.4-.7.8-1.4,1.8-1.5,1.1,0,1.4.7,1.8,1.4,3.1,6.2,4.8,12.8,5,19.8,0,4-.4,8-.1,12,0,.5,0,1,.1,1.5.3,2.1.3,2.1,2.3,1.5,1-.3,1.7,0,2.2.9.6,1.1.1,1.9-.6,2.6-.5.4-1.1.7-1.7.7-6.2,3.3-12.3,6.6-18.5,9.9-.5.2-1.1.4-1.2,1-.9.3-1.6,1.1-2.8.9-.9-.1-1.5-.5-1.7-1.3-.1-.8,0-1.6.8-2,.6-.3,1-.7,1.5-1.1,1.5-.2,2.5-1.2,3.8-1.8.9-.4.8-.9.2-1.5-1-.9-2-1.8-3.2-2.6-4-2.6-8.2-4.9-11.9-8-4.1-3.5-7.8-7.4-10.3-12.2ZM43.1,298c1.3-.3,1.7-1.2,1.3-2.7-.2-1-.1-2,0-3,.5-4.6,1.5-9,1.6-13.7,0-5.5-1.6-10.4-3.5-15.4-.1-.3-.2-.6-.6-.6-.3,0-.4.3-.5.6-.7,2.2-1.5,4.3-2.1,6.5-.3,1.1-.4,2.1,0,3.3.6,2.1,1.2,4.2,1.3,6.4.2,4.6,0,9.2-.2,13.8,0,1.5,0,3,.3,4.5.2,1,.7,1.5,1.7.8.2-.2.5-.3.9-.5ZM21.4,262.6c1.1-.6,1.6-2.1,1.1-3.1-.6-1.1-2.2-1.6-3.4-.9-1.2.7-1.6,2.1-.9,3.2.7,1.3,1.9,1.6,3.3.8Z"/>
      <path class="st44" d="M69.1,425.3c-.2-.8.6-1.2.6-1.9.7,0,1.3-.4,1.9-.7,9-4.8,18-9.6,27-14.4,9-4.8,18.1-9.6,27.1-14.5,1,.1,2,0,2.9.4,2.2,1,3.1,3,3.2,5.2.1,2.1-1.1,3.6-3,4.6-1.6.9-3.3,1.7-4.9,2.5,2.3-3.2.8-7.1-1.8-8.5-1.3-.7-2.2,0-3.2.4-1.6.7-3.1,1.6-4.6,2.4-1.3.7-1.4.9,0,1.7,1.2.8,2.1,1.8,2.4,3.3.6,2.4-.4,4.8-2.5,5.9-9.8,5.2-19.5,10.4-29.3,15.6-.1,0-.3-.3-.4-.3-3.9-.1-5.8-1.8-6-5.6,0-1.1-.4-1.1-1.2-.6-2.7,1.5-5.5,2.9-8.2,4.4Z"/>
      <path class="st2" d="M125.7,393.9c-9,4.8-18.1,9.7-27.1,14.5-9,4.8-18,9.6-27,14.4-.6.3-1.2.6-1.9.7-3-1.5-4.9-4-6.7-6.9-3-4.9-2-11.7,2-15.6.6-.6.8-1-.1-1.4-.3-.1-.6-.3-.8-.7,14.8-7.9,29.6-15.8,44.4-23.7.5.7.2,1.4,0,2.1-.5.2-.8.6-1.3.9-1.4.7-2.9,1.2-4,2.4-3.1,1.1-5.9,2.9-8.8,4.4-1.4.8-2.9,1.5-4.3,2.3-4.1,2.2-8.2,4.4-12.4,6.6-1.4.8-2.6,1.7-3.6,3-5.5,6.8-2.6,15.3,3.1,19.8.7.5,1.1.5,1.8.1,10.8-5.8,21.6-11.6,32.5-17.3,2.6-1.4,5.3-2.8,7.9-4.3,2.2-1.2,4.5-2.1,6.4-3.7.2.8.2,1.6,0,2.4Z"/>
      <path class="st2" d="M61.6,311.5c-1,.6-2.1,1.1-3.1,1.7-1.4.7-2.7,1.5-4.1,2.2-3.8,2-7.6,4-11.4,6-.9.5-.9.9-.3,1.7,3.1,3.8,6,7.8,8.7,11.8,3.5,5.1,6.8,10.3,9.6,15.9,3.2,6.4,5.8,13,7.5,20,1.4,5.5,2.1,11.1,2.7,16.7.3,2.5.3,2.5-2,3.6-.8.4-1.5,1.1-2.5,1-.4-3.6-.8-7.2-1.3-10.7-.6-4.8-1.9-9.4-3.3-13.9-1.6-5.4-4-10.5-6.5-15.5-1.5-3-3.2-5.9-5.1-8.8-1.7-2.6-3.4-5.2-5.1-7.7-2.6-3.7-5.4-7.3-8.2-10.9-.4-.5-.7-1-1.1-1.6.1-.5.6-.7,1-.9,7.5-4,15.1-8,22.6-12,.4-.2.8-.5,1.3-.3.2.6.4,1.2.6,1.8Z"/>
      <path class="st44" d="M61.1,309.6c-.5-.2-.9.1-1.3.3-7.5,4-15.1,8-22.6,12-.4.2-.9.3-1,.9-.9.4-1.7.9-2.6,1.3-1.6.8-3.7,0-4.6-1.5-.8-1.5-.2-3.6,1.3-4.5.7-.4,1.4-.8,2.2-1.2,1-.5,2-1.2,3-1.6,1.5-.5,1.8-1.7,1.8-3,0-1.3,0-2.5-.4-3.8-.2-.8,0-1.2.7-1.5,2.1-1,4-2.4,6.3-3.1.5.5,1,1,1.5,1.4,2.8,2.5,4.1,2.7,6.8,1,.3-.2.7-.2.6-.6,0-.3-.4-.3-.7-.4-1.8-.8-3.6-1.8-4.7-3.5,1.6-.9,3.2-2,5-2.4,1.1.8,2.1,1.7,3.2,2.5,1.4.9,2.7,1.4,4.4.4,1.8-1.1,3.9-.6,4.7,1.1.9,2.1.6,3.5-1.4,4.8-.8.5-1.6.9-2.4,1.3Z"/>
      <path class="st2" d="M8.3,278.9c2.5,4.8,6.2,8.7,10.3,12.2,3.7,3.1,7.9,5.4,11.9,8,1.1.7,2.2,1.7,3.2,2.6.6.5.7,1.1-.2,1.5-1.3.6-2.4,1.6-3.8,1.8-2.3-2.6-5.3-4.2-8.2-6-5.8-3.6-11.1-7.8-15.2-13.4-1.3-1.7-2.4-3.5-3.3-5.5-.6-1.3-.2-2.1,1.2-2.3,1.5-.2,3,0,4.1,1.2Z"/>
      <path class="st33" d="M125.7,391.5c-1.9,1.6-4.3,2.5-6.4,3.7-.1-1.6-.2-3.2-.8-4.6-1.3-3.4-3.2-6.4-6.4-8.3-2.8-1.6-5.8-2-8.9-1.7,1.1-1.2,2.7-1.6,4-2.4.5-.3.8-.6,1.3-.9,1.7-.2,3.5-.6,5.2-.3,4.2.6,7.5,2.6,9.6,6.4,1,1.8,1.9,3.5,2.4,5.5.2.9.2,1.8,0,2.7Z"/>
      <path class="st2" d="M77.3,421c.8-.4,1.2-.5,1.2.6.2,3.8,2,5.5,6,5.6.1,0,.3.2.4.3-.5.3-8.2,5-9.5,5.2-5.5.7-9.1-4.2-5.4-7.9s5.7-3,7.3-3.8Z"/>
      <path class="st2" d="M52.6,299.5c-1.8.4-3.4,1.5-5,2.4-1.2.7-2.6,1-3.5,2.1-2.3.7-4.2,2-6.3,3.1-.6.3-.9.7-.7,1.5.3,1.2.4,2.5.4,3.8,0,1.3-.3,2.5-1.8,3-1.1.4-2,1-3,1.6,0-1.7.3-3.3,0-5-.2-1.2-.5-2.4-.9-3.6.2-.6.8-.7,1.2-1,6.2-3.3,12.3-6.6,18.5-9.9.4.6.7,1.3,1.1,1.9Z"/>
      <path class="st40" d="M54.4,315.3c1.4-.7,2.7-1.5,4.1-2.2.8,2.4,1.6,4.7,2.5,7.1.9,2.6,1.9,5.2,3,7.8,2.7,6.5,5.7,12.9,9.2,19.1,2.7,4.6,5.4,9.2,8.7,13.5,2.9,3.8,5.8,7.6,9.1,11,1.4,1.5,2.9,2.9,4.4,4.2.8.7.7,1-.2,1.4-1.5.8-3,1.6-4.5,2.4-.5.3-.8.3-1.3-.2-3.3-3.9-6.1-8.2-8.9-12.6-4.2-6.7-8-13.6-11.5-20.7-1.8-3.6-3.5-7.3-5.2-11-2.2-4.6-4.3-9.2-6.4-13.7-.9-2.1-2-4.1-3-6.1Z"/>
      <path class="st40" d="M43.1,298c-.4.2-.7.3-.9.5-1,.7-1.5.2-1.7-.8-.4-1.5-.4-3-.3-4.5.3-4.6.4-9.2.2-13.8,0-2.2-.7-4.3-1.3-6.4-.3-1.2-.2-2.3,0-3.3.6-2.2,1.4-4.3,2.1-6.5,0-.3.2-.5.5-.6.4,0,.5.3.6.6,1.9,5,3.6,10,3.5,15.4,0,4.6-1.1,9.1-1.6,13.7-.1,1-.2,2,0,3,.4,1.5,0,2.4-1.3,2.7Z"/>
      <path class="st40" d="M21.4,262.6c-1.4.7-2.5.5-3.3-.8-.7-1.2-.3-2.6.9-3.2,1.2-.7,2.8-.2,3.4.9.5,1,0,2.5-1.1,3.1Z"/>
      <path class="st44" d="M111.3,399.4c-10.8,5.8-21.6,11.5-32.5,17.3-.7.4-1.1.4-1.8-.1-5.6-4.5-8.5-13-3.1-19.8,1-1.3,2.2-2.2,3.6-3,4.1-2.2,8.2-4.4,12.4-6.6,1.4-.8,2.9-1.5,4.3-2.3.1.2.3.3.6.2,7.6-1.6,13.9,3.7,15.7,10.8.3,1.1,0,2.4.8,3.4Z"/>
      <path class="st40" d="M111.3,399.4c-.7-1-.5-2.3-.8-3.4-1.8-7.1-8.1-12.4-15.7-10.8-.3,0-.4,0-.6-.2,2.9-1.5,5.7-3.3,8.8-4.4,3.1-.3,6.2,0,8.9,1.7,3.3,1.9,5.1,4.9,6.4,8.3.6,1.5.7,3.1.8,4.6-2.6,1.4-5.3,2.8-7.9,4.3Z"/>
      <path class="st40" d="M44,304.1c.9-1.1,2.3-1.4,3.5-2.1,1.2,1.7,2.9,2.7,4.7,3.5.2.1.6.1.7.4,0,.4-.4.5-.6.6-2.8,1.7-4.1,1.5-6.8-1-.5-.5-1-1-1.5-1.4Z"/>
    </g>
    <g>
      <path class="st29" d="M66.7,353.6c2.9-.2,16.1-6.8,16.1-.5,0,4.8-19.2,9.2-23.3,9.2,12.1,1.8,22.4-5.8,23.8-6,4.2-.5,7.4,1.7,5.2,5.3-2.8,4.6-24.6,5.8-26.5,9.2-5.2-.5-6.7-7.4-8.4-11.3-.2-1.7-2.2-4.8-2.6-7.8s.3-7.5.3-7.5l2.4,3.9s3.5,4.1,5.4,6.7c1.1-.2,6.5-1,7.5-1.1Z"/>
      <path class="st29" d="M90.7,370c0,0,4.9,3.8-10.4,12.3s-10.2,5.6-13.7-2c7.1-4.7,16.5-6,24.1-10.3Z"/>
      <path class="st4" d="M62,370.8c-1.2,2.2.9,5.9,3.1,6.6,2.9.9,22-5.7,25.2-8.8.1,1,.4,1.2.4,1.5-7.6,4.3-17,5.6-24.1,10.3-.6.4-1.4.5-2,.8-7.1-6.9-9.9-12.2-11-21.7,1.7,3.9,3.2,10.8,8.4,11.3Z"/>
      <path class="st7" d="M69.1,385.4c-2.3-.6-3.1-2.8-4.5-4.2.6-.3,1.4-.4,2-.8,3.5,7.7,13,2.5,13.7,2,5.2-3.5-5.9,4.5-11.2,3Z"/>
      <path class="st29" d="M91.1,364.7c.4,2.1-.8,3.6-.8,3.8-3.2,3.1-22.3,9.6-25.2,8.8-2.3-.7-4.4-4.4-3.1-6.6,1.1.1,14.6-2.9,17-3.6,6.3-1.8,9.1-6.3,12.1-2.5Z"/>
      <path class="st4" d="M91.1,364.7c-3-3.8-5.8.7-12.1,2.5-2.4.7-15.9,3.7-17,3.6,1.9-3.3,23.6-4.6,26.5-9.2,1.1,1.3,2.3.9,2.7,3.1Z"/>
    </g>
  </g>
  <g>
    <g>
      <g>
        <path class="st22" d="M133.7,294c7.9,3.2,3.3,2,2.6,7.2,1.8-2.7,3.5-5.6,4.7-8.6-.1-.1-1.6-3.2-1.9-3.3-1.3-.5-2.2,2.9-3.3,1.6-.7,1-1.9,2.8-2.1,3.1Z"/>
        <path class="st43" d="M120.4,323.5c-4.9,3.2,2.6,11.9,6.2,8.1,3.1-3.3-2.9-10.3-6.2-8.1Z"/>
        <path class="st34" d="M152.3,308.6c-.2-1.1-.4-1.2-1.2-2.4-2.3-3.6-20.5-34.5-29.7-41.3-1.8-1.4-3.2-.5-4.1.4-4.3,4.8-29,20.2-30.5,23.2-.7,1.4.3,3.2.9,4.4.9,1.7,19.5,26.3,22.8,30.7,12.9,17.2,12.8,21.9,21.8,14.4-.2-.3,21.6-17.9,24.3-21.8-1.3-.6-4.1-6.8-4.3-7.6Z"/>
      </g>
      <g>
        <g>
          <g>
            <path class="st10" d="M145.1,329.3c-.1,0-.8-1.8-.8-1.9-2.9,2.9-14.4,12.7-16.2,13.5-5.5,2.4-7.6-4.5-17.5-17.3-3.4-4.3-21.9-29-22.8-30.7-.6-1.2-1.6-3-.9-4.4,1.5-3.1,26.2-18.4,30.5-23.2,1.1-1,4.3-.7,6.4,2.1,7.6,10.3,26.1,37.3,28.6,41.1.8,1.2,1.1-.7,2.2-.5-4.2-6.4-28.8-43.1-31.8-45-4.3-2.8-7.8,2.3-10.9,4.4-1,.6-1.9,1.3-2.8,2-.4.3-.9.7-1.4,1-1.1.7-3.2,2.5-3.8,2.2,0-3.3-2.6-7.7,1.4-9.6,5,0,32.6-9.7,34.6-8.5,4.7,9.1,8,19.2,11.7,28.9,3,7.8,6.6,16.4,9.2,24.4.4.3.6-.1.9.3l2.6,2.2c-1.2-2.2-4-11.1-5.3-14.4-1.7-4.3-3.2-8.6-4.8-13-1.3-3.4-2.8-6.6-4-10.1-.4-1.2-3.7-7.8-3.1-8.5,4.1.9,23.2.6,24.5,3.8.7,1.6-4.7,29.6-5.3,34-.4,2.8-1,5.5-1.2,8.4,0,0-.6.3,1.1,1.5,2.1.3,5.6-38.4,7.6-41.7,2.1-9.4-17.5-6.2-27.8-8.3-1.8-3.8-2.3-9.1-7.3-10.1-1.9-.4-31.9,9-36.5,10.1-3,2.8-.7,8.9-.3,12.4-6.5,5.8-21.1,11-16.7,18.4,6.5,7,34.4,48.5,38.3,50.7,4,2.3,18.4-12.3,21.8-14.1Z"/>
            <path class="st24" d="M86.8,285.8c-4.9,7,1.4-.7,9.3-6l-9.3,6Z"/>
          </g>
          <path class="st5" d="M151.3,283.2c-3.7-9.6-7-19.8-11.7-28.9-1.9-1.5-29,7-34.6,8.5-3.9,1.9-1.4,6.7-1.4,10.1,3.2-2.4,5.4-3.1,9.4-6.7s3.2-2.4,4.3-3.2c1.9-1.4,4.5-1,5.3-.1,7.1,8,21,28.8,31.9,45.5.4-.5,5.4-1.1,5.9-.7-2.6-8-6.1-16.6-9.2-24.4Z"/>
        </g>
        <path class="st5" d="M149.7,272.7c2.6,6.7,7.2,18.2,7.2,18.2l6.6,18.2s.4,1,1.3,1.4c.7-4.3,7.1-41,6.4-42.6-1.4-3.2-21-3.1-25.1-4,.2.6,3.1,7.5,3.5,8.7Z"/>
      </g>
      <path class="st10" d="M110.1,287.6c-.2-1.1.8-1.9,1.8-1.5,1.6.7,3.8,1.4,6.1,1.9,20.6,4.7,25.1,8.4,21.5,15.4-4.6,8.8-19.2,1.1-.5,9.7.5.2.6.8.2,1.1l-10.3,7.6c-.4.3-1,0-1-.5-.7-23.6-.5,1.2-12.1-1.3-8.5-1.8-6.1-14.8-5.2-24.5.3-3-.1-5.9-.6-7.9Z"/>
      <path class="st13" d="M135.8,261.8c7.4-1.8,1.4,7-.6,9.7s-.2,0-.3,0c-1.4-2.8-6.7-3.5-6-6.9.8-3.6,4.7-.9,5-.9.1,0,.6-1.5,1.8-1.8Z"/>
      <path class="st13" d="M160.5,282.4l-2.8-6.6c0-.2,0-.3,0-.4l3.8-6.1c.3-.5,1.4-.4,1.6.1l2.8,6.6c0,.2,0,.3,0,.4l-3.8,6.1c-.3.5-1.4.4-1.6-.1Z"/>
    </g>
    <path class="st48" d="M120,262.7c3,2,27.1,37.7,31.3,44.1.5,0,3-.5,5.7.5-.2-.8-.3-.6-.7-1.1-4.8-6.2-8.3-13.4-12.4-20.1-2.7-4.3-11.9-17.3-12.2-17.7-5.8-7.5-5-11.8-11.7-5.6Z"/>
    <path class="st48" d="M147.4,272.5c1.2,3.4,2.7,6.7,4,10.1,1.6,4.3,3.1,8.6,4.8,13,1.3,3.2,3.3,9.9,4.4,12.1.3.6.7,1.6,1,2,.2.2.4.3.6.5.2-2.8.7-5.6,1.2-8.4-.2-6-10.3-26-16.1-29.3Z"/>
    <g>
      <path class="st29" d="M130.7,323.5c.5,0,1.1-.2,1.4-.3,2.4-1,4.2-2.5,6.2-3.6.6-.3,13.1-9,13.7-8.8.6.2.4.2.4,1.2,3-1.1,10.6-3.7,11.9-2.1-.5-.4-1.5-1.8-2.1-2.1-5.9-3.1-16.2.6-22.9.3-4.1,2.7-6.2,7.1-8.8,11-1.4,2.1-5.8,4.7.1,4.5Z"/>
      <path class="st29" d="M154.8,341.7c2.4.2,5.5-.5,7.5-1.7-1.4,0,1-1.6,2.1-2.2.7-.9.9-2.3,1.3-2.8-.6-2.8-6.3,2.6-6.7,1.9.2-3.3,5.1-3.8,7.9-4.7,2.2,2,2.3,5.9,4,7.9-.2-2.7-1.9-6.2-1.4-8.3-4.2-.5-2.3-2.1-3.2-2.3-.6,0-2.5,3.1-9.8,5.5,2.5,6.7,3.7,3.8,4.3,4,1.9.6-2.6,1.9-2.9,1.9-1,0-1.8-2.3-3,.7Z"/>
      <path class="st7" d="M162.3,340c1.4-.5,7.5.8,8.6,1.2v-.9c-5.5-1.6-1.8-5.4-6.5-2.6-1.1.7-3.5,2.3-2.1,2.2Z"/>
      <path class="st0" d="M144,315.7s.5-.9.6.3c2.3-2,4.8-2.9,7.9-4,0-1,.2-1-.4-1.2-.6-.2-11.8,4.2-12.4,4.5-1.2,1.4-8.3,8.3-7.5,7.9,2.6-1.5,5.5-2.7,11.8-7.5Z"/>
      <path class="st7" d="M171,340.3c0,0,0-.2,0-.3-1.7-2-1.8-5.9-4-7.9.2,2.8-.8,2.1-1.3,2.8-.3.6-.5,2-1.3,2.8,4.7-2.8,1,1,6.5,2.6Z"/>
      <path class="st4" d="M138.3,320.4c.8-.4,3.7-2.8,4.9-3.1,0,0,1.6-1.1,2.1-1.7-.8-.5-1.7,0-3,.9-3.2,2.7-6.2,4.5-10.1,6.6s-1.3.4-1.6.4c.9,0,1.6,0,2.5-.5,1.8-.9,4.9-2.5,5.1-2.6Z"/>
      <g>
        <path class="st29" d="M137.3,333c0,.3.4.4.6.5.7.1,1.6,0,1.7,0,0,0,.4,0,1.5-.8,1.8-1.9.5-5.1,2.6-6.5,2.1-1.5.6.5,2.1,4.1l2.4,5.6c3,3.7,2.7,5.7,6.7,6,1.3-3,2-.7,3-.7.4,0,4.8-1.3,2.9-1.9-.6-.2-1.8,2.7-4.3-4,7.3-2.4,9.3-5.6,9.8-5.5,1,.1-1,1.8,3.2,2.3-.5,2.1,1.3,5.5,1.4,8.3,0,0,0,.2,0,.3,0,0,19.5,9,22.1,10.7,2.4-3.4-1.7-9.2-.5-13.2.2-.7-.3-1.2-.2-1.3-1.3-.4-2.5-1.2-3.7-1.9-9-5.2-13.8-12.1-20.3-19.8-2.6.5-3-3.1-3.8-4.8,0,0,0-.1-.3-.3-1.3-1.6-8.8,1-11.9,2.1-3.1,1.1-5.6,2-7.9,4,0,0-.2.2-.3.3-.1.1-1.9,2-2.1,2.2-.6.7-.9.8-.9.8-4,5-2.9,7.7-4,13.7Z"/>
        <g>
          <path class="st29" d="M168.5,314.9c-1.4-1.7-2-3-3.8-4.8.9,1.7,1.3,5.2,3.8,4.8Z"/>
          <path class="st7" d="M146.7,322.8c0,.1-2,2.7-1.9,2.9.7-.6,1.3-1.8,3.4-2.8,5.3-2.5,13.9-5.5,10.8-6.4-1.2,1.7-12,5.7-12.3,6.3Z"/>
          <path class="st0" d="M145.7,330.1c-1.5-3.6,0-5.6-2.1-4.1-.3,1.5,1.4,4.6,2.1,4.1Z"/>
          <path class="st7" d="M153.4,328.1c2.4-.6,6.5-2.3,7.3-3.9-.8.4-9,3.6-9.1,4.5,0,.1-.2,1.7,0,2.4,0,0,2.3,7.7,3,8.7s1.4,1.2,1.4,1.2c0,0,.3-.2-.2-.7s-.8-1.1-.9-1.4c-.6-1.7-1.4-3.8-1.8-4.5s-.4-2-1.1-3.3c.1-.8.2-2.6,1.5-2.9Z"/>
        </g>
      </g>
      <path class="st7" d="M165.7,334.9c.4-.8,1.5,0,1.3-2.8-2.9.9-7.7,1.5-7.9,4.7.4.7,6.1-4.7,6.7-1.9Z"/>
    </g>
  </g>
</svg>