<?xml version="1.0" encoding="UTF-8"?>
<svg id="Layer_1" xmlns="http://www.w3.org/2000/svg" version="1.1" viewBox="0 0 310 491">
    <style>
      .st0 {
        fill: #1e131b;
      }

      .st1 {
        fill: #bfe4e7;
      }

      .st2 {
        fill: #8e3327;
      }

      .st3 {
        fill: #c45f41;
      }

      .st4 {
        fill: #c05e58;
      }

      .st5 {
        fill: #c98028;
      }

      .st6 {
        fill: #232323;
      }

      .st7 {
        fill: #facf38;
      }

      .st8 {
        fill: #8e3226;
      }

      .st9 {
        fill: #a34737;
      }

      .st10 {
        fill: #dea525;
      }

      .st11 {
        fill: #b14f3d;
      }

      .st12 {
        fill: #ec9927;
      }

      .st13 {
        fill: #fef593;
      }

      .st14 {
        fill: #c35f41;
      }

      .st15 {
        fill: #141114;
      }

      .st16 {
        fill: #f8edf9;
      }

      .st17 {
        fill: #dcb5d8;
      }

      .st18 {
        fill: #a66bb7;
      }

      .st19 {
        fill: #feecbb;
      }

      .st20 {
        fill: #65256a;
      }

      .st21 {
        fill: #b56724;
      }

      .st22 {
        fill: #c085b9;
      }

      .st23 {
        fill: #fbbb29;
      }

      .st24, .st25 {
        fill: #8bd2d9;
      }

      .st26 {
        fill: #c386c3;
      }

      .st27 {
        fill: #e5bb8f;
      }

      .st28 {
        fill: #e6794d;
      }

      .st29 {
        fill: #a15d26;
      }

      .st30 {
        fill: #4b131e;
      }

      .st31 {
        fill: #e5d4e8;
      }

      .st32 {
        fill: #c12e4c;
      }

      .st33 {
        fill: #24130c;
      }

      .st34 {
        opacity: .8;
      }

      .st35 {
        fill: #944298;
      }

      .st36 {
        fill: #2e653d;
      }

      .st37 {
        fill: #e6f4f7;
      }

      .st38 {
        fill: #d43a5c;
      }

      .st39 {
        fill: #f6d475;
      }

      .st40 {
        fill: #fafbfd;
      }

      .st41 {
        fill: #ffe286;
      }

      .st42 {
        fill: #fece4b;
      }

      .st43 {
        fill: #e67a4d;
      }

      .st44 {
        fill: #353535;
      }

      .st45 {
        fill: #e7a627;
      }

      .st46 {
        display: none;
      }

      .st47 {
        fill: #070407;
      }

      .st48 {
        fill: #a0a0a1;
      }

      .st25 {
        opacity: .2;
      }

      .st49 {
        fill: #1d121b;
      }

      .st50 {
        fill: #4f180e;
      }

      .st51 {
        fill: #ef925d;
      }
    </style>
  </defs>
  <path class="st28" d="M101.8,250.1c-4.9,14.8-3.9,25.3-3.7,32.7.4,20.2,10.6,90.6,10.6,90.6l39.9.7-21.5-88.2s-21.8-46.1-25.2-35.7Z"/>
  <path class="st14" d="M121.5,321.6l19-2.2v23.5l-20,34.5s-14.6-24.3-15.5-32.8,14.3,4.7,14.3,4.7c0,0,14.7-7.4,2.2-27.7Z"/>
  <path class="st47" d="M282.8,111.5c-.1-.4-11.1,3.8-12.9,2.9-.9-.5-6.6-4.9-6.5-5.6,4.6-2.6,10.8,1.3,14.9-1.7.4-.9-6-.8-7-1-7.7-1.4-16.8-5.6-23.4-9.9,0-1,19.1-.2,20.8-.4,2.2-.3,3.2-1.8,3.6-2,1.7-.7,4.6-1.5,6.3-.9l-.6-3.4c-1.5,2.3-5.8,1.6-8,2.3-1.9-.8-5.3,0-7.9-.3-7.5-.7-15-1.9-21.9-5,9.4-4.3,22.6-1.2,29.3-10.8-1.4.2-3.7,1.4-5.3,1.7-9.3,1.7-18.9,2.4-28.2.7,4.7-1.5,9.8-2.1,14.5-3.9,2.2-.8,16.9-8.2,17.1-9.6,0-.3-1.4-2-1.3-2.7-9.4,5.5-20.1,9.6-31,11.2-2.4.4-5.5.7-7.9.4,7.4-2.5,14.8-6.3,20.8-11.3,1.7-1.4,3.2-3.5,4.7-4.9-7.1,2.9-13.7,7.1-20.8,10-4.8,1.9-9.7,3.4-14.6,4.9l25.5-20.4c-9.6,6.7-19.6,13.3-30.8,16.8,9.7-9.1,20.1-18,27.1-29.4-9.3,10.8-21.1,19-33,26.7,5.7-9.1,14.2-18.5,18.5-28.2.2-.5.8-1.2.1-1.6-6.4,11.8-15.5,21.6-27,28.7,7.4-11.3,12.6-23.5,17.6-36,.6-1.4.9-4.1,1.4-5.3-6.9,13.6-13.2,29.1-24.9,39.1,2-8.1,5.8-15.7,8-23.8,2.1-7.4,3.1-20.8,5.7-27,1.5-3.5,6-4.7,9.5-3.6-2.8-2.1-7.9-1.3-9.8,1.7-2.9,4.7-5.6,22.4-8,29.4-2.7,7.8-6.8,15.1-9.6,22.8,1.3-7.5,2.5-15.2,3.3-22.8.7-7,.7-28.5,3.7-33.3.3-.4,1.5-.6,1.1-1-2,.7-2.6,1.6-4,3.2,1,5.4-1.3,22.1-2,28.5-1,9-2.2,18-4.2,26.8l-5.3-37.4,2.4,35.1c-4.1-9.8-9.9-20.6-11-31.4-.3-3.2-.4-12.9.3-15.8.8-3.1,3.3-3.7,6-3.9-4.9-7.7-14.8-4.7-14.3,3.4.3,5.4,4.7,19.5,6.6,25.1,2.6,7.9,6.4,15.4,9.2,23.2-.4.4-.7,0-1-.1-5.4-3-17.9-22.9-21.1-29-.5.5.4,2.2.6,2.7,4.5,10,9.5,20,15.6,29.1-10.3-5.7-18.6-14.1-26.2-22.9,5.7,8.2,11.5,16.2,17.6,24.1-13.2-8.3-26.1-17.5-35.8-29.8,7.9,12.6,19.4,22.9,30.8,32.3.1.8-.6.3-.9.3-2-.2-10.8-4.6-13-5.9-5.7-3.2-10.6-7.7-16.8-10,3.1,2.8,6.1,5.6,9.3,8.3l14.6,10.9c-11.7-3-22.3-8.7-33.1-13.8,1.5,1.2,3.1,3.3,4.7,4.6,5.9,4.7,12.9,7.9,19.8,10.9-12-.9-26.9-4.1-37-10.9,0,0-.3.4-.4.3l-.6,1.7c4.6,4.1,8.2,6.5,14.2,8.9,5.1,2,10.6,2.9,15.9,4.4-9.9,1.5-21.8,1.6-31.3-1.9,5.9,9,18.1,6.3,27,9.9-7.9,4-19.2,6-28.1,5.6-2.1,0-5.3-.2-6.9-1.7l-.6,3.2c2.3-.8,3.4-.3,5.3.6.3.1.5-.4.7-.3,0,0-.2.8.4,1.1,5.8,2.9,14.9-.1,21.4,1.6-8.2,5.7-17.8,9.9-27.8,10.6-1.4,3.4,12.1,0,13.2,2-3.4,4.2-8,7.9-13.6,7.9-1.4,10.6,4,2.3,6.9,2,4.8-.4,2.2,5.9,1,8.2-.7,1.3-4,4.6-4,4.9,0,.4,2.1,1.7,2.3,2.6.7,3-2.3,4.9-2.3,5.2,0,.2,2.3,1.5,2.6,2.9.6,2.9-1.1,6.4-3.2,8.3,4.7,1.2,2.2,1,2,2.6-.6,4.7.1,7.8-4.9,10.6,7.2-.4,4.8,6.7,1.1,9.8,7,0,3.1,8.3-1,9-.6.1-6.7-.2-6.7.1,2,.5,9.3.8,10.3,2.6,1.9,3.2-2.2,8.5-5.7,8.6,12,3.6.7,16.8-7.7,12.2,0,.2,2.5,24.7,1.1,39.7-1.1,11.4,3.7,15.5,14.8,12.7.9-.2,2.8-.3,3-.5,3.5-3,24.4-4.8,29.5-6.5,1.8-.6,29.2-8,30.3-8.1l62.3-14.6c0,.6-.8,2.3-1.1,2.9,1.2,0,9.2,3.4,11.2,4,5.1,1.7,9.9,3.6,14.9,5.4,1,.4,2.1,1,3.2,1.1.9,0,2.8-.4,3.7-.6-3.3.4-4.2-3.3-3.7-5.9.1-.9,1.5-2.2,1.4-2.9,0-.3,9.7,5,8.3,6.5,3.4.2,1.8,5,.6,6.9,0,.3-25,4.2-24.9,4.3,2.3,1.2,44.7,5.7,44.9,3,.9-16.2-1.5-131.2-4.1-142Z"/>
  <g>
    <path class="st51" d="M220.9,109.1l5,23s2.5,3.6,4,3c4.1-1.7,7-9,7-17s-4-14-4-14l-12,5Z"/>
    <g>
      <g id="Background" class="st46">
        <path class="st48" d="M160.9,469.9c-76.7,0-153.4,0-230.1,0V-42.3H443V469.9c-62.9,0-125.7,0-188.6,0q1-6,2-12c4.7-1.7,10.2-4,14.5-6.5,3.4-2,7.1-3.8,8.5-7.8-.6-6.9-2.4-13.6-4-20.3,78.7-56.2,100.3-141,35-218.6.4-.1,3.7,0,8.8-3,11.3-6.9,14-20.6,8.8-32.3,19.7-4.1,26.8-27,11.5-40.5,1.3-4.6,0-9.7-3.5-13,18.1-14.9,14.3-39.9-6.5-49.5,3.4-16.5-13-29.2-28.5-28,4-21.1-13.4-38.6-33.8-28.3-17-18-45.8-26.6-68.5-14.5-20.8-21.1-68.9-14-83,12-16.6-13.3-43.4,1.7-37.8,22.8q-5.9,5.1-11.8,10.3c-15.4,1.6-25.4,19.2-18.3,33.3-16.5,8.4-18.6,31.5-2,41-18.6,4.8-26.8,31.5-8,41.5-3.3,17.4,13.6,21.6,14,23-2.9,8-1.6,15.4,4,21.8-35.1,28.1-51.5,75.3-45,119.3,7.3,49.2,46.1,86.2,86.5,111.3-.7,4.4-1.8,8.7-1.5,13.3,2.5,2.9,4.9,4.7,8,6.8,14.7,9.9,38.1,13.2,55.5,15q.8,1.5,1.5,3Z"/>
      </g>
      <g>
        <g>
          <path class="st15" d="M255.9,109.8c-3.1-1.8-1.7,4.8-11,5.5,0-7.6-1.4-10.5-7-15.8q.4-.4.8-.8c2.3.7,15.4,6.4,16,7,.9,1,.8,2.4,1.3,4Z"/>
          <path class="st15" d="M255.9,109.8c.5,1.8.2,4.9,1,5.5-1.1.3-8.9,8-12.5,7.5.5-2.2.5-5.2.5-7.5,9.3-.7,7.9-7.3,11-5.5Z"/>
        </g>
        <g>
          <g>
            <g>
              <path class="st2" d="M207.9,194.3c-9.1,11.6-21.8,20.5-36,24.5-2.4-3.1-5.4-6-6-10-.5-2.9.2-7.9.5-11,0-.7.1-.9.5-1.5,12.4,2.2,27.7-5.1,38.5-11,1.2,2.9,1.7,6,2.5,9Z"/>
              <path class="st43" d="M209.9,199.8c.4,2.1.7,4.2,1,6.3-7.3,8.7-18.3,15.1-29,18.8-2.5.8-1.9,1-2,1-.7.2-.4.7-2.5-.5-.3-.2-1.3-.8-1.5-1-.3-.2-3.4-4.7-4-5.5,14.2-4,26.9-12.9,36-24.5.7,2.4,1.9,5.2,2,5.5Z"/>
            </g>
            <path class="st43" d="M233.9,155.8c-6.4,16.8-49,37.4-61.3,37-15.6-.5-46.6-25.9-50.3-42.3,5.5,1.1,11.2,1.2,16.5-.3.6.9,3,3,6.5,8.5,7,11,11.2,22.4,27,20.5,12.7-1.5,15.7-10.1,19.5-14.5,3.2-3.7,6.8-7.3,10-11,3.6.9,7.6,1.5,11.3,1,2.1-.3,11.8-4.1,10.8-6,2.3-1.1,8.3-5.6,10-7.5,2,4.5,1.8,9.8,0,14.5Z"/>
            <path class="st4" d="M223.9,148.8c1.1,1.9-8.6,5.7-10.8,6-3.6.5-7.7-.1-11.3-1,.4-.5.6-1.4,1-2,6.8,1.4,14.8,0,21-3Z"/>
            <g>
              <path class="st43" d="M231.4,164.8c-1.7-1.6,4.7-6.1,2.5-9,1.8-4.7,2-10,0-14.5,1.7-1.8,5.9-9.8,7-12.2.6-1.3,3.4-5.6,3.6-6.3,3.6.5,11.4-7.2,12.5-7.5,11.7-2.8,17.1,19,3.3,30.5-10.8,9-16.5-2.4-23.3,7.8-.3.5-.9,4.7-5.5,11.3Z"/>
              <path class="st9" d="M258.9,134.3c1.9,7-4.8,7.9-7.3,6.5-2.5-1.4-3.7-10.3-2.3-13.5,4.2,1.8,8.6,10.7,9.5,7Z"/>
              <path class="st50" d="M258.9,134.3c-.9,3.7-5.3-5.3-9.5-7,2-4.5,16.9-7.5,14.3,4.5-1.4-9.8-9.5-5.7-9.8-4.8-.2.8,4.1,4.1,5,7.3Z"/>
            </g>
            <path class="st51" d="M200.9,152.3c-1.7.4-3.3,2-5.5,2.5-19,4.1-34.9,5.3-52.5-4.5-1-.5-2-1-3-1.5,14.5-3,25.1-19.2,24.8-33.5,21.2-1.9,7.5,3.4,18.3,22.8,4.4,8,10.1,10.7,18,14.3Z"/>
            <g>
              <path class="st30" d="M139.9,148.8c1,.5,2,1,3,1.5,2.3,3.6,7.4,6.7,11,10,.2.2,1,2.6,2.5,4.3.7.7,1.7,1.2,2.5,1.8-3.9,1.9-9.8-5.6-13.5-7.5-3.5-5.5-5.9-7.6-6.5-8.5,0,0,0-.7-.5-1.5.5,0,1,0,1.5,0Z"/>
              <path class="st30" d="M202.9,151.8c-.4.6-.6,1.5-1,2-3.2,3.7-6.8,7.3-10,11-1.5.2-6.1,1.2-7,1.5,2.3-2.6,4.7-5,7-7.5,1.2-1.2,2.7-2.5,3.5-4,2.2-.5,3.8-2.1,5.5-2.5l2-.5Z"/>
              <path class="st38" d="M191.9,164.8c-3.8,4.4-6.8,13-19.5,14.5-9.5-.5-18.3-11.2-13-12.5,11.9,7.1,20.2,1.4,25.5-.5.9-.3,5.5-1.3,7-1.5Z"/>
              <path class="st32" d="M158.9,166.3c.6.4.5.5.5.5-5.3,1.3,3.5,12,13,12.5-15.9,1.9-20-9.5-27-20.5,3.7,1.9,9.6,9.4,13.5,7.5Z"/>
              <path class="st32" d="M195.4,154.8c-.8,1.5-2.3,2.8-3.5,4-12.3,4.4-25.5,5.6-38,1.5-3.6-3.3-8.7-6.4-11-10,17.6,9.8,33.5,8.6,52.5,4.5Z"/>
              <path class="st40" d="M191.9,158.8c-2.3,2.5-4.7,4.9-7,7.5-5.3,1.9-13.7,7.6-25.5.5,0,0,0-.1-.5-.5-.8-.6-1.8-1.1-2.5-1.8-1.5-1.6-2.3-4.1-2.5-4.3,12.5,4.1,25.8,2.9,38-1.5Z"/>
            </g>
          </g>
          <g>
            <g>
              <path class="st40" d="M216.9,127.3c1.8-1.9,1-1.5,1.5-3.5,0-.4,0-1,0-1.5,0-.1,1.3-.4,0-3,3,.6,7,4.5,7,6.5,0,7.3-19.7,8.4-28.3,1-4.3-3.7-.8-2.3.8-3.5,3.3-2.4,5.5-8.7,15.3-7,5.3.9-3.6,0-5.8,3.8-4,7.3,4.3,12.9,9.5,7.3Z"/>
              <path class="st37" d="M218.4,119.3c1.3,2.6,0,2.9,0,3q-.8.8-1.5,1.5c-6.6,1.4-5-5.9,1.5-4.5Z"/>
              <path class="st24" d="M218.4,123.8c-.5,2,.3,1.6-1.5,3.5-3-1.7,0-1.5.5-3.5h1Z"/>
              <path class="st36" d="M218.4,123.8h-1c-.2,0-.3,0-.5,0q.8-.8,1.5-1.5c0,.5,0,1.1,0,1.5Z"/>
            </g>
            <g>
              <path class="st0" d="M129.8,95.1c-6.8,8.7-8.2,31.1-8,30,.5.8-4.6,20.7-5,20-4-7-10-22-2-38,1.9-3.9,9.4-11.7,15-12Z"/>
              <path class="st51" d="M233.9,130.8c4.8-11-8.3-5-8.5-5,0,7.3-19.7,8.4-28.3,1-4.3-3.7-.8-2.3.8-3.5-.6-4.6,3.2-8.1,7-10.2,1.8-1,6-1,9-1s7,3,9.6,5.7c.8,1,14-18.9,14.3-19,.2,0,1.8-4,1.8-4.8-.2-1.8-5.8-6.5-7-8.5-2.9-4.7-3.8-11.1-6.5-16-6.9-12.4-15.1-9-23-18-.4-.5-19.8,10.2-42.8-2.8-6.7,9.7-12.1,6-17.8,8.5-8.6,10.8-21.6,44.5-21.5,44.2-1,4-3.1,9-3.1,13.6-.5,3.7-.6,13-1,14-4,9-1,19,0,21,.1.3,14.7-.3,21.6-1.3.5,0,1,0,1.5,0,14.5-3,25.1-19.2,24.8-33.5,21.2-1.9,7.5,3.4,18.3,22.8,4.4,8,10.1,10.7,18,14.3l2-.5c6.8,1.4,14.8,0,21-3,2.3-1.1,8.3-5.6,10-7.5,1.7-1.8,6.9-10.1,8-12.5-6.3,5.7-1.2-8.6-8,2ZM156.4,119.8c-1.9-.4-.6,3.1-1,3.8-.9,1.3-3.3-1.6-4,1.3,0,.6.1,1.6,0,2,5,1.1-4,12-5.8,12-1.4,0-2.7-5-7-4.5-2,.2-10.5-1.6-15.4-9,.5-2.8,1-7.6,1.1-8,.1-.3-.2-1.6.5-2.8,4.3-7.5,20.8-9.1,28.5-8.8,2.1,4,3.2,9.5,3,14ZM204.5,85.8c-1.2,0-2.4,0-3.5.2,1.1-.1,2.3-.2,3.5-.2ZM194.7,87.5c-.5.2-1,.5-1.3.8.4-.3.8-.6,1.3-.8Z"/>
              <path class="st40" d="M141.4,116.8c-16.7,4,1.1,19.8,5,7.5.6-2,.6-3.5.5-5.5.5,0,3.4,2.9,4,4.5,0,.3.5,1.4.5,1.5,0,.3,0,.6,0,1s0,.8,0,1c-1.7,5.9-18.6,5.3-25.5,3-2.4-.8-2.8-3.5-2.5-5.5.9-6.8,16.1-10.5,18-7.5Z"/>
              <path class="st43" d="M153.4,105.8c-7.7-.3-24.2,1.3-28.5,8.8-.7,1.2-.4,2.4-.5,2.8,6.8-9.9,27.7-7.3,26.5,6,0,.2.9,1.7,0,4.5-3.3,4.8-19.2,3.6-25.1,2-.4-.1-2.7-1.1-1.5.5,3.4,4.8,11.7,7.1,14.5,7.8,4,1,5.4,1.2,6.8.7,8.2-2.7,10.2-14.7,10.8-19,.5-3.6-.9-10-3-14Z"/>
              <path class="st1" d="M146.4,124.3c-2.2,2.7-4.9,1.4-3.5-2,2-.5,2.9-3.5,4-3.5,0,2,.1,3.5-.5,5.5Z"/>
            </g>
          </g>
        </g>
      </g>
    </g>
    <path class="st15" d="M120.8,131.1"/>
    <path class="st14" d="M117.8,140.1c5,5.2,13.7,9.7,20.6,8.7.6.8.5,1.4.5,1.5-5.3,1.5-11,1.4-16.5.3,3.7,16.4,34.7,41.8,50.3,42.3,12.3.4,54.9-20.2,61.3-37,2.2,2.9-4.2,7.4-2.5,9-6.2,8.9-16.6,15.4-26,20.5-10.9,5.9-26.1,13.2-38.5,11-7.7-1.4-28.1-14-34.3-19.5-9.8-8.7-17.9-23.6-17.8-37.7,0,0,2.9,1,3,1Z"/>
    <path class="st14" d="M129.9,90.8c-1.7.9-7.5,10.1-9.1,11.3,1.1-9.4,11-42,21.6-44.8,7.9-2.1,29.9-4.3,24.8,1.8-.7.9-18.2-.3-27.3,7.2s-6,9-8,15.3c-.9,2.9-.9,6.3-2,9.3Z"/>
    <g>
      <path class="st43" d="M168.9,149.3c-4.1-.2-7.8-2.9-10.5-5.5-1.9-10.3,3.4-.9,5.8.5,6.2,3.7,18-.3,4.8,5Z"/>
      <path class="st50" d="M158.4,143.8c2.7,2.6,6.4,5.3,10.5,5.5,3.7.2,14.5-5.7,8.8-1-10.8,8.8-26.9-6.9-21-7,.5,0,.4,1.2,1.8,2.5Z"/>
    </g>
    <path class="st43" d="M202.9,98.8c3-.3.8.7-3.1,2.3-6.1,2.5-10,7-7,20.5.1.5-.4.4-.8.8q-4.6-1.5-9.3-3c-.4-15.9,6-19.2,20-20.5Z"/>
    <path class="st14" d="M256.9,144.1l1,2c1,2-3,3-3,3-1.2.4-2,1-3,0l1-5c1-2,3.7-.5,4,0Z"/>
    <path class="st43" d="M239.9,94.1c-.2-3.9-4.1-3.8-7-8-2.4-3.5-3.9-11.5-4-12-3-10-12-14-12-14,0,0-35.2-1.6-35.7,0s-12.8,2.8-11.1,4.3c3.9,3.4,8.9,2.5,11,1.9s2-1,2.6-1.5c1.3-1.1,2.8-3.5,2.8-3.5,7.8,2,23.7,5.3,30.8,7,11.7,2.8,11.4,19.2,8.7,31.8-.6-.1-4.1-2.2-5-2.3-5.5.7-1.1,1.7,1.5,6.3,3.4,6,5.2,13.4,3.5,20.3,0,.3,0,1.8,0,1.8,0,0-1,2.2-2,3-5,4-14.9,2.9-18,2-2-.5-5-2-5-2,0,0,3,9,20,9s14.4-12.9,15-16c.9-4.5,0-10-3-16-.1-.2,7.1-10.1,7-12Z"/>
    <g>
      <path d="M119.8,103.5c0,.3.5,0,1-.4,6-4,9-6,11-7,4-2,6.6-2.1,7-2.1,3.7-1.2,17.6,3.6,12.8-3.8-4.5-6.7-17.1-1.6-22.5,1.3-1.7.9-9.3,7.6-9.3,12.1Z"/>
      <path d="M220.1,98.5c.6.6.8-2.4.3-4-4.1-10.9-27.4-9-28.8-4.3-2,7.1,10.4,1.2,21.5,4,2.8.9,3.8.9,7,4.3Z"/>
    </g>
    <path class="st14" d="M226.3,115.1c0,.3-.4.6-.5.4-4-7.3-17.2-9.1-22.3-6.7-3.1,1.5,7.5-8.2,17.3-3.6,4.9,2.3,5.2,7.9,5.5,10Z"/>
    <path class="st33" d="M232.7,118.9c-4.4,1.3-7.2.8-8.8-.8-.4-.4-.8-.7-1.1-1.1-6.9-9.9-25.9-4.9-24.9,6.3,3.3-2.4,5.5-8.7,15.3-7,5.3.9-3.6,0-5.8,3.8-4,7.3,4.3,12.9,9.5,7.3-3-1.7,0-1.5.5-3.5-.2,0-.3,0-.5,0-6.6,1.4-5-5.9,1.5-4.5,3,.6,7,4.5,7,6.5.4,1.3-.6,2.4-.6,2.3,1-1,2-3,1-3.7,2.3,0,6.7-5.5,6.7-5.5Z"/>
    <path class="st14" d="M123.8,116.1s4.3-5.6,8-7c5.6-2.2,19-4,22-3s-11.7-4.6-21.2-1c-1.3.5-3.5,1.7-4.8,3-4,4-4,8-4,8Z"/>
    <path class="st33" d="M125,116.5h0c-3.2,2.7-7.4.4-7.4.4,0,0,1.4,3.6,4.7,4.3.1,0,.3,0,.5.1,0,1.8,0,2.3.6,3,.9-6.8,16.1-10.5,18-7.5.1.1.2.2.3.3.2.3.2.4,0,.5.2,0,.2-.2,0-.5,0,0-.2-.2-.3-.3-16.7,4,1.1,19.8,5,7.5-2.2,2.7-4.9,1.4-3.5-2-.9-.3-1.5-.5-2.1-.7.5.2,1.2.4,2.1.7,2-.5,2.9-3.5,4-3.5.5,0,3.4,2.9,4,4.5,1.2-12.9-18.4-15.7-25.9-6.9Z"/>
    <g>
      <g>
        <path class="st16" d="M249.8,317.9s2-1.3,2-1c.8.2,24.1-24.1,27-32,.8-2.1,5-16,3.6-22.2-2.2-8.6-5.3-16.9-11.1-23.7-11.1-13.1-23.1-9.9-32-12.8-2.1,4.4-4.6,8.7-7.5,12.5-1.8,6.5-89.1-11.4-91.8-13-.7-.4-2.2-.6-3.3-1-7.5.6-11.2.9-18.3,5-10.2,5.9-5.8,46.2,1.2,52.2,1.9,1.6,3.8-.9,4.9-2.9-3.3,7.7-9.2,19.8-7.9,29.9,1.4,11.4,6.9,18,11,21,2.7,2.1,9,4,9,4,0,0,5,5.2-1,15-2.4,4-10,14.2-19,37.3-4.9,19.1-1.9,27.5,8.9,74.9.5,2.1,115.3,17.5,127.9,9.2,11.2-7.4,17.5-17.5,20.1-21.3-2.2-15.6-8-29.7-12.3-44.8-3.2-11.3-6.5-22.5-12-33-7.4-5.9-5.1-31.1-4-43l4.4-10.3Z"/>
        <path class="st20" d="M245.8,321.9c0,0,0,.1,0,.2,0-.2,0-.2,0-.2Z"/>
        <path class="st20" d="M245.9,322.2c0,.2,0,.6,0,1.1.1-.5.1-.8,0-1.1Z"/>
      </g>
      <path class="st35" d="M112.6,318"/>
      <path class="st31" d="M142.6,335.4c5,0,10-3,10-3-6,3-16,1.7-16,1.7,0,0,1.1,1.8,1,5-.1,3.3-1.5,8.1-4,12.3-4,7-7.1,12.9-9.6,17.9-2.8,4.8-4.9,10.2-6.1,13.6-.9,2.3-1.3,3.5-1.3,3.5-4.9,19.1,2,44.2,2,44.2,0,0-8.3-22.9,5.8-43.4s18.2-51.8,18.2-51.8Z"/>
      <path class="st35" d="M112.7,317.9"/>
      <path class="st20" d="M111.7,273.9s7,3,13-1c6.1-4.1-3,13-3,13,0,0-6.1-5.3-10-12Z"/>
      <path class="st31" d="M249.2,369.4c-4.9-7-4.7-26.6-3.5-39.5,2.3-3,4.3-6.8,5-10.2,1-3.6.4-15.8-2.8-24.8-1.6.2,4.6,12.7-.8,23.9-2.1,3-4.9,6.9-9.4,9.9-2.2,1.3-4.8,2.6-7.9,3.6-5.9,1.6-13.8,1.7-24.2-1.3.6.2,35.3,40.1,43,56,7.5,15.5,21.4,66,19,70.3.5-.1,4.2-5.6,6-8.3s-2.7-48.6-24.5-79.7Z"/>
    </g>
  </g>
  <g>
    <path class="st43" d="M136.8,224.7c-7.5.6-11.2.9-18.3,5-10.2,5.9-21.1,27.1-18.4,32.3,3.5,6.9,12.7,13.9,19.7,19.9,1.9,1.6,2.5-1.8,4.9-2.9,3.4-2.6,11-50.1,11-50.1l1.1-4.2Z"/>
    <path class="st14" d="M111.7,273.9s7,3,13-1c6.1-4.1-3,13-3,13,0,0-6.1-5.3-10-12Z"/>
  </g>
  <path class="st17" d="M145.2,285.9"/>
  <path class="st43" d="M282.6,262.6c-2.2-8.6-5.3-16.9-11.1-23.7-11.1-13.1-23.4-10.1-32.4-12.9-2.1,4.4-5.2,12.7-15,22.5,2.6,2.8,15-22.5,15-22.5l6.1,1.2s-13.7,34.8-5.9,48.2c4.4,7.6,7,14.8,7.4,16.5.4.9.7,1.9,1,2.9,1,2.2,4.2,13.9,3.4,22.6,1-.4,1.9-1.3,3.1-2.5,6.1-5.9,22.3-23.6,24.7-30.1.8-2.1,5-16,3.6-22.2Z"/>
  <g>
    <path class="st43" d="M136.6,224.8c-7.5.6-11.2.9-18.3,5-10.2,5.9-19.4,22.5-18.3,28.3,2.5,12.7,21.5,27.9,21.5,27.9,0,0,1.6-4.6,2.9-6.9,3.4-2.6,11-50.1,11-50.1l1.1-4.2Z"/>
    <path class="st14" d="M119.7,256.6l6.9,17.5c.2.5-1.7,5.1-2.3,6.5l-2.7,5.3s2-22.6-1.9-29.3Z"/>
  </g>
  <g>
    <g class="st34">
      <g>
        <path class="st17" d="M165.1,269.2c-9-4.3-20.3-15.1-21.9-20-3.2-9.7-3-12.3.4-23.4s.3-.4.4-.6c-3.7-1.1-6.9-3.1-12-.1,0,24.4-1.1,12.1-2,.2-5.9-1-6.9.4-10.5,3.9-6.1-2.3-4.5,2.8-4.7,3,1.3,10.8,4.9,27.2,10,38.1,3.8,8,16.5,31.9,34.8,31.9,2.6-7.1.8-27.1,5.5-32.9Z"/>
        <path class="st26" d="M132.1,225.1c-.7,20.7.4,26.5,13.2,42.9-16.4-17.1-14.5-27.4-15.2-42.6,0,0,.5-.4,2-.2Z"/>
        <path class="st26" d="M166,266.2c-18.6-8.5-25.9-27.5-23.2-41-8.2,22.7,9.5,39.7,21,45,0,0,1.2-3.3,2.2-4Z"/>
      </g>
      <g>
        <path class="st17" d="M263.4,232.2c-.2-4.2-7.7-5.4-11.7-3.9-12.7,13-12.4,13.4,0,0-2.4-4.6-5.1-4.6-12.7-2.4,0,.8-.3,1.8-.5,2.7-2.5,14.5-20.1,30.4-34.6,37.1-11.5,5.3-26.9,3.5-39.7,3.6-2.9,7.8-4,25.1-4.6,32.9,19,2.5,47.1-7.3,69.7-23.4,9.1-6.5,18.4-18.7,28.7-29.3,4.7-4.8,13.1-13.2,10.8-15.3-.5-.5-.5-1.9-5.3-2Z"/>
        <path class="st26" d="M252.6,228c-11.1,14.4-20.4,28.8-42.7,44,20.9-14.3,30.6-29.7,41.3-44.5,1,.3,1.3.4,1.3.5Z"/>
        <path class="st26" d="M230.3,241c-15.2,19.6-39.5,25.3-65.2,24.8-.2,1.3-1.6,2.9-1.8,4.3,16,5.9,29,.9,40.5-4.4,14.5-6.7,33.2-22.9,35.5-39.5-2.1,4.6-5.9,10.7-9,14.7Z"/>
      </g>
      <path class="st26" d="M130,264.3c3.3,11.7,12.2,21.9,24,25.2,22.1,6,46.8-6.7,66-16.8-15,9.8-31.4,18.5-49.6,20.2-19.8,2-36.3-8.8-40.4-28.6h0Z"/>
    </g>
    <g>
      <path class="st22" d="M165.1,259.9"/>
      <path class="st42" d="M208.8,197.1c.4,2.1,1.7,5.9,2,8-2.9,3.4-18.5,18.2-28.8,17.3s-14-12.4-14.4-15c-.5-2.9-1.1-7.7-.8-10.8-4,3.4-5.6,8.4-8.5,12.5-4.3,6.1-9,12-15.5,16-.3,4.6,0,9.4.7,13.8.6,3.9,9.1,24.8,29.9,27.4,20.4,2.5,38.4-9.5,48.1-16.9,3-2.2,8.5-8.4,10.3-10.8,2.9-3.9,5.4-8.1,7.5-12.5-19.5-16.5-24.8-28.4-30.5-29Z"/>
      <path class="st13" d="M149.1,233.6c16.1,48.4,66.1,21.7,82.1-14.9,1.1-2.4-1.4-2.6-1.8-1.7-12.7,29-62.7,57.9-78.1,15.2-.6-2-2.5-9.9-1.9-12.3-4.1-2.5-1.6,8.8-.4,13.8Z"/>
      <path class="st13" d="M142.8,224.8c-.2,5.7.3,11.7,2.3,17,4,10.4,12.5,19.9,23.4,23.2,16.7,4.9,34.6-3.4,48.1-12.9,4.6-3.5,8.8-7.4,12.5-11.8,3.9-4.3,7.5-8.9,10.1-14.1-4,11.2-12,20.5-21.5,27.5-14,9.9-32.6,18.3-49.9,13.2-11.6-3.5-20.5-13.3-24.7-24.4-1.6-5.8-1.4-11.8-.4-17.6h0Z"/>
      <path class="st13" d="M151.4,218.3c7.2,51.9,59.5,26.2,75.9-3.9,1.4-2.3-1.5-3.2-1.9-2.2-15.4,26-65,50.2-72.4,4.2,0,0-1.5-.3-1.5,1.9Z"/>
      <path class="st10" d="M173.3,228c-.8,3-1.9,7.5-.4,9.4,1.5,2,2.6,3.9,5.3,3,1.9-.7,5.3-6,6.5-9.5.4-1.2.6-5.3-.5-6.4-3.1-3.2-5.7-3.5-7.4-2.2-5,3.7-2.9,3.6-3.5,5.7Z"/>
      <g>
        <path class="st1" d="M173,226.9c-.8,3-1.9,7.5-.6,9.4,1.3,1.9,2.3,3.8,4.8,2.8,1.7-.7,4.9-6,6.1-9.5.4-1.2.7-5.2-.3-6.4-2.8-3.1-5.1-3.4-6.7-2.1-4.6,3.8-2.8,3.7-3.3,5.8Z"/>
        <path class="st24" d="M171.8,227.8c-.7,4.3-1.1,7.4.7,8.4,4.8,2.8,2.9-4,8.8-5.7,2.3-.6,2.2-4.7,1.5-6-4.2-7.7-10.3-1-11,3.2Z"/>
      </g>
      <path class="st13" d="M154.7,220.1c1.2-.2,2-1,2.8-1.9s1.9-2.1,2.8-3.3c1.7-2.2,3.3-4.6,4.9-6.9s-.5-1-.9-.5c-1.5,2.2-3,4.4-4.6,6.5s-1.6,2.1-2.5,3-1.6,1.9-2.8,2.1-.4,1.1.3,1h0Z"/>
      <path class="st13" d="M156.8,224.2c2.2-1.7,4.1-3.5,5.9-5.6s1.6-2.1,2.4-3.1,1.3-2.4,2.5-3,0-1.2-.5-.9c-1.1.5-1.7,1.6-2.3,2.6s-1.6,2.3-2.4,3.4c-1.7,2.1-3.7,4.1-5.9,5.8s0,1.3.5.9h0Z"/>
      <path class="st13" d="M159.7,229.5c3.7-3.9,6.4-8.9,10.9-12s0-1.2-.5-.9c-4.6,3.2-7.4,8.1-11.1,12.2s.3,1.2.7.7h0Z"/>
      <path class="st13" d="M164.5,234.8c1.5-5.4,4.8-10.2,9.1-13.8s-.2-1.1-.7-.7c-4.4,3.7-7.8,8.7-9.3,14.3s.8.9,1,.3h0Z"/>
      <path class="st13" d="M168.8,236.3c.4-1.2.9-2.3,1.6-3.4s0-.6-.2-.7-.5,0-.7.2c-.7,1.1-1.3,2.3-1.7,3.6s0,.5.3.6.5,0,.6-.3h0Z"/>
      <path class="st13" d="M184.2,234.2c.3,1.7.4,3.4.4,5.2s1,.6,1,0c0-1.8,0-3.6-.4-5.4s-.4-.4-.6-.3-.4.3-.3.6h0Z"/>
      <path class="st13" d="M188.1,224.6c.6,4.2,1.3,8.4,1.9,12.6s1.1.4,1-.3c-.6-4.2-1.3-8.4-1.9-12.6s-1.1-.4-1,.3h0Z"/>
      <path class="st13" d="M191.8,223.5c2.2,3.3,4.2,6.6,6.2,10.1s1.2,0,.9-.5c-2-3.4-4-6.8-6.2-10.1s-1.2,0-.9.5h0Z"/>
      <path class="st13" d="M197.3,220.4c3.4,2.2,5.7,5.5,8.5,8.3s1.2-.3.7-.7c-2.9-2.9-5.3-6.2-8.7-8.4s-1,.5-.5.9h0Z"/>
      <path class="st13" d="M203.3,216.9c1.4,1,2.6,2.4,3.7,3.7s2.6,2.9,3.9,4.3,1.1-.2.7-.7c-1.3-1.5-2.6-2.9-4-4.4s-2.4-2.7-3.8-3.7-1,.5-.5.9h0Z"/>
      <path class="st13" d="M208.3,212.8c3,1.6,5.8,3.6,8.2,6s1.2-.3.7-.7c-2.5-2.4-5.4-4.5-8.4-6.2s-1.1.6-.5.9h0Z"/>
      <path class="st13" d="M212,206.7c3.2,1.1,5.5,3.8,8.7,4.8s.9-.8.3-1c-3.2-1-5.5-3.7-8.7-4.8s-.9.8-.3,1h0Z"/>
      <path class="st13" d="M174.5,260.4c0,.8-.2,1.7-.4,2.4s-.4,1.7-.6,2.5.8.9,1,.3.4-1.7.7-2.6.5-1.7.4-2.6-.2-.5-.5-.5-.5.2-.5.5h0Z"/>
      <path class="st13" d="M178.8,260.7v4.3c0,.6,1,.6,1,0v-4.3c0-.6-1-.6-1,0h0Z"/>
      <path class="st13" d="M182.7,260.4c.2,1.1.3,2.3.5,3.4s.4.4.6.3.4-.3.3-.6c-.2-1.1-.3-2.3-.5-3.4s-.4-.4-.6-.3-.4.3-.3.6h0Z"/>
      <path class="st13" d="M186.6,259.8c-.1,1.2,0,2.4.3,3.5s.4.4.6.3.4-.4.3-.6c-.3-1.1-.3-2.2-.2-3.3s-.2-.5-.5-.5-.5.2-.5.5h0Z"/>
      <path class="st13" d="M190,259.2c0,.4.1.8.2,1.2s.3.8.5,1.2c.3.8.6,1.6.9,2.4s.3.4.6.3.4-.4.3-.6c-.3-.8-.6-1.6-.9-2.3s-.3-.7-.4-1.1-.3-.7-.3-1.1c0-.6-1-.6-1,0h0Z"/>
      <path class="st13" d="M193.1,258.2c.4,1.3.8,2.7,1.2,4s.3.4.6.3.4-.4.3-.6c-.4-1.3-.9-2.6-1.2-4s-1.1-.4-1,.3h0Z"/>
      <path class="st13" d="M198.6,260.5c-.1-1.3-.3-2.6-.7-3.9s-1.1-.4-1,.3c.3,1.2.6,2.4.7,3.6s.2.5.5.5.5-.2.5-.5h0Z"/>
      <path class="st13" d="M202,258.5c-.4-1.1-1-2.2-1.6-3.1s-.4-.3-.7-.2-.3.5-.2.7c.6.9,1.1,1.9,1.5,2.9s.3.4.6.3.5-.4.3-.6h0Z"/>
      <path class="st13" d="M202.4,254.5c.8,1.1,1.5,2.2,2.1,3.5s.5.3.7.2.3-.4.2-.7c-.6-1.3-1.3-2.5-2.2-3.7s-.5-.2-.7,0-.2.5,0,.7h0Z"/>
      <path class="st13" d="M205.1,252.5c.8,1.1,1.6,2.2,2.4,3.3s.4.3.7.2.3-.5.2-.7c-.8-1.2-1.6-2.4-2.5-3.5s-.5-.2-.7,0-.2.5,0,.7h0Z"/>
      <path class="st13" d="M208,250.6c1,1.1,1.9,2.3,2.6,3.6s.5.3.7.2.3-.4.2-.7c-.7-1.4-1.6-2.7-2.7-3.8s-1.2.2-.7.7h0Z"/>
      <path class="st13" d="M210.6,248.5c1.3,1.3,2.5,2.6,3.5,4.1s1.2,0,.9-.5c-1-1.6-2.3-3-3.6-4.3s-1.2.2-.7.7h0Z"/>
      <path class="st13" d="M212.7,246.4c1.4.9,2.4,2.4,3.3,3.8s.4.3.7.2.3-.5.2-.7c-1-1.5-2.1-3.1-3.7-4.1s-.6,0-.7.2,0,.5.2.7h0Z"/>
      <path class="st13" d="M215.5,244.1c.7.2,1.4.5,2,.9s.5.4.8.7.5.5.6.8c.2.6,1.1.4,1-.3s-.4-.8-.8-1.2-.7-.6-1-.8c-.7-.5-1.5-.9-2.3-1.1s-.5,0-.6.3,0,.5.3.6h0Z"/>
      <path class="st13" d="M218.6,241.4c1.3.9,2.3,2.1,3,3.5s.5.3.7.2.3-.4.2-.7c-.7-1.6-1.9-2.9-3.4-3.9s-.6,0-.7.2,0,.5.2.7h0Z"/>
      <path class="st13" d="M221.4,238.9c.3,0,.6.3.9.5s.6.5,1,.8c.6.6,1.2,1.2,1.7,1.8s.5.2.7,0,.2-.5,0-.7c-.5-.7-1.1-1.3-1.8-1.9s-.7-.6-1-.9-.7-.5-1.2-.6c-.6-.2-.9.8-.3,1h0Z"/>
      <path class="st13" d="M223.2,235.9c.5,0,.9.1,1.3.3s.9.5,1.3.8c.8.6,1.5,1.3,2.1,2s.5.2.7,0,.2-.5,0-.7c-.7-.8-1.5-1.6-2.4-2.2s-1.9-1.3-3-1.2-.5.2-.5.5.2.5.5.5h0Z"/>
      <path class="st13" d="M226,231.8c.9.5,1.8,1.1,2.6,1.8s1.5,1.6,2.3,2.3.6,0,.7-.2,0-.5-.2-.7c-.9-.6-1.5-1.5-2.3-2.2s-1.7-1.3-2.6-1.8-.5,0-.7.2,0,.6.2.7h0Z"/>
      <path class="st13" d="M228.3,228.1c2.5.4,4.1,2.7,6.1,4.1s.6,0,.7-.2,0-.5-.2-.7c-2.1-1.5-3.7-3.8-6.3-4.2s-.5,0-.6.3,0,.6.3.6h0Z"/>
      <path class="st13" d="M230.8,223.9c.6,0,1.1.4,1.5.6s1,.6,1.5,1c1,.7,1.9,1.6,2.8,2.4s1.2-.3.7-.7c-1-.9-2-1.8-3.1-2.6s-2.2-1.5-3.5-1.7-.5.3-.5.5.2.5.5.5h0Z"/>
      <path class="st13" d="M170.2,264.6l2.1-4.1c.1-.2,0-.5-.2-.7s-.6,0-.7.2l-2.1,4.1c-.1.2,0,.5.2.7s.6,0,.7-.2h0Z"/>
      <path class="st13" d="M166.4,262.7c.8-1.2,1.6-2.3,2.5-3.4s.2-.5,0-.7-.5-.2-.7,0c-.9,1.1-1.8,2.3-2.6,3.6s0,.6.2.7.5,0,.7-.2h0Z"/>
      <path class="st13" d="M162.5,260.9c1-1.1,2-2.1,3.1-3.1s.2-.5,0-.7-.5-.2-.7,0c-1.1.9-2.2,2-3.1,3.1s-.2.5,0,.7.5.2.7,0h0Z"/>
      <path class="st13" d="M159.6,258.9c.9-1.1,1.9-1.9,3.1-2.6s.3-.5.2-.7-.4-.3-.7-.2c-1.2.7-2.4,1.7-3.3,2.8s-.2.5,0,.7.5.2.7,0h0Z"/>
      <path class="st13" d="M156.8,257c1-1,2.1-1.9,3.4-2.6s0-1.2-.5-.9c-1.3.8-2.5,1.7-3.6,2.8s-.2.5,0,.7.5.2.7,0h0Z"/>
      <path class="st13" d="M154.2,254.2c.7-1.2,1.8-2.2,3-2.9s.3-.5.2-.7-.4-.3-.7-.2c-1.4.7-2.6,1.9-3.4,3.2s0,.6.2.7.5,0,.7-.2h0Z"/>
      <path class="st13" d="M151.5,251.3c.8-.3,1.5-.7,2.1-1.1s1.3-.8,2-1,.4-1.1-.3-1c-1.5.4-2.7,1.6-4.2,2.1s-.4.3-.3.6.4.4.6.3h0Z"/>
      <path class="st13" d="M149.6,248.9c1.3-.8,2.6-1.5,4-2s.4-.3.3-.6-.4-.4-.6-.3c-1.5.5-2.9,1.2-4.3,2.1s-.3.4-.2.7.5.3.7.2h0Z"/>
      <path class="st13" d="M148.5,246.3c1-.6,2.1-1.1,3.2-1.7s.3-.5.2-.7-.4-.3-.7-.2c-1.1.5-2.1,1.1-3.2,1.7s-.3.5-.2.7.4.3.7.2h0Z"/>
      <path class="st13" d="M147.3,243.2c1.2-.7,2.5-1.2,3.8-1.8s.4-.3.3-.6-.4-.4-.6-.3c-1.4.5-2.7,1.2-4.1,1.9s0,1.2.5.9h0Z"/>
      <path class="st13" d="M146.2,240.6c1-.7,2.1-1.3,3.3-1.7s.4-.3.3-.6-.4-.4-.6-.3c-1.2.4-2.4,1-3.5,1.8s-.3.4-.2.7.5.3.7.2h0Z"/>
      <path class="st13" d="M145.1,237.6c1.1-.5,2.3-.9,3.6-1.1s.4-.4.3-.6-.3-.4-.6-.3c-1.3.2-2.6.6-3.8,1.2s-.3.5-.2.7.4.3.7.2h0Z"/>
      <path class="st13" d="M144.1,234.6c1.3-.2,2.6-.2,4-.1s.5-.2.5-.5-.2-.5-.5-.5c-1.3,0-2.6,0-4,.1s-.5.2-.5.5.2.5.5.5h0Z"/>
      <path class="st13" d="M144.1,231.6c1-.5,2.1-.8,3.3-.8s.5-.2.5-.5-.2-.5-.5-.5c-1.3,0-2.6.4-3.8,1s-.3.5-.2.7.4.3.7.2h0Z"/>
      <path class="st13" d="M144.1,228.7c.2-.2.5-.3.7-.4s0,0,0,0,0,0,0,0c0,0,.1,0,.2,0,.1,0,.3,0,.4-.1s.1,0,.2,0,0,0,0,0c0,0,0,0,0,0,.1,0,.3,0,.4,0,.3,0,.6-.2.8-.4s.2-.5,0-.7-.5-.2-.7,0c0,0,0,0,0,0,0,0,0,0,0,0,0,0,0,0,0,0,0,0,0,0,0,0-.1,0-.2,0-.3,0,0,0,0,0,0,0,0,0,0,0,0,0,0,0-.2,0-.3,0-.1,0-.3,0-.4,0-.5.1-1.1.4-1.5.7s-.3.4-.2.7.5.3.7.2h0Z"/>
      <path class="st13" d="M143.6,226.5c1-.3,2-.8,2.8-1.5s.2-.5,0-.7-.5-.2-.7,0,0,0-.1.1,0,0,0,0c0,0,0,0,0,0,0,0-.2.1-.3.2-.2.1-.4.3-.6.4s-.2.1-.3.2-.1,0-.2,0,0,0,0,0,0,0,0,0c-.2,0-.5.2-.7.2s-.4.4-.3.6.3.4.6.3h0Z"/>
    </g>
  </g>
  <g>
    <path class="st49" d="M97.2,106.8c9.8-.7,19.3-4.8,27.4-10.3-.3-.1-.6-.3-.8-.6-6.3-1.1-14.7,1.4-20.1-1.3-.6-.3-.4-1.1-.4-1.1-.2,0-.4.4-.7.3-1.9-.8-3-1.3-5.3-.6-3.2,1.1-1.8,4-2.3,6.2-1.1,4.9-4,11.7-3.2,16.9.2,1.1,2.1,4.6,2,4.9-.1.4-2.6.1-3.4,3.7-.7,3,.3,5.1.3,7.5,0,.7-1.2,2.9-.9,5.4.1.8,1.6,3.4,1.4,3.7-.3.6-2.6,0-3.2,4.6-.5,4.1.5,6.4,1.4,10,.6,2.5-1,3.4,2.6,5.2-6.6-1.5-2.4,5.6-2.9,6.6,0,.1-1.8.4-2,2.3-.3,2.3,1.7,4.4,1.7,4.9,0,.2-1.1,1.4-1.1,1.7-.5,2.2-1.5,6.5-1.1,8.6.2,1,1.4,2.2,1.4,2.3,0,.2-1.5,2-1.7,3.4-.4,2.9,1.1,4.4,1.1,5.2,0,.1-1.1,2.1-1.1,2.6-.5,4.3,0,3.7,1.1,7.3,8.4,4.6,19.7-8.6,7.7-12.2,3.6,0,7.6-5.4,5.7-8.6-1-1.8-8.3-2-10.3-2.6,0-.3,6.1,0,6.7-.1,4.1-.8,8-9.1,1-9,3.6-3.1,6-10.2-1.1-9.8,5-2.8,4.3-5.9,4.9-10.6.2-1.6,2.7-1.4-2-2.6,2.1-2,3.8-5.4,3.2-8.3-.3-1.4-2.6-2.7-2.6-2.9,0-.3,3-2.1,2.3-5.2-.2-.9-2.3-2.2-2.3-2.6,0-.3,3.3-3.6,4-4.9,1.2-2.3,3.8-8.6-1-8.2-2.9.3-8.3,8.6-6.9-2,5.6,0,10.2-3.7,13.6-7.9-1.1-2-14.6,1.4-13.2-2Z"/>
    <path class="st49" d="M143.4,50.4c2.3-.7,8.5-1.4,9.2-1.6-1.5-2.1-3.4-4.8-4.9-6.9-2.2-3.2-11.8-15.4-11.8-18.5,0-.2.4.1.6-.7-8.3-1.7-13.4,5.3-8.6,11.7-5-5-12-3.7-11.1,5,1.1,0,5.1,6.6,6.3,7.9,1.9,2,4.5,3.7,6.6,5.6,1.9.7,3.6,1.6,5.3,2.6,1.4-2.1,3.9-3.4,6.3-4.4-4.3-4.5-8.5-9.6-11.7-14.8,4.1,5.1,9,10.1,13.9,14.2Z"/>
    <path class="st49" d="M176.5,46.2c.4.4.6.8.8,1.3,1.6-.3,3.2-.2,4.8,0l-1.5-21.3,3.1,21.6c.8.2,1.6.3,2.4.5.8.2,1.7.3,2.5.4.6-3.9,1-7.9,1.5-11.8.7-6.4,3-23.1,2-28.5-1.8-9.6-15-5.5-12.6,3.6-3.9-6.7-7.2-5.9-7.7-6-10.5-2.3-9.8,10.5-2.8,28.1,2,5.1,5.3,6.8,7.5,12.2Z"/>
    <path class="st49" d="M273.7,63.7c-1-.6-6.4-.7-6.5-2.4,0-.2,1.5-1.4,1.7-2.6.6-3.3-1.3-7.1-4.9-7.6-3.8-.5-8.5,4-11.2,6.3-1.6,1.4-3.1,3.5-4.7,4.9-5.6,4.8-12.6,8.4-19.6,10.9,0,.2.1.3.1.5,2.1,0,4.6-.2,6.6-.5,10.9-1.6,21.5-5.7,31-11.2-.1.8,1.3,2.4,1.3,2.7-.2,1.4-14.9,8.8-17.1,9.6-4.7,1.7-9.7,2.4-14.5,3.9,9.4,1.7,18.9.9,28.2-.7,1.6-.3,3.9-1.5,5.3-1.7.7,0,.5-.2,1.1,0,.6-1.1,2.8-1.5,3.4-2,0,0,.2.1.6-.3,1.6-1.6,1.1-8.5-1-9.8Z"/>
    <path class="st49" d="M153.6,48.7c0,0,9.1-1.3,10.1-1.5-1.8-3.6-3.8-7.9-5.4-11.5-.2-.5-1-2.3-.6-2.7-2-3.7-4.3-8.6-5.4-12.6-1.5-.6-2.2-2.7-3.6-3.4-4.9-2.8-11.2.2-12.2,5.7-.1.8-.6.5-.6.7,0,3.1,9.5,15.3,11.8,18.5,1.8,2.1,4,4.8,6,6.8Z"/>
    <path class="st49" d="M200.6,50.2c.7,0,1.3.2,2,.4,5.7-8.5,9.9-18.1,14.5-27,.5-1.3.8-1.3,1.1-2,.9-4.4,3.3-11.3-2.9-13.2-3.5-1.1-7.9,0-9.5,3.6-2.6,6.1-3.7,19.5-5.7,27-1,3.7-2.3,7.2-3.7,10.8,1.4.2,2.8.3,4.1.5Z"/>
    <path class="st49" d="M157.7,33c1.4,2.6,5.2,8.9,8.7,14.1,2.4-.4,5.4,1.1,6.6-1.9-.8-2.1-1.6-4.2-2.3-6.3-1.9-5.6-6.3-19.7-6.6-25.1-2.5-4.3-8-6.8-11.5-2.2-2.5,3.3-1.2,5.4-.3,8.7,1.1,4.1,3.5,8.9,5.4,12.6Z"/>
    <path class="st49" d="M193.5,49.3c1.5-3.3,2.9-6.5,4.1-9.9,2.4-7,5.2-24.7,8-29.4-1-.5-1-2.1-1.7-3-2-2.5-4.8-2.8-7.7-1.9.3.4-.9.6-1.1,1-3,4.8-3,26.3-3.7,33.3-.3,3.1-.7,6.3-1.2,9.5,1.1.2,2.3.3,3.4.4Z"/>
    <path class="st49" d="M133.2,60.4c0-.5,0-1.1,0-1.6.2-.7.4-1.3.7-2-1.5-1.3-2.9-2.7-4.4-4-2.1-1.9-4.7-3.5-6.6-5.6-1.2-1.3-5.2-7.9-6.3-7.9-1.6.8-3.2.8-4.7,2-2.9,2.2-4.3,7.6-1.3,10.3,1.9,1.7,6.9,4.3,9.8,6.6,4.5,2.1,9.4,4.5,13.9,6.6.2-.3.7-1.4,1-1.6-.9-1.1-2-1.7-2.1-2.9Z"/>
    <path class="st49" d="M270.7,75.7c.6.1,2.3,1.5,2.7,1.7s1-.1,1.3,0c.5.2,1.1.3,1.7.6,2.8,1.5,3,9.4,1.7,11.5s-5.8,1.6-8,2.3c-1.9-.8-5.3,0-7.9-.3-7.5-.7-15-1.9-21.9-5,9.4-4.3,22.6-1.2,29.3-10.8.7,0,.5-.2,1.1,0Z"/>
    <path class="st49" d="M125.5,84.1c-7.1-1-15.5-1.4-19.7-7.8-.6-.2-1.2-.3-1.7-.6-.2.4-2.2,2.2-2.4,2.3-.2,0-1.8-.5-3.2.6-2,1.6-2.5,9.7-.7,11.5,1.6,1.6,4.8,1.5,6.9,1.7,6.4.7,12.9-.6,19-2.2.9-2.5,1.2-3.6,1.8-5.4Z"/>
    <path class="st49" d="M132.5,67.7c-2.3-1.4-5.3-3.2-7.4-4.9-1.6-1.3-3.2-3.4-4.7-4.6-2.8-2.3-7.9-4.9-9.8-6.6-6.4.1-8.3,7.8-3.2,11.5.1.1,11,6.5,22.9,8.7.9-1.5,1.3-2.7,2.1-4Z"/>
    <path class="st49" d="M127.3,79.1c.5-1.1.8-2,1.2-3.1-2.3-.6-5.2-1.4-7.4-2.3-6-2.4-9.6-4.8-14.2-8.9-1.5-1.4-3.7-2.2-5.6-.9-1.4,1-2.3,7.4-1.6,9,.4.8,3.4,2.3,4.3,2.7.6.3,1.1.4,1.7.6,6.3,2.3,12.6,3.6,21.5,2.8Z"/>
    <path class="st49" d="M287.9,169.2c-1.4-1.4-2.1,1.2-3.6,1.4l2.4-2.3c.8-.6.9.3,1.1.9Z"/>
    <g>
      <path class="st49" d="M255.2,38.8c2.2-5.8-3.1-11.6-8.9-8.3,2.9-7.4-7.9-14.3-13.2-8.3-1.1,1.2-1.7,3.6-3,4.7,2.1-3.6,3.5-9.2-.6-12-5.8-4.1-9.3,2.2-11.3,6.6-.3.8-.6.8-1.1,2-.5,1.2-.9,3.9-1.4,5.3-3.1,7.7-6.3,15.3-10,22.6,2.1.7,4.1,1.5,6.1,2.4,5.2-5.2,9.6-11.1,13.1-17.7.6.4,0,1.1-.1,1.6-2.5,5.6-6.3,11.1-10.2,16.5,2.3.2,4.7.6,6.9,1.3,6.4-4.8,12.5-10.1,17.8-16.2-4,6.5-9.1,12.2-14.6,17.6.9.5,1.8,1.1,2.6,1.8,0,0,.1,0,.2,0,1.3,0,2.3.7,2.9,1.5,4.3-2.6,8.5-5.5,12.7-8.4l-12.1,9.6c.2.9.1,1.8-.2,2.6.6,1.1.6,2.6,0,3.7.4-.2.9-.3,1.3-.5,7.1-2.9,13.7-7.1,20.8-10,2.7-2.3,7.4-6.8,11.2-6.3l-1.4-.4c5.6-4.6-1.1-13.5-7.5-11.8Z"/>
      <path class="st49" d="M229.2,28.4c.6,0-.4,1.7-.4,1.9-.9,1.9-2.2,3.8-3.3,5.6l3.7-7.5Z"/>
    </g>
    <g>
      <path class="st49" d="M266.9,246.3c-1.9,3-6.7,4.5-9.5,2.3-1.8-1.4-2.1-4.4-.9-6.3.9,0,2.8-.4,3.7-.6,1.7-.3,4.7-.9,6-2.3,3.4.2,1.8,5,.6,6.9Z"/>
      <g>
        <path class="st49" d="M266.4,140.8c-.9,1.3-.7,1.1-2,2,.2,0,1.3-1.8,2-2Z"/>
        <path class="st49" d="M259.9,151.7c.8,0,1.7-.2,2.4.1,0,.1-2.3.4-2.4-.1Z"/>
      </g>
    </g>
    <g>
      <path class="st49" d="M105.6,129.8c0,0-.7,0-.9-.4.5-.5.9.4.9.4Z"/>
      <path class="st49" d="M105.4,170.6c.5,0,1.8,0,1.9.7,0,.3-2-.3-1.9-.7Z"/>
    </g>
    <path class="st49" d="M98.3,214.8c.4,3,.9,6.2,1.8,9-2.6,3.7-5.3,3.7-9.3,2.1s-.4-1-.9-.4c.2.5.8.4.9.4,3.3,2.7,7.1-.3,7.8,4,.5,3.1-1.7,4.2-1.8,4.8-.1.9,2.5,2.7,1.2,5.7-1.1,2.5-5.2,1.7-7.2,2.1,3.3.8,8.8-.4,7.8,4.8-.7,3.7-6.4,3.1-9,2.1,3,2.8,9.5-.6,9,5.1-.6,7.4-12,4.2-12.6-3-.3-3.8,1.9-2.1,2.1-3.3s-2.5-4.6-2.1-7.2c0-.5,1.2-1.4,1.2-1.5.2-1.8-3.4-6.9,1.5-6.9-1.8-1.3-3-6.2-2.4-8.1s1.8-1.1,1.8-1.2c0-.2-1.4-2.8-1.5-3.9-.6-5.5,3.1-11.5,8.8-7.6,1.6,1.1,1.3,3.7,2.8,3Z"/>
    <path class="st49" d="M98.6,199.4c.9-4.6-3.4-4.2-6.6-4.6-2.2,0-4.2-.5-6-1.4-.2,2.6,2.2,6.5,2.1,6.9-.2,1.2-2.4-.5-2.1,3.3.6,7.2,12,10.4,12.6,3,.5-5.7-6-2.3-9-5.1,2.6,1,8.2,1.6,9-2.1Z"/>
    <path class="st49" d="M278.7,92.9c2.8,1.1,1.9,4.7,2.3,6.7,1,5.1,3.8,11.7,2.9,16.9-.2,1.1-2.1,4.3-2,4.6.1.5,2.6.1,3.4,3.2s.9,11.8.9,12.6c-.1,1.4-1.8,4.1-1.7,4.3.1.4,2.5.4,3.2,3.7.8,4-.3,6.9-1.1,10.6-.6,2.4.9,4.1-2.6,5.4,5.2-.2,3.2,3.9,2.9,7.3l-2.4,2.3c1.5-.3,2.2-2.9,3.6-1.4,1.7,3.5-1,4.7-.9,6.2,0,.1,1.1,1.3,1.1,1.7.1.7-.1,1.7,0,2.4-1.4.4-.7,1.1-1.4,2-3,1.9-9.7,2-12-1s-2.3-6.8,2.6-6.9c-3.9-2.9-6.4-10.2.9-9.8-5-2.6-4.4-6-5.2-10.6-.1-.6-1.5-1.2-.4-1.9l2.7-.7c-2.2-1.9-4.4-5.9-3.2-8.9.2-.5,2.1-1.6,2-2.3s-2.9-2.3-2.6-4.6c.1-1,2.3-2.7,2.3-3.2s-2.1-1.7-2.6-2.3c-1.4-1.8-6.6-9.8-2.4-10.8s6.1,4.4,8.9,3.2.9-4.3.7-4.7-6.7-1.8-8.5-2.7-6.6-4.9-6.5-5.6c4.6-2.6,10.8,1.3,14.9-1.7.4-.9-6-.8-7-1-7.7-1.4-16.8-5.6-23.4-9.9,0-1,19.1-.2,20.8-.4s3.2-1.8,3.6-2c1.7-.7,4.6-1.5,6.3-.9Z"/>
    <path class="st49" d="M289,205.3c-8,6.6-21.5-7.4-8.6-11.3-2.8-.2-6.1-3.3-6.3-6-.6-6,9.6-3.1,12.6-6.5.8-.9,0-1.6,1.4-2,.2,1.4,1.4,3.2,1.1,5.3s-1.4,2.7-1.4,2.9,1.6,2.4,1.7,3.7c.3,3-1,3.6-1.1,4.6-.3,2.3,2.8,4.7.6,9.3Z"/>
    <path class="st49" d="M286.4,222.2c-.8.2-1.9,2.4-2.1,2.5-2.5,1.5-6.7,2.1-8.4-.9s-.1-6.2,0-9.7c0-.3-.6-.1-.6-.2,0-2.5.9-5.4.9-7.9,1.9-.1,3,1.7,4.9,1.4s2-1.5,2.7-1.4,3.2,2.8,3.4,3.4c1.8,3.8,1.1,9.2-.9,12.7Z"/>
    <path class="st49" d="M284.3,224.8c1.4-1.1,1.2-.9,2.1-2.5,4.2-1.2,1.6,9.3-.6,10.9,5.4-.9,1.5,5.6,1.8,7.9,0,.1,1.1,1.3,1.2,1.8.2,1.6-1,6.8-1.8,8.2-2.2,3.8-10,4.7-10.8-.7-.9-6.5,5.1-4.5,8.4-5.7-3.4-.2-8.9.4-8.1-5.7s1.5-3,1.5-3.2c0-.6-2.4-2.3-1.8-6.1.6-4.2,4.9-2.4,8.1-4.8Z"/>
  </g>
  <g>
    <g>
      <path class="st23" d="M183.8,59.9c2.2-5.4,1.8-9,.7-12.3,12,1.8,37.3,6.1,44.2,10.5,2.5,1.6,4.4,7.5,3.3,9.9-.7,1.5-2,2.5-3.7,2.1-.5-.1-40.5-10.2-44.6-10.2Z"/>
      <path class="st39" d="M204.2,54.8c8,1.3,14.8,2.3,24.7,7.8-6.6-1.2-12.8-4-19.3-6-1.5-.5-5.7-.9-5.4-1.8Z"/>
      <path class="st39" d="M191.5,57.7c14.9.6,20.3,3.8,29,7.2.2,0,1.3-.3,3.6,1.5-8.2-2.7-16.5-5.4-25.1-7.1-2.2-.4-6.2-.5-7.6-1.6Z"/>
    </g>
    <g>
      <path class="st23" d="M169.7,47c-2.5,3.8-3.8,7.6-2.5,12-8.4-.2-16.6.9-24.8,2.4-2.9.6-6.4,2.3-8.1,1.9-2.9-.7-1.5-8.2,3.4-11.4.4-.3,16.7-5.2,31.9-4.9Z"/>
      <path class="st39" d="M162.3,55.9c.1.1.1.3,0,.4-.5.2-9.1.9-10.7,1.1-4.3.7-10,2.5-12.7,2.9-5.7.9,3.5-2.6,9.2-3.6,4.7-.8,9.5-.9,14.3-.9Z"/>
      <path class="st39" d="M164,50.7c.4,0,.6,0,.3.3-8.6.5-16.9,2.2-25.2,4.2,10.3-4.6,13.3-5.3,24.8-4.5Z"/>
    </g>
  </g>
  <path d="M79.7,187.6c0,0-.7,0-.9-.4.5-.5.9.4.9.4Z"/>
  <g>
    <path d="M286.4,222.2c-.9,1.6-.7,1.4-2.1,2.5.2-.1,1.3-2.3,2.1-2.5Z"/>
    <path d="M279.7,235.9c.8,0,1.7-.2,2.5.2,0,.2-2.4.5-2.5-.2Z"/>
  </g>
  <g>
    <path class="st49" d="M113.1,118.7c.4,3,.9,6.2,1.8,9-2.6,3.7-5.3,3.7-9.3,2.1,0,0-.4-1-.9-.4.2.5.8.4.9.4,3.3,2.7,7.1-.3,7.8,4,.5,3.1-1.7,4.2-1.8,4.8s2.5,2.7,1.2,5.7c-1.1,2.5-5.2,1.7-7.2,2.1,3.3.8,8.8-.4,7.8,4.8s-6.4,3.1-9,2.1c3,2.8,9.5-.6,9,5.1-.6,7.4-12,4.2-12.6-3-.3-3.8,1.9-2.1,2.1-3.3s-2.5-4.6-2.1-7.2,1.2-1.4,1.2-1.5c.2-1.8-3.4-6.9,1.5-6.9-1.8-1.3-3-6.2-2.4-8.1s1.8-1.1,1.8-1.2c0-.2-1.4-2.8-1.5-3.9-.6-5.5,3.1-11.5,8.8-7.6,1.6,1.1,1.3,3.7,2.8,3Z"/>
    <path class="st49" d="M102.9,193.7c0,0,1,.9,1.2,1.2,3.3,3.6,8.4.6,9,4s-1.7,7.4-5.7,6l1,.7c6.5-2.4,5.7,8.3,2.1,9.6h-1.6c3.8-.3,5.1,2.5,4.5,5.8s-1.5,2.3-1.5,2.7,1.4,1.9,1.5,2.4c.4,1.8,0,5.3-1.8,6.4-3-.6-5.4,1.3-8.4-2.4s-2.7-6.5-2.1-7.9,1.7-.8,1.8-1.2-1.4-3.1-1.5-3.9c-1.1-6.2,1.5-3.6,2.1-4.8s-3.8-5.4-2.1-8.7c.3-.6,1.8-1.1,1.8-1.2.2-.5-5-8.2-.3-8.8Z"/>
    <path class="st49" d="M104.1,194.9c-.2-.3-1.2-1.1-1.2-1.2-.6-1.2-2.2-6-1.8-7,.3-.9,1.5-.3,1.5-1.5,0-1.4-5.5-11,2.4-6.6-1.9-1.4-3.4-2.6-3.9-5.1-1.1-5.3,1.4-3.4,1.8-4.2s-2.8-4.2-2.1-7.2,3.5.2,5.2.7c2.9,1,9.6,0,7,6.1-.7,1.8-3.7,2.3-5.4,2.4,4,.3,7,0,5.4,5.1s-4.8,2.6-7.8,2.4c1.9,1.6,6.8.2,7.8,2.4,1.7,3.6-1.9,6.2-1.8,6.6s2.8,1,2.1,5.1c-.7,4.4-6.5,4.2-9.3,1.9Z"/>
    <path class="st49" d="M101,224.4c0-1.6,2-2.5,3.2-1.3s0,0,0,0c3.3,3.6,8.4.6,9,4,.7,3.6-1.7,7.4-5.7,6l1,.7c6.3-2.4,5.7,7.7,2.4,9.5s-.4.1-.6.2h-1.3c3.8-.3,5.1,2.4,4.5,5.8-.2.9-1.5,2.3-1.5,2.7s1.4,1.9,1.5,2.4c.3,1.5,0,4.1-1,5.6-.3.5-1,.8-1.6.7-2.6-.2-4.9,1.1-7.7-2.3-1.1-1.4-2.7-6.5-2.1-7.9.2-.5,1.7-.8,1.8-1.2s-1.4-3.1-1.5-3.9c-1.1-6.2,1.5-3.6,2.1-4.8.2-.4-3.8-5.4-2.1-8.7s1.8-1.1,1.8-1.2c.1-.3-2.2-3.9-2.3-6.4Z"/>
    <path class="st49" d="M256.3,150.9c1.6,1.1,1.3,3.7,2.8,3,.4,3,.9,6.2,1.8,9-2.6,3.7-5.3,3.7-9.3,2.1,0,0-.4-1-.9-.4.2.5.8.4.9.4,3.3,2.7,7.1-.3,7.8,4,.5,3.1-1.7,4.2-1.8,4.8s2.5,2.7,1.2,5.7c-1.1,2.5-5.2,1.7-7.2,2.1,3.3.8,8.8-.4,7.8,4.8-.7,3.7-6.4,3.1-9,2.1,3,2.8,9.5-.6,9,5.1-.6,7.4-12,4.2-12.6-3-.3-3.8,1.9-2.1,2.1-3.3s-2.5-4.6-2.1-7.2c0-.5,1.2-1.4,1.2-1.5.2-1.8-3.4-6.9,1.5-6.9-1.8-1.3-3-6.2-2.4-8.1.2-.6,1.8-1.1,1.8-1.2,0-.2-1.4-2.8-1.5-3.9"/>
    <path class="st49" d="M253.9,247.8c-.3-.2-1.2-1.1-1.3-1.1-.7-1.1-2.6-5.8-2.2-6.9s1.4-.4,1.4-1.6-6.1-10.6,2-6.7c-2-1.3-3.5-2.4-4.2-4.8-1.4-5.2,1.2-3.5,1.5-4.3s-3-4-2.5-7.1c.6-3.7,3.5,0,5.3.4,2.9.8,9.6-.6,7.4,5.7-.6,1.8-3.6,2.5-5.2,2.7,4,0,7-.4,5.7,4.8-.9,3.8-4.6,2.9-7.6,2.9,2,1.5,6.8-.2,7.9,1.9,1.9,3.5-1.5,6.3-1.4,6.7s2.8.8,2.4,5c-.5,4.5-6.2,4.6-9.2,2.5Z"/>
    <path class="st49" d="M251.1,216.9c-.2-.3-1.2-1.1-1.2-1.2-.6-1.2-2.2-6-1.8-7,.3-.9,1.5-.3,1.5-1.5,0-1.4-5.5-11,2.4-6.6-17.3-7.8,9.7-7.2,8.1-2.1s-4.8,2.6-7.8,2.4c1.9,1.6,6.8.2,7.8,2.4,1.7,3.6-1.9,6.2-1.8,6.6s2.8,1,2.1,5.1c-.7,4.4-6.5,4.2-9.3,1.9Z"/>
    <g>
      <path class="st49" d="M270.5,171.9c2.7-.3,2,4.3,1.6,5.8s-1.6,2.8-1.6,2.9c.1.7,2,.3,2.3.8s-.8,5.7-1.2,6.4c-1.6,2.7-8.8,5.2-10.3.9-1.7-4.7.3-4.5,3.8-5.9-2.9.3-5.1-2.4-4.5-5.3.6-2.9,7.3-1.7,9.8-5.7Z"/>
      <path class="st49" d="M270.5,171.9c-.5,0-2.8,2.2-4.1,2.4-2.2.5-4.8.3-5.7-2.2-2.2-6.3,2.6-4.8,6.5-5.8s3.2-2.6,4.5-1.6-.6,6-1.3,7.2Z"/>
      <path class="st49" d="M267.2,142.5c1.3-.9,1.1-.7,1.9-2.1,4-1.1,1.8,7.4-.3,8.8,5.1-.9,1.6,4.4,1.9,6.2,0,.1,1.1,1,1.2,1.4.2,1.3-.7,5.5-1.5,6.7-2,3.1-9.5,4.1-10.3-.2-1-5.1,4.7-3.7,7.9-4.9-3.3,0-8.5.6-7.9-4.3,0-.6,1.4-2.4,1.3-2.6,0-.5-2.3,0-1.8-3.1.5-3.4,4.5-3.8,7.5-5.9Z"/>
      <path class="st49" d="M270.7,206.3c-1,.3-1.7,1.4-2.8,1.6-7.9,1.7-10.3-8.4-1.9-8.2-4.3,1.2-7.4-6.2-3.7-7.8s6.9-.3,9.5-3.6c3.5,1.2-.6,8.4-.4,8.9.3.7,1.5.1,1.8.8.7,1.4-1.3,7-2.4,8.3Z"/>
      <path class="st49" d="M272.9,240.9c-1.3,1.5-4.4,2.2-6.2,2.6-3.4.5-4.5-3.3-4.1-6,.1-.9,1.5-2.4,1.4-3s-1.2-1.4-1.3-1.8c-2-9,5.3-4.3,9.3-9.3-2.9,2.1-8.6,4-9.6-.9-1.5-6.6,2.3-4.3,6.4-6.2-2.8.1-5,1.3-6.4-1.9-3.5-8.2,5.2-4,8.7-8.3,6.1-1.9.7,7.1.9,7.6s1.9.6,2.1,1.1c1,2.5-2.1,7.8-1.8,8.2s1.7.2,2,.4c1.1.8-.9,8.2-1.9,9.5,4.6-3,2,6.4.6,7.9Z"/>
      <path class="st49" d="M273.7,248.1c-1.9,3.2-6.8,4.9-9.8,2.7s-2.4-4.5-1.1-6.6c.9,0,2.9-.5,3.9-.7,1.8-.4,4.9-1.1,6.2-2.6,3.6.1,2,5.2.9,7.2Z"/>
    </g>
    <g>
      <path class="st49" d="M122.9,165.2s-.8,1.9-5.2,1.1c3.3.8,8.8-.4,7.8,4.8s-6.4,3.1-9,2.1c3,2.8,9.5-.6,9,5.1-.6,7.4-12,4.2-12.6-3-.3-3.8,1.9-2.1,2.1-3.3s-2.5-4.6-2.1-7.2c0-.5,1.2-1.4,1.2-1.5.2-1.8-3.4-6.9,1.5-6.9-1.8-1.3-.6-7.4,0-9.3s1,4.6,3,9.9c1.4,3.6,4.3,8.2,4.3,8.2Z"/>
      <path class="st49" d="M120.5,225.5l-1-.7c4,1.4,6.4-2.4,5.7-6-.6-3.5-5.6-.5-9-4-.2-.3-1.2-1.1-1.2-1.2-4.7.6.5,8.4.3,8.8,0,.1-1.5.5-1.8,1.2-1,2,.4,5.2,1.4,7.1.4-1.4.9-2.1,2.5-1.9s.6.1,2.2.6c1.5-1.4,2.7-2.8,4.3-3.5-.8-.5-1.9-.8-3.3-.2Z"/>
      <path class="st49" d="M115.4,130.9c0,0-.7,0-.9-.4.5-.5.9.4.9.4Z"/>
      <g>
        <path class="st49" d="M116.1,214.7c-.2-.3-1.2-1.1-1.2-1.2-.6-1.2-2.2-6-1.8-7,.3-.9,1.5-.3,1.5-1.5,0-1.4-5.5-11,2.4-6.6-1.9-1.4-3.4-2.6-3.9-5.1-1.1-5.3,1.4-3.4,1.8-4.2s-2.8-4.2-2.1-7.2,3.5.2,5.2.7c2.9,1,9.6,0,7,6.1-.7,1.8-3.7,2.3-5.4,2.4,4,.3,7,0,5.4,5.1-1.2,3.8-4.8,2.6-7.8,2.4,1.9,1.6,6.8.2,7.8,2.4,1.7,3.6-1.9,6.2-1.8,6.6s2.8,1,2.1,5.1c-.7,4.4-6.5,4.2-9.3,1.9Z"/>
        <path class="st49" d="M115.2,171.7c.5,0,1.8,0,1.9.7,0,.3-2-.3-1.9-.7Z"/>
      </g>
    </g>
  </g>
  <g>
    <path class="st25" d="M157.8,118.1c0,15.7-15.3,27-28,27s-19-10.3-19-26,9.3-22,22-22,25,5.3,25,21Z"/>
    <path class="st25" d="M236.9,119.3c0,22.8-17.9,29.8-32.8,29.8s-22.2-11.3-22.2-28.7,10.9-24.3,25.8-24.3,29.3,5.8,29.3,23.2Z"/>
    <g>
      <path d="M241.9,128.1c5.8-9.6-3.8-18.8-5-22-3-8-6.8-10-10-11s-6-1-13-1-29-3-34.5,13.7c-7.2-3.1-12.6-2.6-20-1-1.5-2.7-5.5-11.7-20.5-12.7-1.9-.1-9.2-.7-16,1s-7.9,2.9-10,5c-2.2,2.2-4.6,9.8-5,18-.3,7,2,17,3,19,.6,1.3,3,6,5.8,7.5,13.3,7.5,15,5,21.3,4.5,15-1,26.4-18.5,26-32.8,21.2-1.9,7.5,3.4,18.3,22.8,2.6,4.6,9.8,11,16.8,13s14.8,1.8,23-2c13-6,17-17,20-22ZM155.6,120.8c-.3,7.5-3.3,13.5-8.1,17.3-6.2,5-15.2,6.5-24.9,3.7-5.8-1.7-7.8-6.3-8.8-8.7-4-10,0-24,1-27,1.9-5.8,10.4-7.7,16-8,8.6-.5,17.3.2,21.8,8.7,2.1,4,3.2,9.5,3,14ZM188.6,139.1c-3.5-4.7-5.4-13.9-5.5-19.8-.4-15.9,5.2-19.1,20-20.5,5.6-.5,11.5-.9,17,0,.8.1,2.4.4,3,.5,2.1.6,4.2,1.3,5.8,2.8s4.4,6,6,17c.5,3.4,0,8-1.7,12.7,0,0,0,0,0,0-8.9,20.4-36.1,18.5-44.5,7.3Z"/>
      <path class="st44" d="M256.4,104.8c-.6-.6-13.7-6.3-16-7-2.6-.7-8.2-.1-8.6.3,4.7,4.4,2.9,14.9,7,19,.6.6,3.7-1.2,5.8-2.2l.2.2h2v-.8c9.1-.7,11.9-3,15-1.2-.4-1.6-4.5-7.2-5.4-8.3Z"/>
      <g>
        <path class="st6" d="M109.1,108.8q-5,2.3-10,4.5c-.5-1.1-2.6-9.7-1.3-10.5,22.8-3.4,17.7-10.3,11.3,6Z"/>
        <path d="M109.1,108.8l-1.3,10c-3.2-2.1-6.9-1.7-8.8-5.5q5-2.3,10-4.5Z"/>
      </g>
      <path d="M257.9,115.1c-.8-.6,4.5-1.2,4-3-3-1.7-6.1.8-13.6,2-9.5.8-12.4-2-12.4-2l1,3c0,.5.5,2.5,1,4.4l-2.1.7,2.1,6.9c5.4-5.4,8.4-3.5,15-9,2.4-1.8,4.5-2.9,5-3Z"/>
    </g>
  </g>
  <g>
    <path class="st1" d="M257.9,152.1c0-2,0-5-1-6-1-1-1.8-2-3-1-.9.7-1.8,4.6-2,7,0,.8.4,3.4,1.1,4,2,1.5,3.3,1.3,4,.2,2-3.2,1-2.8,1-4.2Z"/>
    <path class="st24" d="M258.4,151.3c-.2-2.8-.5-4.8-1.6-5.2-3-1-1,3-4,5-1.2.8-.6,3.3,0,4,3.4,4.1,5.8-1,5.6-3.8Z"/>
  </g>
  <path class="st12" d="M189.7,45.9c-.9-10.5-11.1-23.2-11.4-22.8-1.7,1.8-12.2,11.5-14.7,23.4-.9,4.1,1.1,13.6,4.6,16.4h0c2.3,3.5,12.4,2.4,11.3,2.3,3.8.2,9.8-12.9,10.1-19.4Z"/>
  <path class="st16" d="M212.8,462.4c-17.3,1.6-91.4-17.1-87.2-.3.2,1,4.2,17.7,8,21,7,6,43,8,67,7,33.7.2,57-19.9,66-31.5,2.5-3.3-.1-5.7-1.8-5.2-15.1,4.5-38.5,7.8-52,9Z"/>
  <path class="st5" d="M175.2,61.9c3.4.4,4.9-1.4,4.9-1.4,0,0,5.7-6.5,6.2-14.3.3-5.4-8.3-16.3-8.6-16.1,0,0-10.9,5-11.3,18.3-.1,5.3-.2,12.4,8.8,13.5Z"/>
  <g>
    <path class="st24" d="M173.8,59.9c3.3.8,4.9-1.4,4.9-1.4,0,0,5.7-6.5,6.2-14.3s-7.7-15.8-8-15.5c0,0-11.6,4.5-11.9,17.8-.1,5.3.6,11.4,8.8,13.5Z"/>
    <path class="st1" d="M168.3,41.4c-.2,2.4,3.7-1.5,5.9-1.5s5,1.6,3.6,13.5,7.7-9.5,1.7-15.6-4-3.9-4-3.9c0,0-6.9,3.3-7.3,7.4Z"/>
  </g>
  <g>
    <g>
      <g>
        <path class="st3" d="M232.7,302.4c-.1.6-1.2.8-1.2,1-.5,2.9,5.3,4.6-2.4,20.7-2.3,4.8-4.6,7.6-7.9,11.7-.9,1.2-8.8,8.7-8.2,9.6,20.2,12.6,76.1,38.2,87.5,7.1-.4,6.1-.8,12.5-2.5,18.4-1.2,4.2-3,8.2-6.7,10.9-13.1,9.9-40.8-3.4-53.2-10.7-3.3-2-24.1-16.5-27.2-19-11.2-9.1-11.6-11.2-9.3-25.7,1.4-.5,4.2,3.6,7.3,5.5,4.3-4.7,18.1-10,19.9-14.8.3-.9,1.7-13.1,1.7-14.2.9-.5,1.2-.5,2.2-.6Z"/>
        <path class="st8" d="M269.6,341c-.8,1.3-2.1,2.5-2.3,4.1-2.6-.6-6.4-1.1-9.8-1.9-2.1-4.2-2.7-11.6-3.8-14.5,10-1.2,14.1-2,23.4-5.2,7.5-2.6,0,5.4-7.4,17.4Z"/>
        <path class="st8" d="M267.3,345.2c.2-1.7,1.5-2.8,2.3-4.1,6.6,2.8,14.4,4.7,18.8,11-6.4-3.7-13.9-5.2-21.1-6.9Z"/>
        <g>
          <path class="st28" d="M230.6,303c0,1.1-1.4,13.3-1.7,14.2-1.8,4.8-15.5,10-19.9,14.8-3.1-1.8-5.9-6-7.3-5.5.3-2.1.8-4.3,1.2-6.4,15.5,10.5-1,.6,2.3-5.2,16.9,9.3,14.4,4.3-.5-1.6.1-.5.2-1,.3-1.5,0-.3.1-.7.2-1,.8-.7.6-1.3.9-1.9,5.8,1.3,11.3,5,17.7,5.7-12.7-8.6-18.6-2.2-9.7-11.8,18.7,14.6,13.3,7.3-.4-3.1q.3-2.2.6-4.5c2.1-2.4,2.4-1.6,3.5-2.4,2.5-1.9-2.4-4.7,10.3.5-.1-6.6,2.4,3.8,2.5,9.6Z"/>
          <path class="st3" d="M202.9,320.1c0-.2,0-.3,0-.5.3-1.4,1.2-4.3,1.7-6.3,14.8,5.9,17.3,10.9.5,1.6-3.3,5.8,13.2,15.6-2.3,5.2Z"/>
          <path class="st11" d="M206,309c2-4.4,5.8-7.4,6.4-12.3.9-1.3,1.7-1.3,1.8-1.4q-.3,2.2-.6,4.5c13.7,10.4,19.1,17.8.4,3.1-8.9,9.6-3,3.2,9.7,11.8-6.5-.7-11.9-4.4-17.7-5.7Z"/>
          <path class="st11" d="M221.6,298.2c5.9,6.3,5.2,9.5-.4.7v-.5q.2,0,.4-.2Z"/>
        </g>
      </g>
      <path class="st18" d="M251.4,326.9"/>
    </g>
    <path class="st28" d="M295.4,316.8c-7.5-35.7-8.3-42.9-13.2-55.8-.5-1.2-23.1,10.4-22.3,21.1-3.8,10.8-11.6,11.4-11.3,14.6,0,.4,3.1,9.2,2.4,20.6-.5,8.6,3.8,18.1,4.8,21.1,0,.1,9,1.6,13.7,2.6,0,0,0-.1.1-.2,0,0,0,.1-.1.2,6.6,2.8,14.4,4.7,18.8,11-6.4-3.7-13.9-5.2-21.1-6.9-2.6-.6-6.4-1.1-9.8-1.9-10.6-2.3-21.2-4.1-31.8-6.6-.2,0-.6,1-4.4-.8-.9,1.2-8.8,8.7-8.2,9.6,20.2,12.6,76.1,38.2,87.5,7.1,1-14.6-3.6-22.3-5.1-35.7Z"/>
  </g>
  <g>
    <rect class="st12" x="274" y="229.6" width="17.8" height="6.4" rx="2.5" ry="2.5" transform="translate(18.1 -20.4) rotate(4.3)"/>
    <path class="st23" d="M276.7,230.2h12.4c1,0,1.8.8,1.8,1.8h0c0,1-.8,1.7-1.7,1.7h-12.6c-1,0-1.7-.8-1.7-1.7h0c0-1,.8-1.8,1.8-1.8Z" transform="translate(18 -20.4) rotate(4.3)"/>
    <rect class="st7" x="276.8" y="228.1" width="12.6" height="1.5" rx=".4" ry=".4" transform="translate(17.8 -20.4) rotate(4.3)"/>
    <rect class="st7" x="276.3" y="236" width="12.6" height="1.5" rx=".4" ry=".4" transform="translate(18.4 -20.3) rotate(4.3)"/>
  </g>
  <g>
    <rect class="st12" x="246.4" y="224.3" width="17.8" height="6.4" rx="2.5" ry="2.5" transform="translate(11.2 -12) rotate(2.8)"/>
    <path class="st23" d="M249.2,224.9h12.4c1,0,1.8.8,1.8,1.8h0c0,1-.8,1.7-1.7,1.7h-12.6c-1,0-1.7-.8-1.7-1.7h0c0-1,.8-1.8,1.8-1.8Z" transform="translate(11.2 -12) rotate(2.8)"/>
    <rect class="st7" x="249.2" y="222.8" width="12.6" height="1.5" rx=".4" ry=".4" transform="translate(11 -12) rotate(2.8)"/>
    <rect class="st7" x="248.8" y="230.7" width="12.6" height="1.5" rx=".4" ry=".4" transform="translate(11.4 -12) rotate(2.8)"/>
  </g>
  <g>
    <rect class="st12" x="259.2" y="208.5" width="17.8" height="6.4" rx="2.5" ry="2.5" transform="translate(-22.5 32.1) rotate(-6.6)"/>
    <path class="st23" d="M261.8,209.1h12.4c1,0,1.8.8,1.8,1.8h0c0,1-.8,1.7-1.7,1.7h-12.6c-1,0-1.7-.8-1.7-1.7h0c0-1,.8-1.8,1.8-1.8Z" transform="translate(-22.4 32.1) rotate(-6.6)"/>
    <rect class="st7" x="261.3" y="207" width="12.6" height="1.5" rx=".4" ry=".4" transform="translate(-22 32) rotate(-6.6)"/>
    <rect class="st7" x="262.2" y="214.9" width="12.6" height="1.5" rx=".4" ry=".4" transform="translate(-22.9 32.2) rotate(-6.6)"/>
  </g>
  <g>
    <rect class="st12" x="98.7" y="239.6" width="17.8" height="6.4" rx="2.5" ry="2.5" transform="translate(11.8 -4.9) rotate(2.8)"/>
    <path class="st23" d="M101.4,240.2h12.4c1,0,1.8.8,1.8,1.8h0c0,1-.8,1.7-1.7,1.7h-12.6c-1,0-1.7-.8-1.7-1.7h0c0-1,.8-1.8,1.8-1.8Z" transform="translate(11.8 -4.9) rotate(2.8)"/>
    <rect class="st7" x="101.5" y="238.1" width="12.6" height="1.5" rx=".4" ry=".4" transform="translate(11.6 -4.9) rotate(2.8)"/>
    <rect class="st7" x="101.1" y="246" width="12.6" height="1.5" rx=".4" ry=".4" transform="translate(12 -4.9) rotate(2.8)"/>
  </g>
  <g>
    <rect class="st12" x="83.4" y="225.8" width="17.8" height="6.4" rx="2.5" ry="2.5" transform="translate(15 -5.5) rotate(3.7)"/>
    <path class="st23" d="M86.2,226.4h12.4c1,0,1.8.8,1.8,1.8h0c0,1-.8,1.7-1.7,1.7h-12.6c-1,0-1.7-.8-1.7-1.7h0c0-1,.8-1.8,1.8-1.8Z" transform="translate(15 -5.5) rotate(3.7)"/>
    <rect class="st7" x="86.3" y="224.3" width="12.6" height="1.5" rx=".4" ry=".4" transform="translate(14.8 -5.5) rotate(3.7)"/>
    <rect class="st7" x="85.8" y="232.2" width="12.6" height="1.5" rx=".4" ry=".4" transform="translate(15.3 -5.5) rotate(3.7)"/>
  </g>
  <g>
    <g>
      <path class="st45" d="M99.7,336c22.5,40.9,52.4,86.2,74,126.5.7,1.4,1.6,2.7,2.4,4.1,0,.4-2.1,1.4-2.6,1.7l-76.5-130.8c.9-.6,1.9-1,2.7-1.6Z"/>
      <path class="st45" d="M89.9,318.5l5.3,8.3c-.2,0-2.4,1.4-3,1.8-4.1-10.7-10.8-4.1-4.8-9,2.5-1.6,2.5-1,2.6-1.1Z"/>
      <path class="st45" d="M101.5,333.3c.3,1.2-.9,2-1.7,2.6-.8.6-1.9,1-2.7,1.6-1.6,1.1-7,4.3-8.2,4.8-.9.4-2,.8-2.8,0l15.4-9Z"/>
      <path class="st45" d="M91.2,316.6c-.2.9-.6,1.5-1.3,2-.1,0-.1-.5-2.6,1.1-1.9,1.2-8.1,5-9.4,5.5-.4.1-.7.5-1.1.6-1.3-.2-1.3-.6-1.5-.8,5-2.5,10.9-7.4,15.8-8.4Z"/>
      <path class="st41" d="M101,358c.4-.2,4.5,6,4.9,6.7,8.1,12.6,45.4,76.4,52.8,90.2.4.8,4.3,8.2,3.9,8.5-1.5-1.4-3.8-5-5.1-7-8.5-13.3-46-77.3-53.1-90.8-.4-.7-3.8-7.3-3.4-7.6Z"/>
      <path class="st41" d="M80.3,316c-1.2.7-2.4,1.4-3.6,2.1-.6-2.2-1-1.7-1.1-1.8-.8-1.7-1.4-3.5-2.5-5,.3-7.4,5,.5,7.2,4.7Z"/>
      <path class="st19" d="M73.1,311.3c1.2,1.6,1.7,3.3,2.5,5,.7,4.5-6.5-6.6-4.2-6.9.6,0,1.4,1.4,1.7,1.9Z"/>
      <path class="st41" d="M81.7,324.2c3.1-3.3,7.6,5.3,6.4,6.8-3.3,4.2-8-5.1-6.4-6.8Z"/>
    </g>
    <g>
      <path class="st45" d="M75.5,280.7c.9.8,4.6,5.6,5.1,5.6l26.2-12.5c4.6,9.1,1.4,6-5.8,9.1-6.5,2.8-12.8,6-19.2,8.8l-1.6,7.3,7.4,12.6c-.1,0-1.5.9-2.1,1.2-3.8-7-12.1-5.9-18.7-4.9l-.4-.6c4.2,0,11.5-3.4,12.9-7.8-2.3.6-4.2,3-4.7,1.7,1-.9,2.7-2.8,3.2-3.9,2.7-5.8,0-9.3-3.3-13.5-1.2-1.5-2.3-3.5-4.3-4.6,10.9-31.2,7.3-61.5-30.6-66.8,6.8-.6,14.1.7,20.1,3.9,25,13.1,21,40.9,13,63.1,1,1.1,2.7,1.3,2.8,1.4Z"/>
      <path class="st45" d="M59.2,304.8c-7.9,5.9-16.2,11.3-23.3,18.1-1.4.3-4.1-4.1-4.9-5.3l23.2-17.6c.7,0,2.7,3.1,5,4.8Z"/>
      <path class="st21" d="M73.8,283.3l-3.4-.2c3.9,2.8,6.2,6.6,5.9,11.6-.2,3.1-2.9,7.5-5.8,8.5-5.1,1.6,1-1.9,2.7-4.4,3.5-5.2.9-10.7-3.5-14,0,0,.3-.6,0-.8-6.6-4.2,0,2.8,1,5.1,1.7,4.3-1.3,11.2-5.7,12.9-.9-.8-.2-1.1-1.4-2-8.1-6.3-1-10.6-2.8-12.4-1.6-1.6-3.8,2.9-4,4.2h-.8c1.2-9.4,12.2-12.4,17.8-8.4Z"/>
      <path class="st29" d="M73.8,283.3c.2.1.2.7.7.4,3.2,4.2,6,7.8,3.3,13.5-.5,1.1-2.2,3-3.2,3.9-7.7,6.5-19.9,1.3-18.5-9.5h.8c-1.2,7.6,8.1,12.8,6.8,8.1,1.2.9.5,1.2,1.4,2,4.4-1.7,7.4-8.5,5.7-12.9-.9-2.3-7.6-9.3-1-5.1.3.2,0,.8,0,.8,4.4,3.3,7,8.7,3.5,14-1.7,2.6-7.7,6.1-2.7,4.4,2.9-1,5.6-5.4,5.8-8.5.3-5-2-8.7-5.9-11.6l3.4.2Z"/>
      <g>
        <g>
          <path class="st42" d="M89.8,313.4c-.2-.3.5-1.1-.4-2-.7-.3-1.3,0-2,.1-.1,0-1.5.9-2.1,1.2-3.8-7-12.1-5.9-18.7-4.9l6.9,11.8c-.2.2-.8,1.2-.8,1.5.5,1.2,1.2,1.3,1.3,1.5.4.8,1.1,2.2,1.4,2.4,5-2.5,10.9-7.4,15.8-8.4.4-2-.6-1.8-1.5-3.2ZM75.7,316.3c.7,4.5-6.5-6.6-4.2-6.9.6,0,1.4,1.4,1.7,1.9.3-7.4,5,.5,7.2,4.7-1.2.7-2.4,1.4-3.6,2.1-.6-2.2-1-1.7-1.1-1.8Z"/>
          <path class="st42" d="M99.9,330.6c-.5-1-.4-1.1-1.2-2.1-1.2-1.5-.9-2.4-3.4-1.7-.2,0-2.4,1.4-3,1.8-4.1-10.7-10.8-4.1-4.8-9-1.9,1.2-8.1,5-9.4,5.5l5.3,9.1c-.5.4-1,.7-1.2,1.3,0,1.7,1.1,1.8,1.2,2,.5,1,.5,1.2,1.2,2.1.6.8,1.2,2.3,1.6,2.7l15.4-9c-.5-.9-1.1-1.8-1.6-2.7Z"/>
          <path class="st42" d="M97,337.6c-1.6,1.1-7,4.3-8.2,4.8l73.9,126.2,3.1,4.3c2.5-1.6,5.3-2.9,7.7-4.5l-76.5-130.8Z"/>
          <path class="st42" d="M80.6,286.2l26.2-12.5c-1-1.9-6.2-11.5-8.3-11-6.9,6.9-15.2,12.1-23,17.9.9.8,4.6,5.6,5.1,5.6Z"/>
          <path class="st42" d="M79.2,299.4c-2.3.6-4.2,3-4.7,1.7-7.7,6.5-19.9,1.3-18.5-9.5,1.2-9.4,12.2-12.5,17.8-8.4.2.1.2.7.7.4-1.2-1.5-2.3-3.5-4.3-4.6,10.9-31.2,7.3-61.5-30.6-66.8-35.6,2.9-49.5,48.8-17.6,68.6,13.3,8.2,29.9,9,30.9,10.4,0,.1,0,2.5-.5,2.9-.7.6-14.1,6.6-16.3,7.5-9.4,4.1-15.2.9-5.1,16l23.2-17.6c.7,0,2.7,3.1,5,4.8,1.5,1,5.4,2.4,7.1,2.4,4.2,0,11.5-3.4,12.9-7.8ZM21.4,266.6c-10.1-11.6-8.3-32.7,9.3-41,7.5-3.5,16.6-3.6,23.8.5,20.4,11.5,12.8,34.8,8,52.8-1.6,1-3.4,1.9-5,2.9-9.9-2-29.5-7.7-36.1-15.2Z"/>
        </g>
        <g>
          <path class="st45" d="M30.7,225.6c-17.6,8.3-19.4,29.5-9.3,41,6.6,7.5,26.2,13.2,36.1,15.2,0,0-.2,1.4-1.1,1.9h-1.6c-13.6-3.5-34.2-7.7-40.7-21.8-3.7-8-2.5-20.3,3-27.2,2.6-3.2,10.1-9.6,13.5-9.1Z"/>
          <path class="st19" d="M17,225.5c7.9-5.8-2.3,4.7-5.3,12.5-8.1,21.3,5.9,34.3,6.7,36.1,1.4,2.9-5.7-2.8-8.7-8.7-5.9-11.5-3.5-31.8,7.4-39.9Z"/>
          <path class="st19" d="M70.7,241.6c4.1,5.2-2.5,36.4-4.3,37.1-.8,0-.7-.4-.8-1-.2-1.8,6.4-26.4,5.1-36.1Z"/>
          <path class="st19" d="M30.5,309c1.1-1.2,19.7-10.5,20.2-8.8-2.2,2.4-19.3,12-20.5,10.8-.6-.6-.2-1.6.3-2Z"/>
        </g>
      </g>
      <path class="st27" d="M63.6,299.8c1.3,4.6-8.1-.5-6.8-8.2.2-1.3,2.5-5.8,4-4.2,1.7,1.8-5.3,6.1,2.8,12.4Z"/>
    </g>
  </g>
  <g>
    <path class="st28" d="M101.5,354.5c3-.4,16.1-8.2,16.5-1.7.3,4.9-19,11-23.2,11.2,12.6.9,22.6-7.7,24-8,4.2-.8,7.7,1.2,5.7,5-2.6,4.9-24.8,7.9-26.5,11.5-5.4-.1-7.5-7.1-9.5-11-.8-4.1-3.3-18.5-.5-19,3.4,4.2,6.7,8.5,10.2,12.5,1.1-.3,2.2-.3,3.2-.5Z"/>
    <path class="st28" d="M127.5,369.5c.2,1.7,10.9.8-6.5,13.7,2.3-1.7-14.4,4-14.5,3.7,5.6,1.1,16.6-4.7,11.2-4-.8.1-10.1,6.6-14.2-1,7-5.4,16.5-7.4,24-12.5Z"/>
    <path class="st8" d="M98,372.5c-1.1,2.3,1.4,6,3.7,6.5,3,.7,22.1-7.6,25.2-11,.2,1,.5,1.3.5,1.5-7.5,5.1-17,7.1-24,12.5-.6.4-1.4.6-2,1-7.8-6.5-11.2-11.7-13-21.5,2,3.9,4.1,10.9,9.5,11Z"/>
    <path class="st9" d="M106.5,387c-2.5-.5-3.4-2.7-5-4,.6-.4,1.4-.6,2-1,4.2,7.6,13.4,1.1,14.2,1,5.4-.7-5.7,5.1-11.2,4Z"/>
    <path class="st28" d="M127.5,364c.5,2.1-.5,3.8-.5,4-3.1,3.4-22.2,11.7-25.2,11-2.4-.5-4.9-4.2-3.7-6.5,1.1,0,14.8-4.1,17.2-5,6.3-2.3,8.8-7.2,12.2-3.5Z"/>
    <path class="st8" d="M127.5,364c-3.4-3.7-6,1.2-12.2,3.5-2.5.9-16.1,5-17.2,5,1.7-3.6,23.9-6.5,26.5-11.5,1.3,1.3,2.4.8,3,3Z"/>
  </g>
</svg>