<?xml version="1.0" encoding="UTF-8"?>
<svg id="Layer_1" xmlns="http://www.w3.org/2000/svg" xmlns:xlink="http://www.w3.org/1999/xlink" version="1.1" viewBox="0 0 310 491">
  <defs>
    <style>
      .st0 {
        fill: none;
      }

      .st1 {
        fill: #c45f41;
      }

      .st2 {
        fill: #223b4c;
      }

      .st3 {
        fill: #c05e58;
      }

      .st4 {
        fill: url(#linear-gradient2);
      }

      .st5 {
        fill: url(#linear-gradient1);
      }

      .st6 {
        fill: #232323;
      }

      .st7 {
        fill: #f9e4c0;
      }

      .st8 {
        fill: #8e3226;
      }

      .st9 {
        fill: #f7b750;
      }

      .st10 {
        fill: #a34737;
      }

      .st11 {
        fill: #cf99ce;
      }

      .st12 {
        fill: #997249;
      }

      .st13 {
        fill: #a1a2a3;
      }

      .st14 {
        fill: #23110a;
      }

      .st15 {
        fill: #281a26;
      }

      .st16 {
        fill: #39373a;
      }

      .st17 {
        fill: url(#linear-gradient);
      }

      .st18 {
        fill: #f0935d;
      }

      .st19 {
        fill: #77b7c6;
      }

      .st20 {
        fill: #bdeded;
      }

      .st21 {
        fill: #c12e4b;
      }

      .st22 {
        fill: #507382;
      }

      .st23 {
        fill: #2e5162;
      }

      .st24 {
        fill: #ddcfe4;
      }

      .st25 {
        fill: #6c89a7;
      }

      .st26 {
        fill: #755e52;
      }

      .st27 {
        fill: #e5fdfe;
      }

      .st28 {
        fill: #dcbdd8;
      }

      .st29 {
        fill: #2e643c;
      }

      .st30 {
        fill: #fbf4d7;
      }

      .st31 {
        fill: #a66bb7;
      }

      .st32 {
        fill: #fbfbfc;
      }

      .st33 {
        fill: #281f30;
      }

      .st34 {
        fill: #dafae9;
      }

      .st35 {
        fill: #f1b492;
      }

      .st36 {
        fill: #c386c3;
      }

      .st37 {
        opacity: .2;
      }

      .st37, .st38 {
        fill: #7aebe9;
      }

      .st39 {
        fill: #2f6170;
      }

      .st40 {
        fill: #c9892d;
      }

      .st41 {
        fill: #e6794d;
      }

      .st42 {
        fill: #41c4a7;
      }

      .st43 {
        fill: #9bd8e6;
      }

      .st44 {
        fill: #3b4f5d;
      }

      .st45 {
        fill: #511407;
      }

      .st46 {
        fill: #c392c2;
      }

      .st47 {
        fill: #0e1016;
      }

      .st48 {
        fill: #661b6a;
      }

      .st49 {
        fill: #17ae9d;
      }

      .st50 {
        fill: #d53a5c;
      }

      .st51 {
        fill: #fff2dc;
      }

      .st52 {
        fill: #95409b;
      }

      .st53 {
        fill: #46ded9;
      }

      .st54 {
        fill: #1d222d;
      }

      .st55 {
        fill: #29999b;
      }

      .st56 {
        fill: #353535;
      }

      .st57 {
        fill: #fad5b3;
      }

      .st58 {
        fill: #309c97;
      }

      .st59 {
        fill: #120f12;
      }

      .st60 {
        display: none;
      }

      .st61 {
        fill: #320532;
      }

      .st62 {
        clip-path: url(#clippath);
      }

      .st63 {
        fill: #1d121b;
      }

      .st64 {
        fill: #4e0b1b;
      }
    </style>
    <linearGradient id="linear-gradient" x1="103.3" y1="272.9" x2="240.5" y2="408.4" gradientUnits="userSpaceOnUse">
      <stop offset="0" stop-color="#1a252d"/>
      <stop offset="1" stop-color="#060103"/>
    </linearGradient>
    <linearGradient id="linear-gradient1" x1="34" y1="319.3" x2="257.4" y2="319.3" gradientUnits="userSpaceOnUse">
      <stop offset="0" stop-color="#4e6673"/>
      <stop offset=".2" stop-color="#354550"/>
      <stop offset=".9" stop-color="#292a34"/>
    </linearGradient>
    <linearGradient id="linear-gradient2" x1="3474.2" y1="2635.9" x2="3594.4" y2="2754.6" gradientTransform="translate(-3365 -2359.4)" xlink:href="#linear-gradient"/>
    <clipPath id="clippath">
      <rect class="st0" x="72" y="211.2" width="147.5" height="202.5" rx="5.8" ry="5.8" transform="translate(458.2 166.7) rotate(90)"/>
    </clipPath>
  </defs>
  <g>
    <path class="st18" d="M186.4,116.3l4.9,22.5s2.5,3.5,3.9,2.9c4-1.7,6.9-8.8,6.9-16.7s-3.9-13.7-3.9-13.7l-11.8,4.9Z"/>
    <g>
      <g id="Background" class="st60">
        <path class="st13" d="M127.6,469.7c-75.1,0-150.2,0-225.3,0V-31.9h501.6v501.6c-61.6,0-123.1,0-184.7,0q1-5.9,2-11.8c4.6-1.7,10-3.9,14.2-6.4,3.4-1.9,7-3.7,8.3-7.6-.6-6.8-2.3-13.3-3.9-19.8,77.1-55.1,98.3-138.1,34.3-214.1.4-.1,3.7,0,8.6-2.9,11.1-6.8,13.7-20.2,8.6-31.6,19.3-4,26.2-26.5,11.3-39.7,1.3-4.5,0-9.5-3.4-12.7,17.7-14.6,14-39-6.4-48.5,3.4-16.2-12.7-28.6-27.9-27.4,3.9-20.7-13.2-37.8-33.1-27.7C215.1,1.8,186.8-6.5,164.6,5.3c-20.4-20.6-67.5-13.7-81.3,11.8-16.2-13-42.5,1.6-37,22.3l-11.5,10c-15.1,1.6-24.8,18.8-17.9,32.6-16.2,8.2-18.2,30.8-2,40.2-18.2,4.7-26.3,30.9-7.8,40.7-3.2,17,13.3,21.2,13.7,22.5-2.8,7.9-1.6,15.1,3.9,21.3-34.4,27.5-50.4,73.7-44.1,116.8,7.1,48.2,45.1,84.4,84.7,109-.6,4.3-1.8,8.6-1.5,13,2.4,2.9,4.8,4.6,7.8,6.6,14.4,9.7,37.4,12.9,54.4,14.7l1.5,2.9Z"/>
      </g>
      <g>
        <g>
          <path class="st59" d="M220.7,117c-3.1-1.7-1.7,4.7-10.8,5.4,0-7.4-1.4-10.3-6.9-15.4l.7-.7c2.2.7,15.1,6.2,15.7,6.9.9,1,.8,2.3,1.2,3.9Z"/>
          <path class="st59" d="M220.7,117c.5,1.8.2,4.8,1,5.4-1.1.3-8.7,7.8-12.2,7.3.4-2.2.5-5.1.5-7.3,9.1-.6,7.7-7.1,10.8-5.4Z"/>
        </g>
        <g>
          <path class="st59" d="M71.3,50.9c-1.6,2-3.5,3.7-4.9,5.9.2-1.4.7-2.7.5-4.2-1.5-.5-9.9-7.1-10.3-7.6-.3-.4-2-8.3-2-9.1.1-4,2.9-8.1,5.9-10.5-6,13.4,9.4,19.2,10.3,21.8.5,1.5-1.1,3.4.5,3.7Z"/>
          <path class="st59" d="M281.4,65.1c4.2,7,2.8,10.3,0,17.9,4.6,1.1,5.3.4,9.8,2.7l-.2,1c-1-2-.6,1.7-5.9-1.5-1.2,5.5-7.2-2.5-4.7,5.1-6.6,3-2.2-16.6,2-17.6.3-.8-5.5-11.1-1-7.6Z"/>
          <path class="st15" d="M37,159.6c-.3.1-1.5,1.8-5.1,2.9-.6-.1-4.5-10.2-4.7-10.8-1.7-8.2,2.6-10.9,3.4-12.2q6.9-4.5,13.7-9.1-.5-4.5-1-9.1c.1-2.8-8.2-7-13.7-10.8-2.2-4.5-1.1-10.1,2-14.2,8.7-3.9,19.5-1.7,19.6-8.1,0-.5-2.2-5.9-2.4-10-.7-11,14.4-13.1,15.7-14.5.5-.6,1.8-5.8,2-7.1,1.4-2.2,3.3-3.9,4.9-5.9,2.2-2.8,3.7-.4,2-9.1,15.8-17.6,14.9-11,37-8.1,3.3-.8,3.3-15,10.3-16.2,9.8-1.7,12.3,10.6,8.3,13.7-3.8,3-3.3-2.7-6.9-7.8-3.9,23.2-18.2,15.5-35.8,13.2-8.7,6-4.6,10.4-5.6,13.5-.3.8-7.8,7.3-8.3,8.3-3.1,6.6,5.3,5.4-17.1,17.1-2.4,6.1,9.3,16.7-7.1,23.8-4.7,2-17.1,2.2-13.7,6.4,2.7,3.4,15.7,6.2,16.4,17.9,1.5,23.3-27.7,10.5-13.7,36Z"/>
          <path class="st15" d="M283.9,156.2c-.1-.1-.3-.3-.5-.5-.3-18.8-12.5-12.8-19.8-17.6-4.7-3.1-8-19.9,14.5-18.9,5.7,8.2-14.3,6.5-12.2,10.8.5,1,15.5,6.2,17.6,8.8,3.1,3.7,3.1,14.3.5,17.4Z"/>
          <path class="st63" d="M30.6,139.5c-.8,1.4-5.1,4-3.4,12.2-5.9-2.1-15.4-2.7-14.2-11,1.9-13.4,16.1-1.2,17.6-1.2Z"/>
          <path class="st63" d="M43.4,121.4q.5,4.5,1,9.1-6.9,4.5-13.7,9.1c.5-.9,2.2-2.1,2.4-2.7,2.1-5.5-4.5-9.6-3.9-15.2l14.2-.2Z"/>
          <g>
            <path class="st59" d="M75.2,117q-.6,4.9-1.2,9.8c-3.2-2-6.8-1.6-8.6-5.4q4.9-2.2,9.8-4.4Z"/>
            <path class="st49" d="M86.5,113.1c-1.4,3.6-2.8,5.6-2.9,9.8-3.5,2-1.2-8.7,3.4-12q-.2,1.1-.5,2.2Z"/>
          </g>
          <g>
            <path class="st63" d="M294.2,140.7c1.5-17.2-7.7-17.2-8.3-18.1-3.1-4.3,5.7-3.9,10.3-9.3,7-8.2,4.9-22.7-4.9-27.7l-.2,1c-1-2-.6,1.7-5.9-1.5-1.2,5.5-7.2-2.5-4.7,5.1-6.6,3-2.2-16.6,2-17.6.3-.8-5.5-11.1-1-7.6-3.9-6.5-11-9.6-18.4-6.4-2.8-.6,1-6-10-12,8.6-15.9-11.6-28.8-21.8-14-18.1-20.3-43.3-29.3-68.6-15.7-17.2-19.5-49.6-17.1-67.4.2-1.7,1.7,0,4.1-13,9.6-2,0-10.2-11.1-21.8-1.5-6,13.4,9.4,19.2,10.3,21.8.5,1.5-1.1,3.4.5,3.7,2.2-2.8,3.7-.4,2-9.1,15.8-17.6,14.9-11,37-8.1,3.3-.8,3.3-15,10.3-16.2,9.8-1.7,12.3,10.6,8.3,13.7-3.8,3-3.3-2.7-6.9-7.8-3.9,23.2-18.2,15.5-35.8,13.2-8.7,6-4.6,10.4-5.6,13.5-.3.8-7.8,7.3-8.3,8.3-3.1,6.6,5.3,5.4-17.1,17.1-2.4,6.1,9.3,16.7-7.1,23.8-4.7,2-17.1,2.2-13.7,6.4,2.7,3.4,15.7,6.2,16.4,17.9,1.5,23.3-27.7,10.5-13.7,36-.3.1-1.5,1.8-5.1,2.9-.6-.1-4.5-10.2-4.7-10.8-5.9-2.1-15.4-2.7-14.2-11,1.9-13.4,16.1-1.2,17.6-1.2.5-.9,2.2-2.1,2.4-2.7,2.1-5.5-4.5-9.6-3.9-15.2l14.2-.2c.1-2.8-8.2-7-13.7-10.8-2.2-4.5-1.1-10.1,2-14.2,8.7-3.9,19.5-1.7,19.6-8.1,0-.5-2.2-5.9-2.4-10-.8,0-1.5,0-2.3,0,.7,0,1.5,0,2.3,0-.7-11,14.4-13.1,15.7-14.5.5-.6,1.8-5.8,2-7.1.2-1.4.7-2.7.5-4.2-1.5-.5-9.9-7.1-10.3-7.6-1.2.2-2.4.9-3.4,1.5-.6.9-1.1,1.8-1.5,2.7.4-.9.9-1.8,1.5-2.7-7.9,4.3-5.3,3.6-9.1,11.3-18.8-1.5-25.8,16.8-12.5,29.6-2.6.8-5.2,1.1-7.8,2.2-2,.8-3.3,1.4-4.9,2.9-9.3,8.8-5,21.1,5.9,25.7.7,1.8-4,4.5,0,13.7-18.5-2.1-25.1,18.8-7.8,26.9-3.7,9.1,2.9,21,13,17.4,8.1,8-2,8-.2,19.4,1.4,8.8,13.9,14.4,21.3,9.1,10.5,4.4,5.4,5.1,9.1,10,4.6,6.4,16.1,5.8,21.3.2,1.4.3.7,13.8,19.6,11.3,4.6-8,6.1-2.4,13.2-5.9,5.3-2.6,5.2-9.7,10.5-4.9,2.8-4,4.4-9,8.3-12.2,0-.7.1-.9.5-1.5-7.5-1.3-26.3-15.4-32.4-20.8-10.2-9-16.2-17.1-16.1-30.9.2-.6-.4-8.2-1.5-10.5-.4-.8-.3-9.2,0-16.7-3.5,2-1.2-8.7,3.4-12q-.2,1.1-.5,2.2c.2-.4,1.4-3.3,1.5-3.4,1.4-2.5,2.5-6.9,6.4-5.6q-1-1.3-2-2.7c1-9.3,7.8-31.6,17.1-35.8,5.5-2.5,10.8,1.1,17.4-8.3,22.5,12.7,31.1-2.3,32.8-2.9,6.8-2.5,8.7,5.2,9.1,5.6,7.8,8.8,15.8,5.5,22.5,17.6,2.6,4.8,3.5,11.1,6.4,15.7,1.2,2-.8,16.3.4,19.2,4.5,10.1,3.9,20.6,1,25.2,6.5-10.4,1.7,3.6,7.8-2,.6-1.2,2.3-5.2,2.4-5.9.4-2.2.5-5.1.5-7.3,0-7.4-1.4-10.3-6.9-15.4l.7-.7c2.2.7,15.1,6.2,15.7,6.9.9,1,.8,2.3,1.2,3.9.5,1.8.2,4.8,1,5.4,11.5-2.8,16.8,18.6,3.2,29.9-10.5,8.8-16.2-2.4-22.8,7.6-.3.5-.9,4.6-5.4,11-6.1,8.7-16.3,15.1-25.5,20.1,1.2,2.8,1.6,5.9,2.4,8.8.7,2.3,1.9,5.1,2,5.4,5.6.6,7.8,6.5,10.8,8.3.6.3,3.5.9,4.7,1,6.9,13.5,25.1,10.4,29.4-3.9,9.5,10,23.9,11.9,27.9-3.9,7.2,0,12.3.8,17.1-5.4,18,1.9,24.8-16.1,12-28.2q3.1-4,6.1-8.1c6.1,1.5,11.7.1,14.9-5.4,4.1-7,2.1-14.3-4.4-18.9ZM50.6,51.7c-.3.8-.5,1.6-.7,2.3.2-.7.4-1.5.7-2.3ZM34.3,60.6c.5-.2,1.1-.4,1.7-.5.6,0,1.1-.1,1.7-.1-.6,0-1.1,0-1.7.1-.6,0-1.1.2-1.7.5-.4.2-.8.4-1.1.6.4-.3.8-.5,1.1-.6ZM29.7,67c.1-.5.3-1,.4-1.5-.2.5-.3,1-.4,1.5-.2.8-.2,1.6-.1,2.4,0-.8,0-1.6.1-2.4ZM283.9,156.2c-.1-.1-.3-.3-.5-.5-.3-18.8-12.5-12.8-19.8-17.6-4.7-3.1-8-19.9,14.5-18.9,5.7,8.2-14.3,6.5-12.2,10.8.5,1,15.5,6.2,17.6,8.8,3.1,3.7,3.1,14.3.5,17.4Z"/>
            <g>
              <path class="st15" d="M175.4,19c12.3-1.2,21.3,20,44.6,12.2,11.3,15,20.8,10.4,15.9,28.7,2.5,1.2,12.2,9.8,13,10,5.4,1.9,21.3-2.9,16.4,16.9,4.6,1.6,21,8,23,11.8,2.3,4.3.7,12.7-4.2,14.5-11.4,4-.8-9.4-1.2-11-12.2-11.2-29.3-.8-22.5-24q-6.5-.6-13-1.2c-8.2-10.8-13-7.9-15.9-11.5-7.9-9.5,12.3-22.2-19.4-17.9q-1.2-4.2-2.4-8.3c-12,.4-22.5-6.5-31.8-13.2-4.2-.3-16.8,7.9-14-.7.6-1.9,9.4-5.9,11.5-6.1Z"/>
              <path class="st61" d="M221.4,37.1c3-.2-2.5,2.1-3.4,2.4-11.8,4.3-3.4-1.9,3.4-2.4Z"/>
            </g>
          </g>
        </g>
        <g>
          <g>
            <path class="st41" d="M199.1,162.1c-6.3,16.4-48,36.6-60,36.3-15.3-.5-45.6-25.4-49.2-41.4,5.4,1.1,10.9,1.2,16.2-.2.6.8,3,3,6.4,8.3,6.8,10.8,10.9,22,26.5,20.1,12.4-1.5,15.4-9.9,19.1-14.2,3.2-3.6,6.7-7.1,9.8-10.8,3.5.9,7.5,1.4,11,1,2.1-.3,11.6-4,10.5-5.9,2.3-1.1,8.1-5.5,9.8-7.3,1.9,4.4,1.8,9.6,0,14.2Z"/>
            <path class="st3" d="M189.3,155.2c1,1.9-8.4,5.6-10.5,5.9-3.6.4-7.5-.1-11-1,.4-.5.6-1.4,1-2,6.7,1.4,14.5,0,20.6-2.9Z"/>
            <g>
              <path class="st41" d="M196.7,170.9c-1.7-1.6,4.6-6,2.4-8.8,1.8-4.6,1.9-9.8,0-14.2,1.7-1.8,5.7-9.6,6.8-12,.6-1.2,3.3-5.5,3.5-6.2,3.5.5,11.1-7.1,12.2-7.3,11.5-2.8,16.8,18.6,3.2,29.9-10.5,8.8-16.2-2.4-22.8,7.6-.3.5-.9,4.6-5.4,11Z"/>
              <path class="st10" d="M223.6,141c1.9,6.9-4.7,7.7-7.1,6.4-2.4-1.4-3.6-10.1-2.2-13.2,4.1,1.7,8.5,10.5,9.3,6.9Z"/>
              <path class="st45" d="M223.6,141c-.9,3.6-5.2-5.1-9.3-6.9,2-4.4,16.5-7.4,14,4.4-1.3-9.6-9.3-5.6-9.6-4.7-.2.7,4.1,4,4.9,7.1Z"/>
            </g>
            <path class="st18" d="M166.8,158.6c-1.7.4-3.2,2-5.4,2.4-18.6,4-34.2,5.2-51.4-4.4-1-.5-2-1-2.9-1.5,14.2-3,24.6-18.8,24.2-32.8,20.8-1.9,7.4,3.4,17.9,22.3,4.3,7.8,9.9,10.5,17.6,14Z"/>
            <g>
              <path class="st64" d="M107,155.2c1,.5,2,.9,2.9,1.5,2.3,3.5,7.2,6.5,10.8,9.8.2.2,1,2.6,2.4,4.2.7.7,1.6,1.2,2.4,1.7-3.8,1.8-9.6-5.5-13.2-7.3-3.4-5.3-5.8-7.5-6.4-8.3,0,0,0-.7-.5-1.5.5,0,1,0,1.5,0Z"/>
              <path class="st64" d="M168.8,158.1c-.4.6-.5,1.4-1,2-3.1,3.7-6.6,7.1-9.8,10.8-1.5.2-5.9,1.1-6.9,1.5,2.2-2.5,4.6-4.9,6.9-7.3,1.2-1.2,2.6-2.5,3.4-3.9,2.2-.5,3.7-2.1,5.4-2.4l2-.5Z"/>
              <path class="st50" d="M158,170.9c-3.7,4.3-6.7,12.7-19.1,14.2-9.3-.5-18-11-12.7-12.2,11.6,7,19.8,1.4,25-.5.9-.3,5.4-1.3,6.9-1.5Z"/>
              <path class="st21" d="M125.7,172.3c.6.4.5.5.5.5-5.2,1.3,3.4,11.8,12.7,12.2-15.5,1.9-19.6-9.3-26.5-20.1,3.6,1.9,9.4,9.2,13.2,7.3Z"/>
              <path class="st21" d="M161.4,161.1c-.8,1.5-2.3,2.7-3.4,3.9-12,4.3-25,5.5-37.2,1.5-3.6-3.3-8.5-6.3-10.8-9.8,17.2,9.6,32.8,8.4,51.4,4.4Z"/>
              <path class="st32" d="M158,165c-2.3,2.4-4.6,4.8-6.9,7.3-5.2,1.8-13.4,7.5-25,.5,0,0,0-.1-.5-.5-.8-.6-1.8-1-2.4-1.7-1.5-1.6-2.3-4-2.4-4.2,12.2,4,25.2,2.8,37.2-1.5Z"/>
            </g>
          </g>
          <g>
            <g>
              <path class="st32" d="M182.5,134.1c1.7-1.9,1-1.5,1.5-3.4,0-.4,0-1,0-1.5,0-.1,1.3-.4,0-2.9,3,.6,6.8,4.4,6.9,6.4,0,7.2-19.3,8.2-27.7,1-4.2-3.6-.8-2.3.7-3.4,3.2-2.4,5.4-8.6,14.9-6.9,5.2.9-3.6,0-5.6,3.7-3.9,7.2,4.2,12.6,9.3,7.1Z"/>
              <path class="st27" d="M184,126.3c1.3,2.5,0,2.8,0,2.9q-.7.7-1.5,1.5c-6.4,1.4-4.9-5.7,1.5-4.4Z"/>
              <path class="st38" d="M184,130.7c-.4,2,.3,1.6-1.5,3.4-2.9-1.7,0-1.5.5-3.4h1Z"/>
              <path class="st29" d="M184,130.7h-1c-.2,0-.3,0-.5,0q.7-.7,1.5-1.5c0,.5,0,1,0,1.5Z"/>
            </g>
            <g>
              <path class="st63" d="M97.2,102.6c-6.7,8.5-8.1,30.5-7.8,29.4.5.7-4.5,20.3-4.9,19.6-3.9-6.9-9.8-21.6-2-37.2,1.9-3.8,9.2-11.4,14.7-11.8Z"/>
              <path class="st18" d="M199.1,137.6c4.7-10.7-8.1-4.9-8.3-4.9,0,7.2-19.3,8.2-27.7,1-4.2-3.6-.8-2.3.7-3.4-.6-4.5,3.2-8,6.8-10s5.9-1,8.8-1,6.9,2.9,9.4,5.6c.8,1,13.7-18.5,14-18.6.2,0,1.8-3.9,1.7-4.7-.2-1.7-5.6-6.4-6.9-8.3-2.9-4.6-3.7-10.9-6.4-15.7-6.7-12.1-14.8-8.8-22.5-17.6-.4-.5-2.3-8.2-9.1-5.6-1.7.6-10.4,15.6-32.8,2.9-6.6,9.5-11.9,5.9-17.4,8.3-8.4,10.6-21.2,43.6-21,43.3-1,3.9-3,8.8-3,13.3-.5,3.7-.6,12.8-1,13.7-3.9,8.8-1,18.6,0,20.6.1.3,14.4-.3,21.1-1.3.5,0,1,0,1.5,0,14.2-3,24.6-18.8,24.2-32.8,20.8-1.9,7.4,3.4,17.9,22.3,4.3,7.8,9.9,10.5,17.6,14l2-.5c6.7,1.4,14.5,0,20.6-2.9,2.3-1.1,8.1-5.5,9.8-7.3,1.7-1.8,6.8-9.8,7.8-12.2-6.1,5.6-1.1-8.4-7.8,2ZM123.2,126.8c-1.9-.4-.5,3.1-1,3.7-.9,1.2-3.2-1.5-3.9,1.2,0,.6,0,1.6,0,2,4.9,1.1-3.9,11.8-5.6,11.8-1.4,0-2.6-4.9-6.9-4.4-2,.2-10.3-1.6-15.1-8.9.4-2.7,1-7.5,1.1-7.8.1-.3-.2-1.5.5-2.7,4.2-7.3,20.4-8.9,27.9-8.6,2,3.9,3.1,9.3,2.9,13.7ZM170.4,93.4c-1.2,0-2.3,0-3.5.2,1.1-.1,2.3-.2,3.5-.2ZM160.7,95.1c-.5.2-1,.5-1.3.8.4-.3.8-.5,1.3-.8Z"/>
              <path class="st32" d="M108.5,123.8c-16.3,3.9,1.1,19.4,4.9,7.3.6-1.9.6-3.4.5-5.4.5,0,3.3,2.8,3.9,4.4,0,.2.5,1.4.5,1.5,0,.3,0,.6,0,.9s0,.8,0,1c-1.7,5.8-18.2,5.2-25,2.9-2.4-.8-2.7-3.4-2.4-5.4.8-6.7,15.8-10.3,17.6-7.3Z"/>
              <path class="st41" d="M120.3,113.1c-7.6-.3-23.7,1.2-27.9,8.6-.7,1.2-.4,2.4-.5,2.7,6.7-9.7,27.2-7.2,26,5.9,0,.2.8,1.7,0,4.4-3.2,4.7-18.8,3.5-24.5,2-.4,0-2.6-1.1-1.5.5,3.4,4.7,11.4,7,14.2,7.6,3.9,1,5.3,1.1,6.7.7,8-2.6,10-14.4,10.5-18.6.4-3.5-.9-9.8-2.9-13.7Z"/>
              <path class="st20" d="M113.4,131.2c-2.2,2.6-4.8,1.4-3.4-2,2-.4,2.8-3.4,3.9-3.4,0,2,.1,3.5-.5,5.4Z"/>
            </g>
          </g>
        </g>
      </g>
    </g>
    <path class="st59" d="M88.4,137.9"/>
    <path class="st1" d="M85.4,146.7c4.9,5.1,13.4,9.5,20.1,8.5.6.7.4,1.4.5,1.5-5.2,1.4-10.8,1.3-16.2.2,3.6,16,34,40.9,49.2,41.4,12,.4,53.8-19.8,60-36.3,2.1,2.9-4.1,7.2-2.4,8.8-6.1,8.7-16.3,15.1-25.5,20.1-10.6,5.8-25.5,12.9-37.7,10.8-7.5-1.3-27.5-13.7-33.6-19.1-9.6-8.5-17.6-23.1-17.4-36.9,0,0,2.8,1,2.9,1Z"/>
    <path class="st1" d="M97.2,98.4c-1.7.9-7.4,9.9-8.9,11.1,1-9.3,10.8-41.2,21.1-43.9,13.1-3.5-4.4,4.4-10.3,23.8-.9,2.8-.9,6.2-2,9.1Z"/>
    <g>
      <path class="st41" d="M135.5,155.7c-4.1-.2-7.6-2.8-10.3-5.4-1.9-10.1,3.3-.9,5.6.5,6.1,3.6,17.7-.3,4.7,4.9Z"/>
      <path class="st45" d="M125.2,150.3c2.7,2.6,6.2,5.2,10.3,5.4,3.7.2,14.2-5.6,8.6-1-10.5,8.7-26.4-6.7-20.6-6.9.5,0,.4,1.2,1.7,2.4Z"/>
    </g>
    <path class="st41" d="M168.8,106.2c2.9-.3.8.7-3,2.3-5.9,2.5-9.8,6.9-6.8,20,.1.5-.4.4-.7.7q-4.5-1.5-9.1-2.9c-.4-15.6,5.8-18.8,19.6-20.1Z"/>
    <path class="st1" d="M221.6,150.6l1,2c1,2-2.9,2.9-2.9,2.9-1.1.4-2,1-2.9,0l1-4.9c1-2,3.6-.4,3.9,0Z"/>
    <path class="st41" d="M205,101.6c-.2-3.8-4-3.8-6.9-7.8-2.4-3.4-3.8-11.3-3.9-11.8-2.9-9.8-11.8-13.7-11.8-13.7,0,0,13.7,16.7,8.8,39.2-.6-.1-4.1-2.1-4.8-2.3-5.4.7-1,1.6,1.5,6.1,3.3,5.9,5.1,13.1,3.4,19.8,0,.3,0,1.8,0,1.8,0,0-1,2.1-2,2.9-4.9,3.9-14.6,2.8-17.6,2-1.9-.5-4.9-2-4.9-2,0,0,2.9,8.8,19.6,8.8s14.1-12.6,14.7-15.7c.9-4.4,0-9.8-2.9-15.7-.1-.2,7-9.9,6.9-11.8Z"/>
    <g>
      <path d="M87.4,110.8c0,.3.5,0,1-.4,5.9-3.9,8.8-5.9,10.8-6.9,3.9-2,6.5-2.1,6.9-2.1,3.7-1.2,17.3,3.5,12.5-3.7-4.4-6.6-16.7-1.6-22,1.2-1.7.9-9.1,7.5-9.1,11.8Z"/>
      <path d="M185.6,105.9c.6.6.7-2.3.2-3.9-4-10.7-26.9-8.8-28.2-4.2-2,6.9,10.2,1.2,21.1,3.9,2.7.9,3.7.9,6.9,4.2Z"/>
    </g>
    <g>
      <path class="st20" d="M222.6,158.4c0-2,0-4.9-1-5.9s-1.8-2-2.9-1-1.8,4.5-2,6.9c0,.8.4,3.3,1,3.9,1.9,1.5,3.2,1.3,3.9.2,2-3.1,1-2.7,1-4.1Z"/>
      <path class="st38" d="M223.1,157.6c-.2-2.7-.4-4.7-1.5-5.1-2.9-1-1,2.9-3.9,4.9-1.2.8-.5,3.3,0,3.9,3.3,4,5.6-1,5.4-3.7Z"/>
    </g>
    <path class="st1" d="M191.7,122.1c0,.3-.4.6-.5.4-3.9-7.2-16.8-9-21.8-6.6-3,1.4,7.3-8,17-3.6s5.1,7.8,5.4,9.8Z"/>
    <path class="st14" d="M197.9,125.9c-4.3,1.2-7.1.8-8.6-.7-.4-.4-.7-.7-1.1-1-6.8-9.7-25.4-4.8-24.4,6.1,3.2-2.4,5.4-8.6,14.9-6.9,5.2.9-3.6,0-5.6,3.7-3.9,7.2,4.2,12.6,9.3,7.1-2.9-1.7,0-1.5.5-3.4-.2,0-.3,0-.5,0-6.4,1.4-4.9-5.7,1.5-4.4,3,.6,6.8,4.4,6.9,6.4.4,1.3-.6,2.3-.5,2.3,1-1,2-2.9,1-3.6,2.3,0,6.6-5.4,6.6-5.4Z"/>
    <path class="st1" d="M91.3,123.2s4.3-5.5,7.8-6.9c5.5-2.2,18.6-3.9,21.6-2.9,3,1-11.4-4.5-20.8-1-1.3.5-3.5,1.7-4.7,3-3.9,3.9-3.9,7.8-3.9,7.8Z"/>
    <path class="st14" d="M92.5,123.5h0c-3.1,2.7-7.2.4-7.2.4,0,0,1.4,3.5,4.6,4.2.1,0,.3,0,.5.1,0,1.8,0,2.2.6,3,.8-6.7,15.8-10.3,17.6-7.3.1.1.2.2.3.3.2.2.2.4,0,.5.2,0,.2-.2,0-.5,0,0-.2-.2-.3-.3-16.3,3.9,1.1,19.4,4.9,7.3-2.2,2.6-4.8,1.4-3.4-2-.9-.3-1.5-.5-2-.7.5.2,1.2.4,2,.7,2-.4,2.8-3.4,3.9-3.4.5,0,3.3,2.8,3.9,4.4,1.2-12.7-18.1-15.4-25.3-6.7Z"/>
    <g>
      <g>
        <path class="st9" d="M177.3,466.7c-16.9,1.5-89.3-26.1-85.3-9.6.2,1,4.1,17.4,7.8,20.6,6.9,5.9,42.1,7.8,65.6,6.9,14,0,52.9-10.9,53.9-15.8.9-4.7,1-5.9,2-11.8-13.8,5.1-29.4,8.5-44.1,9.8Z"/>
        <path class="st40" d="M151.2,484.8l-1.3-10.5s2.6,10.5,3.9,10.5h-2.6Z"/>
      </g>
      <g>
        <path class="st52" d="M214.7,320.8s.6-6.4.6-6.7,0-5.9,0-5.9c8.8,2,11.8,1,11.8,1,0,0,14.7-17,16.1-20.8.8-2,4.9-15.7,3.6-21.7-2.2-8.5-5.2-16.6-10.9-23.2-10.8-12.8-38.1-10.7-47-16.6-2,4.3-27.7,26.1-33.9,22.2.8,6.9-20.1,1.5-20.2.9-.3-3.3-5.7-13.1-6.7-17.2s2.5-7.9,0-7.8c-5.3,0-17.7,4.1-24.1,4.6-7.3.6-11,.9-17.9,4.9-10,5.8-20.4,22.6-17.9,27.7,3.4,6.8,12.2,17.6,19.1,23.4,1.8,1.6,3.8-.9,4.8-2.8-3.3,7.5-9,19.4-7.8,29.3,1.3,11.2,6.8,17.6,10.8,20.6,2.7,2,8.8,3.9,8.8,3.9,0,0,4.9,5.1-1,14.7s-9.8,13.9-18.6,36.6c-4.8,18.7-8.6,37.7-11.3,56.8-.3,2.1,0,4.4-1,6.4,14.4,9.7,37.4,12.9,54.4,14.7,16.8,1.8,34,2.5,50.9,1,14.6-1.3,30.3-4.7,44.1-9.8,4.6-1.7,10-3.9,14.2-6.4-2.1-15.3-5.6-30.3-9.8-45.1-3.2-11.1-6.3-22-11.8-32.3-7.3-5.8-5-30.5-3.9-42.2l4.3-10.1Z"/>
        <path class="st48" d="M210.8,324.8c0,0,0,.1,0,.2,0-.2,0-.2,0-.2Z"/>
        <path class="st48" d="M210.8,325c0,.2,0,.6,0,1.1.1-.4.1-.8,0-1.1Z"/>
      </g>
      <path class="st52" d="M80.3,320.9"/>
      <path class="st48" d="M214.1,371.2c-4.8-6.8-4.6-26.1-3.5-38.7,2.3-3,4.2-6.6,4.9-10,.9-3.5.4-15.5-2.7-24.2-1.6.2,4.5,12.4-.8,23.4-2.1,2.9-4.8,6.8-9.2,9.7-2.2,1.3-4.7,2.5-7.7,3.5-5.8,1.6-13.5,1.7-23.7-1.2.6.2,34.6,39.3,42.1,54.9,7.3,15.1,15.9,61.5,14.7,65.6.5-.1,6.6-3.3,9.8-4.9,2-1-2.7-47.6-24-78.1Z"/>
      <path class="st48" d="M109.7,337.9c4.9,0,9.8-2.9,9.8-2.9-5.9,2.9-15.7,1.6-15.7,1.6,0,0,1.1,1.8,1,4.9-.1,3.3-1.5,8-3.9,12.1-3.9,6.8-7,12.7-9.4,17.5-2.7,4.7-4.8,10-6,13.3-.9,2.3-1.3,3.5-1.3,3.5-4.8,18.7-9.2,44.2-11.8,63.4,6.5,3.9,6.9,3.9,6.9,3.9,0,0-3.2-21.5,2-41.5,7.3-28.4,19.2-40.4,22.5-45.7,14.7-23.5,5.9-30.1,5.9-30.1Z"/>
      <path class="st52" d="M80.4,320.8"/>
    </g>
    <path class="st48" d="M224.1,416c-4.3-14-6.5-17.4-10.8-31.4-4.8,8.2-10.5,11.5-19.1,13.1-4.8.9,12.5-31.2,4.4-35.7-22.2-12.3-76.5-8.4-90.1-9.8-3.5-.3,6,46.1,2.5,45.5-4.4,1.7-9.3,1.8-13.9,1-3.6-.6-10.4-3.5-12.9-6.3-2.3,4.6-2.5,10-3.8,14.8-.4,1.7-1.2,5.3-1.3,5.8,2.2,6.5,8.9,13.7,14.7,17.6s16.6,8.7,26.3,10.9c4.6,1,12.1-16.3,16.9-15.8,14.7,1.5,20.1,2.8,34.3,0,3.1-.6,13.6,14.4,16.6,13.7,7.2-1.9,13.8-4.2,19.7-6.8,4.8-2.5,19-9.2,16.7-16.7Z"/>
  </g>
  <path class="st33" d="M205.1,132.3c-.2,1.3-.3,2.7-.5,4,.2,0,.4-.2.5-.3,0-.2,0-.4,0-.6,0-1,0-2.1,0-3.2Z"/>
  <g>
    <path class="st41" d="M176.6,211.3c-.3-2-.6-4.1-1-6.1,0-.3-1.3-3.1-2-5.4-7.5,9.5-17.5,17.2-28.7,21.8-5.2-4.5-12.7-12-12-14.2-1,2.9-3.9,23.5-4.9,26.5-3.8,11.4,9.9,16.7,16.7,16.7,17.6,0,29.9-9.1,29.4-11.8-.4-.7,1.9-2.2.7-3.4.8-.3,1.5-.8,2.2-1.5.9-.9,0-19.6-.5-22.5Z"/>
    <path class="st8" d="M173.7,199.8c-8.9,11.4-21.4,20.1-35.3,24-2.3-3-5.3-5.8-5.9-9.8-.4-2.8.2-7.7.5-10.8,0-.7.1-.9.5-1.5,12.2,2.1,27.1-5,37.7-10.8,1.2,2.8,1.6,5.9,2.4,8.8Z"/>
  </g>
  <path class="st55" d="M211.4,59.4"/>
  <g>
    <path class="st37" d="M124.6,125.1c0,15.4-15,26.5-27.4,26.5s-18.6-10.1-18.6-25.5,9.1-21.6,21.6-21.6,24.5,5.2,24.5,20.6Z"/>
    <path class="st37" d="M202,126.3c0,22.4-17.5,29.2-32.1,29.2s-21.8-11.1-21.8-28.1,10.7-23.8,25.2-23.8,28.7,5.7,28.7,22.7Z"/>
    <g>
      <path d="M206.9,134.9c5.6-9.4-3.7-18.5-4.9-21.6-2.9-7.8-6.6-9.8-9.8-10.8s-5.9-1-12.7-1-28.4-2.9-33.8,13.4c-7.1-3-12.3-2.5-19.6-1-1.5-2.7-5.4-11.4-20.1-12.5-1.9-.1-9-.7-15.7,1-7.8,2-7.7,2.8-9.8,4.9-2.2,2.2-4.5,9.6-4.9,17.6-.3,6.9,2,16.7,2.9,18.6s2.9,5.9,5.6,7.3c13,7.4,14.7,4.9,20.8,4.5,14.7-1,25.8-18.1,25.5-32.1,20.8-1.9,7.4,3.4,17.9,22.3,2.5,4.5,9.6,10.8,16.4,12.8,4.8,1.4,14.5,1.7,22.5-2,12.7-5.9,16.7-16.7,19.6-21.6ZM122.4,127.8c-.3,7.4-3.3,13.2-8,17-6.1,4.9-14.9,6.4-24.4,3.6-5.6-1.7-7.6-6.2-8.6-8.5-3.9-9.8,0-23.5,1-26.5,1.9-5.6,10.2-7.5,15.7-7.8,8.4-.5,17,.2,21.3,8.5,2,3.9,3.1,9.3,2.9,13.7ZM154.8,145.6c-3.5-4.6-5.3-13.7-5.4-19.4-.4-15.6,5.1-18.7,19.6-20.1,5.5-.5,11.2-.8,16.7,0,.8.1,2.4.3,2.9.5,2.1.5,4.2,1.3,5.7,2.8s4.3,5.9,5.8,16.6c.5,3.3,0,7.8-1.7,12.4,0,0,0,0,0,0-8.7,19.9-35.4,18.1-43.6,7.1Z"/>
      <path class="st56" d="M207.5,106c0-.9-1.6-.6-1.9-.7-2.5-.7-8-.1-8.4.3,4.6,4.3,2.8,14.6,6.9,18.6s3.4,0,3.4-6.9c-.4-1.6,0-6.9,0-11.3Z"/>
      <g>
        <path class="st6" d="M76.9,116q-4.9,2.2-9.8,4.4c-.5-1.1-2.6-9.5-1.2-10.3,22.3-3.4,17.3-10.1,11,5.9Z"/>
        <path d="M76.9,116q-.6,4.9-1.2,9.8c-3.2-2-6.8-1.6-8.6-5.4q4.9-2.2,9.8-4.4Z"/>
      </g>
      <path d="M206.9,121.2c-4.4-.5-5.8-2-5.8-2l1,2.9c0,.5.5,2.4,1,4.3l-2,.7,2,6.8c2-2,5.6-2,5.3-3.7-.9-4.2.3-8.8-1.4-9Z"/>
    </g>
  </g>
  <path class="st63" d="M111.1,62.4c.1,0,.2,0,.3,0,8.8-1.7,15.7-14.7,25.5-7.6,9.1,6.6,20.6-8.8,31.3-12.3,2-.7,20.5,1.8,22.6,1.3,0-2-4.9-9.8-12.7-11.8-10.2-2.6-14.7,4.9-16.7,2.9s-4.9-2.9-4.9-2.9c0,0-13.7-6.9-21.6,3.7-1.3,1.1-6.5-3.4-10.7-3.9-7.6-.9-15.7,3.2-21.1,11.7-1,1.5-5.4,10.1-1.4,16.5s-6,.4-10.9,7.3-5.8,13.7-4.9,13.7c1.5,0,23.6-18.4,25.2-18.5Z"/>
  <path class="st48" d="M217.2,302.9c-1-9,9.1-16.2,9.4-25.1,0-.5.1-4-.2-4-.2,1.2-.4,2.4-.5,3.6-.9,6.1-14.5,14.5-13.6,20.6,2,12.7,3.9,13.5,2,25.9,1.9.1,3.3-17.4,2.9-21Z"/>
  <path class="st24" d="M144.2,294.1c-3.1,1-3.8-4.6-1-4.9,2.6-.3,3,4.2,1,4.9"/>
  <path class="st24" d="M144.2,313.7c-3.1,1-3.8-4.6-1-4.9,2.6-.3,3,4.2,1,4.9"/>
  <g>
    <path class="st1" d="M309,371.1c.8,11-4.7,19.5-15.6,21.1-16,2.4-68-29.6-48.2-29.7s-1.5-3.6.5-2.3c1.8,1.2,10.2,19.4,34.9,23.3,40.2,6.3,18.1-26.9,20-28.5,3.7-3,7.9,13.4,8.5,16.1Z"/>
    <path class="st1" d="M264.9,286.2c1.1,2.4,3.1,6.4,4.3,8.7-3.4,4.2-20.7,10.1-20.2,15.9.3,3.6,13.9,27.7,16.7,33.3,10.4,1.3,23.6,1.3,31.3,9.4-8.5-1.5-18.6-5.3-27-6.6-5.3-.8-11.8-.6-13.1-.8v-.5c1.7-9.4-5.8-12.9-8.5-16.9-2-3.1-11-22.2-11-24.5,0-.5,1.8,0,1.2-1.5.3,0,.6-.1.9-.2,1.3-.4,2.4-.8,3.6-1.3,8.2-2.8,15.7-8.7,21.7-15.1Z"/>
    <path class="st8" d="M238.6,302.8c.6,1.4-1.1,1-1.2,1.5,0,2.4,8.9,21.5,11,24.5,2.7,4,10.2,7.5,8.4,16.9-3.4-5.5-23.8-32.6-24.8-34.6-1.3-2.7-2.6-7.5-2.6-7.5,0,0,6.3-.1,9.1-.8Z"/>
    <path class="st41" d="M300.5,355c3.7-3,7.9,13.4,8.5,16.1-.6-8.9-4.4-14.1-8.4-21.6-10-18.4-21.6-36-31.4-54.5-3.4,4.2-20.7,10.1-20.2,15.9.3,3.6,13.9,27.7,16.7,33.3,10.4,1.3,23.6,1.3,31.3,9.4-8.5-1.5-18.6-5.3-27-6.6-5.3-.8-11.8-.6-13.1-.8-7.6-1-9,.7-14.5-1.2,0,2.1-.2,6.5-.1,6.6,3.2,1.7-4,6.4-2.8,9.6,8.6,9.3,16.4,18.5,41.1,22.3,40.2,6.3,18.1-26.9,20-28.5Z"/>
    <path class="st52" d="M265.6,276.1c-2.8-2.8-12.2-26.9-26-37.4,0,.5,0,1.1,0,1.6-.4,6.8-1.7,13.3-3.6,19.5,3.8,13.6-1,29.3.4,43.3,10.8-1.2,20.8-6.2,26.4-12.5.4-.4,7.4-10.5,9.5-12.1-2.1-1.3-4.8-.6-6.7-2.5Z"/>
  </g>
  <g>
    <g>
      <path class="st48" d="M144.2,229.1c-.7,2-1.7,3.9-2.4,5.9-1.8-.3-1.9.9-2,1-.5.2.2-1.5-2.9,1.7-3.2,3.2-20.1,26.9-21.8,27.2-.3,0-5-2.4-5.1-2.7-1.4-3.1,0-30.1-2.7-31.6-.7-.4-3.5.9-3.2-1,2-.2,3.9.9,5.9.5-.6,8.7-.2,17.8,6.6,24,.4,0,3.5-3.8,4.2-4.4,6.6-6.1,12.5-13,19.1-19.1.9-.8,2.3-1.4,2.9-2.4.2.2,1.2.8,1.5,1Z"/>
      <path class="st48" d="M134.9,251.6c0,.9,0,1.8,0,2.7.2.5,1.1.9,1.5,1.2-4.7,6.3,6.7,10,2.7,9.3-.5,0-1.9-1.3-2.4-2,2.3,8.3,7,9.1,14.5,5.4,4.9-2.5-2.8,5.9-6.1,6.4-7.3,1-10.3-8.6-11-14.5-.3-2.4-.3-9.3,1-8.6Z"/>
      <g>
        <path class="st36" d="M186.4,213.4c2.5,7.2,9.9,15,18.1,17.6-2,4.3-4.5,8.5-7.3,12.2-3.7,4.8-16.1,17.9-22.3,17.1-5.5-.7-23.5-25.5-26.2-31.8,10.5-3.5,20.8-9.6,27.9-18.1-.3-2-1.6-5.8-2-7.8,5.6.6,8.8,8.9,11.8,10.8Z"/>
        <path class="st48" d="M148.6,228.6c2.7,6.3,20.7,31.2,26.2,31.8,6.2.8,18.6-12.4,22.3-17.1-1.8,6.4-14.8,22.6-21.3,23-9.2.6-16.4-11.3-20.8-17.1-1.9-2.6-2.2-3.4-2.9-5.5-.4-1.3-.5-1.8-1-2.9-1.1-2.5-1.4-4.1-1.5-4.3-1.2-2.2-2.4-4.4-2.9-6.9.1,0-.5-.2,2-1Z"/>
        <g>
          <path class="st31" d="M133,212.9c-1.4-.2-1.7,4.4-2.4,6.9-2.7,8.9-9.9,26.2-10.3,27.7-.2.6-.2,2.3.5,2.2-.6.6-3.8,4.4-4.2,4.4-6.9-6.2-7.2-15.4-6.6-24,6.4-3.9,11-9.7,15.2-15.7,2.8-4,4.4-9,8.3-12.2-.3,3-.9,7.9-.5,10.8Z"/>
          <path class="st36" d="M139.8,230.5c-6.6,6.1-12.5,13-19.1,19.1-.6,0-.6-1.6-.5-2.2.4-1.4,7.6-18.8,10.3-27.7q4.7,5.4,9.3,10.8Z"/>
          <path class="st11" d="M133,212.9c.6,4,3.6,6.8,5.9,9.8.6.8,3.7,5.2,3.9,5.4-.7,1.1-2,1.6-2.9,2.4q-4.7-5.4-9.3-10.8c.7-2.4,1.1-7.1,2.4-6.9Z"/>
        </g>
      </g>
    </g>
    <g>
      <path class="st28" d="M155,249.5c.8,6.9-1.6,12.7-8,16.1.3,1.1,3.3-2.4,3.9,2.7-7.4,3.8-12.1,2.9-14.5-5.4.5.6,2,1.9,2.4,2,4,.7-7.4-3-2.7-9.3,1.1,1,9.8,4.5,10.5,3.9,1-.7-.6-3.3-.2-4.7.3-1,3-1.6,3.9-2.9,1.5-2.2.8-6.4,2.9-8.1.7,2.1,1.3,3.3,1.6,5.7Z"/>
      <path class="st28" d="M141.7,235c-3.1,7.9-2.2,3.4,2.4,2.4-5.4,4.2-3.8,6.7-3.2,12.7,5.5-11.6,6.2,4.9,7.1-7.1q2-1.3,3.9-2.7c.5,1.2,1,2.2,1.5,3.4-2.1,1.7-1.4,5.9-2.9,8.1-.9,1.4-3.6,1.9-3.9,2.9-.4,1.3,1.2,4,.2,4.7-.8.6-9.5-2.9-10.5-3.9-.4-.3-1.3-.7-1.5-1.2,0-.9,0-1.8,0-2.7-.4-5.8,2.1-10.7,4.9-15.7.1,0,.2-1.3,2-1Z"/>
      <path class="st46" d="M151.9,240.4q-2,1.3-3.9,2.7c-.9,12-1.6-4.5-7.1,7.1-.6-6-2.2-8.6,3.2-12.7,2.3-.5,5.8.9,5.4-1,.1.2,1.4,1.4,2.4,3.9Z"/>
    </g>
  </g>
  <path class="st57" d="M146.4,352.2"/>
  <g>
    <g>
      <g>
        <path class="st17" d="M256.9,234.5c0-3.5-1.8-6.2-4.8-6.2l-212.5-1.8c-3,0-6.5,2.2-6.7,8.1v160c0,3.5,3.8,6.2,6.8,6.2h88.7v8.7c0,2.4,1.7,4.3,3.8,4.3h28.3c2.1,0,3.8-1.9,3.8-4.3v-8.7h87.8c3.1,0,5.7-4,5.7-7.4l-.8-158.8Z"/>
        <path class="st5" d="M251.9,226.2H39.5c-3,0-5.5,2.8-5.5,6.2v160c0,3.5,2.5,6.2,5.5,6.2h90.2v10.5c0,1.7,1.2,3.1,2.7,3.1h27.9c1.5,0,2.7-1.4,2.7-3.1v-10.5h88.9c3,0,5.5-2.8,5.5-6.2v-160c0-3.5-2.5-6.2-5.5-6.2Z"/>
        <path class="st25" d="M157.4,410.6h-22.7c-1.2,0-2.2-1.1-2.2-2.5v-9.5h1.2l26.1,1.4v7.4c0,1.4,0,3.2-2.4,3.2Z"/>
        <g>
          <path class="st44" d="M41.6,379.5v-124.2c0-18.9,6.4-16.1,14.4-16.1h176.3c7.9,0,14.4,7.2,14.4,16.1v119c0,12,1.1,16.1-14.4,16.1H61.4c-7.9,0-19.9,2.2-19.9-10.9Z"/>
          <rect class="st25" x="70" y="212.6" width="149.5" height="202.5" rx="7.1" ry="7.1" transform="translate(458.6 169.1) rotate(90)"/>
        </g>
        <rect class="st4" x="72" y="211.2" width="147.5" height="202.5" rx="5.8" ry="5.8" transform="translate(458.2 166.7) rotate(90)"/>
      </g>
      <path class="st47" d="M158.4,409.6h-22.6c-1.1,0-1.8-1.3-2.1-2.8-.7-4,0-7.2,0-7.2,0-.4.2-.8.5-.8h23.6c2,.1,2.6.4,2.6.8v7.2c0,1.6-.9,2.8-2.1,2.8Z"/>
    </g>
    <g>
      <circle class="st44" cx="40.4" cy="232.9" r="2.5"/>
      <circle class="st25" cx="40" cy="232.2" r="2.5"/>
    </g>
    <g>
      <circle class="st44" cx="40.3" cy="393.4" r="2.5"/>
      <circle class="st25" cx="40" cy="392.6" r="2.5"/>
    </g>
    <g>
      <circle class="st44" cx="251.2" cy="232.9" r="2.5"/>
      <circle class="st25" cx="250.8" cy="232.2" r="2.5"/>
    </g>
    <g>
      <circle class="st44" cx="251.2" cy="393.3" r="2.5"/>
      <circle class="st25" cx="250.8" cy="392.6" r="2.5"/>
    </g>
  </g>
  <path class="st57" d="M140.9,343.9"/>
  <g>
    <path class="st41" d="M220.5,350s1.2,6.6,6.4,6.9c5.2.2,2.5-5.1,2.5-5.1l-8.9-1.8Z"/>
    <g>
      <path class="st1" d="M239.5,379.8s7.8,2,17.6-.8c0,0,6.9-7.8,12.6-18.8,3.4-6.6-4.8-12.7-4.8-12.7,0,0-7,22.1-25.4,32.4Z"/>
      <g>
        <path class="st8" d="M233.2,348.4c-.7,0-1.4-.4-2.1-.4q.2-2.8.5-5.7c3.3,1.3,25.9,4.9,32.4,6.1-7.5,2.3-17.9.5-25.6-.7-3.2-.1-4.9.6-5.2.6Z"/>
        <path class="st7" d="M233.2,348.4c3.9,3.8-1.5,5.3-5.2,5.4-2.9,0-5.2,0-7.6-1.9,1.4-2.2-4.8-3.4,10.8-3.8.7,0,1.4.4,2.1.4Z"/>
        <g>
          <path class="st41" d="M266.1,345.9c-.5-2.4-6.2-5.5-8.4-6.2-4.5-1.5-11.4-2.4-16.2-2.9-.2,0-.8.8-1.5.8-1.5,4.5-5.7,2.7-9.7,3.5,0,0,.4.9,1.4,1.3,3.3,1.3,25.9,4.9,32.4,6.1-7.5,2.3-17.9.5-25.6-.7-3.2-.1-4.9.6-5.2.6,3.9,3.8-1.5,5.3-5.2,5.4,2.5,2.5-2.1,4.1-4.2,5.5-3.5,2.5-1.8,3.4-7.4,2.9,2.9,2.9,3.5,3.9-1.3,4.5,2.1.3.2,2-.5,3-2.4-.3-5.4.8-7.3-.8-.5,3.6,12.6,7.7,16,8.6,2.4.7,5.6,1,8.2,1.5,5.2.9,10.2,2.8,15.7,1.2,11.8-3.3,16.1-14.8,18.6-19.8,1.6-3.3,1-11.4.3-14.6Z"/>
          <path class="st8" d="M250.6,365.6c.5.1,1.1,0,1.2.5,0,1.7-29.2,1.9-31.6-1.5.3-1.9,16.4.8,18.7,1,2.9.2,11.1-.1,11.7,0Z"/>
          <path class="st8" d="M254.8,357c5.1,1-11.5,1.9-14.6,1.6-11.1-1.2-13.2-3.9-7.8-4,2.6,0,11.3,2.4,15.9,2.9,1.3.1,5.9-.5,6.4-.4Z"/>
        </g>
        <path class="st30" d="M239.9,337.5c-1.5,4.5-5.7,2.7-9.7,3.5-7.3-6.9,7.4-3.7,9.7-3.5Z"/>
        <path class="st30" d="M216.4,362.1c-6.4-.6-2.5-2.9-.5-3.2,1-.2,5.9,1.1,7.9.4-3.5,2.5-1.8,3.4-7.4,2.9Z"/>
        <path class="st30" d="M215.1,366.6c2.1.3.2,2-.5,3-2.4-.3-5.4.8-7.3-.8.6-4.5,4.5-1.9,7.8-2.3Z"/>
      </g>
    </g>
  </g>
  <g class="st62">
    <g>
      <g id="Generative_Object">
        <g id="Background1" data-name="Background" class="st60">
          <rect class="st32" x="-4" y="191.5" width="309.9" height="241" transform="translate(-167.3 449.5) rotate(-87.5)"/>
          <path class="st20" d="M230.8,190.5v1.1s-148.4-6.6-148.4-6.6v-.8c49.5,1.3,98.9,4.9,148.4,6.4Z"/>
          <path class="st20" d="M65.4,197.7c-.3,2,0,4.4-.3,6.5l-.3.3c-1.6,24.9-2.4,49.8-3.5,74.7h-1.3c1.1-24.6,1.6-53.3,3.3-77.2l1-.2c.2,3.6.6-2.8.8-4h.3Z"/>
          <path class="st43" d="M61.4,279.1c-1,22.5-1.9,45-2.9,67.5-1.6.6.3,7.4-1.7,7.2,1-24.9,2.1-49.8,3.2-74.7h1.3Z"/>
          <path class="st19" d="M58.5,346.6c-.2,5.6-2.5,41.1-1.9,43.1,0,.2.4.1.5.2-.2,6.1-.7,12.2-.8,18.3-.8-.2-1.1.1-1.4.2-.1,0-.4,0-.5,0,0-15.2,1.7-38.1,2.3-54.6,2,.2,0-6.6,1.7-7.2Z"/>
          <path class="st19" d="M70.1,427.9c1.5.2,5.7-.2,6.1,1.3,0,.2,0,.5,0,.8,0,.5-.1.9.2,1.4-10.8-.6-21.7-.4-32.3-2.7-.7-.7,3.8-1.1,4.1-1.2,6.1-.5,12.6,1,18.4,0,1.1.3,2.4.2,3.5.4Z"/>
          <path class="st19" d="M223.8,434.5c.4,0,.7,0,1.1,0,1.6.1,23.6,1.3,23,2.7-10.9,1.8-22.1.2-33.1-.2-.8-4.7,3-1.6,9-2.6Z"/>
          <path class="st22" d="M212.1,437.2c-13.9-.5-27.8-1.2-41.7-1.8,0-.2,0-.5.2-.5,1-.2,14.5.7,17.9.8,6.5.2,8.8,1.4,8.2-2.1,2.3.1,16.5.9,17.3,1.3,2.9,1.4-1.8,2.2-4.5,1.8l2.7.5Z"/>
          <path class="st43" d="M82.4,184.2v.8c-9.5-.3-15.6,3.1-17.3,12.7-.2,1.2-.6,7.6-.8,4l-1,.2c.4-4.9-.3-8.4,3-12.7,5.2-6.7,11.9-5.2,16.1-5.1Z"/>
          <path class="st39" d="M84.5,431.2c6.7.4,13.4.5,20.2.9v.5c-9.4-.4-18.8-.7-28.2-1.2-.3-.5-.2-.8-.2-1.4l.6-.4c-1,1.8,3.3,1.3,7.7,1.5Z"/>
          <path class="st23" d="M55,408.4c-.6,4.2,0,8,1.6,11.9-2.9-4-2.2-7.4-2.2-11.9.2,0,.4,0,.5,0Z"/>
          <path class="st2" d="M57.9,421.7h-.3c-.3-.3-.9-.5-.8-1.1.1.2,1,1.1,1,1.1Z"/>
        </g>
        <g>
          <path d="M143.3,341.6c0,0,.4,0,.5,0,.2.1.3.2.5.3,2,.8,4,1.2,6.2,1.1-2.9,1.9,4.6.6,5.2-.3l.7.8c-.5-.4-.9.1-1.3.3-6.9,2.1-10.7-.6-11.4-.3-.3.1-1.5,3.8.9,5.1.2.1,1.6.4,2.2.5,1.4.3,2.6.4,4,.3-2.6,2.7,5.5-.9,5.6.5-1-.2-1.8.5-1.9.5-3.5.9-7.5.8-10.9-.5-.8.3-.2,2.9-.4,4,0,0,0,.2,0,.3-.1.5-4,5.7-5.1,7.9-1.9,3.8-5.1,13.2-6.7,15.7-1.1,1.7-5.6,5.8-7.4,6.2-6.6,1.3-13.6-8.7-16.5-13.6-1.4-2.3-.7-2.3-.8-2.4-.3-.5-1.9-1.4-1.1-1.7,2.2,2.8,7.3,8.2,11.2,6.2,4.5-2.4,15.9-29.7,23-36.3,4.5-4.2,3.3-1.7,3,5,.3.4.5.4.5.4Z"/>
          <path d="M144.9,354.8c0,1.2,2.9.7,3,1.5-1.6,1-2.7-1.2-4.3-.1-1.1.7-.6,2.8-.8,4.2,0,.3.4-.3.5-.1.8,1,.7.9,2.2,1.3l2,1.3-3.2-.8c-1.1.2-.3.7-.4.8-1,2.2-1.2,3.5.8,5.1.5.4.8.6,1.3.9-.1.2-.8,0-1.6.4-1.6.8-1.4,3.2-.8,4.8.2.7.5.3.8.5,3.1,2.1.2.2-.5,1.1-.9,1.1-.6,3.4-.3,4.8,0,.1-1,.3,1.3.9-.6.6-.9-.2-1.3.9-.3.9-.4,2.9-.3,3.8.3,2,.4,1,1.9,1.6,2.7,1,5.3,1.2,8.1.5,0,1-1.1.2-.7,1.1,2.9.6,3-1.7,3.6,0-1.3-.2-1.3.5-1.3.5-9.5,2.3-13.4-4.5-11,4.3,5.3,3-.4-.2-1.1,2-1.3,4,1.6,4.8,1.6,5.1,0,0-.6.5-.8.9-.1.2-1.1-.9-.8,4.4.8.6.8.1.8.1,0,0,.2,0,.3,0,0,0-.1.1.3.3-.5.9,3.4,1.4-.4,1.1-1.7.8-.5,5.5-1.1,5.9h-10.4c-.3-3.6-.6-7.3-.5-11.2,0,0,.5-1.2.5-1.6,0,0-.5-.8-.5-1.6,0,0,.5-1.5.5-1.6,0-2.4,0-4.8,0-7.3,0-.1-.5-.4-.5-.5,0-.1.5-.4.5-.5,0-2,0-4.2,0-6.2,0,0-.5-1.3-.5-1.3,0-1.4.7-3.5-.3-4.4,1.6-2.5,4.8-11.9,6.7-15.7,1.1-2.2,5-7.5,5.1-7.9.5.3,1.1.4,1.6.5Z"/>
          <g>
            <path class="st34" d="M213.8,246.4c1.9,1.5,5,5.5,5.4,7.8l-.5.4c0-1.5-.8-2.9-1.9-3.9-.6-1.6-2.8-3.6-3.1-3.5,1.1,4.1.5,8.7-4.6,9.1-4.1.4-4.9-2.8-7.8-3.8-2.8-.9-6,0-6.1-1.1,2.9-1.4.7-.9,1.5-1.9,0-.1,1,.3,2.7-.8,2-1.3,5.6-3.8.7-1.9,3.7-1.7,6.5-4.5,13.7-.5Z"/>
            <path class="st34" d="M195.2,251.5c-1.4.7-14.2,4.6-16.3,5.1-3.1.7-20,3.6-22.1,3.5-.6,0-1.5-1.7-2,0,0,0-.2,0-.3-.3,0-.9.3-3.1.8-3.8,0,0,.4,0,.8-.3.5.4.1.7.4.8.7.3,13.9-1.1,15.7-1.3,1.9-.3,13.4-2.3,14-2.8,0,0-.3-.2-.3-.4v-.3c4,.5,10.2-3.1,14-4.8,4.9-2,1.3.5-.7,1.9-1.7,1.1-2.6.7-2.7.8-.8.9,1.4.5-1.5,1.9Z"/>
            <path class="st42" d="M184.5,252.3c-3.8.7-7.9.4-12.1,2.2.6-.8-7.7-6.8-8.2-7-2.7-1.2-6.3-.1-6.6-3.5,7-2.4,9.7,1.5,16,4.3,3.5,1.6,7.2,2.8,10.9,4Z"/>
            <path class="st53" d="M162.4,241c5.6.9,13.8,8,22.1,10.2.5.1,1,.5,1.6.5v.3c-.5.2-1.1.2-1.6.3-3.7-1.2-7.4-2.5-10.9-4-6.3-2.8-9-6.7-16-4.3-.2-3.2,2.4-3.3,4.8-3Z"/>
            <path class="st42" d="M186.1,252c0,.2.3.4.3.4-.6.5-12.1,2.6-14,2.8v-.8c4.2-1.8,8.3-1.5,12.1-2.2.5,0,1.1,0,1.6-.3Z"/>
            <path class="st34" d="M159.5,291.6c0-.1,0-.4,0-.5.3-.5.2-.8.3-.8.3-.3.7-.5.9-.8,13.1,3.1,37.2-5.6,31.3-19.4,2.9.7,1.1,9.1.3,11.2-3.7,8.9-19.4,15.3-30.3,11.2-1.1-.4-1.6-1.7-2.6-.8Z"/>
            <path class="st53" d="M160.3,314.2c0-.8.3-1.7.3-1.9,11.1,9,26.8,6.3,36-4,2-.2-2.1,5.9-4.7,8.1-9.9,8.3-22.1,4.8-31.6-2.2Z"/>
            <path class="st34" d="M185.3,276c-.4.3-.7.5-1.1.8-.9-1.7-3.9,2.8-4.7.5-4.3,2.4-13.5,4-18,3.2-.5,0-1.8-1.5-2.6-.8,0,0,0-.2,0-.3.3-2.3,4.7-.9,10.6-1.9,4.8-.8,18.5-5.9,19-11.6,1.6-1.5,1.5,3.1-.3,6.3-.7,1.3-2.2,2.3-3,3.6Z"/>
            <path class="st58" d="M204.7,257.7c.8.8,3.3,4.6,1.3,3.8-1.3-1.8-14.5-4.4-10.5,4.6l-.5.3c-1.9-3.4-5.6-5.8-9.4-6.2-1.6-.2-2.2-.3-3.8.3,0-.4-1-.3-1.9-.3,3.2-1.1,15.4-4.7,17.4-4.8,3.1-.2,5.2.3,7.4,2.4Z"/>
            <path class="st53" d="M200.1,294.5c-1.1-1.4-2.3,2.6-3.8,4.4-4.3,5.3-8.5,7.3-14.8,9.3v-1.6c6.5-2.2,12.2-7.1,14.5-13.6l-2.2,1.5c3.6-4,5.3-8.5,2.2-13.5.8.1,3.1,3.9,3.2,4.4.3.9.2,6.1,0,7.8.5.4.6.6.8,1.2Z"/>
            <path class="st34" d="M185.6,260.1l-1.3.4c.2.9,1.8-.1,1.1.9-1-.2-1.3-.2-2.2.8-1.2-.2-2.4,1.6-3.9,2.4-4.8,2.7-15.5,4.9-21.1,4,0,0,0-.2,0-.3.7-1.8,3.8-1.2,5.8-1.6,13-2.8,15.5-5.6,17.9-6.5,1.6-.5,2.2-.4,3.8-.3Z"/>
            <g>
              <path class="st57" d="M183.7,372.3c-1.2-.4-2.4-1.5-3.2-2.4-.8-.9-2.2-3.8-3.5-5.4-1-2.4-2.3-4.7-3.5-7,3.8,4.3,5.1,12,10.8,14.7h-.5Z"/>
              <path class="st57" d="M165.1,323.6c9.2,12.1,24.8,9.7,33.4-1.9-8,20.6-29.2,9.7-29.1,7.9,0-.7.7-.2.8-.5.1-.4-4.6-2.8-5.6-5.4,0-.2.5-.1.5-.1Z"/>
              <path class="st35" d="M200.4,302.6c.9-3,0-7.7-.3-8.1.5,2,2.3,5,.3,8.1Z"/>
              <path class="st41" d="M190.3,344.3c.6,0,.5.2,0,.5-1.9,1.4-8.4,2.4,0-.5Z"/>
            </g>
            <path class="st53" d="M216.8,250.7c2.3,6.3-3.3,11.5-8.7,13.5,0-3.4-.8-4.3-2.6-6.7-4.1-5.8-6.4-4.3-12.4-2.4-5.1,1.1-10.1,3.1-15.2,4.3-3.3.8-7.2.7-7.1,2.2-1.8.4-3.6.7-5.4,1.1-.7-1.5,1.3-.7,1.2-1.6-3.7-.4-8.2,1-11.7.3,0-.3,0-.8,0-1.1.5-1.7,1.4,0,2,0,2.1.1,19-2.8,22.1-3.5,2-.5,14.9-4.5,16.3-5.1,0,1,3.3.2,6.1,1.1,2.9.9,3.7,4.2,7.8,3.8,5-.5,5.7-5,4.6-9.1.3-.1,2.5,1.9,3.1,3.5Z"/>
            <path class="st58" d="M219.2,254.2l-.5.4c0-1.5-.8-2.9-1.9-3.9,2.3,6.3-3.3,11.5-8.7,13.5,0-3.4-.8-4.3-2.6-6.7l-.8.3c.8.8,3.3,4.6,1.3,3.8-1.3-1.8-14.5-4.4-10.5,4.6l-.5.3c2.4,4.2,9.1,30.1,10.5,36.5,0,.3.7,0,.8.3.1.6-.3,4.3-.5,4.8-.8,2.2-3.5,4.2-3.5,5.6,0,.2,1,2.1,1.1,3.5.2,2.9.1,8.6,0,11.6,0,0-.5,1-.5,1.1-.2,3.2-.2,6.5-.3,9.7l-.8.4c.2.5.5,1.1.8,1.6,1-8.5,1.9-20.2.3-28.4,4.7-4.4,4-6.5,4-12,0-10.5-2.2-17.3,2.2-27.4,4.3-10.1,11.4-11.8,10.2-19.4Z"/>
            <path class="st42" d="M205.5,257.4l-.8.3c-2.2-2.1-4.3-2.6-7.4-2.4-1.9.1-14.2,3.7-17.4,4.8-2,.2-4.3,1.3-5.9.5,4.2-1,8.6-2,12.8-3.2,2.1-.6,4.2-1.8,6.3-2.4,6-1.8,8.2-3.4,12.4,2.4Z"/>
            <path class="st34" d="M145.2,256.3c-.4,0-.7-.2-1.1-.3-1.4,1-5.9.1-8.1,0-1.9-.1-4.3-.3-6.2-.5-.6,0-1.1-.2-1.6-.3-4.8-.6-9.8-1.8-14.7-2.7,0-.4,1.3-.2,2.6-.5,2.5-.6,4.9-1.7,7.3-2.7,4.8-1.9,12.6-6.1,13.3-6.2,3.1-.5,4.6.8,6.1.5.3-5.7-7.4-1.8-10.2-.5,0,0,.1,0-.3.3-3,1.4-5.8,3.5-8.9,4.8-12.1,5.4-11.4,3.8-22.6-1.1-2-.9-3.8-2.3-6.1-2.7-7.5-1.2-14.9,4.7-13.9,12.6,0,.7,1.4,3.6,1.9,4.3,1.1,1.7,8.3,7.8,10.2,16.1,1.8,7.8-.4,18.8.3,26.9.2-1.6.8-3.1,1.1-4.6,2-9.4,4.4-18.9,6.9-28-2,2.2-3.4,6.9-5.2,4.6-.7-.9-3.1-8.4-3.2-9.7-.3-3.4.3-8,3.5-10-3.2-.7-2.4,4.5-4.8,4.7.6-3.5,1.8-4.4,4.3-6.6,0,0-.2-.6.4-1.1,9-5,13.9-.5,22.5,2.7,2.9.9,23.5,4.2,25.2,3.5,1-.4,1.5-2,1.7-3-.1-.3-.4-.4-.3-.8Z"/>
            <path class="st34" d="M117.8,260.4c4,2,8.1,3.6,12.4,4.8.8.2,1.6.6,2.4.8,5,1.4,9,1,8.9,3-13.8.6-22.9-6.8-24.1-7.3-.5-.2-.7.3-1.2.3-.3,0-.4-.7-1.7-.5-2.5.4-3.2,3.9-2.6,5.9-2.3.4.5,4.7,1.6,5.9l-.5,1.6c-2.4-2.3-4.6-7.8-5.9-2.8-1.4,5,4.1,11.4,8.3,13.6,2.4,2.7,11.7,4.1,15.3,4.3,5.7.4,8.8-1.1,9.1,1.1-10.2,4.6-22.9,2.3-30.4-6.1-1.9-2.1-1.7-4.6-3.8-2.8-1-1.4-.7-1.9-1.9-.5l-3.2-1.3c.9-3.1,2.4-8.8,3.5-11.3,1.2-2.9,1.8-3.9,4.3-5.9,4.1-3.3,4.6-2.8,9.4-2.7Z"/>
            <path class="st34" d="M140.4,305.3h-.8c.1-.8,1.1-1.9.1-1.9-1.1,1.2-8.6,4.4-9.7,4.6-9.1,1.9-20.7-3.9-26-11.3-1.3-1.8-3.1-3.7-.5-5.2-.5-.5-.5-1.1-.5-1.7,1.3,2.7,2.4,4.4,4.6,6.5,5.3,5.2,11.6,7,18.8,7.5,4.7.3,7.9.2,12.5-.8,5.2-5.8,1.6-11.3,1.7-12.8,0-.3,1-1.4,1.1-1.5,5.2-.7,1.8,4.2,1.6,5-.3,1.9-.4,3.8-.8,5.6-.4,1.8-1.9,4.2-2.2,6.1Z"/>
            <path class="st34" d="M117,317.1c5.6,1.4,11.5.8,16.7-1.6,2.1-1,3.3-1.9,5.1-3.2,0,.3,0,.8,0,1.1-.8,3.9-15.3,10.1-25.2,6.7-7-2.4-3.3-4.7-3.6-5.8-.2-.5-5.6-3.6-8.1-7.7,3.7,4.3,9.5,9.1,15.1,10.5Z"/>
            <path class="st53" d="M104,296.7c5.3,7.4,16.9,13.2,26,11.3,1.1-.2,8.6-3.4,9.7-4.6.9,0,0,1.1-.1,1.9-.2,1.2,0,2.2-1.1,3-.7.6-4.9,1.5-6.2,1.6-3,.4-5.9.4-8.9,0-7.7-1-15.4-5-20.2-11,.8-1.5-.5-2.1.8-2.2Z"/>
            <g>
              <path class="st51" d="M109.4,328.4c9.1,5.4,14.8,3.8,23.1-2.2-1.5,2.6-2,3.7-5,5.4-5.4,3.1-11.5,4-17.2,1.1-2.3-1.2-11-8.9-9-11.3,2,3,5,5.2,8.1,7Z"/>
              <path class="st57" d="M108.6,353.2c.7,3.1-2.8-.6-3.1-.5-.9,0,.4,1.8-1.7.5-.9-1-2.1-2-2.2-2.7.2-.6.8-.3.8-.9,0-1.2-3.2-1.9-1.3-4.7,1.3,2.6,5,6.9,7.5,8.3Z"/>
              <path class="st26" d="M98.7,324.1l-.5.3c.2-1.8.1-.9.5-.3Z"/>
            </g>
            <path class="st58" d="M109.7,257.1c-4.5-.8-9.1-2.9-13.5-.3-3.2,1.9-3.8,6.5-3.5,10,.1,1.3,2.5,8.8,3.2,9.7,1.3,0,2.8-2.7,4.7-4.9-1.9,2.2-3.4,5-4.7,4.9,1.9,2.3,3.3-2.4,5.2-4.6-2.5,9.1-4.8,18.6-6.9,28,0,.3.5.7.7.5.8-.7,4.8-17.6,5.5-20.2.9-3.1,2.4-8.8,3.5-11.3h0c1.2-2.9,1.8-3.9,4.3-5.9,4.1-3.3,4.6-2.8,9.4-2.7,2.7,0,5.2.2,7.8.5-5.1-1.8-10.5-2.8-15.9-3.8Z"/>
            <path class="st42" d="M142.8,243.7c-.2,4.1-4.1,2.4-7.1,3.8-1.9.9-3.3,3.3-3.9,3.8-.8.6-4.3.4-4,3.2-2.7,0-5.8-1.9-8.7-2.2-1.8-.2-3,.9-2.8-.3,2.5-.6,4.9-1.7,7.3-2.7,4.8-1.9,12.6-6.1,13.3-6.2,3.1-.5,4.6.8,6.1.5Z"/>
            <path class="st34" d="M118.6,256.6c-1.8,2.8,11.4,3.4,15.9,4.8.6.2,1.5.5,1.6,1.3-3.3-.6-7.2-1.5-10.5-1.9-5.1-1.8-10.5-2.8-15.9-3.8,1.1-1.2-6.5-3.4-7.1-3.5-2.6-.3-4.5.3-6.9,1.3,0,0-.2-.6.4-1.1,9-5,13.9-.5,22.5,2.7Z"/>
            <path class="st53" d="M145.5,257.1c.5,1.3.8,3,1.3,3.2,0,0,.2.1-.5.3-.8.1-.9.5-.9.5-3.5.6-10.8-1.3-10.9.3-4.4-1.4-17.7-2.1-15.9-4.8,2.9.9,23.5,4.2,25.2,3.5,1-.4,1.5-2,1.7-3Z"/>
            <path class="st42" d="M109.7,257.1c-4.5-.8-9.1-2.9-13.5-.3-3.2-.7-2.4,4.5-4.8,4.7.6-3.5,1.8-4.4,4.3-6.6,2.3-1.1,4.2-1.7,6.9-1.3.6,0,8.3,2.3,7.1,3.5Z"/>
            <path class="st42" d="M127.7,254.5c0,.8.3.3.5.8-4.8-.6-9.8-1.8-14.7-2.7,0-.4,1.3-.2,2.6-.5-.1,1.1,1,.1,2.8.3,3,.3,6,2.1,8.7,2.2Z"/>
            <path d="M173.4,357.5c1.2,2.3,2.5,4.6,3.5,7-1.4-1.7-2-2.9-2.2-3.1-1.1-1.2-10.7-10.4-11.6-7.8-1.3,3.7,0,51.9-.5,60.9-2,0-4.4.1-6.5.3,0-.2-.4-.3-.3-.5.6-1.4.9-3.1.3-4.8.8-1.5-3.8,1.3-3.5-1.1.5,0,.6-.2.8-.3,3.7-1,3.3-.9,3.2-5-.7-1.1-1.5-.1-1.6-.1-4.7.5-6.5,1.1-11.6-.5.2-.4.8-.9.8-.9,0-.3-2.9-1.2-1.6-5.1.7-2.2,6.3,1,1.1-2h.3c3.6,1.2,5.5,1.4,9.1.5,3-.8,4.5-1.5,3-5.4-.7-1.7-.8.6-3.6,0-.4-.9.6,0,.7-1.1,4.4-1.1,3.1-1.3,3.2-5.8-.3-.5-1.8.5-2.2.7-4,.7-6.9,0-10.8-.8.4-1.1.8-.3,1.3-.9-2.3-.6-1.3-.8-1.3-.9.9.2,1.8.6,2.7.8,2.3.5,4.4.7,6.7.3,4.3-.8,3.5-1.5,3.5-5.5-.6-.8-.7.1-.8.1-4.3.3-6.2,1.8-11.8-.5.7-.9,3.7,1,.5-1.1.1,0,1.2,0,2.4.3,2.8.5,3.1.9,6.5,0,4-1.1,3.2-1.5,3.2-5.5-.2-.2-.5-.1-.8-.1-.4,0-3.2,1.7-8.1,1.1-.8,0-2.3-.8-3.2-1.1.8-.4,1.5-.2,1.6-.4-.5-.3-.9-.6-1.3-.9.2,0,.4,0,.5,0,3.2,1,5,1.2,8.3.3,4-1.1,2.8-1.1,3-5.2-.3-.7-1.4.2-2.7.4-4.4.8-5.5.6-10-.5,0-.1-.7-.6.4-.8l3.2.8-2-1.3c.4.1.9.2,1.3.3,2.7.6,3.7.7,6.5,0,4-1,3.2-.9,3.2-5.2-.3-.6-.9,0-2.2.1-4.9.8-5,1.2-10.8-.3v-.3c1.6-1.1,2.7,1.1,4.3.1,0-.8-3-.3-3-1.5.6.2,1.2.4,1.9.5,1.1.2,2.9.6,3.9.5,1.7,0,2.2-.8,2.3-.8,2.9-.7,4.7-.8,3.5-5.1-.1-1.4-8.3,2.2-5.6-.5.8,0,1.6-.3,2.4-.5,4.1-1.1,3.2-.9,3.2-5.4l-.7-.8c-.6.9-8.1,2.2-5.2.3.9,0,1.6-.3,2.4-.5.7-.2,3.2-.5,3.5-1.2.2-.5-.1-3,0-4-.2-.4-1.9.3-3,.4-2.1.3-3.2.7-6.3.5-2.8-.2-4.3-3.3-3.9,3.5,0,0-.3,0-.5-.4.3-6.6,1.5-9.1-3-5,.4-1.5,2.3-2.3,3.2-3.2-.2,2,1,1.8,1.1,1.9,2.1,1.7,6.3,1.9,8.9,1.3,2.3-.5,4.1-1.2,3.8-3.8,1.1,1.3,3.2,2.9,5.9,6.6,3.7,5,7.8,12.8,10.8,18.4Z"/>
            <path class="st53" d="M181.5,306.6v1.6c-.4.1-2.1,1.2-4.7,1.6-4,.6-12.7.7-15.5-2.7,0-.4-.4-1.8-.5-3,6,4.8,13.6,4.8,20.7,2.4Z"/>
            <path class="st34" d="M181.5,306.6c-7.1,2.4-14.7,2.4-20.7-2.4,0-.8-.7-1,.3-1.6,10.7,3.2,25.2.5,32.8-8.1l2.2-1.5c-2.4,6.5-8,11.4-14.5,13.6Z"/>
            <path class="st53" d="M184.2,276.8c-8.2,5.6-24.8,9-25.3,3,.8-.7,2.1.7,2.6.8,4.6.7,13.8-.8,18-3.2.8,2.3,3.8-2.2,4.7-.5Z"/>
            <path class="st53" d="M183.1,262.3c-1,5.8-23.4,11.2-25,7.3,0-.1,0-.6,0-.8,5.6.9,16.3-1.4,21.1-4,1.5-.9,2.7-2.7,3.9-2.4Z"/>
            <path class="st12" d="M158.1,268.7c0,.2,0,.7,0,.8h-.3c0-.4,0-.7,0-1.1h.3c0,0,0,.2,0,.3Z"/>
            <path class="st53" d="M206.3,303c0-.3-.7,0-.8-.3-1.4-6.3-8.1-32.3-10.5-36.5-1.9-3.4-5.6-5.8-9.4-6.2l-1.3.4c.2.9,1.8-.1,1.1.9,2.1.3,3.2,2.1,3.2,4.2,0,.1,0,.3,0,.4,1.6-1.5,1.5,3.1-.3,6.3-.7,1.3-2.2,2.3-3,3.6.5-.4,1-.8,1.4-1.2,1-.9,1.7-1.6,2.2-2.2,1-1.2,1.4-2,1.9-2.3,0,0,0,0,.1,0,0,0,.2,0,.2-.1.1,0,.3,0,.4,0,.2,0,.3,0,.5,0,2.9.7,1.1,9.1.3,11.2-3.7,8.9-19.4,15.3-30.3,11.2-1.1-.4-1.6-1.7-2.6-.8,0,.3.2.5.3.8.1.2.3.5.5.7,0,.1.2.2.3.3.3.3.6.6,1,.8.1,0,.3.1.4.2.9.5,2,.8,3.2,1,.7.1,1.4.2,2,.3.3,0,.7,0,1,0,.5,0,1,0,1.5,0,.3,0,.6,0,.9,0,.2,0,.3,0,.4,0,.6,0,1.1,0,1.6,0,.5,0,.9,0,1.4-.2,4.7-.6,9.5-2.6,13.5-5.5,1.2-.9,2.3-1.8,3.3-2.8.3-.3.7-.7,1-1,.3-.4.6-.7.9-1.1.2-.2.3-.5.5-.7.1-.2.3-.5.4-.7.1-.2.2-.5.3-.7,0-.2.2-.4.3-.6.1-.3.3-.5.5-.7,0,0,.1-.1.2-.2.2-.2.4-.2.8-.3.1,0,.2,0,.3,0h0c.8.1,3.1,3.9,3.2,4.4.3.9.2,6.1,0,7.8.5.4.6.6.8,1.2h0c0,0,.2.4.2.8.7,1.9,1.8,4.6,0,7.3,0,.3-.3.7-.6,1.2-.5.9-1.3,2-1.9,2.9-.5.6-.9,1.2-1.2,1.5,2-.2-2.1,5.9-4.7,8.1-9.9,8.3-22.1,4.8-31.6-2.2,0,.2,0,.4,0,.5-.9-.4.2,1.4-.5,4.2-.8,3-5.1,5.6-4.6,6.6-1.1,1.4-.9,1.8-1.6,2.7,0,.2.5,1.2.5,1.3.2.4.9,1.1,1.3,1.6.2.2.8.8,1.3,1.3,1.1,1.3,3.2,2.9,5.9,6.6,3.7,5,7.8,12.8,10.8,18.4,3.8,4.3,5.1,12,10.8,14.7h-.5c3.3,1.4,7.1-1.7,9.4-4,6.5-6.7,8.3-17.5,9.4-26.5,0,0-.1,0-.1,0,0,0,0,0,.1,0,0,0,0-.2,0-.3-.3-.5-.6-1.1-.8-1.6,0-.1,0-.2-.1-.3-.1-.3-.3-.7-.4-1-.5,5-6.6,13.8-11,15.6h0c-1.3.5-2.6.8-3.8.8-.2,0-.5,0-.7,0-2,0-3.8-.7-5.3-1.5-3.5-1.9-5.4-5-4.1-6.1.1,0,.2-.1.4-.1,1.2,0,3.6,2,7.8,1.9.2,0,.4,0,.6,0,.4,0,.8,0,1.2-.1.9-.1,1.8-.4,2.8-.7.5-.2,1-.4,1.6-.7.8-.4,1.7-1,2.5-1.7,3.1-2.4,6.4-5.9,8-8.4,0,0,0,0,0,0,0,0,0,0,0,.1,0,0,0,.2,0,.3,0,.2,0,.4,0,.6.1.3.3.7.4,1,0,.1,0,.2.1.3l.8-.4c0-3.2,0-6.5.3-9.7,0,0,.5-1,.5-1.1.1-3,.2-8.7,0-11.6,0-1.4-1.1-3.3-1.1-3.5,0-1.5,2.7-3.5,3.5-5.6.2-.6.7-4.3.5-4.8ZM199.4,348.4c.2-.8.3-1.6.7-2.2.1-.2.2-.3.4-.4-.2.1-.3.3-.4.4-.4.6-.5,1.4-.7,2.2,0,.2-.1.4-.2.6,0-.2.1-.4.2-.6ZM192.4,353.7h0c0,0-.3.1-.6.4.3-.2.6-.4.6-.4ZM190.1,355c-.1,0-.2,0-.2-.1,0,0,.1.1.2.1ZM198.3,351c1.6,0-4.2,10-7.8,12.6-6.2,4.6-9.3-1.8-9.5-3.1-1.2-6.5,5.8,4.5,17.4-9.5ZM165.1,323.6c-.2-6,1.5-1.1,9.3-.3,9.9,1,21.1-4,25.8-12.9,2.2,4.5,1.1,7.5-1.7,11.3-8.5,11.6-24.2,14-33.4,1.9ZM186.5,344.3c-10.3,2.2-19.7-8.6-18.4-11.4.7-1.5,4.4,1.4,5.2,1.7,12.8,4.9,21.5.3,28.2-10.8,2,7.8-8.2,19-15.1,20.4Z"/>
            <path class="st34" d="M193.1,255c-2.1.7-4.2,1.8-6.3,2.4-4.2,1.2-8.6,2.2-12.8,3.2-1.1.3-2.1.6-3.2.8,0-1.5,3.9-1.4,7.1-2.2,5.1-1.2,10.1-3.2,15.2-4.3Z"/>
            <path class="st34" d="M115.9,271.4c2.4,1.8,3.4,2.4,6.2,3.5,6.1,2.5,8.2,2.6,14.5,3.2,1.3.1,4-.6,4.3,1.3-6.7,2.9-22.5-1.1-27.4-6.2-1.1-1.2-3.9-5.5-1.6-5.9.6,1.8,2.7,3,4,4Z"/>
            <path class="st53" d="M139.8,291c.5,3.1-5,4.4-7.3,4.6-5.3.4-13.1-1.4-17.8-4-5.5-3.1-6.4-5.5-9.1-9.4,2.1-1.8,1.9.7,3.8,2.8,7.5,8.4,20.2,10.6,30.4,6.1Z"/>
            <path class="st53" d="M140.9,279.5c.6,3.6-6,3.4-8.3,3.2-2.7-.1-10.7-2.1-13.2-3.2-1.4-.6-5.3-3.4-6.5-4.6l.5-1.6c4.9,5.1,20.8,9.1,27.4,6.2Z"/>
            <path class="st53" d="M141.4,269c-.2,2.3-4.8,1.4-6.2,1.3-3.2-.2-6.4-.6-9.4-1.6-1.2-.4-5-2-5.9-2.7-1.1-.7-3.1-2.8-3.8-4,.5,0,.8-.4,1.2-.3,1.2.4,10.3,7.9,24.1,7.3Z"/>
            <path class="st42" d="M146.3,260.6c-.7.9-2.3,2.9-2.7,3.8-2.5-.6-5-1.2-7.5-1.6-.1-.8-1-1.2-1.6-1.3.1-1.6,7.4.3,10.9-.3,0,0,.1-.4.9-.5Z"/>
            <g>
              <path class="st42" d="M153.5,253.4c-.3,0-.5,0-.8,0,0-.5.2-2.5-.1-2.7-.2-.2-5.1-.4-5.4-.3-1.1.5.8,2.6-1.7,2.4-.3,0-1.5-.2-2-.3-.6-.4-.3-1-.4-1.6,1.1.2.2-2.3.7-2.7.5-.4,5.7,4,11.7.7-2.3-.9.8-1,1.9-1.7,1,.3.4,2.9.5,5-.1.3-3.7,1.1-4.3,1.2Z"/>
              <path class="st53" d="M153,246.1c-.1-5-1.9-1.9-6.1-3.5-1.1,1,.4,2.4-.7,3-2-.7-3.6-.4-3-4.8,2.5,1.4,6.8,2.5,9.5,1.9,3.4-.7-1.4-1,0-1.9.3-.2,3.3-.2,3.4-1.3,1,0,1.2-.5,1.6.1l-.5,4.6c-1.2,1-2.8,1.7-4.3,2Z"/>
              <path class="st34" d="M157.3,247.2c-1.1.7-4.2.8-1.9,1.7-6,3.4-11.2-1-11.7-.7-.5.4.4,2.9-.7,2.7,0-.3,0-.5,0-.8,0-5,1.6-2.3,5.4-2.2,5.7.2,8.2-1.3,8.9-.8Z"/>
              <path class="st34" d="M148.2,240.2c2.1.2,3.1.7,5.1-.3,2.1-.1,2.8-.5,3-.5,0,1.1-3.1,1.2-3.4,1.3-1.4.9,3.4,1.2,0,1.9-2.7.6-7.1-.5-9.5-1.9,0-.5-.2-1,.4-1.3,1.6-.2,2.9.6,4.4.8Z"/>
              <path class="st53" d="M148.2,255.5c5.3.1,6.7-1,7.4-.8.3,0,.5,1,.7,1.1-.4.3-.8.2-.8.3.7-1.4-1.4-.6-1.9.4-.6,1.3.2,3.3-.8,3.1-.2-.4.2-3.5-.1-3.5-.4,2.5-3.6,1.9-5.5,2.2-1.1-2.9-.6-1.6-1.9-1.9-.4,0-.7-.2-1.1-.3,0,0,.5-1.2.9-1.3.3,0,1.3.8,3.1.8Z"/>
              <path class="st34" d="M153,246.1c-1.7.3-2.9.2-4.6,0-1-.1-1.2-.2-2.2-.5,1.1-.6-.4-1.9.7-3,4.1,1.6,5.9-1.5,6.1,3.5Z"/>
              <path class="st42" d="M147.1,258.2c.2.5.7,1,.5,1.6-.4,0-.5.5-.8.5-.5-.2-.9-1.9-1.3-3.2-.1-.3-.4-.4-.3-.8,1.3.3.8-1.1,1.9,1.9Z"/>
              <path class="st42" d="M155.4,256.1c-.5.6-.9,2.9-.8,3.8-.4,0-1.1,0-1.3,0-.2,0-.3.2-.5-.3,1,.2.2-1.8.8-3.1.5-1,2.6-1.8,1.9-.4Z"/>
              <path class="st34" d="M152.7,253.4c-3.1.4-4.3.4-7.3-.5,2.5.1.6-1.9,1.7-2.4.2-.1,5.2.1,5.4.3.3.2,0,2.2.1,2.7Z"/>
              <path class="st42" d="M152.7,259.6c.2.5.3.2.5.3-.4,1,1.2,1.3,1.6,1.3,3.5.7,8-.7,11.7-.3,0,.9-1.9.1-1.2,1.6-2.9.6-5.9.9-8.7,1.6-.5.5.5,2.2.7,3-1.7,1-1.2-.2-2.2-1.9-.5-.9-2.5-4.7-3-5.1-1.2-1-3.2-.6-4.6-.3.1-.6-.3-1.1-.5-1.6,1.9-.2,5.1.4,5.5-2.2.4,0,0,3.1.1,3.5Z"/>
              <g>
                <path class="st54" d="M154.1,329.5c.2.4.9,1.1,1.3,1.6-.3.2-.5.2-.8.3-2.7.7-7,1-9.4-.5.3-.4.3-.5.3-.5,0,0,.7-.2.8-1.1h.3c1.9,1.4,5.3.6,7.5.3Z"/>
                <path class="st58" d="M153.3,327.1c0,.4.2.7.3,1.1,0,.2.5,1.2.5,1.3-2.3.4-5.6,1.1-7.5-.3.2,0,.5-1.3.5-1.3,3.1-2.2,3.9.2,6.2-.8Z"/>
                <path class="st42" d="M154.6,331.4c.3,0-1.7,1.8-1.9,1.9-1.1.4-4.4.2-5.6,0-.3,0-2.2-.8-3.2-1.1.4-.4,1.3-1.3,1.3-1.3,2.4,1.6,6.7,1.2,9.4.5Z"/>
                <path class="st42" d="M154.6,350.5c1.5.4-.4,1.1-1.1,1.3-9.1-.8-6.4,2.2-.5.3v3c-.1,0-.6.8-2.3.8-1,0-2.8-.3-3.9-.5,1-3.1-2.3-4.1-2.6-4-1,.2.3,2.9-.9,2.7.2-1.1-.4-3.7.4-4,3.4,1.4,7.4,1.4,10.9.5Z"/>
                <path class="st42" d="M153.3,345.9v3c-.8.2-1.6.5-2.4.5-1.4,0-2.7,0-4-.3l.3-3c.8.2,5.5,0,6.2-.3Z"/>
                <path class="st53" d="M155.2,343.8l-1.6.9c1.7,0,.7.9-.3,1.2-.7.2-5.4.4-6.2.3-.2,0-2.5-1.4-3.1-1.6-.3,1.7-.3,2.7.7,4-2.4-1.3-1.2-5-.9-5.1.8-.3,4.5,2.4,11.4.3Z"/>
                <path class="st58" d="M156.5,343.5c0,4.4.9,4.3-3.2,5.4v-3c1-.3,2-1.2.3-1.2l1.6-.9c.5-.1.8-.7,1.3-.3Z"/>
                <path class="st58" d="M156.5,350c1.2,4.3-.6,4.4-3.5,5.1v-3c.2,0,.3-.2.5-.3.6-.3,2.5-1,1.1-1.3,0,0,.8-.7,1.9-.5Z"/>
                <path class="st53" d="M153.5,337.6c-.6,1.1,2.8,1.1-.5,1.6-.3,0-.5,0-.8,0,0,0,0-.5-.1-.5-1.2,0-5.5.4-5.2.8-2.7-.4-3.2-3-3,2.2,0,0-.5,0-.5,0-.4-6.8,1.1-3.7,3.9-3.5,3.1.2,4.2-.3,6.3-.5Z"/>
                <path class="st42" d="M147.1,346.2l-.3,3c-.5-.1-1.9-.4-2.2-.5-1-1.3-1-2.3-.7-4,.6.3,2.9,1.6,3.1,1.6Z"/>
                <path class="st42" d="M146.8,355.3c-.6-.1-1.3-.3-1.9-.5-.5-.2-1.1-.2-1.6-.5,0,0,0-.2,0-.3,1.2.2,0-2.5.9-2.7.3,0,3.6.9,2.6,4Z"/>
                <path class="st57" d="M154.4,383.3c0,0,1,.1-.8.7,1.6-.1,0,1.4-.3,1.5-.3.1-4.9.3-6.2,0-.2,0-2.8-1.8-3.1-1.6-.5.4.4,2.6-.7,2.4-.1-.9,0-2.9.3-3.8,3.8.8,6.7,1.5,10.8.8Z"/>
                <path class="st53" d="M155.7,376.3c-.5.8-1.8,1.8-2.7,2.2-.2,0-.6.2-.8.3.2-.8-4.3-.8-4,0-2.2-.4-4.2-1.7-4.3-1.5-.4.8,0,3.8,1.7,2.6-.2,2,1.5.1.7,1.6-.9-.2-1.8-.6-2.7-.8-.3-1.4-.7-3.7.3-4.8,5.6,2.3,7.6.9,11.8.5Z"/>
                <path class="st42" d="M153.3,385.5c0,1,0,2,0,3-2.7.7-5.4.5-8.1-.5,2.4,0,1.4-.4,1.9-2.4,1.2.3,5.9.1,6.2,0Z"/>
                <path class="st53" d="M153.8,363.4l-.4,1.1c2.2-.8,2.1-.3-.1.5-3.1,1.1-6.5.8-9.3-1.1-.3,2.4-.6,2.7,1.2,4-.1,0-.4,0-.5,0-2-1.6-1.8-2.9-.8-5.1,4.4,1.2,5.5,1.3,10,.5Z"/>
                <path class="st42" d="M144.4,369.3c.9.3,2.4,1,3.2,1.1-.1,1.1-2.5-.3-2.4.7,0,.2,2.6.5,1.6,3.9-1.2-.2-2.3-.2-2.4-.3,0,0-.1-.6-.8-.5-.6-1.6-.8-4,.8-4.8Z"/>
                <path class="st42" d="M147.1,385.5c-.5,2,.5,2.4-1.9,2.4-1.5-.6-1.6.4-1.9-1.6,1.1.2.2-2,.7-2.4.3-.2,2.9,1.6,3.1,1.6Z"/>
                <path class="st42" d="M146.8,359.1v2.7c-.4,0-.9-.1-1.3-.3-1.4-.5-1.3-.4-2.2-1.3,0-.6,0-1.3,0-1.9,1-1.4,2.1.5,3.5.8Z"/>
                <path class="st54" d="M143.6,356.4c-.4.6-.2,1.2-.3,1.9,0,.6,0,1.3,0,1.9-.1-.1-.4.5-.5.1.2-1.4-.3-3.5.8-4.2v.3Z"/>
                <path class="st16" d="M144.4,374.7c-.3-.2-.6.2-.8-.5.7-.1.8.5.8.5Z"/>
                <path class="st42" d="M154.6,259.8c0,.4.3.3.3.3,0,.3,0,.7,0,1.1-.4,0-2-.4-1.6-1.3.2,0,.9,0,1.3,0Z"/>
                <path class="st42" d="M153.3,375c-3.3.9-3.6.5-6.5,0,1-3.4-1.6-3.7-1.6-3.9,0-.9,2.3.4,2.4-.7,4.8.6,7.7-1.1,8.1-1.1-3,2.5-.3.7-.3,1.2-2.7,1.4-2.2,1.3-2.2,4.4Z"/>
                <path class="st42" d="M153.3,365l.3,3.2c-3.4.9-5.1.7-8.3-.3-1.8-1.3-1.5-1.7-1.2-4,2.8,1.9,6.1,2.2,9.3,1.1Z"/>
                <path class="st42" d="M148.2,378.7c1.3.2,2.7.3,4,0,.2,0,.6-.2.8-.3v3.2c-2.4.4-4.4.3-6.7-.3.8-1.5-.9.4-.7-1.6-1.8,1.2-2.2-1.7-1.7-2.6.1-.2,2.1,1.1,4.3,1.5Z"/>
                <path class="st42" d="M153.3,358.8v3c-2.8.7-3.7.6-6.5,0v-2.7c1.1.2,5.4.1,6.5-.3Z"/>
                <path class="st58" d="M156.8,332.5c-.5-.6-1.2-1.1-1.3-1.3-.3.2-.5.2-.8.3.3,0-1.7,1.8-1.9,1.9-1.1.4-4.4.2-5.6,0-.3,0-2.2-.8-3.2-1.1-.2.2-.6.6-.8.8-.2,2,1,1.8,1.1,1.9,2.1,1.7,6.3,1.9,8.9,1.3,2.3-.5,4.1-1.2,3.8-3.8Z"/>
                <path class="st53" d="M154.4,356.7c-1.4,1.4,1.1,1.3-1.1,2.2-1,.4-5.3.5-6.5.3-1.4-.3-2.5-2.2-3.5-.8,0-.7-.1-1.3.3-1.9,5.7,1.5,5.8,1,10.8.3Z"/>
                <path class="st58" d="M156.5,337.2c-.2-.4-1.9.3-3,.4-.6,1.1,2.8,1.1-.5,1.6-.3,0-.5,0-.8,0-1.7.8-3.6.5-5.4.3-2.7-.4-3.2-3-3,2.2.2.1.3.2.5.3,2,.8,4,1.2,6.2,1.1.9,0,1.6-.3,2.4-.5.7-.2,3.2-.5,3.5-1.2.2-.5-.1-3,0-4Z"/>
                <path class="st58" d="M153.3,388.4c0-1,0-2,0-3,.2,0,1.9-1.6.3-1.5,1.8-.6.7-.6.8-.7.3-.2,1.8-1.2,2.2-.7-.2,4.5,1.2,4.7-3.2,5.8Z"/>
                <path class="st58" d="M153.5,368.2l-.3-3.2c2.3-.8,2.3-1.4.1-.5l.4-1.1c1.3-.2,2.4-1.1,2.7-.4-.1,4.1,1,4.2-3,5.2Z"/>
                <path class="st58" d="M153.3,361.8v-3c2.2-.9-.3-.7,1.1-2.2,1.2-.2,1.9-.7,2.2-.1,0,4.4.8,4.2-3.2,5.2Z"/>
                <path class="st58" d="M153,381.7v-3.2c.9-.3,2.2-1.3,2.7-2.2,0,0,.3-1,.8-.1,0,4.1.8,4.7-3.5,5.5Z"/>
                <path class="st58" d="M153.3,375c0-3.1-.6-3,2.2-4.4,0-.5-2.8,1.3.3-1.2.3,0,.7-.1.8.1,0,4,.8,4.5-3.2,5.5Z"/>
                <path class="st42" d="M161.3,307.2c0-.4-.4-1.8-.5-3,0-.8-.7-1,.3-1.6-.4,0-.5-.5-.5-.5-.1-.1-1.5-3-1.6-3.2-.8-2.8-1-5.3.5-7.8.3-.5.2-.8.3-.8-4.5-6.7-1.6-9.2-1.3-10.8.3-2.2-3.4-5.3-.5-10,0-.4,0-.7,0-1.1,0-.2-.4-.6-.5-1.3-1.7,1-1.2-.2-2.2-1.9l.5,23.8c.5,5.9,4.7,14,3.8,19.9-.6,3.6-1.8,12.7-9.1,12.7-3.5,0-5.6,3.4-10.9-6.7-1.3,5.2,6,10.1,6,13.6,0,.3-1.2,1.9,0,1.7,0,0,.7-.2.8-1.1h.3c.2,0,.5-1.3.5-1.3,0-.4-.8-2.5-.4-2.7,9.3.6,5.7-2.8,6.6,1.9,0,.4.2.7.3,1.1.7-.9.5-1.2,1.6-2.7-.5-1,3.8-3.6,4.6-6.6.7-2.7-.3-4.5.5-4.2,0-.2,0-.4,0-.5,0-.8.3-1.7.3-1.9,0-.8.8-3.5.8-5.1Z"/>
                <path class="st63" d="M153.3,327.1c-2.3,1-3.1-1.4-6.2.8,0-.4-.8-2.5-.4-2.7,9.3.6,5.7-2.8,6.6,1.9Z"/>
                <path class="st53" d="M153.5,351.8c-.2,0-.3.2-.5.3-5.9,1.9-8.6-1,.5-.3Z"/>
                <path class="st53" d="M152.2,339.2c-1.7.8-3.6.5-5.4.3-.3-.4,4-.7,5.2-.8.2,0,.1.5.1.5Z"/>
                <path class="st53" d="M152.2,378.7c-1.3.3-2.7.2-4,0-.2-.8,4.3-.8,4,0Z"/>
                <path class="st34" d="M155.7,289l-.5-23.8c-.5-.9-2.5-4.7-3-5.1-1.2-1-3.2-.6-4.6-.3-.4,0-.5.5-.8.5,0,0,.2.1-.5.3-.7.9-2.3,2.9-2.7,3.8-.1.2-1.6,4.6-1.6,4.8,0,1.2,3.4,4.6-.5,9.5-.4,2.5,2.9,1.8.3,9.8,5.2-.7,1.8,4.2,1.6,5-.3,1.9-.4,3.8-.8,5.6-.4,1.8-1.9,4.2-2.2,6.1-.2,1.6-.1,4.3.3,5.8.2.7,0,.8.8,2.4,3.5,5.1,11.4,2.9,13.2,2.6,2.5-.9,3.9-3.3,4.5-6.8.9-5.9-2-13.7-3.4-20.3Z"/>
              </g>
            </g>
          </g>
        </g>
        <g>
          <g>
            <path class="st53" d="M50.6,355.9c.2-.6-.4-1-.9-2.6-.8-2.4-1.9-6.2-2.5-9.4-1-5.2-4.2-28.2-4.2-28.2l-7.2.6s4.3,13.5,5.4,19.1c.6,3.2,1.6,14.4,1.6,14.4,0,0-2.4,7.9-.7,9.5.5.5,2.5,2.4,3.5,2.1s1-3.3,1.8-3.7c0,0,2.8-.9,3.1-1.8Z"/>
            <path class="st51" d="M37.2,317.5l7.8,32s-.8,4.2,0,8.3-3.5,1.6-3.7,0c-.1-1.5-.4-6.9.4-8.6s.2-8.1-1.4-15.4c-1.7-8.1-4.8-16.3-4.8-16.3h1.5Z"/>
          </g>
          <path class="st53" d="M54.1,340.3s1.2,3.4.8,4.9-1.3,5.4-3.2,5.7c-1,.2-1.2-.7-1.5-2.9-1.3-8.4-4.6-29-6.8-33.5s-2.2-8-1.2-8.4,2.3-2.1,3.1-2.5,1.3.7,2.2.4,3.5,1.9,4.1,2.5c2.1,1.9-.8,11.4-.8,11.4,0,0,1.2,13.4,1.9,17.2,1.3,6.7,1.4,5,1.4,5Z"/>
          <path class="st34" d="M51.9,344.2l-4.2-31.3s-3.2-.4-4.3-5.2,5.2-4.3,7.9,1.1c.8,1.7.5,8.3-.5,10.2-.5.9,1.5,12.5,3.3,21.3,2.1,9.7-2.2,4-2.2,4Z"/>
        </g>
        <g>
          <path class="st34" d="M282.8,332.7c-12.4-10.9-26.5-27.2-36.5-39.5-.2.1-9.3-11.8-17-17.9l.8-5.6c1.9-1.2,2.5-3,4.1-6.3-.3-1.3.5-2.8-1.1-5.7-5.9-2-4.5,3.3-15.3,8.8-5.1,6,6.2,10.6,10.6,14.9h0s0,0,0,0c13.7,13.3,38.2,46.5,46.2,63.7,5.8,12.4,2.3,20.5,14.2,18.3,4.4-10.1,10.1-2.7,12.5-12.8.6-3.3-18.2-17.6-18.6-17.9Z"/>
          <path class="st53" d="M236.4,259.5s0,0,0,0c-.6-.7-1.4-1.1-3.3-1.8,1.6,2.8.9,4.3,1.1,5.7-2.4,4.9-2.6,6.5-7.9,7.6-1.5.3-3.1.2-4.6.5,0,0,.1.2.2.3,1.3,1,3.6,1.7,4.9,2.7,7.5,5.9,12.5,12,18.5,19.4,10,12.3,27.6,36.5,34.4,50.2,2.7,5.4,3.9,11.5,7.1,16.7.8-9.1,8.9-7.8,10.4-8.3,5.3-1.7-3.3-4.5-4.4-5.4-2.7-2.1-5-4.6-7.5-6.9-12-11.4-34.8-42.4-43.3-57,1.3-.4,1.6-2,1.6-1.9.7,1.6,8.6,13.8,8.9,14.4,1.6-7.2-5.2-15.3-14.7-33.3-.7-1.3-1.1-2.2-1.5-2.8v-.3Z"/>
          <path class="st34" d="M250.4,285c10.6,20.6,22.2,36.4,33.3,49.1,1.3,1.5.6,4.7,1.7,6.2-12-11.4-34.8-42.4-43.3-57-.2-10,7.2-.4,8.3,1.7Z"/>
        </g>
        <g>
          <path class="st34" d="M70,288.9c-1.7,10-2.5,20-4.1,30-.7,4.6-5.5,17.3,0,14.2-2.2,10.1-4.2,20.3-8.2,30-2.6,1.7,1.4-12-1.3-11.4,6.1-17.2,10.6-45.6,10.9-64,1.5-1.3.8,1.1,2.7,1.2Z"/>
          <g>
            <path class="st53" d="M72,363.6c-1.7-12.9,1.2-27.5,3.4-40.1-2.2.2-.8,6.4-2.8,7.7,0-.5,2.4-12.1.3-9.7l-6,36.4h-.8c3.2-23.7,5.8-59.8,18.6-79.4-3.6,1.5-7.9,1.1-11.3-1-2.6-1.6-5.5-5.4-1.7-6.8,0,0,4-2.7,3.7-3.8-1.1-1.9-6.7,2.3-8.2,5.9s.3,11.2.2,15c1.5-1.3.8,1.1,2.7,1.2-1.7,10-2.5,20-4.1,30-.7,4.6-5.5,17.3,0,14.2-2.2,10.1-4.2,20.3-8.2,30-2.6,1.7,1.4-12-1.3-11.4-4.8,13.6-11.6,16.3-3.1,23.5,9,7.7,19.2,1.6,20.4-.3,2-3.4-1.2-7.6-1.7-11.3Z"/>
            <path class="st34" d="M59.3,371.1c7.2.3,9.6,5.5,3.9,5.5-7.1,0-11.9-5.8-3.9-5.5Z"/>
          </g>
          <path class="st34" d="M88.9,274.7c-1.8-4-2.2-3-8.5-4.2-2-.4-3.6-4.6-5.8-4.3-3.2.8-10.1,8.3-.7,12.5,3.6,1.6,7,1.3,10.6-.3-12.8,19.6-15.3,55.7-18.6,79.3h.8c0,.1,6-36.2,6-36.2,2.1-2.4-.3,9.3-.3,9.7,2-1.4.7-7.5,2.8-7.7,2.1-11.9,4.2-23.7,8.7-35,1.6-4.1,6.8-9.6,4.9-13.7Z"/>
        </g>
      </g>
      <path class="st53" d="M146.9,314.9c-1.7-.2-3.1.5-4.8-4-.5-1.4-1.2-3.9-.9-5.4l-.2-2.5c-.3,1.1-1.6,4-2.6,4.7.4.8,1,3.7.9,4.7,0,.1,0,.3,0,.5h0c-1,3.9-15.7,9.4-25.4,5.6-6.9-2.7-3.1-4.8-3.4-5.9-.1-.5-5.4-3.9-7.7-8-4.3-7.6-1.8-12.3-1-12.2.3,0,1.8,3.2,2.6,4.4.9-1.5-.4-2.1.9-2.1-1.2-1.9-3-3.8-.3-5.3-.5-.5-.5-1.1-.5-1.8,0-2.5-.7-6,1.2-8l-3.2-1.5c-.9,2.5-5.6,19.2-6.4,19.9-.2.1-.6-.3-.6-.6-.4,1.5-1.1,3-1.3,4.5.2,4,.9,5.3,3.4,8.4-2.4,14.2-2.2,42.2,6.3,54,2.1,2.9,6.9,8.5,10.9,6.7,4.6-2.2,17.1-29,24.5-35.3.5-1.4,2.4-2.2,3.4-3.1.3-.2.6-.5.8-.8.4-.4,1.3-1.2,1.4-1.3.3-.4.3-.5.3-.5-1.2,0,0-1.5,0-1.7.2-3.4-1.7-7.1-1.7-7.1.2.2,5.1,1.7,5.8,1.8,11.1,1.6,11.6-18.1,10.7-21.1-1.8.2-1.6,14.6-13.3,13ZM110.9,363.9c-3.5-.7-11.2-12.2-10.2-15.5,0,.6,1.2,1.7,2,2.8,9.2,11,15.2,3.1,15,7.5,0,1.3-3,6-6.8,5.2ZM107.5,351.4c-2.5-1.6-5.9-6-7.2-8.7-.5-1.1-2.5-7.3-1.7-7.9,12.2,19,20.4,11.3,22.9,11.2,5.2-.2-4,11.8-14.1,5.3ZM117.4,343.5c-9.9.8-20.3-13.2-19.1-21.3l.5-.2c3.3,5.3,6.6,10.8,13.1,12.7,12.7,3.6,19.9-5.9,19.6-1.2-.3,3.4-9.2,9.7-14,10ZM132.6,325.5c-8.6,5.6-14.3,7-23.2,1.2-3-1.9-5.9-4.3-7.8-7.3-2.1-3.5-3.1-6.8-.8-10.5,3.1,6.4,7.9,9.3,14.2,12.2,1.7.1,3.1.9,4.7,1,12.7,1.1,19.6-6.5,12.9,3.5Z"/>
    </g>
  </g>
  <g>
    <path class="st41" d="M50.5,295.1c-2.6-1.5-26.4-13.1-27.9-13.5,6.2,6.9,12.1,6.1,9,10.9,2.3,1.2,5.1,2.8,7.4,3.7,3.2,1.3,16,5.8,17.8,2.6-2.4.1-4.2-2.5-6.2-3.7Z"/>
    <path class="st8" d="M48.5,267c.5.4,1.3.5,1.8.9q1.5-2.4,3-4.8c-3.4-.9-23.3-11.4-29.2-14.4,4.6,6.3,13.8,11,20.6,14.7,2.6,1.8,3.5,3.4,3.7,3.6Z"/>
    <path class="st7" d="M48.5,267c-5.4.7-2,5.1.9,7.4,2.3,1.8,4.1,3.2,7.1,3,.2-2.6,5.8.1-6.2-9.5-.5-.4-1.3-.5-1.8-.9Z"/>
    <path class="st41" d="M22.6,281.7c-3.2-.8-2.5,2.6-4.6-2.3,0,1-.2,1.5-.2,1.6,0,.2,1.6,2.3.7,3.2,3.4,4.5,8.5,6,13.1,8.3,3.2-4.8-2.8-4-9-10.9Z"/>
    <path class="st8" d="M49.4,274.3c-3.4.5-.8,4.6,0,6.9,1.2,1.8,5.7,3.7,6.4,4.4,1.3-2.8.5-5.5.7-8.3-3.1.2-4.8-1.2-7.1-3Z"/>
    <g>
      <path class="st41" d="M34.4,245.5c-2.3-.7-8.6-1.7-10.4,0-2.4,2.2-5.1,11.4-5.8,15-1,5.4-.1,11.1-.3,16.6,0,1,0,1.9,0,2.3,2.1,4.9,1.4,1.5,4.6,2.3,1.5.4,25.3,11.9,27.9,13.5,0-1.2-.4-3.8,1.4-2.8-3.5-3.3-2.4-3.7,1.6-4.4-4.8-2.9-2.8-2.6-4.1-6.7-.8-2.3-3.4-6.4,0-6.9-2.9-2.2-6.3-6.7-.9-7.4-.2-.2-1.1-1.8-3.7-3.6-6.8-3.7-16.1-8.5-20.6-14.7,5.8,2.9,25.8,13.5,29.2,14.4,1,.3,1.8-.2,1.8-.2-2.6-3-7.1-4.1-5.5-8.6-.6-.4-.5-1.4-.7-1.5-4.1-2.4-10.1-5.8-14.5-7.3Z"/>
      <path class="st8" d="M24.4,270.5c-.5-.2-.8-.6-1.3-.3-1.1,1.3,21.9,18.9,25.8,17.6.9-1.7-13.4-9.1-15.3-10.3-2.4-1.5-8.7-6.7-9.2-6.9Z"/>
      <path class="st8" d="M26.3,261c-4.6-2.3,7.9,8.4,10.6,10,9.5,5.6,12.8,4.8,8.5,1.4-2-1.6-10.4-4.8-14.3-7.2-1.1-.7-4.4-3.9-4.8-4.2Z"/>
    </g>
    <path class="st30" d="M49.6,254.3c-1.6,4.5,2.9,5.6,5.5,8.6,9.9-1.2-3.6-7.3-5.5-8.6Z"/>
    <path class="st30" d="M53.5,288c5.4,3.3,3.7-.8,2.3-2.3-.7-.7-5.3-2.6-6.4-4.4,1.3,4.1-.6,3.8,4.1,6.7Z"/>
    <path class="st30" d="M51.8,292.3c-1.8-1-1.4,1.5-1.4,2.8,2.1,1.2,3.8,3.8,6.2,3.7,2.2-4-2.4-4.2-4.8-6.5Z"/>
  </g>
</svg>