<?xml version="1.0" encoding="UTF-8"?>
<svg id="Layer_1" xmlns="http://www.w3.org/2000/svg" version="1.1" viewBox="0 0 310 491">
  <!-- Generator: Adobe Illustrator 29.1.0, SVG Export Plug-In . SVG Version: 2.1.0 Build 142)  -->
  <defs>
    <style>
      .st0 {
        fill: none;
      }

      .st1 {
        fill: #52d9c5;
      }

      .st2 {
        fill: #c45f41;
      }

      .st3 {
        fill: #c05e58;
      }

      .st4 {
        fill: #232323;
      }

      .st5 {
        fill: #8e3226;
      }

      .st6 {
        fill: #f7b750;
      }

      .st7 {
        fill: #a34737;
      }

      .st8 {
        fill: #cf99ce;
      }

      .st9 {
        fill: #5377a6;
      }

      .st10 {
        fill: #a1a2a3;
      }

      .st11 {
        fill: #23110a;
      }

      .st12 {
        fill: #281a26;
      }

      .st13 {
        fill: #f0935d;
      }

      .st14 {
        fill: #bdeded;
      }

      .st15 {
        fill: #c12e4b;
      }

      .st16 {
        fill: #ddcfe4;
      }

      .st17 {
        fill: #e5fdfe;
      }

      .st18 {
        fill: #7f2c86;
      }

      .st19 {
        fill: #dcbdd8;
      }

      .st20 {
        fill: #2e643c;
      }

      .st21 {
        fill: #a66bb7;
      }

      .st22 {
        fill: #fbfbfc;
      }

      .st23 {
        fill: #c386c3;
      }

      .st24 {
        opacity: .2;
      }

      .st24, .st25 {
        fill: #7aebe9;
      }

      .st26 {
        fill: #c9892d;
      }

      .st27 {
        fill: #e6794d;
      }

      .st28 {
        fill: #efd870;
      }

      .st29 {
        fill: #511407;
      }

      .st30 {
        fill: #c392c2;
      }

      .st31 {
        fill: #661b6a;
      }

      .st32 {
        fill: #17ae9d;
      }

      .st33 {
        fill: #d53a5c;
      }

      .st34 {
        fill: #bfcbb8;
      }

      .st35 {
        fill: #f9efed;
      }

      .st36 {
        fill: #95409b;
      }

      .st37 {
        fill: #353535;
      }

      .st38 {
        fill: #309c97;
      }

      .st39 {
        fill: #bb7ba0;
      }

      .st40 {
        fill: #120f12;
      }

      .st41 {
        display: none;
      }

      .st42 {
        fill: #320532;
      }

      .st43 {
        fill: #1d121b;
      }

      .st44 {
        fill: #4e0b1b;
      }
    </style>
  </defs>
  <path class="st13" d="M189.7,104.9l4.5,20.9s2.3,3.3,3.6,2.7c3.6-1.5,6.2-8.2,6.2-15.4s-3.6-12.7-3.6-12.7l-10.7,4.5Z"/>
  <path class="st2" d="M221.7,136.7l.9,1.8c.9,1.8-2.7,2.7-2.7,2.7-1,.3-1.8.9-2.7,0l.9-4.5c.9-1.8,3.3-.4,3.6,0Z"/>
  <g>
    <path class="st14" d="M222.6,144c0-1.8,0-4.5-.9-5.5s-1.6-1.8-2.7-.9c-.8.7-1.6,4.2-1.8,6.4,0,.7.3,3.1.9,3.6,1.8,1.4,2.9,1.2,3.5.2,1.8-2.9.9-2.5.9-3.8Z"/>
    <path class="st25" d="M223.1,143.2c-.2-2.5-.4-4.4-1.4-4.7-2.7-.9-.9,2.7-3.6,4.5-1,.7-.5,3,0,3.6,3,3.8,5.1-.9,4.9-3.5Z"/>
  </g>
  <g>
    <g>
      <g id="Background" class="st41">
        <path class="st10" d="M104.1,443.9c-68.3,0-136.6,0-204.9,0V-21.2h456.1v465.2c-56,0-112,0-167.9,0q.9-5.5,1.8-10.9c4.2-1.6,9.1-3.7,12.9-5.9,3.1-1.8,6.3-3.4,7.6-7-.5-6.3-2.1-12.3-3.6-18.4,70.1-51.1,89.4-128,31.2-198.5.4-.1,3.3,0,7.8-2.7,10.1-6.3,12.5-18.7,7.8-29.3,17.5-3.7,23.8-24.6,10.2-36.8,1.2-4.2,0-8.8-3.1-11.8,16.1-13.6,12.7-36.2-5.8-45,3.1-15-11.6-26.5-25.4-25.4,3.5-19.2-12-35-30.1-25.7-15.1-16.4-40.8-24.1-61-13.2C119.2-5.9,76.4.6,63.8,24.2c-14.7-12.1-38.7,1.5-33.6,20.7l-10.5,9.3c-13.7,1.5-22.6,17.5-16.3,30.2-14.7,7.6-16.6,28.6-1.8,37.2-16.5,4.3-23.9,28.6-7.1,37.7-2.9,15.8,12.1,19.6,12.5,20.9-2.6,7.3-1.4,14,3.6,19.8-31.3,25.5-45.9,68.3-40.1,108.3,6.5,44.7,41,78.3,77.1,101.1-.6,4-1.6,7.9-1.3,12,2.2,2.7,4.3,4.2,7.1,6.1,13.1,9,34,12,49.4,13.6l1.3,2.7Z"/>
      </g>
      <path class="st34" d="M191,442.1v1.8c-15,0-30,0-45,0l-1.3-2.7c15.3,1.6,31,2.3,46.3.9Z"/>
      <g>
        <path class="st39" d="M239.1,332.6c-.4,2.9-.2,6.1-1.3,6.4-.2-5.5-2.4-7.1-2.2-7.5.7-1.3,3.4,2.4,3.1-1.1h.4v2.3Z"/>
        <g>
          <path class="st31" d="M210.2,361.7c7.4,1.6,14.3,4.8,20.6,9.3-1.8-5.3-3.8-10.6-6.4-15.7-3.7-3-8.5-5.9-13.5-8.8-.2,3.6-.3,7.2-.5,10.9,0,.7,0,1.3,0,2,.2.2.5.4.7.7-.2,0-.5,0-.7.1,0,.5,0,1,0,1.5Z"/>
          <path class="st31" d="M272.5,356.7c-4.1,14-21.9,17-33.6,11.4-4.6-2.2-7.6-6.9-11.4-10l4,.9c1.1,1.6,3.2-4,3.8-4.1.3,0,3.7,2.9,4.5,3.2,7.9,3.2,27.1,6.9,32.7-1.4Z"/>
          <path class="st31" d="M246.2,319.2q-9.8-2.8-19.6-5.7c0,2.9,0,5.9,0,8.9q-3.8-.2-7.6-.5c3-2.9,5.8-7.6,6.7-11.8l.9,2.5c.2-8.5-.5-16.9-3.3-25-1.9.3,9.4,21.7-11.7,32.2,0,.9,0,1.7,0,2.6,6.4,1.1,11.9,4.2,18.8,6.1.5.1,1.8-1.8,8.2,1.4-1.4-4.8-22.3-8.1,7.6-10.7Z"/>
          <path class="st35" d="M226.6,312.6c0,.3,0,.6,0,.9,0,2.9,0,5.9,0,8.9l-7.6-.5c3-2.9,5.8-7.6,6.7-11.8q.4,1.2.9,2.5Z"/>
          <g>
            <path class="st36" d="M259.1,281.1c-4-15.2-4.7-33.3-15.1-45.9-8.2-9.9-17-9.6-24.3-10.7-3.4,5.7-7.5,11-12.1,16.2-1.1,1.2-2.2,2.4-3.4,3.6,2.2,6.2,3.3,12.8,3.6,19.3.1,2.5,0,5.2-.4,7.8,2.7,15.8,4.2,31.8,4.2,47.8,0,.2,0,.4,0,.6,21-10.4,9.7-31.9,11.7-32.2,2.8,8.1,3.5,16.5,3.3,25,0,.3,0,.6,0,.9q9.8,2.8,19.6,5.7c-29.9,2.6-9,5.9-7.6,10.7,0,.1,0,.3,0,.5h.4c1.2,1.1,0,2.2,0,2.3-.4,2.9-.2,6.1-1.3,6.4.2,4.6-1.2,8.5-2.7,12.7-.9,2.6-1.5,5.3-3.6,7.3,1.1,1.6,3.2-4,3.8-4.1.3,0,3.7,2.9,4.5,3.2,7.9,3.2,27.1,6.9,32.7-1.4,1.8-15.3-2.6-26-15.6-33.8,3.7,0,12.6,7.9,14.3,10.4,2.2,3.4,1.5,10.1,2.7,4.8-1.3-11.6-11.1-43.3-14.7-57Z"/>
            <g>
              <path class="st18" d="M273.8,338.1c.6,4.9,1.4,14.6-1.3,18.6,1.8-15.3-2.6-26-15.6-33.8,3.7,0,12.6,7.9,14.3,10.4,2.2,3.4,1.5,10.1,2.7,4.8Z"/>
              <path class="st18" d="M235.3,321.3c6.4.9,11.6.9,17.6,3.4-5-.5-16.5-1-17.6-3.4Z"/>
              <path class="st31" d="M239.1,332.6v-2.3c1.2,1.1,0,2.2,0,2.3Z"/>
            </g>
          </g>
        </g>
      </g>
      <path class="st28" d="M189.2,319.2c.5.3,2.1,0,2.2,0,1.3.3,2.6,1.1,4,.9.2,1.3.4.9.4.9,1.1,9.2-2.6,9.2-10.2,6.4,1-1.7,1.6-8.1,3.6-8.2Z"/>
    </g>
    <g>
      <g id="Background1" data-name="Background" class="st41">
        <path class="st10" d="M146.1,444.4c-68.3,0-136.6,0-204.9,0V-20.8h456.1v465.2c-56,0-112,0-167.9,0q.9-5.5,1.8-10.9c4.2-1.6,9.1-3.7,12.9-5.9,3.1-1.8,6.3-3.4,7.6-7-.5-6.3-2.1-12.3-3.6-18.4,70.1-51.1,89.4-128,31.2-198.5.4-.1,3.3,0,7.8-2.7,10.1-6.3,12.5-18.7,7.8-29.3,17.5-3.7,23.8-24.6,10.2-36.8,1.2-4.2,0-8.8-3.1-11.8,16.1-13.6,12.7-36.2-5.8-45,3.1-15-11.6-26.5-25.4-25.4,3.5-19.2-12-35-30.1-25.7-15.1-16.4-40.8-24.1-61-13.2-18.5-19.1-61.3-12.7-73.9,10.9-14.7-12.1-38.7,1.5-33.6,20.7q-5.2,4.7-10.5,9.3c-13.7,1.5-22.6,17.5-16.3,30.2-14.7,7.6-16.6,28.6-1.8,37.2-16.5,4.3-23.9,28.6-7.1,37.7-2.9,15.8,12.1,19.6,12.5,20.9-2.6,7.3-1.4,14,3.6,19.8-31.3,25.5-45.9,68.3-40.1,108.3,6.5,44.7,41,78.3,77.1,101.1-.6,4-1.6,7.9-1.3,12,2.2,2.7,4.3,4.2,7.1,6.1,13.1,9,34,12,49.4,13.6l1.3,2.7Z"/>
      </g>
      <g>
        <g>
          <path class="st40" d="M230.7,117.3c-2.8-1.6-1.5,4.4-9.8,5,0-6.9-1.2-9.5-6.2-14.3l.7-.7c2,.7,13.7,5.8,14.3,6.4.8.9.7,2.2,1.1,3.6Z"/>
          <path class="st40" d="M230.7,117.3c.4,1.7.2,4.4.9,5-1,.2-8,7.3-11.1,6.8.4-2,.5-4.7.4-6.8,8.3-.6,7-6.6,9.8-5Z"/>
        </g>
        <g>
          <path class="st40" d="M94.8,56c-1.4,1.9-3.2,3.4-4.5,5.5.2-1.3.6-2.5.4-3.9-1.3-.5-9-6.6-9.4-7-.2-.4-1.8-7.7-1.8-8.4.1-3.7,2.6-7.5,5.3-9.8-5.5,12.4,8.5,17.8,9.4,20.2.5,1.4-1,3.2.4,3.4Z"/>
          <path class="st40" d="M285.9,69.2c3.8,6.5,2.6,9.6,0,16.6,4.2,1,4.8.4,8.9,2.5l-.2.9c-.9-1.8-.6,1.6-5.3-1.4-1.1,5.1-6.6-2.3-4.2,4.8-6,2.8-2-15.4,1.8-16.4.3-.8-5-10.3-.9-7Z"/>
          <path class="st12" d="M63.6,156.9c-.3,0-1.4,1.7-4.7,2.7-.5-.1-4.1-9.5-4.2-10-1.5-7.6,2.4-10.1,3.1-11.4q6.2-4.2,12.5-8.4-.4-4.2-.9-8.4c0-2.6-7.5-6.5-12.5-10-2-4.2-1-9.4,1.8-13.2,7.9-3.6,17.8-1.6,17.8-7.5,0-.5-2-5.5-2.2-9.3-.7-10.2,13.1-12.1,14.3-13.4.5-.5,1.6-5.4,1.8-6.6,1.3-2,3-3.6,4.5-5.5,2-2.6,3.3-.4,1.8-8.4,14.4-16.3,13.6-10.2,33.6-7.5,3-.7,3-13.9,9.4-15,8.9-1.6,11.2,9.8,7.6,12.7-3.4,2.7-3-2.5-6.2-7.3-3.5,21.5-16.5,14.4-32.5,12.3-7.9,5.5-4.2,9.7-5.1,12.5-.3.8-7.1,6.7-7.6,7.7-2.8,6.1,4.9,5-15.6,15.9-2.2,5.7,8.4,15.5-6.5,22-4.3,1.9-15.5,2.1-12.5,5.9,2.5,3.1,14.3,5.7,14.9,16.6,1.3,21.6-25.2,9.7-12.5,33.4Z"/>
          <path class="st12" d="M288.2,153.7c-.1-.1-.3-.3-.4-.5-.3-17.4-11.4-11.9-18-16.4-4.3-2.9-7.3-18.4,13.1-17.5,5.2,7.6-13,6-11.1,10,.4.9,14.1,5.8,16,8.2,2.8,3.5,2.8,13.2.4,16.1Z"/>
          <path class="st43" d="M57.9,138.2c-.7,1.3-4.6,3.7-3.1,11.4-5.4-2-14-2.5-12.9-10.2,1.7-12.4,14.7-1.1,16-1.1Z"/>
          <path class="st43" d="M69.4,121.4q.4,4.2.9,8.4-6.2,4.2-12.5,8.4c.5-.9,2-2,2.2-2.5,1.9-5.1-4.1-8.9-3.6-14.1l12.9-.2Z"/>
          <g>
            <path class="st40" d="M98.4,117.3q-.6,4.5-1.1,9.1c-2.9-1.9-6.2-1.5-7.8-5q4.5-2,8.9-4.1Z"/>
            <path class="st32" d="M108.6,113.7c-1.3,3.4-2.5,5.2-2.7,9.1-3.2,1.8-1.1-8.1,3.1-11.1q-.2,1-.4,2Z"/>
          </g>
          <g>
            <path class="st43" d="M297.5,139.4c1.4-15.9-7-16-7.6-16.8-2.8-3.9,5.1-3.6,9.4-8.6,6.4-7.6,4.5-21.1-4.5-25.7l-.2.9c-.9-1.8-.6,1.6-5.3-1.4-1.1,5.1-6.6-2.3-4.2,4.8-6,2.8-2-15.4,1.8-16.4.3-.8-5-10.3-.9-7-3.6-6.1-10-8.9-16.7-5.9-2.6-.5.9-5.6-9.1-11.1,7.8-14.7-10.6-26.7-19.8-12.9-16.4-18.8-39.4-27.2-62.4-14.5-15.6-18-45.1-15.9-61.2.2-1.6,1.6,0,3.8-11.8,8.9-1.8,0-9.3-10.3-19.8-1.4-5.5,12.4,8.5,17.8,9.4,20.2.5,1.4-1,3.2.4,3.4,2-2.6,3.3-.4,1.8-8.4,14.4-16.3,13.6-10.2,33.6-7.5,3-.7,3-13.9,9.4-15,8.9-1.6,11.2,9.8,7.6,12.7-3.4,2.7-3-2.5-6.2-7.3-3.5,21.5-16.5,14.4-32.5,12.3-7.9,5.5-4.2,9.7-5.1,12.5-.3.8-7.1,6.7-7.6,7.7-2.8,6.1,4.9,5-15.6,15.9-2.2,5.7,8.4,15.5-6.5,22-4.3,1.9-15.5,2.1-12.5,5.9,2.5,3.1,14.3,5.7,14.9,16.6,1.3,21.6-25.2,9.7-12.5,33.4-.3,0-1.4,1.7-4.7,2.7-.5-.1-4.1-9.5-4.2-10-5.4-2-14-2.5-12.9-10.2,1.7-12.4,14.7-1.1,16-1.1.5-.9,2-2,2.2-2.5,1.9-5.1-4.1-8.9-3.6-14.1l12.9-.2c0-2.6-7.5-6.5-12.5-10-2-4.2-1-9.4,1.8-13.2,7.9-3.6,17.8-1.6,17.8-7.5,0-.5-2-5.5-2.2-9.3-.7,0-1.4,0-2,0,.7,0,1.3,0,2,0-.7-10.2,13.1-12.1,14.3-13.4.5-.5,1.6-5.4,1.8-6.6.2-1.3.6-2.5.4-3.9-1.3-.5-9-6.6-9.4-7-1.1.2-2.2.8-3.1,1.4-.5.8-1,1.7-1.4,2.5.4-.8.8-1.6,1.4-2.5-7.2,4-4.8,3.3-8.2,10.4-17.1-1.4-23.5,15.5-11.4,27.5-2.4.8-4.8,1.1-7.1,2-1.9.8-3,1.3-4.5,2.7-8.5,8.1-4.5,19.5,5.3,23.8.6,1.7-3.6,4.2,0,12.7-16.8-2-22.9,17.4-7.1,25-3.4,8.4,2.6,19.5,11.8,16.1,7.4,7.4-1.8,7.5-.2,17.9,1.3,8.2,12.6,13.4,19.4,8.4,9.6,4.1,4.9,4.7,8.2,9.3,4.2,5.9,14.6,5.3,19.4.2,1.3.3.6,12.8,17.8,10.4,4.1-7.5,5.5-2.3,12-5.5,4.8-2.4,4.8-9,9.6-4.5,2.6-3.7,4-8.3,7.6-11.4,0-.7.1-.8.4-1.4-6.9-1.2-23.9-14.3-29.4-19.3-9.3-8.4-14.8-15.8-14.7-28.7.1-.6-.3-7.6-1.3-9.8-.4-.8-.3-8.6,0-15.4-3.2,1.8-1.1-8.1,3.1-11.1q-.2,1-.4,2c.1-.4,1.3-3,1.3-3.2,1.2-2.4,2.2-6.4,5.8-5.2q-.9-1.2-1.8-2.5c.9-8.6,7.1-29.3,15.6-33.2,5-2.3,9.8,1.1,15.8-7.7,20.4,11.7,28.3-2.1,29.8-2.7,6.1-2.4,7.9,4.8,8.2,5.2,7.1,8.2,14.4,5.1,20.5,16.4,2.4,4.4,3.2,10.3,5.8,14.5,1.1,1.8-.7,15.1.4,17.8,4.1,9.4,3.6,19.1.9,23.4,6-9.7,1.5,3.3,7.1-1.8.5-1.2,2.1-4.8,2.2-5.5.4-2,.5-4.7.4-6.8,0-6.9-1.2-9.5-6.2-14.3l.7-.7c2,.7,13.7,5.8,14.3,6.4.8.9.7,2.2,1.1,3.6.4,1.7.2,4.4.9,5,10.5-2.6,15.3,17.2,2.9,27.7-9.6,8.1-14.7-2.2-20.7,7-.3.5-.8,4.3-4.9,10.2-5.5,8.1-14.8,14-23.2,18.6,1.1,2.6,1.5,5.5,2.2,8.2.6,2.2,1.7,4.7,1.8,5,5.1.5,7.1,6,9.8,7.7.5.3,3.2.8,4.2.9,6.3,12.5,22.8,9.7,26.7-3.6,8.6,9.2,21.7,11.1,25.4-3.6,6.5,0,11.2.7,15.6-5,16.4,1.8,22.6-14.9,10.9-26.1q2.8-3.7,5.6-7.5c5.5,1.4,10.7.1,13.6-5,3.7-6.5,1.9-13.2-4-17.5ZM76,56.8c-.3.8-.5,1.5-.7,2.2.2-.7.4-1.4.7-2.2ZM61.2,65.1c.5-.2,1-.3,1.5-.4.5,0,1-.1,1.6,0-.5,0-1,0-1.6,0-.5,0-1,.2-1.5.4-.4.1-.7.3-1,.6.3-.2.7-.4,1-.6ZM57,70.9c0-.5.2-1,.4-1.4-.2.5-.3.9-.4,1.4-.1.7-.2,1.5-.1,2.3,0-.8,0-1.5.1-2.3ZM288.2,153.7c-.1-.1-.3-.3-.4-.5-.3-17.4-11.4-11.9-18-16.4-4.3-2.9-7.3-18.4,13.1-17.5,5.2,7.6-13,6-11.1,10,.4.9,14.1,5.8,16,8.2,2.8,3.5,2.8,13.2.4,16.1Z"/>
            <g>
              <path class="st12" d="M189.5,26.5c11.2-1.1,19.4,18.5,40.5,11.4,10.3,13.9,19,9.7,14.5,26.6,2.3,1.2,11.1,9.1,11.8,9.3,4.9,1.8,19.4-2.7,14.9,15.7,4.2,1.5,19.1,7.5,20.9,10.9,2.1,4,.7,11.8-3.8,13.4-10.3,3.7-.8-8.7-1.1-10.2-11.1-10.4-26.6-.8-20.5-22.3q-5.9-.6-11.8-1.1c-7.5-10-11.8-7.4-14.5-10.7-7.1-8.8,11.1-20.5-17.6-16.6q-1.1-3.9-2.2-7.7c-10.9.4-20.5-6-29-12.3-3.8-.3-15.3,7.4-12.7-.7.6-1.7,8.5-5.5,10.5-5.7Z"/>
              <path class="st42" d="M231.4,43.3c2.8-.2-2.3,2-3.1,2.3-10.7,4-3.1-1.8,3.1-2.3Z"/>
            </g>
          </g>
        </g>
        <g>
          <g>
            <g>
              <path class="st5" d="M187.9,194.1c-8.1,10.5-19.4,18.6-32.1,22.3-2.1-2.8-4.8-5.4-5.3-9.1-.4-2.6.2-7.2.4-10,0-.7.1-.8.4-1.4,11.1,2,24.6-4.6,34.3-10,1.1,2.6,1.5,5.5,2.2,8.2Z"/>
              <path class="st27" d="M189.7,199.1c.3,1.9.6,3.8.9,5.7-6.5,7.9-16.3,13.8-25.8,17-2.2.8-1.7.9-1.8.9-.7.2-.3.7-2.2-.5-.2-.1-1.2-.8-1.3-.9-.2-.2-3-4.3-3.6-5,12.6-3.6,24-11.7,32.1-22.3.6,2.2,1.7,4.7,1.8,5Z"/>
            </g>
            <path class="st27" d="M211.1,159.1c-5.7,15.2-43.6,33.9-54.6,33.6-13.9-.4-41.5-23.5-44.8-38.4,4.9,1,9.9,1.1,14.7-.2.6.8,2.7,2.8,5.8,7.7,6.2,10,9.9,20.4,24.1,18.6,11.3-1.4,14-9.2,17.4-13.2,2.9-3.4,6.1-6.6,8.9-10,3.2.8,6.8,1.3,10,.9,1.9-.2,10.5-3.7,9.6-5.5,2.1-1,7.4-5.1,8.9-6.8,1.8,4.1,1.6,8.9,0,13.2Z"/>
            <path class="st3" d="M202.2,152.8c.9,1.8-7.7,5.2-9.6,5.5-3.2.4-6.8-.1-10-.9.4-.5.5-1.3.9-1.8,6,1.3,13.2,0,18.7-2.7Z"/>
            <g>
              <path class="st27" d="M208.9,167.3c-1.5-1.5,4.2-5.5,2.2-8.2,1.6-4.3,1.8-9.1,0-13.2,1.5-1.7,5.2-8.9,6.2-11.1.5-1.2,3-5.1,3.2-5.7,3.2.4,10.1-6.6,11.1-6.8,10.5-2.6,15.3,17.2,2.9,27.7-9.6,8.1-14.7-2.2-20.7,7-.3.5-.8,4.3-4.9,10.2Z"/>
              <path class="st7" d="M233.4,139.6c1.7,6.4-4.3,7.1-6.5,5.9-2.2-1.3-3.3-9.4-2-12.3,3.8,1.6,7.7,9.7,8.5,6.4Z"/>
              <path class="st29" d="M233.4,139.6c-.8,3.3-4.7-4.8-8.5-6.4,1.8-4.1,15-6.8,12.7,4.1-1.2-8.9-8.5-5.2-8.7-4.3-.2.7,3.7,3.7,4.5,6.6Z"/>
            </g>
            <path class="st13" d="M181.7,155.9c-1.6.4-2.9,1.8-4.9,2.3-17,3.7-31.1,4.8-46.8-4.1-.9-.5-1.8-.9-2.7-1.4,12.9-2.8,22.4-17.4,22-30.4,18.9-1.8,6.7,3.1,16.3,20.7,3.9,7.2,9,9.8,16,12.9Z"/>
            <g>
              <path class="st44" d="M127.3,152.8c.9.5,1.8.9,2.7,1.4,2.1,3.3,6.6,6.1,9.8,9.1.2.2.9,2.4,2.2,3.9.6.6,1.5,1.1,2.2,1.6-3.5,1.7-8.7-5.1-12-6.8-3.1-5-5.2-6.9-5.8-7.7,0,0,0-.7-.4-1.4.4,0,.9,0,1.3,0Z"/>
              <path class="st44" d="M183.5,155.5c-.4.5-.5,1.3-.9,1.8-2.9,3.4-6,6.6-8.9,10-1.3.2-5.4,1.1-6.2,1.4,2-2.3,4.2-4.6,6.2-6.8,1-1.1,2.4-2.3,3.1-3.6,2-.4,3.3-1.9,4.9-2.3l1.8-.5Z"/>
              <path class="st33" d="M173.7,167.3c-3.4,4-6.1,11.8-17.4,13.2-8.5-.4-16.3-10.2-11.6-11.4,10.6,6.5,18,1.3,22.7-.5.8-.3,4.9-1.2,6.2-1.4Z"/>
              <path class="st15" d="M144.3,168.7c.5.4.4.4.4.5-4.7,1.2,3.1,10.9,11.6,11.4-14.1,1.7-17.9-8.6-24.1-18.6,3.3,1.7,8.5,8.5,12,6.8Z"/>
              <path class="st15" d="M176.8,158.2c-.7,1.4-2.1,2.5-3.1,3.6-10.9,4-22.7,5.1-33.9,1.4-3.2-3-7.7-5.8-9.8-9.1,15.7,8.9,29.8,7.8,46.8,4.1Z"/>
              <path class="st22" d="M173.7,161.8c-2.1,2.3-4.2,4.5-6.2,6.8-4.7,1.7-12.2,6.9-22.7.5,0,0,0,0-.4-.5-.7-.5-1.6-1-2.2-1.6-1.4-1.5-2.1-3.7-2.2-3.9,11.1,3.7,22.9,2.6,33.9-1.4Z"/>
            </g>
          </g>
          <g>
            <g>
              <path class="st22" d="M195.9,133.2c1.6-1.7.9-1.4,1.3-3.2,0-.4,0-.9,0-1.4,0-.1,1.2-.4,0-2.7,2.7.6,6.2,4.1,6.2,5.9,0,6.6-17.5,7.6-25.2.9-3.8-3.3-.7-2.1.7-3.2,2.9-2.2,4.9-7.9,13.6-6.4,4.7.9-3.2,0-5.1,3.4-3.6,6.6,3.8,11.7,8.5,6.6Z"/>
              <path class="st17" d="M197.3,126c1.2,2.4,0,2.6,0,2.7l-1.3,1.4c-5.9,1.3-4.4-5.3,1.3-4.1Z"/>
              <path class="st25" d="M197.3,130.1c-.4,1.8.3,1.5-1.3,3.2-2.7-1.6,0-1.4.4-3.2h.9Z"/>
              <path class="st20" d="M197.3,130.1h-.9c-.1,0-.3,0-.4,0l1.3-1.4c0,.4,0,1,0,1.4Z"/>
            </g>
            <g>
              <path class="st43" d="M118.4,104c-6.1,7.9-7.3,28.3-7.1,27.3.4.7-4.1,18.8-4.5,18.2-3.6-6.4-8.9-20-1.8-34.5,1.7-3.5,8.4-10.6,13.4-10.9Z"/>
              <path class="st13" d="M211.1,136.4c4.3-10-7.4-4.5-7.6-4.5,0,6.6-17.5,7.6-25.2.9-3.8-3.3-.7-2.1.7-3.2-.6-4.1,2.9-7.4,6.2-9.3,1.6-.9,5.3-.9,8-.9s6.2,2.7,8.5,5.2c.7.9,12.5-17.2,12.7-17.3.2,0,1.6-3.6,1.6-4.3-.2-1.6-5.1-5.9-6.2-7.7-2.6-4.3-3.4-10.1-5.8-14.5-6.1-11.2-13.4-8.2-20.5-16.4-.4-.4-2.1-7.6-8.2-5.2-1.5.6-9.4,14.5-29.8,2.7-6,8.8-10.8,5.4-15.8,7.7-7.6,9.8-19.3,40.4-19.1,40.2-.9,3.6-2.7,8.2-2.8,12.3-.5,3.4-.5,11.8-.9,12.7-3.6,8.2-.9,17.3,0,19.1.1.3,13.1-.3,19.2-1.2.4,0,.9,0,1.3,0,12.9-2.8,22.4-17.4,22-30.4,18.9-1.8,6.7,3.1,16.3,20.7,3.9,7.2,9,9.8,16,12.9l1.8-.5c6,1.3,13.2,0,18.7-2.7,2.1-1,7.4-5.1,8.9-6.8,1.5-1.7,6.2-9.1,7.1-11.4-5.6,5.1-1-7.8-7.1,1.8ZM142,126.4c-1.7-.4-.5,2.8-.9,3.4-.8,1.1-3-1.4-3.6,1.1,0,.5,0,1.5,0,1.8,4.4,1-3.6,10.9-5.1,10.9-1.3,0-2.4-4.6-6.2-4.1-1.8.2-9.4-1.5-13.7-8.2.4-2.5.9-6.9,1-7.2.1-.3-.2-1.4.4-2.5,3.8-6.8,18.5-8.2,25.4-7.9,1.9,3.6,2.8,8.6,2.7,12.7ZM184.9,95.5c-1.1,0-2.1,0-3.1.1,1-.1,2.1-.2,3.1-.1ZM176.1,97.1c-.5.2-.9.5-1.2.7.3-.3.7-.5,1.2-.7Z"/>
              <path class="st22" d="M128.7,123.7c-14.8,3.6,1,18,4.5,6.8.6-1.8.5-3.2.4-5,.5,0,3,2.6,3.6,4.1,0,.2.4,1.3.4,1.4,0,.2,0,.6,0,.9s0,.8,0,.9c-1.5,5.4-16.5,4.8-22.7,2.7-2.2-.7-2.5-3.1-2.2-5,.8-6.2,14.3-9.5,16-6.8Z"/>
              <path class="st27" d="M139.4,113.7c-6.9-.3-21.6,1.1-25.4,7.9-.6,1.1-.3,2.2-.4,2.5,6.1-9,24.7-6.6,23.6,5.5,0,.2.8,1.5,0,4-2.9,4.4-17.1,3.3-22.3,1.9-.3,0-2.4-1-1.3.5,3.1,4.4,10.4,6.5,12.9,7.1,3.6.9,4.8,1,6.1.6,7.3-2.5,9.1-13.4,9.6-17.3.4-3.2-.8-9.1-2.7-12.7Z"/>
              <path class="st14" d="M133.1,130.5c-2,2.4-4.4,1.3-3.1-1.8,1.8-.4,2.5-3.2,3.6-3.2,0,1.8.1,3.2-.4,5Z"/>
            </g>
          </g>
        </g>
      </g>
    </g>
    <path class="st40" d="M110.4,136.7"/>
    <path class="st2" d="M107.7,144.9c4.4,4.7,12.2,8.8,18.3,7.9.5.7.4,1.3.4,1.4-4.8,1.3-9.8,1.2-14.7.2,3.3,14.9,30.9,38,44.8,38.4,10.9.3,48.9-18.4,54.6-33.6,2,2.7-3.7,6.7-2.2,8.2-5.5,8.1-14.8,14-23.2,18.6-9.7,5.3-23.2,12-34.3,10-6.9-1.2-25-12.7-30.5-17.7-8.7-7.9-16-21.4-15.9-34.3,0,0,2.6.9,2.7.9Z"/>
    <path class="st2" d="M118.4,100.1c-1.5.8-6.7,9.1-8.1,10.3.9-8.6,9.8-38.2,19.2-40.7,11.9-3.2-4,4-9.4,22-.8,2.6-.8,5.8-1.8,8.4Z"/>
    <g>
      <path class="st27" d="M153.2,153.2c-3.7-.2-6.9-2.6-9.4-5-1.7-9.4,3-.8,5.1.5,5.5,3.3,16.1-.2,4.2,4.5Z"/>
      <path class="st29" d="M143.8,148.2c2.4,2.4,5.7,4.8,9.4,5,3.3.1,12.9-5.2,7.8-.9-9.6,8-24-6.3-18.7-6.4.4,0,.4,1.1,1.6,2.3Z"/>
    </g>
    <path class="st27" d="M183.5,107.3c2.6-.2.7.6-2.7,2.1-5.4,2.3-8.9,6.4-6.2,18.6.1.5-.3.3-.7.7q-4.1-1.4-8.2-2.7c-.3-14.5,5.3-17.4,17.8-18.6Z"/>
    <path class="st27" d="M216.4,103.1c-.2-3.5-3.7-3.5-6.2-7.3-2.2-3.2-3.4-10.5-3.6-10.9-2.7-9.1-10.7-12.7-10.7-12.7,0,0,12.5,15.4,8,36.3-.5-.1-3.7-2-4.4-2.1-4.9.6-.9,1.5,1.3,5.7,3,5.5,4.6,12.1,3.1,18.4,0,.3,0,1.7,0,1.6,0,0-.9,2-1.8,2.7-4.5,3.6-13.3,2.6-16,1.8-1.8-.5-4.5-1.8-4.5-1.8,0,0,2.7,8.2,17.8,8.2s12.8-11.7,13.4-14.5c.8-4.1,0-9.1-2.7-14.5-.1-.2,6.3-9.2,6.2-10.9Z"/>
    <g>
      <path d="M109.4,111.6c0,.3.5,0,.9-.4,5.3-3.6,8-5.5,9.8-6.4,3.6-1.8,5.9-1.9,6.2-1.9,3.3-1.1,15.7,3.3,11.4-3.4-4-6.1-15.2-1.4-20,1.1-1.5.8-8.2,6.9-8.3,11Z"/>
      <path d="M198.8,107c.5.5.7-2.1.2-3.6-3.6-9.9-24.4-8.2-25.6-3.9-1.8,6.4,9.3,1.1,19.2,3.6,2.5.8,3.3.8,6.2,3.9Z"/>
    </g>
    <path class="st2" d="M204.3,122.1c0,.3-.3.6-.5.3-3.5-6.7-15.3-8.3-19.8-6.1-2.7,1.3,6.7-7.4,15.4-3.3,4.4,2.1,4.6,7.2,4.9,9Z"/>
    <path class="st11" d="M210,125.6c-3.9,1.1-6.4.8-7.8-.7-.4-.4-.7-.7-1-1-6.2-9-23.1-4.5-22.1,5.7,2.9-2.2,4.9-7.9,13.6-6.4,4.7.9-3.2,0-5.1,3.4-3.6,6.6,3.8,11.7,8.5,6.6-2.7-1.6,0-1.4.4-3.2-.1,0-.3,0-.4,0-5.9,1.3-4.4-5.3,1.3-4.1,2.7.6,6.2,4.1,6.2,5.9.4,1.2-.6,2.2-.5,2.1.9-.9,1.8-2.7.9-3.4,2.1,0,6-5,6-5Z"/>
    <path class="st2" d="M113,123.1s3.9-5.1,7.1-6.4c5-2,16.9-3.6,19.6-2.7s-10.4-4.1-18.9-.9c-1.2.4-3.1,1.6-4.3,2.7-3.6,3.6-3.6,7.3-3.6,7.3Z"/>
    <g>
      <path class="st13" d="M199.4,116.9l4.5,20.9s2.3,3.3,3.6,2.7c3.6-1.5,6.2-8.2,6.2-15.4s-3.6-12.7-3.6-12.7l-10.7,4.5Z"/>
      <g>
        <g id="Background2" data-name="Background" class="st41">
          <path class="st10" d="M146,444.6c-68.3,0-136.6,0-204.9,0V-20.6h456.1v465.2c-56,0-112,0-167.9,0l1.8-10.9c4.2-1.6,9.1-3.7,12.9-5.9,3.1-1.8,6.3-3.4,7.6-7-.5-6.3-2.1-12.3-3.6-18.4,70.1-51.1,89.4-128,31.2-198.5.4-.1,3.3,0,7.8-2.7,10.1-6.3,12.5-18.7,7.8-29.3,17.5-3.7,23.8-24.6,10.2-36.8,1.2-4.2,0-8.8-3.1-11.8,16.1-13.6,12.7-36.2-5.8-45,3.1-15-11.6-26.5-25.4-25.4,3.5-19.2-12-35-30.1-25.7-15.1-16.4-40.8-24.1-61-13.2-18.5-19.1-61.3-12.7-73.9,10.9-14.7-12.1-38.7,1.5-33.6,20.7q-5.2,4.7-10.5,9.3c-13.7,1.5-22.6,17.5-16.3,30.2-14.7,7.6-16.6,28.6-1.8,37.2-16.5,4.3-23.9,28.6-7.1,37.7-2.9,15.8,12.1,19.6,12.5,20.9-2.6,7.3-1.4,14,3.6,19.8-31.3,25.5-45.9,68.3-40.1,108.3,6.5,44.7,41,78.3,77.1,101.1-.6,4-1.6,7.9-1.3,12,2.2,2.7,4.3,4.2,7.1,6.1,13.1,9,34,12,49.4,13.6q.7,1.4,1.3,2.7Z"/>
        </g>
        <g>
          <g>
            <path class="st40" d="M230.6,117.5c-2.8-1.6-1.5,4.4-9.8,5,0-6.9-1.2-9.5-6.2-14.3l.7-.7c2,.7,13.7,5.8,14.3,6.4.8.9.7,2.2,1.1,3.6Z"/>
            <path class="st40" d="M230.6,117.5c.4,1.7.2,4.4.9,5-1,.2-8,7.3-11.1,6.8.4-2,.5-4.7.4-6.8,8.3-.6,7-6.6,9.8-5Z"/>
          </g>
          <g>
            <path class="st40" d="M94.8,56.2c-1.4,1.9-3.2,3.4-4.5,5.5.2-1.3.6-2.5.4-3.9-1.3-.5-9-6.6-9.4-7-.2-.4-1.8-7.7-1.8-8.4.1-3.7,2.6-7.5,5.3-9.8-5.5,12.4,8.5,17.8,9.4,20.2.5,1.4-1,3.2.4,3.4Z"/>
            <path class="st40" d="M285.9,69.4c3.8,6.5,2.6,9.6,0,16.6,4.2,1,4.8.4,8.9,2.5q-.1.5-.2.9c-.9-1.8-.6,1.6-5.3-1.4-1.1,5.1-6.6-2.3-4.2,4.8-6,2.8-2-15.4,1.8-16.4.3-.8-5-10.3-.9-7Z"/>
            <path class="st12" d="M63.6,157c-.3,0-1.4,1.7-4.7,2.7-.5-.1-4.1-9.5-4.2-10-1.5-7.6,2.4-10.1,3.1-11.4q6.2-4.2,12.5-8.4-.4-4.2-.9-8.4c0-2.6-7.5-6.5-12.5-10-2-4.2-1-9.4,1.8-13.2,7.9-3.6,17.8-1.6,17.8-7.5,0-.5-2-5.5-2.2-9.3-.7-10.2,13.1-12.1,14.3-13.4.5-.5,1.6-5.4,1.8-6.6,1.3-2,3-3.6,4.5-5.5,2-2.6,3.3-.4,1.8-8.4,14.4-16.3,13.6-10.2,33.6-7.5,3-.7,3-13.9,9.4-15,8.9-1.6,11.2,9.8,7.6,12.7-3.4,2.7-3-2.5-6.2-7.3-3.5,21.5-16.5,14.4-32.5,12.3-7.9,5.5-4.2,9.7-5.1,12.5-.3.8-7.1,6.7-7.6,7.7-2.8,6.1,4.9,5-15.6,15.9-2.2,5.7,8.4,15.5-6.5,22-4.3,1.9-15.5,2.1-12.5,5.9,2.5,3.1,14.3,5.7,14.9,16.6,1.3,21.6-25.2,9.7-12.5,33.4Z"/>
            <path class="st12" d="M288.1,153.9c-.1-.1-.3-.3-.4-.5-.3-17.4-11.4-11.9-18-16.4-4.3-2.9-7.3-18.4,13.1-17.5,5.2,7.6-13,6-11.1,10,.4.9,14.1,5.8,16,8.2,2.8,3.5,2.8,13.2.4,16.1Z"/>
            <path class="st43" d="M57.8,138.4c-.7,1.3-4.6,3.7-3.1,11.4-5.4-2-14-2.5-12.9-10.2,1.7-12.4,14.7-1.1,16-1.1Z"/>
            <path class="st43" d="M69.4,121.6q.4,4.2.9,8.4-6.2,4.2-12.5,8.4c.5-.9,2-2,2.2-2.5,1.9-5.1-4.1-8.9-3.6-14.1q6.5-.1,12.9-.2Z"/>
            <g>
              <path class="st40" d="M98.3,117.5q-.6,4.5-1.1,9.1c-2.9-1.9-6.2-1.5-7.8-5q4.5-2,8.9-4.1Z"/>
              <path class="st32" d="M108.6,113.9c-1.3,3.4-2.5,5.2-2.7,9.1-3.2,1.8-1.1-8.1,3.1-11.1q-.2,1-.4,2Z"/>
            </g>
            <g>
              <path class="st43" d="M297.4,139.6c1.4-15.9-7-16-7.6-16.8-2.8-3.9,5.1-3.6,9.4-8.6,6.4-7.6,4.5-21.1-4.5-25.7l-.2.9c-.9-1.8-.6,1.6-5.3-1.4-1.1,5.1-6.6-2.3-4.2,4.8-6,2.8-2-15.4,1.8-16.4.3-.8-5-10.3-.9-7-3.6-6.1-10-8.9-16.7-5.9-2.6-.5.9-5.6-9.1-11.1,7.8-14.7-10.6-26.7-19.8-12.9-16.4-18.8-39.4-27.2-62.4-14.5-15.6-18-45.1-15.9-61.2.2-1.6,1.6,0,3.8-11.8,8.9-1.8,0-9.3-10.3-19.8-1.4-5.5,12.4,8.5,17.8,9.4,20.2.5,1.4-1,3.2.4,3.4,2-2.6,3.3-.4,1.8-8.4,14.4-16.3,13.6-10.2,33.6-7.5,3-.7,3-13.9,9.4-15,8.9-1.6,11.2,9.8,7.6,12.7-3.4,2.7-3-2.5-6.2-7.3-3.5,21.5-16.5,14.4-32.5,12.3-7.9,5.5-4.2,9.7-5.1,12.5-.3.8-7.1,6.7-7.6,7.7-2.8,6.1,4.9,5-15.6,15.9-2.2,5.7,8.4,15.5-6.5,22-4.3,1.9-15.5,2.1-12.5,5.9,2.5,3.1,14.3,5.7,14.9,16.6,1.3,21.6-25.2,9.7-12.5,33.4-.3,0-1.4,1.7-4.7,2.7-.5-.1-4.1-9.5-4.2-10-5.4-2-14-2.5-12.9-10.2,1.7-12.4,14.7-1.1,16-1.1.5-.9,2-2,2.2-2.5,1.9-5.1-4.1-8.9-3.6-14.1l12.9-.2c0-2.6-7.5-6.5-12.5-10-2-4.2-1-9.4,1.8-13.2,7.9-3.6,17.8-1.6,17.8-7.5,0-.5-2-5.5-2.2-9.3-.7,0-1.4,0-2,0,.7,0,1.3,0,2,0-.7-10.2,13.1-12.1,14.3-13.4.5-.5,1.6-5.4,1.8-6.6.2-1.3.6-2.5.4-3.9-1.3-.5-9-6.6-9.4-7-1.1.2-2.2.8-3.1,1.4-.5.8-1,1.7-1.4,2.5.4-.8.8-1.6,1.4-2.5-7.2,4-4.8,3.3-8.2,10.4-17.1-1.4-23.5,15.5-11.4,27.5-2.4.8-4.8,1.1-7.1,2-1.9.8-3,1.3-4.5,2.7-8.5,8.1-4.5,19.5,5.3,23.8.6,1.7-3.6,4.2,0,12.7-16.8-2-22.9,17.4-7.1,25-3.4,8.4,2.6,19.5,11.8,16.1,7.4,7.4-1.8,7.5-.2,17.9,1.3,8.2,12.6,13.4,19.4,8.4,9.6,4.1,4.9,4.7,8.2,9.3,4.2,5.9,14.6,5.3,19.4.2,1.3.3.6,12.8,17.8,10.4,4.1-7.5,5.5-2.3,12-5.5,4.8-2.4,4.8-9,9.6-4.5,2.6-3.7,4-8.3,7.6-11.4,0-.7.1-.8.4-1.4-6.9-1.2-23.9-14.3-29.4-19.3-9.3-8.4-14.8-15.8-14.7-28.7.1-.6-.3-7.6-1.3-9.8-.4-.8-.3-8.6,0-15.4-3.2,1.8-1.1-8.1,3.1-11.1q-.2,1-.4,2c.1-.4,1.3-3,1.3-3.2,1.2-2.4,2.2-6.4,5.8-5.2q-.9-1.2-1.8-2.5c.9-8.6,7.1-29.3,15.6-33.2,5-2.3,9.8,1.1,15.8-7.7,20.4,11.7,28.3-2.1,29.8-2.7,6.1-2.4,7.9,4.8,8.2,5.2,7.1,8.2,14.4,5.1,20.5,16.4,2.4,4.4,3.2,10.3,5.8,14.5,1.1,1.8-.7,15.1.4,17.8,4.1,9.4,3.6,19.1.9,23.4,6-9.7,1.5,3.3,7.1-1.8.5-1.2,2.1-4.8,2.2-5.5.4-2,.5-4.7.4-6.8,0-6.9-1.2-9.5-6.2-14.3l.7-.7c2,.7,13.7,5.8,14.3,6.4.8.9.7,2.2,1.1,3.6.4,1.7.2,4.4.9,5,10.5-2.6,15.3,17.2,2.9,27.7-9.6,8.1-14.7-2.2-20.7,7-.3.5-.8,4.3-4.9,10.2-5.5,8.1-14.8,14-23.2,18.6,1.1,2.6,1.5,5.5,2.2,8.2.6,2.2,1.7,4.7,1.8,5,5.1.5,7.1,6,9.8,7.7.5.3,3.2.8,4.2.9,6.3,12.5,22.8,9.7,26.7-3.6,8.6,9.2,21.7,11.1,25.4-3.6,6.5,0,11.2.7,15.6-5,16.4,1.8,22.6-14.9,10.9-26.1q2.8-3.7,5.6-7.5c5.5,1.4,10.7.1,13.6-5,3.7-6.5,1.9-13.2-4-17.5ZM75.9,56.9c-.3.8-.5,1.5-.7,2.2.2-.7.4-1.4.7-2.2ZM61.1,65.3c.5-.2,1-.3,1.5-.4.5,0,1-.1,1.6,0-.5,0-1,0-1.6,0-.5,0-1,.2-1.5.4-.4.1-.7.3-1,.6.3-.2.7-.4,1-.6ZM56.9,71.1c0-.5.2-1,.4-1.4-.2.5-.3.9-.4,1.4-.1.7-.2,1.5-.1,2.3,0-.8,0-1.5.1-2.3ZM288.1,153.9c-.1-.1-.3-.3-.4-.5-.3-17.4-11.4-11.9-18-16.4-4.3-2.9-7.3-18.4,13.1-17.5,5.2,7.6-13,6-11.1,10,.4.9,14.1,5.8,16,8.2,2.8,3.5,2.8,13.2.4,16.1Z"/>
              <g>
                <path class="st12" d="M189.4,26.7c11.2-1.1,19.4,18.5,40.5,11.4,10.3,13.9,19,9.7,14.5,26.6,2.3,1.2,11.1,9.1,11.8,9.3,4.9,1.8,19.4-2.7,14.9,15.7,4.2,1.5,19.1,7.5,20.9,10.9,2.1,4,.7,11.8-3.8,13.4-10.3,3.7-.8-8.7-1.1-10.2-11.1-10.4-26.6-.8-20.5-22.3q-5.9-.6-11.8-1.1c-7.5-10-11.8-7.4-14.5-10.7-7.1-8.8,11.1-20.5-17.6-16.6l-2.2-7.7c-10.9.4-20.5-6-29-12.3-3.8-.3-15.3,7.4-12.7-.7.6-1.7,8.5-5.5,10.5-5.7Z"/>
                <path class="st42" d="M231.3,43.5c2.8-.2-2.3,2-3.1,2.3-10.7,4-3.1-1.8,3.1-2.3Z"/>
              </g>
            </g>
          </g>
          <g>
            <g>
              <g>
                <path class="st5" d="M187.9,194.3c-8.1,10.5-19.4,18.6-32.1,22.3-2.1-2.8-4.8-5.4-5.3-9.1-.4-2.6.2-7.2.4-10,0-.7.1-.8.4-1.4,11.1,2,24.6-4.6,34.3-10,1.1,2.6,1.5,5.5,2.2,8.2Z"/>
                <path class="st27" d="M189.6,199.3c.3,1.9.6,3.8.9,5.7-6.5,7.9-16.3,13.8-25.8,17-2.2.8-1.7.9-1.8.9-.7.2-.3.7-2.2-.5-.2-.1-1.2-.8-1.3-.9-.2-.2-3-4.3-3.6-5,12.6-3.6,24-11.7,32.1-22.3.6,2.2,1.7,4.7,1.8,5Z"/>
              </g>
              <path class="st27" d="M211,159.3c-5.7,15.2-43.6,33.9-54.6,33.6-13.9-.4-41.5-23.5-44.8-38.4,4.9,1,9.9,1.1,14.7-.2.6.8,2.7,2.8,5.8,7.7,6.2,10,9.9,20.4,24.1,18.6,11.3-1.4,14-9.2,17.4-13.2,2.9-3.4,6.1-6.6,8.9-10,3.2.8,6.8,1.3,10,.9,1.9-.2,10.5-3.7,9.6-5.5,2.1-1,7.4-5.1,8.9-6.8,1.8,4.1,1.6,8.9,0,13.2Z"/>
              <path class="st3" d="M202.1,153c.9,1.8-7.7,5.2-9.6,5.5-3.2.4-6.8-.1-10-.9.4-.5.5-1.3.9-1.8,6,1.3,13.2,0,18.7-2.7Z"/>
              <g>
                <path class="st27" d="M208.8,167.5c-1.5-1.5,4.2-5.5,2.2-8.2,1.6-4.3,1.8-9.1,0-13.2,1.5-1.7,5.2-8.9,6.2-11.1.5-1.2,3-5.1,3.2-5.7,3.2.4,10.1-6.6,11.1-6.8,10.5-2.6,15.3,17.2,2.9,27.7-9.6,8.1-14.7-2.2-20.7,7-.3.5-.8,4.3-4.9,10.2Z"/>
                <path class="st7" d="M233.3,139.8c1.7,6.4-4.3,7.1-6.5,5.9-2.2-1.3-3.3-9.4-2-12.3,3.8,1.6,7.7,9.7,8.5,6.4Z"/>
                <path class="st29" d="M233.3,139.8c-.8,3.3-4.7-4.8-8.5-6.4,1.8-4.1,15-6.8,12.7,4.1-1.2-8.9-8.5-5.2-8.7-4.3-.2.7,3.7,3.7,4.5,6.6Z"/>
              </g>
              <path class="st13" d="M181.6,156.1c-1.6.4-2.9,1.8-4.9,2.3-17,3.7-31.1,4.8-46.8-4.1-.9-.5-1.8-.9-2.7-1.4,12.9-2.8,22.4-17.4,22-30.4,18.9-1.8,6.7,3.1,16.3,20.7,3.9,7.2,9,9.8,16,12.9Z"/>
              <g>
                <path class="st44" d="M127.3,153c.9.5,1.8.9,2.7,1.4,2.1,3.3,6.6,6.1,9.8,9.1.2.2.9,2.4,2.2,3.9.6.6,1.5,1.1,2.2,1.6-3.5,1.7-8.7-5.1-12-6.8-3.1-5-5.2-6.9-5.8-7.7,0,0,0-.7-.4-1.4.4,0,.9,0,1.3,0Z"/>
                <path class="st44" d="M183.4,155.7c-.4.5-.5,1.3-.9,1.8-2.9,3.4-6,6.6-8.9,10-1.3.2-5.4,1.1-6.2,1.4,2-2.3,4.2-4.6,6.2-6.8,1-1.1,2.4-2.3,3.1-3.6,2-.4,3.3-1.9,4.9-2.3l1.8-.5Z"/>
                <path class="st33" d="M173.6,167.5c-3.4,4-6.1,11.8-17.4,13.2-8.5-.4-16.3-10.2-11.6-11.4,10.6,6.5,18,1.3,22.7-.5.8-.3,4.9-1.2,6.2-1.4Z"/>
                <path class="st15" d="M144.2,168.9c.5.4.4.4.4.5-4.7,1.2,3.1,10.9,11.6,11.4-14.1,1.7-17.9-8.6-24.1-18.6,3.3,1.7,8.5,8.5,12,6.8Z"/>
                <path class="st15" d="M176.7,158.4c-.7,1.4-2.1,2.5-3.1,3.6-10.9,4-22.7,5.1-33.9,1.4-3.2-3-7.7-5.8-9.8-9.1,15.7,8.9,29.8,7.8,46.8,4.1Z"/>
                <path class="st22" d="M173.6,162c-2.1,2.3-4.2,4.5-6.2,6.8-4.7,1.7-12.2,6.9-22.7.5,0,0,0,0-.4-.5-.7-.5-1.6-1-2.2-1.6-1.4-1.5-2.1-3.7-2.2-3.9,11.1,3.7,22.9,2.6,33.9-1.4Z"/>
              </g>
            </g>
            <g>
              <g>
                <path class="st22" d="M195.9,133.4c1.6-1.7.9-1.4,1.3-3.2,0-.4,0-.9,0-1.4,0-.1,1.2-.4,0-2.7,2.7.6,6.2,4.1,6.2,5.9,0,6.6-17.5,7.6-25.2.9-3.8-3.3-.7-2.1.7-3.2,2.9-2.2,4.9-7.9,13.6-6.4,4.7.9-3.2,0-5.1,3.4-3.6,6.6,3.8,11.7,8.5,6.6Z"/>
                <path class="st17" d="M197.2,126.2c1.2,2.4,0,2.6,0,2.7l-1.3,1.4c-5.9,1.3-4.4-5.3,1.3-4.1Z"/>
                <path class="st25" d="M197.2,130.2c-.4,1.8.3,1.5-1.3,3.2-2.7-1.6,0-1.4.4-3.2h.9Z"/>
                <path class="st20" d="M197.2,130.2h-.9c-.1,0-.3,0-.4,0l1.3-1.4c0,.4,0,1,0,1.4Z"/>
              </g>
              <g>
                <path class="st43" d="M118.3,104.2c-6.1,7.9-7.3,28.3-7.1,27.3.4.7-4.1,18.8-4.5,18.2-3.6-6.4-8.9-20-1.8-34.5,1.7-3.5,8.4-10.6,13.4-10.9Z"/>
                <path class="st13" d="M211,136.6c4.3-10-7.4-4.5-7.6-4.5,0,6.6-17.5,7.6-25.2.9-3.8-3.3-.7-2.1.7-3.2-.6-4.1,2.9-7.4,6.2-9.3,1.6-.9,5.3-.9,8-.9s6.2,2.7,8.5,5.2c.7.9,12.5-17.2,12.7-17.3.2,0,1.6-3.6,1.6-4.3-.2-1.6-5.1-5.9-6.2-7.7-2.6-4.3-3.4-10.1-5.8-14.5-6.1-11.2-13.4-8.2-20.5-16.4-.4-.4-2.1-7.6-8.2-5.2-1.5.6-9.4,14.5-29.8,2.7-6,8.8-10.8,5.4-15.8,7.7-7.6,9.8-19.3,40.4-19.1,40.2-.9,3.6-2.7,8.2-2.8,12.3-.5,3.4-.5,11.8-.9,12.7-3.6,8.2-.9,17.3,0,19.1.1.3,13.1-.3,19.2-1.2.4,0,.9,0,1.3,0,12.9-2.8,22.4-17.4,22-30.4,18.9-1.8,6.7,3.1,16.3,20.7,3.9,7.2,9,9.8,16,12.9l1.8-.5c6,1.3,13.2,0,18.7-2.7,2.1-1,7.4-5.1,8.9-6.8,1.5-1.7,6.2-9.1,7.1-11.4-5.6,5.1-1-7.8-7.1,1.8ZM142,126.6c-1.7-.4-.5,2.8-.9,3.4-.8,1.1-3-1.4-3.6,1.1,0,.5,0,1.5,0,1.8,4.4,1-3.6,10.9-5.1,10.9-1.3,0-2.4-4.6-6.2-4.1-1.8.2-9.4-1.5-13.7-8.2.4-2.5.9-6.9,1-7.2.1-.3-.2-1.4.4-2.5,3.8-6.8,18.5-8.2,25.4-7.9,1.9,3.6,2.8,8.6,2.7,12.7ZM184.9,95.7c-1.1,0-2.1,0-3.1.1,1-.1,2.1-.2,3.1-.1ZM176.1,97.3c-.5.2-.9.5-1.2.7.3-.3.7-.5,1.2-.7Z"/>
                <path class="st22" d="M128.6,123.9c-14.8,3.6,1,18,4.5,6.8.6-1.8.5-3.2.4-5,.5,0,3,2.6,3.6,4.1,0,.2.4,1.3.4,1.4,0,.2,0,.6,0,.9s0,.8,0,.9c-1.5,5.4-16.5,4.8-22.7,2.7s-2.5-3.1-2.2-5c.8-6.2,14.3-9.5,16-6.8Z"/>
                <path class="st27" d="M139.3,113.9c-6.9-.3-21.6,1.1-25.4,7.9-.6,1.1-.3,2.2-.4,2.5,6.1-9,24.7-6.6,23.6,5.5,0,.2.8,1.5,0,4-2.9,4.4-17.1,3.3-22.3,1.9-.3,0-2.4-1-1.3.5,3.1,4.4,10.4,6.5,12.9,7.1,3.6.9,4.8,1,6.1.6,7.3-2.5,9.1-13.4,9.6-17.3.4-3.2-.8-9.1-2.7-12.7Z"/>
                <path class="st14" d="M133.1,130.7c-2,2.4-4.4,1.3-3.1-1.8,1.8-.4,2.5-3.2,3.6-3.2,0,1.8.1,3.2-.4,5Z"/>
              </g>
            </g>
          </g>
        </g>
      </g>
      <path class="st40" d="M110.3,136.9"/>
      <path class="st2" d="M107.6,145c4.4,4.7,12.2,8.8,18.3,7.9.5.7.4,1.3.4,1.4-4.8,1.3-9.8,1.2-14.7.2,3.3,14.9,30.9,38,44.8,38.4,10.9.3,48.9-18.4,54.6-33.6,2,2.7-3.7,6.7-2.2,8.2-5.5,8.1-14.8,14-23.2,18.6-9.7,5.3-23.2,12-34.3,10-6.9-1.2-25-12.7-30.5-17.7-8.7-7.9-16-21.4-15.9-34.3,0,0,2.6.9,2.7.9Z"/>
      <path class="st2" d="M118.4,100.3c-1.5.8-6.7,9.1-8.1,10.3.9-8.6,9.8-38.2,19.2-40.7,11.9-3.2-4,4-9.4,22-.8,2.6-.8,5.8-1.8,8.4Z"/>
      <g>
        <path class="st27" d="M153.1,153.4c-3.7-.2-6.9-2.6-9.4-5-1.7-9.4,3-.8,5.1.5,5.5,3.3,16.1-.2,4.2,4.5Z"/>
        <path class="st29" d="M143.8,148.4c2.4,2.4,5.7,4.8,9.4,5,3.3.1,12.9-5.2,7.8-.9-9.6,8-24-6.3-18.7-6.4.4,0,.4,1.1,1.6,2.3Z"/>
      </g>
      <path class="st27" d="M183.4,107.5c2.6-.2.7.6-2.7,2.1-5.4,2.3-8.9,6.4-6.2,18.6.1.5-.3.3-.7.7q-4.1-1.4-8.2-2.7c-.3-14.5,5.3-17.4,17.8-18.6Z"/>
      <path class="st2" d="M231.5,148.7l.9,1.8c.9,1.8-2.7,2.7-2.7,2.7-1,.3-1.8.9-2.7,0l.9-4.5c.9-1.8,3.3-.4,3.6,0Z"/>
      <path class="st27" d="M216.3,103.3c-.2-3.5-3.7-3.5-6.2-7.3-2.2-3.2-3.4-10.5-3.6-10.9-2.7-9.1-10.7-12.7-10.7-12.7,0,0,12.5,15.4,8,36.3-.5-.1-3.7-2-4.4-2.1-4.9.6-.9,1.5,1.3,5.7,3,5.5,4.6,12.1,3.1,18.4,0,.3,0,1.7,0,1.6,0,0-.9,2-1.8,2.7-4.5,3.6-13.3,2.6-16,1.8-1.8-.5-4.5-1.8-4.5-1.8,0,0,2.7,8.2,17.8,8.2s12.8-11.7,13.4-14.5c.8-4.1,0-9.1-2.7-14.5-.1-.2,6.3-9.2,6.2-10.9Z"/>
      <g>
        <path d="M109.4,111.8c0,.3.5,0,.9-.4,5.3-3.6,8-5.5,9.8-6.4,3.6-1.8,5.9-1.9,6.2-1.9,3.3-1.1,15.7,3.3,11.4-3.4-4-6.1-15.2-1.4-20,1.1-1.5.8-8.2,6.9-8.3,11Z"/>
        <path d="M198.7,107.2c.5.5.7-2.1.2-3.6-3.6-9.9-24.4-8.2-25.6-3.9-1.8,6.4,9.3,1.1,19.2,3.6,2.5.8,3.3.8,6.2,3.9Z"/>
      </g>
      <g>
        <path class="st14" d="M232.4,156c0-1.8,0-4.5-.9-5.5s-1.6-1.8-2.7-.9c-.8.7-1.6,4.2-1.8,6.4,0,.7.3,3.1.9,3.6,1.8,1.4,2.9,1.2,3.5.2,1.8-2.9.9-2.5.9-3.8Z"/>
        <path class="st25" d="M232.9,155.2c-.2-2.5-.4-4.4-1.4-4.7-2.7-.9-.9,2.7-3.6,4.5-1,.7-.5,3,0,3.6,3,3.8,5.1-.9,4.9-3.5Z"/>
      </g>
      <path class="st2" d="M204.3,122.3c0,.3-.3.6-.5.3-3.5-6.7-15.3-8.3-19.8-6.1s6.7-7.4,15.4-3.3c4.4,2.1,4.6,7.2,4.9,9Z"/>
      <path class="st11" d="M209.9,125.7c-3.9,1.1-6.4.8-7.8-.7-.4-.4-.7-.7-1-1-6.2-9-23.1-4.5-22.1,5.7,2.9-2.2,4.9-7.9,13.6-6.4,4.7.9-3.2,0-5.1,3.4-3.6,6.6,3.8,11.7,8.5,6.6-2.7-1.6,0-1.4.4-3.2-.1,0-.3,0-.4,0-5.9,1.3-4.4-5.3,1.3-4.1,2.7.6,6.2,4.1,6.2,5.9.4,1.2-.6,2.2-.5,2.1.9-.9,1.8-2.7.9-3.4,2.1,0,6-5,6-5Z"/>
      <path class="st2" d="M113,123.2s3.9-5.1,7.1-6.4c5-2,16.9-3.6,19.6-2.7s-10.4-4.1-18.9-.9c-1.2.4-3.1,1.6-4.3,2.7-3.6,3.6-3.6,7.3-3.6,7.3Z"/>
      <path class="st11" d="M114.1,123.6h0c-2.8,2.5-6.6.4-6.6.4,0,0,1.3,3.3,4.2,3.9.1,0,.3,0,.4.1,0,1.6,0,2.1.5,2.7.8-6.2,14.3-9.5,16-6.8.1,0,.2.2.2.3.2.2.2.4,0,.4.2,0,.2-.2,0-.4,0,0-.1-.2-.2-.3-14.8,3.6,1,18,4.5,6.8-2,2.4-4.4,1.3-3.1-1.8-.8-.3-1.4-.4-1.9-.6.5.2,1.1.4,1.9.6,1.8-.4,2.5-3.2,3.6-3.2.5,0,3,2.6,3.6,4.1,1.1-11.7-16.4-14.3-23-6.2Z"/>
      <g>
        <path class="st24" d="M143.3,125.1c0,14.3-13.6,24.5-24.9,24.5s-16.9-9.3-16.9-23.6,8.3-20,19.6-20,22.3,4.8,22.3,19.1Z"/>
        <path class="st24" d="M213.7,126.1c0,20.7-15.9,27.1-29.2,27.1s-19.8-10.3-19.8-26.1,9.7-22.1,22.9-22.1,26.1,5.3,26.1,21.1Z"/>
        <g>
          <path d="M218.1,134.1c5.1-8.7-3.4-17.1-4.5-20-2.7-7.3-6-9.1-8.9-10s-5.3-.9-11.6-.9-25.8-2.7-30.7,12.5c-6.4-2.8-11.2-2.4-17.8-.9-1.3-2.5-4.9-10.6-18.3-11.5-1.7-.1-8.2-.6-14.3.9s-7,2.6-8.9,4.5c-2,2-4.1,8.9-4.5,16.4-.3,6.4,1.8,15.4,2.7,17.3.6,1.1,2.7,5.5,5.1,6.8,11.8,6.9,13.4,4.5,18.9,4.1,13.4-.9,23.5-16.8,23.2-29.8,18.9-1.8,6.7,3.1,16.3,20.7,2.3,4.2,8.7,10,14.9,11.8s13.2,1.6,20.5-1.8c11.6-5.5,15.1-15.4,17.8-20ZM141.3,127.5c-.2,6.8-3,12.2-7.2,15.8-5.5,4.5-13.6,5.9-22.2,3.3-5.1-1.6-6.9-5.7-7.8-7.9-3.6-9.1,0-21.8.9-24.5,1.7-5.2,9.3-7,14.3-7.3,7.7-.5,15.4.2,19.4,7.9,1.9,3.6,2.8,8.6,2.7,12.7ZM170.7,144.1c-3.1-4.3-4.8-12.7-4.9-17.9-.3-14.5,4.6-17.3,17.8-18.6,5-.5,10.2-.8,15.1,0,.7.1,2.2.3,2.7.5,1.9.5,3.8,1.2,5.2,2.6s3.9,5.4,5.3,15.4c.4,3.1,0,7.3-1.5,11.5,0,0,0,0,0,0-8,18.5-32.2,16.8-39.6,6.6Z"/>
          <path class="st37" d="M231.1,113c-.5-.6-12.2-5.8-14.3-6.4-2.3-.7-7.3-.1-7.6.2,4.2,4,2.6,13.5,6.2,17.3s3.3-1.1,5.1-2l.2.2h1.8v-.7c8.1-.7,10.6-2.7,13.4-1.1-.4-1.5-4-6.6-4.9-7.5Z"/>
          <g>
            <path class="st4" d="M99.9,116.6q-4.5,2-8.9,4.1c-.5-1-2.4-8.8-1.1-9.5,20.3-3.1,15.8-9.3,10,5.5Z"/>
            <path d="M99.9,116.6q-.6,4.5-1.1,9.1c-2.9-1.9-6.2-1.5-7.8-5q4.5-2,8.9-4.1Z"/>
          </g>
          <path d="M232.4,122.3c-.7-.6,4-1,3.6-2.7-2.6-1.5-5.4.7-12.1,1.9-8.5.8-11.1-1.9-11.1-1.9l.9,2.7c0,.5.4,2.2.9,4l-1.9.6,1.8,6.3c4.8-4.9,7.5-3.2,13.4-8.2,2.1-1.6,4-2.6,4.5-2.7Z"/>
        </g>
      </g>
      <g>
        <g>
          <path class="st6" d="M191.2,441.9c-15.4,1.4-81.2-24.2-77.5-8.9.2.9,3.7,16.1,7.1,19.1,6.2,5.5,38.3,7.3,59.7,6.4,12.8,0,48.1-10.1,49-14.7.9-4.4.9-5.5,1.8-10.9-12.6,4.7-26.8,7.8-40.1,9.1Z"/>
          <path class="st26" d="M167.4,458.6l-1.2-9.7s2.4,9.7,3.6,9.7h-2.4Z"/>
        </g>
        <path class="st27" d="M164,221c.6,3.2,2.3,6.1,3.8,9,.5,2.5-3.9.7-6.9,1.3-6,1.2-7.1,7.2-3.1-3.2,1-2.6,2.3-5,3.1-7.7,2.7,1.6,2.2.9,3.1.6Z"/>
        <g>
          <path class="st36" d="M225.2,306.6s1.8-1.2,1.8-.9c.7.2,21.5-21.9,24.1-29.1.7-1.9,4.5-14.5,3.2-20.2-2-7.9-4.8-15.4-9.9-21.6-9.9-11.9-20.5-9-28.5-11.6-1.8,4-4.1,7.9-6.7,11.4-1.6,5.9-13.4,21-19.4,21.4-8.4.6-13.3-12.3-18.9-15.9.7,6.4-1.4,12-7.1,15.2.2,1,3-2.3,3.6,2.5,4.4-2.3-2.5,5.5-5.6,5.9-6.7.9-9.4-7.9-10-13.4-.3-2.2-.3-8.6.9-7.9-.4-5.4,1.9-9.9,4.5-14.5-.5.2.2-1.3-2.7,1.6-2.9,3-18.3,25-19.8,25.2-.3,0-4.6-2.3-4.7-2.5-1.2-2.8,0-27.9-2.4-29.3-.7-.4-3.2.8-2.9-.9-6.7.5-10,.8-16.3,4.5-9.1,5.3-18.6,20.9-16.3,25.7,3.1,6.3,11.1,16.3,17.3,21.7,1.7,1.5,3.4-.8,4.4-2.6-3,7-8.1,18-7.1,27.1,1.2,10.4,6.2,16.3,9.8,19.1,2.4,1.9,8,3.6,8,3.6,0,0,4.5,4.7-.9,13.6-2.2,3.6-8.9,12.9-16.9,33.9-4.3,17.4-7.8,34.9-10.2,52.7-.3,1.9,0,4-.9,5.9,13.1,9,34,12,49.4,13.6,15.3,1.6,31,2.3,46.3.9,13.3-1.2,27.5-4.4,40.1-9.1,4.2-1.6,9.1-3.7,12.9-5.9-1.9-14.2-5.1-28.1-8.9-41.8-2.9-10.3-5.7-20.4-10.7-30-6.6-5.3-4.6-28.3-3.5-39.1l3.9-9.4Z"/>
          <path class="st31" d="M221.6,310.2c0,0,0,.1,0,.2,0-.2,0-.2,0-.2Z"/>
          <path class="st31" d="M221.7,310.4c0,.2,0,.5,0,1,0-.4.1-.8,0-1Z"/>
        </g>
        <path class="st36" d="M103,306.6"/>
        <path class="st31" d="M224.6,353.3c-4.3-6.3-4.2-24.2-3.1-35.9,2.1-2.8,3.8-6.2,4.5-9.3.9-3.3.4-14.4-2.5-22.5-1.4.2,4.1,11.5-.7,21.7-1.9,2.7-4.4,6.3-8.4,9-2,1.2-4.3,2.3-7,3.3-5.3,1.5-12.2,1.6-21.6-1.1.6.2,31.5,36.4,38.3,50.9,6.7,14,14.5,57,13.4,60.9.4,0,6-3.1,8.9-4.5s-2.4-44.1-21.8-72.4Z"/>
        <path class="st31" d="M129.7,322.4c4.5,0,8.9-2.7,8.9-2.7-5.3,2.7-14.3,1.5-14.3,1.5,0,0,1,1.7.9,4.5-.1,3-1.4,7.4-3.5,11.2-3.6,6.3-6.4,11.7-8.5,16.2-2.5,4.3-4.3,9.2-5.4,12.4-.8,2.1-1.2,3.2-1.2,3.2-4.3,17.4-8.3,41-10.7,58.8,5.9,3.6,6.2,3.6,6.2,3.6,0,0-2.9-19.9,1.8-38.5,6.6-26.3,17.5-37.5,20.5-42.3,13.4-21.8,5.4-27.9,5.4-27.9Z"/>
        <path class="st36" d="M103.1,306.6"/>
        <path class="st31" d="M102.2,266.6s6.2,2.7,11.6-.9c5.5-3.7-2.7,11.8-2.7,11.8,0,0-5.4-4.8-8.9-10.9Z"/>
        <path class="st16" d="M161,281.8c-2.8.9-3.5-4.2-.9-4.5,2.3-.3,2.8,3.9.9,4.5"/>
        <path class="st16" d="M161,299.9c-2.8.9-3.5-4.2-.9-4.5,2.3-.3,2.8,3.9.9,4.5"/>
        <g>
          <path class="st31" d="M161,221.5c-.6,1.9-1.5,3.6-2.2,5.5-1.6-.3-1.7.9-1.8.9-.5.2.2-1.3-2.7,1.6-2.9,3-18.3,25-19.8,25.2-.3,0-4.6-2.3-4.7-2.5-1.2-2.8,0-27.9-2.4-29.3-.7-.4-3.2.8-2.9-.9,1.8-.1,3.5.8,5.3.5-.5,8-.2,16.5,6,22.3.4,0,3.2-3.6,3.8-4.1,6-5.7,11.4-12,17.4-17.7.8-.8,2.1-1.3,2.7-2.3.2.1,1.1.8,1.3.9Z"/>
          <path class="st31" d="M152.6,242.3c0,.8,0,1.7,0,2.5.2.4,1,.8,1.3,1.1-4.2,5.8,6.1,9.3,2.4,8.6-.5,0-1.7-1.3-2.2-1.8,2.1,7.7,6.4,8.5,13.1,5,4.4-2.3-2.5,5.5-5.6,5.9-6.7.9-9.4-7.9-10-13.4-.3-2.2-.3-8.6.9-7.9Z"/>
          <g>
            <path class="st23" d="M199.4,206.9c2.2,6.7,9,13.9,16.5,16.3-1.8,4-4.1,7.9-6.7,11.4-3.3,4.4-14.6,16.6-20.3,15.9-5-.6-21.4-23.6-23.8-29.5,9.5-3.3,18.9-8.9,25.4-16.8-.2-1.9-1.4-5.4-1.8-7.3,5.1.5,8,8.3,10.7,10Z"/>
            <path class="st31" d="M165,221c2.5,5.9,18.8,28.9,23.8,29.5,5.6.7,16.9-11.5,20.3-15.9-1.6,5.9-13.4,21-19.4,21.4-8.4.6-14.9-10.5-18.9-15.9-1.8-2.4-2-3.2-2.7-5.1-.4-1.2-.4-1.6-.9-2.7-1-2.3-1.2-3.8-1.3-4-1.1-2-2.2-4.1-2.7-6.4,0,0-.4-.1,1.8-.9Z"/>
            <g>
              <path class="st21" d="M150.8,206.5c-1.3-.2-1.6,4.1-2.2,6.4-2.4,8.2-9,24.3-9.4,25.7-.1.6-.1,2.1.4,2-.6.5-3.4,4.1-3.8,4.1-6.2-5.8-6.5-14.2-6-22.3,5.8-3.6,10-9,13.8-14.5,2.6-3.7,4-8.3,7.6-11.4-.3,2.8-.8,7.4-.4,10Z"/>
              <path class="st23" d="M157,222.8c-6,5.7-11.3,12-17.4,17.7-.6,0-.6-1.5-.4-2,.3-1.3,6.9-17.4,9.4-25.7l8.5,10Z"/>
              <path class="st8" d="M150.8,206.5c.6,3.7,3.2,6.3,5.3,9.1.5.7,3.3,4.8,3.6,5-.6,1-1.8,1.5-2.7,2.3l-8.5-10c.7-2.3,1-6.6,2.2-6.4Z"/>
            </g>
          </g>
        </g>
        <g>
          <path class="st19" d="M170.8,240.4c.7,6.4-1.5,11.7-7.3,15,.2,1,3-2.3,3.6,2.5-6.7,3.5-11,2.7-13.1-5,.5.6,1.8,1.7,2.2,1.8,3.6.7-6.7-2.8-2.4-8.6,1,.9,8.9,4.1,9.6,3.6.9-.6-.6-3.1-.2-4.3.3-.9,2.7-1.5,3.6-2.7,1.4-2,.7-5.9,2.7-7.5.6,1.9,1.2,3,1.5,5.3Z"/>
          <path class="st19" d="M158.7,227c-2.8,7.4-2,3.1,2.2,2.3-4.9,3.9-3.5,6.2-2.9,11.8,5-10.8,5.6,4.5,6.5-6.6l3.6-2.5c.5,1.1,1,2,1.3,3.2-1.9,1.6-1.3,5.5-2.7,7.5-.8,1.3-3.3,1.8-3.6,2.7-.4,1.2,1.1,3.7.2,4.3-.7.5-8.6-2.7-9.6-3.6-.3-.3-1.2-.7-1.3-1.1,0-.8,0-1.7,0-2.5-.4-5.4,1.9-9.9,4.5-14.5,0,0,.2-1.2,1.8-.9Z"/>
          <path class="st30" d="M168,232l-3.6,2.5c-.9,11.1-1.5-4.2-6.5,6.6-.6-5.6-2-8,2.9-11.8,2.1-.4,5.2.9,4.9-.9,0,.2,1.3,1.3,2.2,3.6Z"/>
        </g>
      </g>
      <path class="st31" d="M196.8,350.1c-9.3-7.6-31.4-3.6-54.2,13.7-3.6,2.7-3.4-17.3-7.6-17.1-19.6.9-32.1,26.3-32.1,40.9s-10.2,33.3-5.3,40,4.5,3.6,7.1,4.5c13,4.4,57.3-15.3,76.6-30,22.8-17.3,31.2-39.1,15.4-52Z"/>
      <path class="st31" d="M154.7,375.8l-24.9-30.9,46.3-40.9,13.4,34.5-16.9,11.8v4.5s3.6.9,10.7.9,12.5,6.4,12.5,6.4l-29.4,10.9-11.6,2.7Z"/>
      <g>
        <g>
          <path class="st1" d="M22.6,242.4l122.9-23.3c9.6-1.2,16.9,3.4,19.8,12.8l13.9,76.8c.3,23.2-22.9,18.3-38,24h-.4c0,.1,6.2,34.7,6.2,34.7-13.3-10.1-27.1-19.8-41.3-28.6-12.5,1-60.8,12.3-66.6,12.2-6.4,0-11.7-3.2-14.9-8.8-2.1-3.6-15.7-78.3-15.7-82.5.2-8.9,5.7-15.4,14.1-17.3Z"/>
          <path class="st38" d="M147.6,370.4c-.8.2-1.7,0-2.4-.6-14.3-10.9-27.5-20.1-40.2-27.9-7.1.7-23,4-37.1,6.9-15.9,3.3-25.9,5.3-28.8,5.3-7.6,0-13.8-3.7-17.6-10.4-1.1-2-4.2-16.1-9-42-2.5-13.2-7.1-39.1-7.1-42.1.2-10.2,6.5-18,16.5-20.3,0,0,0,0,.1,0l122.9-23.3h0c0,0,.1,0,.2,0,11.2-1.3,19.8,4.3,23.1,15,0,.1,0,.2,0,.4l13.9,76.8c0,.2,0,.3,0,.5.1,8.8-2.8,14.9-8.9,18.7-5.1,3.2-11.7,4.3-18.2,5.3-3.7.6-7.5,1.2-10.8,2.2l5.7,31.9c.2,1.3-.3,2.5-1.4,3.2-.3.2-.7.3-1,.4ZM89.5,338.2c6.9-1.3,12.6-2.3,16-2.5.6,0,1.3.1,1.8.4,11.3,7,22.9,14.9,35.4,24.2l-4.8-26.9c-.3-1.6.6-3.1,2.1-3.5h.3c4.4-1.7,9.2-2.5,13.9-3.3,13.7-2.2,22.1-4.3,22-17.5l-13.8-76.4c-2.4-7.7-8.3-11.4-16.4-10.5l-122.7,23.3c-7.2,1.7-11.6,7-11.7,14.3,0,1.8,2.8,18.5,6.9,40.4,4.7,25.3,7.6,38.7,8.4,40.5,2.6,4.6,7,7.2,12.3,7.2,2.4,0,15.8-2.7,27.5-5.1,7.9-1.6,15.9-3.3,22.8-4.6ZM26.9,340.7h0s0,0,0,0Z"/>
        </g>
        <path class="st0" d="M90.7,295.1c1.8-.5,4.1-.9,5.8-1.2.5,0,1.2-.2,1.8-.3-.4-2.5-1-5.9-1.5-8.6-1.2,2.1-3.2,5.4-4.1,6.8-.7,1.1-1.4,2.2-2.1,3.3Z"/>
        <path class="st0" d="M102.5,281.8s0,.1,0,.4c.3,1.3,1.9,8.7,2.3,10.6,0,0,0,0,0,0l2.1-.5c1.6-.3,5-1,6.6-1.2.8,0,1.5.1,2,.5-4-2.8-8.2-6.2-11.8-8.8-.6-.4-1.3-1.1-1.5-1Z"/>
        <path class="st9" d="M115.7,291.6s0,0,.1,0c0,0,0,0-.1,0Z"/>
        <g>
          <path class="st38" d="M155.6,287.5c1,0,1.8.4,2.3.8s.9,1,1,1.6,0,1.2-.4,1.9c-.4.6-1.1,1.2-2,1.6l-12.6,2.4c-1.3,0-2.3-.3-3-1.1s-.9-1.8-.5-3c1.1-2.1,2.2-4.3,3.3-6.4,1.1-2.1,2-4.3,2.8-6.4.8-2.1,1.4-4.2,1.7-6.3.3-2.1.3-4.1,0-6.1-.2-1.2-.6-2.4-1.1-3.5-.5-1.1-1.1-2-1.9-2.8-.8-.7-1.7-1.3-2.7-1.6-1-.3-2.2-.4-3.5-.1-1.9.4-3.7,1.2-5.3,2.5-1.6,1.3-2.9,2.8-4,4.6-1.1,1.8-1.9,3.7-2.3,5.7-.5,2-.5,4-.2,5.9s.6,2.3,1.1,3.4c.5,1.1,1.1,2.1,1.8,3,.7,1,1.4,1.9,2.2,2.8.8.9,1.6,1.8,2.4,2.7.9,1,1.5,1.7,1.8,2.1.3.4.4.7.5,1,.1.7,0,1.4-.5,2s-1.1,1.1-1.9,1.5c-1.7.2-3.4.5-5,.8-1.6.3-3.3.7-4.9,1-1.2,0-2.1-.2-2.7-.6-.6-.4-1-1-1.1-1.7s0-1.4.2-1.9c.3-.5.8-.9,1.4-1.2s1.4-.5,2.2-.7c.8-.2,1.7-.4,2.7-.5h0c-1.6-1.9-3-3.8-4.1-5.7-1.1-1.9-1.9-3.9-2.3-6-.5-2.8-.5-5.7.1-8.7.6-2.9,1.6-5.6,3.1-8.1,1.5-2.4,3.4-4.6,5.7-6.3,2.3-1.8,5-2.9,7.9-3.5s3.9-.3,5.8.2,3.8,1.4,5.4,2.5c1.6,1.2,3,2.7,4,4.5,1.1,1.8,1.7,3.9,1.8,6.1.3,1.9.3,3.8.1,5.7s-.6,3.9-1.1,5.8c-.6,1.9-1.2,3.8-2,5.7-.8,1.9-1.7,3.7-2.6,5.5l6.5-1.2Z"/>
          <path class="st38" d="M94.8,277.4c4.6-.1,10.5,0,15.5-1.4,1-.3,2.3-1.4,2.5-2.8.6-2.1-1.6-4.7-3.8-4.2-5.1.8-11.3,1.9-16.4,2.8-.1,0-.6.1-.9.2-.2-1.1-.5-2.5-.6-3.4l-.7-3.6c.6-.7.8-1.6.5-2.8-1.4-.5-2.5-.7-3.8-.6-1.1,0-2.3,0-3,1-.4,0-.8.1-.8.1,0,0,.4,2.2.3,1.3.5,3.5,1.3,6.4,2,9.7-5.8,1.4-11.8,2.6-17.7,4-2.9.7-2.2,5.2.5,5.5,5.4,0,10.9-2.5,15.7-3.8.5,0,.6.3,0,1.5-2.6,6.8-7.6,12.2-12.1,17.8-1,1.3-2.1,2.6-2.8,4.1-1.1,2.8,2.2,4.9,4.3,3.8,2-1.4,3.5-3.2,4.8-5.1.5,1.6,2.1,2.8,3.8,2.7,2.1-.3,5.3-1,7.4-1.4,0,0,.1,0,.3,0,0,3,0,6.1,2.1,8.5,1.4,1.4,3.8.6,5.5.4v-.5c.4-.3.9-.7,1.1-1.3.7-1.5.4-3.3.1-4.6-.3-1.5-.8-2.8-1.3-4.2,2.4-.5,6.4-1.1,8.3-1.8,2.4-1.3,2.5-4.5.7-5.8,0,0,0,0-.1,0-.5-.3-1.2-.5-2-.5-1.7.1-5,.8-6.6,1.2l-2.1.5s0,0,0,0c-.4-1.9-2-9.2-2.3-10.6,0-.3,0-.3,0-.4.1-.2.9.6,1.5,1,3.5,2.6,7.8,6,11.8,8.8,0,0,0,0,.1,0,1.4,1,2.7,1.9,4,2.7,1.3.7,2.5,1.7,4.1,1.7,1.7,0,2.9-2.2,1.6-3.5-7-5.8-16-9-21.6-16.6,0-.1,0-.3.2-.3ZM88.9,295.3c-.6.1-1.3.2-1.8.3-1.8.3-4,.7-5.8,1.2.7-1.1,1.4-2.2,2.1-3.3.9-1.4,2.8-4.7,4.1-6.8.5,2.7,1.1,6.1,1.5,8.6Z"/>
          <path class="st38" d="M54.5,277.4c0-1,.3-1.8.8-2.4.5-.6,1.1-.9,1.9-1.1s1.4,0,2.1.3c.7.3,1.3.9,1.6,1.8.5,2.7.9,5.6,1.3,8.7.4,3.1.8,6.1,1,9,.2,3,.3,5.8.3,8.4,0,2.7-.3,5-.8,6.9-.3,1.1-.9,2.2-1.7,3.1-.8,1-1.7,1.8-2.8,2.6-1,.7-2.2,1.4-3.4,1.9-1.2.5-2.4.9-3.5,1.1s-2.8.4-4.2.3-2.7-.3-4-.8c-1.3-.4-2.4-1-3.5-1.9-1-.8-1.9-1.8-2.6-3-1.4-2.5-2.6-5.3-3.4-8.4-.8-3.1-1.6-6.3-2.2-9.6s-.4-2.1-.5-3.2c-.2-1.1-.4-2.1-.5-3.1s-.3-1.9-.5-2.8-.3-1.8-.5-2.7c0-1,.3-1.8.8-2.3.5-.6,1.1-.9,1.8-1.1s1.4,0,2.1.3c.7.3,1.2.9,1.6,1.7.1.8.3,1.6.5,2.5s.3,1.9.4,2.9c.2,1.1.4,2.4.6,3.7.2,1.4.4,2.6.7,3.8.3,1.8.7,3.6,1.1,5.4.4,1.8.8,3.4,1.3,4.9.5,1.5,1,2.8,1.6,3.9.6,1.1,1.2,1.9,1.9,2.4,1,.8,2.1,1.2,3.3,1.3,1.1.1,2.2.1,3.2,0s2.4-.7,3.4-1.5c1-.8,2-1.9,2.7-3.2.5-.9.7-2.4.7-4.4,0-2,0-4.2-.3-6.7-.2-2.5-.6-5-.9-7.6-.4-2.6-.7-4.9-1.1-7.1-.1-.6-.2-1.3-.3-2,0-.7-.2-1.4-.3-2ZM42.2,269.4c0,.5,0,1.1-.2,1.7-.2.6-.6,1.1-1,1.6s-1,1-1.5,1.4c-.6.4-1.2.6-1.8.8-1.1.2-2.1,0-3.1-.6-1-.6-1.5-1.5-1.7-2.5s0-1.1.3-1.7c.3-.6.7-1.1,1.1-1.7s1-1,1.6-1.3c.6-.4,1.1-.6,1.6-.7,1.1-.2,2.1,0,3.1.6.9.6,1.5,1.4,1.7,2.5ZM55.4,266.4c.1.6,0,1.2-.2,1.7s-.6,1.1-1,1.6c-.4.5-.9.9-1.5,1.3-.5.4-1.1.6-1.6.7-1.1.2-2.1,0-3-.6-.9-.6-1.4-1.4-1.6-2.5s0-1.1.2-1.7c.3-.6.6-1.1,1.1-1.6.5-.5.9-.9,1.5-1.3.5-.4,1.1-.6,1.5-.7,1.1-.2,2.1,0,3,.6.9.6,1.4,1.4,1.6,2.4Z"/>
        </g>
      </g>
    </g>
    <path class="st11" d="M114.1,123.4h0c-2.8,2.5-6.6.4-6.6.4,0,0,1.3,3.3,4.2,3.9.1,0,.3,0,.4.1,0,1.6,0,2.1.5,2.7.8-6.2,14.3-9.5,16-6.8.1,0,.2.2.2.3.2.2.2.4,0,.4.2,0,.2-.2,0-.4,0,0-.1-.2-.2-.3-14.8,3.6,1,18,4.5,6.8-2,2.4-4.4,1.3-3.1-1.8-.8-.3-1.4-.4-1.9-.6.5.2,1.1.4,1.9.6,1.8-.4,2.5-3.2,3.6-3.2.5,0,3,2.6,3.6,4.1,1.1-11.7-16.4-14.3-23-6.2Z"/>
    <g>
      <path class="st24" d="M143.3,124.9c0,14.3-13.6,24.5-24.9,24.5s-16.9-9.3-16.9-23.6,8.3-20,19.6-20,22.3,4.8,22.3,19.1Z"/>
      <path class="st24" d="M213.7,125.9c0,20.7-15.9,27.1-29.2,27.1s-19.8-10.3-19.8-26.1,9.7-22.1,22.9-22.1,26.1,5.3,26.1,21.1Z"/>
      <g>
        <path d="M218.2,134c5.1-8.7-3.4-17.1-4.5-20-2.7-7.3-6-9.1-8.9-10s-5.3-.9-11.6-.9-25.8-2.7-30.7,12.5c-6.4-2.8-11.2-2.4-17.8-.9-1.3-2.5-4.9-10.6-18.3-11.5-1.7-.1-8.2-.6-14.3.9-7.1,1.8-7,2.6-8.9,4.5-2,2-4.1,8.9-4.5,16.4-.3,6.4,1.8,15.4,2.7,17.3s2.7,5.5,5.1,6.8c11.8,6.9,13.4,4.5,18.9,4.1,13.4-.9,23.5-16.8,23.2-29.8,18.9-1.8,6.7,3.1,16.3,20.7,2.3,4.2,8.7,10,14.9,11.8,4.4,1.3,13.2,1.6,20.5-1.8,11.6-5.5,15.1-15.4,17.8-20ZM141.3,127.3c-.2,6.8-3,12.2-7.2,15.8-5.5,4.5-13.6,5.9-22.2,3.3-5.1-1.6-6.9-5.7-7.8-7.9-3.6-9.1,0-21.8.9-24.5,1.7-5.2,9.3-7,14.3-7.3,7.7-.5,15.4.2,19.4,7.9,1.9,3.6,2.8,8.6,2.7,12.7ZM170.7,143.9c-3.1-4.3-4.8-12.7-4.9-17.9-.3-14.5,4.6-17.3,17.8-18.6,5-.5,10.2-.8,15.1,0,.7.1,2.2.3,2.7.5,1.9.5,3.8,1.2,5.2,2.6.4.4,3.9,5.4,5.3,15.4.4,3.1,0,7.3-1.5,11.5,0,0,0,0,0,0-8,18.5-32.2,16.8-39.6,6.6Z"/>
        <path class="st37" d="M231.1,112.8c-.5-.6-12.2-5.8-14.3-6.4-2.3-.7-7.3-.1-7.6.2,4.2,4,2.6,13.5,6.2,17.3s3.3-1.1,5.1-2l.2.2h1.8v-.7c8.1-.7,10.6-2.7,13.4-1.1-.4-1.5-4-6.6-4.9-7.5Z"/>
        <g>
          <path class="st4" d="M100,116.5q-4.5,2-8.9,4.1c-.5-1-2.4-8.8-1.1-9.5,20.3-3.1,15.8-9.3,10,5.5Z"/>
          <path d="M100,116.5q-.6,4.5-1.1,9.1c-2.9-1.9-6.2-1.5-7.8-5q4.5-2,8.9-4.1Z"/>
        </g>
        <path d="M232.4,122.1c-.7-.6,4-1,3.6-2.7-2.6-1.5-5.4.7-12.1,1.9-8.5.8-11.1-1.9-11.1-1.9l.9,2.7c0,.5.4,2.2.9,4l-1.9.6,1.8,6.3c4.8-4.9,7.5-3.2,13.4-8.2,2.1-1.6,4-2.6,4.5-2.7Z"/>
      </g>
    </g>
  </g>
  <g>
    <path class="st27" d="M26.5,333.8c2.7.1,15.5-4.5,14.7,1.3-.6,4.4-18.5,6.5-22.3,5.9,10.8,3,21.1-2.9,22.4-2.9,3.8,0,6.5,2.4,4.2,5.5-3.1,4-23.1,2.7-25.1,5.6-4.7-1-5.3-7.7-6.4-11.5,0-3.8-3.3-13.8,2-21.1.4-.6.9-.9.9-.9,0,0,0,3.1,0,4.5.1,3.8,1.2,11,2.7,13.6,1,0,6-.2,7-.2Z"/>
    <path class="st27" d="M46.6,351.7c0,0,4.1,4-10.8,10.3-.7.3-9.9,4.1-12.3-3.4,7-3.6,15.7-3.7,23.1-6.9Z"/>
    <path class="st5" d="M20.3,349.2c-1.4,1.9.2,5.6,2.2,6.5,2.5,1.1,20.7-2.9,24-5.4,0,.9.2,1.2.2,1.4-7.4,3.2-16.1,3.4-23.1,6.9-.6.3-1.3.3-1.9.5-5.7-7.2-7.7-12.4-7.7-21.4,1.1,3.8,1.7,10.4,6.4,11.5Z"/>
    <path class="st7" d="M25.2,363.6c-2.1-.8-2.5-3-3.7-4.4.6-.2,1.4-.3,1.9-.5,2.3,7.5,11.6,3.7,12.3,3.4,5.1-2.7-5.8,3.5-10.5,1.6Z"/>
    <path class="st27" d="M47.6,346.8c0,1.9-1.1,3.3-1.1,3.5-3.3,2.5-21.4,6.5-24,5.4-2-.9-3.5-4.6-2.2-6.5,1,.2,13.6-1,15.9-1.4,5.9-1,8.9-4.8,11.3-1Z"/>
    <path class="st5" d="M47.6,346.8c-2.4-3.9-5.4,0-11.3,1-2.3.4-15,1.6-15.9,1.4,2.1-2.9,22.1-1.6,25.1-5.6.9,1.4,2,1.1,2.1,3.2Z"/>
  </g>
  <path class="st7" d="M235.5,352.2c-.9,2.6-1.5,5.3-3.6,7.3l-4-.9c-1.1-.9-2-1.8-3.1-2.7-8.8-7.1-23.9-13.7-33.4-21.4.4-.4,2-2.7,2.4-2.7,13.5,7.7,27.4,14.3,41.6,20.4Z"/>
  <path class="st27" d="M207.5,322.2c8.8,1.2,14.5,2.6,22.9,5,.5.1,1.9-2.2,8.7,3.2,0,.1,0,.3,0,.5.2,3.6-2.4-.2-3.1,1.1-.2.4,2,1.9,2.2,7.5.2,4.6-1.2,8.5-2.7,12.7-14.2-6.1-28.2-12.7-41.6-20.4-.4,0-2,2.3-2.4,2.7-1.9,1.7-1.6,3.7-4.9,1.6.3-3.9-1.2-3.2-1.3-3.4-.5-1.1-.7-2.5-1.8-3.2.3-.3,2.1-2.1,2.2-2.3,7.6,2.9,11.3,2.9,10.2-6.4,3.9.5,7.7.8,11.6,1.4Z"/>
  <g>
    <path class="st27" d="M189.2,319c-2,0-2.5,6.5-3.6,8.2,0,.1-1.9,2-2.2,2.3-5.4,5-24.5,13.6-31.6,11.4-1.8-.5-2.8-2-4-3.2,16.9,3.3,7.8.6,5.8-5.7-3.9-12.3,3.6-11.5-5.8-13.4-5-1-10.2-.4-14.7-3.2,1-4.5,13.7-3.7,17.8-4.1,3.6-.4,7.1-.9,10.7-1.1-1.8-2.2-4.1-3.8-5.8-6.1,22.4-3.3,31.7,14.1,33.4,15Z"/>
    <path class="st2" d="M147.8,318.6c9.3,1.9,1.9,1.1,5.8,13.4,2,6.3,11.1,9-5.8,5.7-2.8-2.7-9.5-12.5-2.7-12.5-4-1.8-8.2-2.2-11.6-5.2,0-.2,0-.3,0-.5,1.2-2.2,11.4,1.9,14.3-.9Z"/>
    <path class="st7" d="M147.8,337.7c1.2,1.2,2.2,2.6,4,3.2q.2,1.4.4,2.7c-15.4-4.4-11.1-14.9-12-16.6-.2-.3-3.4-.4-5.8-2.5-.2-1.6-.8-2.7-.9-4.5,3.4,3,7.6,3.5,11.6,5.2-6.8,0-.1,9.8,2.7,12.5Z"/>
    <path class="st7" d="M147.8,318.6c-2.9,2.8-13.1-1.3-14.3.9,0-1.3-.8-2.6-.4-4.1,4.5,2.7,9.7,2.1,14.7,3.2Z"/>
    <path class="st2" d="M183.4,329.5c1.1.7,1.3,2.1,1.8,3.2-1.8,1.3-6.2,4.9-7.1,5.5-.7.4-7.2,3.9-7.6,4.1-7.3,3.1-10.6,3.6-18.3,1.4q-.2-1.4-.4-2.7c7.1,2.2,26.2-6.3,31.6-11.4Z"/>
  </g>
  <path class="st28" d="M189.7,319c.5.3,2.1,0,2.2,0,1.3.3,2.6,1.1,4,.9.2,1.3.4.9.4.9,1.1,9.2-2.6,9.2-10.2,6.4,1-1.7,1.6-8.1,3.6-8.2Z"/>
</svg>