<?xml version="1.0" encoding="UTF-8"?>
<svg xmlns="http://www.w3.org/2000/svg" version="1.1" viewBox="0 0 310 491">
  <defs>
    <style>
      .st0 {
        fill: #f2e4ce;
      }

      .st1 {
        fill: #c45f41;
      }

      .st2 {
        fill: #ada09c;
      }

      .st3 {
        fill: #c05e58;
      }

      .st4 {
        fill: #d7dadc;
      }

      .st5 {
        fill: #8e3226;
      }

      .st6 {
        fill: #f7b750;
      }

      .st7 {
        fill: #a34737;
      }

      .st8 {
        fill: #a5959e;
      }

      .st9 {
        fill: #a1a2a3;
      }

      .st10 {
        fill: #23110a;
      }

      .st11 {
        fill: #bbbbbc;
      }

      .st12 {
        fill: #281a26;
      }

      .st13 {
        fill: #f0935d;
      }

      .st14 {
        fill: #d8b78b;
      }

      .st15, .st16 {
        mix-blend-mode: hue;
      }

      .st15, .st17 {
        fill: #95409b;
      }

      .st18 {
        fill: #bdeded;
      }

      .st19 {
        fill: #c12e4b;
      }

      .st20 {
        fill: #f8edf9;
      }

      .st21 {
        isolation: isolate;
      }

      .st22 {
        fill: #e5fdfe;
      }

      .st23 {
        fill: #2e643c;
      }

      .st24 {
        fill: #fbfbfc;
      }

      .st25 {
        fill: #b69db3;
      }

      .st26 {
        fill: #470d38;
      }

      .st27 {
        fill: #281f30;
      }

      .st28 {
        fill: #c386c3;
      }

      .st29 {
        fill: #c9892d;
      }

      .st30 {
        fill: #e6794d;
      }

      .st31, .st16 {
        fill: #7aebe9;
      }

      .st32 {
        fill: #301d37;
      }

      .st33 {
        opacity: 0;
      }

      .st34 {
        fill: #511407;
      }

      .st35 {
        fill: #c392c2;
      }

      .st36 {
        fill: #bf5a41;
      }

      .st37 {
        fill: #661b6a;
      }

      .st38 {
        fill: #17ae9d;
      }

      .st39 {
        fill: #d53a5c;
      }

      .st40 {
        fill: #29999b;
      }

      .st41 {
        fill: #120f12;
      }

      .st42 {
        display: none;
      }

      .st43 {
        fill: #320532;
      }

      .st44 {
        fill: #1d121b;
      }

      .st45 {
        fill: #4e0b1b;
      }

      .st46 {
        fill: #b175a7;
      }
    </style>
  </defs>
  <g class="st21">
    <g id="Layer_1">
      <g>
        <g>
          <path class="st13" d="M181.1,117.3l4.9,22.6s2.5,3.5,3.9,2.9c4-1.7,6.9-8.8,6.9-16.7s-3.9-13.8-3.9-13.8l-11.8,4.9Z"/>
          <g>
            <g id="Background" class="st42">
              <path class="st9" d="M122.2,471.7c-75.3,0-150.7,0-226,0V-31.3h503v503c-61.7,0-123.5,0-185.2,0q1-5.9,2-11.8c4.6-1.7,10-4,14.2-6.4,3.4-1.9,7-3.7,8.4-7.6-.6-6.8-2.3-13.3-3.9-19.9,77.3-55.2,98.6-138.5,34.4-214.7.4-.1,3.7,0,8.6-2.9,11.1-6.8,13.8-20.3,8.6-31.7,19.3-4,26.3-26.6,11.3-39.8,1.3-4.5,0-9.5-3.4-12.8,17.8-14.7,14-39.1-6.4-48.6,3.4-16.2-12.8-28.7-28-27.5,3.9-20.7-13.2-37.9-33.2-27.8-16.7-17.7-45-26.1-67.3-14.2-20.4-20.7-67.6-13.7-81.5,11.8-16.3-13.1-42.7,1.6-37.1,22.4q-5.8,5-11.5,10.1c-15.1,1.6-24.9,18.9-17.9,32.7-16.2,8.2-18.3,30.9-2,40.3-18.2,4.7-26.4,31-7.9,40.8-3.2,17.1,13.3,21.2,13.8,22.6-2.8,7.9-1.6,15.2,3.9,21.4-34.5,27.6-50.6,73.9-44.2,117.2,7.1,48.4,45.3,84.7,85,109.3-.6,4.3-1.8,8.6-1.5,13,2.4,2.9,4.8,4.6,7.9,6.6,14.5,9.7,37.5,12.9,54.5,14.7l1.5,2.9Z"/>
            </g>
            <g>
              <g>
                <path class="st41" d="M65.7,51.7c-1.6,2-3.5,3.7-4.9,5.9.2-1.4.7-2.7.5-4.2-1.5-.5-9.9-7.1-10.3-7.6-.3-.4-2-8.3-2-9.1.1-4,2.9-8.1,5.9-10.6-6.1,13.5,9.4,19.3,10.3,21.9.5,1.5-1.1,3.4.5,3.7Z"/>
                <path class="st41" d="M276.5,66c4.2,7,2.8,10.3,0,17.9,4.7,1.1,5.3.4,9.8,2.7l-.2,1c-1-2-.6,1.7-5.9-1.5-1.2,5.5-7.2-2.5-4.7,5.2-6.6,3-2.2-16.7,2-17.7.3-.8-5.5-11.2-1-7.6Z"/>
                <path class="st12" d="M31.3,160.8c-.3.1-1.5,1.8-5.2,2.9-.6-.1-4.5-10.2-4.7-10.8-1.7-8.2,2.6-10.9,3.4-12.3q6.9-4.5,13.8-9.1-.5-4.5-1-9.1c.1-2.8-8.3-7.1-13.8-10.8-2.2-4.6-1.1-10.1,2-14.2,8.7-3.9,19.6-1.7,19.7-8.1,0-.5-2.2-5.9-2.5-10.1-.7-11.1,14.5-13.1,15.7-14.5.5-.6,1.8-5.8,2-7.1,1.4-2.2,3.3-3.9,4.9-5.9,2.3-2.8,3.7-.4,2-9.1,15.9-17.6,15-11,37.1-8.1,3.3-.8,3.3-15,10.3-16.2,9.8-1.7,12.4,10.6,8.4,13.8-3.8,3-3.3-2.7-6.9-7.9-3.9,23.3-18.2,15.6-35.9,13.3-8.7,6-4.6,10.5-5.6,13.5-.3.8-7.9,7.3-8.4,8.4-3.1,6.6,5.3,5.4-17.2,17.2-2.4,6.1,9.3,16.7-7.1,23.8-4.7,2-17.1,2.2-13.8,6.4,2.7,3.4,15.7,6.2,16.5,17.9,1.5,23.4-27.8,10.5-13.8,36.1Z"/>
                <path class="st12" d="M278.9,157.3c-.1-.1-.3-.3-.5-.5-.3-18.9-12.6-12.8-19.9-17.7-4.7-3.1-8.1-19.9,14.5-18.9,5.7,8.2-14.4,6.5-12.3,10.8.5,1,15.5,6.2,17.7,8.8,3.1,3.7,3.1,14.3.5,17.4Z"/>
                <path class="st44" d="M25,140.6c-.8,1.4-5.1,4-3.4,12.3-5.9-2.1-15.4-2.7-14.2-11.1,1.9-13.4,16.2-1.2,17.7-1.2Z"/>
                <path class="st44" d="M37.7,122.5q.5,4.5,1,9.1-6.9,4.5-13.8,9.1c.6-.9,2.2-2.1,2.5-2.7,2.1-5.5-4.5-9.6-3.9-15.2l14.2-.2Z"/>
                <g>
                  <path class="st41" d="M69.7,118q-.6,4.9-1.2,9.8c-3.2-2.1-6.8-1.7-8.6-5.4q4.9-2.2,9.8-4.4Z"/>
                  <path class="st38" d="M81,114.1c-1.4,3.6-2.8,5.6-2.9,9.8-3.5,2-1.2-8.7,3.4-12q-.2,1.1-.5,2.2Z"/>
                </g>
                <g>
                  <path class="st44" d="M289.3,141.9c1.5-17.2-7.7-17.3-8.4-18.2-3.1-4.3,5.7-3.9,10.3-9.3,7-8.2,4.9-22.8-4.9-27.8l-.2,1c-1-2-.6,1.7-5.9-1.5-1.2,5.5-7.2-2.5-4.7,5.2-6.6,3-2.2-16.7,2-17.7.3-.8-5.5-11.2-1-7.6-3.9-6.6-11.1-9.6-18.4-6.4-2.8-.6,1-6-10.1-12,8.6-15.9-11.6-28.9-21.9-14-18.1-20.4-43.5-29.4-68.8-15.7-17.2-19.5-49.8-17.2-67.5.2-1.7,1.7,0,4.1-13,9.6-2,0-10.2-11.1-21.9-1.5-6.1,13.5,9.4,19.3,10.3,21.9.5,1.5-1.1,3.4.5,3.7,2.3-2.8,3.7-.4,2-9.1,15.9-17.6,15-11,37.1-8.1,3.3-.8,3.3-15,10.3-16.2,9.8-1.7,12.4,10.6,8.4,13.8-3.8,3-3.3-2.7-6.9-7.9-3.9,23.3-18.2,15.6-35.9,13.3-8.7,6-4.6,10.5-5.6,13.5-.3.8-7.9,7.3-8.4,8.4-3.1,6.6,5.3,5.4-17.2,17.2-2.4,6.1,9.3,16.7-7.1,23.8-4.7,2-17.1,2.2-13.8,6.4,2.7,3.4,15.7,6.2,16.5,17.9,1.5,23.4-27.8,10.5-13.8,36.1-.3.1-1.5,1.8-5.2,2.9-.6-.1-4.5-10.2-4.7-10.8-5.9-2.1-15.4-2.7-14.2-11.1,1.9-13.4,16.2-1.2,17.7-1.2.6-.9,2.2-2.1,2.5-2.7,2.1-5.5-4.5-9.6-3.9-15.2l14.2-.2c.1-2.8-8.3-7.1-13.8-10.8-2.2-4.6-1.1-10.1,2-14.2,8.7-3.9,19.6-1.7,19.7-8.1,0-.5-2.2-5.9-2.5-10.1-.8,0-1.5,0-2.3,0,.7,0,1.5,0,2.3,0-.7-11.1,14.5-13.1,15.7-14.5.5-.6,1.8-5.8,2-7.1.2-1.4.7-2.7.5-4.2-1.5-.5-9.9-7.1-10.3-7.6-1.2.2-2.4.9-3.4,1.5-.6.9-1.1,1.8-1.5,2.7.4-.9.9-1.8,1.5-2.7-7.9,4.3-5.3,3.6-9.1,11.3-18.9-1.5-25.9,16.8-12.5,29.7-2.6.9-5.3,1.1-7.9,2.2-2,.8-3.3,1.4-4.9,2.9-9.3,8.8-5,21.1,5.9,25.8.7,1.8-4,4.5,0,13.8-18.6-2.1-25.2,18.9-7.9,27-3.7,9.1,2.9,21,13,17.4,8.2,8-2,8.1-.2,19.4,1.4,8.9,13.9,14.5,21.4,9.1,10.5,4.4,5.5,5.1,9.1,10.1,4.6,6.4,16.1,5.8,21.4.2,1.4.3.7,13.9,19.7,11.3,4.6-8.1,6.1-2.4,13.3-5.9,5.3-2.6,5.3-9.7,10.6-4.9,2.8-4,4.5-9,8.4-12.3,0-.7.1-.9.5-1.5-7.6-1.3-26.4-15.5-32.5-20.8-10.2-9.1-16.3-17.1-16.2-31,.2-.6-.4-8.3-1.5-10.6-.4-.8-.3-9.3,0-16.7-3.5,2-1.2-8.7,3.4-12q-.2,1.1-.5,2.2c.2-.4,1.4-3.3,1.5-3.4,1.4-2.5,2.5-6.9,6.4-5.6q-1-1.4-2-2.7c1-9.3,7.8-31.7,17.2-35.9,5.5-2.5,10.8,1.1,17.4-8.4,22.5,12.7,31.2-2.3,32.9-2.9,6.8-2.5,8.7,5.2,9.1,5.6,7.8,8.8,15.8,5.5,22.6,17.7,2.7,4.8,3.5,11.1,6.4,15.7,1.2,2-.8,16.3.4,19.2,4.5,10.2,3.9,20.6,1,25.3,6.6-10.5,1.7,3.6,7.9-2,.6-1.2,2.3-5.2,2.5-5.9.4-2.2.5-5.1.5-7.4,0-7.4-1.4-10.3-6.9-15.5l.7-.7c2.2.7,15.1,6.2,15.7,6.9.9,1,.8,2.4,1.2,3.9.5,1.8.2,4.8,1,5.4,11.5-2.8,16.8,18.6,3.2,30-10.6,8.8-16.2-2.4-22.8,7.6-.3.5-.9,4.6-5.4,11.1-6.1,8.7-16.4,15.2-25.5,20.1,1.2,2.8,1.6,5.9,2.5,8.8.7,2.3,1.9,5.1,2,5.4,5.6.6,7.8,6.5,10.8,8.4.6.3,3.5.9,4.7,1,6.9,13.6,25.2,10.5,29.5-3.9,9.5,10,24,12,28-3.9,7.2,0,12.3.8,17.2-5.4,18,1.9,24.9-16.2,12-28.2q3.1-4.1,6.1-8.1c6.1,1.5,11.8.1,15-5.4,4.1-7,2.1-14.3-4.4-18.9ZM45,52.5c-.3.8-.5,1.6-.7,2.3.2-.7.4-1.5.7-2.3ZM28.6,61.5c.6-.2,1.1-.4,1.7-.5.6,0,1.1-.1,1.7-.1-.6,0-1.1,0-1.7.1-.6,0-1.1.2-1.7.5-.4.2-.8.4-1.1.6.4-.3.8-.5,1.1-.6ZM24,67.9c.1-.5.3-1,.4-1.5-.2.5-.3,1-.4,1.5-.2.8-.2,1.6-.1,2.4,0-.8,0-1.6.1-2.4ZM278.9,157.3c-.1-.1-.3-.3-.5-.5-.3-18.9-12.6-12.8-19.9-17.7-4.7-3.1-8.1-19.9,14.5-18.9,5.7,8.2-14.4,6.5-12.3,10.8.5,1,15.5,6.2,17.7,8.8,3.1,3.7,3.1,14.3.5,17.4Z"/>
                  <g>
                    <path class="st12" d="M170.1,19.8c12.4-1.2,21.3,20.1,44.7,12.3,11.3,15.1,20.9,10.4,16,28.7,2.5,1.3,12.2,9.8,13,10.1,5.4,1.9,21.4-2.9,16.5,16.9,4.7,1.6,21.1,8.1,23.1,11.8,2.3,4.3.7,12.8-4.2,14.5-11.4,4-.8-9.4-1.2-11.1-12.3-11.3-29.4-.8-22.6-24.1l-13-1.2c-8.3-10.9-13-8-16-11.5-7.9-9.5,12.3-22.2-19.4-17.9q-1.2-4.2-2.5-8.4c-12.1.4-22.6-6.5-31.9-13.3-4.2-.3-16.9,8-14-.7.6-1.9,9.4-5.9,11.5-6.1Z"/>
                    <path class="st43" d="M216.3,38c3-.2-2.5,2.1-3.4,2.5-11.8,4.3-3.4-2,3.4-2.5Z"/>
                  </g>
                </g>
              </g>
              <g>
                <g>
                  <path class="st30" d="M194,163.2c-6.3,16.5-48.1,36.7-60.2,36.4-15.3-.5-45.7-25.4-49.4-41.5,5.4,1.1,11,1.2,16.2-.2.6.8,3,3,6.4,8.4,6.8,10.8,11,22,26.5,20.1,12.5-1.5,15.4-9.9,19.2-14.2,3.2-3.7,6.7-7.1,9.8-10.8,3.5.9,7.5,1.4,11.1,1,2.1-.3,11.6-4,10.6-5.9,2.3-1.1,8.1-5.5,9.8-7.4,1.9,4.5,1.8,9.6,0,14.2Z"/>
                  <path class="st3" d="M184.1,156.3c1,1.9-8.5,5.6-10.6,5.9-3.6.4-7.6-.1-11.1-1,.4-.5.6-1.4,1-2,6.7,1.4,14.5,0,20.6-2.9Z"/>
                  <g>
                    <path class="st30" d="M191.5,172.1c-1.7-1.6,4.6-6,2.5-8.8,1.8-4.6,1.9-9.8,0-14.2,1.7-1.8,5.8-9.6,6.8-12,.6-1.2,3.4-5.5,3.5-6.2,3.5.5,11.2-7.1,12.3-7.4,11.5-2.8,16.8,18.6,3.2,30-10.6,8.8-16.2-2.4-22.8,7.6-.3.5-.9,4.6-5.4,11.1Z"/>
                    <path class="st7" d="M218.5,142.1c1.9,6.9-4.8,7.7-7.1,6.4-2.4-1.4-3.6-10.1-2.2-13.3,4.1,1.7,8.5,10.5,9.3,6.9Z"/>
                    <path class="st34" d="M218.5,142.1c-.9,3.6-5.2-5.2-9.3-6.9,2-4.5,16.6-7.4,14,4.4-1.3-9.6-9.3-5.6-9.6-4.7-.2.8,4.1,4,4.9,7.1Z"/>
                  </g>
                  <path class="st13" d="M161.5,159.8c-1.7.4-3.2,2-5.4,2.5-18.7,4-34.3,5.2-51.6-4.4-1-.5-2-1-2.9-1.5,14.2-3,24.7-18.8,24.3-32.9,20.9-1.9,7.4,3.4,17.9,22.4,4.3,7.8,9.9,10.6,17.7,14Z"/>
                  <g>
                    <path class="st45" d="M101.6,156.3c1,.5,2,.9,2.9,1.5,2.3,3.6,7.2,6.6,10.8,9.8.2.2,1,2.6,2.5,4.2.7.7,1.6,1.2,2.5,1.7-3.8,1.9-9.6-5.5-13.3-7.4-3.4-5.4-5.8-7.5-6.4-8.4,0,0,0-.7-.5-1.5.5,0,1,0,1.5,0Z"/>
                    <path class="st45" d="M163.5,159.3c-.4.6-.5,1.5-1,2-3.1,3.7-6.6,7.2-9.8,10.8-1.5.2-6,1.1-6.9,1.5,2.2-2.5,4.6-4.9,6.9-7.4,1.2-1.2,2.7-2.5,3.4-3.9,2.2-.5,3.7-2.1,5.4-2.5l2-.5Z"/>
                    <path class="st39" d="M152.7,172.1c-3.8,4.3-6.7,12.7-19.2,14.2-9.3-.5-18-11-12.8-12.3,11.6,7,19.9,1.4,25.1-.5.9-.3,5.4-1.3,6.9-1.5Z"/>
                    <path class="st19" d="M120.3,173.5c.6.4.5.5.5.5-5.2,1.3,3.4,11.8,12.8,12.3-15.6,1.9-19.7-9.3-26.5-20.1,3.6,1.9,9.4,9.2,13.3,7.4Z"/>
                    <path class="st19" d="M156.1,162.2c-.8,1.5-2.3,2.7-3.4,3.9-12,4.3-25.1,5.5-37.3,1.5-3.6-3.3-8.5-6.3-10.8-9.8,17.3,9.7,32.9,8.5,51.6,4.4Z"/>
                    <path class="st24" d="M152.7,166.2c-2.3,2.4-4.7,4.9-6.9,7.4-5.2,1.9-13.4,7.5-25.1.5,0,0,0-.1-.5-.5-.8-.6-1.8-1-2.5-1.7-1.5-1.6-2.3-4-2.5-4.2,12.3,4,25.3,2.8,37.3-1.5Z"/>
                  </g>
                </g>
                <g>
                  <g>
                    <path class="st24" d="M177.3,135.2c1.7-1.9,1-1.5,1.5-3.4,0-.4,0-1,0-1.5,0-.1,1.3-.4,0-2.9,3,.6,6.9,4.4,6.9,6.4,0,7.2-19.3,8.2-27.8,1-4.2-3.6-.8-2.3.7-3.4,3.2-2.4,5.4-8.6,15-6.9,5.2.9-3.6,0-5.6,3.7-3.9,7.2,4.2,12.6,9.3,7.1Z"/>
                    <path class="st22" d="M178.7,127.4c1.3,2.5,0,2.8,0,2.9l-1.5,1.5c-6.5,1.4-4.9-5.8,1.5-4.4Z"/>
                    <path class="st31" d="M178.7,131.8c-.4,2,.3,1.6-1.5,3.4-3-1.7,0-1.5.5-3.4h1Z"/>
                    <path class="st23" d="M178.7,131.8h-1c-.2,0-.3,0-.5,0l1.5-1.5c0,.5,0,1,0,1.5Z"/>
                  </g>
                  <g>
                    <path class="st44" d="M91.7,103.6c-6.7,8.5-8.1,30.6-7.9,29.5.5.7-4.5,20.3-4.9,19.7-3.9-6.9-9.8-21.6-2-37.3s9.2-11.5,14.7-11.8Z"/>
                    <path class="st13" d="M194,138.7c4.7-10.8-8.1-4.9-8.4-4.9,0,7.2-19.3,8.2-27.8,1-4.2-3.6-.8-2.3.7-3.4-.6-4.5,3.2-8,6.8-10s5.9-1,8.8-1,6.9,2.9,9.4,5.6c.8,1,13.7-18.6,14-18.7.2,0,1.8-3.9,1.7-4.7-.2-1.8-5.7-6.4-6.9-8.4-2.9-4.6-3.7-10.9-6.4-15.7-6.8-12.2-14.8-8.8-22.6-17.7-.4-.5-2.3-8.2-9.1-5.6-1.7.6-10.4,15.6-32.9,2.9-6.6,9.5-11.9,5.9-17.4,8.4-8.4,10.6-21.2,43.7-21.1,43.4-1,3.9-3,8.8-3.1,13.3-.5,3.7-.6,12.8-1,13.8-3.9,8.8-1,18.7,0,20.6.1.3,14.4-.3,21.2-1.3.5,0,1,0,1.5,0,14.2-3,24.7-18.8,24.3-32.9,20.9-1.9,7.4,3.4,17.9,22.4,4.3,7.8,9.9,10.6,17.7,14l2-.5c6.7,1.4,14.5,0,20.6-2.9,2.3-1.1,8.1-5.5,9.8-7.4,1.7-1.8,6.8-9.9,7.9-12.3-6.2,5.6-1.1-8.4-7.9,2ZM117.8,127.9c-1.9-.4-.5,3.1-1,3.7-.9,1.2-3.3-1.5-3.9,1.2,0,.6.1,1.6,0,2,4.9,1.1-3.9,11.8-5.6,11.8-1.4,0-2.6-4.9-6.9-4.4-2,.2-10.3-1.6-15.1-8.9.4-2.7,1-7.5,1.1-7.8.1-.3-.2-1.5.5-2.7,4.2-7.4,20.4-8.9,28-8.6,2.1,3.9,3.1,9.3,2.9,13.8ZM165.1,94.4c-1.2,0-2.4,0-3.5.2,1.1-.1,2.3-.2,3.5-.2ZM155.4,96.1c-.5.2-1,.5-1.3.8.4-.3.8-.6,1.3-.8Z"/>
                    <path class="st24" d="M103.1,124.9c-16.4,3.9,1.1,19.4,4.9,7.4.6-1.9.6-3.4.5-5.4.5,0,3.3,2.8,3.9,4.4,0,.2.5,1.4.5,1.5,0,.3,0,.6,0,.9s0,.8,0,1c-1.7,5.8-18.2,5.2-25.1,2.9s-2.7-3.4-2.5-5.4c.8-6.7,15.8-10.3,17.7-7.4Z"/>
                    <path class="st30" d="M114.9,114.1c-7.6-.3-23.8,1.2-28,8.6-.7,1.2-.4,2.4-.5,2.7,6.7-9.7,27.3-7.2,26,5.9,0,.2.8,1.7,0,4.4-3.2,4.7-18.9,3.5-24.6,2-.4-.1-2.6-1.1-1.5.5,3.4,4.7,11.5,7,14.2,7.7,3.9,1,5.3,1.1,6.7.7,8.1-2.7,10-14.4,10.6-18.7s-.9-9.8-2.9-13.8Z"/>
                    <path class="st18" d="M108,132.3c-2.2,2.6-4.8,1.4-3.4-2,2-.4,2.8-3.4,3.9-3.4,0,2,.1,3.5-.5,5.4Z"/>
                  </g>
                </g>
              </g>
            </g>
          </g>
          <path class="st41" d="M82.9,139"/>
          <path class="st1" d="M79.9,147.8c4.9,5.1,13.5,9.5,20.2,8.5.6.7.4,1.4.5,1.5-5.2,1.4-10.8,1.4-16.2.2,3.6,16.1,34.1,41.1,49.4,41.5,12,.4,53.9-19.9,60.2-36.4,2.2,2.9-4.1,7.2-2.5,8.8-6.1,8.7-16.4,15.2-25.5,20.1-10.7,5.8-25.6,13-37.8,10.8-7.6-1.3-27.6-13.8-33.7-19.2-9.6-8.5-17.6-23.2-17.5-37,0,0,2.8,1,2.9,1Z"/>
          <path class="st1" d="M91.8,99.4c-1.7.9-7.4,9.9-8.9,11.1,1-9.3,10.8-41.3,21.2-44,13.1-3.5-4.4,4.4-10.3,23.8-.9,2.8-.9,6.2-2,9.1Z"/>
          <g>
            <path class="st30" d="M130.1,156.8c-4.1-.2-7.6-2.8-10.3-5.4-1.9-10.1,3.3-.9,5.6.5,6.1,3.6,17.7-.3,4.7,4.9Z"/>
            <path class="st34" d="M119.8,151.4c2.7,2.6,6.3,5.2,10.3,5.4,3.7.2,14.2-5.6,8.6-1-10.6,8.7-26.4-6.8-20.6-6.9.5,0,.4,1.2,1.7,2.5Z"/>
          </g>
          <path class="st30" d="M163.5,107.2c2.9-.3.8.7-3,2.3-5.9,2.5-9.8,6.9-6.8,20.1.1.5-.4.4-.7.7q-4.5-1.5-9.1-2.9c-.4-15.7,5.8-18.9,19.7-20.1Z"/>
          <path class="st1" d="M216.5,151.7l1,2c1,2-2.9,2.9-2.9,2.9-1.1.4-2,1-2.9,0l1-4.9c1-2,3.6-.4,3.9,0Z"/>
          <path class="st30" d="M199.8,102.6c-.2-3.8-4.1-3.8-6.9-7.9-2.4-3.4-3.8-11.3-3.9-11.8-2.9-9.8-11.8-13.8-11.8-13.8,0,0,13.8,16.7,8.8,39.3-.6-.1-4.1-2.1-4.9-2.3-5.4.7-1,1.6,1.5,6.1,3.3,5.9,5.1,13.1,3.4,19.9,0,.3,0,1.8,0,1.8,0,0-1,2.2-2,2.9-4.9,3.9-14.7,2.8-17.7,2-1.9-.5-4.9-2-4.9-2,0,0,2.9,8.8,19.7,8.8s14.1-12.6,14.7-15.7c.9-4.4,0-9.8-2.9-15.7-.1-.2,7-9.9,6.9-11.8Z"/>
          <g>
            <path d="M81.9,111.9c0,.3.5,0,1-.4,5.9-3.9,8.8-5.9,10.8-6.9,3.9-2,6.5-2.1,6.9-2.1,3.7-1.2,17.3,3.5,12.5-3.7-4.4-6.6-16.8-1.6-22.1,1.2-1.7.9-9.1,7.5-9.1,11.9Z"/>
            <path d="M180.4,106.9c.6.6.7-2.3.2-3.9-4-10.7-26.9-8.8-28.2-4.2-2,7,10.2,1.2,21.1,3.9,2.7.9,3.7.9,6.9,4.2Z"/>
          </g>
          <g>
            <path class="st18" d="M217.5,159.6c0-2,0-4.9-1-5.9s-1.8-2-2.9-1-1.8,4.5-2,6.9c0,.8.4,3.4,1,3.9,1.9,1.5,3.2,1.3,3.9.2,2-3.1,1-2.7,1-4.1Z"/>
            <path class="st31" d="M218,158.8c-.2-2.7-.4-4.7-1.5-5.1-2.9-1-1,2.9-3.9,4.9s-.5,3.3,0,3.9c3.3,4.1,5.7-1,5.5-3.7Z"/>
          </g>
          <path class="st1" d="M186.5,123.2c0,.3-.4.6-.5.4-3.9-7.2-16.9-9-21.9-6.6s7.4-8,17-3.6c4.8,2.2,5.1,7.8,5.4,9.8Z"/>
          <path class="st10" d="M192.7,126.9c-4.3,1.2-7.1.8-8.6-.7-.4-.4-.7-.7-1.1-1-6.8-9.8-25.5-4.9-24.4,6.1,3.2-2.4,5.4-8.6,15-6.9,5.2.9-3.6,0-5.6,3.7-3.9,7.2,4.2,12.6,9.3,7.1-3-1.7,0-1.5.5-3.4-.2,0-.3,0-.5,0-6.5,1.4-4.9-5.8,1.5-4.4,3,.6,6.9,4.4,6.9,6.4.4,1.3-.6,2.4-.5,2.3,1-1,2-2.9,1-3.6,2.3,0,6.6-5.4,6.6-5.4Z"/>
          <path class="st1" d="M85.8,124.2s4.3-5.5,7.9-6.9c5.5-2.2,18.7-3.9,21.6-2.9s-11.5-4.5-20.8-1c-1.3.5-3.5,1.7-4.7,3-3.9,3.9-3.9,7.9-3.9,7.9Z"/>
          <path class="st10" d="M87,124.6h0c-3.1,2.7-7.2.4-7.2.4,0,0,1.4,3.5,4.6,4.2.1,0,.3,0,.5.1,0,1.8,0,2.2.6,3,.8-6.7,15.8-10.3,17.7-7.4.1.1.2.2.3.3.2.2.2.4,0,.5.2,0,.2-.2,0-.5,0,0-.2-.2-.3-.3-16.4,3.9,1.1,19.4,4.9,7.4-2.2,2.6-4.8,1.4-3.4-2-.9-.3-1.5-.5-2-.7.5.2,1.2.4,2,.7,2-.4,2.8-3.4,3.9-3.4.5,0,3.3,2.8,3.9,4.4,1.2-12.7-18.1-15.4-25.4-6.7Z"/>
          <g>
            <g>
              <path class="st6" d="M172.1,468.8c-16.9,1.5-89.6-26.1-85.5-9.7.2,1,4.1,17.4,7.9,20.6,6.9,5.9,42.2,7.9,65.8,6.9,14.1,0,53.1-10.9,54.1-15.9.9-4.7,1-5.9,2-11.8-13.9,5.1-29.5,8.5-44.2,9.8Z"/>
              <path class="st29" d="M145.9,486.9l-1.3-10.5s2.6,10.5,3.9,10.5h-2.6Z"/>
            </g>
            <g>
              <path class="st17" d="M209.5,322.5s.6-6.5.6-6.7,0-5.9,0-5.9c8.8,2,11.8,1,11.8,1,0,0,14.7-17,16.1-20.8.8-2.1,4.9-15.7,3.6-21.8-2.2-8.5-5.2-16.6-10.9-23.3-10.9-12.8-38.2-10.7-47.1-16.6-2,4.3-27.8,26.2-34,22.3.8,6.9-20.2,1.5-20.3.9-.3-3.3-5.8-13.2-6.7-17.2-.9-3.9,2.6-7.9,0-7.9-5.3,0-17.8,4.1-24.1,4.6-7.4.6-11,.9-17.9,4.9-10,5.8-20.5,22.6-17.9,27.8,3.4,6.8,12.2,17.6,19.1,23.5,1.8,1.6,3.8-.9,4.8-2.8-3.3,7.5-9,19.4-7.8,29.4,1.3,11.2,6.8,17.6,10.8,20.6,2.7,2,8.8,3.9,8.8,3.9,0,0,5,5.1-1,14.7s-9.8,14-18.6,36.7c-4.8,18.8-8.6,37.8-11.3,57-.3,2.1,0,4.4-1,6.4,14.5,9.7,37.5,12.9,54.5,14.7,16.9,1.8,34.1,2.5,51.1,1,14.7-1.3,30.4-4.7,44.2-9.8,4.6-1.7,10-4,14.2-6.4-2.1-15.3-5.6-30.3-9.8-45.2-3.2-11.1-6.3-22.1-11.8-32.4-7.3-5.8-5-30.6-3.9-42.3l4.3-10.1Z"/>
              <path class="st37" d="M205.6,326.4c0,0,0,.1,0,.2,0-.2,0-.2,0-.2Z"/>
              <path class="st37" d="M205.7,326.6c0,.2,0,.6,0,1.1.1-.5.1-.8,0-1.1Z"/>
            </g>
            <path class="st17" d="M74.8,322.6"/>
            <path class="st37" d="M208.9,373c-4.8-6.9-4.6-26.2-3.5-38.8,2.3-3,4.2-6.7,4.9-10,.9-3.5.4-15.5-2.7-24.3-1.6.2,4.6,12.4-.8,23.5-2.1,2.9-4.8,6.8-9.3,9.8-2.2,1.3-4.7,2.5-7.7,3.6-5.8,1.6-13.5,1.7-23.8-1.2.6.2,34.7,39.4,42.2,55,7.4,15.2,16,61.7,14.7,65.8.5-.1,6.7-3.3,9.8-4.9,2-1-2.7-47.7-24-78.3Z"/>
            <path class="st37" d="M104.3,339.6c4.9,0,9.8-2.9,9.8-2.9-5.9,2.9-15.8,1.6-15.8,1.6,0,0,1.1,1.8,1,4.9-.1,3.3-1.5,8-3.9,12.1-3.9,6.8-7,12.7-9.4,17.6-2.7,4.7-4.8,10-6,13.4-.9,2.3-1.3,3.5-1.3,3.5-4.8,18.8-9.2,44.3-11.8,63.5,6.5,3.9,6.9,3.9,6.9,3.9,0,0-3.2-21.6,2-41.7,7.3-28.5,19.3-40.5,22.6-45.8,14.7-23.6,5.9-30.1,5.9-30.1Z"/>
            <path class="st17" d="M74.9,322.5"/>
          </g>
          <path class="st37" d="M216.9,400.7c-2.7-24.5-13.9-58.6-22.6-57-4.9.9-87.6,10.9-92.2,10.2-3.7-.6-14.4,30.9-16.9,28.1,5.7,18,9.7,40.2,17.3,56.8,2,4.3,39,17.1,92,4.3,12-2.9,15.3-24.3,22.4-42.4Z"/>
        </g>
        <path class="st27" d="M200,133.3c-.2,1.3-.3,2.7-.5,4,.2,0,.4-.2.5-.3,0-.2,0-.4,0-.6,0-1,0-2.1,0-3.2Z"/>
        <g>
          <path class="st30" d="M171.4,212.6c-.3-2-.6-4.1-1-6.1,0-.3-1.3-3.1-2-5.4-7.5,9.6-17.5,17.3-28.8,21.8-5.2-4.5-12.7-12-12-14.2-1,2.9-3.9,23.6-4.9,26.5-3.8,11.4,9.9,16.7,16.7,16.7,17.7,0,30-9.1,29.5-11.8-.4-.7,1.9-2.2.7-3.4.8-.3,1.5-.8,2.2-1.5.9-.9,0-19.7-.5-22.6Z"/>
          <path class="st5" d="M168.4,201.1c-8.9,11.4-21.4,20.2-35.4,24.1-2.3-3-5.3-5.9-5.9-9.8-.4-2.8.2-7.8.5-10.8,0-.7.1-.9.5-1.5,12.2,2.1,27.2-5,37.8-10.8,1.2,2.8,1.6,5.9,2.5,8.8Z"/>
        </g>
        <path class="st40" d="M206.2,60.3"/>
        <path class="st44" d="M105.7,63.3c.1,0,.2,0,.3,0,8.8-1.7,15.7-14.8,25.6-7.6,9.1,6.6,20.7-8.9,31.4-12.4,2-.7,20.6,1.8,22.7,1.3,0-2-4.9-9.8-12.8-11.8s-14.8,4.9-16.7,2.9-4.9-2.9-4.9-2.9c0,0-13.8-6.9-21.7,3.7-1.3,1.1-6.5-3.4-10.7-3.9-7.6-.9-15.7,3.2-21.1,11.7-1,1.5-5.4,10.1-1.4,16.6.5.9-6,.4-10.9,7.3-3.7,5.1-5.8,13.8-4.9,13.8,1.5,0,23.7-18.5,25.2-18.6Z"/>
        <g>
          <path class="st35" d="M147.9,248.6c-11.5,0-23.8-5.4-24.3-16.4s1-6.9,1-6.9l-8.8,2-7.9,2c3,18.9,21.6,34.4,40,34.4s34.6-15.4,37.6-34.4c0,0-4.5-2.9-5.9-3.9s-7.9-4.9-7.9-4.9c0,0,.2,6.4,0,8.8-1,10.9-12.4,19.3-23.9,19.3Z"/>
          <path class="st46" d="M112.7,237.3c3,.3,6-.3,8.8-1.5s.9-1.4.5-2.1-1.3-.9-2.1-.5c-.2,0-.2,0,0,0,0,0-.2,0-.3.1-.1,0-.3.1-.4.2-.3.1-.6.2-1,.3-.6.2-1.3.3-1.9.4s-.5,0-.2,0c-.1,0-.3,0-.4,0-.3,0-.7,0-1,0-.7,0-1.4,0-2,0s-1.5.7-1.5,1.5.7,1.4,1.5,1.5h0Z"/>
          <path class="st46" d="M119.8,246.8c1.8-.3,3.6-1.3,4.8-2.8s.4-.6.4-1.1-.2-.8-.4-1.1-.7-.5-1.1-.4-.8.1-1.1.4-.7.8-1.1,1.1l.3-.2c-.4.3-.9.6-1.4.8l.4-.2c-.5.2-1,.4-1.6.4s-.7.4-.9.7-.3.8-.2,1.2.3.7.7.9l.4.2c.3,0,.5,0,.8,0h0Z"/>
          <path class="st46" d="M128.6,254.6c.9-1.6,1.8-3.2,2.9-4.7s.2-.8.2-1.2-.4-.7-.7-.9c-.8-.4-1.6-.2-2.1.5-1,1.5-2,3.1-2.9,4.7s-.2,1.7.5,2.1,1.7.2,2.1-.5h0Z"/>
          <path class="st46" d="M141.2,259.1c0-1.2,0-2.4.1-3.6s0-.6.1-.9c0,.3,0,0,0-.2,0-.1,0-.3,0-.4,0-.6.2-1.2.3-1.8s-.2-1.7-1-1.8-1.7.2-1.8,1c-.6,2.5-.8,5.1-.8,7.6s.7,1.5,1.5,1.5,1.5-.7,1.5-1.5h0Z"/>
          <path class="st46" d="M155.3,260c.1-2.5,0-5-.3-7.5s-.6-1.5-1.5-1.5-1.6.7-1.5,1.5c.3,2.5.4,5,.3,7.5s.7,1.5,1.5,1.5,1.5-.7,1.5-1.5h0Z"/>
          <path class="st46" d="M168.2,253.9c-.2-.2-.3-.4-.5-.6s-.2-.2-.3-.3-.2-.2,0,0,0,0,0,0c-.3-.4-.6-.9-.9-1.3-.6-.9-1.1-1.9-1.6-2.8s-1.4-1-2.1-.5-.9,1.3-.5,2.1c1,2.1,2.4,4,3.9,5.8s1.6.6,2.1,0,.5-1.5,0-2.1h0Z"/>
          <path class="st46" d="M175,245.4c-.3,0-.6-.1-.9-.2s-.3,0-.4-.1c-.3,0,.3.1,0,0s-.1,0-.2,0c-.3-.1-.5-.3-.8-.4s-.2-.2-.4-.2c-.2-.2.3.2,0,0s-.1,0-.2-.1c-.2-.2-.4-.4-.6-.6s-.2-.2-.3-.4c.3.4,0,0,0-.1-.2-.2-.3-.5-.4-.7s0-.1-.1-.2c0-.1-.1-.3,0,0,0-.1-.1-.3-.2-.4-.2-.7-1-1.3-1.8-1s-1.3,1-1,1.8c.9,2.8,3.4,5.2,6.4,5.7s.8,0,1.2-.2.6-.5.7-.9c.2-.7-.2-1.7-1-1.8h0Z"/>
          <path class="st46" d="M180.2,236.9c-.3,0-.6,0-.8,0,0,0,.3,0,.1,0s-.1,0-.2,0c-.1,0-.3,0-.4,0-.3,0-.5-.1-.8-.2s-.1,0-.2,0c-.2,0,0,0,0,0-.1,0-.2-.1-.4-.2-.2-.1-.5-.2-.7-.4s-.2-.1-.3-.2,0,0-.1-.1c-.2-.1.3.2,0,0-.4-.3-.8-.7-1.1-1.2s-.7-.4-1.1-.4-.8.2-1.1.4-.5.7-.4,1.1.2.7.4,1.1c1.6,2.1,4.3,3.3,6.9,3.3s1.5-.7,1.5-1.5-.7-1.5-1.5-1.5h0Z"/>
          <path class="st46" d="M182.2,230.3c-.3,0-.6-.2-.9-.3s.3.1,0,0-.1,0-.2,0c-.1,0-.3-.1-.4-.2-.3-.1-.5-.3-.7-.4s-.2-.2-.4-.2-.1-.1-.2-.2c0,0,.2.2,0,0-.5-.4-.9-.8-1.3-1.2s0-.1-.1-.2c-.1-.2,0,0,0,0,0-.1-.2-.2-.3-.4-.2-.3-.4-.5-.5-.8-.4-.7-1.4-1-2.1-.5s-.9,1.3-.5,2.1c1.4,2.5,3.8,4.4,6.6,5.3s1.7-.3,1.8-1-.2-1.6-1-1.8h0Z"/>
        </g>
        <g>
          <g>
            <g>
              <path class="st24" d="M92,321.8l5.7,42.6c0,0,0,1.4-.9,1.4,0-4.5-.9-9.3-1.4-13.7-.6-5.6-2-11.4-2.8-17s-.3-2.2-.5-3.3c-.5-3.6-.9-7.3-1.4-10.9h.5l.9.9Z"/>
              <path class="st32" d="M90.1,316.6c0,1.1-.1,2.2,0,3.3-1.3-1.5-2.6-3.1-3.8-4.7,1.4,0,2.5,1,3.8,1.4Z"/>
              <path class="st28" d="M91,316.6v4.3h-.5c0-.5-.4-.5-.5-.9-.1-1.1,0-2.2,0-3.3.2,0,.7,0,.9,0Z"/>
              <path class="st26" d="M198.9,315.2c-1.3,2-2.8,3.4-3.8,5.7-1.5,3.5-.9,4.4-1.4,8-2.5,11.3-2.9,22.8-5.2,34.1-.3,0-1.1-.4-1.4-.5l5.7-45c.3,0,5.9-2.2,6.2-2.4Z"/>
              <path class="st25" d="M193.2,335.5c-.9,6.8-3.9,21.5-3.3,27.4-.5,0-1,0-1.4,0,2.3-11.3,2.7-22.8,5.2-34.1-.3,2.1-.2,4.5-.5,6.6Z"/>
              <path class="st8" d="M193.7,328.9c.5-3.6,0-4.6,1.4-8,.4,2.8-.9,5.5-1.4,8Z"/>
              <path class="st19" d="M198.8,314.9c-10.5,63.3-15.4,107.2-15.4,107.2-.4,1.3-1,2.1-4.7,2.6-11.8,1.4-60.3,4.7-70.5.5s-3.7-1.9-4-2.6c-1.8-3.5-8.2-42.8-18-107.6,0,0,112.7-.6,112.6,0Z"/>
              <g>
                <path class="st0" d="M143.6,274.5c.7,4.5,1.3,1.4,2.6,2.4s1.7,3.4,4,3.8c-.3,3.7,3.3,5.4,6.4,6.2-2.1-1.9-5.8-2.8-5.9-6.2s0-.3,0-.5c.7-6.8,6.8-1.2,8.8-.5s2.2-1.1,4.3,0c2.4,1.3,1.2,4.1,1.4,4.3.7.4,4.3-.6,5.4,1.4s.4,2.3-.5,3.1c2.1,1.9,4.1-1.1,5.4-.7s2.2,3.3,2.4,3.3c.9.2,2.8-3.2,6.2-1.4s.5,4.2.7,5.4c.7,3.3,5.6-1.2,8.8.7,2.8,1.7,0,5,.2,5.4s3.7,3.1,4.3,3.5c1.2,4-5.4,5.8-8.3,6.6-7.7,2.2-17.8,2.4-25.8,2.8,1.2,0,8-5.4,8-5.9s-3.2-2.1.5-3.8c-3.4,0-8.1-2.9-6.2-6.6s4.1-1.4,5.4-3.1c2.3-2.9-4.4-.2-4.7,0-1,.7-5.7,8.7-4.3,9,6.8-2.6,7.6,9.1-.9,8-5.7-.7-6.2-6.3-6.6-6.6s-1.1,1.5-1.9,1.4c-2.7-.4-1.7-8-2.8-8-.6,2.8-4.3,2.5-4.7,2.8s-.7,5.6-5,4.5c5.1,2.4,4.9-2.6,5.9-3.1,4.5-1.9,3.2,4.5,3.8,5.2s2.7.4,2.8.5c1,.9,1.5,3.2,2.8,3.8,1.9.9,4.8-.3,5.9,1.9-3.9.2-7.7.4-11.6.5s.1-1-.9-.9-1.9,1.4-3.3,1.4c-12.7.1-30.9-.1-43.3-2.4-.5-3.4-5-3.4-4.3-7.3.4-2.1,6.1-3.9,7.8-3.5,3.2.6,3.8,5.3,5.9,6.2l1.2,1.4c.9-1-1-1.1-1.2-1.4-1.4-2.8-.4-4.2-.5-4.5-.3-1-6.7-2.3-4.7-6.6.7-1.5,4-1.8,1.2-3.1-3.8,1.3-1.3,5.2-4.7,7.6s-2.6.3-2.8.5c-3.8,2.2-4.1,4.5-9.2,1.2.5,4.8,4.7,2.7,5.7,3.8s1.7,4.8,3.3,5.4c-3.7-.8-15.4-2.7-11.8-8s2.7-1.6,2.8-2.1-.9-1.6-.5-2.8c.7-1.9,4.8-2.4,5.7-4.3s-1.4-1.7,1.2-4c4.4-3.9,4.9,3.4,9.7-.7s-.3-2.9,2.6-2.6,2.3,4.9,5,1.7c-7-.4-.7-9.5,3.8-8.3,0,0,1.4,1,1.4,1.7.2,1.8-1.3,2.5-.7,4,1,.6.5-4.5,4.5-3.3,4.6,1.4,2.3,6.1,3.5,6.6s1.7-1.1,2.8-.9c2,.3,4.4,5.6,5.7.9-2.4.1-7-1.7-8.3-3.5s1.5-3.3-3.3-3.5c-2-3.8,2.3-3.9,3.8-5.7,3.1,0,2.6,4.3,3.5,4.7s4.5-.8,4.7-.9c.3-.2-.6-1.4-.2-2.1s1.3-1.7,1.4-1.9c.2-.6-1-4,1.9-4.5s3.1,1.2,3.8,1.9Z"/>
                <g>
                  <path class="st14" d="M124.2,283.5c.6,0,.4-.5.5-.5,4.8.2,2.7,2.6,3.3,3.5,1.3,1.9,5.8,3.7,8.3,3.5-1.3,4.7-3.6-.6-5.7-.9s-2.4,1.1-2.8.9c-1.3-.5,1-5.3-3.5-6.6Z"/>
                  <path class="st14" d="M163.9,314.2c-.6,0-1.3,0-1.9,0-1.2-2.2-4-1-5.9-1.9s-1.8-2.9-2.8-3.8-2.7-.3-2.8-.5c-.6-.7.7-7.1-3.8-5.2s-.9,5.4-5.9,3.1c4.3,1.1,4.7-4.3,5-4.5.5-.3,4.1,0,4.7-2.8,1.1,0,.2,7.6,2.8,8s1.8-1.5,1.9-1.4c.4.3,1,6,6.6,6.6,8.5,1,7.8-10.7.9-8-1.5-.3,3.3-8.3,4.3-9s7.1-2.9,4.7,0-4.4,1-5.4,3.1c-2,3.8,2.8,6.7,6.2,6.6-3.7,1.6-.4,3.3-.5,3.8s-6.8,5.9-8,5.9Z"/>
                  <path class="st14" d="M112.3,308.1c-2.1-.9-2.7-5.5-5.9-6.2s-7.4,1.5-7.8,3.5c-.8,4,3.7,3.9,4.3,7.3-.7-.1-1.6-.3-2.4-.5-1.6-.6-3-5.1-3.3-5.4-1-1-5.2,1-5.7-3.8,5.1,3.3,5.4,1,9.2-1.2s1.9.2,2.8-.5c3.4-2.4,1-6.2,4.7-7.6,2.8,1.3-.5,1.6-1.2,3.1-2,4.3,4.4,5.7,4.7,6.6s-1,1.7.5,4.5Z"/>
                  <path class="st14" d="M176.4,304.8c1.7,2.4,7.2-.2,7.6,0s-1.1,4.2,1.2,5c-6,1.6-9.6,2.9-8.8-5Z"/>
                  <path class="st14" d="M141,289.1c.4-.2,3.3,4.6,8.5,3.3s2.7-2.4,2.8-2.4,1.3,3.4,1.2,3.5c-.3.3-7.9,1.7-8.3,1.7-1.5-.3-3.6-5.2-7.3-3.1,1.4-.3,2.9-3,3.1-3.1Z"/>
                  <path class="st14" d="M132.4,294.8c-.1,5.6,5.1,6.7,9.7,7.3-2.6,2.1-7.7-1.4-10.6-2.6s-3.5,1-5.4-3.1c2.8-.7,4.3,2.5,6.4-1.7Z"/>
                  <path class="st14" d="M163.7,285.4c.6.2-.4,1.7.2,2.6s4.9,3.6,1.2,4c-1.4.1-2.3-3.2-3.3-3.8s-4.7-.3-4.5-1.2c3,1.7,6.1-1.8,6.4-1.7Z"/>
                  <path class="st14" d="M118.2,292.9c0,0,.9.7,1.2.7-1,.3-.3,7.6-1.2,7.8.4-1.7-2.5-3.3-2.6-3.5-.4-1.1,1.3-4.8,2.6-5Z"/>
                  <path class="st14" d="M191.1,302.4c3.2,2.5,1.8,4.9-1.4,6.6-.7-1,.4-2.5.7-4s-2-1.2.7-2.6Z"/>
                  <path class="st14" d="M132,306.2c.3,0,5.9,3,4.3,3.8-4-4.8-5.7,2.3-10.6-1.7.9-1.3,2.2.6,4,.2s2.2-2.3,2.4-2.4Z"/>
                  <path class="st14" d="M118.7,310.4c1.3.3,4.6.1,4.5,1.7s-4.8.8-4.5-1.7Z"/>
                  <path class="st14" d="M150.2,280.6h.5c.2,3.3,3.9,4.3,5.9,6.2-3.1-.7-6.7-2.5-6.4-6.2Z"/>
                  <path class="st14" d="M123.4,291.5c1.2,2.1,2.8,0,4,.7l-4.5,1.7.5-2.4Z"/>
                  <path class="st14" d="M145.2,309.5c.5,2.5,1.3,3.8-1.7,2.1l1.7-2.1Z"/>
                  <path class="st14" d="M156.1,295.8c.1,0,1.6,1,1.7,1.2,1.1,3.6-4.3-.8-1.7-1.2Z"/>
                  <path class="st14" d="M179.3,295.3c0,0,1.7,1.1,1.7,1.2-.4,1.1-2.8-.7-1.7-1.2Z"/>
                  <path class="st2" d="M112.3,308.1c.2.3,2.1.4,1.2,1.4l-1.2-1.4Z"/>
                </g>
              </g>
              <path class="st20" d="M195.1,316.4l-15.5,108.4c-1.9.2-1.8.2-2.7.3,1.1-11.7,14-96.3,15.5-108,5.1-.9,2.7-.8,2.7-.8Z"/>
              <path class="st20" d="M139.3,320.4c-2.7,0-5.4,0-8,0,0,1.4,4,107.3,4,107.3,1.3,0,4.2,0,5.5,0-.4-33.5-1.5-107.2-1.5-107.2Z"/>
              <path class="st20" d="M111.1,319.5c3.8.4,7.3.6,11.2.6.6,14.7,6.7,92.5,8,107.5l-6.8-.2-12.5-108Z"/>
              <path class="st20" d="M94.9,317.5c2.6-.7,5.6.5,7.5,1-.1,3.4,16.7,106.5,17,108.7-5.7-.4-6.3-.8-6.3-.8,0,0-17-105-18.1-108.9Z"/>
              <path class="st20" d="M154.4,320.4c-2.8,0-5.7,0-8.5,0,0,0-1,105.2-.5,107,3,0,6.1-.2,6.1-.2,0,0,2.8-105.7,2.9-106.8Z"/>
              <path class="st20" d="M90.1,316.3c-.3,2.9,18.1,107.8,17.2,108.5s-2.4-1.4-2.5-1.5c-1.3-1.9-15.9-104-17-107.5.7-.2,1.6.7,2.3.5Z"/>
              <path class="st20" d="M173.7,320.2s-8.3.2-9.8.2c-.3,5.7-7,97.1-7.5,106.4.9,0,5.7-.3,5.7-.3l11.5-106.4Z"/>
            </g>
            <path class="st20" d="M186.9,318.7c-2.3.1-4.4.5-6,.8.1,3.4-13.7,104.3-13.9,106.5,4.9-.4,5.8-1.4,5.8-1.4,0,0,13.2-102,14.1-105.9Z"/>
            <path class="st33" d="M102.6,318.1c.7.2,1.5.4,2.2.6,11.7,2.8,52.2,2.1,55.9,1.8s1.2,0,1.8,0c7.6-.6,17.1-.8,24.4-3.6s8.9-3.3,7.8-8.4c.3.3,2.9,1.2,3.6,2.1,1.5,2.1,1.9,6.5-2.7,11.1s-10.2,8.5-55.3,7.9c-2.3,0-48.4,0-53.4-10.6-2.1-4.4,0-10.8,4.5-11.1-3.3,6.7,7.7,9.2,11.2,10.2Z"/>
            <path class="st4" d="M100.5,312.3c.7.2,1.6.3,2.4.5,12.4,2.2,55.3,1.6,59.1,1.4s1.3,0,1.9,0c8-.5,18.1-.7,25.8-2.8s9.5-2.6,8.3-6.6c.3.2,3.1.9,3.8,1.7,1.6,1.6,2.1,5.2-2.8,8.8-.3.2-10.8,6.7-58.5,6.2-2.5,0-51.3,0-56.5-8.3-2.2-3.5,0-8.5,4.7-8.8-3.5,5.3,8.1,7.2,11.8,8Z"/>
            <path class="st4" d="M112.6,425.2c18.4,1.6,31.9,2.3,59.2,0,1.9-.2,12.1-1.9,11.6-3.6.6.5.4.9.2,1.3-.3,1-8.2,5.2-41.6,5.3-8.6,0-31.4-.9-36.1-3.1s-2.7-2-2-2.7c1,1.9,6.1,2.6,8.6,2.9Z"/>
          </g>
          <path class="st17" d="M84,266.4s0,0,0,0c-5.5-8.8,6.7-29.2,17.8-36.3-21.2,1-34.4,9.3-36.3,10.2-22.7,11-17.2,52.8-32.9,55.3.1,1.2,9.9,8.2,10.6,8.5,6.8,3.6,15.3,5.2,22.5,7.7,10.3,3.5,12.8,4.9,12.8,4.9,0,0-1.3-5.9,0-4.9s0-.9.2-2.8c2.9-20.3,8.5-36.7,5.3-42.6Z"/>
          <g>
            <path class="st1" d="M80.2,364.3c-.4,2.8-1.6,4.9-.8,11.3-14.6,17.2-27.8,25.1-50.2,28.5-2.9-3.1-3.9-4.7-5.2-8.8,4.4,9.5,37.6-13.2,43.3-18,4.7-3.9,8.5-8.9,12.9-13Z"/>
            <path class="st1" d="M81.1,382.9c-11,16.2-26.3,24.8-45.6,26.1-2.5-2-3.4-1.7-6.3-4.8,22.4-3.4,35.6-11.3,50.2-28.5,1.9,5,1.5,6.8,1.7,7.2Z"/>
            <path class="st5" d="M68.9,308.6c-1.3,0-2.6-.1-3.9-.1-7.6,0-14.7-1.5-21.8-4.4-.5,1.9-1.6,5.2-2,6.8,6.3,2.3,19.3,21.9,18.9,29.7-.1,1.9-2.8,19-3.3,19.9-.5.9-2.7.6-2.2,1.9,1.9-.8,3.7-1.6,5.5-2.5.4-.2,2.8-.6,4.4-1.4q.8-.8,1.5-1.6,6.7-22,13.5-44c-.6-1.6-1.5-7.8-.8-10.9.6-2.7-7,6.4-9.8,6.5Z"/>
            <path class="st5" d="M123.5,368.3c0,0,.9.8,1.1,1.1-.3,1.6-17.6,6.9-1.9,9.7.5,6.1-3.4,12-8.7,14.6-4.2,2.1-9.1,2.7-13.7,2.3,5.5-.8,8.7-5.9,12-10,3-1.6-6.2-1.1-12-2.2-8-1.5-26.2-7.1-6.6-3.7,29.6-2.7,10.4-.6-8.4-14.1,12.4,5.2,25.7,8.5,38.3,2.3Z"/>
            <path class="st30" d="M115.8,360.8c-1.2.3,3.1,4.2-8.9,2.4-5.8-.9-13.6-1.8-14.4-6.5-1.4-8-1.2-11-2.4-18.4s-5.6,3.8-6.5,9.1c-5.6,2.6-12.7,9-17.6,9.6q-.8.8-1.5,1.6c-1.6.8-4,1.2-4.4,1.4-1.8.9-3.7,1.7-5.5,2.5-.5-1.3,1.7-1.1,2.2-1.9.5-.9,3.1-18,3.3-19.9,3.9-28.2-12.6-27.4-18.9-29.7-4.3,17.5-13.4,47.2-16.5,61.4-2.1,9.5-3.7,13.4-.6,23.1,4.4,9.5,37.6-13.2,43.3-18,4.7-3.9,8.5-8.9,12.9-13-.4,2.8-1.6,4.9-.8,11.3,1.9,5,1.5,6.8,1.7,7.2,0,0,1.1,1.3,1.1,1.4-.2-3.1,3.4,2.8,7.5,4.6,8.5,3.8,14.9.6,22.6-2.7,3-1.6-6.2-1.1-12-2.2-8-1.5-26.2-7.1-6.6-3.7,29.6-2.7,10.4-.6-8.4-14.1,12.4,5.2,25.7,8.5,38.3,2.3-1-2.5-4.7-8.5-7.7-7.6Z"/>
            <path class="st36" d="M112.3,386.1c-3.3,4.2-6.5,9.2-12,10-3.7-.3-10.7-2.5-13.5-5-1.6-1.4-3.6-4.9-4.5-6.9-.2-3.1,3.4,2.8,7.5,4.6,8.5,3.8,14.9.6,22.6-2.7Z"/>
          </g>
          <g>
            <path class="st1" d="M203.7,369c.4,2.8,1.6,4.9.8,11.3,14.6,17.2,27.8,25.1,50.2,28.5,2.9-3.1,3.9-4.7,5.2-8.8-4.4,9.5-37.6-13.2-43.3-18-4.7-3.9-8.5-8.9-12.9-13Z"/>
            <path class="st1" d="M202.9,387.6c11,16.2,26.3,24.8,45.6,26.1,2.5-2,3.4-1.7,6.3-4.8-22.4-3.4-35.6-11.3-50.2-28.5-1.9,5-1.5,6.8-1.7,7.2Z"/>
            <path class="st5" d="M160.4,373c0,0-.9.8-1.1,1.1.3,1.6,17.6,6.9,1.9,9.7-.5,6.1,3.4,12,8.7,14.6,4.2,2.1,9.1,2.7,13.7,2.3-5.5-.8-8.7-5.9-12-10-3-1.6,6.2-1.1,12-2.2,8-1.5,26.2-7.1,6.6-3.7-29.6-2.7-10.4-.6,8.4-14.1-12.4,5.2-25.7,8.5-38.3,2.3Z"/>
            <path class="st30" d="M168.2,365.5c1.2.3-3.1,4.2,8.9,2.4,5.8-.9,13.6-1.8,14.4-6.5,1.4-8,1.2-11,2.4-18.4.2-1.5,5.6,3.8,6.5,9.1,5.6,2.6,12.7,9,17.6,9.6q.8.8,1.5,1.6c1.6.8,4,1.2,4.4,1.4,1.8.9,18,9.1,19.9,9.9.5-1.3-16.1-8.5-16.6-9.3-.5-.9-2.9-18-3.3-19.9-12.7-52.9,20.6-44.9,26.8-47.2,4.3,17.5,5.5,64.7,8.6,78.9,2.1,9.5,3.7,13.4.6,23.1-4.4,9.5-37.6-13.2-43.3-18-4.7-3.9-8.5-8.9-12.9-13,.4,2.8,1.6,4.9.8,11.3-1.9,5-1.5,6.8-1.7,7.2,0,0-1.1,1.3-1.1,1.4.2-3.1-3.4,2.8-7.5,4.6-8.5,3.8-14.9.6-22.6-2.7-3-1.6,6.2-1.1,12-2.2,8-1.5,26.2-7.1,6.6-3.7-29.6-2.7-10.4-.6,8.4-14.1-12.4,5.2-25.7,8.5-38.3,2.3,1-2.5,4.7-8.5,7.7-7.6Z"/>
            <path class="st36" d="M171.7,390.8c3.3,4.2,6.5,9.2,12,10,3.7-.3,10.7-2.5,13.5-5,1.6-1.4,3.6-4.9,4.5-6.9.2-3.1-3.4,2.8-7.5,4.6-8.5,3.8-14.9.6-22.6-2.7Z"/>
            <path class="st5" d="M250.8,298.2c.5,1.9,1,5.8,1.4,7.3-6.3,2.3-34.5,14.3-28.3,39.8.5,1.9,2.8,19,3.3,19.9.5.9,18,8.5,17.4,9.9-1.9-.8-18.9-9.6-20.8-10.4-.4-.2-2.8-.6-4.4-1.4q-.8-.8-1.5-1.6c-.1-20.9-4.6-29.8-5.8-52.2,5.2,2.9,31.5-8.3,38.7-11.3Z"/>
          </g>
        </g>
        <path class="st37" d="M86.5,285.5c1.6-3.6,1.8-7.9,1.8-7.9,0,0,0-.1,0-.2-3.9,3.9-9.8,4.9-9.8,4.9,1.8,3.1,2.9,2.9,1.4,4.8-5.2,7.3-9.3,13.5-14.1,22.7,2,0,6.8,2.2,7.9,2.9,2.3,1.6,5.1,3.5,5.9,2.9-.7-10.5,1.6-18.1,5.9-27.5.4-.8.8-1.8,1.1-2.7Z"/>
        <path class="st17" d="M251.2,290.2c-2.2-3.3-6.5-28.9-17.9-42-.1.5-.2,1-.3,1.6-1.8,6.6-4.3,12.7-7.6,18.4,1,14.1-12.2,28.4-13.7,42.5,10.8,1,26.9-1.7,33.7-6.7.5-.4,9.4-8.8,11.8-9.9-1.8-1.7-4.6-1.6-6.1-3.8Z"/>
        <path class="st37" d="M212,304.5c-1-9,9.1-16.2,9.4-25.2,0-.5.1-4-.2-4-.2,1.2-.4,2.4-.5,3.7-.9,6.1-14.5,14.6-13.6,20.7,2,12.8,3.9,13.5,2,26,2,.1,3.3-17.4,2.9-21.1Z"/>
        <g>
          <path class="st15" d="M119.1,126.2c0,7.2-3.2,22.2-7.8,25.1-5.4,3.3-29.8.7-32.9-.9-4.4-2.2-5.5-14.1-5.5-23.2s1.5-15.6,5.2-19.1,10.1-2.5,16.4-2.5,12.8-2,17.3,1,7.2,11.6,7.2,19.6Z"/>
          <path class="st16" d="M196.8,127.4c0,9.8-1.4,20-6.4,24.6s-17.6,4.7-25.8,4.7c-14.6,0-21.8-11.1-21.8-28.2s10.7-23.9,25.3-23.9,28.7,5.7,28.7,22.8Z"/>
          <g>
            <path class="st20" d="M201.7,136.1c5.7-9.4-3.3-19.2-4.5-22.3-2.9-7.9-4.2-10.2-6.6-11.7s-8.5-.9-15.4-.9-68,.5-74.3,0c-1.9-.1-8.1,0-15,.4s-9.7,1.2-10.9,6.9-5.8,9.6-4.9,17.7,2,20.9,2,20.9c0,0,1.8,4.9,4.5,6.3,13.4,3,30,3.1,36,1.8s8.7-8.2,10.1-23.3,1.6-5,2.4-7.4c8.4-.8,11.7,0,13.1,2.1,2.1,3.3,2.7,14,4.9,20.2s4.5,9.7,7.9,10.9,20.5,2.7,29.4,1.9,12.1.3,15-3.2,4.8-17.5,6.5-20.3ZM116.9,128.9c-.3,7.4-1.1,15.2-5.8,19-1.1.9-3.9,2.1-6.3,2.4-6.7.9-16.8,2.2-24.3-.8s-4-4.3-4.8-6.8c-4.1-12.5.9-29.8,1.1-30.3,1.9-5.7,10.3-5.5,15.8-5.9,6.2-.4,14.8-1.4,19.4,2.1s5,15.7,4.9,20.2ZM143.9,127.4c-.4-15.7,5.1-18.8,19.7-20.1,5.5-.5,11.3-.9,16.7,0,.8.1,2.4.3,2.9.5,2.1.5,4.2,1.3,5.7,2.8s2.8,7.5,4.4,18.2c.5,3.3.6,20.2-4.6,23.6s-25.6,3.1-34.9.6-9.7-19.9-9.9-25.6Z"/>
            <path class="st4" d="M201.3,108.7c-.5-.8-7-3.2-7.4-2.8,2.8,5.2,3.9,13.6,7.4,30.5.2.9,4.4-6.5,4.3-15.7-.5-1.6-1.7-7.6-4.2-12Z"/>
            <g>
              <path class="st20" d="M71.3,117.1l-9.8,4.4c-.5-1.1-2.6-9.5-1.2-10.3,8.3-1.2,12.8-2.9,14.9-3.8s0,.7-.9,3.3-1.8,3.5-2.9,6.4Z"/>
              <path class="st4" d="M71.3,117.1q-.6,4.9-1.2,9.8c-3.2-2.1-6.8-1.7-8.6-5.4l9.8-4.4Z"/>
            </g>
          </g>
          <g>
            <path class="st4" d="M215.6,118c-3.1-1.7-1.7,4.8-10.8,5.4,0-7.4-1.4-10.3-6.9-15.5l.7-.7c2.2.7,15.1,6.2,15.7,6.9.9,1,.8,2.4,1.2,3.9Z"/>
            <path class="st11" d="M215.6,118c.5,1.8.2,6,1,5.4-4.5,3.4-9.4,7.1-14.9,12.6s-2.7-9.7-2.8-12c9.1-.6,13.6-7.7,16.7-6Z"/>
          </g>
        </g>
      </g>
    </g>
  </g>
</svg>