<svg xmlns="http://www.w3.org/2000/svg" xmlns:xlink="http://www.w3.org/1999/xlink" version="1.1" viewBox="0 0 310 491">
  <defs>
    <style>
      .cls-1 {
        fill: #c45f41;
      }

      .cls-2 {
        fill: #c05e58;
      }

      .cls-3 {
        fill: #2d0903;
      }

      .cls-4 {
        fill: #232323;
      }

      .cls-5 {
        fill: #a383b5;
      }

      .cls-6 {
        fill: #d7dadc;
      }

      .cls-7 {
        fill: #8e3226;
      }

      .cls-8 {
        fill: #f7b750;
      }

      .cls-9 {
        fill: #503740;
      }

      .cls-10 {
        fill: #a34737;
      }

      .cls-11 {
        fill: #cf99ce;
      }

      .cls-12 {
        fill: #a1a2a3;
      }

      .cls-13 {
        fill: #23110a;
      }

      .cls-14 {
        fill: #281a26;
      }

      .cls-15 {
        fill: url(#linear-gradient);
      }

      .cls-16 {
        fill: #f0935d;
      }

      .cls-17 {
        fill: #bdeded;
      }

      .cls-18 {
        fill: #c12e4b;
      }

      .cls-19 {
        fill: #ddcfe4;
      }

      .cls-20 {
        fill: #080707;
      }

      .cls-21 {
        fill: #e5fdfe;
      }

      .cls-22 {
        fill: #7f2c86;
      }

      .cls-23 {
        fill: #dcb5d8;
      }

      .cls-24 {
        fill: #2e643c;
      }

      .cls-25 {
        fill: #a66bb7;
      }

      .cls-26 {
        fill: #fbfbfc;
      }

      .cls-27 {
        fill: #885f93;
      }

      .cls-28 {
        fill: #c386c3;
      }

      .cls-29 {
        opacity: .2;
      }

      .cls-29, .cls-30 {
        fill: #7aebe9;
      }

      .cls-31 {
        fill: #c9892d;
      }

      .cls-32 {
        fill: #e6794d;
      }

      .cls-33 {
        fill: #efd870;
      }

      .cls-34 {
        fill: #736b8a;
      }

      .cls-35 {
        fill: #511407;
      }

      .cls-36 {
        fill: #661b6a;
      }

      .cls-37 {
        fill: #17ae9d;
      }

      .cls-38 {
        fill: #d53a5c;
      }

      .cls-39 {
        fill: #f9efed;
      }

      .cls-40 {
        fill: #95409b;
      }

      .cls-41 {
        fill: #353535;
      }

      .cls-42 {
        fill: #835c76;
      }

      .cls-43 {
        fill: #bb7ba0;
      }

      .cls-44 {
        fill: #120f12;
      }

      .cls-45 {
        display: none;
      }

      .cls-46 {
        fill: #320532;
      }

      .cls-47 {
        fill: #1d121b;
      }

      .cls-48 {
        fill: #4e0b1b;
      }
    </style>
    <linearGradient id="linear-gradient" x1="112.42" y1="292.68" x2="69.81" y2="383.14" gradientUnits="userSpaceOnUse">
      <stop offset="0" stop-color="#506f61"/>
      <stop offset="1" stop-color="#565054"/>
    </linearGradient>
  </defs>
  <!-- Generator: Adobe Illustrator 28.7.1, SVG Export Plug-In . SVG Version: 1.2.0 Build 142)  -->
  <g>
    <g id="Layer_1">
      <path class="cls-8" d="M180.54,472.03c0,1-10.04,18.13-11.03,18.18-24,1-61-1-68-7-3.81-3.27-7.75-19.99-8-21-4.15-16.78,69.78,11.4,87.03,9.82Z"/>
      <g>
        <g id="Background" class="cls-45">
          <path class="cls-12" d="M86.77,475.93c-76.66-.03-153.33.02-229.99,0V-36.06h511.99v511.99c-62.83.03-125.66-.04-188.49,0l2-12c4.67-1.72,10.18-4.03,14.5-6.5,3.45-1.97,7.1-3.76,8.5-7.75-.58-6.9-2.36-13.56-4-20.25,78.66-56.22,100.3-140.93,35-218.49.44-.15,3.73.06,8.75-3,11.31-6.89,14.02-20.62,8.75-32.25,19.68-4.09,26.74-27.04,11.5-40.5,1.3-4.6-.06-9.71-3.5-13,18.09-14.94,14.27-39.84-6.5-49.5,3.45-16.49-13-29.19-28.5-28,3.97-21.09-13.43-38.56-33.75-28.25C176.04-1.59,147.23-10.1,124.52,1.94c-20.79-21.07-68.84-13.98-83,12C24.98.63-1.9,15.6,3.78,36.69q-5.87,5.12-11.75,10.25c-15.38,1.62-25.36,19.24-18.25,33.25-16.51,8.39-18.6,31.46-2,41-18.55,4.77-26.83,31.52-8,41.5-3.31,17.4,13.59,21.59,14,23-2.88,8.02-1.6,15.43,4,21.75-35.08,28.1-51.49,75.22-45,119.25,7.26,49.22,46.06,86.19,86.5,111.25-.66,4.4-1.83,8.73-1.5,13.25,2.47,2.94,4.86,4.65,8,6.75,14.74,9.85,38.13,13.18,55.5,15q.75,1.5,1.5,3Z"/>
        </g>
        <g>
          <path class="cls-8" d="M184.32,472.19c0,1-10.04,18.13-11.03,18.18-24,1-61-1-68-7"/>
          <path class="cls-8" d="M184.32,472.19c0,1-11.03,17.18-11.03,18.18,14.33,0,53.02-11.14,54.03-16.18l1.83-11.58-44.83,9.58Z"/>
          <path class="cls-31" d="M156.29,479.95s3.67,10.67,5,10.67h-2.67l-2.33-10.67"/>
          <path class="cls-36" d="M46.28,357.93c.7.87,7.21,13.46,11.5,19v.5c-16.64,5.31-25.35-11.01-24.5-25.5,2.22,2.24,8.03,5.32,11.25,4,.46.86,1.45,1.63,1.75,2Z"/>
          <path class="cls-5" d="M69.78,385.43c1.93,2.89,6.03,7.8,8.5,10.5-.47.39-2.33,3-2.75,3-.85,0-8.39-11.71-10-12.5-.59-.29-3.07,3.5-7.75-9v-.5c2.92,3.77,6.73,10.57,12,8.5Z"/>
          <path class="cls-10" d="M48.78,353.93c5.23,8.51,10.61,18.16,17.5,25.5.08.12.41.84,1.5,2.5,2.04,3.11,1.89,3.33,2,3.5-5.27,2.07-9.08-4.73-12-8.5-4.29-5.54-10.8-18.13-11.5-19-1.16-2.36.18-3.39,2.5-4Z"/>
          <path class="cls-33" d="M48.78,343.43c3.99,1.61,4.18,8.07.5,10-1.21-2.15-4.86-6.37-2-6.25-2.26-4.46,1.27-3.56,1.5-3.75Z"/>
          <g>
            <path class="cls-32" d="M27.78,318.43c3.02-.45,16.07-8.25,16.5-1.75.33,4.9-18.98,11.01-23.25,11.25,12.56.89,22.64-7.73,24-8,4.23-.84,7.72,1.18,5.75,5-2.56,4.95-24.82,7.95-26.5,11.5-5.4-.1-7.47-7.12-9.5-11-.77-4.1-3.34-18.47-.5-19,3.39,4.19,6.67,8.46,10.25,12.5,1.07-.3,2.17-.34,3.25-.5Z"/>
            <path class="cls-32" d="M53.78,333.43c.2,1.73,5.66,1.28-5,10-.23.19-3.76-.71-1.5,3.75-2.86-.12.79,4.1,2,6.25.07.13-.07.37,0,.5h-.5c-2.32.61-3.66,1.64-2.5,4-.3-.37-1.29-1.14-1.75-2-3.22,1.32-9.03-1.76-11.25-4-.04-.04-.43-.74-.5-1,5.57,1.06,16.63-4.72,11.25-4-.8.11-10.08,6.61-14.25-1,6.95-5.38,16.53-7.44,24-12.5Z"/>
            <path class="cls-7" d="M24.28,336.43c-1.11,2.35,1.37,5.98,3.75,6.5,3.02.66,22.15-7.6,25.25-11,.2,1,.47,1.26.5,1.5-7.47,5.06-17.05,7.12-24,12.5-.56.43-1.39.61-2,1-7.83-6.53-11.16-11.74-13-21.5,2.03,3.88,4.1,10.9,9.5,11Z"/>
            <path class="cls-10" d="M32.78,350.93c-2.46-.47-3.42-2.68-5-4,.61-.39,1.44-.57,2-1,4.17,7.61,13.45,1.11,14.25,1,5.38-.72-5.68,5.06-11.25,4Z"/>
            <path class="cls-32" d="M53.78,327.93c.52,2.08-.54,3.8-.5,4-3.1,3.4-22.23,11.66-25.25,11-2.38-.52-4.86-4.15-3.75-6.5,1.13.02,14.8-4.09,17.25-5,6.3-2.34,8.82-7.16,12.25-3.5Z"/>
            <path class="cls-7" d="M53.78,327.93c-3.43-3.66-5.95,1.16-12.25,3.5-2.45.91-16.12,5.02-17.25,5,1.68-3.55,23.94-6.55,26.5-11.5,1.29,1.28,2.44.78,3,3Z"/>
          </g>
          <g>
            <path class="cls-15" d="M138.77,329.43c-4.61.46-18.88-.4-20,4.5-.36,1.59.43,3.09.5,4.5,0,.17,0,.33,0,.5.11,1.99.74,3.24,1,5,1.28,8.55,1.93,16.57,9.25,22.5,10.18,8.24,18.1,3.96,26,6l8.25-3c1.32,2.2,11.19,17.17,12,18-25.74,4.12-63.33,2.72-86.5,5.5-2.7.32-5.53.48-8.25.5-2.13.66-2.27,2.1-2.75,2.5-2.47-2.7-6.57-7.61-8.5-10.5-.11-.17.04-.39-2-3.5.11-1.26-.79-1.75-1.5-2.5-4.26-6.48-15.62-23.09-17-25.5-.07-.13.07-.37,0-.5,3.68-1.93,3.49-8.39-.5-10,10.66-8.72,5.2-8.27,5-10-.03-.24-.3-.5-.5-1.5-.04-.2,1.02-1.92.5-4-.56-2.22-1.71-1.72-3-3,1.97-3.82-1.52-5.84-5.75-5-1.36.27-11.44,8.89-24,8,4.27-.24,23.57-6.35,23.25-11.25-.43-6.5-13.48,1.3-16.5,1.75-3.79-3.14-20.36-27.75-22-28.5-.03-.31.59-.96.75-1,2.45-.54,17.05-.41,22.75-1.5.07.33.59,1.26.75,3,1.08-.02,2.17.03,3.25,0-.03.31.59.96.75,1,4.2.93,35.23-2.93,43.5-3,.32-.19,1.65-.99,1.75-1,1.29-.17,6.1-1.82,8-2.5,4.03,1.51,18.1-2.07,20.25-1.5q15.62,23,31.25,46Z"/>
            <path class="cls-44" d="M80.78,275.93c.22.25,2.93,1.4,5,4.5,1.03,1.55,1.83,2.4,1.5,4.5-1.9.68-6.71,2.33-8,2.5-1.6-2.49-2.19-1.94-4.75-2-8.53-.2-37.92,4.92-41.25,5-1.08.03-2.17-.02-3.25,0-.16-1.74-.68-2.67-.75-3-.14-.7-.07-2.6,0-3.5.11-1.55-.48-3.15.75-4q7.12-1.12,14.25-2.25c-1.17-3.85-11.65-25.86-11-27.5.26-.65,2.43-1.76,4-.5,1.29,1.04,13.98,24.65,17.25,28.25l13-1q.25-3.25.5-6.5c4.15,7.25,4.07,6.59,12.75,5.5Z"/>
            <path class="cls-27" d="M5.78,289.93c1.64.75,18.21,25.36,22,28.5-1.08.16-2.18.2-3.25.5-3.58-4.04-6.86-8.31-10.25-12.5-4.31-5.33-8.85-11.2-12.5-17,2.07,1.95.75-.98,4,.5Z"/>
            <path class="cls-5" d="M29.28,283.93c-.07.9-.14,2.8,0,3.5-5.7,1.09-20.3.96-22.75,1.5-.16.04-.78.69-.75,1-3.25-1.48-1.93,1.45-4-.5-.08-.13-1.17-.48-2-2.25,9.57-1.89,19.73-1.76,29.5-3.25Z"/>
            <path class="cls-34" d="M176.77,388.43c-3.41.66-38.34,3.07-46.25,3.5-13.72.75-27.54.51-41.25,1.5v-.5c23.16-2.78,60.76-1.38,86.5-5.5.05.05.92.24,1,1Z"/>
            <path class="cls-26" d="M144.27,321.43c1.93,2.51,4.46,4.35,6.5,6.75-4.02.27-8,.85-12,1.25q-15.62-23-31.25-46c-2.14-.57-16.22,3.01-20.25,1.5.33-2.1-.47-2.95-1.5-4.5.64-1.6,4.28-1.24,6-1.5,1.17-.18,2.33-.33,3.5-.5,7.57-1.09,15.09-2.57,22.75-3,6.58,11.71,19.12,36.73,26.25,46Z"/>
            <path class="cls-9" d="M140.27,364.93c8.59,2.41,12.27,1.9,20.5-1.5.44,1.29,1.34,2.35,2,3.5.91,1.59.93,2.38,1,2.5l-8.25,3c-7.9-2.04-15.82,2.24-26-6-7.32-5.93-7.97-13.95-9.25-22.5,2.73,2.32,6.32,2.45,6.5,2.75,1.08,1.8-3.79,13.4,13.5,18.25Z"/>
            <path class="cls-6" d="M79.28,287.43c-.1.01-1.43.81-1.75,1-8.26.07-39.3,3.93-43.5,3-.16-.04-.78-.69-.75-1,3.33-.08,32.72-5.2,41.25-5,2.56.06,3.15-.49,4.75,2Z"/>
            <path class="cls-42" d="M66.28,379.43c-6.89-7.33-12.27-16.99-17.5-25.5h.5c1.38,2.41,12.74,19.02,17,25.5Z"/>
            <path class="cls-42" d="M67.78,381.93c-1.09-1.66-1.42-2.38-1.5-2.5.71.75,1.61,1.24,1.5,2.5Z"/>
          </g>
          <g>
            <path class="cls-33" d="M181.77,337.93c.53.28,2.38-.03,2.5,0,1.47.35,2.91,1.19,4.5,1,.27,1.41.49.94.5,1,1.19,10.16-2.94,10.15-11.5,7,1.15-1.83,1.77-8.97,4-9Z"/>
            <g>
              <path class="cls-10" d="M233.77,374.43c-1,2.82-1.69,5.8-4,8q-2.25-.5-4.5-1c-1.21-.97-2.22-1.99-3.5-3-9.91-7.81-26.88-15.06-37.5-23.5.5-.44,2.28-2.95,2.75-3,15.12,8.47,30.78,15.78,46.75,22.5Z"/>
              <path class="cls-32" d="M202.27,341.43c9.91,1.32,16.26,2.91,25.75,5.5.53.14,2.11-2.39,9.75,3.5.04.13-.01.33,0,.5.28,3.92-2.74-.17-3.5,1.25-.21.39,2.26,2.14,2.5,8.25.2,5.05-1.37,9.38-3,14-15.97-6.72-31.63-14.03-46.75-22.5-.47.05-2.25,2.56-2.75,3-2.15,1.86-1.79,4.05-5.5,1.75.28-4.33-1.4-3.55-1.5-3.75-.59-1.17-.8-2.72-2-3.5.34-.31,2.41-2.35,2.5-2.5,8.56,3.15,12.69,3.16,11.5-7,4.32.57,8.68.92,13,1.5Z"/>
              <path class="cls-43" d="M238.27,353.43c-.49,3.23-.18,6.74-1.5,7-.24-6.11-2.71-7.86-2.5-8.25.76-1.42,3.78,2.67,3.5-1.25h.5v2.5Z"/>
            </g>
            <g>
              <path class="cls-32" d="M181.77,337.93c-2.23.03-2.85,7.17-4,9-.09.15-2.16,2.19-2.5,2.5-6.1,5.52-27.48,14.95-35.5,12.5-1.98-.6-3.11-2.17-4.5-3.5,18.99,3.66,8.71.64,6.5-6.25-4.34-13.54,3.99-12.61-6.5-14.75-5.58-1.14-11.5-.48-16.5-3.5,1.12-4.9,15.39-4.04,20-4.5,4-.4,7.98-.98,12-1.25-2.04-2.4-4.57-4.24-6.5-6.75,25.12-3.65,35.58,15.5,37.5,16.5Z"/>
              <path class="cls-1" d="M135.27,337.43c10.49,2.14,2.16,1.2,6.5,14.75,2.21,6.89,12.49,9.91-6.5,6.25-3.11-2.97-10.62-13.76-3-13.75-4.44-1.93-9.22-2.43-13-5.75,0-.17,0-.33,0-.5,1.32-2.47,12.76,2.1,16-1Z"/>
              <path class="cls-10" d="M135.27,358.43c1.39,1.33,2.52,2.9,4.5,3.5l.5,3c-17.29-4.85-12.42-16.45-13.5-18.25-.18-.3-3.77-.43-6.5-2.75-.26-1.76-.89-3.01-1-5,3.78,3.32,8.56,3.82,13,5.75-7.62-.01-.11,10.78,3,13.75Z"/>
              <path class="cls-10" d="M135.27,337.43c-3.24,3.1-14.68-1.47-16,1-.07-1.41-.86-2.91-.5-4.5,5,3.02,10.91,2.36,16.5,3.5Z"/>
              <path class="cls-1" d="M175.27,349.43c1.2.78,1.41,2.33,2,3.5-2.03,1.42-7,5.4-8,6-.78.47-8.06,4.32-8.5,4.5-8.23,3.4-11.91,3.91-20.5,1.5l-.5-3c8.02,2.45,29.4-6.98,35.5-12.5Z"/>
            </g>
          </g>
          <g>
            <path class="cls-26" d="M173.77,364.93q6.25,9.75,12.5,19.5c-.5.11-6.03,3.33-9.5,4-.08-.76-.95-.95-1-1-.81-.83-10.68-15.8-12-18-.07-.12-.09-.91-1-2.5,2.7-1.02,6.17-1.82,9-2,.66-.04,1.34.01,2,0Z"/>
            <path class="cls-25" d="M169.27,358.93c1.5,2.32,4.67,5.01,2.5,6-2.83.18-6.3.98-9,2-.66-1.15-1.56-2.21-2-3.5.44-.18,7.72-4.03,8.5-4.5Z"/>
          </g>
          <g>
            <path class="cls-36" d="M184.27,354.93c10.62,8.44,27.59,15.69,37.5,23.5,5.55,10.5,8.77,21.66,12,33-18.8,8.66-39.21,13.17-59.75,15-5.11.46-24.9,1.51-29.25,1.5-.5,0-1,0-1.5,0-12.66-.13-35.59-2.26-47.75-6q2.37,7.62,4.75,15.25-11.25,7.12-22.5,14.25c2.7-19.56,6.64-38.86,11.5-58,13.71-.99,27.53-.75,41.25-1.5,7.91-.43,42.84-2.84,46.25-3.5,3.47-.67,9-3.89,9.5-4,6.54-1.44,13.92.41,20.5-.75q-9.37-8.87-18.75-17.75c-4.79-.19-9.43-1.1-14.25-1-.66.01-1.34-.04-2,0,2.17-.99-1-3.68-2.5-6,1-.6,5.97-4.58,8-6,.1.2,1.78-.58,1.5,3.75,3.71,2.3,3.35.11,5.5-1.75Z"/>
            <path class="cls-36" d="M275.77,379.93c-4.66,15.46-24.61,18.75-37.75,12.5-5.17-2.46-8.54-7.6-12.75-11q2.25.5,4.5,1c1.22,1.73,3.6-4.38,4.25-4.5.3-.06,4.18,3.18,5,3.5,8.91,3.51,30.42,7.62,36.75-1.5Z"/>
            <path class="cls-36" d="M150.27,231.44c-.68,2.07-1.7,3.96-2.5,6-1.83-.3-1.9.96-2,1-.53.21.22-1.48-3,1.75-3.25,3.26-20.49,27.48-22.25,27.75-.29.04-5.13-2.48-5.25-2.75-1.4-3.12-.03-30.67-2.75-32.25-.73-.42-3.62.87-3.25-1,2.03-.15,3.94.87,6,.5-.58,8.83-.24,18.16,6.75,24.5.41,0,3.62-3.92,4.25-4.5,6.77-6.24,12.8-13.26,19.5-19.5.93-.87,2.32-1.39,3-2.5.19.17,1.22.84,1.5,1Z"/>
            <path class="cls-40" d="M243.77,457.43c-4.32,2.47-9.83,4.78-14.5,6.5-14.1,5.2-30.06,8.63-45,10-17.25,1.58-34.8.8-52-1-17.37-1.82-40.75-5.15-55.5-15,.91-2.05.7-4.36,1-6.5q11.25-7.12,22.5-14.25-2.37-7.62-4.75-15.25c12.16,3.74,35.09,5.87,47.75,6-8.18,5.75,8.4,7.23,1.5,0,4.35.01,24.14-1.04,29.25-1.5,20.54-1.83,40.95-6.34,59.75-15,4.3,15.12,7.83,30.39,10,46Z"/>
            <path class="cls-36" d="M224.27,331.43q-.5-1.37-1-2.75c-.97,4.59-4.14,9.76-7.5,13l8.5.5c.07-3.25-.1-6.51,0-9.75l22,6.25c-33.57,2.88-10.1,6.47-8.5,11.75-7.64-5.89-9.22-3.36-9.75-3.5-9.49-2.59-15.84-4.18-25.75-5.5,30.5-10.39,15.92-37.16,18.25-37.5,3.18,8.93,3.93,18.14,3.75,27.5Z"/>
            <path class="cls-36" d="M140.77,254.43c.06.91-.04,1.84,0,2.75.18.49,1.14.92,1.5,1.25-4.75,6.42,6.79,10.22,2.75,9.5-.51-.09-1.95-1.38-2.5-2,2.35,8.5,7.18,9.34,14.75,5.5,4.99-2.53-2.85,6.03-6.25,6.5-7.5,1.03-10.54-8.74-11.25-14.75-.29-2.47-.34-9.47,1-8.75Z"/>
            <path class="cls-39" d="M224.27,331.43c0,.33.01.67,0,1-.1,3.24.07,6.5,0,9.75l-8.5-.5c3.36-3.24,6.53-8.41,7.5-13q.5,1.37,1,2.75Z"/>
            <g>
              <path class="cls-40" d="M109.28,231.94c-.37,1.87,2.52.58,3.25,1,2.72,1.58,1.35,29.13,2.75,32.25.12.27,4.96,2.79,5.25,2.75,1.76-.26,19-24.49,22.25-27.75,3.22-3.23,2.47-1.54,3-1.75-2.84,5.1-5.4,10.09-5,16-1.34-.72-1.29,6.28-1,8.75.71,6.01,3.75,15.78,11.25,14.75,3.4-.47,11.24-9.03,6.25-6.5-.67-5.24-3.73-1.6-4-2.75,6.48-3.55,8.77-9.74,8-16.75,6.3,4.01,11.87,18.11,21.25,17.5,6.66-.43,19.96-16.95,21.75-23.5,2.94-3.85,5.44-8.11,7.5-12.5,8.93,2.83,20.94-.3,32,12.75,11.73,13.84,12.51,33.75,17,50.5,4.06,15.14,15.03,50.02,16.5,62.75-1.33,5.92-.54-1.46-3-5.25-1.85-2.85-11.8-11.4-16-11.5,14.61,8.66,19.57,20.42,17.5,37.25-6.33,9.12-27.83,5.01-36.75,1.5-.82-.32-4.7-3.56-5-3.5-.65.12-3.02,6.23-4.25,4.5,2.31-2.2,3-5.18,4-8,1.63-4.62,3.2-8.95,3-14,1.32-.26,1.01-3.77,1.5-7,.02-.12,1.39-1.3,0-2.5h-.5c-.01-.17.04-.37,0-.5-1.6-5.28-25.07-8.87,8.5-11.75l-22-6.25c.01-.33,0-.67,0-1,.18-9.36-.57-18.57-3.75-27.5-2.33.34,12.25,27.11-18.25,37.5-4.32-.57-8.68-.93-13-1.5,0-.06-.23.41-.5-1-1.7-8.75-4.9-12.02-4.5-1-.12-.03-1.97.28-2.5,0-1.92-1-12.38-20.15-37.5-16.5-7.13-9.27-19.67-34.29-26.25-46-7.66.43-15.18,1.91-22.75,3q-.37-9.25-.75-18.5-1.37,9.5-2.75,19c-1.72.26-5.36-.1-6,1.5-2.07-3.1-4.78-4.25-5-4.5-1.73-1.97-7.7-8.7-8-10.75-.85-5.78,8.07-22.36,18.25-28.25,7.06-4.08,10.76-4.43,18.25-5Z"/>
              <g>
                <path class="cls-32" d="M188.77,338.93c-1.59.19-3.03-.65-4.5-1-.4-11.02,2.8-7.75,4.5,1Z"/>
                <g>
                  <path class="cls-36" d="M95.28,278.43c-1.17.17-2.32.32-3.5.5q1.37-9.5,2.75-19,.37,9.25.75,18.5Z"/>
                  <path class="cls-32" d="M240.02,357.93c2.5-.04,1.42,10.25-1.5,9-1.77-.76-.68-8.97,1.5-9Z"/>
                  <path class="cls-19" d="M151.02,284.93c2.63-.31,3.1,4.32,1,5-3.13,1.02-3.92-4.65-1-5Z"/>
                  <g>
                    <path class="cls-22" d="M277.27,359.43c.62,5.36,1.58,16.07-1.5,20.5,2.07-16.83-2.89-28.59-17.5-37.25,4.19.1,14.15,8.65,16,11.5,2.46,3.79,1.67,11.17,3,5.25Z"/>
                    <path class="cls-22" d="M234.02,340.93c7.16.98,13.01,1.04,19.75,3.75-5.65-.58-18.52-1.09-19.75-3.75Z"/>
                    <path class="cls-36" d="M238.27,353.43v-2.5c1.39,1.2.02,2.38,0,2.5Z"/>
                  </g>
                </g>
              </g>
            </g>
            <path class="cls-40" d="M186.27,384.43q-6.25-9.75-12.5-19.5c4.82-.1,9.46.81,14.25,1q9.37,8.87,18.75,17.75c-6.58,1.16-13.96-.69-20.5.75Z"/>
            <g>
              <path class="cls-28" d="M193.77,214.44c2.5,7.39,9.61,16.34,18,19-2.06,4.39-4.56,8.65-7.5,12.5-3.73,4.89-16.44,18.28-22.75,17.5-5.61-.69-23.98-26.03-26.75-32.5,10.69-3.61,21.74-10.07,29-18.75-.28-2.07-.61-4.2-1-6.25,5.71.57,7.95,6.6,11,8.5Z"/>
              <path class="cls-36" d="M154.77,230.94c2.77,6.47,21.14,31.81,26.75,32.5,6.31.78,19.02-12.61,22.75-17.5-1.79,6.55-15.09,23.07-21.75,23.5-9.38.61-14.95-13.49-21.25-17.5-.27-2.45-.78-3.36-1.5-5.5-.43-1.28-.98-2.29-1.5-3.5-1.09-2.53-2.39-3.79-2.5-4-1.19-2.2-2.49-4.5-3-7,.11-.03-.48-.16,2-1Z"/>
              <g>
                <path class="cls-25" d="M138.77,214.94c-1.42-.22-1.75,4.51-2.5,7-2.73,9.06-10.13,26.79-10.5,28.25-.16.62-.16,2.32.5,2.25-.63.58-3.84,4.5-4.25,4.5-6.99-6.34-7.33-15.67-6.75-24.5,6.55-3.95,11.23-9.94,15.5-16,2.87-4.07,4.54-9.14,8.5-12.5-.31,3.11-.95,8.1-.5,11Z"/>
                <path class="cls-28" d="M145.77,232.94c-6.7,6.24-12.73,13.26-19.5,19.5-.66.07-.66-1.63-.5-2.25.37-1.46,7.77-19.18,10.5-28.25q4.75,5.5,9.5,11Z"/>
                <path class="cls-11" d="M138.77,214.94c.63,4.03,3.64,6.92,6,10,.61.79,3.74,5.28,4,5.5-.68,1.11-2.07,1.63-3,2.5q-4.75-5.5-9.5-11c.75-2.49,1.08-7.22,2.5-7Z"/>
              </g>
            </g>
          </g>
          <path class="cls-2" d="M152.77,231.94c.51,2.5,1.81,4.8,3,7,.38,1.95-3.11.52-5.5,1-4.79.96-5.67,5.61-2.5-2.5.8-2.04,1.82-3.93,2.5-6,2.14,1.23,1.76.67,2.5.5Z"/>
          <g>
            <path class="cls-23" d="M161.27,251.93c.77,7.01-1.52,13.2-8,16.75.27,1.15,3.33-2.49,4,2.75-7.57,3.84-12.4,3-14.75-5.5.55.62,1.99,1.91,2.5,2,4.04.72-7.5-3.08-2.75-9.5,1.1.99,9.96,4.57,10.75,4,.98-.71-.66-3.37-.25-4.75.3-1.02,3.05-1.61,4-3,1.53-2.24.81-6.54,3-8.25.72,2.14,1.23,3.05,1.5,5.5Z"/>
            <path class="cls-23" d="M147.77,237.44c-3.17,8.11-2.29,3.46,2.5,2.5-5.47,4.24-3.9,6.84-3.25,13,5.58-11.84,6.28,4.99,7.25-7.25l4-2.75c.52,1.21,1.07,2.22,1.5,3.5-2.19,1.71-1.47,6.01-3,8.25-.95,1.39-3.7,1.98-4,3-.41,1.37,1.23,4.04.25,4.75-.79.57-9.65-3.01-10.75-4-.36-.33-1.32-.76-1.5-1.25-.04-.91.06-1.84,0-2.75-.4-5.91,2.16-10.9,5-16,.1-.04.17-1.3,2-1Z"/>
            <path class="cls-28" d="M158.27,242.94l-4,2.75c-.97,12.24-1.67-4.59-7.25,7.25-.65-6.16-2.22-8.75,3.25-13,2.39-.48,5.88.95,5.5-1,.11.21,1.41,1.47,2.5,4Z"/>
          </g>
          <g>
            <path class="cls-7" d="M180.77,200.44c-9.09,11.59-21.81,20.53-36,24.5-2.36-3.08-5.37-5.97-6-10-.45-2.9.19-7.89.5-11,.07-.73.15-.89.5-1.5,12.44,2.19,27.65-5.12,38.5-11,1.21,2.88,1.66,6.03,2.5,9Z"/>
            <path class="cls-32" d="M182.77,205.94c.39,2.05.72,4.18,1,6.25-7.26,8.67-18.31,15.14-29,18.75-2.48.84-1.89.97-2,1-.74.17-.36.73-2.5-.5-.28-.16-1.31-.83-1.5-1-.26-.22-3.39-4.71-4-5.5,14.19-3.97,26.91-12.91,36-24.5.67,2.38,1.94,5.17,2,5.5Z"/>
          </g>
        </g>
      </g>
      <path class="cls-16" d="M193.8,115.76l5,23s2.54,3.61,4,3c4.09-1.7,7-9,7-17,0-6-4-14-4-14l-12,5Z"/>
      <g>
        <g id="Background-2" data-name="Background" class="cls-45">
          <path class="cls-12" d="M133.85,476.45c-76.66-.03-153.33.02-229.99,0V-35.54h511.99v511.99c-62.83.03-125.66-.04-188.49,0l2-12c4.67-1.72,10.18-4.03,14.5-6.5,3.45-1.97,7.1-3.76,8.5-7.75-.58-6.9-2.36-13.56-4-20.25,78.66-56.22,100.3-140.93,35-218.49.44-.15,3.73.06,8.75-3,11.31-6.89,14.02-20.62,8.75-32.25,19.68-4.09,26.74-27.04,11.5-40.5,1.3-4.6-.06-9.71-3.5-13,18.09-14.94,14.27-39.84-6.5-49.5,3.45-16.49-13-29.19-28.5-28,3.97-21.09-13.43-38.56-33.75-28.25C223.12-1.07,194.31-9.58,171.6,2.46c-20.79-21.07-68.84-13.98-83,12-16.54-13.31-43.42,1.66-37.75,22.75q-5.87,5.12-11.75,10.25c-15.38,1.62-25.36,19.24-18.25,33.25-16.51,8.39-18.6,31.46-2,41-18.55,4.77-26.83,31.52-8,41.5-3.31,17.4,13.59,21.59,14,23-2.88,8.02-1.6,15.43,4,21.75-35.08,28.1-51.49,75.22-45,119.25,7.26,49.22,46.06,86.19,86.5,111.25-.66,4.4-1.83,8.73-1.5,13.25,2.47,2.94,4.86,4.65,8,6.75,14.74,9.85,38.13,13.18,55.5,15q.75,1.5,1.5,3Z"/>
        </g>
        <g>
          <g>
            <path class="cls-44" d="M228.85,116.46c-3.15-1.77-1.69,4.85-11,5.5-.09-7.58-1.39-10.46-7-15.75l.75-.75c2.25.72,15.41,6.36,16,7,.94,1.03.84,2.4,1.25,4Z"/>
            <path class="cls-44" d="M228.85,116.46c.47,1.85.18,4.88,1,5.5-1.15.27-8.92,7.99-12.5,7.5.46-2.25.53-5.19.5-7.5,9.31-.65,7.85-7.27,11-5.5Z"/>
          </g>
          <g>
            <path class="cls-44" d="M76.35,48.96c-1.63,2.04-3.57,3.78-5,6,.19-1.43.69-2.78.5-4.25-1.51-.55-10.12-7.22-10.5-7.75-.27-.39-2.03-8.46-2-9.25.15-4.05,2.97-8.24,6-10.75-6.17,13.7,9.55,19.62,10.5,22.25.54,1.49-1.15,3.47.5,3.75Z"/>
            <path class="cls-44" d="M290.85,63.46c4.3,7.14,2.89,10.53,0,18.25,4.74,1.13,5.42.43,10,2.75l-.25,1c-1-2.02-.65,1.72-6-1.5-1.24,5.64-7.36-2.51-4.75,5.25-6.69,3.07-2.27-16.99,2-18,.3-.86-5.64-11.37-1-7.75Z"/>
            <path class="cls-14" d="M41.35,159.96c-.28.1-1.57,1.84-5.25,3-.58-.14-4.63-10.41-4.75-11-1.71-8.39,2.69-11.1,3.5-12.5l14-9.25q-.5-4.62-1-9.25c.11-2.85-8.42-7.18-14-11-2.2-4.63-1.1-10.32,2-14.5,8.85-3.96,19.92-1.71,20-8.25,0-.53-2.22-6.02-2.5-10.25-.76-11.25,14.72-13.37,16-14.75.53-.57,1.82-5.9,2-7.25,1.43-2.22,3.37-3.96,5-6,2.29-2.88,3.73-.42,2-9.25,16.16-17.95,15.22-11.2,37.75-8.25,3.36-.78,3.34-15.27,10.5-16.5,10.02-1.72,12.59,10.8,8.5,14-3.85,3.01-3.35-2.71-7-8-3.96,23.69-18.53,15.83-36.5,13.5-8.86,6.09-4.68,10.64-5.75,13.75-.29.84-8,7.42-8.5,8.5-3.14,6.73,5.44,5.47-17.5,17.5-2.47,6.25,9.47,17.04-7.25,24.25-4.78,2.06-17.43,2.26-14,6.5,2.78,3.44,16,6.31,16.75,18.25,1.5,23.8-28.24,10.73-14,36.75Z"/>
            <path class="cls-14" d="M293.35,156.46c-.15-.14-.32-.33-.5-.5-.33-19.2-12.79-13.07-20.25-18-4.82-3.19-8.2-20.29,14.75-19.25,5.83,8.32-14.62,6.65-12.5,11,.5,1.03,15.81,6.36,18,9,3.14,3.8,3.12,14.57.5,17.75Z"/>
            <path class="cls-47" d="M34.85,139.46c-.81,1.4-5.21,4.11-3.5,12.5-6.04-2.19-15.67-2.79-14.5-11.25,1.89-13.63,16.47-1.23,18-1.25Z"/>
            <path class="cls-47" d="M47.85,120.96q.5,4.62,1,9.25l-14,9.25c.56-.97,2.28-2.16,2.5-2.75,2.09-5.65-4.57-9.8-4-15.5l14.5-.25Z"/>
            <g>
              <path class="cls-44" d="M80.35,116.46q-.62,5-1.25,10c-3.24-2.09-6.93-1.68-8.75-5.5l10-4.5Z"/>
              <path class="cls-37" d="M91.85,112.46c-1.43,3.7-2.82,5.67-3,10-3.54,2.02-1.21-8.87,3.5-12.25l-.5,2.25Z"/>
            </g>
            <g>
              <path class="cls-47" d="M303.85,140.71c1.56-17.51-7.84-17.59-8.5-18.5-3.13-4.35,5.77-3.93,10.5-9.5,7.13-8.4,5.01-23.18-5-28.25l-.25,1c-1-2.02-.65,1.72-6-1.5-1.24,5.64-7.36-2.51-4.75,5.25-6.69,3.07-2.27-16.99,2-18,.3-.86-5.64-11.37-1-7.75-4.02-6.67-11.27-9.78-18.75-6.5-2.88-.57.99-6.14-10.25-12.25,8.77-16.21-11.85-29.39-22.25-14.25-18.44-20.74-44.24-29.93-70-16-17.52-19.85-50.64-17.47-68.75.25-1.76,1.72.06,4.18-13.25,9.75-2.07.09-10.4-11.31-22.25-1.5-6.17,13.7,9.55,19.62,10.5,22.25.54,1.49-1.15,3.47.5,3.75,2.29-2.88,3.73-.42,2-9.25,16.16-17.95,15.22-11.2,37.75-8.25,3.36-.78,3.34-15.27,10.5-16.5,10.02-1.72,12.59,10.8,8.5,14-3.85,3.01-3.35-2.71-7-8-3.96,23.69-18.53,15.83-36.5,13.5-8.86,6.09-4.68,10.64-5.75,13.75-.29.84-8,7.42-8.5,8.5-3.14,6.73,5.44,5.47-17.5,17.5-2.47,6.25,9.47,17.04-7.25,24.25-4.78,2.06-17.43,2.26-14,6.5,2.78,3.44,16,6.31,16.75,18.25,1.5,23.8-28.24,10.73-14,36.75-.28.1-1.57,1.84-5.25,3-.58-.14-4.63-10.41-4.75-11-6.04-2.19-15.67-2.79-14.5-11.25,1.89-13.63,16.47-1.23,18-1.25.56-.97,2.28-2.16,2.5-2.75,2.09-5.65-4.57-9.8-4-15.5l14.5-.25c.11-2.85-8.42-7.18-14-11-2.2-4.63-1.1-10.32,2-14.5,8.85-3.96,19.92-1.71,20-8.25,0-.53-2.22-6.02-2.5-10.25-.79.05-1.56.08-2.3.1.74-.02,1.5-.05,2.3-.1-.76-11.25,14.72-13.37,16-14.75.53-.57,1.82-5.9,2-7.25.19-1.43.69-2.78.5-4.25-1.51-.55-10.12-7.22-10.5-7.75-1.24.21-2.42.91-3.5,1.5-.6.93-1.11,1.85-1.54,2.74.43-.89.94-1.8,1.54-2.74-8.04,4.38-5.41,3.64-9.25,11.5-19.21-1.57-26.38,17.1-12.75,30.25-2.69.87-5.35,1.16-8,2.25-2.08.86-3.34,1.44-5,3-9.5,8.94-5.06,21.52,6,26.25.67,1.87-4.07,4.57,0,14-18.91-2.17-25.65,19.21-8,27.5-3.77,9.25,2.97,21.41,13.25,17.75,8.31,8.13-2.07,8.21-.25,19.75,1.42,9.01,14.15,14.74,21.75,9.25,10.74,4.47,5.55,5.18,9.25,10.25,4.73,6.48,16.42,5.88,21.75.25,1.45.33.7,14.11,20,11.5,4.65-8.22,6.22-2.49,13.5-6,5.43-2.62,5.36-9.86,10.75-5,2.87-4.07,4.54-9.14,8.5-12.5.07-.73.15-.89.5-1.5-7.7-1.35-26.87-15.73-33.05-21.2-10.43-9.22-16.58-17.43-16.45-31.55.16-.65-.36-8.41-1.5-10.75-.41-.85-.31-9.43,0-17-3.54,2.02-1.21-8.87,3.5-12.25q-.25,1.12-.5,2.25c.16-.41,1.41-3.33,1.5-3.5,1.38-2.59,2.52-7,6.5-5.75q-1-1.37-2-2.75c1.05-9.45,7.93-32.25,17.5-36.5,5.63-2.5,11.02,1.17,17.75-8.5,22.91,12.92,31.77-2.35,33.5-3,6.9-2.59,8.84,5.28,9.25,5.75,7.93,8.99,16.12,5.63,23,18,2.7,4.86,3.57,11.29,6.5,16,1.24,1.99-.84,16.62.45,19.55,4.55,10.33,4,21,1.05,25.7,6.68-10.66,1.74,3.66,8-2,.56-1.27,2.36-5.32,2.5-6,.46-2.25.53-5.19.5-7.5-.09-7.58-1.39-10.46-7-15.75l.75-.75c2.25.72,15.41,6.36,16,7,.94,1.03.84,2.4,1.25,4,.47,1.85.18,4.88,1,5.5,11.74-2.81,17.12,18.97,3.25,30.5-10.76,8.95-16.49-2.44-23.25,7.75-.35.52-.95,4.71-5.5,11.25-6.2,8.9-16.64,15.42-26,20.5,1.21,2.88,1.66,6.03,2.5,9,.67,2.38,1.94,5.17,2,5.5,5.71.57,7.95,6.6,11,8.5.57.35,3.59.9,4.75,1,7.02,13.81,25.6,10.64,30-4,9.65,10.18,24.39,12.18,28.5-4,7.34.07,12.54.78,17.5-5.5,18.36,1.98,25.31-16.44,12.25-28.75q3.12-4.12,6.25-8.25c6.18,1.54,11.99.11,15.25-5.5,4.13-7.12,2.13-14.55-4.5-19.25ZM55.23,49.78c-.3.83-.54,1.63-.74,2.39.2-.76.44-1.56.74-2.39ZM38.6,58.96c.56-.22,1.13-.37,1.71-.46.58-.09,1.16-.12,1.74-.11-.59-.01-1.17.02-1.74.11-.58.09-1.14.24-1.71.46-.4.16-.79.38-1.17.64.38-.26.77-.48,1.17-.64ZM33.88,65.4c.11-.54.26-1.07.45-1.57-.19.51-.34,1.03-.45,1.57-.16.81-.21,1.64-.15,2.48-.07-.84-.01-1.67.15-2.48ZM293.35,156.46c-.15-.14-.32-.33-.5-.5-.33-19.2-12.79-13.07-20.25-18-4.82-3.19-8.2-20.29,14.75-19.25,5.83,8.32-14.62,6.65-12.5,11,.5,1.03,15.81,6.36,18,9,3.14,3.8,3.12,14.57.5,17.75Z"/>
              <g>
                <path class="cls-14" d="M182.6,16.46c12.59-1.18,21.73,20.41,45.5,12.5,11.55,15.33,21.28,10.62,16.25,29.25,2.59,1.28,12.46,9.97,13.25,10.25,5.52,1.97,21.76-2.94,16.75,17.25,4.73,1.63,21.44,8.22,23.5,12,2.37,4.36.74,13.01-4.25,14.75-11.6,4.05-.85-9.6-1.25-11.25-12.49-11.45-29.9-.84-23-24.5l-13.25-1.25c-8.41-11.05-13.23-8.1-16.25-11.75-8.01-9.69,12.51-22.62-19.75-18.25l-2.5-8.5c-12.27.4-22.98-6.63-32.5-13.5-4.24-.3-17.15,8.1-14.25-.75.62-1.89,9.58-6.05,11.75-6.25Z"/>
                <path class="cls-46" d="M229.6,34.96c3.09-.23-2.57,2.16-3.5,2.5-12.02,4.38-3.48-1.99,3.5-2.5Z"/>
              </g>
            </g>
          </g>
          <g>
            <g>
              <g>
                <path class="cls-7" d="M180.85,200.96c-9.09,11.59-21.81,20.53-36,24.5-2.36-3.08-5.37-5.97-6-10-.45-2.9.19-7.89.5-11,.07-.73.15-.89.5-1.5,12.44,2.19,27.65-5.12,38.5-11,1.21,2.88,1.66,6.03,2.5,9Z"/>
                <path class="cls-32" d="M182.85,206.46c.39,2.05.72,4.18,1,6.25-7.26,8.67-18.31,15.14-29,18.75-2.48.84-1.89.97-2,1-.74.17-.36.73-2.5-.5-.28-.16-1.31-.83-1.5-1-.26-.22-3.39-4.71-4-5.5,14.19-3.97,26.91-12.91,36-24.5.67,2.38,1.94,5.17,2,5.5Z"/>
              </g>
              <path class="cls-32" d="M206.85,162.46c-6.38,16.78-48.99,37.36-61.25,37-15.57-.46-46.55-25.9-50.25-42.25,5.46,1.13,11.16,1.2,16.5-.25.62.86,3.05,3.04,6.5,8.5,6.96,11.01,11.15,22.41,27,20.5,12.69-1.53,15.68-10.12,19.5-14.5,3.24-3.72,6.8-7.26,10-11,3.56.88,7.61,1.46,11.25,1,2.15-.27,11.8-4.06,10.75-6,2.32-1.12,8.28-5.63,10-7.5,1.97,4.54,1.79,9.8,0,14.5Z"/>
              <path class="cls-2" d="M196.85,155.46c1.05,1.94-8.6,5.73-10.75,6-3.64.46-7.69-.12-11.25-1,.45-.52.6-1.41,1-2,6.79,1.39,14.77,0,21-3Z"/>
              <g>
                <path class="cls-32" d="M204.35,171.46c-1.7-1.63,4.69-6.08,2.5-9,1.79-4.7,1.97-9.96,0-14.5,1.7-1.85,5.87-9.75,6.95-12.2.56-1.27,3.41-5.62,3.55-6.3,3.57.49,11.35-7.23,12.5-7.5,11.74-2.81,17.12,18.97,3.25,30.5-10.76,8.95-16.49-2.44-23.25,7.75-.35.52-.95,4.71-5.5,11.25Z"/>
                <path class="cls-10" d="M231.85,140.96c1.89,7.03-4.85,7.85-7.25,6.5-2.45-1.38-3.65-10.33-2.25-13.5,4.22,1.75,8.63,10.67,9.5,7Z"/>
                <path class="cls-35" d="M231.85,140.96c-.87,3.67-5.28-5.25-9.5-7,2-4.53,16.88-7.53,14.25,4.5-1.36-9.79-9.49-5.73-9.75-4.75-.2.77,4.14,4.06,5,7.25Z"/>
              </g>
              <path class="cls-16" d="M173.85,158.96c-1.75.41-3.29,2.02-5.5,2.5-19.03,4.12-34.89,5.34-52.5-4.5-.97-.54-2.02-.97-3-1.5,14.47-3.04,25.1-19.17,24.75-33.5,21.23-1.93,7.52,3.43,18.25,22.75,4.41,7.95,10.07,10.74,18,14.25Z"/>
              <g>
                <path class="cls-48" d="M112.85,155.46c.98.53,2.03.96,3,1.5,2.32,3.62,7.36,6.67,11,10,.18.17.97,2.64,2.5,4.25.69.69,1.68,1.18,2.5,1.75-3.91,1.89-9.8-5.6-13.5-7.5-3.45-5.46-5.88-7.64-6.5-8.5-.05-.06.07-.75-.5-1.5.48-.07,1.04.1,1.5,0Z"/>
                <path class="cls-48" d="M175.85,158.46c-.4.59-.55,1.48-1,2-3.2,3.73-6.76,7.28-10,11-1.5.22-6.06,1.16-7,1.5,2.26-2.56,4.66-5.01,7-7.5,1.17-1.25,2.7-2.51,3.5-4,2.21-.48,3.75-2.09,5.5-2.5l2-.5Z"/>
                <path class="cls-38" d="M164.85,171.46c-3.82,4.38-6.81,12.97-19.5,14.5-9.5-.47-18.33-11.18-13-12.5,11.85,7.12,20.2,1.39,25.5-.5.94-.34,5.5-1.28,7-1.5Z"/>
                <path class="cls-18" d="M131.85,172.96c.57.39.47.48.5.5-5.33,1.32,3.5,12.03,13,12.5-15.85,1.91-20.04-9.49-27-20.5,3.7,1.9,9.59,9.39,13.5,7.5Z"/>
                <path class="cls-18" d="M168.35,161.46c-.8,1.49-2.33,2.75-3.5,4-12.26,4.39-25.52,5.59-38,1.5-3.64-3.33-8.68-6.38-11-10,17.6,9.84,33.47,8.62,52.5,4.5Z"/>
                <path class="cls-26" d="M164.85,165.46c-2.34,2.49-4.74,4.94-7,7.5-5.29,1.89-13.65,7.62-25.5.5-.03-.02.07-.11-.5-.5-.82-.57-1.81-1.06-2.5-1.75-1.53-1.61-2.32-4.08-2.5-4.25,12.48,4.09,25.74,2.89,38-1.5Z"/>
              </g>
            </g>
            <g>
              <g>
                <path class="cls-26" d="M189.85,133.96c1.78-1.9,1.04-1.5,1.5-3.5.1-.44-.05-1.02,0-1.5.02-.15,1.31-.41,0-3,3.03.64,6.98,4.52,7,6.5.08,7.3-19.65,8.35-28.25,1-4.29-3.67-.81-2.34.75-3.5,3.27-2.45,5.48-8.74,15.25-7,5.27.94-3.64-.08-5.75,3.75-4.02,7.3,4.26,12.85,9.5,7.25Z"/>
                <path class="cls-21" d="M191.35,125.96c1.31,2.59.02,2.85,0,3l-1.5,1.5c-6.57,1.4-4.99-5.86,1.5-4.5Z"/>
                <path class="cls-30" d="M191.35,130.46c-.46,2,.28,1.6-1.5,3.5-3.01-1.72-.06-1.54.5-3.5h1Z"/>
                <path class="cls-24" d="M191.35,130.46h-1c-.16.03-.34-.03-.5,0l1.5-1.5c-.05.48.1,1.06,0,1.5Z"/>
              </g>
              <g>
                <path class="cls-47" d="M102.8,101.76c-6.84,8.65-8.22,31.13-8,30,.5.75-4.59,20.71-5,20-4-7-10-22-2-38,1.94-3.88,9.39-11.67,15-12Z"/>
                <path class="cls-16" d="M206.85,137.46c4.81-10.97-8.25-5-8.5-5,.08,7.3-19.65,8.35-28.25,1-4.29-3.67-.81-2.34.75-3.5-.63-4.55,3.23-8.13,6.95-10.2,1.81-1.01,6-1,9-1s7,3,9.55,5.7c.8,1.04,13.98-18.89,14.25-19,.23-.1,1.83-3.98,1.75-4.75-.19-1.78-5.76-6.51-7-8.5-2.93-4.71-3.8-11.14-6.5-16-6.88-12.37-15.07-9.01-23-18-.41-.47-2.35-8.34-9.25-5.75-1.73.65-10.58,15.92-33.5,3-6.73,9.67-12.12,6-17.75,8.5-8.55,10.8-21.62,44.46-21.44,44.21-1.02,4-3.06,9-3.11,13.59-.51,3.74-.56,13.02-1,14-4,9-1,19,0,21,.15.29,14.7-.32,21.55-1.3.48-.07,1.04.1,1.5,0,14.47-3.04,25.1-19.17,24.75-33.5,21.23-1.93,7.52,3.43,18.25,22.75,4.41,7.95,10.07,10.74,18,14.25l2-.5c6.79,1.39,14.77,0,21-3,2.32-1.12,8.28-5.63,10-7.5,1.7-1.85,6.92-10.05,8-12.5-6.26,5.66-1.16-8.56-8,2ZM129.35,126.46c-1.92-.4-.55,3.12-1,3.75-.89,1.25-3.31-1.57-4,1.25.04.57.1,1.65,0,2,4.98,1.11-3.99,12.02-5.75,12-1.44-.01-2.67-5.02-7-4.5-2.04.24-10.5-1.63-15.36-9.04.46-2.76.98-7.64,1.11-7.96.13-.31-.18-1.56.5-2.75,4.28-7.49,20.77-9.08,28.5-8.75,2.09,4,3.16,9.45,3,14ZM177.48,92.44c-1.21-.01-2.39.05-3.52.16,1.13-.11,2.31-.17,3.52-.16ZM167.6,94.15c-.52.25-.97.52-1.33.81.36-.29.81-.56,1.33-.81Z"/>
                <path class="cls-26" d="M114.35,123.46c-16.66,4,1.12,19.78,5,7.5.62-1.97.58-3.5.5-5.5.54,0,3.37,2.88,4,4.5.1.25.49,1.42.5,1.5.02.26.04.62.05.96.01.43,0,.84-.05,1.04-1.72,5.93-18.55,5.3-25.5,3-2.43-.8-2.76-3.46-2.5-5.5.86-6.82,16.1-10.5,18-7.5Z"/>
                <path class="cls-32" d="M126.35,112.46c-7.73-.33-24.21,1.26-28.5,8.75-.68,1.19-.37,2.44-.5,2.75,6.84-9.85,27.74-7.32,26.5,6,.09.24.86,1.69.04,4.46-3.26,4.82-19.2,3.6-25.04,2.04-.38-.1-2.67-1.13-1.5.5,3.45,4.8,11.69,7.11,14.45,7.8,4,1,5.44,1.15,6.8.7,8.2-2.7,10.2-14.7,10.75-19,.46-3.55-.91-10-3-14Z"/>
                <path class="cls-17" d="M119.35,130.96c-2.21,2.69-4.89,1.38-3.5-2,2.04-.45,2.86-3.5,4-3.5.08,2,.12,3.53-.5,5.5Z"/>
              </g>
            </g>
          </g>
        </g>
      </g>
      <path class="cls-44" d="M93.8,137.76"/>
      <path class="cls-1" d="M90.8,146.76c4.97,5.18,13.69,9.68,20.55,8.7.57.75.45,1.44.5,1.5-5.34,1.45-11.04,1.38-16.5.25,3.7,16.35,34.67,41.78,50.25,42.25,12.26.37,54.87-20.22,61.25-37,2.19,2.92-4.2,7.37-2.5,9-6.2,8.9-16.64,15.42-26,20.5-10.85,5.88-26.06,13.19-38.5,11-7.7-1.35-28.07-14.02-34.25-19.5-9.8-8.7-17.93-23.58-17.8-37.7,0,0,2.89,1.04,3,1Z"/>
      <path class="cls-1" d="M102.85,97.46c-1.72.9-7.55,10.06-9.05,11.3,1.05-9.45,11-42,21.55-44.8,13.32-3.53-4.46,4.46-10.5,24.25-.88,2.89-.94,6.33-2,9.25Z"/>
      <g>
        <path class="cls-32" d="M141.85,155.96c-4.14-.18-7.77-2.85-10.5-5.5-1.92-10.29,3.36-.91,5.75.5,6.19,3.67,18.03-.26,4.75,5Z"/>
        <path class="cls-35" d="M131.35,150.46c2.73,2.65,6.36,5.32,10.5,5.5,3.74.16,14.46-5.68,8.75-1-10.76,8.83-26.91-6.88-21-7,.47,0,.4,1.19,1.75,2.5Z"/>
      </g>
      <path class="cls-32" d="M175.85,105.46c2.95-.27.79.68-3.05,2.3-6.05,2.55-10,7-6.95,20.45.12.52-.37.37-.75.75q-4.62-1.5-9.25-3c-.37-15.93,5.95-19.2,20-20.5Z"/>
      <path class="cls-1" d="M229.8,150.76l1,2c1,2-3,3-3,3-1.16.37-2,1-3,0l1-5c1-2,3.66-.46,4,0Z"/>
      <path class="cls-32" d="M212.8,100.76c-.19-3.9-4.12-3.84-7-8-2.42-3.5-3.86-11.54-4-12-3-10-12-14-12-14,0,0,14,17,9,40-.57-.15-4.14-2.17-4.95-2.3-5.49.66-1.06,1.68,1.5,6.25,3.39,6.05,5.2,13.36,3.5,20.25-.07.3,0,1.83-.05,1.8.03.02-.99,2.19-2,3-5,4-14.93,2.85-18,2-1.96-.54-5-2-5-2,0,0,3,9,20,9,6.84,0,14.37-12.87,15-16,.9-4.5,0-10-3-16-.12-.25,7.09-10.07,7-12Z"/>
      <g>
        <path d="M92.75,110.19c0,.28.52-.08,1.04-.43,6-4,9-6,11-7,4-2,6.64-2.09,7-2.14,3.73-1.21,17.62,3.61,12.75-3.75-4.46-6.74-17.09-1.59-22.5,1.25-1.72.9-9.25,7.64-9.3,12.07Z"/>
        <path d="M193.05,105.11c.57.59.75-2.36.25-4-4.07-10.9-27.41-8.99-28.75-4.25-1.99,7.07,10.41,1.2,21.5,4,2.75.89,3.75.89,7,4.25Z"/>
      </g>
      <g>
        <path class="cls-17" d="M230.8,158.76c0-2,0-5-1-6s-1.79-2.03-3-1c-.85.72-1.85,4.6-2,7-.05.8.36,3.41,1.05,3.95,1.97,1.52,3.28,1.28,3.96.21,1.99-3.16.99-2.77.99-4.16Z"/>
        <path class="cls-30" d="M231.35,157.96c-.22-2.79-.45-4.83-1.55-5.2-3-1-1,3-4,5-1.18.78-.56,3.32,0,4,3.39,4.13,5.76-1.04,5.55-3.8Z"/>
      </g>
      <path class="cls-1" d="M199.28,121.71c.05.3-.38.64-.53.38-3.95-7.33-17.16-9.14-22.26-6.7-3.07,1.47,7.49-8.19,17.31-3.63,4.89,2.27,5.17,7.94,5.48,9.95Z"/>
      <path class="cls-13" d="M205.58,125.51c-4.38,1.26-7.2.83-8.78-.75-.41-.41-.76-.75-1.09-1.06-6.91-9.94-25.91-4.94-24.86,6.26,3.27-2.45,5.48-8.74,15.25-7,5.27.94-3.64-.08-5.75,3.75-4.02,7.3,4.26,12.85,9.5,7.25-3.01-1.72-.06-1.54.5-3.5-.16.03-.34-.03-.5,0-6.57,1.4-4.99-5.86,1.5-4.5,3.03.64,6.98,4.52,7,6.5.45,1.3-.65,2.39-.55,2.3,1-1,2-3,1.04-3.71,2.34-.06,6.74-5.53,6.74-5.53Z"/>
      <path class="cls-1" d="M96.8,122.76s4.34-5.57,8-7c5.61-2.2,19-4,22-3s-11.67-4.57-21.18-1.02c-1.3.49-3.52,1.72-4.82,3.02-4,4-4,8-4,8Z"/>
      <path class="cls-13" d="M98,123.11v-.02c-3.18,2.76-7.38.42-7.38.42,0,0,1.44,3.61,4.67,4.29.14.03.3.09.47.15.03,1.81.08,2.26.58,3.01.86-6.82,16.1-10.5,18-7.5.12.11.21.21.27.29.2.25.17.39-.01.48.18-.09.21-.23.01-.48-.07-.08-.15-.18-.27-.29-16.66,4,1.12,19.78,5,7.5-2.21,2.69-4.89,1.38-3.5-2-.88-.28-1.53-.49-2.08-.67.55.18,1.2.39,2.08.67,2.04-.45,2.86-3.5,4-3.5.54,0,3.37,2.88,4,4.5,1.2-12.92-18.43-15.69-25.85-6.85Z"/>
      <g>
        <path class="cls-29" d="M130.8,124.76c0,15.74-15.3,27-28,27s-19-10.26-19-26,9.3-22,22-22,25,5.26,25,21Z"/>
        <path class="cls-29" d="M209.8,125.95c0,22.81-17.9,29.81-32.77,29.81s-22.23-11.33-22.23-28.71c0-20.29,10.88-24.29,25.74-24.29,19.26,0,29.26,5.81,29.26,23.19Z"/>
        <g>
          <path d="M214.8,134.76c5.75-9.59-3.81-18.84-5-22-3-8-6.78-10.04-10-11-2-.6-6-1-13-1-6,0-29-3-34.5,13.71-7.21-3.06-12.58-2.59-20-1-1.5-2.71-5.52-11.66-20.5-12.71-1.93-.13-9.16-.71-16,1-8,2-7.86,2.86-10,5-2.22,2.22-4.6,9.78-5,18-.35,7.04,2,17,3,19,.63,1.26,3,6,5.75,7.46,13.25,7.54,15.01,4.96,21.25,4.54,15-1,26.35-18.47,26-32.79,21.23-1.93,7.52,3.43,18.25,22.75,2.56,4.62,9.75,11.04,16.75,13.04,4.9,1.4,14.82,1.78,23-2,13-6,17-17,20-22ZM128.55,127.47c-.26,7.54-3.33,13.47-8.14,17.34-6.18,4.97-15.23,6.52-24.86,3.66-5.75-1.71-7.78-6.29-8.75-8.71-4-10,0-24,1-27,1.92-5.77,10.39-7.67,16-8,8.61-.51,17.34.25,21.75,8.71,2.09,4,3.16,9.45,3,14ZM161.55,145.72c-3.52-4.73-5.36-13.94-5.5-19.75-.37-15.93,5.18-19.09,20-20.5,5.57-.53,11.46-.87,17,0,.81.13,2.43.35,3,.5,2.12.56,4.25,1.34,5.79,2.84.47.46,4.36,5.98,5.96,16.95.49,3.39,0,8-1.72,12.65-.01.02-.02.03-.04.05-8.92,20.35-36.11,18.5-44.5,7.25Z"/>
          <path class="cls-41" d="M229.35,111.49c-.59-.64-13.73-6.35-16-7-2.56-.74-8.18-.11-8.56.26,4.7,4.42,2.9,14.9,7,19,.64.64,3.66-1.18,5.75-2.25l.25.25h2v-.78c9.09-.73,11.88-2.98,15-1.22-.41-1.6-4.5-7.23-5.44-8.26Z"/>
          <g>
            <path class="cls-4" d="M82.11,115.49l-10,4.5c-.53-1.11-2.64-9.66-1.25-10.5,22.79-3.44,17.71-10.26,11.25,6Z"/>
            <path d="M82.11,115.49q-.62,5-1.25,10c-3.24-2.09-6.93-1.68-8.75-5.5l10-4.5Z"/>
          </g>
          <path d="M230.8,121.76c-.82-.62,4.47-1.15,4-3-2.95-1.66-6.05.78-13.57,2.04-9.53.83-12.43-2.04-12.43-2.04l1,3c-.01.55.5,2.45,1,4.38l-2.08.7,2.08,6.92c5.43-5.43,8.4-3.49,15-9,2.38-1.82,4.45-2.87,5-3Z"/>
        </g>
      </g>
      <path class="cls-3" d="M159.54,463.54l-1.54,3.08"/>
      <path class="cls-20" d="M130.29,434.3"/>
      <path class="cls-20" d="M130.29,464.79c-.13,0-.26,0-.38,0"/>
      <path class="cls-20" d="M131.06,432.38"/>
    </g>
  </g>
</svg>