<?xml version="1.0" encoding="UTF-8"?>
<svg xmlns="http://www.w3.org/2000/svg" version="1.1" viewBox="0 0 310 491">
  <defs>
    <style>
      .st0 {
        fill: none;
      }

      .st1 {
        fill: #1e131b;
      }

      .st2 {
        fill: #bfe4e7;
      }

      .st3 {
        fill: #8e3327;
      }

      .st4 {
        fill: #c05e58;
      }

      .st5 {
        fill: #181919;
      }

      .st6 {
        fill: #232323;
      }

      .st7 {
        fill: #66256a;
      }

      .st8 {
        fill: #facf38;
      }

      .st9 {
        fill: #8e3226;
      }

      .st10 {
        fill: #c25f41;
      }

      .st11 {
        fill: #a34737;
      }

      .st12 {
        fill: #ff9100;
      }

      .st13 {
        fill: #ec9927;
      }

      .st14 {
        fill: #944397;
      }

      .st15 {
        fill: #e57a4d;
      }

      .st16 {
        fill: #c35f41;
      }

      .st17 {
        fill: #4af40b;
      }

      .st18 {
        fill: #9e9e9f;
      }

      .st19 {
        fill: #141114;
      }

      .st20 {
        isolation: isolate;
      }

      .st21 {
        fill: #65256a;
      }

      .st22 {
        fill: #fff;
      }

      .st23 {
        fill: #b56724;
      }

      .st24 {
        fill: #c085b9;
      }

      .st25 {
        fill: #fbbb29;
      }

      .st26 {
        fill: #8bd2d9;
      }

      .st27 {
        fill: #0d1313;
        opacity: 1;
      }

      .st28 {
        fill: #fffce3;
        mix-blend-mode: luminosity;
        opacity: .4;
      }

      .st29 {
        fill: #e6794d;
      }

      .st30 {
        fill: #4b131e;
      }

      .st31 {
        fill: #c12e4c;
      }

      .st32 {
        fill: #24130c;
      }

      .st33 {
        opacity: .8;
      }

      .st34 {
        fill: #14ad9b;
      }

      .st35 {
        fill: #2e653d;
      }

      .st36 {
        fill: #e6f4f7;
      }

      .st37 {
        fill: #d43a5c;
      }

      .st38 {
        fill: #a06b9c;
      }

      .st39 {
        fill: #dbb4d4;
      }

      .st40 {
        fill: #a46cac;
      }

      .st41 {
        fill: #fafbfd;
      }

      .st42 {
        fill: #e67a4d;
      }

      .st43 {
        fill: #271a26;
      }

      .st44 {
        fill: #353535;
      }

      .st45 {
        fill: #f9e5a9;
      }

      .st46 {
        display: none;
      }

      .st47 {
        fill: #4f180e;
      }

      .st48 {
        fill: #8d3428;
      }

      .st49 {
        fill: #ef925d;
      }
    </style>
  </defs>
  <g class="st20">
    <g id="Layer_1">
      <g>
        <g>
          <g>
            <path class="st42" d="M221.5,225.3s-3.1,5.7-6.5,11c3.5-4.7,5.2-8.6,6.5-11Z"/>
            <path class="st42" d="M226.9,226.6l-5.4-1.3c1.7.6,3.5,1,5.4,1.3Z"/>
            <path class="st42" d="M215,236.3c-2,2.6-4.5,5.5-7.8,8.5,1.1,1.3,4.5-3.4,7.8-8.5Z"/>
            <path class="st42" d="M273.9,281.6c-4.9-11.5-13-27.4-20.4-37.9-1-1.9-2.2-3.8-3.6-5.6-7.4-9.5-15.9-10.2-23-11.5h0s-14.5,32-4,41c9.1,7.8,41.7,63.9,41.7,63.9,0,0,25.4-12,23.8-16.6s-9-20.5-14.5-33.4Z"/>
          </g>
          <g>
            <path class="st49" d="M202.2,121.2l4.5,20.6s2.3,3.2,3.6,2.7c3.7-1.5,6.3-8.1,6.3-15.2s-3.6-12.5-3.6-12.5l-10.7,4.5Z"/>
            <g>
              <g>
                <path class="st19" d="M233.5,121.9c-2.8-1.6-1.5,4.3-9.8,4.9,0-6.8-1.2-9.4-6.3-14.1l.7-.7c2,.6,13.8,5.7,14.3,6.3.8.9.8,2.1,1.1,3.6Z"/>
                <path class="st19" d="M233.5,121.9c.4,1.7.2,4.4.9,4.9-1,.2-8,7.1-11.2,6.7.4-2,.5-4.6.4-6.7,8.3-.6,7-6.5,9.8-4.9Z"/>
              </g>
              <g>
                <path class="st19" d="M97.1,61.5c-1.5,1.8-3.2,3.4-4.5,5.4.2-1.3.6-2.5.4-3.8-1.4-.5-9.1-6.5-9.4-6.9-.2-.3-1.8-7.6-1.8-8.3.1-3.6,2.7-7.4,5.4-9.6-5.5,12.3,8.5,17.5,9.4,19.9.5,1.3-1,3.1.4,3.4Z"/>
                <path class="st19" d="M289,74.4c3.8,6.4,2.6,9.4,0,16.3,4.2,1,4.9.4,8.9,2.5l-.2.9c-.9-1.8-.6,1.5-5.4-1.3-1.1,5-6.6-2.2-4.2,4.7-6,2.7-2-15.2,1.8-16.1.3-.8-5-10.2-.9-6.9Z"/>
                <path class="st43" d="M291.2,157.6c-.1-.1-.3-.3-.4-.4-.3-17.2-11.4-11.7-18.1-16.1-4.3-2.8-7.3-18.2,13.2-17.2,5.2,7.4-13.1,5.9-11.2,9.8.4.9,14.1,5.7,16.1,8.1,2.8,3.4,2.8,13,.4,15.9Z"/>
                <path class="st1" d="M60,142.4c-.7,1.2-4.7,3.7-3.1,11.2-5.4-2-14-2.5-13-10.1,1.7-12.2,14.7-1.1,16.1-1.1Z"/>
                <path class="st1" d="M71.6,125.9q.4,4.1.9,8.3-6.3,4.1-12.5,8.3c.5-.9,2-1.9,2.2-2.5,1.9-5.1-4.1-8.8-3.6-13.9q6.5-.1,13-.2Z"/>
                <g>
                  <path class="st19" d="M100.7,121.9q-.6,4.5-1.1,8.9c-2.9-1.9-6.2-1.5-7.8-4.9q4.5-2,8.9-4Z"/>
                  <path class="st34" d="M111,118.3c-1.3,3.3-2.5,5.1-2.7,8.9-3.2,1.8-1.1-7.9,3.1-11l-.4,2Z"/>
                </g>
                <g>
                  <path class="st1" d="M300.6,143.5c1.4-15.7-7-15.7-7.6-16.5-2.8-3.9,5.2-3.5,9.4-8.5,6.4-7.5,4.5-20.7-4.5-25.3l-.2.9c-.9-1.8-.6,1.5-5.4-1.3-1.1,5-6.6-2.2-4.2,4.7-6,2.7-2-15.2,1.8-16.1.3-.8-5-10.2-.9-6.9-3.6-6-10.1-8.7-16.8-5.8-2.6-.5.9-5.5-9.2-11,7.8-14.5-10.6-26.3-19.9-12.7-24,.6-124.1-10.3-136-5.4-1.8,0-9.3-10.1-19.9-1.3-5.5,12.3,8.5,17.5,9.4,19.9.5,1.3-1,3.1.4,3.4,2.1-2.6,3.3-.4,1.8-8.3,14.5-16.1,13.6-10,33.8-7.4,3-.7,3-13.7,9.4-14.8,9-1.5,11.3,9.7,7.6,12.5-3.4,2.7-3-2.4-6.3-7.2-3.5,21.2-16.6,14.2-32.6,12.1-7.9,5.4-4.2,9.5-5.1,12.3-.3.8-7.2,6.6-7.6,7.6-2.8,6,4.9,4.9-15.7,15.7-2.2,5.6,8.5,15.2-6.5,21.7-4.3,1.8-15.6,2-12.5,5.8,2.5,3.1,14.3,5.6,15,16.3,1.3,21.3-25.3,9.6-12.5,32.9-.3,0-1.4,1.6-4.7,2.7-.5-.1-4.1-9.3-4.2-9.8-5.4-2-14-2.5-13-10.1,1.7-12.2,14.7-1.1,16.1-1.1.5-.9,2-1.9,2.2-2.5,1.9-5.1-4.1-8.8-3.6-13.9l13-.2c0-2.6-7.5-6.4-12.5-9.8-2-4.1-1-9.2,1.8-13,7.9-3.5,17.8-1.5,17.9-7.4,0-.5-2-5.4-2.2-9.2-.7,0-1.4,0-2.1,0,.7,0,1.3,0,2.1,0-.7-10.1,13.2-12,14.3-13.2.5-.5,1.6-5.3,1.8-6.5.2-1.3.6-2.5.4-3.8-1.4-.5-9.1-6.5-9.4-6.9-1.1.2-2.2.8-3.1,1.3-.5.8-1,1.7-1.4,2.4.4-.8.8-1.6,1.4-2.4-7.2,3.9-4.8,3.3-8.3,10.3-17.2-1.4-23.6,15.3-11.4,27.1-2.4.8-4.8,1-7.2,2-1.9.8-3,1.3-4.5,2.7-8.5,8-4.5,19.2,5.4,23.5.6,1.7-3.6,4.1,0,12.5-16.9-1.9-22.9,17.2-7.2,24.6-3.4,8.3,2.7,19.2,11.9,15.9,7.4,7.3-1.9,7.3-.2,17.7,1.3,8.1,12.7,13.2,19.5,8.3,9.6,4,5,4.6,8.3,9.2,4.2,5.8,14.7,5.3,19.5.2,1.3.3.6,12.6,17.9,10.3,4.2-7.3,5.6-2.2,12.1-5.4,4.9-2.3,4.8-8.8,9.6-4.5,2.6-3.6,4.1-8.2,7.6-11.2,0-.7.1-.8.4-1.3-6.9-1.2-24-14.1-29.6-19-9.3-8.2-14.8-15.6-14.7-28.2.1-.6-.3-7.5-1.3-9.6-.4-.8-.3-8.4,0-15.2-3.2,1.8-1.1-7.9,3.1-11q-.2,1-.4,2c.1-.4,1.3-3,1.3-3.1,1.2-2.3,2.3-6.3,5.8-5.1q-.9-1.2-1.8-2.5c.9-8.4,7.1-28.8,15.7-32.6,5-2.2,9.9,1,15.9-7.6,20.5,11.6,28.4-2.1,30-2.7,6.2-2.3,7.9,4.7,8.3,5.1,7.1,8,14.4,5,20.6,16.1,2.4,4.3,3.2,10.1,5.8,14.3,1.1,1.8-.8,14.9.4,17.5,4.1,9.2,3.6,18.8.9,23,6-9.5,1.6,3.3,7.2-1.8.5-1.1,2.1-4.8,2.2-5.4.4-2,.5-4.6.4-6.7,0-6.8-1.2-9.4-6.3-14.1l.7-.7c2,.6,13.8,5.7,14.3,6.3.8.9.8,2.1,1.1,3.6.4,1.7.2,4.4.9,4.9,10.5-2.5,15.3,17,2.9,27.3-9.6,8-14.8-2.2-20.8,6.9-.3.5-.8,4.2-4.9,10.1-5.5,8-14.9,13.8-23.3,18.3,1.1,2.6,1.5,5.4,2.2,8.1.6,2.1,1.7,4.6,1.8,4.9,5.1.5,7.1,5.9,9.8,7.6.5.3,3.2.8,4.2.9,6.3,12.3,22.9,9.5,26.8-3.6,8.6,9.1,21.8,10.9,25.5-3.6,6.6,0,11.2.7,15.7-4.9,16.4,1.8,22.6-14.7,11-25.7q2.8-3.7,5.6-7.4c5.5,1.4,10.7.1,13.6-4.9,3.7-6.4,1.9-13-4-17.2ZM78.2,62.2c-.3.7-.5,1.5-.7,2.1.2-.7.4-1.4.7-2.1ZM63.4,70.4c.5-.2,1-.3,1.5-.4.5,0,1-.1,1.6,0-.5,0-1,0-1.6,0-.5,0-1,.2-1.5.4-.4.1-.7.3-1,.6.3-.2.7-.4,1-.6ZM59.2,76.2c0-.5.2-1,.4-1.4-.2.5-.3.9-.4,1.4-.1.7-.2,1.5-.1,2.2,0-.7,0-1.5.1-2.2ZM291.2,157.6c-.1-.1-.3-.3-.4-.4-.3-17.2-11.4-11.7-18.1-16.1-4.3-2.8-7.3-18.2,13.2-17.2,5.2,7.4-13.1,5.9-11.2,9.8.4.9,14.1,5.7,16.1,8.1,2.8,3.4,2.8,13,.4,15.9Z"/>
                  <path class="st43" d="M192.2,32.4c11.3-1.1,19.4,18.3,40.7,11.2,10.3,13.7,19,9.5,14.5,26.2,2.3,1.1,11.1,8.9,11.9,9.2,4.9,1.8,19.5-2.6,15,15.4,4.2,1.5,19.2,7.3,21,10.7,2.1,3.9.7,11.6-3.8,13.2-10.4,3.6-.8-8.6-1.1-10.1-11.2-10.2-26.7-.7-20.6-21.9q-5.9-.6-11.9-1.1c-7.5-9.9-11.8-7.2-14.5-10.5-7.2-8.7,11.2-20.2-17.7-16.3l-2.2-7.6c-11,.4-20.6-5.9-29.1-12.1-3.8-.3-15.3,7.2-12.7-.7.6-1.7,8.6-5.4,10.5-5.6Z"/>
                </g>
                <path class="st43" d="M65.8,160.8c-.3,0-1.4,1.6-4.7,2.7-.5-.1-4.1-9.3-4.2-9.8-1.5-7.5,2.4-9.9,3.1-11.2q6.3-4.1,12.5-8.3-.4-4.1-.9-8.3c0-2.6-7.5-6.4-12.5-9.8-2-4.1-1-9.2,1.8-13,7.9-3.5,17.8-1.5,17.9-7.4,0-.5-2-5.4-2.2-9.2-.7-10.1,13.2-12,14.3-13.2.5-.5,1.6-5.3,1.8-6.5,1.3-2,3-3.5,4.5-5.4,2.1-2.6,3.3-.4,1.8-8.3,14.5-16.1,13.6-10,33.8-7.4,3-.7,3-13.7,9.4-14.8,9-1.5,11.3,9.7,7.6,12.5-3.4,2.7-3-2.4-6.3-7.2-3.5,21.2-16.6,14.2-32.6,12.1-7.9,5.4-4.2,9.5-5.1,12.3-.3.8-7.2,6.6-7.6,7.6-2.8,6,4.9,4.9-15.7,15.7-2.2,5.6,8.5,15.2-6.5,21.7-4.3,1.8-15.6,2-12.5,5.8,2.5,3.1,14.3,5.6,15,16.3,1.3,21.3-25.3,9.6-12.5,32.9Z"/>
              </g>
              <g>
                <g>
                  <g>
                    <path class="st3" d="M190.6,197.4c-8.1,10.4-19.5,18.4-32.2,21.9-2.1-2.8-4.8-5.3-5.4-8.9-.4-2.6.2-7.1.4-9.8,0-.7.1-.8.4-1.3,11.1,2,24.7-4.6,34.4-9.8,1.1,2.6,1.5,5.4,2.2,8.1Z"/>
                    <path class="st42" d="M192.4,202.4c.3,1.8.6,3.7.9,5.6-6.5,7.8-16.4,13.5-25.9,16.8-2.2.7-1.7.9-1.8.9-.7.2-.3.7-2.2-.4-.2-.1-1.2-.7-1.3-.9-.2-.2-3-4.2-3.6-4.9,12.7-3.6,24.1-11.5,32.2-21.9.6,2.1,1.7,4.6,1.8,4.9Z"/>
                  </g>
                  <path class="st42" d="M213.9,163c-5.7,15-43.8,33.4-54.8,33.1-13.9-.4-41.6-23.2-44.9-37.8,4.9,1,10,1.1,14.8-.2.6.8,2.7,2.7,5.8,7.6,6.2,9.8,10,20,24.2,18.3,11.3-1.4,14-9.1,17.4-13,2.9-3.3,6.1-6.5,8.9-9.8,3.2.8,6.8,1.3,10.1.9,1.9-.2,10.6-3.6,9.6-5.4,2.1-1,7.4-5,8.9-6.7,1.8,4.1,1.6,8.8,0,13Z"/>
                  <path class="st4" d="M204.9,156.7c.9,1.7-7.7,5.1-9.6,5.4-3.3.4-6.9-.1-10.1-.9.4-.5.5-1.3.9-1.8,6.1,1.2,13.2,0,18.8-2.7Z"/>
                  <g>
                    <path class="st42" d="M211.6,171c-1.5-1.5,4.2-5.4,2.2-8.1,1.6-4.2,1.8-8.9,0-13,1.5-1.7,5.2-8.7,6.2-10.9.5-1.1,3.1-5,3.2-5.6,3.2.4,10.2-6.5,11.2-6.7,10.5-2.5,15.3,17,2.9,27.3-9.6,8-14.8-2.2-20.8,6.9-.3.5-.8,4.2-4.9,10.1Z"/>
                    <path class="st11" d="M236.2,143.8c1.7,6.3-4.3,7-6.5,5.8-2.2-1.2-3.3-9.2-2-12.1,3.8,1.6,7.7,9.5,8.5,6.3Z"/>
                    <path class="st47" d="M236.2,143.8c-.8,3.3-4.7-4.7-8.5-6.3,1.8-4.1,15.1-6.7,12.7,4-1.2-8.8-8.5-5.1-8.7-4.2-.2.7,3.7,3.6,4.5,6.5Z"/>
                  </g>
                  <path class="st49" d="M184.4,159.9c-1.6.4-2.9,1.8-4.9,2.2-17,3.7-31.2,4.8-47-4-.9-.5-1.8-.9-2.7-1.3,12.9-2.7,22.5-17.2,22.1-30,19-1.7,6.7,3.1,16.3,20.3,3.9,7.1,9,9.6,16.1,12.7Z"/>
                  <g>
                    <path class="st30" d="M129.8,156.7c.9.5,1.8.9,2.7,1.3,2.1,3.2,6.6,6,9.8,8.9.2.1.9,2.4,2.2,3.8.6.6,1.5,1.1,2.2,1.6-3.5,1.7-8.8-5-12.1-6.7-3.1-4.9-5.3-6.8-5.8-7.6,0,0,0-.7-.4-1.3.4,0,.9,0,1.3,0Z"/>
                    <path class="st30" d="M186.1,159.4c-.4.5-.5,1.3-.9,1.8-2.9,3.3-6,6.5-8.9,9.8-1.3.2-5.4,1-6.3,1.3,2-2.3,4.2-4.5,6.3-6.7,1.1-1.1,2.4-2.2,3.1-3.6,2-.4,3.4-1.9,4.9-2.2l1.8-.4Z"/>
                    <path class="st37" d="M176.3,171c-3.4,3.9-6.1,11.6-17.4,13-8.5-.4-16.4-10-11.6-11.2,10.6,6.4,18.1,1.2,22.8-.4.8-.3,4.9-1.1,6.3-1.3Z"/>
                    <path class="st31" d="M146.8,172.4c.5.3.4.4.4.4-4.8,1.2,3.1,10.8,11.6,11.2-14.2,1.7-17.9-8.5-24.2-18.3,3.3,1.7,8.6,8.4,12.1,6.7Z"/>
                    <path class="st31" d="M179.4,162.1c-.7,1.3-2.1,2.5-3.1,3.6-11,3.9-22.8,5-34,1.3-3.3-3-7.8-5.7-9.8-8.9,15.7,8.8,29.9,7.7,47,4Z"/>
                    <path class="st41" d="M176.3,165.7c-2.1,2.2-4.2,4.4-6.3,6.7-4.7,1.7-12.2,6.8-22.8.4,0,0,0,0-.4-.4-.7-.5-1.6-1-2.2-1.6-1.4-1.4-2.1-3.7-2.2-3.8,11.2,3.7,23,2.6,34-1.3Z"/>
                  </g>
                </g>
                <g>
                  <g>
                    <path class="st41" d="M198.7,137.5c1.6-1.7.9-1.3,1.3-3.1,0-.4,0-.9,0-1.3,0-.1,1.2-.4,0-2.7,2.7.6,6.2,4,6.3,5.8,0,6.5-17.6,7.5-25.3.9-3.8-3.3-.7-2.1.7-3.1,2.9-2.2,4.9-7.8,13.6-6.3,4.7.8-3.3,0-5.1,3.4-3.6,6.5,3.8,11.5,8.5,6.5Z"/>
                    <path class="st36" d="M200,130.4c1.2,2.3,0,2.5,0,2.7l-1.3,1.3c-5.9,1.3-4.5-5.2,1.3-4Z"/>
                    <path class="st26" d="M200,134.4c-.4,1.8.3,1.4-1.3,3.1-2.7-1.5,0-1.4.4-3.1h.9Z"/>
                    <path class="st35" d="M200,134.4h-.9c-.1,0-.3,0-.4,0l1.3-1.3c0,.4,0,1,0,1.3Z"/>
                  </g>
                  <g>
                    <path class="st1" d="M120.8,108.7c-6.1,7.7-7.4,27.8-7.2,26.8.4.7-4.1,18.5-4.5,17.9-3.6-6.3-8.9-19.7-1.8-34,1.7-3.5,8.4-10.4,13.4-10.7Z"/>
                    <path class="st49" d="M213.9,140.6c4.3-9.8-7.4-4.5-7.6-4.5,0,6.5-17.6,7.5-25.3.9-3.8-3.3-.7-2.1.7-3.1-.6-4.1,2.9-7.3,6.2-9.1,1.6-.9,5.4-.9,8.1-.9s6.3,2.7,8.5,5.1c.7.9,12.5-16.9,12.7-17,.2,0,1.6-3.6,1.6-4.2-.2-1.6-5.2-5.8-6.3-7.6-2.6-4.2-3.4-10-5.8-14.3-6.2-11.1-13.5-8.1-20.6-16.1-.4-.4-2.1-7.5-8.3-5.1-1.5.6-9.5,14.2-30,2.7-6,8.6-10.8,5.4-15.9,7.6-7.7,9.7-19.3,39.8-19.2,39.5-.9,3.6-2.7,8.1-2.8,12.2-.5,3.3-.5,11.6-.9,12.5-3.6,8.1-.9,17,0,18.8.1.3,13.1-.3,19.3-1.2.4,0,.9,0,1.3,0,12.9-2.7,22.5-17.2,22.1-30,19-1.7,6.7,3.1,16.3,20.3,3.9,7.1,9,9.6,16.1,12.7l1.8-.4c6.1,1.2,13.2,0,18.8-2.7,2.1-1,7.4-5,8.9-6.7,1.5-1.7,6.2-9,7.2-11.2-5.6,5.1-1-7.7-7.2,1.8ZM144.5,130.8c-1.7-.4-.5,2.8-.9,3.4-.8,1.1-3-1.4-3.6,1.1,0,.5,0,1.5,0,1.8,4.5,1-3.6,10.7-5.1,10.7-1.3,0-2.4-4.5-6.3-4-1.8.2-9.4-1.5-13.7-8.1.4-2.5.9-6.8,1-7.1.1-.3-.2-1.4.4-2.5,3.8-6.7,18.6-8.1,25.5-7.8,1.9,3.6,2.8,8.5,2.7,12.5ZM187.6,100.4c-1.1,0-2.1,0-3.2.1,1-.1,2.1-.2,3.2-.1ZM178.8,101.9c-.5.2-.9.5-1.2.7.3-.3.7-.5,1.2-.7Z"/>
                    <path class="st41" d="M131.1,128.1c-14.9,3.6,1,17.7,4.5,6.7.6-1.8.5-3.1.4-4.9.5,0,3,2.6,3.6,4,0,.2.4,1.3.4,1.3,0,.2,0,.6,0,.9s0,.8,0,.9c-1.5,5.3-16.6,4.7-22.8,2.7-2.2-.7-2.5-3.1-2.2-4.9.8-6.1,14.4-9.4,16.1-6.7Z"/>
                    <path class="st42" d="M141.9,118.3c-6.9-.3-21.7,1.1-25.5,7.8-.6,1.1-.3,2.2-.4,2.5,6.1-8.8,24.8-6.5,23.7,5.4,0,.2.8,1.5,0,4-2.9,4.3-17.2,3.2-22.4,1.8-.3,0-2.4-1-1.3.4,3.1,4.3,10.5,6.4,12.9,7,3.6.9,4.9,1,6.1.6,7.3-2.4,9.1-13.1,9.6-17,.4-3.2-.8-8.9-2.7-12.5Z"/>
                    <path class="st2" d="M135.6,134.8c-2,2.4-4.4,1.2-3.1-1.8,1.8-.4,2.6-3.1,3.6-3.1,0,1.8.1,3.2-.4,4.9Z"/>
                  </g>
                </g>
              </g>
            </g>
            <g>
              <g>
                <path class="st2" d="M114.9,166.1c0-1.5,0-3.7-.7-4.5s-1.3-1.5-2.2-.7-1.4,3.4-1.5,5.2c0,.6.3,2.5.8,2.9,1.5,1.1,2.4,1,2.9.2,1.5-2.4.7-2.1.7-3.1Z"/>
                <path class="st26" d="M115.3,165.5c-.2-2.1-.3-3.6-1.2-3.9-2.2-.7-.7,2.2-3,3.7s-.4,2.5,0,3c2.5,3.1,4.3-.8,4.1-2.8Z"/>
              </g>
              <g>
                <path class="st2" d="M115.2,180c0-1.5,0-3.7-.7-4.5s-1.3-1.5-2.2-.7-1.4,3.4-1.5,5.2c0,.6.3,2.5.8,2.9,1.5,1.1,2.4,1,2.9.2,1.5-2.4.7-2.1.7-3.1Z"/>
                <path class="st26" d="M115.6,179.4c-.2-2.1-.3-3.6-1.2-3.9-2.2-.7-.7,2.2-3,3.7-.9.6-.4,2.5,0,3,2.5,3.1,4.3-.8,4.1-2.8Z"/>
              </g>
              <g>
                <rect class="st13" x="109.9" y="170.1" width="6.2" height="4.8" rx="2.4" ry="2.4" transform="translate(-8.4 5.8) rotate(-2.8)"/>
                <path class="st25" d="M111.5,170.5h2.9c.7,0,1.4.6,1.4,1.4h0c0,.7-.6,1.3-1.3,1.3h-3c-.7,0-1.3-.6-1.3-1.3h0c0-.8.6-1.4,1.4-1.4Z" transform="translate(-8.3 5.8) rotate(-2.8)"/>
                <rect class="st8" x="110.7" y="169" width="4.4" height="1.1" rx=".4" ry=".4" transform="translate(-8.2 5.8) rotate(-2.8)"/>
                <rect class="st8" x="110.9" y="174.9" width="4.4" height="1.1" rx=".4" ry=".4" transform="translate(-8.5 5.8) rotate(-2.8)"/>
              </g>
              <g>
                <path class="st2" d="M115.2,193.8c0-1.5.1-3.7-.6-4.5s-1.3-1.5-2.2-.8c-.7.5-1.5,3.4-1.6,5.2,0,.6.2,2.6.7,3,1.4,1.2,2.4,1,2.9.2,1.6-2.3.8-2,.8-3.1Z"/>
                <path class="st26" d="M115.6,193.2c0-2.1-.2-3.6-1-3.9-2.2-.8-.8,2.2-3.1,3.6s-.5,2.5,0,3c2.4,3.2,4.3-.6,4.2-2.7Z"/>
              </g>
              <g>
                <rect class="st13" x="110.1" y="183.8" width="6.2" height="4.8" rx="2.4" ry="2.4" transform="translate(-3.4 2.1) rotate(-1.1)"/>
                <path class="st25" d="M111.7,184.2h2.9c.7,0,1.4.6,1.4,1.4h0c0,.7-.6,1.3-1.3,1.3h-3c-.7,0-1.3-.6-1.3-1.3h0c0-.8.6-1.4,1.4-1.4Z" transform="translate(-3.4 2.1) rotate(-1.1)"/>
                <rect class="st8" x="111" y="182.7" width="4.4" height="1.1" rx=".4" ry=".4" transform="translate(-3.4 2.1) rotate(-1.1)"/>
                <rect class="st8" x="111.1" y="188.6" width="4.4" height="1.1" rx=".4" ry=".4" transform="translate(-3.5 2.1) rotate(-1.1)"/>
              </g>
            </g>
            <path class="st19" d="M112.7,140.9"/>
            <path class="st16" d="M110.1,149c4.4,4.6,12.2,8.7,18.4,7.8.5.7.4,1.3.4,1.3-4.8,1.3-9.9,1.2-14.8.2,3.3,14.6,31,37.4,44.9,37.8,11,.3,49.1-18.1,54.8-33.1,2,2.6-3.8,6.6-2.2,8.1-5.5,8-14.9,13.8-23.3,18.3-9.7,5.3-23.3,11.8-34.4,9.8-6.9-1.2-25.1-12.5-30.6-17.4-8.8-7.8-16-21.1-15.9-33.7,0,0,2.6.9,2.7.9Z"/>
            <path class="st16" d="M120.8,104.9c-1.5.8-6.7,9-8.1,10.1.9-8.4,9.8-37.6,19.3-40.1,11.9-3.2-4,4-9.4,21.7-.8,2.6-.8,5.7-1.8,8.3Z"/>
            <g>
              <path class="st42" d="M155.7,157.2c-3.7-.2-7-2.6-9.4-4.9-1.7-9.2,3-.8,5.1.4,5.5,3.3,16.1-.2,4.2,4.5Z"/>
              <path class="st47" d="M146.3,152.3c2.4,2.4,5.7,4.8,9.4,4.9,3.3.1,12.9-5.1,7.8-.9-9.6,7.9-24.1-6.2-18.8-6.3.4,0,.4,1.1,1.6,2.2Z"/>
            </g>
            <path class="st42" d="M186.1,112c2.6-.2.7.6-2.7,2.1-5.4,2.3-8.9,6.3-6.2,18.3.1.5-.3.3-.7.7q-4.1-1.3-8.3-2.7c-.3-14.2,5.3-17.2,17.9-18.3Z"/>
            <path class="st16" d="M234.4,152.5l.9,1.8c.9,1.8-2.7,2.7-2.7,2.7-1,.3-1.8.9-2.7,0l.9-4.5c.9-1.8,3.3-.4,3.6,0Z"/>
            <path class="st42" d="M219.2,107.8c-.2-3.5-3.7-3.4-6.3-7.2-2.2-3.1-3.5-10.3-3.6-10.7-2.7-8.9-10.7-12.5-10.7-12.5,0,0,12.5,15.2,8.1,35.8-.5-.1-3.7-1.9-4.4-2.1-4.9.6-1,1.5,1.3,5.6,3,5.4,4.7,11.9,3.1,18.1,0,.3,0,1.6,0,1.6,0,0-.9,2-1.8,2.7-4.5,3.6-13.4,2.5-16.1,1.8-1.8-.5-4.5-1.8-4.5-1.8,0,0,2.7,8.1,17.9,8.1s12.9-11.5,13.4-14.3c.8-4,0-8.9-2.7-14.3-.1-.2,6.3-9,6.3-10.7Z"/>
            <g>
              <path d="M111.8,116.2c0,.3.5,0,.9-.4,5.4-3.6,8.1-5.4,9.8-6.3,3.6-1.8,5.9-1.9,6.3-1.9,3.3-1.1,15.8,3.2,11.4-3.4-4-6-15.3-1.4-20.1,1.1-1.5.8-8.3,6.8-8.3,10.8Z"/>
              <path d="M201.5,111.7c.5.5.7-2.1.2-3.6-3.6-9.7-24.5-8-25.7-3.8-1.8,6.3,9.3,1.1,19.2,3.6,2.5.8,3.4.8,6.3,3.8Z"/>
            </g>
            <g>
              <path class="st2" d="M235.3,159.7c0-1.8,0-4.5-.9-5.4s-1.6-1.8-2.7-.9c-.8.6-1.7,4.1-1.8,6.3,0,.7.3,3.1.9,3.5,1.8,1.4,2.9,1.1,3.5.2,1.8-2.8.9-2.5.9-3.7Z"/>
              <path class="st26" d="M235.8,159c-.2-2.5-.4-4.3-1.4-4.7-2.7-.9-.9,2.7-3.6,4.5s-.5,3,0,3.6c3,3.7,5.2-.9,5-3.4Z"/>
            </g>
            <g>
              <path class="st2" d="M235.7,176.4c0-1.8,0-4.5-.9-5.4s-1.6-1.8-2.7-.9c-.8.6-1.7,4.1-1.8,6.3,0,.7.3,3.1.9,3.5,1.8,1.4,2.9,1.1,3.5.2,1.8-2.8.9-2.5.9-3.7Z"/>
              <path class="st26" d="M236.2,175.6c-.2-2.5-.4-4.3-1.4-4.7-2.7-.9-.9,2.7-3.6,4.5-1.1.7-.5,3,0,3.6,3,3.7,5.2-.9,5-3.4Z"/>
            </g>
            <path class="st16" d="M207.1,126.6c0,.3-.3.6-.5.3-3.5-6.6-15.3-8.2-19.9-6-2.7,1.3,6.7-7.3,15.5-3.2s4.6,7.1,4.9,8.9Z"/>
            <path class="st32" d="M212.7,130c-3.9,1.1-6.4.7-7.9-.7-.4-.4-.7-.7-1-.9-6.2-8.9-23.2-4.4-22.2,5.6,2.9-2.2,4.9-7.8,13.6-6.3,4.7.8-3.3,0-5.1,3.4-3.6,6.5,3.8,11.5,8.5,6.5-2.7-1.5,0-1.4.4-3.1-.1,0-.3,0-.4,0-5.9,1.3-4.5-5.2,1.3-4,2.7.6,6.2,4,6.3,5.8.4,1.2-.6,2.1-.5,2.1.9-.9,1.8-2.7.9-3.3,2.1,0,6-4.9,6-4.9Z"/>
            <path class="st16" d="M115.4,127.5s3.9-5,7.2-6.3c5-2,17-3.6,19.7-2.7s-10.4-4.1-18.9-.9c-1.2.4-3.2,1.5-4.3,2.7-3.6,3.6-3.6,7.2-3.6,7.2Z"/>
            <path class="st32" d="M116.5,127.8h0c-2.8,2.5-6.6.4-6.6.4,0,0,1.3,3.2,4.2,3.8.1,0,.3,0,.4.1,0,1.6,0,2,.5,2.7.8-6.1,14.4-9.4,16.1-6.7.1,0,.2.2.2.3.2.2.2.4,0,.4.2,0,.2-.2,0-.4,0,0-.1-.2-.2-.3-14.9,3.6,1,17.7,4.5,6.7-2,2.4-4.4,1.2-3.1-1.8-.8-.3-1.4-.4-1.9-.6.5.2,1.1.3,1.9.6,1.8-.4,2.6-3.1,3.6-3.1.5,0,3,2.6,3.6,4,1.1-11.6-16.5-14-23.1-6.1Z"/>
            <g>
              <path class="st27" d="M145.8,129.3c0,14.1-13.7,24.2-25,24.2s-17-9.2-17-23.3,8.3-19.7,19.7-19.7,22.4,4.7,22.4,18.8Z"/>
              <path class="st27" d="M216.5,130.3c0,20.4-16,26.7-29.3,26.7s-19.9-10.1-19.9-25.7,9.7-21.7,23-21.7,26.2,5.2,26.2,20.7Z"/>
              <g>
                <path d="M221,138.2c5.1-8.6-3.4-16.8-4.5-19.7-2.7-7.2-6.1-9-8.9-9.8s-5.4-.9-11.6-.9-25.9-2.7-30.9,12.3c-6.5-2.7-11.3-2.3-17.9-.9-1.3-2.4-4.9-10.4-18.3-11.4-1.7-.1-8.2-.6-14.3.9-7.2,1.8-7,2.6-8.9,4.5-2,2-4.1,8.7-4.5,16.1-.3,6.3,1.8,15.2,2.7,17,.6,1.1,2.7,5.4,5.1,6.7,11.9,6.7,13.4,4.4,19,4.1,13.4-.9,23.6-16.5,23.3-29.3,19-1.7,6.7,3.1,16.3,20.3,2.3,4.1,8.7,9.9,15,11.7,4.4,1.3,13.3,1.6,20.6-1.8,11.6-5.4,15.2-15.2,17.9-19.7ZM143.8,131.7c-.2,6.7-3,12.1-7.3,15.5-5.5,4.4-13.6,5.8-22.2,3.3-5.1-1.5-7-5.6-7.8-7.8-3.6-8.9,0-21.5.9-24.2,1.7-5.2,9.3-6.9,14.3-7.2,7.7-.5,15.5.2,19.5,7.8,1.9,3.6,2.8,8.5,2.7,12.5ZM173.3,148c-3.2-4.2-4.8-12.5-4.9-17.7-.3-14.2,4.6-17.1,17.9-18.3,5-.5,10.2-.8,15.2,0,.7.1,2.2.3,2.7.4,1.9.5,3.8,1.2,5.2,2.5s3.9,5.4,5.3,15.2c.4,3,0,7.2-1.5,11.3,0,0,0,0,0,0-8,18.2-32.3,16.6-39.8,6.5Z"/>
                <path class="st44" d="M234,117.4c-.5-.6-12.3-5.7-14.3-6.3-2.3-.7-7.3,0-7.7.2,4.2,4,2.6,13.3,6.3,17,.6.6,3.3-1.1,5.1-2l.2.2h1.8v-.7c8.1-.7,10.6-2.7,13.4-1.1-.4-1.4-4-6.5-4.9-7.4Z"/>
                <g>
                  <path class="st6" d="M102.3,121q-4.5,2-8.9,4c-.5-1-2.4-8.6-1.1-9.4,20.4-3.1,15.8-9.2,10.1,5.4Z"/>
                  <path d="M102.3,121l-1.1,8.9c-2.9-1.9-6.2-1.5-7.8-4.9q4.5-2,8.9-4Z"/>
                </g>
                <path d="M235.3,126.6c-.7-.6,4-1,3.6-2.7-2.6-1.5-5.4.7-12.1,1.8-8.5.7-11.1-1.8-11.1-1.8l.9,2.7c0,.5.4,2.2.9,3.9l-1.9.6,1.9,6.2c4.9-4.9,7.5-3.1,13.4-8.1,2.1-1.6,4-2.6,4.5-2.7Z"/>
              </g>
            </g>
            <path class="st21" d="M85.5,316.4"/>
            <path class="st21" d="M84.6,316.4"/>
            <g>
              <path class="st42" d="M95.7,247.3c-4.4,13.2-3.5,22.7-3.3,29.2.3,18.1,15.7,123,15.7,123l29.4-41.4-19.2-78.9s-19.5-41.2-22.6-32Z"/>
              <path class="st10" d="M113.3,311.3l17-2v21l-22.3,69.3s-14.9-42.7-9.5-67.8c.4-1.9,12.8,4.2,12.8,4.2,0,0,13.2-6.7,2-24.7Z"/>
              <g>
                <g>
                  <g id="Background" class="st46">
                    <path class="st18" d="M148.5,444c-68.6,0-137.2,0-205.8,0V-14.2h458.1v458.1c-56.2,0-112.4,0-168.7,0q.9-5.4,1.8-10.7c4.2-1.5,9.1-3.6,13-5.8,3.1-1.8,6.4-3.4,7.6-6.9-.5-6.2-2.1-12.1-3.6-18.1,70.4-50.3,89.8-126.1,31.3-195.5.4-.1,3.3,0,7.8-2.7,10.1-6.2,12.5-18.5,7.8-28.9,17.6-3.7,23.9-24.2,10.3-36.2,1.2-4.1,0-8.7-3.1-11.6,16.2-13.4,12.8-35.7-5.8-44.3,3.1-14.8-11.6-26.1-25.5-25.1,3.6-18.9-12-34.5-30.2-25.3-15.2-16.1-41-23.8-61.3-13C163.7,1,120.7,7.3,108,30.6c-14.8-11.9-38.9,1.5-33.8,20.4q-5.3,4.6-10.5,9.2c-13.8,1.5-22.7,17.2-16.3,29.8-14.8,7.5-16.6,28.1-1.8,36.7-16.6,4.3-24,28.2-7.2,37.1-3,15.6,12.2,19.3,12.5,20.6-2.6,7.2-1.4,13.8,3.6,19.5-31.4,25.1-46.1,67.3-40.3,106.7,6.5,44,41.2,77.1,77.4,99.5-.6,3.9-1.6,7.8-1.3,11.9,2.2,2.6,4.3,4.2,7.2,6,13.2,8.8,34.1,11.8,49.7,13.4q.7,1.3,1.3,2.7Z"/>
                  </g>
                  <g>
                    <path class="st48" d="M190.6,197.5c-8.1,10.4-19.5,18.4-32.2,21.9-2.1-2.8-4.8-5.3-5.4-8.9-.4-2.6.2-7.1.4-9.8,0-.7.1-.8.4-1.3,11.1,2,24.7-4.6,34.5-9.8,1.1,2.6,1.5,5.4,2.2,8.1Z"/>
                    <path class="st15" d="M207,223.8c-6.1-1.7-8.6-4.9-11.5-10.6,0,0-4.6-11.9-5-15.8-7.8,9.9-18.6,17.7-30.6,21.4-.4-.4-.8-.8-1-1-4.4-4.3-5.8-7.6-5.8-7.6,0,0-4.5,9.1-6.5,10.6-4.3,3.4-21.4,5.3-21.4,5.3l-8.9,44.1.3,8.9,28.1,22,76.8-24.6,3.7-49.6-18.1-3.3Z"/>
                  </g>
                </g>
                <g>
                  <g>
                    <path class="st24" d="M228,308s1.8-1.2,1.8-.9c.4.1.8-8.8-2.1-19.7-2-7.7-5.5-7.7-10-21.6-30.9,28.1-64.3,31.6-77.9,26.3-13.9-5.5-20.4-22.2-21.9-23.2s-2.8,6.2-1.8,4.4c-3,6.9-8.2,17.7-7.1,26.7,1.2,10.2,6.2,16.1,9.8,18.8,2.4,1.8,8.1,3.6,8.1,3.6,0,0,4.5,4.7-.9,13.4-2.2,3.5-8.9,12.7-17,33.4-4.3,17.1-.9,32.9,2.6,47.5s5.8,19.8,5.8,19.8c0,0,54.5,12.5,111.7-1.9,5.6-1.4,4.3-.8,6-4.6,5.6-11.9,7-31.2,3.2-44.7-2.9-10.1-5.8-20.1-10.7-29.5-6.7-5.3-4.6-27.8-3.5-38.5l4-9.2Z"/>
                    <path class="st7" d="M224.5,311.6c0,0,0,.1,0,.2,0-.1,0-.2,0-.2Z"/>
                    <path class="st7" d="M224.5,311.8c0,.2,0,.5,0,1,0-.4.1-.8,0-1Z"/>
                  </g>
                  <path class="st14" d="M105.3,308.1"/>
                  <path class="st14" d="M105.4,308"/>
                  <path class="st7" d="M104.5,268.6s6.3,2.7,11.6-.9c5.5-3.7-2.7,11.6-2.7,11.6,0,0-5.5-4.7-8.9-10.7Z"/>
                  <path class="st38" d="M227.5,354c-3-4.3-4.3-14.6-4.2-23.9,0-4.3,0-7.9,1-11.5,2.1-2.7,4.7-7.8,5.4-10.9.8-3.2,1-12.1-1.8-20.1-.6.9,7.7,17.3-10.7,29.9-9.9,4.9-19.3,4.8-28.7,2.1.2,0,8.3,3.7,15.1,4.2s11.5,0,11.5,0c2.2,14.4,3.3,25.1,11.9,46s14.8,38.4,8.2,60.1c.4,0,4.4-7.7,6.5-24.4.3-2,5.3-23.7-14.2-51.5Z"/>
                </g>
              </g>
              <g>
                <path class="st15" d="M126,228.4"/>
                <path class="st10" d="M104.5,268.6s6.3,2.7,11.6-.9c5.5-3.7-2.7,11.6-2.7,11.6,0,0-5.5-4.7-8.9-10.7Z"/>
              </g>
              <path class="st39" d="M134.5,279.4"/>
              <g>
                <path class="st15" d="M127.6,226c-6.7-.8-10.8-.5-17.1,3.1-9.1,5.3-17.3,20.1-16.3,25.3,2.2,11.3,19.2,25,19.2,25,0,0,1.4-4.1,2.6-6.2,3-2.4,9.9-44.8,9.9-44.8l1.7-2.5Z"/>
                <path class="st10" d="M111.7,253.2l6.2,15.6c.2.4-1.6,4.6-2.1,5.8l-2.4,4.8s1.8-20.2-1.7-26.2Z"/>
              </g>
              <g class="st33">
                <g>
                  <path class="st39" d="M152.3,264.4c-8-3.8-18.1-13.5-19.6-17.9-2.8-8.7-2.7-11,.4-20.9s.3-.4.4-.5c-3.3-1-6.2-2.8-10.8-.1,0,21.8-1,10.8-1.8.2-5.3-.9-6.2.4-9.4,3.4-5.4-2.1-4,2.5-4.2,2.6,1.2,9.6,4.4,24.3,9,34,3.4,7.2,14.7,28.5,31.1,28.5,2.3-6.3.7-24.3,4.9-29.4Z"/>
                  <path class="st24" d="M122.8,225c-.7,18.5.3,23.7,11.8,38.3-14.7-15.3-12.9-24.5-13.6-38.1,0,0,.4-.4,1.8-.2Z"/>
                </g>
                <g>
                  <path class="st39" d="M240.2,231.3c-.1-3.8-6.9-4.9-10.5-3.5-11.4,11.6-11.1,12,0,0-2.1-4.1-4.6-4.1-11.3-2.2,0,.7-.3,1.6-.4,2.4-2.3,13-18,27.2-31,33.2-10.3,4.7-24.8,6.9-34.7,3.2-5,6.5-4.4,22.5-4.9,29.4,17,2.3,42.2-6.5,62.3-20.9,8.1-5.8,16.5-16.7,25.7-26.2,4.2-4.3,11.7-11.8,9.7-13.7-.4-.5-.5-1.7-4.8-1.8Z"/>
                  <path class="st24" d="M230.5,227.6c-9.9,12.9-18.3,25.7-38.2,39.3,18.7-12.8,27.3-26.5,37-39.8.9.3,1.1.4,1.2.4Z"/>
                </g>
                <path class="st24" d="M120.9,260.1c3,10.4,10.9,19.5,21.5,22.5,19.8,5.3,41.8-6,59-15-6.7,4.5-13.6,8.5-21,11.7-14.3,6.3-32.9,10.7-46.8.9-6.7-4.7-11.2-12.2-12.7-20.1h0Z"/>
              </g>
              <path d="M75.9,191.4s-.6,0-.8-.4c.5-.5.8.4.8.4Z"/>
            </g>
            <g>
              <path class="st22" d="M111.7,127.2c5.3-3.6,10.8-6.9,16.4-9.9s.2-3.5-1.5-2.6c-5.6,3-11.1,6.3-16.4,9.9s0,3.7,1.5,2.6h0Z"/>
              <path class="st22" d="M118.7,127.1c2-.7,4-1.3,5.9-2.2s3.2-1.7,4.7-2.6.2-3.6-1.5-2.6-3,1.8-4.6,2.6-.3.1-.5.2-.4.2,0,0c0,0-.2,0-.2,0-.4.2-.8.3-1.2.5-1.1.4-2.2.8-3.4,1.2s-1.3,1-1,1.8,1.1,1.3,1.8,1h0Z"/>
            </g>
            <g>
              <path class="st22" d="M176.2,127.2c5.3-3.6,10.8-6.9,16.4-9.9s.2-3.5-1.5-2.6c-5.6,3-11.1,6.3-16.4,9.9s0,3.7,1.5,2.6h0Z"/>
              <path class="st22" d="M183.3,127.1c1.9-.6,3.8-1.3,5.6-2.1s3.4-1.7,5-2.7.2-3.6-1.5-2.6-3.2,1.9-4.9,2.7-.3.2-.5.2-.4.2-.2,0-.2,0-.2,0c-.4.2-.8.3-1.2.5-1,.4-2,.7-3,1s-1.3,1-1,1.8,1.1,1.3,1.8,1h0Z"/>
            </g>
            <g>
              <g>
                <path class="st1" d="M103.8,39.6c.2,0,.4-.1.6,0,17.8,1.1,34.3,1.4,47.7,11.5.4,0,.8.1,1.2.2,0-1.4-.1-3.1-.5-5.1,9-12.5,1.4-25.5-12.3-19.7-1.5-1,.4-1.4.4-1.4-1.3-2.2-4.7-5.7-7.1-6.8-.2,0-3.4-1.1-3.6-1.2-11.2-1.3-19.8,8.2-14.6,18.9-5.4,0-9.2,1.3-11.8,3.7Z"/>
                <path class="st1" d="M168.7,46.9c8.1,1.3,16,7.2,24.3,6.8,10.2-.4,20.5-6.5,30.7-6.2,5.2.2,10.3.6,15.3,1.6.6.1,1.2.2,1.8.4-4.4-2.3-5.7-14.8-17.1-12.4-3.2-.3-5.3,4.2-8.2,2.7-2-1-3.3-12-18.3-8.5-1.4.5-4.5-4.9-8-6.7-6.3-3.2-17.4-2.9-21.7,3.5-1,1.5-3.4,10.5-7.4,15.3.7.4,1.2.8,1.6,1.3,2.3.8,4.6,1.6,7,2.2Z"/>
                <path class="st1" d="M152.8,46.1c.4,2,.5,3.7.5,5.1,1.9.3,3.8.6,5.7.8,2.9-.1,5.8-.4,8.7-.9,1.6-.5,3.3-1.1,4.9-1.7-.6-.2-1.3-.2-2.1,0-.1-6.3-4.2-14.6-4.4-16.4-10.8,5.7-4.8-10.4-16.2-11.6-3.3-.3-7.3.8-9.1,3.5,0,0-1.9.5-.4,1.4,13.7-5.8,21.3,7.2,12.3,19.7Z"/>
              </g>
              <path class="st43" d="M188.4,46.2c4.3,1.6.4,5.8,5.2,7.2,17.4-.8,20.1-6.7,30.3,3.2-1-2.1,1.2-5.9-1-7.4-9.6-6.8-14.7-.9-19.1-2.3-4.2-1.5-11.1-12.1-24.1.2,3.1.9,5.7-2.1,8.7-.9Z"/>
            </g>
            <g>
              <rect class="st13" x="229.3" y="164.5" width="7.4" height="5.7" rx="2.5" ry="2.5" transform="translate(-8 11.7) rotate(-2.8)"/>
              <path class="st25" d="M231.3,165h3.5c.9,0,1.6.7,1.6,1.6h0c0,.9-.7,1.6-1.5,1.6h-3.6c-.8,0-1.5-.7-1.5-1.5h0c0-.9.7-1.7,1.6-1.7Z" transform="translate(-7.9 11.7) rotate(-2.8)"/>
              <rect class="st8" x="230.2" y="163.2" width="5.3" height="1.3" rx=".4" ry=".4" transform="translate(-7.8 11.7) rotate(-2.8)"/>
              <rect class="st8" x="230.6" y="170.2" width="5.3" height="1.3" rx=".4" ry=".4" transform="translate(-8.1 11.7) rotate(-2.8)"/>
            </g>
            <g>
              <path class="st2" d="M235.7,193c0-1.8.1-4.5-.7-5.4s-1.5-1.9-2.7-1c-.8.6-1.8,4.1-2,6.2,0,.7.2,3.1.8,3.6,1.7,1.4,2.9,1.2,3.5.3,1.9-2.8,1-2.5,1-3.7Z"/>
              <path class="st26" d="M236.2,192.3c-.1-2.5-.3-4.3-1.2-4.7-2.7-1-1,2.7-3.7,4.4-1.1.7-.6,3-.1,3.6,2.9,3.8,5.2-.8,5.1-3.2Z"/>
            </g>
            <g>
              <rect class="st13" x="229.6" y="180.9" width="7.4" height="5.7" rx="2.5" ry="2.5" transform="translate(-3.3 4.3) rotate(-1.1)"/>
              <path class="st25" d="M231.6,181.4h3.5c.9,0,1.6.7,1.6,1.6h0c0,.9-.7,1.6-1.5,1.6h-3.6c-.8,0-1.5-.7-1.5-1.5h0c0-.9.7-1.7,1.6-1.7Z" transform="translate(-3.3 4.3) rotate(-1.1)"/>
              <rect class="st8" x="230.6" y="179.6" width="5.3" height="1.3" rx=".4" ry=".4" transform="translate(-3.3 4.3) rotate(-1.1)"/>
              <rect class="st8" x="230.7" y="186.7" width="5.3" height="1.3" rx=".4" ry=".4" transform="translate(-3.4 4.3) rotate(-1.1)"/>
            </g>
          </g>
          <g>
            <g>
              <g>
                <path class="st16" d="M293.9,338c1.9-6.9,1.8-13.7-5.7-23.7,7.8,20.7-23.3,44-45.1,55.7-6,3.2-4.2,8.3.9,5,16.1-10.2,48.6-32.7,49.8-37Z"/>
                <path class="st3" d="M259.3,336"/>
                <path class="st3" d="M264.5,329.7c.6,1.2.9,2.8,2.1,3.7-1.6,1.7,1.9-.5-.2,1.7-2.6-.2-16.1-26.4-27.2-44.4-1.9-3.1-5.5-6.2-6.7-6.8-2-1-10.7-8.6-10.7-8.6,0,0-3.7-7.6-3.9-9.5s4.8,1.2,4.8,1.2c0,0,9,6.1,11.1,9.7,7.7,13,26.3,44.3,30.8,53.1Z"/>
              </g>
              <path class="st40" d="M238.6,342.1"/>
            </g>
            <path class="st42" d="M263.8,327.2s2.4-7,9.3-8.2c-6.1,2.6-10.8,12.6-13.7,17.5-1.2,2-4.3,4-6.6,6-7.3,6.4-6.9,7.9-14.3,14.2-.2.1-2.7,10-6.1,11.7.3,1.3,9.4,1.8,10.3,1.9,19.8-7.8,58.1-34.2,47-54.4-24.8-59-29.1-.3-25.9,11.3Z"/>
          </g>
          <path class="st3" d="M232.3,305.8"/>
          <g>
            <g>
              <path class="st9" d="M214.4,383.8c1.8.2,13.8-4.2,15.8-5.3,1.3-.8,7.1-4.3,6.8-5.8-5.7,2.6-11.4,6.7-17.3,8.3-1.8.5-1.6,0-1.7,0-.3.1-1.2.3-1.3.3-2.8,1.6-1.4.9-4.2.8,0,0-.9,1-.5,1.3.8-.2,1.5.2,2.3.3Z"/>
              <path class="st9" d="M214.5,398.2c2.6,1.1,5,2.2,6.4,2.2,5.7-.1,11.1-4.2,15.7-7.9,1.7-1.3,6.7-6,6.4-8-6.2,5.7-20,16.7-28,12.8,0,.2-.2.9-.5.8Z"/>
              <path class="st9" d="M214.3,393.1c7.9-1.9,16.6-4.1,22.6-10.1.8-.8,3.8-3,2.7-4.4-6.2,7.1-16.7,11.3-26.1,12.3,0,0-1,0-1.2.2,1.2.6,1.4,1.8,2,2Z"/>
              <path class="st45" d="M224.4,402.7c1.1-.2,3.1-.5,3.6-1.8,1.1-1.6-2.1-1.9-3.4-2.6-3.3,2-5.5,2-.2,4.4Z"/>
              <path class="st29" d="M249.1,371.7c-.5-.3-.5-8.5-7.4-9-.4-.2-2.9-4.1-4.4-5.8s-9.4-2.3-9.4-2.3c0,0,1.9,2.6,2.8,4.5s1.6,2.8,2.1,3.5c.8,1.2-.6,2.5-.7,2.5-.2.1-7.6,7.9-9.7,9.2-5.4,3.4-13.6,4.5-10.1,6.6,0,0,2,2.1,3.8,1.6,5.9-1.6,15.4-6.1,20.9-9.8.3,1.5-5.4,5.1-6.8,5.8-2,1.1-15.7,5.8-17.3,6.6-1.3.6-1.7,1.8-2.5,2.7,3.2-.4,3.1-1.3,3,3.1,9.4-1,19.9-5.3,26.1-12.3,1.1,1.4-1.8,3.6-2.7,4.4-6,6-14.6,8.2-22.6,10.1-.3.3-.4,1.2-.3,1.5,0,.3,1.5,1.2,1,2.8,8.1,3.9,21.8-7.1,28-12.8.2,2-4.8,6.6-6.4,8-4.6,3.7-7.1,2.8-12,5.8,1.2.7,4.5.9,3.4,2.6,1.2-.5,10.3-4,16.7-10.3,3.9-3.9,3.3-7.2,2.3-12.5.3-.4,2.3-4.9,2.2-6.4Z"/>
            </g>
            <path class="st45" d="M213.5,398.3c1.1-.2,3.1-.5,3.6-1.8,1.1-1.6-2.1-1.9-3.4-2.6-3.3,2-5.5,2-.2,4.4Z"/>
            <path class="st45" d="M211.9,391.2c1.1-.2,3.1-.5,3.6-1.8,1.1-1.6-2.1-1.9-3.4-2.6-3.3,2-5.5,2-.2,4.4Z"/>
            <path class="st45" d="M211.8,383.8c1.1-.2,3.1-.5,3.6-1.8,1.1-1.6-2.1-1.9-3.4-2.6-3.3,2-5.5,2-.2,4.4Z"/>
          </g>
          <path class="st16" d="M246.6,378.9s1.4-2.9-.9-4.6c0,0,.2-3.3-2.4-4.6,0,0-.5-4.7-3.4-4.6l-1.3-6.4s6.8,2.1,9.5,9.3c1.4,3.9,1.5,3.8,1.5,3.8,0,0-1.3,4-1.6,4.7s-1.3,2.4-1.3,2.4Z"/>
          <g>
            <path class="st23" d="M254.4,370.8c1.7-.8,1.8-4.2.2-7.8-.9-2.1-2.3-3.7-3.5-4.6.1.2.3.3.4.5,6.7,9.5.2,11.1.2,11.1,0,0,0,0,0,.1,1,.7,1.9,1,2.7.7Z"/>
            <path class="st23" d="M242.3,348.9c.1.3.2.6.4.8.4.7,1.3,1.9,1.3,1.9,0,0,.6-.7.8-1.1.6-1-2.2-1.2-2.5-1.7Z"/>
            <g>
              <path class="st23" d="M244.9,340.5c.2.3,1.6,1.6,1.8,1.9.6.8,1.7,2.3,1.7,2.3,0,0,.6-.7.6-1.1,0-1-3.6-2.6-4-3.1Z"/>
              <path class="st23" d="M264.4,364.8c.7-.7-.8-4.3-3.6-8-1.6-2.2.9,2.4,1.6,3.4s1.3,2.5,1.4,3.1c.2,1.3-1.7-.1-1.7-.1l.2.7s.2.3.3.4c1,.8,1.6.9,1.9.5Z"/>
              <path class="st25" d="M246.7,336.8c-.7-.3-3.1.8-1.8,3.7.2.4,3.4,3,5.2,4.7,1.8,1.7,8,9,9.6,11.2,2.7,3.7,5.1,7.4,4.6,8.3-.2.4-1.1.4-2.1-.8.2.9,2.6,6.5,6.1,3.3.5-.5.6-1.3.5-2.4-.8-6-8.9-15.2-12.3-19.1-1.8-2-3.6-3.9-5.4-5.7-1.5-1.4-3-2.6-4.4-3.2Z"/>
            </g>
            <path class="st13" d="M263.2,361.4s-6.7-10.6-13.2-16.4c0,0,7,3.9,13.2,16.4Z"/>
            <path class="st25" d="M247.7,344c-.9-.2-1.8-.3-2.6,0-.9.2-1.8.7-2.4,1.4-.5.7-.7,1.6-.6,2.4,0,.4.2.8.3,1.1.3.5,2.9,1.7,4.5,3.4,1.5,1.7,5.9,8.7,6.9,10.8,1.6,3.5,2.4,7,.7,7.8-.8.3-1.7,0-2.7-.7.5.7,3.2,4.4,7.1,2.6,1.1-.5,2.1-1.4,2.7-2.4,3.4-5.9-2.3-14.1-4.8-17.8-1.3-1.9-2.8-3.8-4.4-5.4-1.3-1.3-2.8-2.5-4.6-3Z"/>
            <path class="st28" d="M257.4,368.3s-2.4-11.6-10.8-18.8c0,0-3.1-2.9-.9-3.3,2.2-.5,11.2,4.3,11.8,22.1Z"/>
            <path class="st28" d="M264.6,356.9c0,0-8.7-10.1-12.3-13.1-.7-.6-5.9-3.7-3.7-4.1,2.2-.5,12.6,12.3,16,17.3Z"/>
          </g>
          <path class="st38" d="M132.1,323.6c4.5,0,8.9-2.7,8.9-2.7-5.4,2.7-14.4,1.5-14.4,1.5,0,0,1,1.6.9,4.5-.1,3-1.4,7.3-3.5,11-3.6,6.2-6.4,11.6-8.6,16-2.5,4.3-4.4,9.1-5.5,12.2-.8,2.1-1.2,3.2-1.2,3.2-7.7,18.1,7.1,62.7,7.1,62.7-6.4-28.4-8.6-43-.1-62,3.9-8.7,16.3-46.3,16.3-46.3Z"/>
          <path class="st3" d="M267.2,325c3.1-4.7,10.8-9.5,10.8-9.5,0,0-5.4,2.7-8,3.8s-7.1,7.8-7.2,7.8c0,0,1.5,1-3.3,9.5"/>
        </g>
        <g>
          <path class="st5" d="M63.8,199.6C25.4,203.4-2,243.1,2.6,288.2c4.5,45.1,39.3,78.6,77.6,74.7,38.3-3.9,65.7-43.5,61.2-88.7-4.5-45.1-39.3-78.6-77.6-74.7ZM72,345.6c-29.6,0-53.6-28.8-53.6-64.4s24-64.4,53.6-64.4,53.6,28.8,53.6,64.4-24,64.4-53.6,64.4Z"/>
          <g>
            <g>
              <rect class="st44" x="47.1" y="241.4" width="43.8" height="88.8" rx="12" ry="12" transform="translate(-28 8.2) rotate(-5.7)"/>
              <rect class="st22" x="48.9" y="243.6" width="40.3" height="84.5" rx="10" ry="10" transform="translate(-28 8.2) rotate(-5.7)"/>
              <g>
                <g>
                  <path class="st42" d="M76,282.5s-.4.9-.8,1.8c.4-.8.6-1.4.8-1.8Z"/>
                  <path class="st42" d="M76.9,282.6h-.8c.3,0,.5,0,.8,0Z"/>
                  <path class="st42" d="M75.3,284.3c-.2.4-.6.9-1,1.4.2.2.6-.6,1-1.4Z"/>
                  <path class="st42" d="M84.6,290.5c-.9-1.7-2.3-4.1-3.6-5.6-.2-.3-.4-.6-.6-.8-1.2-1.4-2.5-1.4-3.6-1.5h0s-1.6,5.2,0,6.5,7.1,9.4,7.1,9.4c0,0,3.5-2.2,3.2-2.9s-1.6-3.1-2.7-5Z"/>
                </g>
                <g>
                  <path class="st49" d="M71.6,266.4l1,3.2s.4.5.6.4c.5-.3.8-1.4.7-2.5s-.7-1.9-.7-1.9l-1.5.9Z"/>
                  <g>
                    <g>
                      <path class="st19" d="M76.2,266.1c-.4-.2-.2.7-1.4.9-.1-1.1-.3-1.4-1.1-2.1h0c.3,0,2.1.6,2.2.7.1.1.1.3.2.5Z"/>
                      <path class="st19" d="M76.2,266.1c0,.3,0,.7.2.8-.1,0-1.1,1.2-1.5,1.2,0-.3,0-.7,0-1.1,1.2-.2.9-1.1,1.4-.9Z"/>
                    </g>
                    <g>
                      <path class="st19" d="M55.2,258.6c-.2.3-.4.6-.6.9,0-.2,0-.4,0-.6-.2,0-1.4-.9-1.5-.9,0,0-.4-1.2-.4-1.3,0-.6.3-1.2.6-1.6-.6,2,1.5,2.6,1.7,3,0,.2-.1.5.1.5Z"/>
                      <path class="st19" d="M83.6,257.9c.7.9.5,1.4.3,2.6.6,0,.7,0,1.4.3h0c-.2-.1,0,.4-.8,0,0,.8-1-.3-.6.8-.8.5-.5-2.3,0-2.5,0-.1-.9-1.5-.2-1.1Z"/>
                      <path class="st43" d="M85.2,270.8s0,0,0,0c-.3-2.7-1.9-1.7-2.9-2.3-.7-.4-1.4-2.7,1.7-2.9.9,1.1-1.8,1.1-1.5,1.7,0,.1,2.2.7,2.5,1,.5.5.6,2,.3,2.5Z"/>
                      <path class="st1" d="M51,271.8c0,.2-.6.6-.3,1.8-.8-.2-2.1-.2-2.1-1.4,0-1.9,2.1-.4,2.3-.4Z"/>
                      <path class="st1" d="M52.5,269.1l.3,1.3-1.7,1.5c0-.1.3-.3.3-.4.2-.8-.7-1.3-.7-2.1l1.9-.2Z"/>
                      <g>
                        <path class="st19" d="M56.7,268v1.4c-.5-.3-1-.1-1.3-.7l1.3-.8Z"/>
                        <path class="st34" d="M58.1,267.3c-.1.5-.3.8-.3,1.4-.4.3-.3-1.2.3-1.8v.3Z"/>
                      </g>
                      <g>
                        <path class="st1" d="M86.4,268.5c0-2.5-1.3-2.4-1.4-2.5-.5-.6.7-.6,1.2-1.5.8-1.3.3-3.3-1.1-3.9h0c-.2-.1,0,.4-.8,0,0,.8-1-.3-.6.8-.8.5-.5-2.3,0-2.5,0-.1-.9-1.5-.2-1.1-.6-.9-1.6-1.2-2.6-.7-.4,0,0-.9-1.5-1.6.9-2.4-2-4-3.1-1.7-3.5.4-18.4.2-20.1,1.1-.3,0-1.5-1.4-2.9,0-.6,2,1.5,2.6,1.7,3,0,.2-.1.5.1.5.3-.4.5-.1.1-1.3,1.9-2.7,1.8-1.8,4.8-1.6.4-.2.2-2.2,1.2-2.4,1.3-.4,1.8,1.3,1.3,1.8-.5.5-.5-.3-1-1-.2,3.4-2.2,2.5-4.6,2.4-1.1,1-.5,1.6-.6,2,0,.1-.9,1.1-1,1.3-.3,1,.8.7-2.1,2.7-.2.9,1.5,2.3-.6,3.5-.6.4-2.3.5-1.8,1.1.4.4,2.2.7,2.5,2.3.5,3.3-3.6,1.9-1.3,5.3,0,0-.2.3-.6.5,0,0-.8-1.4-.8-1.5-.8-.2-2.1-.2-2.1-1.4,0-1.9,2.1-.4,2.3-.4,0-.1.3-.3.3-.4.2-.8-.7-1.3-.7-2.1l1.9-.2c0-.4-1.2-.9-2-1.4-.4-.6-.3-1.4,0-2.1,1.1-.7,2.6-.5,2.5-1.4,0,0-.4-.8-.5-1.4-.1,0-.2,0-.3,0,0,0,.2,0,.3,0-.3-1.6,1.7-2.1,1.9-2.3,0,0,.2-.9.2-1,0-.2,0-.4,0-.6-.2,0-1.4-.9-1.5-.9-.2,0-.3.2-.4.3,0,.1-.1.3-.2.4,0-.1,0-.3.2-.4-1,.7-.7.6-1.1,1.7-2.5,0-3.2,2.7-1.3,4.4-.3.2-.7.2-1,.4-.3.1-.4.2-.6.5-1.1,1.4-.4,3.1,1.2,3.6.1.3-.5.7.2,2-2.5,0-3.1,3-.7,4-.4,1.3.7,3,2,2.3,1.2,1-.2,1.2.2,2.8.3,1.2,2.1,1.9,3,1,1.5.5.8.7,1.4,1.3.7.8,2.2.6,2.9-.2.2,0,.3,2,2.8,1.3.5-1.2.8-.4,1.7-1,.7-.4.6-1.5,1.3-.8.3-.6.5-1.3.9-1.9,0-.1,0-.1,0-.2-1,0-3.8-1.9-4.6-2.5-1.5-1.2-2.4-2.2-2.6-4.2,0,0-.2-1.2-.3-1.5,0-.1-.2-1.3-.2-2.4-.4.3-.3-1.2.3-1.8q0,.2,0,.3c0,0,.1-.5.1-.5.1-.4.2-1,.8-.9q-.2-.2-.3-.4c0-1.3.6-4.6,1.8-5.3.7-.4,1.5,0,2.2-1.4,3.2,1.5,4.1-.7,4.4-.9.9-.5,1.2.6,1.3.7,1.2,1.2,2.2.6,3.3,2.2.4.6.6,1.5,1.1,2.2.2.3.1,2.3.3,2.7.7,1.4.8,2.9.5,3.6.7-1.6.3.5,1-.4,0-.2.2-.8.2-.9,0-.3,0-.7,0-1.1-.1-1.1-.3-1.4-1.1-2.1h0c.3,0,2.1.6,2.2.7.1.1.1.3.2.5,0,.3,0,.7.2.8,1.5-.5,2.5,2.4.9,4.2-1.3,1.4-2.2-.1-2.9,1.4,0,0,0,.7-.6,1.6-.7,1.3-2,2.4-3.1,3.2.2.4.3.8.5,1.2.1.3.3.7.3.7.8,0,1.1.8,1.6,1,0,0,.5,0,.6,0,1.1,1.8,3.5,1.2,3.9-1,1.4,1.3,3.4,1.4,3.7-.9,1,0,1.7,0,2.2-1,2.4,0,3.1-2.6,1.2-4.2q.4-.6.7-1.2c.8.1,1.6-.1,1.9-1,.4-1.1,0-2.1-.9-2.6ZM52.4,259c0,.1,0,.2,0,.3,0-.1,0-.2,0-.3ZM50.4,260.5c0,0,.1,0,.2,0,0,0,.2,0,.2,0,0,0-.2,0-.2,0,0,0-.1,0-.2,0,0,0,0,0-.1.1,0,0,0,0,.1-.1ZM49.9,261.5c0,0,0-.2,0-.2,0,0,0,.1,0,.2,0,.1,0,.2,0,.3,0-.1,0-.2,0-.3ZM85.2,270.8s0,0,0,0c-.3-2.7-1.9-1.7-2.9-2.3-.7-.4-1.4-2.7,1.7-2.9.9,1.1-1.8,1.1-1.5,1.7,0,.1,2.2.7,2.5,1,.5.5.6,2,.3,2.5Z"/>
                        <path class="st43" d="M68.7,252.7c1.6-.3,3.1,2.6,6.2,1.2,1.7,2,2.9,1.2,2.5,3.9.4.1,1.8,1.2,1.9,1.3.8.2,2.8-.7,2.4,2.2.6.2,2.9.9,3.3,1.4.4.6.3,1.8-.4,2.1-1.5.7-.2-1.3-.3-1.6-1.8-1.4-3.9.3-3.4-3.1h-1.8c-1.3-1.4-1.9-1-2.3-1.4-1.2-1.3,1.3-3.3-2.9-2.3l-.4-1.2c-1.6.2-3.1-.6-4.5-1.5-.6,0-2.1,1.4-1.9,0,0-.3,1.2-1,1.5-1Z"/>
                      </g>
                      <path class="st43" d="M52.2,274.6s-.2.3-.6.5c0,0-.8-1.4-.8-1.5-.3-1.2.2-1.6.3-1.8l1.7-1.5-.3-1.3c0-.4-1.2-.9-2-1.4-.4-.6-.3-1.4,0-2.1,1.1-.7,2.6-.5,2.5-1.4,0,0-.4-.8-.5-1.4-.3-1.6,1.7-2.1,1.9-2.3,0,0,.2-.9.2-1,.2-.3.4-.6.6-.9.3-.4.5-.1.1-1.3,1.9-2.7,1.8-1.8,4.8-1.6.4-.2.2-2.2,1.2-2.4,1.3-.4,1.8,1.3,1.3,1.8-.5.5-.5-.3-1-1-.2,3.4-2.2,2.5-4.6,2.4-1.1,1-.5,1.6-.6,2,0,.1-.9,1.1-1,1.3-.3,1,.8.7-2.1,2.7-.2.9,1.5,2.3-.6,3.5-.6.4-2.3.5-1.8,1.1.4.4,2.2.7,2.5,2.3.5,3.3-3.6,1.9-1.3,5.3Z"/>
                    </g>
                    <g>
                      <g>
                        <g>
                          <path class="st3" d="M71.1,278.5c-1,1.7-2.6,3.2-4.4,3.9-.4-.4-.8-.8-.9-1.3,0-.4,0-1.1,0-1.5,0-.1,0-.1,0-.2,1.7.1,3.6-1.1,4.9-2,.2.4.3.8.5,1.2Z"/>
                          <path class="st42" d="M71.4,279.3c0,.3.2.6.2.9-.8,1.3-2.2,2.4-3.6,3-.3.1-.2.2-.2.2,0,0,0,.1-.3,0,0,0-.2,0-.2-.1,0,0-.5-.6-.6-.7,1.8-.7,3.4-2.2,4.4-3.9.1.3.3.7.3.7Z"/>
                        </g>
                        <path class="st42" d="M74,272.8c-.6,2.4-5.9,5.9-7.5,6-2.1.1-6.5-3-7.2-5.3.7,0,1.5,0,2.2-.3,0,.1.4.4,1,1.1,1.1,1.5,1.8,3,3.8,2.5,1.6-.4,1.9-1.6,2.4-2.3.4-.6.8-1.1,1.2-1.7.5,0,1,.1,1.5,0,.3,0,1.5-.7,1.3-1,.3-.2,1-.9,1.2-1.2.3.6.4,1.3.2,2Z"/>
                        <path class="st4" d="M72.5,272c.2.3-1.1.9-1.3,1-.5.1-1,0-1.5,0,0,0,0-.2.1-.3.9.1,1.9-.2,2.7-.7Z"/>
                        <g>
                          <path class="st42" d="M73.8,274.1c-.2-.2.5-.9.2-1.3.2-.7.1-1.4-.2-2,.2-.3.6-1.4.7-1.8,0-.2.4-.8.4-.9.5,0,1.4-1.2,1.5-1.2,1.5-.5,2.5,2.4.9,4.2-1.3,1.4-2.2-.1-2.9,1.4,0,0,0,.7-.6,1.6Z"/>
                          <path class="st11" d="M76.9,269.5c.3,1-.5,1.2-.9,1-.3-.2-.6-1.4-.5-1.9.6.2,1.3,1.4,1.3.9Z"/>
                          <path class="st47" d="M76.9,269.5c0,.5-.8-.7-1.3-.9.2-.7,2.1-1.3,1.9.4-.3-1.4-1.3-.7-1.3-.5,0,.1.6.5.8.9Z"/>
                        </g>
                        <path class="st49" d="M69.6,272.8c-.2,0-.4.3-.7.4-2.4.8-4.5,1.2-7,0-.1,0-.3-.1-.4-.2,1.9-.6,3-3,2.8-5,2.8-.5,1,.4,2.7,2.9.7,1.1,1.5,1.4,2.6,1.8Z"/>
                        <g>
                          <path class="st30" d="M61.5,273.1c.1,0,.3.1.4.2.4.5,1.1.8,1.6,1.3,0,0,.2.4.4.6.1,0,.2.1.4.2-.5.3-1.4-.7-1.9-.9-.5-.7-.9-1-1-1.1,0,0,0-.1,0-.2,0,0,.1,0,.2,0Z"/>
                          <path class="st30" d="M69.8,272.7c0,0,0,.2-.1.3-.4.6-.8,1.1-1.2,1.7-.2,0-.8.2-.9.3.3-.4.5-.8.8-1.1.1-.2.3-.4.4-.6.3,0,.5-.3.7-.4h.3Z"/>
                          <path class="st37" d="M68.6,274.6c-.4.7-.7,1.9-2.4,2.3-1.3,0-2.6-1.3-1.9-1.6,1.7.8,2.7,0,3.3-.4.1,0,.7-.3.9-.3Z"/>
                          <path class="st31" d="M64.2,275.3c0,0,0,0,0,0-.7.3.6,1.6,1.9,1.6-2.1.5-2.8-1.1-3.8-2.5.5.2,1.4,1.2,1.9.9Z"/>
                          <path class="st31" d="M68.9,273.2c0,.2-.3.4-.4.6-1.6.8-3.3,1.1-5,.7-.5-.4-1.2-.8-1.6-1.3,2.5,1.1,4.5.8,7,0Z"/>
                          <path class="st41" d="M68.5,273.8c-.3.4-.6.8-.8,1.1-.7.3-1.7,1.2-3.3.4,0,0,0,0,0,0-.1,0-.3-.1-.4-.2-.2-.2-.4-.5-.4-.6,1.7.4,3.4,0,5-.7Z"/>
                        </g>
                      </g>
                      <g>
                        <g>
                          <path class="st41" d="M71.3,269c.2-.3.1-.2.1-.5,0,0,0-.1,0-.2,0,0,.2,0,0-.4.4,0,1,.5,1,.8.1,1-2.5,1.4-3.7.5-.6-.5-.1-.3,0-.5.4-.4.6-1.3,1.9-1.2.7,0-.5,0-.7.6-.4,1.1.7,1.7,1.4.9Z"/>
                          <path class="st36" d="M71.4,267.9c.2.3,0,.4,0,.4l-.2.2c-.8.3-.7-.8.1-.6Z"/>
                          <path class="st26" d="M71.5,268.5c0,.3,0,.2-.1.5-.4-.2,0-.2,0-.5h.1Z"/>
                          <path class="st35" d="M71.5,268.5h-.1s0,0,0,0l.2-.2c0,0,0,.1,0,.2Z"/>
                        </g>
                        <g>
                          <path class="st1" d="M59.4,265.7c-.8,1.3-.6,4.5-.6,4.3,0,0-.3,3-.4,2.9-.6-.9-1.6-2.9-.8-5.3s1.1-1.8,1.8-1.9Z"/>
                          <path class="st49" d="M73.6,269.3c.5-1.6-1.2-.6-1.2-.6.1,1-2.5,1.4-3.7.5-.6-.5-.1-.3,0-.5-.1-.6.3-1.2.8-1.5s.8-.2,1.2-.3,1,.3,1.3.7c.1.1,1.6-2.8,1.6-2.8,0,0,.2-.6.2-.7,0-.2-.8-.8-1-1.1-.5-.6-.7-1.5-1.1-2.2-1.1-1.6-2.1-1.1-3.3-2.2,0,0-.4-1.1-1.3-.7-.2.1-1.2,2.4-4.4.9-.8,1.4-1.5,1-2.2,1.4-1,1.6-2.2,6.5-2.2,6.5,0,.6-.3,1.3-.2,1.9,0,.5.1,1.8,0,2-.4,1.3.1,2.7.3,2.9,0,0,1.9-.2,2.8-.5,0,0,.1,0,.2,0,1.9-.6,3-3,2.8-5,2.8-.5,1,.4,2.7,2.9.7,1.1,1.5,1.4,2.6,1.8h.3c.9,0,1.9-.3,2.7-.8.3-.2,1-.9,1.2-1.2.2-.3.8-1.5.9-1.9-.7.9-.3-1.2-1,.4ZM63.3,268.8c-.3,0,0,.4,0,.5,0,.2-.5-.2-.5.2,0,0,0,.2,0,.3.7,0-.4,1.7-.6,1.8-.2,0-.4-.7-1-.5-.3,0-1.4,0-2.1-1.1,0-.4,0-1.1,0-1.1,0,0,0-.2,0-.4.5-1.1,2.6-1.5,3.6-1.6.3.5.5,1.3.6,1.9ZM69.1,263.4c-.2,0-.3,0-.5,0,.1,0,.3,0,.5,0ZM67.8,263.8c0,0-.1,0-.2.1,0,0,0,0,.2-.1Z"/>
                          <path class="st41" d="M61.2,268.6c-2.1.8.4,2.8.8,1,0-.3,0-.5,0-.8,0,0,.5.4.6.6,0,0,0,.2,0,.2,0,0,0,0,0,.1s0,.1,0,.1c-.1.9-2.4,1-3.3.8s-.4-.4-.4-.7c0-1,2-1.7,2.3-1.3Z"/>
                          <path class="st42" d="M62.7,266.9c-1,0-3.2.5-3.6,1.6,0,.2,0,.3,0,.4.8-1.5,3.5-1.4,3.6.5,0,0,.1.2,0,.6-.4.7-2.5.8-3.3.6,0,0-.4-.1-.2,0,.5.6,1.6.8,2,.9.5,0,.7,0,.9,0,1-.5,1.1-2.2,1.1-2.8s-.3-1.4-.6-1.9Z"/>
                          <path class="st2" d="M62,269.5c-.3.4-.6.3-.5-.2.3,0,.3-.5.5-.5,0,.3,0,.5,0,.8Z"/>
                        </g>
                      </g>
                    </g>
                  </g>
                  <g>
                    <g>
                      <path class="st2" d="M60.4,277.6c0-.2,0-.5-.1-.6s-.2-.2-.3,0-.2.5-.2.7,0,.3.1.4c.2.1.3.1.4,0,.2-.3,0-.3,0-.4Z"/>
                      <path class="st26" d="M60.4,277.5c0-.3,0-.5-.2-.5-.3,0,0,.3-.3.5s0,.3,0,.4c.3.4.5-.1.5-.4Z"/>
                    </g>
                    <g>
                      <g>
                        <path class="st2" d="M60.3,275.8c0-.2,0-.5-.1-.6s-.2-.2-.3,0-.2.5-.2.7,0,.3.1.4c.2.1.3.1.4,0,.2-.3,0-.3,0-.4Z"/>
                        <path class="st26" d="M60.3,275.7c0-.3,0-.5-.2-.5-.3,0,0,.3-.3.5s0,.3,0,.4c.3.4.5-.1.5-.4Z"/>
                      </g>
                      <g>
                        <path class="st13" d="M60.4,276.9h-.5c0,0,0,0-.1,0v-.4c0,0,0-.1,0-.1h.5c0,0,0,0,.1,0v.4c0,0,0,.1,0,.1Z"/>
                        <path class="st25" d="M60.4,276.7h-.6s0,0,0,0v-.2s0,0,0,0h.6s0,0,0,0v.2s0,0,0,0Z"/>
                        <path class="st8" d="M60.3,276.3h-.5s0,0,0,0h0c0-.1,0-.1,0-.1h.5s0,0,0,0h0c0,.1,0,.1,0,.1Z"/>
                        <path class="st8" d="M60.3,277.1h-.5s0,0,0,0h0c0-.1,0-.1,0-.1h.5s0,0,0,0h0c0,.1,0,.1,0,.1Z"/>
                      </g>
                      <g>
                        <path class="st2" d="M60.4,279.4c0-.2,0-.5,0-.6s-.2-.2-.3-.1-.2.5-.2.7,0,.3,0,.4c.2.2.3.1.4,0,.2-.3,0-.3,0-.4Z"/>
                        <path class="st26" d="M60.4,279.4c0-.3,0-.5-.1-.5-.3-.1,0,.3-.4.5s0,.3,0,.4c.3.4.5,0,.5-.4Z"/>
                      </g>
                      <g>
                        <path class="st13" d="M60.4,278.7h-.5c0,0,0,0,0,0v-.4c0,0,0-.1,0-.1h.5c0,0,0,0,0,0v.4c0,0,0,.1,0,.1Z"/>
                        <path class="st25" d="M60.4,278.5h-.6s0,0,0,0v-.2s0,0,0,0h.6s0,0,0,0v.2s0,0,0,0Z"/>
                        <path class="st8" d="M60.4,278.1h-.5s0,0,0,0h0c0-.1,0-.1,0-.1h.5s0,0,0,0h0c0,.1,0,.1,0,.1Z"/>
                        <path class="st8" d="M60.4,278.9h-.5s0,0,0,0h0c0-.1,0-.1,0-.1h.5s0,0,0,0h0c0,.1,0,.1,0,.1Z"/>
                      </g>
                    </g>
                  </g>
                  <path class="st19" d="M58.7,270.8"/>
                  <path class="st16" d="M58.5,272.1c.7.7,1.9,1.2,2.8.9,0,0,0,.2,0,.2-.7.3-1.4.3-2.2.3.7,2.2,5.1,5.4,7.2,5.3,1.6-.1,6.9-3.6,7.5-6,.3.4-.4,1.1-.2,1.3-.7,1.3-2,2.4-3.1,3.2-1.3,1-3.2,2.2-4.9,2-1,0-3.9-1.6-4.8-2.3-1.4-1.1-2.7-3.1-2.9-5,0,0,.4.1.4.1Z"/>
                  <path class="st16" d="M59.4,265.1c-.2.1-.9,1.5-1,1.7,0-1.3.9-6,2.2-6.6s-.5.7-1,3.5c0,.4,0,.9-.1,1.3Z"/>
                  <g>
                    <path class="st42" d="M65.3,272.8c-.5,0-1.1-.3-1.5-.6-.4-1.4.4-.2.8,0,.9.4,2.4-.3.7.6Z"/>
                    <path class="st47" d="M63.9,272.1c.4.3.9.7,1.5.6.5,0,1.8-1,1.1-.3-1.3,1.4-3.6-.6-2.9-.7,0,0,0,.2.3.3Z"/>
                  </g>
                  <path class="st42" d="M69.1,265.2c.4,0,.1,0-.4.4-.8.4-1.2,1.1-.6,3s0,0,0,.1l-1.3-.3c-.3-2.2.5-2.8,2.3-3.1Z"/>
                  <path class="st16" d="M76.8,270.9l.2.3c.2.3-.4.5-.4.5-.1,0-.2.2-.4,0v-.7c.2-.3.5-.1.6,0Z"/>
                  <path class="st42" d="M73.9,264.1c0-.5-.6-.5-1-1-.4-.5-.7-1.6-.7-1.6-.5-1.4-1.8-1.8-1.8-1.8,0,0,2.1,2.2,1.7,5.5,0,0-.6-.2-.7-.3-.7.2-.1.2.3.9.5.8.9,1.8.7,2.8,0,0,0,.3,0,.3,0,0,0,.3-.2.4-.6.6-1.9.6-2.3.5-.3,0-.7-.2-.7-.2,0,0,.5,1.2,2.8,1s1.7-2,1.7-2.4c0-.6-.1-1.4-.6-2.2,0,0,.8-1.5.8-1.8Z"/>
                  <g>
                    <path d="M58.2,267s0,0,.1,0c.7-.6,1.1-1,1.3-1.1.5-.3.8-.4.9-.4.5-.2,2.4.3,1.6-.7-.7-.9-2.3,0-2.9.5-.2.1-1.1,1.2-1.1,1.8Z"/>
                    <path d="M71.3,265c0,0,0-.3,0-.6-.7-1.5-3.7-.9-3.8-.2-.2,1,1.4,0,2.9.3.4,0,.5,0,1,.5Z"/>
                  </g>
                  <path class="st16" d="M72.4,267.2s0,0,0,0c-.6-1-2.4-1.1-3-.6s.9-1.2,2.2-.7.8,1,.9,1.3Z"/>
                  <path class="st32" d="M73.3,267.7c-.6.2-.9.2-1.2,0,0,0-.1,0-.2-.1-1-1.3-3.5-.4-3.2,1.2.4-.4.6-1.3,1.9-1.2.7,0-.5,0-.7.6-.4,1.1.7,1.7,1.4.9-.4-.2,0-.2,0-.5,0,0,0,0,0,0-.8.3-.7-.8.1-.6.4,0,1,.5,1,.8,0,.2,0,.3,0,.3.1-.2.2-.4,0-.5.3,0,.8-.9.8-.9Z"/>
                  <path class="st16" d="M58.9,268.7s.5-.8,1-1.1c.7-.4,2.4-.8,2.9-.7s-1.6-.5-2.8.1c-.2,0-.4.3-.6.5-.5.6-.4,1.2-.4,1.2Z"/>
                  <path class="st32" d="M59.1,268.7h0c-.4.4-1,.2-1,.2,0,0,.2.5.7.5,0,0,0,0,0,0,0,.3,0,.3.1.4,0-1,2-1.7,2.3-1.3,0,0,0,0,0,0,0,0,0,0,0,0,0,0,0,0,0,0,0,0,0,0,0,0-2.1.8.4,2.8.8,1-.3.4-.6.3-.5-.2-.1,0-.2,0-.3,0,0,0,.2,0,.3,0,.3,0,.3-.5.5-.5,0,0,.5.4.6.6,0-1.8-2.6-2-3.5-.6Z"/>
                  <g>
                    <path class="st27" d="M63.4,268.5c.2,2.2-1.6,4-3.3,4.1s-2.6-1.2-2.9-3.4.9-3.2,2.6-3.4,3.4.4,3.6,2.6Z"/>
                    <path class="st27" d="M73.8,267.7c.3,3.2-1.9,4.4-3.9,4.6-2,.2-3.1-1.3-3.3-3.7s1.1-3.5,3-3.7,3.9.4,4.2,2.9Z"/>
                    <g>
                      <path d="M74.6,268.8c.6-1.4-.8-2.6-1-3-.5-1.1-1-1.3-1.5-1.4s-.8,0-1.7,0-3.9,0-4.3,2.4c-1-.3-1.7-.2-2.6.1-.2-.4-.9-1.6-2.9-1.5-.3,0-1.2,0-2.1.3s-1,.5-1.2.8-.5,1.4-.4,2.6c0,1,.5,2.4.7,2.6s.5.8.9,1c1.8.9,2,.5,2.9.4,2-.3,3.2-2.9,3-4.9,2.8-.5,1,.4,2.7,2.9.4.6,1.4,1.4,2.4,1.6s2,0,3-.6c1.6-1,2-2.6,2.3-3.3ZM63.2,268.9c0,1.1-.2,1.9-.8,2.5-.7.8-1.9,1.1-3.2.8-.8-.2-1.1-.8-1.3-1.1-.7-1.3-.3-3.4-.2-3.8.2-.8,1.3-1.2,2-1.3,1.1-.2,2.3-.2,3,.9.3.5.5,1.3.6,1.9ZM67.8,271.1c-.5-.6-.9-1.9-1-2.7-.3-2.2.4-2.7,2.3-3.1.7-.1,1.5-.3,2.2-.2.1,0,.3,0,.4,0,.3,0,.6.1.8.3s.7.8,1,2.3c.1.5.1,1.1,0,1.8,0,0,0,0,0,0-.9,3-4.5,3.1-5.7,1.6Z"/>
                      <path class="st44" d="M76.2,265.4c0,0-1.9-.7-2.2-.8-.3,0-1.1,0-1.1.1.7.6.6,2,1.2,2.6s.5-.2.7-.4h0s.3,0,.3,0h0c1.2-.3,1.5-.7,2-.5,0-.2-.7-1-.8-1.1Z"/>
                      <g>
                        <path class="st6" d="M56.9,267.9l-1.3.8c0-.1-.5-1.3-.3-1.5,2.9-.8,2.2-1.7,1.6.7Z"/>
                        <path d="M56.9,267.9v1.4c-.5-.3-1-.1-1.3-.7l1.3-.8Z"/>
                      </g>
                      <path d="M76.5,266.8c-.1,0,.6-.2.5-.5-.4-.2-.8.2-1.8.5-1.2.2-1.7-.1-1.7-.1l.2.4c0,0,0,.3.2.6h-.3c0,.1.4,1.1.4,1.1.6-.8,1.1-.6,1.8-1.5.3-.3.5-.5.6-.5Z"/>
                    </g>
                  </g>
                  <path class="st21" d="M57.5,298.7"/>
                  <path class="st21" d="M57.3,298.7"/>
                  <g>
                    <path class="st42" d="M57.9,287.7c-.4,2.1-.2,3.6,0,4.6.3,2.8,4.2,19,4.2,19l3.7-6.9-4.1-12.1s-3.5-6.2-3.8-4.7Z"/>
                    <path class="st10" d="M61.5,297.5l2.5-.6.3,3.3-2.2,11.2s-2.9-6.5-2.5-10.5,1.9.5,1.9.5c0,0,1.8-1.2,0-3.9Z"/>
                    <g>
                      <g>
                        <g id="Background1" data-name="Background" class="st46">
                          <path class="st18" d="M68.7,317.8c-10.1,1-20.2,2-30.3,3q-3.6-35.9-7.1-71.7l67.3-6.7q3.6,35.9,7.1,71.7c-8.3.8-16.5,1.6-24.8,2.5v-1.7c.7-.3,1.4-.7,1.9-1.1.4-.3.9-.6,1-1.2-.2-1-.5-1.9-.8-2.8,9.6-8.9,11.2-21.1,1.6-31.1,0,0,.5,0,1.1-.5,1.4-1.1,1.6-3.1.7-4.6,2.5-.8,3.1-4.1.9-5.8.1-.7-.1-1.4-.6-1.8,2.2-2.3,1.3-5.8-1.5-6.8.2-2.4-2.1-3.9-4.1-3.5.2-3-2.3-5.2-4.8-3.5-2.5-2.3-6.4-3.1-9.2-1.1-3-2.7-9.3-1.1-10.7,2.8-2.4-1.6-5.7.8-4.6,3.7l-1.4,1.6c-2,.4-3.1,3-1.9,4.9-2.1,1.4-2,4.7.3,5.8-2.4.9-3.1,4.8-.5,5.9-.2,2.5,2.1,2.8,2.2,3-.3,1.2,0,2.2.8,3-4.2,4.4-5.7,11.2-4.3,17.3,1.6,6.8,7.3,11.5,12.9,14.5,0,.6-.1,1.2,0,1.9.4.4.7.6,1.1.8,2.1,1.2,5.2,1.3,7.5,1.4l.2.4Z"/>
                        </g>
                        <g>
                          <path class="st48" d="M71.1,278.5c-1,1.7-2.6,3.2-4.4,3.9-.4-.4-.8-.8-.9-1.3-.1-.4,0-1.1,0-1.5,0-.1,0-.1,0-.2,1.7.1,3.6-1.1,4.9-2,.2.4.3.8.5,1.2Z"/>
                          <path class="st15" d="M73.9,282.4c-.9-.2-1.3-.6-1.8-1.5,0,0-.9-1.8-1-2.4-1,1.7-2.5,3-4.2,3.8,0,0-.1-.1-.2-.1-.7-.6-1-1.1-1-1.1,0,0-.5,1.5-.8,1.8-.6.6-3.1,1.1-3.1,1.1l-.6,7,.2,1.4,4.5,3,10.9-5-.2-7.8-2.7-.3Z"/>
                        </g>
                      </g>
                      <g>
                        <g>
                          <path class="st24" d="M78.3,295.3s.2-.2.2-.2c0,0,0-1.4-.6-3.1s-.9-1.1-1.8-3.2c-4.1,4.9-9,5.9-11,5.3s-3.4-3.2-3.6-3.3-.3,1-.2.7c-.3,1.1-.9,2.9-.6,4.3.3,1.6,1.2,2.4,1.7,2.8.4.3,1.2.4,1.2.4,0,0,.7.7,0,2.1s-1.1,2.1-2,5.5c-.4,2.7-.3,8.3.4,10.5s3.1,11.7,3.1,11.7c0,0,13.9-1.4,15.4-1.6s2.2-13.2,2.5-13.8c-.5-2.2-1.5-4-2.2-6.1-.6-1.5-1.2-3.1-2-4.5-1.1-.7-1.1-4.3-1.1-6l.4-1.5Z"/>
                          <path class="st7" d="M77.8,295.9s0,0,0,0c0,0,0,0,0,0Z"/>
                          <path class="st7" d="M77.8,296s0,0,0,.2c0,0,0-.1,0-.2Z"/>
                        </g>
                        <path class="st14" d="M60.3,297.1"/>
                        <path class="st14" d="M60.3,297.1"/>
                        <path class="st7" d="M59.5,291s1,.3,1.7-.3-.2,1.9-.2,1.9c0,0-.9-.7-1.5-1.5Z"/>
                        <path class="st38" d="M78.9,302.5c-.5-.6-.9-2.2-1-3.7s-.1-1.2,0-1.8c.3-.5.6-1.3.6-1.8s0-1.9-.6-3.1c0,.1,1.4,2.6-1.1,4.8-1.4.9-2.8,1-4.2.7,0,0,1.3.5,2.3.4.8,0,1.7-.2,1.7-.2.5,2.2.9,3.9,2.5,7s3.2,13.2,2.9,13.8c0,0,1-.5,1.2-5.4,0-.3-1-6.8-4.3-10.8Z"/>
                      </g>
                    </g>
                    <g>
                      <path class="st15" d="M62.1,284.3"/>
                      <path class="st10" d="M59.5,291s1,.3,1.7-.3-.2,1.9-.2,1.9c0,0-.9-.7-1.5-1.5Z"/>
                    </g>
                    <path class="st39" d="M64.1,292.2"/>
                    <g>
                      <path class="st15" d="M62.3,283.9c-1,0-1.6,0-2.5.7-1.3,1-2.2,3.4-2,4.2.5,1.7,3.2,3.6,3.2,3.6,0,0,.1-.7.3-1,.4-.4.8-7.2.8-7.2l.2-.4Z"/>
                      <path class="st10" d="M60.3,288.4l1.2,2.4c0,0-.2.7-.2.9l-.3.8s0-3.2-.7-4.1Z"/>
                    </g>
                    <g class="st33">
                      <g>
                        <path class="st39" d="M66.5,289.6c-1.2-.5-2.9-1.8-3.2-2.5-.6-1.3-.6-1.7-.3-3.3s0,0,0,0c-.5-.1-1-.3-1.6.1.3,3.4,0,1.7-.3,0-.8,0-.9.1-1.3.7-.8-.2-.5.5-.6.5.3,1.5,1,3.7,1.8,5.2s2.6,4.2,5,4c.2-1-.3-3.8.3-4.7Z"/>
                        <path class="st24" d="M61.5,283.9c.2,2.9.4,3.7,2.3,5.8-2.4-2.2-2.3-3.6-2.6-5.8,0,0,0,0,.3,0Z"/>
                      </g>
                      <g>
                        <path class="st39" d="M78.9,283.1c0-.6-1.1-.7-1.6-.4-1.5,2-1.4,2,0,0-.4-.6-.7-.6-1.7-.2,0,.1,0,.3,0,.4-.1,2.1-2.2,4.5-4,5.7-1.4.9-3.5,1.4-5,1-.6,1.1-.3,3.6-.3,4.7,2.5.1,6.1-1.6,8.8-4.2s2.2-2.9,3.4-4.5,1.5-2,1.2-2.3c0,0,0-.3-.7-.2Z"/>
                        <path class="st24" d="M77.4,282.7c-1.3,2.2-2.3,4.3-5,6.7,2.5-2.3,3.6-4.6,4.8-6.8.1,0,.2,0,.2,0Z"/>
                      </g>
                      <path class="st24" d="M61.8,289.4c2.3,3.3,5.4,2.8,8.6,1.3,1.6-.4,4.9-2.7,2.2.1-1.3,1.4-3,2.5-5,2.8-2.7.7-5.9-1.5-5.8-4.3h0Z"/>
                    </g>
                    <path d="M54.1,279.3s0,0-.1,0c0,0,.1,0,.1,0Z"/>
                  </g>
                  <g>
                    <g>
                      <path class="st1" d="M55.9,255.1s0,0,0,0c2.6,0,5.1-.3,7.2,1.1,0,0,.1,0,.2,0,0-.2,0-.5-.2-.8,1.1-2.1-.2-4-2.1-2.9-.2-.1,0-.2,0-.2-.2-.3-.8-.8-1.1-1,0,0-.5-.1-.5-.1-1.7,0-2.8,1.6-1.9,3.2-.8,0-1.3.3-1.7.7Z"/>
                      <path class="st1" d="M65.5,255.3c1.2,0,2.5.9,3.7.7,1.5-.2,2.9-1.3,4.4-1.4.8,0,1.5,0,2.3,0,0,0,.2,0,.3,0-.7-.3-1.1-2.2-2.7-1.7-.5,0-.7.7-1.2.5-.3-.1-.7-1.8-2.8-1.1-.2.1-.7-.7-1.3-.9-1-.4-2.6-.2-3.1.9-.1.2-.3,1.7-.9,2.5.1,0,.2.1.3.2.4,0,.7.2,1.1.2Z"/>
                      <path class="st1" d="M63.2,255.4c0,.3.1.6.2.8.3,0,.6,0,.9,0,.4,0,.9-.2,1.3-.3.2-.1.5-.2.7-.3,0,0-.2,0-.3,0-.1-1-.8-2.2-.9-2.5-1.5,1.1-.9-1.6-2.6-1.6-.5,0-1.1.2-1.3.7,0,0-.3.1,0,.2,1.9-1.1,3.2.8,2.1,2.9Z"/>
                    </g>
                    <path class="st43" d="M68.4,254.9c.7.2.1.9.9,1.1,2.5-.4,2.9-1.3,4.5,0-.2-.3,0-.9-.3-1.1-1.5-.9-2.2,0-2.8,0-.6-.2-1.8-1.7-3.5.4.5.1.8-.4,1.3-.3Z"/>
                  </g>
                  <g>
                    <g>
                      <path class="st2" d="M77.1,274.5c0-.3,0-.7-.1-.8s-.2-.3-.4-.1-.2.6-.2,1,0,.5.1.5c.2.2.4.2.5,0,.2-.4.1-.4.1-.6Z"/>
                      <path class="st26" d="M77.2,274.4c0-.4,0-.7-.2-.7-.4-.1-.1.4-.5.7s0,.5,0,.5c.4.6.7-.2.7-.5Z"/>
                    </g>
                    <g>
                      <g>
                        <path class="st2" d="M77,272c0-.3,0-.7-.1-.8s-.2-.3-.4-.1-.2.6-.2,1,0,.5.1.5c.2.2.4.2.5,0,.2-.4.1-.4.1-.6Z"/>
                        <path class="st26" d="M77.1,271.9c0-.4,0-.7-.2-.7-.4-.1-.1.4-.5.7s0,.5,0,.5c.4.6.7-.2.7-.5Z"/>
                      </g>
                      <g>
                        <path class="st13" d="M77.1,273.6h-.8c0,0-.1,0-.1,0v-.6c0,0,0-.1,0-.2h.8c0,0,.1,0,.1,0v.6c0,0,0,.1,0,.2Z"/>
                        <path class="st25" d="M77.1,273.3h-.8c0,0,0,0,0,0v-.3s0,0,0,0h.8c0,0,0,0,0,0v.3s0,0,0,0Z"/>
                        <path class="st8" d="M77,272.7h-.7c0,0,0,0,0,0h0c0-.2,0-.2,0-.2h.7c0,0,0,0,0,0h0c0,.2,0,.2,0,.2Z"/>
                        <path class="st8" d="M77.1,273.8h-.7c0,0,0,0,0,0h0c0-.2,0-.2,0-.2h.7c0,0,0,0,0,0h0c0,.2,0,.2,0,.2Z"/>
                      </g>
                      <g>
                        <path class="st2" d="M77.2,277.1c0-.3,0-.7-.1-.8s-.2-.3-.4-.1-.2.6-.2,1,0,.5.1.5c.2.2.4.2.5,0,.2-.4.1-.4.1-.6Z"/>
                        <path class="st26" d="M77.3,277c0-.4,0-.7-.2-.7-.4-.1-.1.4-.5.7s0,.5,0,.5c.4.6.7-.1.7-.5Z"/>
                      </g>
                      <g>
                        <path class="st13" d="M77.2,276.1h-.8c0,0-.1,0-.1-.1v-.6c0,0,0-.1,0-.2h.8c0,0,.1,0,.1.1v.6c0,0,0,.1,0,.2Z"/>
                        <path class="st25" d="M77.2,275.8h-.8s0,0,0,0v-.3s0,0,0,0h.8s0,0,0,0v.3s0,0,0,0Z"/>
                        <path class="st8" d="M77.1,275.2h-.7s0,0,0,0h0c0-.2,0-.2,0-.2h.7s0,0,0,0h0c0,.2,0,.2,0,.2Z"/>
                        <path class="st8" d="M77.2,276.3h-.7s0,0,0,0h0c0-.2,0-.2,0-.2h.7s0,0,0,0h0c0,.2,0,.2,0,.2Z"/>
                      </g>
                    </g>
                  </g>
                </g>
                <g>
                  <g>
                    <g>
                      <path class="st16" d="M88.4,299c.2-1.1,0-2.2-1.2-3.6,1.5,3.1-2.7,7.2-5.8,9.4-.8.6-.5,1.4.2.8,2.2-1.8,6.6-5.8,6.7-6.5Z"/>
                      <path class="st3" d="M83.3,299.2"/>
                      <path class="st3" d="M84,298.2c.1.2.2.4.4.5-.2.3.3-.1,0,.3-.4,0-2.8-3.9-4.7-6.6s-.9-.9-1.1-1c-.3-.1-1.1-.9-1.1-.9,0,0-.8-1.4-.9-1.7s1.5.7,1.5.7c0,0,.2.3.6.9,1.3,1.9,4.6,6.6,5.4,7.9Z"/>
                    </g>
                    <path class="st40" d="M80.4,300.5"/>
                  </g>
                  <path class="st42" d="M83.9,297.8s.2-1.1,1.2-1.4c-.8.5-1.4,2.1-1.7,2.9s-.6.7-.9,1c-1,1.1-.9,1.3-1.9,2.4,0,0-.2,1.6-.7,1.9,0,.2,1.4.1,1.5.1,2.8-1.5,8-6.2,6.1-9.2-4.6-8.9-4.3.4-3.6,2.1Z"/>
                </g>
                <path class="st3" d="M78.9,294.9"/>
                <g>
                  <g>
                    <path class="st9" d="M77.8,307.1c.3,0,1.9-.9,2.2-1.1.2-.1,1-.8.9-1-.8.5-1.5,1.3-2.4,1.6-.2.1-.2,0-.2,0,0,0-.2,0-.2,0-.4.3-.2.2-.6.2,0,0-.1.2,0,.2.1,0,.2,0,.3,0Z"/>
                    <path class="st9" d="M78.1,309.3c.4.1.8.2,1,.2.8-.1,1.5-.9,2.1-1.5.2-.2.9-1.1.8-1.4-.8,1-2.6,3-3.9,2.5,0,0,0,.1,0,.1Z"/>
                    <path class="st9" d="M77.9,308.5c1.1-.4,2.4-.9,3.1-2,.1-.1.5-.5.3-.7-.8,1.2-2.2,2.1-3.6,2.4,0,0-.1,0-.2,0,.2,0,.2.3.3.3Z"/>
                    <path class="st45" d="M79.6,309.9c.2,0,.4-.1.5-.3.1-.3-.4-.2-.5-.3-.4.4-.8.4,0,.7Z"/>
                    <path class="st29" d="M82.6,304.6c0,0-.2-1.3-1.3-1.3,0,0-.5-.6-.8-.8s-1.4-.2-1.4-.2c0,0,.3.4.5.6s.3.4.4.5c.1.2,0,.4,0,.4,0,0-1,1.4-1.2,1.6-.7.6-1.9,1-1.4,1.2,0,0,.3.3.6.2.8-.4,2.1-1.2,2.9-1.9,0,.2-.7.9-.9,1-.3.2-2.2,1.2-2.4,1.4-.2.1-.2.3-.3.5.5-.1.4-.3.5.4,1.4-.3,2.8-1.2,3.6-2.4.2.2-.2.6-.3.7-.8,1.1-2,1.6-3.1,2,0,0,0,.2,0,.2,0,0,.2.2.2.4,1.3.4,3.1-1.5,3.9-2.5,0,.3-.6,1.1-.8,1.4-.6.7-1,.6-1.7,1.1.2,0,.7,0,.5.3.2-.1,1.4-.8,2.2-1.9s.3-1.2,0-2c0,0,.2-.8.2-1Z"/>
                  </g>
                  <path class="st45" d="M77.9,309.4c.2,0,.4-.1.5-.3.1-.3-.4-.2-.5-.3-.4.4-.8.4,0,.7Z"/>
                  <path class="st45" d="M77.5,308.3c.2,0,.4-.1.5-.3.1-.3-.4-.2-.5-.3-.4.4-.8.4,0,.7Z"/>
                  <path class="st45" d="M77.4,307.1c.2,0,.4-.1.5-.3.1-.3-.4-.2-.5-.3-.4.4-.8.4,0,.7Z"/>
                </g>
                <path class="st16" d="M82.4,305.7s.2-.5-.2-.7c0,0-.2-.6-.6-.8,0,0-.2-.7-.6-.6l-.3-1s1.3.5,1.8,1.6.2.5.2.5c0,0-.1.5-.2.6s-.2.4-.2.4Z"/>
                <g>
                  <path class="st23" d="M83.1,304.8c.2-.1.2-.7,0-1.2-.2-.3-.4-.6-.6-.7,0,0,0,0,0,0,1.1,1.4.2,1.7.2,1.7,0,0,0,0,0,0,.2,0,.3.1.4,0Z"/>
                  <path class="st23" d="M81,301.5s0,0,0,.1c0,.1.2.3.2.3,0,0,0-.1,0-.2,0-.2-.3-.2-.4-.2Z"/>
                  <g>
                    <path class="st23" d="M81.3,300.2s.3.2.3.3c.1.1.3.3.3.3,0,0,0-.1,0-.2,0-.2-.6-.4-.6-.4Z"/>
                    <path class="st23" d="M84.5,303.7c0-.1-.2-.7-.6-1.2-.3-.3.2.4.3.5s.2.4.3.5c0,.2-.3,0-.3,0h0c0,.1,0,.2,0,.2.2.1.2.1.3,0Z"/>
                    <path class="st25" d="M81.5,299.5c-.1,0-.4.2-.2.6,0,0,.5.4.8.7.3.2,1.3,1.3,1.6,1.6.5.5.9,1.1.8,1.2,0,0-.2,0-.3,0,0,.1.5,1,.9.4s0-.2,0-.4c-.2-.9-1.6-2.2-2.1-2.8-.3-.3-.6-.6-.9-.8-.2-.2-.5-.4-.7-.4Z"/>
                  </g>
                  <path class="st13" d="M84.3,303.2s-1.1-1.6-2.2-2.4c0,0,1.1.5,2.2,2.4Z"/>
                  <path class="st25" d="M81.7,300.7c-.1,0-.3,0-.4,0-.1,0-.3.1-.3.3,0,.1,0,.3,0,.4,0,0,0,.1,0,.2,0,0,.5.2.7.5.3.2,1,1.3,1.2,1.6.3.5.5,1.1.2,1.2-.1,0-.3,0-.4,0,0,.1.5.6,1.1.3.2-.1.3-.2.4-.4.4-1-.6-2.2-1-2.7-.2-.3-.5-.6-.7-.8-.2-.2-.5-.4-.7-.4Z"/>
                  <path class="st28" d="M83.5,304.3s-.5-1.8-1.9-2.8c0,0-.5-.4-.2-.5s1.7.5,2.1,3.3Z"/>
                  <path class="st28" d="M84.4,302.4s-1.4-1.4-2-1.9c-.1,0-.9-.5-.6-.6s2,1.7,2.6,2.5Z"/>
                </g>
                <path class="st38" d="M64.8,299.1c.7,0,1.3-.6,1.3-.6-.7.5-2.1.4-2.1.4,0,0,.2.2.2.7,0,.5,0,1.2-.3,1.8-.4,1-.8,1.9-1,2.6-.3.7-.5,1.5-.6,2,0,.3-.1.5-.1.5-.8,2.9.2,9,.2,9,0,0,0-5.9.9-9,.4-1.4,1.7-7.5,1.7-7.5Z"/>
                <path class="st3" d="M84.3,297.4c.4-.8,1.4-1.6,1.4-1.6,0,0-.8.5-1.1.7s-.9,1.3-.9,1.3c0,0,.2.1-.3,1.5"/>
              </g>
              <rect class="st0" x="48.9" y="243.6" width="40.3" height="84.5" rx="10" ry="10" transform="translate(-28 8.2) rotate(-5.7)"/>
              <g>
                <rect class="st44" x="56.1" y="243.7" width="18.8" height="4.2" rx="2.1" ry="2.1" transform="translate(-24 7.7) rotate(-5.7)"/>
                <rect class="st17" x="68.7" y="244.6" width="1.6" height="1.5" rx=".7" ry=".7" transform="translate(-24 8.1) rotate(-5.7)"/>
                <rect class="st12" x="71.5" y="244.4" width="1.6" height="1.5" rx=".7" ry=".7" transform="translate(-23.9 8.4) rotate(-5.7)"/>
              </g>
            </g>
            <g>
              <rect class="st5" x="65.6" y="293.1" width="12.8" height="50.1" transform="translate(381.1 214.3) rotate(84.2)"/>
              <rect class="st5" x="94.4" y="306.2" width="5.3" height="18.7" transform="translate(225.6 619.6) rotate(174.2)"/>
              <rect class="st5" x="44.8" y="311.2" width="5.3" height="18.7" transform="translate(127.3 634.7) rotate(174.2)"/>
              <rect class="st5" x="66.6" y="320.7" width="10.6" height="41" transform="translate(143.9 682.4) rotate(180)"/>
            </g>
          </g>
          <path class="st5" d="M85.4,361.3h-26.9c-2.2,0-4.1,2.2-4.1,4.9v2.1c0,2.4,1.5,4.5,3.5,4.8,0,.3,0,.5,0,.8,0,2.7,1.8,4.9,4.1,4.9h20c2.2,0,4.1-2.2,4.1-4.9s0-.6,0-.8c2-.3,3.5-2.4,3.5-4.8v-2.1c0-2.7-1.8-4.9-4.1-4.9Z"/>
          <rect class="st5" x="66.6" y="371.1" width="10.6" height="70.8"/>
        </g>
      </g>
    </g>
  </g>
</svg>