<?xml version="1.0" encoding="UTF-8"?>
<svg id="Layer_1" xmlns="http://www.w3.org/2000/svg" version="1.1" viewBox="0 0 310 491"> 
<defs>
    <style>
      .st0 {
        fill: #c45f41;
      }

      .st1 {
        fill: #c05e58;
      }

      .st2 {
        fill: #f3d5b5;
      }

      .st3 {
        fill: #232323;
      }

      .st4 {
        fill: #8e3226;
      }

      .st5 {
        fill: #f7b750;
      }

      .st6 {
        fill: #a34737;
      }

      .st7 {
        fill: #e5decc;
      }

      .st8 {
        fill: #23110a;
      }

      .st9 {
        fill: #b14f3d;
      }

      .st10 {
        fill: #281a26;
      }

      .st11 {
        fill: #f0935d;
      }

      .st12 {
        fill: #ede1ef;
      }

      .st13 {
        fill: #bdeded;
      }

      .st14 {
        fill: #c12e4b;
      }

      .st15 {
        fill: #c35f41;
      }

      .st16 {
        fill: #c7a78d;
      }

      .st17 {
        fill: #f8edf9;
      }

      .st18 {
        fill: #e5fdfe;
      }

      .st19 {
        fill: #dcc1a4;
      }

      .st20 {
        fill: #dcb5d8;
      }

      .st21 {
        fill: #2e643c;
      }

      .st22 {
        fill: #fbfbfc;
      }

      .st23 {
        fill: #ac8577;
      }

      .st24 {
        fill: #fcf4e1;
      }

      .st25 {
        opacity: .2;
      }

      .st25, .st26 {
        fill: #7aebe9;
      }

      .st27 {
        fill: #c9892d;
      }

      .st28 {
        fill: #957367;
      }

      .st29 {
        fill: #e6794d;
      }

      .st30 {
        fill: #e5d4e8;
      }

      .st31 {
        fill: #511407;
      }

      .st32 {
        fill: #deba9d;
      }

      .st33 {
        fill: #17ae9d;
      }

      .st34 {
        fill: #d53a5c;
      }

      .st35 {
        fill: #bfcbb8;
      }

      .st36 {
        fill: #e67a4d;
      }

      .st37 {
        fill: #353535;
      }

      .st38 {
        fill: #120f12;
      }

      .st39 {
        fill: #320532;
      }

      .st40 {
        fill: #1d121b;
      }

      .st41 {
        fill: #4e0b1b;
      }
    </style>
  </defs>
  <g>
    <path class="st36" d="M248.3,270.7c-2.2-8.5-5.3-16.7-10.9-23.4-10.9-12.9-23.1-9.9-31.9-12.7-2,4.3-5.1,12.5-14.8,22.2,2.5,2.7,14.8-22.2,14.8-22.2l6,1.2s-13.5,34.3-5.8,47.5,6.9,14.5,7.3,16.3c.4.9.7,1.9,1,2.9,1,2.2,4.1,13.7,3.3,22.2,1-.4,1.9-1.3,3.1-2.5,6-5.8,22-23.2,24.4-29.6.8-2.1,4.9-15.8,3.6-21.9Z"/>
    <g>
      <g>
        <path class="st4" d="M235.5,348c-.8,1.3-2.1,2.4-2.3,4.1-2.5-.6-6.3-1.1-9.7-1.9-2-4.2-2.7-11.4-3.8-14.3,9.8-1.1,13.9-1.9,23.1-5.1,7.4-2.5,0,5.3-7.3,17.2Z"/>
        <path class="st4" d="M233.2,352.1c.2-1.6,1.5-2.8,2.3-4.1,6.5,2.8,14.2,4.6,18.5,10.8-6.3-3.6-13.7-5.1-20.8-6.8Z"/>
      </g>
      <path class="st29" d="M217.2,324.7c-.5,8.4,3.8,17.8,4.7,20.8,0,.1,8.9,1.6,13.5,2.5,0,0,0-.1.1-.2,0,0,0,.1-.1.2,6.5,2.8,14.2,4.6,18.5,10.8-6.3-3.6-13.7-5.1-20.8-6.8-2.5-.6-6.3-1.1-9.7-1.9-.1,0-.2,0-.4,0,.5.6,1,1.3,1.5,2,.2.3.4.7.6,1,5.4,1.4,10.8,3.1,16.3,4.5,2.2.6,4.4,1.1,6.7,1.6.5.1,4.9.8,4.8.9,1.9.2.7,6.1,2.7,6.1.7,0,7.3,2.8,8,.9s-.3-10.4-.4-12-1-17.7-2.4-31c-7.4-35.2-8.2-42.3-13-55-.5-1.2-22.8,10.2-21.9,20.8-3.8,10.6-11.4,11.2-11.1,14.4,0,.4,3.1,9.1,2.4,20.3Z"/>
    </g>
  </g>
  <g>
    <path class="st11" d="M176.6,106.5l4.9,22.7s2.5,3.6,3.9,3c4-1.7,6.9-8.9,6.9-16.8s-3.9-13.8-3.9-13.8l-11.8,4.9Z"/>
    <path class="st0" d="M212.1,141l1,2c1,2-3,3-3,3-1.1.4-2,1-3,0l1-4.9c1-2,3.6-.5,3.9,0Z"/>
    <g>
      <path class="st13" d="M213.1,148.9c0-2,0-4.9-1-5.9s-1.8-2-3-1c-.8.7-1.8,4.5-2,6.9,0,.8.4,3.4,1,3.9,1.9,1.5,3.2,1.3,3.9.2,2-3.1,1-2.7,1-4.1Z"/>
      <path class="st26" d="M213.7,148.1c-.2-2.7-.4-4.8-1.5-5.1-3-1-1,3-3.9,4.9-1.2.8-.5,3.3,0,3.9,3.3,4.1,5.7-1,5.5-3.7Z"/>
    </g>
    <path class="st35" d="M178.1,472.2v2c-16.6,0-33.2,0-49.8,0l-1.5-3c16.9,1.8,34.2,2.5,51.2,1Z"/>
    <g>
      <g>
        <path class="st38" d="M222,120c-3.1-1.7-1.7,4.8-10.8,5.4,0-7.5-1.4-10.3-6.9-15.5l.7-.7c2.2.7,15.2,6.3,15.8,6.9.9,1,.8,2.4,1.2,3.9Z"/>
        <path class="st38" d="M222,120c.5,1.8.2,4.8,1,5.4-1.1.3-8.8,7.9-12.3,7.4.5-2.2.5-5.1.5-7.4,9.2-.6,7.7-7.2,10.8-5.4Z"/>
      </g>
      <g>
        <path class="st38" d="M71.8,53.5c-1.6,2-3.5,3.7-4.9,5.9.2-1.4.7-2.7.5-4.2-1.5-.5-10-7.1-10.3-7.6-.3-.4-2-8.3-2-9.1.1-4,2.9-8.1,5.9-10.6-6.1,13.5,9.4,19.3,10.3,21.9.5,1.5-1.1,3.4.5,3.7Z"/>
        <path class="st38" d="M283.1,67.8c4.2,7,2.8,10.4,0,18,4.7,1.1,5.3.4,9.9,2.7l-.2,1c-1-2-.6,1.7-5.9-1.5-1.2,5.6-7.2-2.5-4.7,5.2-6.6,3-2.2-16.7,2-17.7.3-.8-5.6-11.2-1-7.6Z"/>
        <path class="st10" d="M37.3,162.9c-.3.1-1.5,1.8-5.2,3-.6-.1-4.6-10.3-4.7-10.8-1.7-8.3,2.6-10.9,3.4-12.3q6.9-4.6,13.8-9.1-.5-4.6-1-9.1c.1-2.8-8.3-7.1-13.8-10.8-2.2-4.6-1.1-10.2,2-14.3,8.7-3.9,19.6-1.7,19.7-8.1,0-.5-2.2-5.9-2.5-10.1-.7-11.1,14.5-13.2,15.8-14.5.5-.6,1.8-5.8,2-7.1,1.4-2.2,3.3-3.9,4.9-5.9,2.3-2.8,3.7-.4,2-9.1,15.9-17.7,15-11,37.2-8.1,3.3-.8,3.3-15,10.3-16.3,9.9-1.7,12.4,10.6,8.4,13.8-3.8,3-3.3-2.7-6.9-7.9-3.9,23.3-18.3,15.6-36,13.3-8.7,6-4.6,10.5-5.7,13.5-.3.8-7.9,7.3-8.4,8.4-3.1,6.6,5.4,5.4-17.2,17.2-2.4,6.2,9.3,16.8-7.1,23.9-4.7,2-17.2,2.2-13.8,6.4,2.7,3.4,15.8,6.2,16.5,18,1.5,23.5-27.8,10.6-13.8,36.2Z"/>
        <path class="st10" d="M285.6,159.4c-.1-.1-.3-.3-.5-.5-.3-18.9-12.6-12.9-20-17.7-4.8-3.1-8.1-20,14.5-19,5.7,8.2-14.4,6.6-12.3,10.8.5,1,15.6,6.3,17.7,8.9,3.1,3.7,3.1,14.4.5,17.5Z"/>
        <path class="st40" d="M30.9,142.7c-.8,1.4-5.1,4-3.4,12.3-6-2.2-15.4-2.8-14.3-11.1,1.9-13.4,16.2-1.2,17.7-1.2Z"/>
        <path class="st40" d="M43.7,124.4q.5,4.6,1,9.1-6.9,4.6-13.8,9.1c.6-1,2.2-2.1,2.5-2.7,2.1-5.6-4.5-9.7-3.9-15.3l14.3-.2Z"/>
        <g>
          <path class="st38" d="M75.7,120q-.6,4.9-1.2,9.9c-3.2-2.1-6.8-1.7-8.6-5.4q4.9-2.2,9.9-4.4Z"/>
          <path class="st33" d="M87,116.1c-1.4,3.6-2.8,5.6-3,9.9-3.5,2-1.2-8.7,3.4-12.1q-.2,1.1-.5,2.2Z"/>
        </g>
        <g>
          <path class="st40" d="M295.9,143.9c1.5-17.3-7.7-17.3-8.4-18.2-3.1-4.3,5.7-3.9,10.3-9.4,7-8.3,4.9-22.8-4.9-27.8l-.2,1c-1-2-.6,1.7-5.9-1.5-1.2,5.6-7.2-2.5-4.7,5.2-6.6,3-2.2-16.7,2-17.7.3-.8-5.6-11.2-1-7.6-4-6.6-11.1-9.6-18.5-6.4-2.8-.6,1-6.1-10.1-12.1,8.6-16-11.7-29-21.9-14-18.2-20.4-43.6-29.5-69-15.8-17.3-19.6-49.9-17.2-67.7.2-1.7,1.7,0,4.1-13.1,9.6-2,0-10.3-11.1-21.9-1.5-6.1,13.5,9.4,19.3,10.3,21.9.5,1.5-1.1,3.4.5,3.7,2.3-2.8,3.7-.4,2-9.1,15.9-17.7,15-11,37.2-8.1,3.3-.8,3.3-15,10.3-16.3,9.9-1.7,12.4,10.6,8.4,13.8-3.8,3-3.3-2.7-6.9-7.9-3.9,23.3-18.3,15.6-36,13.3-8.7,6-4.6,10.5-5.7,13.5-.3.8-7.9,7.3-8.4,8.4-3.1,6.6,5.4,5.4-17.2,17.2-2.4,6.2,9.3,16.8-7.1,23.9-4.7,2-17.2,2.2-13.8,6.4,2.7,3.4,15.8,6.2,16.5,18,1.5,23.5-27.8,10.6-13.8,36.2-.3.1-1.5,1.8-5.2,3-.6-.1-4.6-10.3-4.7-10.8-6-2.2-15.4-2.8-14.3-11.1,1.9-13.4,16.2-1.2,17.7-1.2.6-1,2.2-2.1,2.5-2.7,2.1-5.6-4.5-9.7-3.9-15.3l14.3-.2c.1-2.8-8.3-7.1-13.8-10.8-2.2-4.6-1.1-10.2,2-14.3,8.7-3.9,19.6-1.7,19.7-8.1,0-.5-2.2-5.9-2.5-10.1-.8,0-1.5,0-2.3,0,.7,0,1.5,0,2.3,0-.7-11.1,14.5-13.2,15.8-14.5.5-.6,1.8-5.8,2-7.1.2-1.4.7-2.7.5-4.2-1.5-.5-10-7.1-10.3-7.6-1.2.2-2.4.9-3.4,1.5-.6.9-1.1,1.8-1.5,2.7.4-.9.9-1.8,1.5-2.7-7.9,4.3-5.3,3.6-9.1,11.3-18.9-1.5-26,16.9-12.6,29.8-2.6.9-5.3,1.1-7.9,2.2-2.1.8-3.3,1.4-4.9,3-9.4,8.8-5,21.2,5.9,25.9.7,1.8-4,4.5,0,13.8-18.6-2.1-25.3,18.9-7.9,27.1-3.7,9.1,2.9,21.1,13.1,17.5,8.2,8-2,8.1-.2,19.5,1.4,8.9,13.9,14.5,21.4,9.1,10.6,4.4,5.5,5.1,9.1,10.1,4.7,6.4,16.2,5.8,21.4.2,1.4.3.7,13.9,19.7,11.3,4.6-8.1,6.1-2.5,13.3-5.9,5.3-2.6,5.3-9.7,10.6-4.9,2.8-4,4.5-9,8.4-12.3,0-.7.1-.9.5-1.5-7.6-1.3-26.5-15.5-32.6-20.9-10.3-9.1-16.3-17.2-16.2-31.1.2-.6-.4-8.3-1.5-10.6-.4-.8-.3-9.3,0-16.8-3.5,2-1.2-8.7,3.4-12.1q-.2,1.1-.5,2.2c.2-.4,1.4-3.3,1.5-3.4,1.4-2.6,2.5-6.9,6.4-5.7q-1-1.4-2-2.7c1-9.3,7.8-31.8,17.2-36,5.6-2.5,10.9,1.2,17.5-8.4,22.6,12.7,31.3-2.3,33-3,6.8-2.6,8.7,5.2,9.1,5.7,7.8,8.9,15.9,5.6,22.7,17.7,2.7,4.8,3.5,11.1,6.4,15.8,1.2,2-.8,16.4.4,19.3,4.5,10.2,3.9,20.7,1,25.3,6.6-10.5,1.7,3.6,7.9-2,.6-1.3,2.3-5.2,2.5-5.9.5-2.2.5-5.1.5-7.4,0-7.5-1.4-10.3-6.9-15.5l.7-.7c2.2.7,15.2,6.3,15.8,6.9.9,1,.8,2.4,1.2,3.9.5,1.8.2,4.8,1,5.4,11.6-2.8,16.9,18.7,3.2,30.1-10.6,8.8-16.3-2.4-22.9,7.6-.3.5-.9,4.6-5.4,11.1-6.1,8.8-16.4,15.2-25.6,20.2,1.2,2.8,1.6,5.9,2.5,8.9.7,2.3,1.9,5.1,2,5.4,5.6.6,7.8,6.5,10.8,8.4.6.3,3.5.9,4.7,1,6.9,13.6,25.2,10.5,29.6-3.9,9.5,10,24,12,28.1-3.9,7.2,0,12.4.8,17.2-5.4,18.1,2,24.9-16.2,12.1-28.3q3.1-4.1,6.2-8.1c6.1,1.5,11.8.1,15-5.4,4.1-7,2.1-14.3-4.4-19ZM50.9,54.3c-.3.8-.5,1.6-.7,2.4.2-.7.4-1.5.7-2.4ZM34.6,63.3c.6-.2,1.1-.4,1.7-.5.6,0,1.1-.1,1.7-.1-.6,0-1.2,0-1.7.1-.6,0-1.1.2-1.7.5-.4.2-.8.4-1.1.6.4-.3.8-.5,1.1-.6ZM29.9,69.7c.1-.5.3-1,.4-1.5-.2.5-.3,1-.4,1.5-.2.8-.2,1.6-.1,2.4,0-.8,0-1.6.1-2.4ZM285.6,159.4c-.1-.1-.3-.3-.5-.5-.3-18.9-12.6-12.9-20-17.7-4.8-3.1-8.1-20,14.5-19,5.7,8.2-14.4,6.6-12.3,10.8.5,1,15.6,6.3,17.7,8.9,3.1,3.7,3.1,14.4.5,17.5Z"/>
          <g>
            <path class="st10" d="M176.5,21.5c12.4-1.2,21.4,20.1,44.8,12.3,11.4,15.1,21,10.5,16,28.8,2.6,1.3,12.3,9.8,13.1,10.1,5.4,1.9,21.4-2.9,16.5,17,4.7,1.6,21.1,8.1,23.2,11.8,2.3,4.3.7,12.8-4.2,14.5-11.4,4-.8-9.5-1.2-11.1-12.3-11.3-29.5-.8-22.7-24.1q-6.5-.6-13.1-1.2c-8.3-10.9-13-8-16-11.6-7.9-9.5,12.3-22.3-19.5-18q-1.2-4.2-2.5-8.4c-12.1.4-22.6-6.5-32-13.3-4.2-.3-16.9,8-14-.7.6-1.9,9.4-6,11.6-6.2Z"/>
            <path class="st39" d="M222.8,39.7c3-.2-2.5,2.1-3.4,2.5-11.8,4.3-3.4-2,3.4-2.5Z"/>
          </g>
        </g>
      </g>
      <g>
        <g>
          <g>
            <path class="st4" d="M174.7,203.3c-9,11.4-21.5,20.2-35.5,24.1-2.3-3-5.3-5.9-5.9-9.9-.4-2.9.2-7.8.5-10.8,0-.7.1-.9.5-1.5,12.3,2.2,27.2-5,37.9-10.8,1.2,2.8,1.6,5.9,2.5,8.9Z"/>
            <path class="st29" d="M176.7,208.7c.4,2,.7,4.1,1,6.2-7.2,8.5-18,14.9-28.6,18.5-2.4.8-1.9,1-2,1-.7.2-.4.7-2.5-.5-.3-.2-1.3-.8-1.5-1-.3-.2-3.3-4.6-3.9-5.4,14-3.9,26.5-12.7,35.5-24.1.7,2.3,1.9,5.1,2,5.4Z"/>
          </g>
          <path class="st29" d="M200.3,165.3c-6.3,16.5-48.3,36.8-60.4,36.5-15.3-.5-45.9-25.5-49.5-41.6,5.4,1.1,11,1.2,16.3-.2.6.8,3,3,6.4,8.4,6.9,10.8,11,22.1,26.6,20.2,12.5-1.5,15.5-10,19.2-14.3,3.2-3.7,6.7-7.2,9.9-10.8,3.5.9,7.5,1.4,11.1,1,2.1-.3,11.6-4,10.6-5.9,2.3-1.1,8.2-5.5,9.9-7.4,1.9,4.5,1.8,9.7,0,14.3Z"/>
          <path class="st1" d="M190.5,158.4c1,1.9-8.5,5.6-10.6,5.9-3.6.5-7.6-.1-11.1-1,.4-.5.6-1.4,1-2,6.7,1.4,14.6,0,20.7-3Z"/>
          <g>
            <path class="st29" d="M197.9,174.2c-1.7-1.6,4.6-6,2.5-8.9,1.8-4.6,1.9-9.8,0-14.3,1.7-1.8,5.8-9.6,6.8-12,.6-1.3,3.4-5.5,3.5-6.2,3.5.5,11.2-7.1,12.3-7.4,11.6-2.8,16.9,18.7,3.2,30.1-10.6,8.8-16.3-2.4-22.9,7.6-.3.5-.9,4.6-5.4,11.1Z"/>
            <path class="st6" d="M225,144.1c1.9,6.9-4.8,7.7-7.1,6.4-2.4-1.4-3.6-10.2-2.2-13.3,4.2,1.7,8.5,10.5,9.4,6.9Z"/>
            <path class="st31" d="M225,144.1c-.9,3.6-5.2-5.2-9.4-6.9,2-4.5,16.6-7.4,14,4.4-1.3-9.6-9.4-5.7-9.6-4.7-.2.8,4.1,4,4.9,7.1Z"/>
          </g>
          <path class="st11" d="M167.8,161.9c-1.7.4-3.2,2-5.4,2.5-18.8,4.1-34.4,5.3-51.7-4.4-1-.5-2-1-3-1.5,14.3-3,24.7-18.9,24.4-33,20.9-1.9,7.4,3.4,18,22.4,4.3,7.8,9.9,10.6,17.7,14Z"/>
          <g>
            <path class="st41" d="M107.7,158.4c1,.5,2,.9,3,1.5,2.3,3.6,7.3,6.6,10.8,9.9.2.2,1,2.6,2.5,4.2.7.7,1.7,1.2,2.5,1.7-3.8,1.9-9.7-5.5-13.3-7.4-3.4-5.4-5.8-7.5-6.4-8.4,0,0,0-.7-.5-1.5.5,0,1,0,1.5,0Z"/>
            <path class="st41" d="M169.8,161.4c-.4.6-.5,1.5-1,2-3.2,3.7-6.7,7.2-9.9,10.8-1.5.2-6,1.1-6.9,1.5,2.2-2.5,4.6-4.9,6.9-7.4,1.2-1.2,2.7-2.5,3.4-3.9,2.2-.5,3.7-2.1,5.4-2.5l2-.5Z"/>
            <path class="st34" d="M159,174.2c-3.8,4.3-6.7,12.8-19.2,14.3-9.4-.5-18.1-11-12.8-12.3,11.7,7,19.9,1.4,25.1-.5.9-.3,5.4-1.3,6.9-1.5Z"/>
            <path class="st14" d="M126.4,175.7c.6.4.5.5.5.5-5.3,1.3,3.4,11.9,12.8,12.3-15.6,1.9-19.7-9.4-26.6-20.2,3.6,1.9,9.5,9.3,13.3,7.4Z"/>
            <path class="st14" d="M162.4,164.3c-.8,1.5-2.3,2.7-3.4,3.9-12.1,4.3-25.1,5.5-37.4,1.5-3.6-3.3-8.6-6.3-10.8-9.9,17.3,9.7,33,8.5,51.7,4.4Z"/>
            <path class="st22" d="M159,168.3c-2.3,2.5-4.7,4.9-6.9,7.4-5.2,1.9-13.4,7.5-25.1.5,0,0,0-.1-.5-.5-.8-.6-1.8-1-2.5-1.7-1.5-1.6-2.3-4-2.5-4.2,12.3,4,25.4,2.8,37.4-1.5Z"/>
          </g>
        </g>
        <g>
          <g>
            <path class="st22" d="M183.6,137.2c1.8-1.9,1-1.5,1.5-3.4,0-.4,0-1,0-1.5,0-.1,1.3-.4,0-3,3,.6,6.9,4.5,6.9,6.4,0,7.2-19.4,8.2-27.8,1-4.2-3.6-.8-2.3.7-3.4,3.2-2.4,5.4-8.6,15-6.9,5.2.9-3.6,0-5.7,3.7-4,7.2,4.2,12.7,9.4,7.1Z"/>
            <path class="st18" d="M185.1,129.4c1.3,2.6,0,2.8,0,3l-1.5,1.5c-6.5,1.4-4.9-5.8,1.5-4.4Z"/>
            <path class="st26" d="M185.1,133.8c-.5,2,.3,1.6-1.5,3.4-3-1.7,0-1.5.5-3.4h1Z"/>
            <path class="st21" d="M185.1,133.8h-1c-.2,0-.3,0-.5,0l1.5-1.5c0,.5,0,1,0,1.5Z"/>
          </g>
          <g>
            <path class="st40" d="M97.8,105.5c-6.7,8.5-8.1,30.7-7.9,29.6.5.7-4.5,20.4-4.9,19.7-3.9-6.9-9.9-21.7-2-37.4,1.9-3.8,9.3-11.5,14.8-11.8Z"/>
            <path class="st11" d="M200.3,140.7c4.7-10.8-8.1-4.9-8.4-4.9,0,7.2-19.4,8.2-27.8,1-4.2-3.6-.8-2.3.7-3.4-.6-4.5,3.2-8,6.8-10.1,1.8-1,5.9-1,8.9-1s6.9,3,9.4,5.6c.8,1,13.8-18.6,14-18.7.2,0,1.8-3.9,1.7-4.7-.2-1.8-5.7-6.4-6.9-8.4-2.9-4.6-3.7-11-6.4-15.8-6.8-12.2-14.8-8.9-22.7-17.7-.4-.5-2.3-8.2-9.1-5.7-1.7.6-10.4,15.7-33,3-6.6,9.5-11.9,5.9-17.5,8.4-8.4,10.6-21.3,43.8-21.1,43.6-1,3.9-3,8.9-3.1,13.4-.5,3.7-.6,12.8-1,13.8-3.9,8.9-1,18.7,0,20.7.1.3,14.5-.3,21.2-1.3.5,0,1,0,1.5,0,14.3-3,24.7-18.9,24.4-33,20.9-1.9,7.4,3.4,18,22.4,4.3,7.8,9.9,10.6,17.7,14l2-.5c6.7,1.4,14.6,0,20.7-3,2.3-1.1,8.2-5.5,9.9-7.4,1.7-1.8,6.8-9.9,7.9-12.3-6.2,5.6-1.1-8.4-7.9,2ZM124,129.9c-1.9-.4-.5,3.1-1,3.7-.9,1.2-3.3-1.5-3.9,1.2,0,.6.1,1.6,0,2,4.9,1.1-3.9,11.8-5.7,11.8-1.4,0-2.6-4.9-6.9-4.4-2,.2-10.3-1.6-15.1-8.9.5-2.7,1-7.5,1.1-7.8.1-.3-.2-1.5.5-2.7,4.2-7.4,20.5-8.9,28.1-8.6,2.1,3.9,3.1,9.3,3,13.8ZM171.4,96.3c-1.2,0-2.4,0-3.5.2,1.1-.1,2.3-.2,3.5-.2ZM161.7,98c-.5.2-1,.5-1.3.8.4-.3.8-.6,1.3-.8Z"/>
            <path class="st22" d="M109.2,126.9c-16.4,3.9,1.1,19.5,4.9,7.4.6-1.9.6-3.4.5-5.4.5,0,3.3,2.8,3.9,4.4,0,.3.5,1.4.5,1.5,0,.3,0,.6,0,1s0,.8,0,1c-1.7,5.8-18.3,5.2-25.1,3-2.4-.8-2.7-3.4-2.5-5.4.8-6.7,15.9-10.3,17.7-7.4Z"/>
            <path class="st29" d="M121,116.1c-7.6-.3-23.9,1.2-28.1,8.6-.7,1.2-.4,2.4-.5,2.7,6.7-9.7,27.3-7.2,26.1,5.9,0,.2.8,1.7,0,4.4-3.2,4.8-18.9,3.5-24.7,2-.4-.1-2.6-1.1-1.5.5,3.4,4.7,11.5,7,14.2,7.7,3.9,1,5.4,1.1,6.7.7,8.1-2.7,10-14.5,10.6-18.7.4-3.5-.9-9.8-3-13.8Z"/>
            <path class="st13" d="M114.1,134.3c-2.2,2.6-4.8,1.4-3.4-2,2-.4,2.8-3.4,3.9-3.4,0,2,.1,3.5-.5,5.4Z"/>
          </g>
        </g>
      </g>
    </g>
    <path class="st38" d="M89,141"/>
    <path class="st0" d="M86,149.9c4.9,5.1,13.5,9.5,20.3,8.6.6.7.4,1.4.5,1.5-5.3,1.4-10.9,1.4-16.3.2,3.6,16.1,34.2,41.2,49.5,41.6,12.1.4,54.1-19.9,60.4-36.5,2.2,2.9-4.1,7.3-2.5,8.9-6.1,8.8-16.4,15.2-25.6,20.2-10.7,5.8-25.7,13-37.9,10.8-7.6-1.3-27.7-13.8-33.7-19.2-9.7-8.6-17.7-23.2-17.5-37.1,0,0,2.8,1,3,1Z"/>
    <path class="st0" d="M97.9,101.3c-1.7.9-7.4,9.9-8.9,11.1,1-9.3,10.8-41.4,21.2-44.1,13.1-3.5-4.4,4.4-10.3,23.9-.9,2.8-.9,6.2-2,9.1Z"/>
    <g>
      <path class="st29" d="M136.3,158.9c-4.1-.2-7.7-2.8-10.3-5.4-1.9-10.1,3.3-.9,5.7.5,6.1,3.6,17.8-.3,4.7,4.9Z"/>
      <path class="st31" d="M126,153.5c2.7,2.6,6.3,5.2,10.3,5.4,3.7.2,14.2-5.6,8.6-1-10.6,8.7-26.5-6.8-20.7-6.9.5,0,.4,1.2,1.7,2.5Z"/>
    </g>
    <path class="st29" d="M169.8,109.2c2.9-.3.8.7-3,2.3-6,2.5-9.9,6.9-6.8,20.2.1.5-.4.4-.7.7q-4.6-1.5-9.1-3c-.4-15.7,5.9-18.9,19.7-20.2Z"/>
    <path class="st29" d="M206.2,104.5c-.2-3.8-4.1-3.8-6.9-7.9-2.4-3.5-3.8-11.4-3.9-11.8-3-9.9-11.8-13.8-11.8-13.8,0,0,13.8,16.8,8.9,39.4-.6-.1-4.1-2.1-4.9-2.3-5.4.7-1,1.7,1.5,6.2,3.3,6,5.1,13.2,3.4,20,0,.3,0,1.8,0,1.8,0,0-1,2.2-2,3-4.9,3.9-14.7,2.8-17.7,2-1.9-.5-4.9-2-4.9-2,0,0,3,8.9,19.7,8.9s14.2-12.7,14.8-15.8c.9-4.4,0-9.9-3-15.8-.1-.2,7-9.9,6.9-11.8Z"/>
    <g>
      <path d="M87.9,113.8c0,.3.5,0,1-.4,5.9-3.9,8.9-5.9,10.8-6.9,3.9-2,6.5-2.1,6.9-2.1,3.7-1.2,17.4,3.6,12.6-3.7-4.4-6.6-16.8-1.6-22.2,1.2-1.7.9-9.1,7.5-9.2,11.9Z"/>
      <path d="M186.7,108.8c.6.6.7-2.3.2-3.9-4-10.7-27-8.9-28.3-4.2-2,7,10.3,1.2,21.2,3.9,2.7.9,3.7.9,6.9,4.2Z"/>
    </g>
    <path class="st0" d="M192.9,125.2c0,.3-.4.6-.5.4-3.9-7.2-16.9-9-21.9-6.6-3,1.4,7.4-8.1,17.1-3.6,4.8,2.2,5.1,7.8,5.4,9.8Z"/>
    <path class="st8" d="M199.1,128.9c-4.3,1.2-7.1.8-8.7-.7-.4-.4-.7-.7-1.1-1-6.8-9.8-25.5-4.9-24.5,6.2,3.2-2.4,5.4-8.6,15-6.9,5.2.9-3.6,0-5.7,3.7-4,7.2,4.2,12.7,9.4,7.1-3-1.7,0-1.5.5-3.4-.2,0-.3,0-.5,0-6.5,1.4-4.9-5.8,1.5-4.4,3,.6,6.9,4.5,6.9,6.4.4,1.3-.6,2.4-.5,2.3,1-1,2-3,1-3.7,2.3,0,6.6-5.5,6.6-5.5Z"/>
    <path class="st0" d="M91.9,126.2s4.3-5.5,7.9-6.9c5.5-2.2,18.7-3.9,21.7-3s-11.5-4.5-20.9-1c-1.3.5-3.5,1.7-4.7,3-3.9,3.9-3.9,7.9-3.9,7.9Z"/>
    <path class="st11" d="M187.4,119.5l4.9,22.7s2.5,3.6,3.9,3c4-1.7,6.9-8.9,6.9-16.8s-3.9-13.8-3.9-13.8l-11.8,4.9Z"/>
    <g>
      <g>
        <path class="st38" d="M222,120.2c-3.1-1.7-1.7,4.8-10.8,5.4,0-7.5-1.4-10.3-6.9-15.5l.7-.7c2.2.7,15.2,6.3,15.8,6.9.9,1,.8,2.4,1.2,3.9Z"/>
        <path class="st38" d="M222,120.2c.5,1.8.2,4.8,1,5.4-1.1.3-8.8,7.9-12.3,7.4.5-2.2.5-5.1.5-7.4,9.2-.6,7.7-7.2,10.8-5.4Z"/>
      </g>
      <g>
        <path class="st38" d="M71.7,53.7c-1.6,2-3.5,3.7-4.9,5.9.2-1.4.7-2.7.5-4.2-1.5-.5-10-7.1-10.3-7.6-.3-.4-2-8.3-2-9.1.1-4,2.9-8.1,5.9-10.6-6.1,13.5,9.4,19.3,10.3,21.9.5,1.5-1.1,3.4.5,3.7Z"/>
        <path class="st38" d="M283,68c4.2,7,2.8,10.4,0,18,4.7,1.1,5.3.4,9.9,2.7q-.1.5-.2,1c-1-2-.6,1.7-5.9-1.5-1.2,5.6-7.2-2.5-4.7,5.2-6.6,3-2.2-16.7,2-17.7.3-.8-5.6-11.2-1-7.6Z"/>
        <path class="st10" d="M37.2,163.1c-.3.1-1.5,1.8-5.2,3-.6-.1-4.6-10.3-4.7-10.8-1.7-8.3,2.6-10.9,3.4-12.3q6.9-4.6,13.8-9.1-.5-4.6-1-9.1c.1-2.8-8.3-7.1-13.8-10.8-2.2-4.6-1.1-10.2,2-14.3,8.7-3.9,19.6-1.7,19.7-8.1,0-.5-2.2-5.9-2.5-10.1-.7-11.1,14.5-13.2,15.8-14.5.5-.6,1.8-5.8,2-7.1,1.4-2.2,3.3-3.9,4.9-5.9,2.3-2.8,3.7-.4,2-9.1,15.9-17.7,15-11,37.2-8.1,3.3-.8,3.3-15,10.3-16.3,9.9-1.7,12.4,10.6,8.4,13.8-3.8,3-3.3-2.7-6.9-7.9-3.9,23.3-18.3,15.6-36,13.3-8.7,6-4.6,10.5-5.7,13.5-.3.8-7.9,7.3-8.4,8.4-3.1,6.6,5.4,5.4-17.2,17.2-2.4,6.2,9.3,16.8-7.1,23.9-4.7,2-17.2,2.2-13.8,6.4,2.7,3.4,15.8,6.2,16.5,18,1.5,23.5-27.8,10.6-13.8,36.2Z"/>
        <path class="st10" d="M285.5,159.6c-.1-.1-.3-.3-.5-.5-.3-18.9-12.6-12.9-20-17.7-4.8-3.1-8.1-20,14.5-19,5.7,8.2-14.4,6.6-12.3,10.8.5,1,15.6,6.3,17.7,8.9,3.1,3.7,3.1,14.4.5,17.5Z"/>
        <path class="st40" d="M30.8,142.9c-.8,1.4-5.1,4-3.4,12.3-6-2.2-15.4-2.8-14.3-11.1,1.9-13.4,16.2-1.2,17.7-1.2Z"/>
        <path class="st40" d="M43.6,124.6q.5,4.6,1,9.1-6.9,4.6-13.8,9.1c.6-1,2.2-2.1,2.5-2.7,2.1-5.6-4.5-9.7-3.9-15.3l14.3-.2Z"/>
        <g>
          <path class="st38" d="M75.6,120.2q-.6,4.9-1.2,9.9c-3.2-2.1-6.8-1.7-8.6-5.4q4.9-2.2,9.9-4.4Z"/>
          <path class="st33" d="M87,116.3c-1.4,3.6-2.8,5.6-3,9.9-3.5,2-1.2-8.7,3.4-12.1q-.2,1.1-.5,2.2Z"/>
        </g>
        <g>
          <path class="st40" d="M295.9,144.1c1.5-17.3-7.7-17.3-8.4-18.2-3.1-4.3,5.7-3.9,10.3-9.4,7-8.3,4.9-22.8-4.9-27.8l-.2,1c-1-2-.6,1.7-5.9-1.5-1.2,5.6-7.2-2.5-4.7,5.2-6.6,3-2.2-16.7,2-17.7.3-.8-5.6-11.2-1-7.6-4-6.6-11.1-9.6-18.5-6.4-2.8-.6,1-6.1-10.1-12.1,8.6-16-11.7-29-21.9-14-18.2-20.4-43.6-29.5-69-15.8-17.3-19.6-49.9-17.2-67.7.2-1.7,1.7,0,4.1-13.1,9.6-2,0-10.3-11.1-21.9-1.5-6.1,13.5,9.4,19.3,10.3,21.9.5,1.5-1.1,3.4.5,3.7,2.3-2.8,3.7-.4,2-9.1,15.9-17.7,15-11,37.2-8.1,3.3-.8,3.3-15,10.3-16.3,9.9-1.7,12.4,10.6,8.4,13.8-3.8,3-3.3-2.7-6.9-7.9-3.9,23.3-18.3,15.6-36,13.3-8.7,6-4.6,10.5-5.7,13.5-.3.8-7.9,7.3-8.4,8.4-3.1,6.6,5.4,5.4-17.2,17.2-2.4,6.2,9.3,16.8-7.1,23.9-4.7,2-17.2,2.2-13.8,6.4,2.7,3.4,15.8,6.2,16.5,18,1.5,23.5-27.8,10.6-13.8,36.2-.3.1-1.5,1.8-5.2,3-.6-.1-4.6-10.3-4.7-10.8-6-2.2-15.4-2.8-14.3-11.1,1.9-13.4,16.2-1.2,17.7-1.2.6-1,2.2-2.1,2.5-2.7,2.1-5.6-4.5-9.7-3.9-15.3l14.3-.2c.1-2.8-8.3-7.1-13.8-10.8-2.2-4.6-1.1-10.2,2-14.3,8.7-3.9,19.6-1.7,19.7-8.1,0-.5-2.2-5.9-2.5-10.1-.8,0-1.5,0-2.3,0,.7,0,1.5,0,2.3,0-.7-11.1,14.5-13.2,15.8-14.5.5-.6,1.8-5.8,2-7.1.2-1.4.7-2.7.5-4.2-1.5-.5-10-7.1-10.3-7.6-1.2.2-2.4.9-3.4,1.5-.6.9-1.1,1.8-1.5,2.7.4-.9.9-1.8,1.5-2.7-7.9,4.3-5.3,3.6-9.1,11.3-18.9-1.5-26,16.9-12.6,29.8-2.6.9-5.3,1.1-7.9,2.2-2.1.8-3.3,1.4-4.9,3-9.4,8.8-5,21.2,5.9,25.9.7,1.8-4,4.5,0,13.8-18.6-2.1-25.3,18.9-7.9,27.1-3.7,9.1,2.9,21.1,13.1,17.5,8.2,8-2,8.1-.2,19.5,1.4,8.9,13.9,14.5,21.4,9.1,10.6,4.4,5.5,5.1,9.1,10.1,4.7,6.4,16.2,5.8,21.4.2,1.4.3.7,13.9,19.7,11.3,4.6-8.1,6.1-2.5,13.3-5.9,5.3-2.6,5.3-9.7,10.6-4.9,2.8-4,4.5-9,8.4-12.3,0-.7.1-.9.5-1.5-7.6-1.3-26.5-15.5-32.6-20.9-10.3-9.1-16.3-17.2-16.2-31.1.2-.6-.4-8.3-1.5-10.6-.4-.8-.3-9.3,0-16.8-3.5,2-1.2-8.7,3.4-12.1q-.2,1.1-.5,2.2c.2-.4,1.4-3.3,1.5-3.4,1.4-2.6,2.5-6.9,6.4-5.7q-1-1.4-2-2.7c1-9.3,7.8-31.8,17.2-36,5.6-2.5,10.9,1.2,17.5-8.4,22.6,12.7,31.3-2.3,33-3,6.8-2.6,8.7,5.2,9.1,5.7,7.8,8.9,15.9,5.6,22.7,17.7,2.7,4.8,3.5,11.1,6.4,15.8,1.2,2-.8,16.4.4,19.3,4.5,10.2,3.9,20.7,1,25.3,6.6-10.5,1.7,3.6,7.9-2,.6-1.3,2.3-5.2,2.5-5.9.5-2.2.5-5.1.5-7.4,0-7.5-1.4-10.3-6.9-15.5l.7-.7c2.2.7,15.2,6.3,15.8,6.9.9,1,.8,2.4,1.2,3.9.5,1.8.2,4.8,1,5.4,11.6-2.8,16.9,18.7,3.2,30.1-10.6,8.8-16.3-2.4-22.9,7.6-.3.5-.9,4.6-5.4,11.1-6.1,8.8-16.4,15.2-25.6,20.2,1.2,2.8,1.6,5.9,2.5,8.9.7,2.3,1.9,5.1,2,5.4,5.6.6,7.8,6.5,10.8,8.4.6.3,3.5.9,4.7,1,6.9,13.6,25.2,10.5,29.6-3.9,9.5,10,24,12,28.1-3.9,7.2,0,12.4.8,17.2-5.4,18.1,2,24.9-16.2,12.1-28.3q3.1-4.1,6.2-8.1c6.1,1.5,11.8.1,15-5.4,4.1-7,2.1-14.3-4.4-19ZM50.9,54.5c-.3.8-.5,1.6-.7,2.4.2-.7.4-1.5.7-2.4ZM34.5,63.5c.6-.2,1.1-.4,1.7-.5.6,0,1.1-.1,1.7-.1-.6,0-1.2,0-1.7.1-.6,0-1.1.2-1.7.5-.4.2-.8.4-1.1.6.4-.3.8-.5,1.1-.6ZM29.8,69.9c.1-.5.3-1,.4-1.5-.2.5-.3,1-.4,1.5-.2.8-.2,1.6-.1,2.4,0-.8,0-1.6.1-2.4ZM285.5,159.6c-.1-.1-.3-.3-.5-.5-.3-18.9-12.6-12.9-20-17.7-4.8-3.1-8.1-20,14.5-19,5.7,8.2-14.4,6.6-12.3,10.8.5,1,15.6,6.3,17.7,8.9,3.1,3.7,3.1,14.4.5,17.5Z"/>
          <g>
            <path class="st10" d="M176.4,21.7c12.4-1.2,21.4,20.1,44.8,12.3,11.4,15.1,21,10.5,16,28.8,2.6,1.3,12.3,9.8,13.1,10.1,5.4,1.9,21.4-2.9,16.5,17,4.7,1.6,21.1,8.1,23.2,11.8,2.3,4.3.7,12.8-4.2,14.5-11.4,4-.8-9.5-1.2-11.1-12.3-11.3-29.5-.8-22.7-24.1q-6.5-.6-13.1-1.2c-8.3-10.9-13-8-16-11.6-7.9-9.5,12.3-22.3-19.5-18l-2.5-8.4c-12.1.4-22.6-6.5-32-13.3-4.2-.3-16.9,8-14-.7.6-1.9,9.4-6,11.6-6.2Z"/>
            <path class="st39" d="M222.7,39.9c3-.2-2.5,2.1-3.4,2.5-11.8,4.3-3.4-2,3.4-2.5Z"/>
          </g>
        </g>
        <g>
          <g>
            <path class="st5" d="M87,134.1c-4.2-2.6-8-9-.5-7.6,5.6,1,11.8,7.2,10.3,8.6-.4.4-8.5-.2-9.8-1Z"/>
            <path class="st5" d="M78.6,111.1c-8-4.8-8.6-17.4,1.8-6.6,4.1,4.3,4.2,10.2-1.8,6.6Z"/>
            <path class="st5" d="M103.4,153.3c-.5-.3-1.7-1-1.4-1.8.3-.8,13.6-6,15.7-1.9,1.4,2.7-9.5,6.8-14.3,3.7Z"/>
            <path class="st5" d="M94.7,144c-9.9-6.2,6.3-5.2,9.6-3,8,5.4-5.8,5.4-9.6,3Z"/>
            <path class="st5" d="M80.2,97.5c-5-3.2-8.6-8.6-5.7-14.3,8.6,4.9,7.9,15.1,5.7,14.3Z"/>
            <path class="st5" d="M80.1,122.7c-10.5-6.9,1.6-8.1,6.5-1.9,3.7,4.7-3,4.2-6.5,1.9Z"/>
          </g>
          <g>
            <path class="st5" d="M82.6,95.4c.8,9,2.6,18.8,7.3,26.7,7.1,11.8,20,22.1,32.9,26.8,3.2,1.2,6,1.9,9,2.3s1,.8,0,.6c-26.6-3.9-49.6-29.3-49.2-56.4Z"/>
            <path class="st5" d="M83.4,71.3c5.5-3.2,1.3,14.2-.2,15.8-.2,1.6,0,3.8,0,5.1-.1,1-.4,3.1-.4,3.3-.6-6.4.4-9.4.1-9.8-5.7-1.7-3.2-12.1.6-14.4Z"/>
            <path class="st5" d="M114.1,133.7c0,0,1-.4,1.6,0,3.1,2.4,3.3,5.2,4.1,6.9.9,12.4-7.2,1.3-5.7-6.9Z"/>
            <path class="st5" d="M92.7,84.7c-.9,3.4-3.3,6.5-6.7,7.6-1.5.5-.6-4-.3-4.6,1.9-5.1,9-10.3,7-3.1Z"/>
            <path class="st5" d="M132.3,153.5c0,0,.2.1.3.2-6.6,11.1-20.3,9.4-14.4,3.3,1.7-1.7,10.3-7.1,14.2-3.6Z"/>
            <g>
              <path class="st5" d="M98.2,132c-2.7-.6-6.3-12.3-1.3-17.8,4.4,4.7,4.7,18.6,1.3,17.8Z"/>
              <path class="st5" d="M91.1,120.8c-10.2-15.6,8-25.7.7,0h-.7Z"/>
              <path class="st5" d="M108.2,139.7c-1.7-.1-3.9-6-3.7-9.1,1.1-13.8,9.2,9.5,3.7,9.1Z"/>
              <path class="st5" d="M85.5,105.5c-.3-2.4-1.5-5.6-.6-7.9,3.5-8.5,9.7-.6.6,7.9Z"/>
            </g>
          </g>
        </g>
      </g>
      <g>
        <g>
          <path class="st5" d="M234.6,79.7c0-5-3.4-11.5-6.2-4.5-2.1,5.3,0,13.8,1.9,13.3.5-.1,4.3-7.4,4.3-8.8Z"/>
          <path class="st5" d="M219.4,60.5c.1-9.4-10.3-16.4-6.6-2,1.5,5.8,6.5,8.9,6.6,2Z"/>
          <path class="st5" d="M242.3,103.7c0-.6,0-2-.8-2.2-.9-.2-12.3,8.4-9.9,12.4,1.6,2.6,10.8-4.5,10.7-10.2Z"/>
          <path class="st5" d="M238.9,91.4c0-11.7-7.7,2.7-7.6,6.6.3,9.7,7.6-2.1,7.6-6.6Z"/>
          <path class="st5" d="M207.1,54.6c0-6-2.8-11.8-9.2-12.4-.4,9.9,8.7,14.6,9.2,12.4Z"/>
          <path class="st5" d="M228.5,67.8c-.3-12.5-7.7-2.9-5.1,4.5,2,5.6,5.2-.3,5.1-4.5Z"/>
        </g>
        <g>
          <path class="st5" d="M204,55.6c7.3,5.4,14.6,12.1,18.8,20.3,6.3,12.3,8.2,28.7,5.4,42.1-.7,3.3-1.6,6.1-2.8,8.8s.1,1.3.6.2c10.8-24.7,1.3-57.6-22-71.5Z"/>
          <path class="st5" d="M183.1,43.5c-5.6,3,11.4,8.6,13.6,8.1,1.4.6,3.2,2.1,4.4,2.6.9.5,2.9,1.3,3,1.4-5.1-3.9-8.2-4.6-8.4-5.1,1.6-5.7-8.6-9.1-12.5-7Z"/>
          <path class="st5" d="M219.9,102.5c0,0-.9.6-.9,1.3.4,3.9,2.7,5.5,3.7,7.1,10,7.3,4.9-5.5-2.8-8.4Z"/>
          <path class="st5" d="M189.6,58.5c3.3,1,7.3.7,10-1.6,1.2-1-3.1-2.6-3.7-2.7-5.4-1.1-13.4,2.2-6.3,4.3Z"/>
          <path class="st5" d="M227.1,128.4c0,.1,0,.2,0,.3,12.9.2,18.6-12.3,10.5-10.5-2.4.5-11.5,5-10.5,10.2Z"/>
          <g>
            <path class="st5" d="M226.9,88.1c.9-2.6-7.1-11.9-14.4-10.5,1.7,6.2,13.3,13.8,14.4,10.5Z"/>
            <path class="st5" d="M221.1,76.1c-7.9-16.8-26.1-6.8-.5.6l.5-.6Z"/>
            <path class="st5" d="M228.1,100.6c.8-1.5-3-6.5-5.8-7.9-12.3-6.3,3.2,12.8,5.8,7.9Z"/>
            <path class="st5" d="M211,63.3c-1.9-1.5-4-4.2-6.4-4.6-9.1-1.5-5.6,7.9,6.4,4.6Z"/>
          </g>
        </g>
      </g>
      <g>
        <g>
          <g>
            <path class="st4" d="M174.7,203.5c-9,11.4-21.5,20.2-35.5,24.1-2.3-3-5.3-5.9-5.9-9.9-.4-2.9.2-7.8.5-10.8,0-.7.1-.9.5-1.5,12.3,2.2,27.2-5,37.9-10.8,1.2,2.8,1.6,5.9,2.5,8.9Z"/>
            <path class="st29" d="M176.6,208.9c.4,2,.7,4.1,1,6.2-7.2,8.5-18,14.9-28.6,18.5-2.4.8-1.9,1-2,1-.7.2-.4.7-2.5-.5-.3-.2-1.3-.8-1.5-1-.3-.2-3.3-4.6-3.9-5.4,14-3.9,26.5-12.7,35.5-24.1.7,2.3,1.9,5.1,2,5.4Z"/>
          </g>
          <path class="st29" d="M200.3,165.5c-6.3,16.5-48.3,36.8-60.4,36.5-15.3-.5-45.9-25.5-49.5-41.6,5.4,1.1,11,1.2,16.3-.2.6.8,3,3,6.4,8.4,6.9,10.8,11,22.1,26.6,20.2,12.5-1.5,15.5-10,19.2-14.3,3.2-3.7,6.7-7.2,9.9-10.8,3.5.9,7.5,1.4,11.1,1,2.1-.3,11.6-4,10.6-5.9,2.3-1.1,8.2-5.5,9.9-7.4,1.9,4.5,1.8,9.7,0,14.3Z"/>
          <path class="st1" d="M190.4,158.6c1,1.9-8.5,5.6-10.6,5.9-3.6.5-7.6-.1-11.1-1,.4-.5.6-1.4,1-2,6.7,1.4,14.6,0,20.7-3Z"/>
          <g>
            <path class="st29" d="M197.8,174.4c-1.7-1.6,4.6-6,2.5-8.9,1.8-4.6,1.9-9.8,0-14.3,1.7-1.8,5.8-9.6,6.8-12,.6-1.3,3.4-5.5,3.5-6.2,3.5.5,11.2-7.1,12.3-7.4,11.6-2.8,16.9,18.7,3.2,30.1-10.6,8.8-16.3-2.4-22.9,7.6-.3.5-.9,4.6-5.4,11.1Z"/>
            <path class="st6" d="M224.9,144.3c1.9,6.9-4.8,7.7-7.1,6.4-2.4-1.4-3.6-10.2-2.2-13.3,4.2,1.7,8.5,10.5,9.4,6.9Z"/>
            <path class="st31" d="M224.9,144.3c-.9,3.6-5.2-5.2-9.4-6.9,2-4.5,16.6-7.4,14,4.4-1.3-9.6-9.4-5.7-9.6-4.7-.2.8,4.1,4,4.9,7.1Z"/>
          </g>
          <path class="st11" d="M167.8,162.1c-1.7.4-3.2,2-5.4,2.5-18.8,4.1-34.4,5.3-51.7-4.4-1-.5-2-1-3-1.5,14.3-3,24.7-18.9,24.4-33,20.9-1.9,7.4,3.4,18,22.4,4.3,7.8,9.9,10.6,17.7,14Z"/>
          <g>
            <path class="st41" d="M107.7,158.6c1,.5,2,.9,3,1.5,2.3,3.6,7.3,6.6,10.8,9.9.2.2,1,2.6,2.5,4.2.7.7,1.7,1.2,2.5,1.7-3.8,1.9-9.7-5.5-13.3-7.4-3.4-5.4-5.8-7.5-6.4-8.4,0,0,0-.7-.5-1.5.5,0,1,0,1.5,0Z"/>
            <path class="st41" d="M169.7,161.6c-.4.6-.5,1.5-1,2-3.2,3.7-6.7,7.2-9.9,10.8-1.5.2-6,1.1-6.9,1.5,2.2-2.5,4.6-4.9,6.9-7.4,1.2-1.2,2.7-2.5,3.4-3.9,2.2-.5,3.7-2.1,5.4-2.5l2-.5Z"/>
            <path class="st34" d="M158.9,174.4c-3.8,4.3-6.7,12.8-19.2,14.3-9.4-.5-18.1-11-12.8-12.3,11.7,7,19.9,1.4,25.1-.5.9-.3,5.4-1.3,6.9-1.5Z"/>
            <path class="st14" d="M126.4,175.9c.6.4.5.5.5.5-5.3,1.3,3.4,11.9,12.8,12.3-15.6,1.9-19.7-9.4-26.6-20.2,3.6,1.9,9.5,9.3,13.3,7.4Z"/>
            <path class="st14" d="M162.3,164.5c-.8,1.5-2.3,2.7-3.4,3.9-12.1,4.3-25.1,5.5-37.4,1.5-3.6-3.3-8.6-6.3-10.8-9.9,17.3,9.7,33,8.5,51.7,4.4Z"/>
            <path class="st22" d="M158.9,168.5c-2.3,2.5-4.7,4.9-6.9,7.4-5.2,1.9-13.4,7.5-25.1.5,0,0,0-.1-.5-.5-.8-.6-1.8-1-2.5-1.7-1.5-1.6-2.3-4-2.5-4.2,12.3,4,25.4,2.8,37.4-1.5Z"/>
          </g>
        </g>
        <g>
          <g>
            <path class="st22" d="M183.5,137.4c1.8-1.9,1-1.5,1.5-3.4,0-.4,0-1,0-1.5,0-.1,1.3-.4,0-3,3,.6,6.9,4.5,6.9,6.4,0,7.2-19.4,8.2-27.8,1-4.2-3.6-.8-2.3.7-3.4,3.2-2.4,5.4-8.6,15-6.9,5.2.9-3.6,0-5.7,3.7-4,7.2,4.2,12.7,9.4,7.1Z"/>
            <path class="st18" d="M185,129.6c1.3,2.6,0,2.8,0,3l-1.5,1.5c-6.5,1.4-4.9-5.8,1.5-4.4Z"/>
            <path class="st26" d="M185,134c-.5,2,.3,1.6-1.5,3.4-3-1.7,0-1.5.5-3.4h1Z"/>
            <path class="st21" d="M185,134h-1c-.2,0-.3,0-.5,0l1.5-1.5c0,.5,0,1,0,1.5Z"/>
          </g>
          <g>
            <path class="st40" d="M97.8,105.7c-6.7,8.5-8.1,30.7-7.9,29.6.5.7-4.5,20.4-4.9,19.7-3.9-6.9-9.9-21.7-2-37.4s9.3-11.5,14.8-11.8Z"/>
            <path class="st11" d="M200.3,140.9c4.7-10.8-8.1-4.9-8.4-4.9,0,7.2-19.4,8.2-27.8,1-4.2-3.6-.8-2.3.7-3.4-.6-4.5,3.2-8,6.8-10.1,1.8-1,5.9-1,8.9-1s6.9,3,9.4,5.6c.8,1,13.8-18.6,14-18.7.2,0,1.8-3.9,1.7-4.7-.2-1.8-5.7-6.4-6.9-8.4-2.9-4.6-3.7-11-6.4-15.8-6.8-12.2-14.8-8.9-22.7-17.7-.4-.5-2.3-8.2-9.1-5.7-1.7.6-10.4,15.7-33,3-6.6,9.5-11.9,5.9-17.5,8.4-8.4,10.6-21.3,43.8-21.1,43.6-1,3.9-3,8.9-3.1,13.4-.5,3.7-.6,12.8-1,13.8-3.9,8.9-1,18.7,0,20.7.1.3,14.5-.3,21.2-1.3.5,0,1,0,1.5,0,14.3-3,24.7-18.9,24.4-33,20.9-1.9,7.4,3.4,18,22.4,4.3,7.8,9.9,10.6,17.7,14l2-.5c6.7,1.4,14.6,0,20.7-3,2.3-1.1,8.2-5.5,9.9-7.4,1.7-1.8,6.8-9.9,7.9-12.3-6.2,5.6-1.1-8.4-7.9,2ZM123.9,130.1c-1.9-.4-.5,3.1-1,3.7-.9,1.2-3.3-1.5-3.9,1.2,0,.6.1,1.6,0,2,4.9,1.1-3.9,11.8-5.7,11.8-1.4,0-2.6-4.9-6.9-4.4-2,.2-10.3-1.6-15.1-8.9.5-2.7,1-7.5,1.1-7.8.1-.3-.2-1.5.5-2.7,4.2-7.4,20.5-8.9,28.1-8.6,2.1,3.9,3.1,9.3,3,13.8ZM171.3,96.5c-1.2,0-2.4,0-3.5.2,1.1-.1,2.3-.2,3.5-.2ZM161.6,98.2c-.5.2-1,.5-1.3.8.4-.3.8-.6,1.3-.8Z"/>
            <path class="st22" d="M109.1,127.1c-16.4,3.9,1.1,19.5,4.9,7.4.6-1.9.6-3.4.5-5.4.5,0,3.3,2.8,3.9,4.4,0,.3.5,1.4.5,1.5,0,.3,0,.6,0,1s0,.8,0,1c-1.7,5.8-18.3,5.2-25.1,3s-2.7-3.4-2.5-5.4c.8-6.7,15.9-10.3,17.7-7.4Z"/>
            <path class="st29" d="M121,116.3c-7.6-.3-23.9,1.2-28.1,8.6-.7,1.2-.4,2.4-.5,2.7,6.7-9.7,27.3-7.2,26.1,5.9,0,.2.8,1.7,0,4.4-3.2,4.8-18.9,3.5-24.7,2-.4-.1-2.6-1.1-1.5.5,3.4,4.7,11.5,7,14.2,7.7,3.9,1,5.4,1.1,6.7.7,8.1-2.7,10-14.5,10.6-18.7.4-3.5-.9-9.8-3-13.8Z"/>
            <path class="st13" d="M114.1,134.5c-2.2,2.6-4.8,1.4-3.4-2,2-.4,2.8-3.4,3.9-3.4,0,2,.1,3.5-.5,5.4Z"/>
          </g>
        </g>
      </g>
    </g>
    <path class="st38" d="M88.9,141.2"/>
    <path class="st0" d="M85.9,150.1c4.9,5.1,13.5,9.5,20.3,8.6.6.7.4,1.4.5,1.5-5.3,1.4-10.9,1.4-16.3.2,3.6,16.1,34.2,41.2,49.5,41.6,12.1.4,54.1-19.9,60.4-36.5,2.2,2.9-4.1,7.3-2.5,8.9-6.1,8.8-16.4,15.2-25.6,20.2-10.7,5.8-25.7,13-37.9,10.8-7.6-1.3-27.7-13.8-33.7-19.2-9.7-8.6-17.7-23.2-17.5-37.1,0,0,2.8,1,3,1Z"/>
    <path class="st0" d="M97.8,101.5c-1.7.9-7.4,9.9-8.9,11.1,1-9.3,10.8-41.4,21.2-44.1,13.1-3.5-4.4,4.4-10.3,23.9-.9,2.8-.9,6.2-2,9.1Z"/>
    <g>
      <path class="st29" d="M136.2,159.1c-4.1-.2-7.7-2.8-10.3-5.4-1.9-10.1,3.3-.9,5.7.5,6.1,3.6,17.8-.3,4.7,4.9Z"/>
      <path class="st31" d="M125.9,153.7c2.7,2.6,6.3,5.2,10.3,5.4,3.7.2,14.2-5.6,8.6-1-10.6,8.7-26.5-6.8-20.7-6.9.5,0,.4,1.2,1.7,2.5Z"/>
    </g>
    <path class="st29" d="M169.7,109.4c2.9-.3.8.7-3,2.3-6,2.5-9.9,6.9-6.8,20.2.1.5-.4.4-.7.7q-4.6-1.5-9.1-3c-.4-15.7,5.9-18.9,19.7-20.2Z"/>
    <path class="st0" d="M222.9,154l1,2c1,2-3,3-3,3-1.1.4-2,1-3,0l1-4.9c1-2,3.6-.5,3.9,0Z"/>
    <path class="st29" d="M206.1,104.7c-.2-3.8-4.1-3.8-6.9-7.9-2.4-3.5-3.8-11.4-3.9-11.8-3-9.9-11.8-13.8-11.8-13.8,0,0,13.8,16.8,8.9,39.4-.6-.1-4.1-2.1-4.9-2.3-5.4.7-1,1.7,1.5,6.2,3.3,6,5.1,13.2,3.4,20,0,.3,0,1.8,0,1.8,0,0-1,2.2-2,3-4.9,3.9-14.7,2.8-17.7,2-1.9-.5-4.9-2-4.9-2,0,0,3,8.9,19.7,8.9s14.2-12.7,14.8-15.8c.9-4.4,0-9.9-3-15.8-.1-.2,7-9.9,6.9-11.8Z"/>
    <g>
      <path d="M87.9,114c0,.3.5,0,1-.4,5.9-3.9,8.9-5.9,10.8-6.9,3.9-2,6.5-2.1,6.9-2.1,3.7-1.2,17.4,3.6,12.6-3.7-4.4-6.6-16.8-1.6-22.2,1.2-1.7.9-9.1,7.5-9.2,11.9Z"/>
      <path d="M186.7,109c.6.6.7-2.3.2-3.9-4-10.7-27-8.9-28.3-4.2-2,7,10.3,1.2,21.2,3.9,2.7.9,3.7.9,6.9,4.2Z"/>
    </g>
    <g>
      <path class="st13" d="M223.9,161.9c0-2,0-4.9-1-5.9s-1.8-2-3-1c-.8.7-1.8,4.5-2,6.9,0,.8.4,3.4,1,3.9,1.9,1.5,3.2,1.3,3.9.2,2-3.1,1-2.7,1-4.1Z"/>
      <path class="st26" d="M224.4,161.1c-.2-2.7-.4-4.8-1.5-5.1-3-1-1,3-3.9,4.9-1.2.8-.5,3.3,0,3.9,3.3,4.1,5.7-1,5.5-3.7Z"/>
    </g>
    <path class="st0" d="M192.8,125.4c0,.3-.4.6-.5.4-3.9-7.2-16.9-9-21.9-6.6-3,1.4,7.4-8.1,17.1-3.6,4.8,2.2,5.1,7.8,5.4,9.8Z"/>
    <path class="st8" d="M199,129.1c-4.3,1.2-7.1.8-8.7-.7-.4-.4-.7-.7-1.1-1-6.8-9.8-25.5-4.9-24.5,6.2,3.2-2.4,5.4-8.6,15-6.9,5.2.9-3.6,0-5.7,3.7-4,7.2,4.2,12.7,9.4,7.1-3-1.7,0-1.5.5-3.4-.2,0-.3,0-.5,0-6.5,1.4-4.9-5.8,1.5-4.4,3,.6,6.9,4.5,6.9,6.4.4,1.3-.6,2.4-.5,2.3,1-1,2-3,1-3.7,2.3,0,6.6-5.5,6.6-5.5Z"/>
    <path class="st0" d="M91.8,126.4s4.3-5.5,7.9-6.9c5.5-2.2,18.7-3.9,21.7-3s-11.5-4.5-20.9-1c-1.3.5-3.5,1.7-4.7,3-3.9,3.9-3.9,7.9-3.9,7.9Z"/>
    <path class="st8" d="M93,126.8h0c-3.1,2.7-7.3.4-7.3.4,0,0,1.4,3.6,4.6,4.2.1,0,.3,0,.5.1,0,1.8,0,2.2.6,3,.8-6.7,15.9-10.3,17.7-7.4.1.1.2.2.3.3.2.2.2.4,0,.5.2,0,.2-.2,0-.5,0,0-.2-.2-.3-.3-16.4,3.9,1.1,19.5,4.9,7.4-2.2,2.6-4.8,1.4-3.4-2-.9-.3-1.5-.5-2-.7.5.2,1.2.4,2,.7,2-.4,2.8-3.4,3.9-3.4.5,0,3.3,2.8,3.9,4.4,1.2-12.7-18.2-15.5-25.5-6.7Z"/>
    <g>
      <path class="st25" d="M125.3,128.4c0,15.5-15.1,26.6-27.6,26.6s-18.7-10.1-18.7-25.6,9.2-21.7,21.7-21.7,24.6,5.2,24.6,20.7Z"/>
      <path class="st25" d="M203.2,129.6c0,22.5-17.6,29.4-32.3,29.4s-21.9-11.2-21.9-28.3,10.7-23.9,25.4-23.9,28.8,5.7,28.8,22.8Z"/>
      <g>
        <path d="M208.1,138.2c5.7-9.4-3.8-18.6-4.9-21.7-3-7.9-6.7-9.9-9.9-10.8s-5.9-1-12.8-1-28.6-3-34,13.5c-7.1-3-12.4-2.6-19.7-1-1.5-2.7-5.4-11.5-20.2-12.5-1.9-.1-9-.7-15.8,1-7.9,2-7.7,2.8-9.9,4.9-2.2,2.2-4.5,9.6-4.9,17.7-.3,6.9,2,16.8,3,18.7.6,1.2,3,5.9,5.7,7.3,13.1,7.4,14.8,4.9,20.9,4.5,14.8-1,26-18.2,25.6-32.3,20.9-1.9,7.4,3.4,18,22.4,2.5,4.6,9.6,10.9,16.5,12.9s14.6,1.8,22.7-2c12.8-5.9,16.8-16.8,19.7-21.7ZM123.1,131.1c-.3,7.4-3.3,13.3-8,17.1-6.1,4.9-15,6.4-24.5,3.6-5.7-1.7-7.7-6.2-8.6-8.6-3.9-9.9,0-23.6,1-26.6,1.9-5.7,10.2-7.6,15.8-7.9,8.5-.5,17.1.2,21.4,8.6,2.1,3.9,3.1,9.3,3,13.8ZM155.6,149c-3.5-4.7-5.3-13.7-5.4-19.5-.4-15.7,5.1-18.8,19.7-20.2,5.5-.5,11.3-.9,16.8,0,.8.1,2.4.3,3,.5,2.1.5,4.2,1.3,5.7,2.8s4.3,5.9,5.9,16.7c.5,3.3,0,7.9-1.7,12.5,0,0,0,0,0,0-8.8,20.1-35.6,18.2-43.8,7.1Z"/>
        <path class="st37" d="M222.5,115.3c-.6-.6-13.5-6.3-15.8-6.9-2.5-.7-8.1-.1-8.4.3,4.6,4.4,2.9,14.7,6.9,18.7s3.6-1.2,5.7-2.2l.2.2h2v-.8c9-.7,11.7-2.9,14.8-1.2-.4-1.6-4.4-7.1-5.4-8.1Z"/>
        <g>
          <path class="st3" d="M77.4,119.3q-4.9,2.2-9.9,4.4c-.5-1.1-2.6-9.5-1.2-10.3,22.5-3.4,17.4-10.1,11.1,5.9Z"/>
          <path d="M77.4,119.3q-.6,4.9-1.2,9.9c-3.2-2.1-6.8-1.7-8.6-5.4q4.9-2.2,9.9-4.4Z"/>
        </g>
        <path d="M223.9,125.4c-.8-.6,4.4-1.1,3.9-3-2.9-1.6-6,.8-13.4,2-9.4.8-12.3-2-12.3-2l1,3c0,.5.5,2.4,1,4.3l-2,.7,2,6.8c5.4-5.4,8.3-3.4,14.8-8.9,2.3-1.8,4.4-2.8,4.9-3Z"/>
      </g>
    </g>
    <path class="st29" d="M176.7,208.7l5.3,10.4c3.2,6.2,8.8,10.9,15.5,12.8l12.3,3.5-17.8,36.2-65.9,22.5-31-2.2-.4-9.8,9.9-48.6s18.8-2.1,23.6-5.8,5.1-11.2,5.1-11.2c0,0,1.3,6.4,6.2,11.1s7.7,4.5,7.7,4.5l29.7-23.4Z"/>
    <path class="st8" d="M93.1,126.6h0c-3.1,2.7-7.3.4-7.3.4,0,0,1.4,3.6,4.6,4.2.1,0,.3,0,.5.1,0,1.8,0,2.2.6,3,.8-6.7,15.9-10.3,17.7-7.4.1.1.2.2.3.3.2.2.2.4,0,.5.2,0,.2-.2,0-.5,0,0-.2-.2-.3-.3-16.4,3.9,1.1,19.5,4.9,7.4-2.2,2.6-4.8,1.4-3.4-2-.9-.3-1.5-.5-2-.7.5.2,1.2.4,2,.7,2-.4,2.8-3.4,3.9-3.4.5,0,3.3,2.8,3.9,4.4,1.2-12.7-18.2-15.5-25.5-6.7Z"/>
    <g>
      <path class="st25" d="M125.4,128.2c0,15.5-15.1,26.6-27.6,26.6s-18.7-10.1-18.7-25.6,9.2-21.7,21.7-21.7,24.6,5.2,24.6,20.7Z"/>
      <path class="st25" d="M203.3,129.3c0,22.5-17.6,29.4-32.3,29.4s-21.9-11.2-21.9-28.3,10.7-23.9,25.4-23.9,28.8,5.7,28.8,22.8Z"/>
      <g>
        <path d="M208.2,138c5.7-9.4-3.8-18.6-4.9-21.7-3-7.9-6.7-9.9-9.9-10.8-2-.6-5.9-1-12.8-1s-28.6-3-34,13.5c-7.1-3-12.4-2.6-19.7-1-1.5-2.7-5.4-11.5-20.2-12.5-1.9-.1-9-.7-15.8,1-7.9,2-7.7,2.8-9.9,4.9-2.2,2.2-4.5,9.6-4.9,17.7-.3,6.9,2,16.8,3,18.7s3,5.9,5.7,7.3c13.1,7.4,14.8,4.9,20.9,4.5,14.8-1,26-18.2,25.6-32.3,20.9-1.9,7.4,3.4,18,22.4,2.5,4.6,9.6,10.9,16.5,12.9,4.8,1.4,14.6,1.8,22.7-2,12.8-5.9,16.8-16.8,19.7-21.7ZM123.2,130.8c-.3,7.4-3.3,13.3-8,17.1-6.1,4.9-15,6.4-24.5,3.6-5.7-1.7-7.7-6.2-8.6-8.6-3.9-9.9,0-23.6,1-26.6,1.9-5.7,10.2-7.6,15.8-7.9,8.5-.5,17.1.2,21.4,8.6,2.1,3.9,3.1,9.3,3,13.8ZM155.7,148.8c-3.5-4.7-5.3-13.7-5.4-19.5-.4-15.7,5.1-18.8,19.7-20.2,5.5-.5,11.3-.9,16.8,0,.8.1,2.4.3,3,.5,2.1.5,4.2,1.3,5.7,2.8.5.5,4.3,5.9,5.9,16.7.5,3.3,0,7.9-1.7,12.5,0,0,0,0,0,0-8.8,20.1-35.6,18.2-43.8,7.1Z"/>
        <path class="st37" d="M222.5,115.1c-.6-.6-13.5-6.3-15.8-6.9-2.5-.7-8.1-.1-8.4.3,4.6,4.4,2.9,14.7,6.9,18.7.6.6,3.6-1.2,5.7-2.2l.2.2h2v-.8c9-.7,11.7-2.9,14.8-1.2-.4-1.6-4.4-7.1-5.4-8.1Z"/>
        <g>
          <path class="st3" d="M77.4,119q-4.9,2.2-9.9,4.4c-.5-1.1-2.6-9.5-1.2-10.3,22.5-3.4,17.4-10.1,11.1,5.9Z"/>
          <path d="M77.4,119q-.6,4.9-1.2,9.9c-3.2-2.1-6.8-1.7-8.6-5.4q4.9-2.2,9.9-4.4Z"/>
        </g>
        <path d="M223.9,125.2c.8.1,1.5.1,2,.2s.7.1.7.1c0,0,.9-.8,1.1-1,.5-.6.4-1.4.2-2.3-2.9-1.6-6,.8-13.4,2-9.4.8-12.3-2-12.3-2l1,3c0,.5.5,2.4,1,4.3l-2,.7,2,6.8c5.4-5.4,8.3-3.4,14.8-8.9,2.3-1.8,4.4-2.8,4.9-3Z"/>
      </g>
    </g>
    <path class="st36" d="M104.9,233.4c-7.4.6-11,.9-18,4.9-10,5.8-20.8,26.7-18.2,31.8,3.4,6.8,7.9,33.3,14.8,39.2,1.9,1.6,7-21.4,9.4-22.4,3.3-2.6,10.9-49.3,10.9-49.3l1-4.2Z"/>
    <g>
      <path class="st15" d="M88.5,266.1c-.1-.5-.3-.9-.5-1.2l.5,1.2Z"/>
      <path class="st15" d="M92.3,289.1c1.9-4.1,3.9-9.2,1.9-8.8l-5.6-14.3c.9,3.2.6,9.7-.3,16.7-4.3.7-8.1-.9-8.1-.9,1.5,2.6,3.4,5.1,5.1,7s1.7,3.2,1.4,5c-1.5,9.5-3.2,17.5-3.2,17.5l8.8-22.3Z"/>
    </g>
  </g>
  <g id="Generative_Object">
    <g>
      <path class="st30" d="M196.5,402.1c-2.3-.2-3.4.8-5,2.1-1.1.9-1.9,2.5-2.8,3.5-18,19.4-31.2,49.1-63.9,43.6,10.9,7.7,24.2,18.7,38.3,13.8-.7,3.3,13.7-.3,16.3-2.8-1.1,1.9,8.7,1.8,14.5,1.4,8.1-.5,15.8-3.5,23.8-4.3-1.9,14.2.5,15.2-13.1,20.6-26.8,10.5-121.2,18.3-113.2-21.3,45.4-13.9,81.4-27.4,103.6-72.4,2,1.5,1.8,12,1.4,15.6Z"/>
      <path class="st17" d="M197.2,363.1c1,.6,2,1.4,2.1,1.4-16.3,37.4-32.7,60.6-72,75.2-18.3,6.8-38.2,8.8-55.7,17.7-.6-2.5.3-15,.7-18.8,1-9.5,12.2-54.6,15.6-63.2,2.6-6.4,8.2-13.1,9.2-15.3,38.4-35.6,15.1-9.2,2.8,10.3-7.2,11.4-20.4,33.5-3.2,20.2l1.1,1.1c-15.5,15.4-21.1,34.4-20.2,55.7,51.2-5.7,93.6-41.8,119.6-84.4Z"/>
      <path class="st12" d="M236.2,424.1c2.2,8.4,4.1,17,7.1,25.2-4.6,2.8-24.1,7.5-25.5,10.3-8,.8-15.7,3.7-23.8,4.3-5.9.4-15.7.5-14.5-1.4.2-.1,1.6-2.8,2.1-3.5,1.3,3.7,8.9-7.1,10.6-11,6.5-14.9,5.7-42.9,7.8-20.2-.8,11.3-4,26-3.5,27.3,1.2,3.4,13.2.8,14.5-.4,4.2-3.6,1.5-63.2-7.5-69.5.7-2.1,6.9-13.4,9.2-12.4,5.3,24.3,12,48.4,15.6,73.1h1.4c.7-18.5-8.2-19.7,6.4-21.6Z"/>
      <path class="st30" d="M223.4,374.5c3.1,16.8,8.4,33.2,12.8,49.7-14.6,1.9-5.7,3.1-6.4,21.6h-1.4c-3.6-24.7-10.3-48.8-15.6-73.1-2.3-1-8.5,10.3-9.2,12.4-1.3,3.8-1.7,8-2.1,12.1-3.8,15-12.4,49.7-19.9,61.7-.5.8-2,3.4-2.1,3.5-2.7,2.5-17,6.1-16.3,2.8,17.1-5.8,31.6-46.8,33.3-63.2.4-3.6.6-14.1-1.4-15.6,3.2-6.4,5-13.6,8.5-19.9,5.6,2.8,13.9,6.4,19.9,7.8Z"/>
      <path class="st12" d="M203.6,366.7c-3.6,6.3-5.4,13.5-8.5,19.9-22.2,45-58.2,58.4-103.6,72.4-6.5-1.6-18,6.1-19.9-1.4,17.5-8.9,37.4-10.9,55.7-17.7,39.3-14.6,55.7-37.8,72-75.2,1.4.8,2.8,1.4,4.3,2.1Z"/>
      <path class="st30" d="M253.2,278c3.9,5.5,4.2,6,.1,10.4s-10.9,7.5-11.4,8c-1.8,1.9-14.7,12.2-22.8,22,0-.3-3.5,1.8-.7-3.9,1-2,18-18.5,21.3-24.5.4,3.7,9.3-8.1,13.5-12.1Z"/>
      <path class="st17" d="M184.4,354.6c-16.9,25.7-48.6,52.3-78.4,61,28.7-16.3,54.5-37.6,76.3-62.4.1,0,.6.3,2.1,1.4Z"/>
      <path class="st12" d="M196.5,402.1c-1.8,16.3-16.2,57.3-33.3,63.2-14.1,4.8-27.4-6.2-38.3-13.8,32.7,5.4,45.8-24.2,63.9-43.6-.8,5.4-6,20.6-8.5,25.9-3.8,8.1-9.9,19.7-19.5,21.6-1,.2-24.6,1.1-6.4,2.8,24.2,2.4,32.5-33.5,38-51.4.2-.6.2-2.6-.7-2.5,1.6-1.3,2.7-2.3,5-2.1Z"/>
      <path class="st17" d="M188.7,407.8c1-1,1.7-2.6,2.8-3.5.9,0,.9,1.8.7,2.5-5.4,17.9-13.8,53.8-38,51.4-18.2-1.8,5.4-2.6,6.4-2.8,9.6-2,15.7-13.6,19.5-21.6,2.5-5.3,7.7-20.5,8.5-25.9Z"/>
      <path class="st12" d="M239.8,290c-3.2,6-20.3,22.5-21.3,24.5-2.8,5.7.6,3.6.7,3.9.1.4-.1,1.1,0,1.4-.9,0-.7.7-.7.7-5.5,4.1-9.7,14.7-11.4,21.3-.6,0-3.5.9-12.8-.7.3-1.2-.7-1.7-.7-1.8.3-1.5,9.8-24.7,11.4-28.4,7.8-18.8,17.5-36.9,25.2-55.7-3.2,4.4-5.9,9.3-8.9,13.8-.5.8-1.4-1-1.8-.4-9,14.7-17.9,52.7-30.2,71-3-.7-7.7-.7-11-2.1-2.6-1.1-3.7-3.4-3.9-3.5,8.4-9.1,17.4-18.2,24.1-28.7,12.6-19.6,25.1-61.8,35.1-57.1,5.9,2.7-10.5,30.4-12.4,35.1-6.4,15.8-11.6,32.3-17.7,48.3,17.8-17.6,30-57.6,33.3-61.7,6.1-7.5,10.8,5.7,2.8,20.2Z"/>
      <path class="st30" d="M221.7,238.9c-10.4-.9-16.9,16.3-27.3,28.7-16.2,19.5-39,37.2-57.6,54.5-10.1,2.6-29.1,23.3-36.1,30.3-.6,1.1-1.6,2.4-2.1,3.5-.1.2-.4,2.2-1.4,4.3,38.4-35.6,15.1-9.2,2.8,10.3-7.2,11.4-20.4,33.5-3.2,20.2l1.1,1.1c-15.5,15.4-21.1,34.4-20.2,55.7,51.2-5.7,93.6-41.8,119.6-84.4-3.4-2-9.6-6.2-12.8-8.5-16.9,25.7-48.6,52.3-78.4,61,28.7-16.3,54.5-37.6,76.3-62.4,0,0-.6-1.4-.7-1.4-2.2-2,29.8,20,36.5,0,2.6-7.9,3.7-8.6.6-21.3-5.6-22.8-9.8-68.5-10.8-66.6,4.1-.7,15.5-23.7,13.8-24.8Z"/>
      <path class="st12" d="M207.8,263.8c-.8,1.5-.7,2-.7,2.1-4.5,8.3-25.5,37.2-45.9,64-17.4,22.9-44.1,62.5-50.1,68.5-.2,0-14.1-4.5-7.2-15,10.4-16,52.9-58.6,52.8-58.6,17.6-18.2,33.7-38,47.5-59.2.8-1.2,10.5-19.2,11.4-17-2.9,4.9-5.2,10.2-7.8,15.3Z"/>
      <path class="st12" d="M166.5,332.1c-.8-.4-49.9,62.6-50.1,62.5,4.6-18.2,82.3-113.2,90.7-128.6,5.2,2.4,1.3,1.1,0,3.2-12.7,20.3-24,45.5-40.6,62.9Z"/>
      <g>
        <path class="st12" d="M253.2,278c-4.2,3.9-13.1,15.7-13.5,12.1,7.9-14.5,3.3-27.7-2.8-20.2-3.4,4.1-15.6,44.1-33.3,61.7,6.2-15.9,11.3-32.4,17.7-48.3,1.9-4.8,18.3-32.4,12.4-35.1-10-4.7-22.5,37.5-35.1,57.1-6.7,10.5-20,32.8-28.4,42-6.1,8.7-54.9,54-56.8,52.7s53.5-71.1,52.5-71.6c16.6-17.5,28.4-38.9,41.2-59.2,1.3-2.1,5.2-.8,0-3.2,0,0,0-.6.7-2.1,4.1-.7,15.5-23.7,13.8-24.8-10.4-.9-16.9,16.3-27.3,28.7-18.9,22.7-43,40.6-63.9,61.4-3.9,1.6-4.8,4.5-5.7,5-9.9,2.2-17,11.4-24.1,18.4.4-.7,1-6.7,5.7-13.8,2.1-3.2,20.1-21.2,24.8-25.9,12.4-12.3,26.3-23,38.3-35.8,4.5-4.8,8.9-10,13.4-15.4,8.1-9.8,8.6-22.7,16.7-31.7,4.8,1.7,18.5,4.8,23.5,6.3,22.5,7.8,18.7,14.9,23.1,24.7,2.3,5.2,5.8,13.3,7.1,17.2Z"/>
        <path class="st30" d="M202.5,244.6c2.1-.3-.4,3.9-1.1,5.3-14.3,27.9-55.2,60.1-79.1,81.2-.1-.6,1.6-4.4,1.8-4.6,8.1-11.5,62-50.4,78.4-82Z"/>
        <path class="st30" d="M234.3,275.9c9.5-2.5-12.3,33.4-19,45.9-7-2.9,20.1-40.5,19-45.9Z"/>
      </g>
      <path class="st17" d="M200,427.7c.7-9.9.4-21.2,1.4-30.5.4-4,.8-8.2,2.1-12.1,8.9,6.3,11.6,66,7.5,69.5-1.3,1.1-13.4,3.8-14.5.4-.4-1.3,2.7-16,3.5-27.3Z"/>
      <path class="st30" d="M200,427.7c-2.1-22.7-1.3,5.3-7.8,20.2-1.7,3.9-9.4,14.7-10.6,11,7.5-12.1,16.1-46.8,19.9-61.7-1,9.4-.7,20.7-1.4,30.5Z"/>
      <path class="st30" d="M183.3,322.7c-1.5-.3,22.9-12.2,21.4-12.5,16.2-27.6,34.5-63.2,25.6-60.6,6.9-2-41.5,46.4-47,73.2Z"/>
      <path class="st30" d="M218.5,320.5l1.4,22.7c-8.2,1-12.1-1.3-12.8-1.4,1.7-6.6,5.8-17.2,11.4-21.3Z"/>
    </g>
    <g>
      <path class="st5" d="M180.7,465.8s-41.4,10.6-60.1-9.1c-.6-.6-1.6-.4-2.4-.4-5.5-.2-25,4.5-23.4,11,.2,1,1.9,12.5,5.6,15.7,6.9,5.9,42.4,7.9,66,6.9,14.1,0,53.2-11,54.2-15.9,1-4.8.9-11.3,1.9-17.2-24.5,13.5-41.9,9.1-41.9,9.1Z"/>
      <path class="st27" d="M152.1,490.1l-1.3-10.5s2.6,10.5,3.9,10.5h-2.6Z"/>
    </g>
  </g>
  <path class="st17" d="M186.6,263.6l-39.8,43.1s-28.8,36.4-42.2,34.4c-10-1.5-19.9-12.5-19.7-28.8,0-5,2.8-13.8,4.5-18.2s-4.2-11.4-2.8-12.2c7.4-4.2,37-12.8,41.5-14.4,25.4-9,41.8-15.4,53.7-22,14.7-8.2,14.1-16.7,17.8-15.6,8.6,2.7-6.3,26.8-13,33.7Z"/>
  <path class="st30" d="M134,272.3c-1.5.9-1.6,1.4-1.7,1.4-15.3,8.6-25.9,16-43.7,20.2-.4-.5-.4-5.5-.6-5.7,24.6-6,19-5.8,42-16.3,1.4-.6,19.1-10.7,18.7-8.4-5.1,2.6-9.8,5.9-14.7,8.8Z"/>
  <path class="st12" d="M163.2,281.8c-11.9,13.8-39.7,52.7-58.3,59.5-1.9-.6,49.1-52.8,47.1-52.9-3.1,3.1-49.7,36.4-58.5,46.7,11.2-17.2,36-32.6,56.4-56,4.2-4.8,9.9-5.5,16.7-10.8s19.1-9.5,22.9-14.1c1.1,1-25.5,26.7-26.2,27.5Z"/>
  <path class="st30" d="M143.1,293.8c-13.3,11.2-36.7,28.3-49.6,41.3,1.4,1.6,4.8,3.8,6.1,4.4,1.1.6,4.7,1.5,5.2,1.6s8.7-9.5,9.9-10.5c10.3-7.9,41.4-43.4,37.5-42.8-2.5,2.2-9,5.9-9.1,5.9Z"/>
  <path class="st12" d="M88.6,328.6c-3.5-5-6.1-16.8-1.5-28.6s24.5-9.7,27-10.3c6.3-1.7,15.5-10.3,23-12.7,3.4-1.1,41.9-27.6,45.8-27.6,0,0,29.3-28.9,16.3-10.3-4.3,6.3-50.2,37.8-52.6,40.7-5.3,6.4-27.7,26-28.4,26.6-5.7,5.2-29.7,22.2-29.7,22.2Z"/>
  <g>
    <path class="st20" d="M113.2,293.7"/>
    <path d="M48.6,196.9c0,0-.7,0-.9-.4.5-.5.8.4.9.4Z"/>
    <g>
      <g>
        <path class="st0" d="M260.5,365.9c-16.5,19.8-64.3-2.3-82.4-13.7-.5-.9,7.2-8.3,8.1-9.5,3.2-4,5.5-6.8,7.7-11.6,7.7-15.8,2-17.5,2.4-20.4,0-.2,1.1-.5,1.2-1-1,.1-1.2.1-2.1.6,0,1-1.4,13.1-1.7,14-1.8,4.7-15.3,9.9-19.6,14.5-3.1-1.8-5.9-5.9-7.2-5.4-2.3,14.3-1.9,16.4,9.2,25.3,3,2.4,23.5,16.7,26.8,18.7,12.2,7.3,39.5,20.3,52.4,10.6,3.6-2.7,5.4-6.6,6.6-10.8,1-3.3,1.5-6.7,1.8-10.2-1.1-.3-2.1-.7-3.1-1.2Z"/>
        <g>
          <path class="st29" d="M195.4,310.4c0,1-1.4,13.1-1.7,14-1.8,4.7-15.3,9.9-19.6,14.5-3.1-1.8-5.9-5.9-7.2-5.4.3-2.1.8-4.2,1.2-6.3,15.3,10.3-1,.6,2.2-5.1,16.6,9.2,14.1,4.2-.4-1.6.1-.5.2-1,.3-1.5,0-.3.1-.7.2-1,.8-.7.6-1.3.9-1.8,5.7,1.2,11.1,4.9,17.5,5.6-12.5-8.5-18.4-2.1-9.6-11.6,18.4,14.4,13.1,7.2-.4-3.1q.3-2.2.6-4.4c2-2.4,2.4-1.5,3.5-2.3,2.5-1.9-2.4-4.6,10.2.5-.1-6.5,2.4,3.8,2.4,9.5Z"/>
          <path class="st0" d="M168.1,327.3c0-.2,0-.3,0-.5.3-1.4,1.2-4.3,1.7-6.2,14.6,5.8,17.1,10.8.4,1.6-3.2,5.7,13.1,15.4-2.2,5.1Z"/>
          <path class="st9" d="M171.2,316.3c1.9-4.3,5.8-7.3,6.3-12.1.9-1.3,1.7-1.3,1.8-1.4q-.3,2.2-.6,4.4c13.5,10.3,18.8,17.5.4,3.1-8.8,9.5-3,3.1,9.6,11.6-6.4-.7-11.8-4.4-17.5-5.6Z"/>
          <path class="st9" d="M186.5,305.7c5.8,6.2,5.1,9.3-.4.7v-.5q.2,0,.4-.2Z"/>
        </g>
      </g>
      <path class="st29" d="M254.7,359.5c-5.8-5.3-16-5.8-23.1-7.5-2.5-.6-6.3-1.1-9.7-1.9-10.5-2.3-20.9-4.1-31.4-6.5-.2,0-.6,1-4.4-.8-.9,1.1-8.6,8.5-8.1,9.5,18.2,11.3,69,34.7,85.6,14.9l-2.6-8.1-6.4.4Z"/>
    </g>
  </g>
  <g>
    <g>
      <path class="st28" d="M55.3,212.3c1.3-.4,5.3-1.5,6.2-1.9,1.2-.5,4.4-1.5,1.7-2.8-5.2-2.5-18.9,4.1-24,5.8-1.3.4-1.6,1.1-2.1.8,0,.3.2.4.1.8,6-.4,12.2-1.1,18-2.7Z"/>
      <path class="st19" d="M63.3,207.6l.7-2c-8.8-3.1-17.8,2.8-24.7,7.8,5.1-1.7,18.8-8.3,24-5.8Z"/>
      <path class="st16" d="M118.5,418.9c0-1.3-.3-2.5-.6-3.7-.4-2.2-4-14.5-5.3-20.1-4.6-18.8-24.5-66.4-28.7-83.6-8.6-35.5-14.1-94-16.5-103.9q-.3-.5-.6-1c-.9-.3-1.9-.6-2.8-1l-.7,2c2.7,1.3-.5,2.2-1.7,2.8,2.9,10.6,4.5,21.4,7.1,32,.7,2.9,6.5,20.8,6.5,22,.4,10.5,25.4,108,30.3,126.2,2.8,10.1,7,19.9,9.3,30.2.5-.3,3.5-1.7,3.6-1.9ZM84.4,275.7c0-.2-.1-.5-.2-.7,0,0,.1,0,.2-.1,0,.3,0,.6,0,.8Z"/>
      <path class="st19" d="M112.5,422.2c-.5.2-9.6,1.6-10.7,2-6.7-27.5-8-66.2-8.8-62.7-2.2-8.6-4.6-16.6-8.7-24.1,0,0-12.7-32.7-10.4-47.6,0,0-.2,0-.3,0-2.2-14.2-13.9-62.5-17.1-75.4-.2-.6-.5-2-1.1-2.1,1.3-.4,5.3-1.5,6.2-1.9,2.9,10.6,18.6,72.4,19.3,79.9,2.8,12.5,11.4,44.9,11.5,44.9,5.4,18.2,8.2,37.1,13.2,55.3,2.8,10.1,7,19.9,9.3,30.2-.8.4-1.6,1.1-2.4,1.4Z"/>
      <path class="st7" d="M97.3,426.2c-.8,0-6.3.5-6.6.3-.3-1.5-1.2-2.8-1.7-4.3-.6-1.9-1-5.4-1.5-7.6-.3-1.5-4.7-43.6-16.4-89-13.2-51.2-34-106.2-34.2-107.5-.2-.9-.2-1.8-.6-2.6.2-.2.9-.3,1-.6,6-.4,12.2-1.1,18-2.7.7.1,1,1.4,1.1,2.1,3.1,12.3,13.8,56.9,16.7,73.2.1,0,.3-.1.4-.2l2.9,20.7c-1.5-.3,13.6,41.8,16.5,53.3,2.4,9.7,4.3,20.8,6.5,30.7.9,4,2.5,8,3.3,11.9,1.2,5.5,2,17.9,4.4,19.6-2.4.7-7.6,2.3-9.8,2.6Z"/>
    </g>
    <g>
      <path class="st23" d="M23.4,197.8c1.4-.5,5.5-2.1,6.4-2.6,1.2-.7,4.5-2,1.6-3.1-5.7-2.2-19.6,6-24.9,8.3-1.3.6-1.6,1.3-2.2,1,0,.3.2.5.2.8,6.3-.9,12.8-2.2,18.9-4.5Z"/>
      <path class="st2" d="M31.4,192.2l.6-2.2c-9.6-2.5-18.7,4.6-25.4,10.5,5.3-2.3,19.2-10.5,24.9-8.3Z"/>
      <path class="st32" d="M108.8,411.1c0-1.4-.6-2.6-.9-3.9-.6-2.3-5.5-15-7.4-20.8-6.6-19.5-31.9-68.2-37.8-86-12.2-36.9-23.4-98.3-26.8-108.6q-.4-.5-.7-1c-1-.3-2.1-.5-3.1-.8l-.6,2.2c2.9,1.1-.4,2.4-1.6,3.1,4,10.9,6.7,22.3,10.4,33.3,1,3.1,8.7,21.5,8.9,22.7,1.3,11.1,36.5,112.1,43.4,131,3.8,10.5,9.2,20.5,12.5,31.2.5-.4,3.6-2.1,3.7-2.3ZM59.9,262.4c0-.2-.2-.5-.2-.7,0,0,.1,0,.2-.1,0,.3,0,.6,0,.9Z"/>
      <path class="st2" d="M102.7,415.1c-.6.3-10.1,2.6-11.1,3.1-9.5-28.6-14.3-69.4-15-65.6-3.1-9-6.3-17.2-11.4-24.8,0,0-16.3-33.5-15.2-49.5,0,0-.2,0-.3,0-3.6-14.8-20.3-65-24.8-78.4-.2-.7-.7-2-1.4-2.1,1.4-.5,5.5-2.1,6.4-2.6,4,10.9,26.1,75.1,27.6,83,4.1,13,16.1,46.5,16.2,46.6,7.3,18.8,12,38.6,18.9,57.5,3.8,10.5,9.2,20.5,12.5,31.2-.8.5-1.6,1.3-2.4,1.7Z"/>
      <path class="st24" d="M87,420.8c-.8.2-6.7,1.1-7,.9-.5-1.6-1.5-2.9-2.2-4.4-.8-1.9-1.5-5.6-2.2-7.9-.5-1.5-8.9-45.8-25.3-92.8C31.7,263.5,4.8,207,4.5,205.7c-.2-.9-.4-1.8-.8-2.7.2-.2.9-.4,1-.7,6.3-.9,12.8-2.2,18.9-4.5.7,0,1.2,1.4,1.4,2.1,4.4,12.8,19.7,59,24.3,76.1.1,0,.3-.1.4-.2q2.4,10.8,4.9,21.7c-1.6-.2,18.1,43.1,22.2,55,3.4,10,6.4,21.7,9.6,32,1.3,4.1,3.3,8.2,4.6,12.3,1.7,5.7,3.8,18.8,6.4,20.3-2.5,1-7.8,3.1-10.2,3.6Z"/>
    </g>
    <g>
      <path class="st29" d="M58.3,316.9c3,.1,17.1-4.9,16.3,1.4-.6,4.8-20.4,7-24.6,6.5,12,3.3,23.4-3.2,24.7-3.2,4.3,0,7.2,2.6,4.6,5.9-3.4,4.3-25.5,3-27.8,6.1-5.2-1.1-5.9-8.3-7.1-12.4,0-4.1,0-25,.1-23.4.2,4.2,4.4,16.4,6,19.3,1.1,0,6.6-.2,7.7-.2Z"/>
      <path class="st29" d="M80.6,336.4c0,0,4.5,4.4-12,11.2s-11,4.5-13.6-3.7c7.7-3.9,17.4-4,25.6-7.5Z"/>
      <path class="st4" d="M51.5,333.6c-1.5,2.1.2,6,2.4,7,2.8,1.2,22.9-3.1,26.5-5.8,0,1,.2,1.3.2,1.5-8.2,3.5-17.8,3.6-25.6,7.5-.6.3-1.5.3-2.1.6-6.3-7.8-8.6-13.5-8.5-23.3,1.2,4.1,1.9,11.3,7.1,12.4Z"/>
      <path class="st6" d="M57,349.3c-2.3-.9-2.8-3.2-4.1-4.8.7-.3,1.5-.3,2.1-.6,2.6,8.2,12.9,4,13.6,3.7,5.6-2.9-6.5,3.8-11.6,1.7Z"/>
      <path class="st29" d="M81.6,331c.1,2.1-1.2,3.6-1.2,3.8-3.6,2.7-23.7,7-26.5,5.8-2.2-1-3.9-4.9-2.4-7,1.1.2,15.1-1.1,17.6-1.6,6.5-1.1,9.9-5.2,12.5-1.1Z"/>
      <path class="st4" d="M81.6,331c-2.6-4.2-6,0-12.5,1.1-2.5.4-16.5,1.8-17.6,1.6,2.3-3.1,24.4-1.8,27.8-6.1,1,1.5,2.2,1.2,2.3,3.5Z"/>
    </g>
  </g>
</svg>