<?xml version="1.0" encoding="UTF-8"?>
<svg xmlns="http://www.w3.org/2000/svg" xmlns:xlink="http://www.w3.org/1999/xlink" version="1.1" viewBox="0 0 310 491">
  <defs>
    <style>
      .st0 {
        fill: none;
      }

      .st1 {
        fill: #1e131b;
      }

      .st2 {
        fill: #bfe4e7;
      }

      .st3 {
        fill: #8e3327;
      }

      .st4 {
        fill: #c05e58;
      }

      .st5 {
        fill: #181919;
      }

      .st6 {
        fill: #232323;
      }

      .st7 {
        fill: #66256a;
      }

      .st8 {
        fill: #8e3226;
      }

      .st9 {
        fill: #c25f41;
      }

      .st10 {
        fill: #a34737;
      }

      .st11 {
        fill: #ff9100;
      }

      .st12 {
        fill: #ec9927;
      }

      .st13 {
        fill: #944397;
      }

      .st14 {
        fill: #e57a4d;
      }

      .st15 {
        fill: #c35f41;
      }

      .st16 {
        fill: #4af40b;
      }

      .st17 {
        fill: #9e9e9f;
      }

      .st18 {
        fill: #141114;
      }

      .st19 {
        isolation: isolate;
      }

      .st20 {
        fill: url(#linear-gradient);
        opacity: .6;
      }

      .st21 {
        fill: #65256a;
      }

      .st22 {
        fill: #fff;
      }

      .st23 {
        fill: #b56724;
      }

      .st24 {
        fill: #c085b9;
      }

      .st25 {
        fill: #fbbb29;
      }

      .st26 {
        fill: #8bd2d9;
      }

      .st27 {
        fill: #0d1313;
        opacity: 1;
      }

      .st28 {
        fill: #fffce3;
        mix-blend-mode: luminosity;
        opacity: .4;
      }

      .st29 {
        fill: #e6794d;
      }

      .st30 {
        fill: #4b131e;
      }

      .st31 {
        fill: #c12e4c;
      }

      .st32 {
        fill: #24130c;
      }

      .st33 {
        opacity: .8;
      }

      .st34 {
        fill: #14ad9b;
      }

      .st35 {
        fill: #2e653d;
      }

      .st36 {
        fill: #e6f4f7;
      }

      .st37 {
        fill: #d43a5c;
      }

      .st38 {
        fill: #a06b9c;
      }

      .st39 {
        fill: #dbb4d4;
      }

      .st40 {
        fill: #a46cac;
      }

      .st41 {
        fill: #fafbfd;
      }

      .st42 {
        fill: #e67a4d;
      }

      .st43 {
        fill: #271a26;
      }

      .st44 {
        fill: #353535;
      }

      .st45 {
        fill: #f9e5a9;
      }

      .st46 {
        display: none;
      }

      .st47 {
        clip-path: url(#clippath);
      }

      .st48 {
        fill: #4f180e;
      }

      .st49 {
        fill: #8d3428;
      }

      .st50 {
        fill: #ef925d;
      }
    </style>
    <linearGradient id="linear-gradient" x1="21.9" y1="305.2" x2="374.9" y2="278.5" gradientTransform="translate(-54.6 -53.6) rotate(-5.7)" gradientUnits="userSpaceOnUse">
      <stop offset="0" stop-color="#fefad2"/>
      <stop offset="0" stop-color="#fdf9d1" stop-opacity="1"/>
      <stop offset=".2" stop-color="#fcf8d0" stop-opacity=".7"/>
      <stop offset=".3" stop-color="#faf6cf" stop-opacity=".5"/>
      <stop offset=".5" stop-color="#f9f5ce" stop-opacity=".3"/>
      <stop offset=".6" stop-color="#f9f5cd" stop-opacity=".2"/>
      <stop offset=".8" stop-color="#f8f4cd" stop-opacity="0"/>
      <stop offset=".9" stop-color="#f8f4cd" stop-opacity="0"/>
      <stop offset="1" stop-color="#f8f4cd" stop-opacity="0"/>
    </linearGradient>
    <clipPath id="clippath">
      <rect class="st0" x="46.4" y="282" width="37.7" height="86.4" rx="10" ry="10" transform="translate(-31.9 8.1) rotate(-5.7)"/>
    </clipPath>
  </defs>
  <g class="st19">
    <g id="Layer_1">
      <g>
        <g>
          <g>
            <path class="st42" d="M228.3,258.5s-2.9,5.4-6.1,10.3c3.3-4.4,4.9-8,6.1-10.3Z"/>
            <path class="st42" d="M233.3,259.8l-5-1.2c1.6.6,3.2.9,5,1.2Z"/>
            <path class="st42" d="M222.2,268.8c-1.8,2.5-4.2,5.1-7.3,7.9,1,1.2,4.2-3.2,7.3-7.9Z"/>
            <path class="st42" d="M277.3,311.1c-4.6-10.8-12.1-25.6-19.1-35.4-1-1.8-2.1-3.6-3.4-5.2-6.9-8.9-14.9-9.5-21.5-10.7h0s-13.6,29.9-3.7,38.3c8.5,7.3,39,59.7,39,59.7,0,0,23.7-11.2,22.2-15.5s-8.4-19.1-13.5-31.2Z"/>
          </g>
          <g>
            <path class="st50" d="M210.3,161.3l4.2,19.2s2.1,3,3.3,2.5c3.4-1.4,5.8-7.5,5.8-14.2s-3.3-11.7-3.3-11.7l-10,4.2Z"/>
            <g>
              <g>
                <path class="st18" d="M239.6,161.9c-2.6-1.5-1.4,4-9.2,4.6,0-6.3-1.2-8.7-5.8-13.2l.6-.6c1.9.6,12.9,5.3,13.4,5.8.8.9.7,2,1,3.3Z"/>
                <path class="st18" d="M239.6,161.9c.4,1.5.2,4.1.8,4.6-1,.2-7.5,6.7-10.4,6.3.4-1.9.4-4.3.4-6.3,7.8-.5,6.6-6.1,9.2-4.6Z"/>
              </g>
              <g>
                <path class="st18" d="M112.2,105.5c-1.4,1.7-3,3.2-4.2,5,.2-1.2.6-2.3.4-3.6-1.3-.5-8.5-6-8.8-6.5-.2-.3-1.7-7.1-1.7-7.7.1-3.4,2.5-6.9,5-9-5.2,11.4,8,16.4,8.8,18.6.4,1.2-1,2.9.4,3.1Z"/>
                <path class="st18" d="M291.4,117.6c3.6,6,2.4,8.8,0,15.3,4,.9,4.5.4,8.4,2.3l-.2.8c-.8-1.7-.5,1.4-5-1.3-1,4.7-6.1-2.1-4,4.4-5.6,2.6-1.9-14.2,1.7-15,.3-.7-4.7-9.5-.8-6.5Z"/>
                <path class="st43" d="M293.5,195.3c-.1-.1-.3-.3-.4-.4-.3-16-10.7-10.9-16.9-15-4-2.7-6.8-17,12.3-16.1,4.9,7-12.2,5.6-10.4,9.2.4.9,13.2,5.3,15,7.5,2.6,3.2,2.6,12.2.4,14.8Z"/>
                <path class="st1" d="M77.5,181.1c-.7,1.2-4.4,3.4-2.9,10.4-5-1.8-13.1-2.3-12.1-9.4,1.6-11.4,13.8-1,15-1Z"/>
                <path class="st1" d="M88.3,165.6q.4,3.9.8,7.7-5.8,3.9-11.7,7.7c.5-.8,1.9-1.8,2.1-2.3,1.8-4.7-3.8-8.2-3.3-13l12.1-.2Z"/>
                <g>
                  <path class="st18" d="M115.5,161.9q-.5,4.2-1,8.4c-2.7-1.7-5.8-1.4-7.3-4.6q4.2-1.9,8.4-3.8Z"/>
                  <path class="st34" d="M125.1,158.5c-1.2,3.1-2.4,4.7-2.5,8.4-3,1.7-1-7.4,2.9-10.2l-.4,1.9Z"/>
                </g>
                <g>
                  <path class="st1" d="M302.3,182.1c1.3-14.6-6.6-14.7-7.1-15.5-2.6-3.6,4.8-3.3,8.8-7.9,6-7,4.2-19.4-4.2-23.6l-.2.8c-.8-1.7-.5,1.4-5-1.3-1,4.7-6.1-2.1-4,4.4-5.6,2.6-1.9-14.2,1.7-15,.3-.7-4.7-9.5-.8-6.5-3.4-5.6-9.4-8.2-15.7-5.4-2.4-.5.8-5.1-8.6-10.2,7.3-13.5-9.9-24.6-18.6-11.9-22.4.6-115.9-9.7-127-5-1.7,0-8.7-9.4-18.6-1.3-5.2,11.4,8,16.4,8.8,18.6.4,1.2-1,2.9.4,3.1,1.9-2.4,3.1-.4,1.7-7.7,13.5-15,12.7-9.4,31.5-6.9,2.8-.7,2.8-12.8,8.8-13.8,8.4-1.4,10.5,9,7.1,11.7-3.2,2.5-2.8-2.3-5.8-6.7-3.3,19.8-15.5,13.2-30.5,11.3-7.4,5.1-3.9,8.9-4.8,11.5-.2.7-6.7,6.2-7.1,7.1-2.6,5.6,4.5,4.6-14.6,14.6-2.1,5.2,7.9,14.2-6.1,20.3-4,1.7-14.6,1.9-11.7,5.4,2.3,2.9,13.4,5.3,14,15.3,1.3,19.9-23.6,9-11.7,30.7-.2,0-1.3,1.5-4.4,2.5-.5-.1-3.9-8.7-4-9.2-5-1.8-13.1-2.3-12.1-9.4,1.6-11.4,13.8-1,15-1,.5-.8,1.9-1.8,2.1-2.3,1.8-4.7-3.8-8.2-3.3-13l12.1-.2c0-2.4-7-6-11.7-9.2-1.8-3.9-.9-8.6,1.7-12.1,7.4-3.3,16.6-1.4,16.7-6.9,0-.4-1.9-5-2.1-8.6-.7,0-1.3,0-1.9,0,.6,0,1.3,0,1.9,0-.6-9.4,12.3-11.2,13.4-12.3.4-.5,1.5-4.9,1.7-6.1.2-1.2.6-2.3.4-3.6-1.3-.5-8.5-6-8.8-6.5-1,.2-2,.8-2.9,1.3-.5.8-.9,1.5-1.3,2.3.4-.7.8-1.5,1.3-2.3-6.7,3.7-4.5,3-7.7,9.6-16.1-1.3-22,14.3-10.7,25.3-2.2.7-4.5,1-6.7,1.9-1.7.7-2.8,1.2-4.2,2.5-7.9,7.5-4.2,18,5,21.9.6,1.6-3.4,3.8,0,11.7-15.8-1.8-21.4,16-6.7,23-3.1,7.7,2.5,17.9,11.1,14.8,6.9,6.8-1.7,6.9-.2,16.5,1.2,7.5,11.8,12.3,18.2,7.7,9,3.7,4.6,4.3,7.7,8.6,4,5.4,13.7,4.9,18.2.2,1.2.3.6,11.8,16.7,9.6,3.9-6.9,5.2-2.1,11.3-5,4.5-2.2,4.5-8.2,9-4.2,2.4-3.4,3.8-7.6,7.1-10.4,0-.6.1-.7.4-1.3-6.4-1.1-22.5-13.1-27.6-17.7-8.7-7.7-13.9-14.6-13.7-26.4.1-.5-.3-7-1.3-9-.3-.7-.3-7.9,0-14.2-3,1.7-1-7.4,2.9-10.2q-.2.9-.4,1.9c.1-.3,1.2-2.8,1.3-2.9,1.2-2.2,2.1-5.8,5.4-4.8q-.8-1.1-1.7-2.3c.9-7.9,6.6-26.9,14.6-30.5,4.7-2.1,9.2,1,14.8-7.1,19.1,10.8,26.5-2,28-2.5,5.8-2.2,7.4,4.4,7.7,4.8,6.6,7.5,13.5,4.7,19.2,15,2.3,4.1,3,9.4,5.4,13.4,1,1.7-.7,13.9.4,16.3,3.8,8.6,3.3,17.5.9,21.5,5.6-8.9,1.5,3.1,6.7-1.7.5-1.1,2-4.4,2.1-5,.4-1.9.4-4.3.4-6.3,0-6.3-1.2-8.7-5.8-13.2l.6-.6c1.9.6,12.9,5.3,13.4,5.8.8.9.7,2,1,3.3.4,1.5.2,4.1.8,4.6,9.8-2.4,14.3,15.8,2.7,25.5-9,7.5-13.8-2-19.4,6.5-.3.4-.8,3.9-4.6,9.4-5.2,7.4-13.9,12.9-21.7,17.1,1,2.4,1.4,5,2.1,7.5.6,2,1.6,4.3,1.7,4.6,4.8.5,6.6,5.5,9.2,7.1.5.3,3,.7,4,.8,5.9,11.5,21.4,8.9,25.1-3.3,8.1,8.5,20.4,10.2,23.8-3.3,6.1,0,10.5.6,14.6-4.6,15.3,1.7,21.2-13.7,10.2-24q2.6-3.4,5.2-6.9c5.2,1.3,10,0,12.7-4.6,3.5-6,1.8-12.2-3.8-16.1ZM94.5,106.1c-.3.7-.5,1.4-.6,2,.2-.6.4-1.3.6-2ZM80.6,113.8c.5-.2.9-.3,1.4-.4.5,0,1-.1,1.5,0-.5,0-1,0-1.5,0-.5,0-1,.2-1.4.4-.3.1-.7.3-1,.5.3-.2.6-.4,1-.5ZM76.7,119.2c0-.5.2-.9.4-1.3-.2.4-.3.9-.4,1.3-.1.7-.2,1.4-.1,2.1,0-.7,0-1.4.1-2.1ZM293.5,195.3c-.1-.1-.3-.3-.4-.4-.3-16-10.7-10.9-16.9-15-4-2.7-6.8-17,12.3-16.1,4.9,7-12.2,5.6-10.4,9.2.4.9,13.2,5.3,15,7.5,2.6,3.2,2.6,12.2.4,14.8Z"/>
                  <path class="st43" d="M200.9,78.3c10.5-1,18.2,17.1,38,10.4,9.7,12.8,17.8,8.9,13.6,24.4,2.2,1.1,10.4,8.3,11.1,8.6,4.6,1.6,18.2-2.5,14,14.4,4,1.4,17.9,6.9,19.6,10,2,3.6.6,10.9-3.6,12.3-9.7,3.4-.7-8-1-9.4-10.4-9.6-25-.7-19.2-20.5q-5.5-.5-11.1-1c-7-9.2-11.1-6.8-13.6-9.8-6.7-8.1,10.5-18.9-16.5-15.3q-1-3.6-2.1-7.1c-10.3.3-19.2-5.5-27.2-11.3-3.5-.2-14.3,6.8-11.9-.6.5-1.6,8-5.1,9.8-5.2Z"/>
                </g>
                <path class="st43" d="M82.9,198.2c-.2,0-1.3,1.5-4.4,2.5-.5-.1-3.9-8.7-4-9.2-1.4-7,2.2-9.3,2.9-10.4q5.8-3.9,11.7-7.7-.4-3.9-.8-7.7c0-2.4-7-6-11.7-9.2-1.8-3.9-.9-8.6,1.7-12.1,7.4-3.3,16.7-1.4,16.7-6.9,0-.4-1.9-5-2.1-8.6-.6-9.4,12.3-11.2,13.4-12.3.4-.5,1.5-4.9,1.7-6.1,1.2-1.9,2.8-3.3,4.2-5,1.9-2.4,3.1-.4,1.7-7.7,13.5-15,12.7-9.4,31.5-6.9,2.8-.7,2.8-12.8,8.8-13.8,8.4-1.4,10.5,9,7.1,11.7-3.2,2.5-2.8-2.3-5.8-6.7-3.3,19.8-15.5,13.2-30.5,11.3-7.4,5.1-3.9,8.9-4.8,11.5-.2.7-6.7,6.2-7.1,7.1-2.6,5.6,4.5,4.6-14.6,14.6-2.1,5.2,7.9,14.2-6.1,20.3-4,1.7-14.6,1.9-11.7,5.4,2.3,2.9,13.4,5.3,14,15.3,1.3,19.9-23.6,9-11.7,30.7Z"/>
              </g>
              <g>
                <g>
                  <g>
                    <path class="st3" d="M199.5,232.5c-7.6,9.7-18.2,17.2-30.1,20.5-2-2.6-4.5-5-5-8.4-.4-2.4.2-6.6.4-9.2,0-.6.1-.7.4-1.3,10.4,1.8,23.1-4.3,32.2-9.2,1,2.4,1.4,5,2.1,7.5Z"/>
                    <path class="st42" d="M201.1,237.1c.3,1.7.6,3.5.8,5.2-6.1,7.2-15.3,12.7-24.2,15.7-2.1.7-1.6.8-1.7.8-.6.1-.3.6-2.1-.4-.2-.1-1.1-.7-1.3-.8-.2-.2-2.8-3.9-3.3-4.6,11.9-3.3,22.5-10.8,30.1-20.5.6,2,1.6,4.3,1.7,4.6Z"/>
                  </g>
                  <path class="st42" d="M221.2,200.3c-5.3,14-40.9,31.2-51.2,30.9-13-.4-38.9-21.6-42-35.3,4.6.9,9.3,1,13.8-.2.5.7,2.5,2.5,5.4,7.1,5.8,9.2,9.3,18.7,22.6,17.1,10.6-1.3,13.1-8.5,16.3-12.1,2.7-3.1,5.7-6.1,8.4-9.2,3,.7,6.4,1.2,9.4.8,1.8-.2,9.9-3.4,9-5,1.9-.9,6.9-4.7,8.4-6.3,1.6,3.8,1.5,8.2,0,12.1Z"/>
                  <path class="st4" d="M212.8,194.5c.9,1.6-7.2,4.8-9,5-3,.4-6.4,0-9.4-.8.4-.4.5-1.2.8-1.7,5.7,1.2,12.3,0,17.5-2.5Z"/>
                  <g>
                    <path class="st42" d="M219.1,207.8c-1.4-1.4,3.9-5.1,2.1-7.5,1.5-3.9,1.6-8.3,0-12.1,1.4-1.5,4.9-8.2,5.8-10.2.5-1.1,2.9-4.7,3-5.3,3,.4,9.5-6,10.4-6.3,9.8-2.4,14.3,15.8,2.7,25.5-9,7.5-13.8-2-19.4,6.5-.3.4-.8,3.9-4.6,9.4Z"/>
                    <path class="st10" d="M242.1,182.3c1.6,5.9-4,6.6-6.1,5.4-2-1.2-3.1-8.6-1.9-11.3,3.5,1.5,7.2,8.9,7.9,5.8Z"/>
                    <path class="st48" d="M242.1,182.3c-.7,3.1-4.4-4.4-7.9-5.8,1.7-3.8,14.1-6.3,11.9,3.8-1.1-8.2-7.9-4.8-8.1-4-.2.6,3.5,3.4,4.2,6.1Z"/>
                  </g>
                  <path class="st50" d="M193.6,197.4c-1.5.3-2.8,1.7-4.6,2.1-15.9,3.4-29.2,4.5-43.9-3.8-.8-.5-1.7-.8-2.5-1.3,12.1-2.5,21-16,20.7-28,17.7-1.6,6.3,2.9,15.3,19,3.7,6.6,8.4,9,15,11.9Z"/>
                  <g>
                    <path class="st30" d="M142.7,194.5c.8.4,1.7.8,2.5,1.3,1.9,3,6.2,5.6,9.2,8.4.2.1.8,2.2,2.1,3.6.6.6,1.4,1,2.1,1.5-3.3,1.6-8.2-4.7-11.3-6.3-2.9-4.6-4.9-6.4-5.4-7.1,0,0,0-.6-.4-1.3.4,0,.9,0,1.3,0Z"/>
                    <path class="st30" d="M195.3,197c-.3.5-.5,1.2-.8,1.7-2.7,3.1-5.6,6.1-8.4,9.2-1.3.2-5.1,1-5.8,1.3,1.9-2.1,3.9-4.2,5.8-6.3,1-1,2.3-2.1,2.9-3.3,1.8-.4,3.1-1.7,4.6-2.1q.8-.2,1.7-.4Z"/>
                    <path class="st37" d="M186.1,207.8c-3.2,3.7-5.7,10.8-16.3,12.1-7.9-.4-15.3-9.3-10.9-10.4,9.9,6,16.9,1.2,21.3-.4.8-.3,4.6-1.1,5.8-1.3Z"/>
                    <path class="st31" d="M158.5,209.1c.5.3.4.4.4.4-4.5,1.1,2.9,10.1,10.9,10.4-13.2,1.6-16.7-7.9-22.6-17.1,3.1,1.6,8,7.8,11.3,6.3Z"/>
                    <path class="st31" d="M189,199.5c-.7,1.2-1.9,2.3-2.9,3.3-10.2,3.7-21.3,4.7-31.8,1.3-3-2.8-7.3-5.3-9.2-8.4,14.7,8.2,28,7.2,43.9,3.8Z"/>
                    <path class="st41" d="M186.1,202.8c-2,2.1-4,4.1-5.8,6.3-4.4,1.6-11.4,6.4-21.3.4,0,0,0,0-.4-.4-.7-.5-1.5-.9-2.1-1.5-1.3-1.3-1.9-3.4-2.1-3.6,10.4,3.4,21.5,2.4,31.8-1.3Z"/>
                  </g>
                </g>
                <g>
                  <g>
                    <path class="st41" d="M207,176.5c1.5-1.6.9-1.3,1.3-2.9,0-.4,0-.9,0-1.3,0-.1,1.1-.3,0-2.5,2.5.5,5.8,3.8,5.8,5.4,0,6.1-16.4,7-23.6.8-3.6-3.1-.7-2,.6-2.9,2.7-2,4.6-7.3,12.7-5.8,4.4.8-3,0-4.8,3.1-3.4,6.1,3.6,10.7,7.9,6.1Z"/>
                    <path class="st36" d="M208.3,169.8c1.1,2.2,0,2.4,0,2.5l-1.3,1.3c-5.5,1.2-4.2-4.9,1.3-3.8Z"/>
                    <path class="st26" d="M208.3,173.6c-.4,1.7.2,1.3-1.3,2.9-2.5-1.4,0-1.3.4-2.9h.8Z"/>
                    <path class="st35" d="M208.3,173.6h-.8c-.1,0-.3,0-.4,0l1.3-1.3c0,.4,0,.9,0,1.3Z"/>
                  </g>
                  <g>
                    <path class="st1" d="M134.3,149.6c-5.7,7.2-6.9,26-6.7,25.1.4.6-3.8,17.3-4.2,16.7-3.3-5.8-8.4-18.4-1.7-31.8,1.6-3.2,7.9-9.7,12.5-10Z"/>
                    <path class="st50" d="M221.2,179.4c4-9.2-6.9-4.2-7.1-4.2,0,6.1-16.4,7-23.6.8-3.6-3.1-.7-2,.6-2.9-.5-3.8,2.7-6.8,5.8-8.5,1.5-.8,5-.8,7.5-.8s5.8,2.5,8,4.8c.7.9,11.7-15.8,11.9-15.9.2,0,1.5-3.3,1.5-4-.2-1.5-4.8-5.4-5.8-7.1-2.4-3.9-3.2-9.3-5.4-13.4-5.8-10.3-12.6-7.5-19.2-15-.3-.4-2-7-7.7-4.8-1.4.5-8.8,13.3-28,2.5-5.6,8.1-10.1,5-14.8,7.1-7.1,9-18.1,37.2-17.9,36.9-.9,3.3-2.6,7.5-2.6,11.4-.4,3.1-.5,10.9-.8,11.7-3.3,7.5-.8,15.9,0,17.5.1.2,12.3-.3,18-1.1.4,0,.9,0,1.3,0,12.1-2.5,21-16,20.7-28,17.7-1.6,6.3,2.9,15.3,19,3.7,6.6,8.4,9,15,11.9l1.7-.4c5.7,1.2,12.3,0,17.5-2.5,1.9-.9,6.9-4.7,8.4-6.3,1.4-1.5,5.8-8.4,6.7-10.4-5.2,4.7-1-7.1-6.7,1.7ZM156.4,170.2c-1.6-.3-.5,2.6-.8,3.1-.7,1-2.8-1.3-3.3,1,0,.5,0,1.4,0,1.7,4.2.9-3.3,10-4.8,10-1.2,0-2.2-4.2-5.8-3.8-1.7.2-8.8-1.4-12.8-7.6.4-2.3.8-6.4.9-6.6.1-.3-.2-1.3.4-2.3,3.6-6.3,17.4-7.6,23.8-7.3,1.7,3.3,2.6,7.9,2.5,11.7ZM196.7,141.8c-1,0-2,0-2.9.1.9,0,1.9-.1,2.9-.1ZM188.4,143.2c-.4.2-.8.4-1.1.7.3-.2.7-.5,1.1-.7Z"/>
                    <path class="st41" d="M143.9,167.7c-13.9,3.3.9,16.5,4.2,6.3.5-1.6.5-2.9.4-4.6.4,0,2.8,2.4,3.3,3.8,0,.2.4,1.2.4,1.3,0,.2,0,.5,0,.8s0,.7,0,.9c-1.4,5-15.5,4.4-21.3,2.5-2-.7-2.3-2.9-2.1-4.6.7-5.7,13.5-8.8,15-6.3Z"/>
                    <path class="st42" d="M153.9,158.5c-6.5-.3-20.2,1.1-23.8,7.3-.6,1-.3,2-.4,2.3,5.7-8.2,23.2-6.1,22.1,5,0,.2.7,1.4,0,3.7-2.7,4-16,3-20.9,1.7-.3,0-2.2-.9-1.3.4,2.9,4,9.8,5.9,12.1,6.5,3.3.8,4.5,1,5.7.6,6.8-2.3,8.5-12.3,9-15.9.4-3-.8-8.4-2.5-11.7Z"/>
                    <path class="st2" d="M148.1,174c-1.8,2.2-4.1,1.2-2.9-1.7,1.7-.4,2.4-2.9,3.3-2.9,0,1.7.1,2.9-.4,4.6Z"/>
                  </g>
                </g>
              </g>
            </g>
            <path class="st18" d="M126.7,179.7"/>
            <path class="st15" d="M124.2,187.2c4.2,4.3,11.4,8.1,17.2,7.3.5.6.4,1.2.4,1.3-4.5,1.2-9.2,1.1-13.8.2,3.1,13.7,29,34.9,42,35.3,10.2.3,45.8-16.9,51.2-30.9,1.8,2.4-3.5,6.2-2.1,7.5-5.2,7.4-13.9,12.9-21.7,17.1-9.1,4.9-21.8,11-32.2,9.2-6.4-1.1-23.5-11.7-28.6-16.3-8.2-7.3-15-19.7-14.9-31.5,0,0,2.4.9,2.5.8Z"/>
            <path class="st15" d="M134.3,146c-1.4.8-6.3,8.4-7.6,9.4.9-7.9,9.2-35.1,18-37.4,11.1-3-3.7,3.7-8.8,20.3-.7,2.4-.8,5.3-1.7,7.7Z"/>
            <g>
              <path class="st42" d="M166.9,194.9c-3.5-.1-6.5-2.4-8.8-4.6-1.6-8.6,2.8-.8,4.8.4,5.2,3.1,15.1-.2,4,4.2Z"/>
              <path class="st48" d="M158.1,190.3c2.3,2.2,5.3,4.4,8.8,4.6,3.1.1,12.1-4.7,7.3-.8-9,7.4-22.5-5.8-17.5-5.8.4,0,.3,1,1.5,2.1Z"/>
            </g>
            <path class="st42" d="M195.3,152.7c2.5-.2.7.6-2.6,1.9-5.1,2.1-8.4,5.8-5.8,17.1,0,.4-.3.3-.6.6q-3.9-1.3-7.7-2.5c-.3-13.3,5-16,16.7-17.1Z"/>
            <path class="st15" d="M240.4,190.5l.8,1.7c.8,1.7-2.5,2.5-2.5,2.5-1,.3-1.7.8-2.5,0l.8-4.2c.8-1.7,3.1-.4,3.3,0Z"/>
            <path class="st42" d="M226.2,148.7c-.2-3.3-3.4-3.2-5.8-6.7-2-2.9-3.2-9.6-3.3-10-2.5-8.4-10-11.7-10-11.7,0,0,11.7,14.2,7.5,33.4-.5-.1-3.5-1.8-4.1-1.9-4.6.6-.9,1.4,1.3,5.2,2.8,5.1,4.3,11.2,2.9,16.9,0,.2,0,1.5,0,1.5,0,0-.8,1.8-1.7,2.5-4.2,3.3-12.5,2.4-15,1.7-1.6-.5-4.2-1.7-4.2-1.7,0,0,2.5,7.5,16.7,7.5s12-10.8,12.5-13.4c.8-3.8,0-8.4-2.5-13.4-.1-.2,5.9-8.4,5.8-10Z"/>
            <g>
              <path d="M125.9,156.6c0,.2.4,0,.9-.4,5-3.3,7.5-5,9.2-5.8,3.3-1.7,5.5-1.7,5.8-1.8,3.1-1,14.7,3,10.7-3.1-3.7-5.6-14.3-1.3-18.8,1-1.4.8-7.7,6.4-7.8,10.1Z"/>
              <path d="M209.7,152.4c.5.5.6-2,.2-3.3-3.4-9.1-22.9-7.5-24-3.6-1.7,5.9,8.7,1,18,3.3,2.3.7,3.1.7,5.8,3.6Z"/>
            </g>
            <g>
              <path class="st2" d="M241.2,197.2c0-1.7,0-4.2-.8-5s-1.5-1.7-2.5-.8c-.7.6-1.5,3.8-1.7,5.8,0,.7.3,2.9.9,3.3,1.7,1.3,2.7,1.1,3.3.2,1.7-2.6.8-2.3.8-3.5Z"/>
              <path class="st26" d="M241.7,196.5c-.2-2.3-.4-4-1.3-4.3-2.5-.8-.8,2.5-3.3,4.2-1,.7-.5,2.8,0,3.3,2.8,3.4,4.8-.9,4.6-3.2Z"/>
            </g>
            <path class="st15" d="M214.9,166.3c0,.2-.3.5-.4.3-3.3-6.1-14.3-7.6-18.6-5.6-2.6,1.2,6.3-6.8,14.5-3,4.1,1.9,4.3,6.6,4.6,8.3Z"/>
            <path class="st32" d="M220.1,169.4c-3.7,1.1-6,.7-7.3-.6-.3-.3-.6-.6-.9-.9-5.8-8.3-21.7-4.1-20.8,5.2,2.7-2,4.6-7.3,12.7-5.8,4.4.8-3,0-4.8,3.1-3.4,6.1,3.6,10.7,7.9,6.1-2.5-1.4,0-1.3.4-2.9-.1,0-.3,0-.4,0-5.5,1.2-4.2-4.9,1.3-3.8,2.5.5,5.8,3.8,5.8,5.4.4,1.1-.5,2-.5,1.9.8-.8,1.7-2.5.9-3.1,2,0,5.6-4.6,5.6-4.6Z"/>
            <path class="st15" d="M129.2,167.1s3.6-4.7,6.7-5.8c4.7-1.8,15.9-3.3,18.4-2.5s-9.7-3.8-17.7-.9c-1.1.4-2.9,1.4-4,2.5-3.3,3.3-3.3,6.7-3.3,6.7Z"/>
            <path class="st32" d="M130.2,167.4h0c-2.6,2.3-6.2.3-6.2.3,0,0,1.2,3,3.9,3.6.1,0,.3,0,.4.1,0,1.5,0,1.9.5,2.5.7-5.7,13.5-8.8,15-6.3,0,0,.2.2.2.2.2.2.1.3,0,.4.2,0,.2-.2,0-.4,0,0-.1-.1-.2-.2-13.9,3.3.9,16.5,4.2,6.3-1.8,2.2-4.1,1.2-2.9-1.7-.7-.2-1.3-.4-1.7-.6.5.1,1,.3,1.7.6,1.7-.4,2.4-2.9,3.3-2.9.4,0,2.8,2.4,3.3,3.8,1-10.8-15.4-13.1-21.6-5.7Z"/>
            <g>
              <path class="st27" d="M157.7,168.8c0,13.2-12.8,22.6-23.4,22.6s-15.9-8.6-15.9-21.7,7.8-18.4,18.4-18.4,20.9,4.4,20.9,17.5Z"/>
              <path class="st27" d="M223.7,169.8c0,19.1-15,24.9-27.4,24.9s-18.6-9.5-18.6-24,9.1-20.3,21.5-20.3,24.4,4.9,24.4,19.4Z"/>
              <g>
                <path d="M227.8,177.2c4.8-8-3.2-15.7-4.2-18.4-2.5-6.7-5.7-8.4-8.4-9.2s-5-.8-10.9-.8-24.2-2.5-28.8,11.5c-6-2.6-10.5-2.2-16.7-.8-1.3-2.3-4.6-9.7-17.1-10.6-1.6-.1-7.7-.6-13.4.8-6.7,1.7-6.6,2.4-8.4,4.2-1.9,1.9-3.8,8.2-4.2,15-.3,5.9,1.7,14.2,2.5,15.9.5,1.1,2.5,5,4.8,6.2,11.1,6.3,12.5,4.1,17.8,3.8,12.5-.8,22-15.4,21.7-27.4,17.7-1.6,6.3,2.9,15.3,19,2.1,3.9,8.1,9.2,14,10.9s12.4,1.5,19.2-1.7c10.9-5,14.2-14.2,16.7-18.4ZM155.8,171.1c-.2,6.3-2.8,11.3-6.8,14.5-5.2,4.2-12.7,5.4-20.8,3.1-4.8-1.4-6.5-5.3-7.3-7.3-3.3-8.4,0-20.1.8-22.6,1.6-4.8,8.7-6.4,13.4-6.7,7.2-.4,14.5.2,18.2,7.3,1.7,3.3,2.6,7.9,2.5,11.7ZM183.3,186.3c-2.9-3.9-4.5-11.7-4.6-16.5-.3-13.3,4.3-16,16.7-17.1,4.7-.4,9.6-.7,14.2,0,.7.1,2,.3,2.5.4,1.8.5,3.5,1.1,4.8,2.4s3.6,5,5,14.2c.4,2.8,0,6.7-1.4,10.6,0,0,0,0,0,0-7.5,17-30.2,15.5-37.2,6.1Z"/>
                <path class="st44" d="M240,157.7c-.5-.5-11.5-5.3-13.4-5.8-2.1-.6-6.8,0-7.1.2,3.9,3.7,2.4,12.5,5.8,15.9s3.1-1,4.8-1.9l.2.2h1.7v-.7c7.6-.6,9.9-2.5,12.5-1-.3-1.3-3.8-6-4.5-6.9Z"/>
                <g>
                  <path class="st6" d="M117,161.1q-4.2,1.9-8.4,3.8c-.4-.9-2.2-8.1-1-8.8,19-2.9,14.8-8.6,9.4,5Z"/>
                  <path d="M117,161.1l-1,8.4c-2.7-1.7-5.8-1.4-7.3-4.6q4.2-1.9,8.4-3.8Z"/>
                </g>
                <path d="M241.2,166.3c-.7-.5,3.7-1,3.3-2.5-2.5-1.4-5.1.7-11.3,1.7-8,.7-10.4-1.7-10.4-1.7l.8,2.5c0,.5.4,2,.8,3.7l-1.7.6,1.7,5.8c4.5-4.5,7-2.9,12.5-7.5,2-1.5,3.7-2.4,4.2-2.5Z"/>
              </g>
            </g>
            <path class="st21" d="M101.3,343.6"/>
            <path class="st21" d="M100.4,343.6"/>
            <g>
              <path class="st42" d="M110.8,279.1c-4.1,12.4-3.2,21.2-3.1,27.3.3,16.9,14.6,115,14.6,115l27.5-38.7-18-73.7s-18.2-38.5-21.1-29.9Z"/>
              <path class="st9" d="M127.2,338.8l15.9-1.9v19.6l-20.8,64.8s-14-39.9-8.9-63.3c.4-1.8,12,3.9,12,3.9,0,0,12.3-6.2,1.9-23.1Z"/>
              <g>
                <g>
                  <g id="Background" class="st46">
                    <path class="st17" d="M160.2,462.8c-64.1,0-128.2,0-192.3,0V34.8h428v428c-52.5,0-105.1,0-157.6,0q.8-5,1.7-10c3.9-1.4,8.5-3.4,12.1-5.4,2.9-1.6,5.9-3.1,7.1-6.5-.5-5.8-2-11.3-3.3-16.9,65.8-47,83.9-117.8,29.3-182.7.4-.1,3.1,0,7.3-2.5,9.5-5.8,11.7-17.2,7.3-27,16.5-3.4,22.4-22.6,9.6-33.9,1.1-3.8,0-8.1-2.9-10.9,15.1-12.5,11.9-33.3-5.4-41.4,2.9-13.8-10.9-24.4-23.8-23.4,3.3-17.6-11.2-32.2-28.2-23.6-14.2-15.1-38.3-22.2-57.3-12.1-17.4-17.6-57.6-11.7-69.4,10-13.8-11.1-36.3,1.4-31.6,19q-4.9,4.3-9.8,8.6c-12.9,1.4-21.2,16.1-15.3,27.8-13.8,7-15.5,26.3-1.7,34.3-15.5,4-22.4,26.3-6.7,34.7-2.8,14.5,11.4,18,11.7,19.2-2.4,6.7-1.3,12.9,3.3,18.2-29.3,23.5-43,62.9-37.6,99.7,6.1,41.1,38.5,72.1,72.3,93-.6,3.7-1.5,7.3-1.3,11.1,2.1,2.5,4.1,3.9,6.7,5.6,12.3,8.2,31.9,11,46.4,12.5q.6,1.3,1.3,2.5Z"/>
                  </g>
                  <g>
                    <path class="st49" d="M199.5,232.5c-7.6,9.7-18.2,17.2-30.1,20.5-2-2.6-4.5-5-5-8.4-.4-2.4.2-6.6.4-9.2,0-.6.1-.7.4-1.3,10.4,1.8,23.1-4.3,32.2-9.2,1,2.4,1.4,5,2.1,7.5Z"/>
                    <path class="st14" d="M214.8,257.1c-5.7-1.6-8-4.6-10.7-9.9,0,0-4.3-11.1-4.7-14.7-7.3,9.3-17.4,16.5-28.6,20-.4-.4-.7-.7-1-.9-4.1-4-5.4-7.1-5.4-7.1,0,0-4.2,8.5-6.1,9.9-4.1,3.2-20,4.9-20,4.9l-8.4,41.2.3,8.3,26.2,20.6,71.7-23,3.5-46.3-16.9-3.1Z"/>
                  </g>
                </g>
                <g>
                  <g>
                    <path class="st24" d="M234.4,335.8s1.7-1.1,1.7-.8c.4.1.7-8.3-1.9-18.4-1.9-7.2-5.1-7.2-9.4-20.2-28.9,26.3-60.1,29.6-72.8,24.6-13-5.1-19.1-20.7-20.5-21.7s-2.6,5.8-1.7,4.1c-2.8,6.4-7.6,16.5-6.6,25,1.1,9.6,5.8,15,9.2,17.6,2.3,1.7,7.5,3.3,7.5,3.3,0,0,4.2,4.4-.8,12.5-2,3.3-8.3,11.9-15.9,31.2-4.1,16-7.1,48.6-3.8,62.3s3.6,19.8,3.6,19.8h120.2c0,0,9-26.4,11.2-29.6-1.8-13-6.7-24.8-10.3-37.4-2.7-9.5-5.4-18.8-10-27.6-6.2-4.9-4.3-26-3.3-36l3.7-8.6Z"/>
                    <path class="st7" d="M231.1,339.1s0,.1,0,.2c0-.1,0-.2,0-.2Z"/>
                    <path class="st7" d="M231.2,339.3c0,.2,0,.5,0,.9,0-.4,0-.7,0-.9Z"/>
                  </g>
                  <path class="st13" d="M119.8,335.9"/>
                  <path class="st13" d="M119.9,335.8"/>
                  <path class="st7" d="M119.1,299s5.9,2.5,10.9-.8c5.1-3.4-2.5,10.9-2.5,10.9,0,0-5.1-4.4-8.4-10Z"/>
                  <path class="st38" d="M233.9,378.8c-2.8-4-4-13.6-3.9-22.3,0-4,0-7.4,1-10.7,2-2.5,4.3-7.3,5-10.2s1-11.3-1.7-18.7c-.5.8,7.2,16.1-10,27.9-9.2,4.5-18.1,4.5-26.8,2,.2,0,7.8,3.5,14.1,3.9,4.9.3,10.7,0,10.7,0,2,13.5,3.1,23.5,11.1,43,5.5,13.3,11.7,78,9.7,81.6.4,0,10.5-4,12.5-19.7s-3.6-50.7-21.8-76.7Z"/>
                </g>
              </g>
              <g>
                <path class="st14" d="M139.1,261.4"/>
                <path class="st9" d="M119.1,299s5.9,2.5,10.9-.8c5.1-3.4-2.5,10.9-2.5,10.9,0,0-5.1-4.4-8.4-10Z"/>
              </g>
              <path class="st39" d="M147.1,309"/>
              <g>
                <path class="st14" d="M140.6,259.2c-6.2-.7-10.1-.5-16,2.9-8.5,4.9-16.2,18.8-15.3,23.6,2.1,10.6,17.9,23.3,17.9,23.3,0,0,1.3-3.8,2.5-5.7,2.8-2.2,9.2-41.8,9.2-41.8l1.6-2.3Z"/>
                <path class="st9" d="M125.8,284.5l5.8,14.6c.2.4-1.4,4.3-1.9,5.4l-2.3,4.5s1.7-18.9-1.6-24.5Z"/>
              </g>
              <g class="st33">
                <g>
                  <path class="st39" d="M163.7,295.1c-7.5-3.6-16.9-12.6-18.3-16.7-2.6-8.1-2.5-10.3.4-19.5s.2-.3.4-.5c-3.1-1-5.8-2.6-10.1-.1,0,20.4-.9,10.1-1.7.2-5-.9-5.8.3-8.8,3.2-5.1-1.9-3.7,2.4-3.9,2.5,1.1,9,4.1,22.7,8.4,31.8,3.2,6.7,13.8,26.6,29.1,26.6,2.2-5.9.7-22.7,4.6-27.5Z"/>
                  <path class="st24" d="M136.1,258.2c-.6,17.3.3,22.1,11,35.8-13.7-14.3-12.1-22.9-12.7-35.6,0,0,.4-.3,1.7-.2Z"/>
                </g>
                <g>
                  <path class="st39" d="M245.8,264.1c-.1-3.5-6.4-4.5-9.8-3.3-10.6,10.8-10.4,11.2,0,0-2-3.8-4.3-3.8-10.6-2,0,.7-.3,1.5-.4,2.3-2.1,12.1-16.8,25.4-29,31-9.6,4.4-23.2,6.5-32.4,3-4.6,6.1-4.1,21-4.6,27.5,15.9,2.1,39.4-6.1,58.2-19.5,7.6-5.4,15.4-15.6,24-24.5,3.9-4,10.9-11,9-12.8-.4-.4-.4-1.6-4.5-1.7Z"/>
                  <path class="st24" d="M236.8,260.6c-9.2,12-17.1,24-35.6,36.8,17.5-11.9,25.5-24.8,34.5-37.2.8.3,1.1.4,1.1.4Z"/>
                </g>
                <path class="st24" d="M134.4,291c5.7,18.2,21.1,24.9,39.1,21.4,12.8-2.5,24.6-8.3,36.1-14.3-6.2,4.2-12.7,8-19.6,11-13.4,5.9-30.8,10-43.8.8-6.2-4.4-10.4-11.4-11.8-18.8h0Z"/>
              </g>
              <path d="M92.3,226.9s-.6,0-.8-.4c.4-.5.7.4.8.4Z"/>
            </g>
            <g>
              <path class="st22" d="M125.8,167c5-3.3,10.1-6.4,15.4-9.2s.2-3.5-1.5-2.6c-5.3,2.8-10.4,5.9-15.4,9.2s0,3.7,1.5,2.6h0Z"/>
              <path class="st22" d="M132.3,166.9c1.9-.6,3.8-1.2,5.6-2.1s2.9-1.6,4.4-2.5,1-1.4.5-2.1-1.3-1-2.1-.5c-1.4.8-2.8,1.7-4.3,2.4s-.3.1-.4.2-.4.2,0,0c0,0-.1,0-.2,0-.4.2-.7.3-1.1.4-1,.4-2.1.7-3.2,1.1s-1.3,1-1,1.8,1,1.3,1.8,1h0Z"/>
            </g>
            <g>
              <path class="st22" d="M186.1,167c5-3.3,10.1-6.4,15.4-9.2s.2-3.5-1.5-2.6c-5.3,2.8-10.4,5.9-15.4,9.2s0,3.7,1.5,2.6h0Z"/>
              <path class="st22" d="M192.7,166.9c1.8-.6,3.6-1.2,5.3-2s3.1-1.6,4.7-2.5,1-1.4.5-2.1-1.3-1-2.1-.5c-1.5.9-3,1.8-4.6,2.5s-.3.1-.5.2-.3.1-.1,0-.1,0-.1,0c-.4.1-.7.3-1.1.4-.9.3-1.9.7-2.8,1s-1.3,1-1,1.8,1,1.3,1.8,1h0Z"/>
            </g>
            <g>
              <g>
                <path class="st1" d="M118.4,85c.2,0,.4-.1.6,0,16.6,1.1,32,1.3,44.5,10.7.4,0,.8.1,1.2.2,0-1.3-.1-2.9-.5-4.8,8.4-11.7,1.3-23.9-11.5-18.4-1.4-.9.4-1.3.4-1.3-1.2-2-4.4-5.3-6.6-6.4-.2,0-3.2-1.1-3.4-1.1-10.5-1.2-18.5,7.7-13.7,17.7-5,0-8.6,1.2-11,3.4Z"/>
                <path class="st1" d="M179,91.9c7.5,1.2,15,6.7,22.7,6.4,9.5-.4,19.2-6.1,28.7-5.8,4.8.2,9.6.6,14.3,1.5.6.1,1.1.2,1.7.3-4.1-2.1-5.3-13.9-16-11.6-3-.3-5,3.9-7.7,2.5-1.8-.9-3-11.2-17.1-8-1.3.5-4.2-4.6-7.4-6.2-5.8-2.9-16.2-2.7-20.3,3.2-.9,1.4-3.2,9.8-6.9,14.3.7.3,1.1.8,1.5,1.2,2.1.8,4.3,1.5,6.5,2.1Z"/>
                <path class="st1" d="M164.2,91.1c.3,1.9.5,3.4.5,4.8,1.8.3,3.6.5,5.3.7,2.7-.1,5.4-.4,8.2-.8,1.5-.5,3-1,4.6-1.6-.6-.1-1.2-.2-1.9,0-.1-5.8-3.9-13.6-4.1-15.3-10.1,5.3-4.5-9.7-15.1-10.8-3.1-.3-6.8.7-8.5,3.3,0,0-1.8.4-.4,1.3,12.8-5.5,19.9,6.7,11.5,18.4Z"/>
              </g>
              <path class="st43" d="M197.4,91.2c4,1.5.4,5.4,4.8,6.7,16.2-.7,18.8-6.2,28.3,3-.9-1.9,1.1-5.5-.9-6.9-9-6.3-13.8-.9-17.9-2.1-4-1.4-10.4-11.3-22.5.2,2.9.9,5.4-1.9,8.1-.9Z"/>
            </g>
          </g>
          <g>
            <g>
              <g>
                <path class="st15" d="M296,363.8c1.8-6.5,1.7-12.8-5.3-22.1,7.3,19.3-21.8,41.1-42.1,52-5.6,3-4,7.7.9,4.7,15-9.5,45.4-30.6,46.6-34.6Z"/>
                <path class="st3" d="M263.6,362"/>
                <path class="st3" d="M268.5,356.1c.6,1.1.9,2.6,2,3.4-1.5,1.6,1.8-.5-.2,1.6-2.5-.2-15.1-24.7-25.5-41.5-1.8-2.9-5.2-5.8-6.3-6.4-1.8-1-10-8-10-8,0,0-3.5-7.1-3.7-8.9s4.5,1.1,4.5,1.1c0,0,8.4,5.7,10.4,9.1,7.2,12.2,24.5,41.4,28.8,49.6Z"/>
              </g>
              <path class="st40" d="M244.3,367.6"/>
            </g>
            <path class="st42" d="M267.8,353.7s2.2-6.6,8.7-7.6c-5.7,2.5-10,11.8-12.8,16.4s-4,3.7-6.2,5.6c-6.8,6-6.5,7.4-13.4,13.2-.1.1-2.6,9.3-5.7,10.9.3,1.2,8.7,1.7,9.7,1.8,18.5-7.2,54.3-31.9,43.9-50.9-23.2-55.1-27.1-.3-24.2,10.6Z"/>
          </g>
          <path class="st3" d="M238.4,333.7"/>
          <g>
            <g>
              <path class="st8" d="M221.7,406.6c1.7.1,12.9-3.9,14.8-5,1.3-.7,6.6-4,6.3-5.4-5.3,2.5-10.6,6.3-16.1,7.8-1.6.4-1.5,0-1.6,0-.3,0-1.2.3-1.2.3-2.7,1.5-1.3.9-3.9.8,0,0-.8,1-.5,1.2.7-.1,1.4.2,2.2.3Z"/>
              <path class="st8" d="M221.8,420c2.4,1.1,4.7,2.1,6,2,5.4,0,10.4-3.9,14.7-7.3,1.6-1.2,6.2-5.6,6-7.4-5.8,5.3-18.7,15.6-26.2,12,0,.2-.2.9-.5.8Z"/>
              <path class="st8" d="M221.6,415.3c7.4-1.8,15.5-3.8,21.1-9.4.8-.8,3.5-2.8,2.5-4.1-5.8,6.6-15.6,10.6-24.4,11.5,0,0-.9,0-1.1.2,1.1.6,1.3,1.7,1.9,1.9Z"/>
              <path class="st45" d="M231,424.2c1.1-.2,2.9-.5,3.3-1.7,1-1.5-2-1.7-3.2-2.4-3,1.8-5.2,1.8-.2,4.1Z"/>
              <path class="st29" d="M254.1,395.3c-.5-.3-.5-8-6.9-8.4-.4-.1-2.7-3.8-4.1-5.4s-8.8-2.1-8.8-2.1c0,0,1.8,2.4,2.6,4.2s1.5,2.6,1.9,3.3c.7,1.1-.6,2.3-.6,2.4-.2,0-7.1,7.4-9,8.6-5.1,3.1-12.7,4.2-9.4,6.1,0,0,1.9,2,3.5,1.5,5.5-1.5,14.4-5.7,19.5-9.1.3,1.4-5.1,4.7-6.3,5.4-1.9,1.1-14.6,5.4-16.2,6.1-1.2.6-1.6,1.7-2.4,2.5,3-.4,2.9-1.3,2.8,2.9,8.7-.9,18.6-4.9,24.4-11.5,1,1.3-1.7,3.4-2.5,4.1-5.6,5.6-13.6,7.7-21.1,9.4-.3.3-.4,1.1-.3,1.4,0,.2,1.4,1.1,1,2.6,7.5,3.6,20.4-6.6,26.2-12,.2,1.8-4.4,6.2-6,7.4-4.3,3.4-6.7,2.7-11.3,5.4,1.2.7,4.2.9,3.2,2.4,1.2-.5,9.7-3.8,15.6-9.7s3.1-6.7,2.1-11.7c.3-.3,2.2-4.6,2-6Z"/>
            </g>
            <path class="st45" d="M220.9,420.1c1.1-.2,2.9-.5,3.3-1.7,1-1.5-2-1.7-3.2-2.4-3,1.8-5.2,1.8-.2,4.1Z"/>
            <path class="st45" d="M219.4,413.5c1.1-.2,2.9-.5,3.3-1.7,1-1.5-2-1.7-3.2-2.4-3,1.8-5.2,1.8-.2,4.1Z"/>
            <path class="st45" d="M219.3,406.5c1.1-.2,2.9-.5,3.3-1.7,1-1.5-2-1.7-3.2-2.4-3,1.8-5.2,1.8-.2,4.1Z"/>
          </g>
          <path class="st15" d="M251.8,402s1.3-2.7-.9-4.3c0,0,.2-3.1-2.3-4.3,0,0-.5-4.4-3.2-4.3l-1.2-6s6.4,2,8.9,8.7,1.4,3.5,1.4,3.5c0,0-1.2,3.7-1.5,4.3s-1.2,2.3-1.2,2.3Z"/>
          <g>
            <path class="st23" d="M259,394.4c1.6-.7,1.6-4,.2-7.3-.9-2-2.1-3.5-3.3-4.3.1.2.2.3.4.5,6.3,8.9.2,10.3.2,10.3,0,0,0,0,0,.1.9.7,1.8.9,2.5.6Z"/>
            <path class="st23" d="M247.8,373.9c0,.3.2.5.3.8.4.7,1.3,1.8,1.3,1.8,0,0,.5-.7.7-1,.6-.9-2.1-1.1-2.3-1.6Z"/>
            <g>
              <path class="st23" d="M250.2,366.2c.2.3,1.5,1.5,1.7,1.8.6.7,1.5,2.1,1.5,2.1,0,0,.6-.7.6-1,0-1-3.4-2.4-3.8-2.9Z"/>
              <path class="st23" d="M268.4,388.9c.6-.7-.8-4-3.3-7.5-1.5-2,.8,2.3,1.5,3.1s1.2,2.3,1.3,2.9c.2,1.3-1.6-.1-1.6-.1v.7c.1,0,.3.3.4.4.9.7,1.5.8,1.7.5Z"/>
              <path class="st25" d="M251.9,362.7c-.6-.2-2.9.8-1.7,3.5.2.4,3.2,2.8,4.9,4.4,1.7,1.6,7.4,8.4,8.9,10.4,2.6,3.4,4.8,6.9,4.3,7.7-.2.4-1.1.4-2-.8.2.8,2.4,6.1,5.7,3.1.5-.4.6-1.3.5-2.3-.7-5.6-8.4-14.2-11.5-17.8-1.7-1.9-3.4-3.7-5.1-5.3-1.4-1.3-2.8-2.5-4.1-3Z"/>
            </g>
            <path class="st12" d="M267.3,385.7s-6.3-9.9-12.3-15.3c0,0,6.6,3.6,12.3,15.3Z"/>
            <path class="st25" d="M252.8,369.4c-.8-.2-1.7-.3-2.5,0-.9.2-1.7.6-2.2,1.3-.5.6-.7,1.5-.6,2.3,0,.4.1.7.3,1,.2.5,2.7,1.6,4.2,3.2,1.4,1.5,5.5,8.1,6.4,10,1.5,3.3,2.2,6.6.6,7.3-.7.3-1.6,0-2.5-.6.4.6,3,4.1,6.6,2.4,1-.5,1.9-1.3,2.5-2.3,3.1-5.5-2.1-13.2-4.4-16.7-1.2-1.8-2.6-3.5-4.1-5.1-1.2-1.2-2.6-2.3-4.3-2.8Z"/>
            <path class="st28" d="M261.8,392.1s-2.2-10.8-10.1-17.6c0,0-2.9-2.7-.9-3.1,2-.4,10.4,4,11,20.7Z"/>
            <path class="st28" d="M268.6,381.4c0,0-8.1-9.4-11.5-12.3-.6-.5-5.5-3.5-3.5-3.9s11.8,11.5,15,16.1Z"/>
          </g>
          <path class="st38" d="M144.8,350.4c4.2,0,8.4-2.5,8.4-2.5-5,2.5-13.4,1.4-13.4,1.4,0,0,.9,1.5.8,4.2-.1,2.8-1.3,6.8-3.3,10.3-3.3,5.8-6,10.8-8,14.9-2.3,4-4.1,8.5-5.1,11.4-.8,1.9-1.1,2.9-1.1,2.9-7.2,16.9-4.7,53.2-4.7,53.2,3.4-35.1,3.2-34.8,11.2-52.6s15.2-43.3,15.2-43.3Z"/>
          <path class="st3" d="M271,351.6c2.9-4.4,10-8.9,10-8.9,0,0-5.1,2.6-7.5,3.5s-6.7,7.3-6.7,7.3c0,0,1.4.9-3.1,8.9"/>
        </g>
        <g>
          <path class="st20" d="M87.8,27.7C-10.4,87.5-22.9,315.1,41.6,381.6c0,0,72.2,60.5,154.9,47.8,96.3-14.8,144.5-95,144.5-95l.2-174.7S249.3-70.6,87.8,27.7Z"/>
          <path class="st5" d="M60.7,248.5c-35.8,3.6-61.4,40.7-57.2,82.8s36.7,73.4,72.5,69.8c35.8-3.6,61.4-40.7,57.2-82.8-4.2-42.1-36.7-73.4-72.5-69.8ZM68.4,384.9c-27.7,0-50.1-26.9-50.1-60.1s22.4-60.1,50.1-60.1,50.1,26.9,50.1,60.1-22.4,60.1-50.1,60.1Z"/>
          <g>
            <g>
              <rect class="st44" x="44.7" y="279.7" width="41" height="90.8" rx="12" ry="12" transform="translate(-31.9 8.1) rotate(-5.7)"/>
              <rect class="st22" x="46.4" y="282" width="37.7" height="86.4" rx="10" ry="10" transform="translate(-31.9 8.1) rotate(-5.7)"/>
              <g class="st47">
                <g>
                  <g>
                    <path class="st42" d="M76.2,326.2s-.4,1-.9,2c.5-.9.7-1.6.9-2Z"/>
                    <path class="st42" d="M77.1,326.3h-.9c.3,0,.6,0,.9,0Z"/>
                    <path class="st42" d="M75.3,328.2c-.3.5-.6,1-1.1,1.6.2.2.7-.7,1.1-1.6Z"/>
                    <path class="st42" d="M85.7,335.1c-1-1.9-2.6-4.6-4-6.3-.2-.3-.4-.6-.7-.9-1.4-1.5-2.8-1.5-4-1.6h0s-1.8,5.8,0,7.2c1.6,1.2,7.9,10.5,7.9,10.5,0,0,4-2.5,3.6-3.3s-1.8-3.4-3-5.6Z"/>
                  </g>
                  <g>
                    <path class="st50" d="M71.2,308.4l1.1,3.5s.4.5.6.4c.6-.3.9-1.5.8-2.8s-.8-2.1-.8-2.1l-1.7,1Z"/>
                    <g>
                      <g>
                        <path class="st18" d="M76.4,308c-.5-.2-.2.8-1.5,1-.1-1.2-.4-1.6-1.3-2.4h0c.3,0,2.4.6,2.5.7.2.1.2.4.2.6Z"/>
                        <path class="st18" d="M76.4,308c0,.3.1.8.2.8-.2,0-1.2,1.4-1.7,1.4,0-.4,0-.8,0-1.2,1.4-.2,1-1.2,1.5-1Z"/>
                      </g>
                      <g>
                        <path class="st18" d="M53,299.7c-.2.3-.5.6-.6,1,0-.2,0-.4,0-.7-.2,0-1.6-1-1.7-1.1,0,0-.4-1.3-.4-1.4,0-.6.3-1.3.7-1.8-.7,2.2,1.7,2.9,1.9,3.3.1.2-.1.6.1.6Z"/>
                        <path class="st18" d="M84.6,298.8c.7,1.1.6,1.6.3,2.8.7.1.8,0,1.5.3v.2c-.2-.3,0,.3-.9-.1,0,.9-1.1-.3-.6.9-.9.6-.6-2.6,0-2.8,0-.1-1-1.7-.3-1.2Z"/>
                        <path class="st43" d="M86.4,313.3s0,0,0,0c-.3-3-2.1-1.9-3.2-2.5-.8-.4-1.5-3,1.9-3.2,1,1.2-2,1.3-1.7,1.9,0,.2,2.4.8,2.8,1.1.5.5.7,2.2.3,2.8Z"/>
                        <path class="st1" d="M48.3,314.4c0,.2-.7.7-.3,2-.9-.3-2.3-.2-2.3-1.5,0-2.2,2.4-.4,2.6-.5Z"/>
                        <path class="st1" d="M49.9,311.3l.3,1.4-1.9,1.6c0-.2.3-.4.3-.5.2-.9-.8-1.5-.8-2.4l2.1-.3Z"/>
                        <g>
                          <path class="st18" d="M54.6,310.1v1.6c-.5-.3-1.1-.2-1.4-.7l1.4-.8Z"/>
                          <path class="st34" d="M56.3,309.3c-.2.6-.3.9-.3,1.6-.5.4-.3-1.4.3-2v.4Z"/>
                        </g>
                        <g>
                          <path class="st1" d="M87.7,310.6c0-2.8-1.4-2.6-1.5-2.8-.5-.6.8-.7,1.4-1.6.9-1.4.4-3.7-1.2-4.3v.2c-.2-.3,0,.3-.9-.1,0,.9-1.1-.3-.6.9-.9.6-.6-2.6,0-2.8,0-.1-1-1.7-.3-1.2-.7-1-1.8-1.4-2.8-.7-.4,0,0-1-1.7-1.8,1-2.7-2.2-4.4-3.5-1.9-3.9.5-20.5.2-22.3,1.3-.3,0-1.7-1.6-3.3,0-.7,2.2,1.7,2.9,1.9,3.3.1.2-.1.6.1.6.3-.5.5-.1.1-1.5,2.1-3,2.1-2,5.4-1.8.5-.2.3-2.4,1.3-2.7,1.4-.4,2,1.5,1.5,2.1-.5.5-.5-.4-1.1-1.1-.2,3.8-2.5,2.7-5.1,2.6-1.2,1.1-.5,1.7-.6,2.2,0,.1-1.1,1.3-1.1,1.4-.4,1.1.9.8-2.3,3-.3,1,1.7,2.5-.7,3.9-.7.4-2.5.6-1.9,1.2.5.5,2.4.8,2.7,2.6.6,3.7-4,2.1-1.5,5.9,0,0-.2.3-.7.5,0,0-.8-1.6-.9-1.6-.9-.3-2.3-.2-2.3-1.5,0-2.2,2.4-.4,2.6-.5,0-.2.3-.4.3-.5.2-.9-.8-1.5-.8-2.4l2.1-.3c0-.4-1.3-1-2.2-1.5-.4-.7-.3-1.6,0-2.3,1.2-.7,2.9-.6,2.8-1.6,0,0-.4-.9-.5-1.6-.1,0-.2,0-.3,0,.1,0,.2,0,.3,0-.3-1.7,1.9-2.3,2.1-2.5,0,0,.2-.9.2-1.2,0-.2,0-.4,0-.7-.2,0-1.6-1-1.7-1.1-.2,0-.3.2-.5.3,0,.2-.1.3-.2.4,0-.1.1-.3.2-.4-1.1.8-.7.6-1.2,1.9-2.8,0-3.6,3.1-1.4,4.9-.4.2-.8.3-1.1.5-.3.2-.5.3-.7.5-1.3,1.5-.4,3.4,1.3,4,.1.3-.5.8.2,2.2-2.8,0-3.5,3.4-.7,4.4-.4,1.5.8,3.3,2.2,2.6,1.3,1.1-.2,1.3.3,3.1.3,1.4,2.3,2.1,3.3,1.1,1.6.5.9.7,1.5,1.5.8.9,2.5.7,3.2-.3.2,0,.3,2.2,3.1,1.5.6-1.3.9-.5,1.9-1.1.8-.5.6-1.6,1.5-.9.4-.7.5-1.5,1.1-2.1,0-.1,0-.1,0-.2-1.1,0-4.2-2.1-5.2-2.8-1.7-1.3-2.7-2.5-2.9-4.7,0-.1-.2-1.3-.4-1.7,0-.1-.2-1.5-.3-2.7-.5.4-.3-1.4.3-2q0,.2,0,.4c0,0,.2-.5.2-.6.2-.4.3-1.1.9-1q-.2-.2-.3-.4c0-1.5.7-5.1,2-5.9.8-.5,1.6,0,2.5-1.6,3.6,1.7,4.6-.8,4.9-1,1-.5,1.4.7,1.4.8,1.3,1.3,2.4.6,3.6,2.5.5.7.7,1.7,1.2,2.4.2.3.1,2.6.4,3,.8,1.5.9,3.2.6,4,.8-1.8.3.5,1.1-.4,0-.2.3-.9.3-1,0-.4,0-.8,0-1.2-.1-1.2-.4-1.6-1.3-2.4h0c.3,0,2.4.6,2.5.7.2.1.2.4.2.6,0,.3.1.8.2.8,1.7-.6,2.8,2.7.9,4.7-1.4,1.6-2.5-.1-3.3,1.5,0,0,0,.7-.6,1.8-.8,1.5-2.2,2.6-3.5,3.6.2.4.3.9.5,1.4.1.4.4.8.4.8.8,0,1.3.9,1.7,1.2,0,0,.5,0,.7,0,1.2,2.1,3.9,1.3,4.3-1.1,1.6,1.4,3.8,1.5,4.1-1,1.1,0,1.8,0,2.5-1.1,2.7,0,3.5-2.9,1.3-4.7q.4-.7.8-1.4c.9.2,1.8-.2,2.1-1.1.5-1.2,0-2.3-1-2.9ZM49.9,300.1c0,.1,0,.3,0,.4,0-.1,0-.2,0-.4ZM47.6,301.8c0,0,.2,0,.2,0,0,0,.2,0,.3,0,0,0-.2,0-.3,0,0,0-.2,0-.2,0,0,0-.1,0-.2.1,0,0,.1,0,.2-.1ZM47,302.8c0,0,0-.2,0-.3,0,0,0,.2,0,.3,0,.1,0,.3,0,.4,0-.1,0-.3,0-.4ZM86.4,313.3s0,0,0,0c-.3-3-2.1-1.9-3.2-2.5-.8-.4-1.5-3,1.9-3.2,1,1.2-2,1.3-1.7,1.9,0,.2,2.4.8,2.8,1.1.5.5.7,2.2.3,2.8Z"/>
                          <path class="st43" d="M68,293c1.8-.4,3.5,2.9,6.9,1.3,1.9,2.2,3.3,1.3,2.8,4.3.4.2,2,1.4,2.1,1.4.8.2,3.1-.8,2.7,2.4.7.2,3.3,1,3.6,1.5.4.6.3,2-.4,2.4-1.6.8-.3-1.5-.4-1.7-2-1.6-4.4.3-3.7-3.5h-2c-1.4-1.6-2.1-1.1-2.6-1.6-1.3-1.4,1.5-3.7-3.2-2.6l-.5-1.3c-1.8.2-3.5-.7-5-1.6-.6,0-2.4,1.5-2.1,0,0-.3,1.3-1.1,1.6-1.1Z"/>
                        </g>
                        <path class="st43" d="M49.6,317.5s-.2.3-.7.5c0,0-.8-1.6-.9-1.6-.4-1.3.2-1.8.3-2l1.9-1.6-.3-1.4c0-.4-1.3-1-2.2-1.5-.4-.7-.3-1.6,0-2.3,1.2-.7,2.9-.6,2.8-1.6,0,0-.4-.9-.5-1.6-.3-1.7,1.9-2.3,2.1-2.5,0,0,.2-.9.2-1.2.2-.4.4-.7.6-1,.3-.5.5-.1.1-1.5,2.1-3,2.1-2,5.4-1.8.5-.2.3-2.4,1.3-2.7,1.4-.4,2,1.5,1.5,2.1-.5.5-.5-.4-1.1-1.1-.2,3.8-2.5,2.7-5.1,2.6-1.2,1.1-.5,1.7-.6,2.2,0,.1-1.1,1.3-1.1,1.4-.4,1.1.9.8-2.3,3-.3,1,1.7,2.5-.7,3.9-.7.4-2.5.6-1.9,1.2.5.5,2.4.8,2.7,2.6.6,3.7-4,2.1-1.5,5.9Z"/>
                      </g>
                      <g>
                        <g>
                          <g>
                            <path class="st3" d="M70.7,321.8c-1.2,1.9-2.9,3.5-4.9,4.3-.4-.4-.9-.9-1-1.5-.1-.4,0-1.2,0-1.7,0-.1,0-.1,0-.2,1.9.2,4-1.2,5.5-2.3.2.4.3.9.5,1.4Z"/>
                            <path class="st42" d="M71,322.7c0,.3.2.6.2,1-.9,1.5-2.4,2.6-4,3.3-.4.2-.3.2-.3.2-.1,0,0,.1-.4,0,0,0-.2-.1-.2-.1,0,0-.6-.7-.7-.8,2-.8,3.7-2.4,4.9-4.3.1.4.4.8.4.8Z"/>
                          </g>
                          <path class="st42" d="M73.9,315.5c-.7,2.7-6.6,6.5-8.4,6.7-2.3.2-7.2-3.4-8-5.9.8,0,1.7,0,2.4-.3.1.1.5.4,1.1,1.2,1.2,1.6,2,3.3,4.3,2.8,1.8-.4,2.1-1.8,2.6-2.5.4-.6.9-1.2,1.3-1.9.5,0,1.1.1,1.7,0,.3,0,1.7-.8,1.5-1.1.3-.2,1.1-1,1.3-1.3.4.7.4,1.5.2,2.3Z"/>
                          <path class="st4" d="M72.3,314.5c.2.3-1.2,1-1.5,1.1-.5.1-1.1,0-1.7,0,0,0,0-.2.1-.3,1,.1,2.2-.2,3-.8Z"/>
                          <g>
                            <path class="st42" d="M73.6,316.9c-.3-.2.6-1,.2-1.4.2-.8.1-1.6-.2-2.3.2-.3.7-1.6.8-2,0-.2.4-.9.4-1,.5,0,1.6-1.3,1.7-1.4,1.7-.6,2.8,2.7.9,4.7-1.4,1.6-2.5-.1-3.3,1.5,0,0,0,.7-.6,1.8Z"/>
                            <path class="st10" d="M77.2,311.7c.4,1.1-.6,1.3-1,1.1-.4-.2-.7-1.6-.5-2.1.6.2,1.4,1.5,1.5,1Z"/>
                            <path class="st48" d="M77.2,311.7c0,.6-.9-.7-1.5-1,.2-.7,2.4-1.4,2.2.5-.4-1.5-1.5-.8-1.5-.6,0,.1.7.6.8,1.1Z"/>
                          </g>
                          <path class="st50" d="M69,315.4c-.2,0-.5.4-.8.5-2.7.9-5,1.3-7.8,0-.2,0-.3-.1-.5-.2,2.1-.7,3.4-3.4,3.1-5.6,3.1-.6,1.2.4,3,3.3.8,1.2,1.6,1.5,2.9,2Z"/>
                          <g>
                            <path class="st30" d="M60,315.7c.2,0,.3.1.5.2.4.5,1.2.9,1.8,1.4,0,0,.2.4.4.6.1,0,.3.2.4.2-.5.4-1.5-.7-2.1-1-.6-.8-1-1.1-1.1-1.2,0,0,0-.1,0-.2,0,0,.2,0,.2,0Z"/>
                            <path class="st30" d="M69.3,315.3c0,0,0,.2-.1.3-.4.6-.9,1.2-1.3,1.9-.2,0-.9.3-1,.3.3-.4.6-.8.9-1.3.2-.2.4-.4.5-.7.3-.1.5-.4.8-.5h.3Z"/>
                            <path class="st37" d="M67.9,317.5c-.5.7-.8,2.1-2.6,2.5-1.4,0-2.9-1.5-2.1-1.8,1.8.9,3,0,3.7-.4.1,0,.8-.3,1-.3Z"/>
                            <path class="st31" d="M63,318.2c0,0,0,0,0,0-.8.3.7,1.8,2.1,1.8-2.3.5-3.1-1.2-4.3-2.8.6.2,1.6,1.3,2.1,1Z"/>
                            <path class="st31" d="M68.2,315.9c0,.2-.3.5-.5.7-1.7.9-3.6,1.2-5.5.8-.6-.5-1.4-.9-1.8-1.4,2.7,1.3,5,.9,7.8,0Z"/>
                            <path class="st41" d="M67.8,316.5c-.3.4-.6.8-.9,1.3-.7.4-1.9,1.4-3.7.4,0,0,0,0,0,0-.1,0-.3-.1-.4-.2-.2-.2-.4-.6-.4-.6,1.9.5,3.8,0,5.5-.8Z"/>
                          </g>
                        </g>
                        <g>
                          <g>
                            <path class="st41" d="M70.9,311.3c.2-.3.1-.2.2-.6,0,0,0-.2,0-.2,0,0,.2,0,0-.5.5,0,1.1.6,1.1.9.1,1.1-2.7,1.6-4.1.6-.7-.5-.2-.4,0-.6.4-.4.7-1.4,2.1-1.3.8,0-.5,0-.8.7-.5,1.2.8,1.9,1.5,1Z"/>
                            <path class="st36" d="M71,310c.2.4,0,.4,0,.5l-.2.3c-.9.3-.8-.8.1-.7Z"/>
                            <path class="st26" d="M71.1,310.7c0,.3,0,.2-.2.6-.5-.2,0-.2,0-.6h.1Z"/>
                            <path class="st35" d="M71.1,310.7h-.1s0,0,0,0l.2-.3c0,0,0,.2,0,.2Z"/>
                          </g>
                          <g>
                            <path class="st1" d="M57.7,307.5c-.9,1.4-.7,5-.7,4.8,0,.1-.4,3.3-.4,3.2-.7-1-1.8-3.3-.9-5.9s1.2-2,2-2.1Z"/>
                            <path class="st50" d="M73.5,311.6c.5-1.8-1.3-.7-1.3-.7.1,1.1-2.7,1.6-4.1.6-.7-.5-.2-.4,0-.6-.2-.7.3-1.3.9-1.7s.9-.2,1.3-.3,1.1.4,1.5.7c.1.2,1.8-3.1,1.8-3.2,0,0,.2-.6.2-.8,0-.3-.9-.9-1.2-1.2-.5-.7-.7-1.7-1.2-2.4-1.2-1.8-2.3-1.2-3.6-2.5,0,0-.5-1.3-1.4-.8-.2.1-1.3,2.6-4.9,1-.8,1.6-1.7,1.1-2.5,1.6-1.1,1.8-2.5,7.2-2.5,7.2,0,.6-.3,1.4-.2,2.2,0,.6.1,2,0,2.2-.4,1.5.1,3,.3,3.3,0,0,2.1-.3,3.1-.5,0,0,.2,0,.2,0,2.1-.7,3.4-3.4,3.1-5.6,3.1-.6,1.2.4,3,3.3.8,1.2,1.6,1.5,2.9,2h.3c1,0,2.2-.3,3-.9.3-.2,1.1-1,1.3-1.3.2-.3.9-1.7,1-2.1-.8,1-.3-1.3-1.1.4ZM62,311c-.3,0,0,.5,0,.6-.1.2-.5-.2-.6.3,0,0,0,.3,0,.3.7.1-.4,1.9-.7,2-.2,0-.5-.7-1.1-.6-.3,0-1.6-.1-2.4-1.2,0-.4,0-1.2,0-1.3,0,0,0-.2,0-.4.5-1.2,2.9-1.7,4-1.8.4.6.6,1.4.7,2.1ZM68.5,305c-.2,0-.3,0-.5,0,.2,0,.3,0,.5,0ZM67.1,305.4c0,0-.1,0-.2.1,0,0,.1,0,.2-.1Z"/>
                            <path class="st41" d="M59.7,310.7c-2.4.9.5,3.1.8,1.1,0-.3,0-.6,0-.9,0,0,.5.4.7.6,0,0,0,.2,0,.2,0,0,0,0,0,.1s0,.1,0,.2c-.2.9-2.6,1.1-3.7.8s-.5-.5-.5-.8c0-1.1,2.2-1.9,2.5-1.4Z"/>
                            <path class="st42" d="M61.3,308.8c-1.1,0-3.5.5-4,1.8,0,.2,0,.4,0,.4.8-1.6,3.9-1.5,4,.5,0,0,.2.3,0,.7-.4.8-2.8.8-3.6.7,0,0-.4-.1-.2,0,.6.7,1.8.9,2.2,1,.6,0,.8.1,1,0,1.2-.5,1.3-2.4,1.3-3.1s-.3-1.5-.7-2.1Z"/>
                            <path class="st2" d="M60.6,311.8c-.3.5-.7.3-.5-.3.3-.1.4-.6.5-.6,0,.3,0,.5,0,.9Z"/>
                          </g>
                        </g>
                      </g>
                    </g>
                    <path class="st18" d="M56.9,313.2"/>
                    <path class="st15" d="M56.6,314.7c.8.7,2.2,1.3,3.1,1.1,0,.1,0,.2,0,.2-.8.3-1.6.4-2.4.3.8,2.5,5.7,6,8,5.9,1.8-.1,7.7-4,8.4-6.7.4.4-.5,1.2-.2,1.4-.8,1.5-2.2,2.6-3.5,3.6-1.5,1.1-3.6,2.4-5.5,2.3-1.1,0-4.3-1.8-5.3-2.5-1.6-1.2-3-3.4-3.2-5.6,0,0,.4.1.5.1Z"/>
                    <path class="st15" d="M57.6,306.8c-.2.2-.9,1.7-1.2,1.9,0-1.5,1-6.7,2.5-7.3s-.6.8-1.2,3.9c0,.5,0,1-.1,1.5Z"/>
                    <g>
                      <path class="st42" d="M64.2,315.4c-.6,0-1.2-.3-1.6-.7-.4-1.6.5-.2.8,0,1,.5,2.6-.3.8.7Z"/>
                      <path class="st48" d="M62.6,314.7c.4.4,1,.7,1.6.7.5,0,2-1.1,1.3-.3-1.4,1.5-4-.7-3.2-.8,0,0,0,.2.3.4Z"/>
                    </g>
                    <path class="st42" d="M68.4,307c.4,0,.1,0-.4.4-.8.5-1.4,1.2-.7,3.3s0,0,0,.1l-1.4-.3c-.3-2.5.6-3.1,2.6-3.5Z"/>
                    <path class="st15" d="M77,313.3l.2.3c.2.3-.4.5-.4.5-.2,0-.3.2-.4,0v-.8c.2-.3.6-.1.7,0Z"/>
                    <path class="st42" d="M73.8,305.7c0-.6-.7-.5-1.1-1.1-.4-.5-.7-1.7-.8-1.8-.6-1.5-2-2-2-2,0,0,2.3,2.4,1.9,6.1,0,0-.6-.3-.8-.3-.8.2-.1.3.3,1,.6.9,1,2,.8,3.1,0,0,0,.3,0,.3,0,0-.1.4-.2.5-.7.7-2.1.7-2.6.6-.3,0-.8-.2-.8-.2,0,0,.6,1.4,3.1,1.1s1.9-2.2,1.9-2.7c0-.7-.2-1.6-.7-2.5,0,0,.9-1.7.8-2Z"/>
                    <g>
                      <path d="M56.3,309s0,0,.1,0c.8-.7,1.2-1.1,1.5-1.3.6-.4.9-.4,1-.4.5-.2,2.6.3,1.8-.8-.8-1-2.5,0-3.3.5-.2.2-1.2,1.3-1.2,2Z"/>
                      <path d="M71,306.7c0,0,0-.4,0-.6-.8-1.6-4.2-1-4.3-.2-.2,1.1,1.5,0,3.2.3.4,0,.6,0,1.1.6Z"/>
                    </g>
                    <g>
                      <path class="st2" d="M77.3,314.5c0-.3,0-.8-.2-.9s-.3-.3-.5-.1-.2.7-.2,1.1.1.5.2.6c.3.2.5.2.6,0,.2-.5.1-.4,0-.7Z"/>
                      <path class="st26" d="M77.4,314.4c0-.4-.1-.7-.3-.8-.5-.1,0,.5-.5.8s0,.5,0,.6c.6.6.8-.2.8-.7Z"/>
                    </g>
                    <path class="st15" d="M72.1,309.2s0,.1,0,0c-.7-1.1-2.7-1.2-3.4-.7s1-1.4,2.5-.8.9,1.2,1,1.5Z"/>
                    <path class="st32" d="M73.1,309.7c-.6.3-1,.2-1.3,0,0,0-.1-.1-.2-.1-1.2-1.4-3.9-.4-3.5,1.3.4-.4.7-1.4,2.1-1.3.8,0-.5,0-.8.7-.5,1.2.8,1.9,1.5,1-.5-.2,0-.2,0-.6,0,0,0,0,0,0-.9.3-.8-.8.1-.7.5,0,1.1.6,1.1.9,0,.2,0,.4,0,.4.1-.2.2-.5,0-.6.3,0,.9-1,.9-1Z"/>
                    <path class="st15" d="M57.1,310.9s.5-.9,1.1-1.2c.8-.4,2.7-.9,3.2-.8s-1.8-.5-3.1.1c-.2,0-.5.3-.7.5-.5.7-.5,1.3-.5,1.3Z"/>
                    <path class="st32" d="M57.3,310.9h0c-.4.5-1.1.2-1.1.2,0,0,.3.5.8.6,0,0,0,0,0,0,0,.3,0,.4.1.5,0-1.1,2.2-1.9,2.5-1.4,0,0,0,0,0,0,0,0,0,0,0,0,0,0,0,0,0,0,0,0,0,0,0,0-2.4.9.5,3.1.8,1.1-.3.5-.7.3-.5-.3-.1,0-.2,0-.3,0,0,0,.2,0,.3,0,.3-.1.4-.6.5-.6,0,0,.5.4.7.6,0-2-2.9-2.2-3.9-.7Z"/>
                    <g>
                      <path class="st27" d="M62.1,310.7c.2,2.5-1.8,4.4-3.7,4.6s-2.9-1.3-3.2-3.8c-.2-2.5,1-3.6,2.9-3.8s3.7.5,4,2.9Z"/>
                      <path class="st27" d="M73.7,309.7c.4,3.6-2.2,4.9-4.3,5.1s-3.4-1.4-3.7-4.2,1.2-3.9,3.4-4.2,4.4.5,4.6,3.2Z"/>
                      <g>
                        <path d="M74.6,311c.7-1.6-.9-2.9-1.1-3.4-.6-1.2-1.1-1.5-1.6-1.6s-.9,0-1.9,0-4.3,0-4.8,2.6c-1.1-.4-1.9-.2-2.9.1-.3-.4-1-1.7-3.2-1.7-.3,0-1.4,0-2.3.4s-1.1.6-1.4.9-.5,1.6-.5,2.9c0,1.1.6,2.6.7,2.9s.5.9,1,1.1c2.1,1,2.3.6,3.2.4,2.2-.4,3.6-3.3,3.3-5.5,3.1-.6,1.2.4,3,3.3.4.7,1.6,1.6,2.7,1.8s2.2,0,3.3-.6c1.8-1.1,2.2-2.9,2.6-3.7ZM61.9,311.1c0,1.2-.3,2.1-.9,2.8-.8.9-2.1,1.2-3.6.9-.9-.2-1.2-.9-1.4-1.2-.7-1.5-.4-3.7-.3-4.2.2-.9,1.4-1.3,2.2-1.5,1.3-.2,2.5-.2,3.3,1,.4.6.6,1.4.7,2.1ZM67,313.5c-.6-.7-1-2.1-1.1-3-.3-2.5.5-3.1,2.6-3.5.8-.2,1.7-.3,2.5-.2.1,0,.4,0,.4,0,.3,0,.6.1.9.4s.7.9,1.1,2.6c.1.5.1,1.2,0,2,0,0,0,0,0,0-1,3.3-5,3.4-6.4,1.8Z"/>
                        <path class="st44" d="M76.4,307.2c0,0-2.1-.8-2.5-.9-.4,0-1.2.1-1.2.2.8.6.7,2.3,1.3,2.9s.5-.2.8-.4h0s.3,0,.3,0h0c1.3-.4,1.7-.8,2.2-.5,0-.2-.8-1.1-.9-1.2Z"/>
                        <g>
                          <path class="st6" d="M54.9,309.9l-1.4.8c0-.2-.5-1.5-.3-1.6,3.3-.9,2.4-1.9,1.7.8Z"/>
                          <path d="M54.9,309.9v1.6c-.5-.3-1.1-.2-1.4-.7l1.4-.8Z"/>
                        </g>
                        <path d="M76.7,308.8c-.1,0,.6-.2.5-.5-.5-.2-.9.2-2,.5-1.4.3-1.9-.1-1.9-.1l.2.5c0,0,.1.4.2.7h-.3c0,.1.4,1.2.4,1.2.7-.9,1.2-.7,2.1-1.6.3-.3.6-.5.7-.5Z"/>
                      </g>
                    </g>
                    <path class="st21" d="M55.5,344.3"/>
                    <path class="st21" d="M55.4,344.3"/>
                    <g>
                      <path class="st42" d="M56,332.1c-.5,2.4-.2,4,0,5.2.4,3.2,4.7,21.2,4.7,21.2l4.1-7.7-4.5-13.4s-3.9-6.9-4.2-5.2Z"/>
                      <path class="st9" d="M60,342.9l2.7-.6.4,3.7-2.4,12.4s-3.2-7.2-2.7-11.7,2.2.5,2.2.5c0,0,2-1.4-.1-4.3Z"/>
                      <g>
                        <g>
                          <g id="Background1" data-name="Background" class="st46">
                            <path class="st17" d="M68,365.5c-11.2,1.1-22.5,2.2-33.7,3.4q-4-39.9-8-79.9,37.5-3.7,75-7.5,4,39.9,8,79.9c-9.2.9-18.4,1.8-27.6,2.7v-1.9c.8-.3,1.5-.8,2.1-1.2.5-.4,1-.7,1.1-1.3-.2-1.1-.6-2.1-.9-3.1,10.6-9.9,12.5-23.4,1.7-34.6,0,0,.5,0,1.2-.6,1.5-1.2,1.7-3.4.8-5.2,2.8-.9,3.5-4.6,1.1-6.5.1-.7-.2-1.5-.7-2,2.4-2.6,1.5-6.4-1.7-7.6.2-2.6-2.4-4.4-4.6-4,.3-3.3-2.6-5.8-5.4-3.9-2.8-2.6-7.1-3.5-10.3-1.3-3.4-3-10.3-1.2-12,3.1-2.6-1.8-6.3.9-5.2,4.1l-1.6,1.8c-2.2.5-3.4,3.4-2.2,5.5-2.3,1.6-2.2,5.2.3,6.4-2.6,1-3.4,5.3-.5,6.6-.2,2.8,2.3,3.2,2.4,3.4-.3,1.3,0,2.4.9,3.3-4.7,4.9-6.4,12.5-4.7,19.3,1.8,7.6,8.1,12.8,14.4,16.1,0,.7-.1,1.4,0,2.1.4.4.8.7,1.3.9,2.3,1.3,5.8,1.5,8.4,1.5l.3.4Z"/>
                          </g>
                          <g>
                            <path class="st49" d="M70.7,321.8c-1.2,1.9-2.9,3.5-4.9,4.3-.4-.4-.9-.9-1-1.5-.1-.4,0-1.2,0-1.7,0-.1,0-.1,0-.2,1.9.2,4-1.2,5.5-2.3.2.4.3.9.5,1.4Z"/>
                            <path class="st14" d="M73.8,326.2c-1-.2-1.5-.7-2.1-1.7,0,0-1-2-1.1-2.7-1.1,1.9-2.7,3.4-4.6,4.2,0,0-.1-.1-.2-.2-.8-.7-1.1-1.2-1.1-1.2,0,0-.6,1.7-.9,2-.7.7-3.4,1.3-3.4,1.3l-.7,7.8.2,1.6,5,3.4,12.1-5.5-.3-8.7-3-.3Z"/>
                          </g>
                        </g>
                        <g>
                          <g>
                            <path class="st24" d="M78.7,340.5s.3-.2.3-.2c0,0,0-1.6-.7-3.4s-1-1.2-2-3.6c-4.6,5.4-10,6.6-12.3,5.9-2.4-.7-3.7-3.5-4-3.7s-.3,1.1-.2.8c-.4,1.2-1,3.2-.7,4.8.4,1.8,1.3,2.7,1.9,3.1.4.3,1.4.5,1.4.5,0,0,.8.7,0,2.4s-1.2,2.4-2.2,6.1c-.4,3.1-.3,9.2.5,11.7s1,4.2,1,4.2c0,0,19.9-1.3,21.1-2.3s1-5.4,1.4-6.1c-.6-2.4-1.6-4.5-2.5-6.8-.6-1.7-1.3-3.4-2.3-5-1.2-.8-1.2-4.8-1.2-6.7l.5-1.7Z"/>
                            <path class="st7" d="M78.2,341.2s0,0,0,0c0,0,0,0,0,0Z"/>
                            <path class="st7" d="M78.2,341.2s0,0,0,.2c0,0,0-.1,0-.2Z"/>
                          </g>
                          <path class="st13" d="M58.6,342.5"/>
                          <path class="st13" d="M58.6,342.5"/>
                          <path class="st7" d="M57.8,335.7s1.1.4,1.9-.3-.2,2.1-.2,2.1c0,0-1-.7-1.7-1.7Z"/>
                          <path class="st38" d="M79.4,348.5c-.6-.7-1-2.5-1.1-4.1s-.1-1.4,0-2c.3-.5.6-1.4.7-2s0-2.1-.6-3.5c0,.2,1.6,2.9-1.2,5.4-1.5,1-3.1,1.1-4.7.8,0,0,1.4.5,2.5.5s1.9-.2,1.9-.2c.6,2.5,1,4.3,2.7,7.8s3.5,14.7,3.3,15.4c0,0,1.1-.5,1.4-6.1,0-.3-1.2-7.5-4.8-12.1Z"/>
                        </g>
                      </g>
                      <g>
                        <path class="st14" d="M60.6,328.3"/>
                        <path class="st9" d="M57.8,335.7s1.1.4,1.9-.3c.8-.7-.2,2.1-.2,2.1,0,0-1-.7-1.7-1.7Z"/>
                      </g>
                      <path class="st39" d="M62.9,337"/>
                      <g>
                        <path class="st14" d="M60.8,327.8c-1.1,0-1.8,0-2.7.8-1.4,1.1-2.5,3.8-2.2,4.7.6,1.9,3.6,4,3.6,4,0,0,.2-.7.3-1.1.4-.5.8-8,.8-8l.2-.5Z"/>
                        <path class="st9" d="M58.7,332.8l1.3,2.6c0,0-.2.8-.2,1l-.3.9s0-3.6-.7-4.5Z"/>
                      </g>
                      <g class="st33">
                        <g>
                          <path class="st39" d="M65.5,334.1c-1.4-.5-3.2-2.1-3.5-2.8-.6-1.5-.6-1.9-.3-3.6s0,0,0,0c-.6-.1-1.1-.4-1.8.2.4,3.8,0,1.9-.3,0-.9,0-1,.2-1.5.8-.9-.3-.6.5-.6.5.4,1.7,1.1,4.2,2.1,5.8s2.9,4.7,5.6,4.5c.3-1.1-.3-4.2.3-5.2Z"/>
                          <path class="st24" d="M60,327.7c.2,3.2.5,4.1,2.6,6.5-2.7-2.4-2.5-4.1-2.9-6.4,0,0,0,0,.3,0Z"/>
                        </g>
                        <g>
                          <path class="st39" d="M79.4,326.9c0-.7-1.2-.7-1.8-.4-1.7,2.2-1.6,2.3,0,0-.4-.7-.8-.6-1.9-.2,0,.1,0,.3,0,.4-.1,2.3-2.5,5-4.5,6.3-1.6,1-3.9,1.6-5.6,1.1-.7,1.2-.3,4-.3,5.2,2.8.1,6.8-1.8,9.8-4.7s2.4-3.2,3.7-5,1.7-2.3,1.3-2.5c0,0-.1-.3-.8-.2Z"/>
                          <path class="st24" d="M77.7,326.4c-1.4,2.4-2.5,4.8-5.6,7.5,2.8-2.5,4-5.1,5.4-7.5.1,0,.2,0,.2,0Z"/>
                        </g>
                        <path class="st24" d="M60.3,333.9c3,4.6,7.4,2.7,11.4.8.6-.3,1.2-.6,1.9-.8-.8,1.1-1.8,2.1-2.9,2.9-1.1.8-2.5,1.5-3.9,1.8-3,.8-6.5-1.6-6.4-4.7h0Z"/>
                      </g>
                      <path d="M51.8,322.7s-.1,0-.1,0c0,0,.1,0,.1,0Z"/>
                    </g>
                    <g>
                      <g>
                        <path class="st1" d="M53.7,295.7s0,0,0,0c2.9,0,5.6-.3,8,1.2,0,0,.1,0,.2,0,0-.3,0-.5-.2-.9,1.3-2.3-.2-4.5-2.4-3.2-.3-.1,0-.2,0-.3-.3-.4-.9-.9-1.3-1.1,0,0-.6-.1-.6-.1-1.9,0-3.1,1.8-2.1,3.5-.9,0-1.5.4-1.9.8Z"/>
                        <path class="st1" d="M64.5,296c1.3,0,2.7,1,4.1.8,1.7-.2,3.2-1.5,4.9-1.6.8,0,1.7,0,2.5,0,.1,0,.2,0,.3,0-.8-.3-1.2-2.5-3-1.9-.5,0-.8.8-1.3.6-.3-.1-.7-2-3.1-1.2-.2.1-.8-.8-1.4-1-1.1-.4-2.9-.2-3.5,1-.1.3-.4,1.9-1,2.8.1,0,.2.1.3.2.4.1.8.2,1.2.3Z"/>
                        <path class="st1" d="M61.8,296.1c0,.3.1.6.2.9.3,0,.6,0,1,0,.5,0,.9-.2,1.4-.3.3-.1.5-.2.8-.4,0,0-.2,0-.3,0-.1-1.1-.9-2.5-1-2.8-1.7,1.2-1-1.7-2.8-1.8-.5,0-1.2.3-1.4.8,0,0-.3.1,0,.3,2.1-1.2,3.6.9,2.4,3.2Z"/>
                      </g>
                      <path class="st43" d="M67.7,295.5c.7.2.2,1,1,1.2,2.8-.4,3.2-1.5,5,0-.2-.3,0-1-.3-1.3-1.7-1-2.4,0-3.2,0-.7-.2-2-1.9-3.9.4.5.1.9-.5,1.4-.3Z"/>
                    </g>
                  </g>
                  <g>
                    <g>
                      <g>
                        <path class="st15" d="M90,344.6c.2-1.2,0-2.4-1.3-4,1.6,3.5-3.1,8.1-6.4,10.4-.9.7-.6,1.5.2.9,2.5-2,7.4-6.5,7.5-7.3Z"/>
                        <path class="st3" d="M84.3,344.9"/>
                        <path class="st3" d="M85,343.7c.1.2.2.5.4.6-.2.3.3-.1,0,.3-.4,0-3.1-4.3-5.2-7.3s-1-1-1.2-1.1c-.3-.1-1.3-1-1.3-1,0,0-.9-1.6-1-1.9s1.7.7,1.7.7c0,0,.3.4.7.9,1.5,2.1,5.1,7.3,6,8.8Z"/>
                      </g>
                      <path class="st40" d="M81,346.3"/>
                    </g>
                    <path class="st42" d="M84.9,343.3s.3-1.3,1.4-1.6c-.9.6-1.5,2.4-1.9,3.3s-.6.8-1,1.2c-1.1,1.2-1,1.5-2.1,2.7,0,0-.3,1.8-.8,2.1,0,.2,1.6.2,1.7.2,3.1-1.7,8.9-6.9,6.7-10.3-5.1-9.9-4.8.4-4,2.4Z"/>
                  </g>
                  <path class="st3" d="M79.4,340"/>
                  <g>
                    <g>
                      <path class="st8" d="M78.1,353.6c.3,0,2.2-1,2.5-1.3.2-.2,1.1-.9,1-1.2-.9.6-1.7,1.4-2.6,1.8-.3.1-.3,0-.3,0,0,0-.2,0-.2,0-.4.3-.2.2-.7.2,0,0-.1.2,0,.2.1,0,.2,0,.4,0Z"/>
                      <path class="st8" d="M78.4,356.1c.4.1.9.3,1.1.2.9-.1,1.7-1,2.4-1.7.2-.3,1-1.2.9-1.5-.9,1.1-2.9,3.3-4.3,2.8,0,0,0,.2,0,.2Z"/>
                      <path class="st8" d="M78.3,355.2c1.3-.5,2.6-1.1,3.5-2.2.1-.2.5-.6.3-.8-.9,1.4-2.5,2.3-4,2.7,0,0-.2,0-.2,0,.2,0,.3.3.4.3Z"/>
                      <path class="st45" d="M80.1,356.7c.2,0,.5-.2.5-.4.1-.3-.4-.3-.6-.4-.5.4-.9.5,0,.8Z"/>
                      <path class="st29" d="M83.5,350.8c0,0-.3-1.5-1.4-1.4,0,0-.6-.6-.8-.9s-1.6-.2-1.6-.2c0,0,.4.4.6.7s.3.4.4.6c.2.2,0,.4,0,.5,0,0-1.1,1.5-1.4,1.8-.8.7-2.1,1.1-1.5,1.4,0,0,.4.3.6.2.9-.4,2.4-1.4,3.2-2.1,0,.3-.8,1-1,1.2-.3.2-2.4,1.3-2.7,1.5-.2.1-.2.4-.4.5.5-.1.5-.3.6.5,1.5-.4,3.1-1.3,4-2.7.2.2-.2.7-.3.8-.8,1.2-2.2,1.7-3.5,2.2,0,0,0,.2,0,.3,0,0,.3.2.2.5,1.4.5,3.4-1.7,4.3-2.8,0,.3-.6,1.3-.9,1.5-.7.7-1.1.6-1.8,1.3.2.1.7,0,.6.4.2-.1,1.6-.9,2.5-2.2s.4-1.3,0-2.2c0,0,.3-.9.2-1.2Z"/>
                    </g>
                    <path class="st45" d="M78.3,356.2c.2,0,.5-.2.5-.4.1-.3-.4-.3-.6-.4-.5.4-.9.5,0,.8Z"/>
                    <path class="st45" d="M77.9,355c.2,0,.5-.2.5-.4.1-.3-.4-.3-.6-.4-.5.4-.9.5,0,.8Z"/>
                    <path class="st45" d="M77.7,353.7c.2,0,.5-.2.5-.4.1-.3-.4-.3-.6-.4-.5.4-.9.5,0,.8Z"/>
                  </g>
                  <path class="st15" d="M83.3,352s.2-.5-.2-.8c0,0-.2-.7-.6-.9,0,0-.2-.7-.6-.7l-.3-1.1s1.4.6,2,1.8.2.5.2.5c0,0-.1.5-.2.7s-.2.4-.2.4Z"/>
                  <g>
                    <path class="st23" d="M84.1,351c.3-.2.2-.8-.1-1.4-.2-.4-.4-.6-.7-.7,0,0,0,0,0,0,1.3,1.5.2,1.9.2,1.9,0,0,0,0,0,0,.2.1.3.1.4,0Z"/>
                    <path class="st23" d="M81.7,347.4s0,0,0,.1c0,.1.3.3.3.3,0,0,0-.1.1-.2,0-.2-.4-.2-.4-.3Z"/>
                    <g>
                      <path class="st23" d="M82,345.9s.3.3.3.3c.1.1.3.4.3.4,0,0,0-.1,0-.2,0-.2-.6-.4-.7-.5Z"/>
                      <path class="st23" d="M85.6,349.8c.1-.1-.2-.7-.7-1.3-.3-.4.2.4.3.6s.3.4.3.5c0,.2-.3,0-.3,0h0c0,.1,0,.2,0,.2.2.1.3.1.3,0Z"/>
                      <path class="st25" d="M82.3,345.2c-.1,0-.5.2-.2.7,0,0,.6.5.9.7.3.3,1.5,1.4,1.8,1.8.5.6,1,1.2.9,1.4,0,0-.2,0-.4-.1,0,.1.5,1.1,1.1.5s0-.2,0-.4c-.2-1-1.7-2.5-2.4-3.1-.3-.3-.7-.6-1-.9-.3-.2-.5-.4-.8-.5Z"/>
                    </g>
                    <path class="st12" d="M85.4,349.2s-1.3-1.7-2.4-2.6c0,0,1.2.6,2.4,2.6Z"/>
                    <path class="st25" d="M82.5,346.5c-.1,0-.3,0-.4,0-.2,0-.3.1-.4.3,0,.1,0,.3,0,.4,0,0,0,.1,0,.2,0,0,.5.3.8.5.3.3,1.1,1.4,1.3,1.8.3.6.5,1.2.2,1.3-.1,0-.3,0-.4,0,0,.1.6.7,1.2.3.2-.1.3-.3.4-.5.4-1.1-.6-2.4-1.1-3-.2-.3-.5-.6-.8-.9-.2-.2-.5-.4-.8-.4Z"/>
                    <path class="st28" d="M84.5,350.5s-.6-2-2.1-3.1c0,0-.6-.5-.2-.6s1.9.6,2.3,3.7Z"/>
                    <path class="st28" d="M85.5,348.4s-1.6-1.6-2.2-2.1c-.1,0-1-.5-.7-.7s2.3,1.9,2.9,2.7Z"/>
                  </g>
                  <path class="st38" d="M63.7,344.7c.7,0,1.4-.6,1.4-.6-.8.6-2.3.5-2.3.5,0,0,.2.3.2.8,0,.5,0,1.3-.4,2-.5,1.1-.8,2.1-1.1,2.9-.3.8-.6,1.7-.7,2.2,0,.4-.1.6-.1.6-.9,3.3.2,10,.2,10,0,0,0-6.6,1-10,.5-1.6,1.9-8.3,1.9-8.3Z"/>
                  <path class="st3" d="M85.4,342.8c.4-.9,1.6-1.8,1.6-1.8,0,0-.8.6-1.3.8s-1,1.5-1,1.5c0,0,.3.1-.4,1.7"/>
                </g>
              </g>
              <g>
                <rect class="st44" x="52.8" y="282" width="17.6" height="4.1" rx="2" ry="2" transform="translate(-27.8 7.5) rotate(-5.7)"/>
                <rect class="st16" x="64.6" y="283" width="1.5" height="1.5" rx=".7" ry=".7" transform="translate(-27.8 7.9) rotate(-5.7)"/>
                <rect class="st11" x="67.1" y="282.7" width="1.5" height="1.5" rx=".7" ry=".7" transform="translate(-27.8 8.1) rotate(-5.7)"/>
              </g>
            </g>
            <g>
              <rect class="st5" x="62.4" y="335.8" width="11.9" height="46.8" transform="translate(418.8 254.8) rotate(84.2)"/>
              <rect class="st5" x="89.3" y="348.1" width="5" height="17.5" transform="translate(219.2 702.5) rotate(174.2)"/>
              <rect class="st5" x="43" y="352.8" width="5" height="17.5" transform="translate(127.4 716.6) rotate(174.2)"/>
              <rect class="st5" x="63.4" y="361.7" width="9.9" height="38.3" transform="translate(136.7 761.6) rotate(180)"/>
            </g>
          </g>
          <path class="st5" d="M80.9,399.6h-25.1c-2.1,0-3.8,2.1-3.8,4.6v2c0,2.3,1.4,4.2,3.2,4.5,0,.3,0,.5,0,.8,0,2.5,1.7,4.6,3.8,4.6h18.7c2.1,0,3.8-2.1,3.8-4.6s0-.5,0-.8c1.8-.3,3.2-2.2,3.2-4.5v-2c0-2.5-1.7-4.6-3.8-4.6Z"/>
          <rect class="st5" x="63.4" y="408.8" width="9.9" height="66.2"/>
        </g>
      </g>
    </g>
  </g>
</svg>