<?xml version="1.0" encoding="UTF-8"?>
<svg xmlns="http://www.w3.org/2000/svg" xmlns:xlink="http://www.w3.org/1999/xlink" version="1.1" viewBox="0 0 310 491">
  <defs>
    <style>
      .st0 {
        fill: none;
      }

      .st1 {
        fill: #544251;
      }

      .st2 {
        fill: #c45f41;
      }

      .st3 {
        fill: #c05e58;
      }

      .st4 {
        fill: #232323;
      }

      .st5 {
        fill: #d7dadc;
      }

      .st6 {
        fill: #8e3226;
      }

      .st7 {
        fill: #f7b750;
      }

      .st8 {
        fill: #a34737;
      }

      .st9 {
        fill: #f4f4f4;
      }

      .st10 {
        fill: #dbdbdb;
      }

      .st11 {
        fill: #23110a;
      }

      .st12 {
        fill: #281a26;
      }

      .st13 {
        fill: #f0935d;
      }

      .st14 {
        fill: #bdeded;
      }

      .st15 {
        fill: #c12e4b;
      }

      .st16 {
        fill: #f8edf9;
      }

      .st17 {
        isolation: isolate;
      }

      .st18 {
        fill: #e5fdfe;
      }

      .st19 {
        fill: #dcb5d8;
      }

      .st20 {
        fill: #2e643c;
      }

      .st21 {
        fill: #fbfbfc;
      }

      .st22 {
        fill: #2e1638;
      }

      .st23 {
        fill: #120418;
      }

      .st24 {
        fill: #8a788e;
      }

      .st25 {
        opacity: .2;
      }

      .st25, .st26 {
        fill: #7aebe9;
      }

      .st27 {
        fill: #e6794d;
      }

      .st28 {
        fill: #e5d4e8;
      }

      .st29 {
        fill: #f7c192;
      }

      .st30 {
        fill: #511407;
      }

      .st31 {
        fill: #661b6a;
      }

      .st32 {
        fill: #ffd229;
      }

      .st33 {
        fill: #17ae9d;
      }

      .st34 {
        fill: #d53a5c;
      }

      .st35 {
        fill: #ffc012;
      }

      .st36 {
        fill: #95409b;
      }

      .st37 {
        mix-blend-mode: soft-light;
      }

      .st38 {
        fill: #353535;
      }

      .st39 {
        fill: #120f12;
      }

      .st40 {
        fill: #2b0f33;
      }

      .st41 {
        fill: #320532;
      }

      .st42 {
        fill: #1d121b;
      }

      .st43 {
        fill: #e8e8e8;
      }

      .st44 {
        fill: #4e0b1b;
      }
    </style>
  </defs>
  <g class="st17">
    <g id="Layer_1">
      <g>
        <g>
          <g>
            <g>
              <g>
                <g>
                  <path class="st43" d="M99.7,210.1c3.9,3.5,6.5,7.3,9.2,11.8,0,.8.3,1-.7,1-5.1.5-10-10.8-16.1-12-6.9-5.1-14.7-4.5-22.9-5.2,11.5-1.1,17.8-3.8,30.4,6.2,2,1.6,4.8,2.8,2.1.4s-1.7-1.4-2-2.2Z"/>
                  <path class="st9" d="M66.5,243.8c-3,4.2-6,8.5-8,13.3-.7,0-.8.2-1.6-.2-.6-1.7.3-4.5,1.3-6,2.3-1.7,5-7.2,7.3-7.5.4,0,.7.1,1,.4Z"/>
                  <path class="st9" d="M31.4,243.6c-.7-2.2,1.4-3.6,3.3-4.4,1.1-.4,6.4-1.4,14.2-4.7-2.1,1.9-14.6,8.6-16.5,9.2-.4.1-.6.2-1-.1Z"/>
                  <path class="st9" d="M17.8,235.8c-1.6-2.8-.2-3.8,2.5-4.9,5,.8,9.9,0,14.8-.7.8-.2.2.3.2.4-1.7,1.5-13.5,2.7-17.4,5.3Z"/>
                  <path class="st9" d="M45.6,250.4c-2.1-3.1,1.1-5.4,2.4-6.6s.1-.2.2-.2c3.4-1.7,4.7-3,7.7-5-2.1,3.4-5.4,6.2-7.9,9.3-.7.9-1.4,3.1-2.4,2.5Z"/>
                  <path class="st10" d="M77.2,263.8c-.5-1.9.8-3.6,1.8-5,.1-.2,2.6-3,2.8-3.1.3,0,2.1.4,2.8,0,.5.4-5,9.6-7.4,8.2Z"/>
                  <path class="st10" d="M67.3,260.9c-1.9-1.7-.9-4.3.2-6.2,1.6-1.8,3.2-3.7,5.1-5.3.1,0,.4,0,.4.2,0,.6-4.9,9.8-5.7,11.3Z"/>
                </g>
                <path class="st1" d="M82.1,232.2"/>
              </g>
              <path class="st43" d="M108.1,222.8c-5.1.5-10-10.8-16.1-12-6.9-5.1-14.7-4.5-22.9-5.2-1.3.1-3,.3-4.7.5l-8,.8c-10.9.5-21.3-.1-32.1-1.6-1.3-.2-7.5-.9-9.3-1.3-2.4-.5-6.7-1.8-11.1-2.9-.1,0-.2,0-.2.2,3,6.8,12.5,13.9,19.1,16.8,0,0,0,0,0,0,0,0,0,0,0,0,1.1.5,2.8,1.2,3.9,1.5,5.3,1.6,14.7.5,20.1.1,0,.7-32.1,2.2-39-3.5,3,.4,5.9.9,8.9,1-1.5,0-9.7-1.7-10.2-1.6-1.9.4-.4,6.3,2.8,9.8.5.6,1.3,1.1,2,1.6,3,2.4,5.3,3.2,9.1,3.8,5,.8,9.9,0,14.8-.7,0,.2,0,.3,0,.4-.3.8-14.1,2.5-17.2,5.3,2.2,3.8,8.3,4.4,12.3,4.2,1.6,0,3.1-.6,4.7-.7,1.1-.4,6.4-1.4,14.2-4.7-2.1,1.9-14.6,8.6-16.5,9.2-.4.1-.6.2-1-.1.3.5.4.7,1,1.3,4,3.7,11.5.8,15.8-1.3,3.5-1.8,4.8-3.1,7.8-5.1-2.1,3.4-5.4,6.2-7.9,9.3-.7.9-1.4,3.1-2.4,2.5.8,1.1,1.6,1.8,2.9,2.2,3.4,1.2,6.8.4,9.6-1.7,2.3-1.7,5-7.2,7.3-7.5.4,0,.5,0,1,.4-3,4.2-6,8.5-8,13.3-.7,0-.8.2-1.6-.2,1.1,3,9.1-.3,10.6-2.2,1.6-1.8,3.2-3.7,5.1-5.3.1,0,.4,0,.4.2,0,.6-4.9,9.8-5.7,11.3,0,0,0,0,.2.3,3.3,2.1,8.5-.6,11.5-2.3.1-.2,2.6-3,2.8-3.1.3,0,2.1.4,2.8,0,.5.4-5,9.6-7.4,8.2.8,2.8,5.7,1.4,7.5.3,0,0,.2-.2.2-.2,3.7-2.3,12.3-22.3,17.8-30.2,0-.1,2.3-3.8,3.9-4.8.4-.2.8-.4,1.3-.5,1.3-.2,2.7-.5,3.9-.8-.8-2.1-2-4-3.1-5.9,0,.8.3,1-.7,1ZM43,210.2s0,0,0,0c0,0,.2,0,.2,0,0,0-.1,0-.2,0Z"/>
            </g>
            <path class="st9" d="M99.7,210.1c-12.2-11-26.7-7.4-41.5-6.6,0,0,0,0,0,0,0,0,0,0,0,0,0,0,0,0,0,0-13.6.7-24.7,1.9-38.7-.2.2,0,.5.1.7.2-10.6-2.2-18.3-5.6-18.6-5.1-.3.8-.5,4.4,1.9,8.2,1.7,2.1,3.4,4.3,5.7,5.8,4,2.7,7.8,5,7.5,4.9-3-.4-7.2-1.2-10.2-1.6,7.8,6.7,24.7,6.2,33.6,5.5,1.4,0,8.1-1.3,8.2-1.5-5.5.4-15.9,1.3-20.9.1-1.8-.4-3.4-1.2-4.6-1.7-6.1-2.7-14.9-9-18.4-15.4-.4-.6.2-1.4.9-1.2,3.9,1,7.6,2.1,9.7,2.5,1.9.4,8,1.1,9.3,1.3,10.8,1.5,21.2,2.1,32.1,1.6,4.5-.2,8.4-.8,12.8-1.2,11.5-1.1,17.8-3.8,30.4,6.2,1.4,1.1,6.1,5.1,5.8,4.5-.4-.8-.3-.5-1.7-2.4-.5-.6-3.2-3.4-3.9-4ZM77.2,203.4s0,0,0,0c0,0,0,0,0,0ZM77.2,203.5s0,0,0,0c0,0,0,0,0,0ZM29.9,205c.7,0,1.3.1,2,.2-.7,0-1.3-.1-2-.2ZM77.1,203.8s0,0,0,0c0,0,.1,0,.1-.2,0,0,0,.2-.1.2ZM77.2,203.6s0,0,0,0c0,0,0,0,0,0Z"/>
          </g>
          <g>
            <g>
              <g>
                <g>
                  <path class="st43" d="M178.1,202.2c-5,4.5-8.5,9.5-11.9,15.2,0,1.1-.4,1.2.9,1.4,6.5.6,13-13.9,20.9-15.5,8.9-6.6,19.1-5.8,29.6-6.6-14.9-1.5-22.9-4.9-39.4,7.9-2.6,2-6.2,3.7-2.7.5.7-.7,2.2-1.8,2.6-2.9Z"/>
                  <path class="st9" d="M220.9,245.9c3.9,5.5,7.8,11,10.3,17.3.9,0,1.1.3,2-.3.8-2.2-.4-5.8-1.6-7.8-3-2.2-6.5-9.3-9.4-9.7-.5,0-.9.2-1.3.5Z"/>
                  <path class="st9" d="M266.2,245.8c.9-2.9-1.8-4.7-4.3-5.6-1.4-.6-8.3-1.9-18.3-6.2,2.6,2.5,18.8,11.1,21.3,12,.6.2.8.3,1.3-.2Z"/>
                  <path class="st9" d="M283.8,235.8c2.1-3.6.2-5-3.2-6.4-6.4,1-12.7,0-19.1-1-1.1-.3-.3.4-.2.5,2.2,2,17.4,3.6,22.5,6.9Z"/>
                  <path class="st9" d="M247.8,254.5c2.7-4-1.4-7-3.1-8.6,0,0-.2-.2-.3-.3-4.4-2.3-6-4-9.9-6.6,2.7,4.4,6.9,8.1,10.2,12.1.9,1.1,1.8,4,3.1,3.3Z"/>
                  <path class="st10" d="M206.9,271.8c.7-2.4-1-4.7-2.3-6.5-.2-.2-3.4-3.9-3.6-4-.3-.1-2.7.5-3.6-.1-.7.5,6.4,12.4,9.5,10.6Z"/>
                  <path class="st10" d="M219.7,268c2.4-2.2,1.2-5.5-.2-8-2-2.3-4.2-4.8-6.5-6.8-.2,0-.6,0-.6.2,0,.8,6.3,12.7,7.3,14.6Z"/>
                </g>
                <path class="st1" d="M200.8,230.8"/>
              </g>
              <path class="st43" d="M166.2,217.3c-1.5,2.5-3,4.9-4,7.6,1.6.4,3.4.7,5.1,1,.6.1,1.2.3,1.7.6,2.1,1.3,4.9,6,5,6.2,7,10.2,18.1,36.1,22.9,39.1.1,0,.2.2.3.3,2.3,1.4,8.7,3.2,9.7-.4-3.1,1.8-10.2-10-9.5-10.6.8.6,3.2,0,3.6.1.3,0,3.5,3.7,3.6,4,3.9,2.2,10.6,5.8,14.9,3,.4-.2.2-.3.3-.3-.9-1.9-7.3-13.8-7.3-14.6,0-.2.4-.2.6-.2,2.4,2,4.5,4.5,6.5,6.8,1.9,2.5,12.3,6.7,13.7,2.9-1,.6-1.1.3-2,.3-2.5-6.3-6.4-11.8-10.3-17.3.6-.3.7-.5,1.3-.5,2.9.4,6.5,7.5,9.4,9.7,3.7,2.7,8,3.8,12.4,2.2,1.7-.6,2.8-1.4,3.8-2.9-1.3.8-2.2-2.2-3.1-3.3-3.3-4.1-7.5-7.7-10.2-12.1,3.9,2.6,5.5,4.4,10.1,6.7,5.5,2.8,15.2,6.5,20.4,1.7.8-.7.9-1,1.3-1.6-.5.5-.7.4-1.3.2-2.4-.8-18.6-9.5-21.3-12,10,4.3,16.8,5.6,18.3,6.2,2,.2,4,.9,6.1,1,5.1.3,13-.5,15.9-5.4-4-3.6-21.8-5.8-22.2-6.9,0,0,0-.3,0-.5,6.3,1,12.6,2,19.1,1,4.9-.8,7.9-1.8,11.8-4.8.8-.6,1.8-1.3,2.5-2.1,4.1-4.5,6.1-12.1,3.6-12.6-.7-.1-11.3,2-13.2,2.1,3.9,0,7.7-.7,11.5-1.2-9,7.3-50.4,5.3-50.5,4.4,7.1.5,19.2,1.9,26,0,1.5-.4,3.6-1.3,5.1-2,0,0,0,0,0,0,0,0,0,0,0,0,8.5-3.7,20.8-12.8,24.7-21.6,0-.1,0-.3-.2-.3-5.7,1.3-11.3,3-14.4,3.7-2.4.5-10.4,1.4-12.1,1.6-13.9,1.9-27.4,2.6-41.5,2l-10.4-1c-2.2-.3-4.4-.6-6.1-.7-10.5.8-20.7,0-29.6,6.6-7.9,1.6-14.3,16.1-20.9,15.5-1.3-.1-.8-.3-.9-1.4ZM251.1,202.7c0,0,.2,0,.3,0,0,0,0,0,0,0,0,0-.2,0-.3,0Z"/>
            </g>
            <path class="st9" d="M173,207.3c-1.8,2.4-1.7,2.1-2.2,3.1s5.7-4.5,7.5-5.8c16.4-12.8,24.4-9.4,39.4-7.9,5.7.6,10.7,1.4,16.5,1.7,14.1.7,27.6,0,41.5-2,1.7-.2,9.7-1.1,12.1-1.6,2.7-.6,7.5-2,12.5-3.2.9-.2,1.6.7,1.2,1.6-4.6,8.3-16,16.4-23.9,19.9-1.4.6-3.6,1.6-5.9,2.2-6.5,1.5-20,.3-27.1-.2,0,.2,8.8,1.8,10.5,1.9,11.5.9,33.3,1.7,43.5-7-3.9.5-9.3,1.6-13.2,2.1-.5,0,4.4-2.8,9.7-6.3,3-2,5.2-4.7,7.4-7.5,3-4.8,2.8-9.5,2.4-10.5-.5-.7-10.4,3.6-24.1,6.5.3,0,.6-.2,1-.3-18,2.8-32.4,1.2-50,.1,0,0,0,0,0,0,0,0,0,0,0,0,0,0,0,0,0,0-19.1-1.1-37.8-5.9-53.7,8.3-.9.8-4.5,4.3-5.1,5.1ZM207.3,193.6s0,0,0,0c0,0,0,0,0,0ZM207.2,193.7s0,0,0,0c0,0,0,0,0,0ZM265.8,196.2c.9,0,1.7-.2,2.6-.2-.9,0-1.7.2-2.6.2ZM207.2,193.9c0,0,0,.2.2.2,0,0,0,0,0,0,0,0-.1,0-.1-.2ZM207.2,193.8s0,0,0,0c0,0,0,0,0,0Z"/>
          </g>
        </g>
        <g>
          <g>
            <g id="Generative_Object">
              <path class="st7" d="M155.3,360.5s-27.3,7-39.6-6-1-.3-1.6-.3c-3.6-.1-16.5,3-15.4,7.2.2.7,1.2,8.2,3.7,10.4,4.5,3.9,27.9,5.2,43.5,4.5,9.3,0,35.1-7.2,35.7-10.5.6-3.1.6-7.5,1.3-11.4-16.1,8.9-27.6,6-27.6,6Z"/>
            </g>
            <path class="st16" d="M197.1,246.4c.5-1.4,3.2-10.4,2.4-14.4-1.4-5.6-3.5-11-7.2-15.4-7.2-8.5-15-6.4-20.8-8.3-1.3,2.8-3,5.6-4.9,8.1-6.1,10.2-32.4,20.5-34.6,20.8-4.9.7-18.7-6.7-19.8-6.5-.2,0-3.3-1.6-3.4-1.8-.9-2-2.7-21.6-3.9-21.6-4.9.4-7.3.6-11.9,3.2-6.6,3.8-13.6,15-11.9,18.3,2.2,4.5,8.1,11.6,12.6,15.5,1.2,1,2.5-.6,3.2-1.9-2.2,5-5.9,12.8-5.2,19.4.9,7.4,4.5,11.7,7.1,13.6,1.8,1.3,5.8,2.6,5.8,2.6,0,0,3.3,3.4-.6,9.7-1.6,2.6-6.5,9.2-12.3,24.2-3.2,12.4-5.7,25-7.5,37.7-.2,1.4.3,21.1-.3,22.4,9.6,6.4,32.5,4.3,43.8,4.1,11.2-.3,45.7-15,54.9-18.4,3-1.1,6.6-2.6,9.4-4.2-1.4-10.1-3.7-20.1-6.5-29.9-2.1-7.4-4.2-14.6-7.8-21.4-4.8-3.8,20.8-15.5,21.6-23.2,0,0-4.4-27.7-2.5-32.9Z"/>
            <path class="st16" d="M159.2,227.2l-26.2,28.4s-19,24-27.8,22.7c-6.6-1-13.1-8.2-13-19s1.9-9.1,3-12-1.6-9.1-1.4-14.2c.4-11.4,1.7-24.9,2.5-25.1,1.6-.4,8.1-1.6,8.9-.6,1.7,1.9,0,10.2,3.8,15.8s8.8,11.9,16.9,12.6c22.4,1.8,37.9-13.1,33.5-8.6Z"/>
            <g>
              <path class="st19" d="M110.8,247.1"/>
              <path d="M68.3,183.2s-.5,0-.6-.3c.3-.4.6.3.6.3Z"/>
            </g>
            <path class="st28" d="M108.8,279.1c3.2,0,6.5-1.9,6.5-1.9-3.9,1.9-10.4,1.1-10.4,1.1,0,0,.7,1.2.6,3.2,0,2.2-1,5.3-2.6,8-2.6,4.5-4.6,8.4-6.2,11.6-1.8,3.1-3.2,6.6-4,8.8-.6,1.5-.8,2.3-.8,2.3-3.5,12.4-6.2,30-6.2,30,0,0,2.2-16.2,11.3-29.5,3.9-5.7,11.8-33.6,11.8-33.6Z"/>
          </g>
          <path class="st28" d="M174.1,296c-3.2-4.5.3-12,1.1-20.4,1.5-2,2.8-4.4,3.3-6.6.6-2.3.3-10.3-1.8-16.1-1,.1,3,8.2-.5,15.5-1.4,1.9-3.2,4.5-6.1,6.5-1.4.9-3.1,1.7-5.1,2.3-3.9,1.1-8.9,1.1-15.7-.8,0,0,7.8,3.8,12.7,3.5s8.5-2.6,8.5-2.6c0,0-1.1,12.3.9,15.3s-2.7,5.1-7.5,7.1-6.4,0-12.9-3.5c-5.6-3.1-15.4-3.7-16.3-3s-4.8,6.1-4.7,6.6c2.2,7.4,45.3,9.2,47.2,13.1,4.9,10,10.5,40.8,9.7,43.5.3,0,4.4-2.2,6.5-3.2s-5.2-36.8-19.3-57Z"/>
          <g>
            <g>
              <path class="st13" d="M152.6,123.6l3.2,14.9s1.6,2.3,2.6,1.9c2.7-1.1,4.5-5.8,4.5-11s-2.6-9.1-2.6-9.1l-7.8,3.2Z"/>
              <path class="st2" d="M176,146.4l.6,1.3c.6,1.3-1.9,1.9-1.9,1.9-.8.2-1.3.6-1.9,0l.6-3.2c.6-1.3,2.4-.3,2.6,0Z"/>
              <g>
                <path class="st14" d="M176.6,151.6c0-1.3,0-3.2-.6-3.9s-1.2-1.3-1.9-.6-1.2,3-1.3,4.5c0,.5.2,2.2.7,2.6,1.3,1,2.1.8,2.6.1,1.3-2.1.6-1.8.6-2.7Z"/>
                <path class="st26" d="M177,151c-.1-1.8-.3-3.1-1-3.4-1.9-.6-.6,1.9-2.6,3.2-.8.5-.4,2.2,0,2.6,2.2,2.7,3.7-.7,3.6-2.5Z"/>
              </g>
              <g>
                <g>
                  <path class="st39" d="M182.5,132.5c-2-1.2-1.1,3.1-7.1,3.6,0-4.9-.9-6.8-4.5-10.2l.5-.5c1.5.5,10,4.1,10.4,4.5.6.7.5,1.6.8,2.6Z"/>
                  <path class="st39" d="M182.5,132.5c.3,1.2.1,3.2.6,3.6-.7.2-5.8,5.2-8.1,4.9.3-1.5.3-3.4.3-4.9,6-.4,5.1-4.7,7.1-3.6Z"/>
                </g>
                <g>
                  <path class="st39" d="M83.4,88.7c-1.1,1.3-2.3,2.5-3.2,3.9.1-.9.4-1.8.3-2.8-1-.4-6.6-4.7-6.8-5-.2-.3-1.3-5.5-1.3-6,0-2.6,1.9-5.4,3.9-7-4,8.9,6.2,12.7,6.8,14.5.3,1-.7,2.3.3,2.4Z"/>
                  <path class="st39" d="M222.8,98.1c2.8,4.6,1.9,6.8,0,11.9,3.1.7,3.5.3,6.5,1.8l-.2.6c-.7-1.3-.4,1.1-3.9-1-.8,3.7-4.8-1.6-3.1,3.4-4.3,2-1.5-11,1.3-11.7.2-.6-3.7-7.4-.6-5Z"/>
                  <path class="st12" d="M60.7,160.8c-.2,0-1,1.2-3.4,1.9-.4,0-3-6.8-3.1-7.1-1.1-5.5,1.7-7.2,2.3-8.1q4.5-3,9.1-6-.3-3-.6-6c0-1.9-5.5-4.7-9.1-7.1-1.4-3-.7-6.7,1.3-9.4,5.8-2.6,12.9-1.1,13-5.4,0-.3-1.4-3.9-1.6-6.7-.5-7.3,9.6-8.7,10.4-9.6.3-.4,1.2-3.8,1.3-4.7.9-1.4,2.2-2.6,3.2-3.9,1.5-1.9,2.4-.3,1.3-6,10.5-11.7,9.9-7.3,24.5-5.4,2.2-.5,2.2-9.9,6.8-10.7,6.5-1.1,8.2,7,5.5,9.1-2.5,2-2.2-1.8-4.5-5.2-2.6,15.4-12,10.3-23.7,8.8-5.8,4-3,6.9-3.7,8.9-.2.5-5.2,4.8-5.5,5.5-2,4.4,3.5,3.6-11.4,11.4-1.6,4.1,6.2,11.1-4.7,15.8-3.1,1.3-11.3,1.5-9.1,4.2,1.8,2.2,10.4,4.1,10.9,11.9,1,15.5-18.3,7-9.1,23.9Z"/>
                  <path class="st12" d="M224.4,158.5c0,0-.2-.2-.3-.3-.2-12.5-8.3-8.5-13.2-11.7-3.1-2.1-5.3-13.2,9.6-12.5,3.8,5.4-9.5,4.3-8.1,7.1.3.7,10.3,4.1,11.7,5.8,2,2.5,2,9.5.3,11.5Z"/>
                  <path class="st42" d="M56.5,147.5c-.5.9-3.4,2.7-2.3,8.1-3.9-1.4-10.2-1.8-9.4-7.3,1.2-8.9,10.7-.8,11.7-.8Z"/>
                  <path class="st42" d="M64.9,135.5q.3,3,.6,6-4.5,3-9.1,6c.4-.6,1.5-1.4,1.6-1.8,1.4-3.7-3-6.4-2.6-10.1l9.4-.2Z"/>
                  <g>
                    <path class="st39" d="M86,132.5q-.4,3.2-.8,6.5c-2.1-1.4-4.5-1.1-5.7-3.6q3.2-1.5,6.5-2.9Z"/>
                    <path class="st33" d="M93.5,129.9c-.9,2.4-1.8,3.7-1.9,6.5-2.3,1.3-.8-5.8,2.3-8l-.3,1.5Z"/>
                  </g>
                  <g>
                    <path class="st42" d="M231.2,148.3c1-11.4-5.1-11.4-5.5-12-2-2.8,3.7-2.6,6.8-6.2,4.6-5.5,3.3-15.1-3.2-18.3l-.2.6c-.7-1.3-.4,1.1-3.9-1-.8,3.7-4.8-1.6-3.1,3.4-4.3,2-1.5-11,1.3-11.7.2-.6-3.7-7.4-.6-5-2.6-4.3-7.3-6.4-12.2-4.2-1.9-.4.6-4-6.7-8,5.7-10.5-7.7-19.1-14.5-9.3-12-13.5-28.7-19.4-45.5-10.4-11.4-12.9-32.9-11.3-44.7.2-1.1,1.1,0,2.7-8.6,6.3-1.3,0-6.8-7.3-14.5-1-4,8.9,6.2,12.7,6.8,14.5.3,1-.7,2.3.3,2.4,1.5-1.9,2.4-.3,1.3-6,10.5-11.7,9.9-7.3,24.5-5.4,2.2-.5,2.2-9.9,6.8-10.7,6.5-1.1,8.2,7,5.5,9.1-2.5,2-2.2-1.8-4.5-5.2-2.6,15.4-12,10.3-23.7,8.8-5.8,4-3,6.9-3.7,8.9-.2.5-5.2,4.8-5.5,5.5-2,4.4,3.5,3.6-11.4,11.4-1.6,4.1,6.2,11.1-4.7,15.8-3.1,1.3-11.3,1.5-9.1,4.2,1.8,2.2,10.4,4.1,10.9,11.9,1,15.5-18.3,7-9.1,23.9-.2,0-1,1.2-3.4,1.9-.4,0-3-6.8-3.1-7.1-3.9-1.4-10.2-1.8-9.4-7.3,1.2-8.9,10.7-.8,11.7-.8.4-.6,1.5-1.4,1.6-1.8,1.4-3.7-3-6.4-2.6-10.1l9.4-.2c0-1.9-5.5-4.7-9.1-7.1-1.4-3-.7-6.7,1.3-9.4,5.8-2.6,12.9-1.1,13-5.4,0-.3-1.4-3.9-1.6-6.7-.5,0-1,0-1.5,0,.5,0,1,0,1.5,0-.5-7.3,9.6-8.7,10.4-9.6.3-.4,1.2-3.8,1.3-4.7.1-.9.4-1.8.3-2.8-1-.4-6.6-4.7-6.8-5-.8.1-1.6.6-2.3,1-.4.6-.7,1.2-1,1.8.3-.6.6-1.2,1-1.8-5.2,2.8-3.5,2.4-6,7.5-12.5-1-17.1,11.1-8.3,19.6-1.7.6-3.5.8-5.2,1.5-1.4.6-2.2.9-3.2,1.9-6.2,5.8-3.3,14,3.9,17.1.4,1.2-2.6,3,0,9.1-12.3-1.4-16.7,12.5-5.2,17.9-2.4,6,1.9,13.9,8.6,11.5,5.4,5.3-1.3,5.3-.2,12.8.9,5.9,9.2,9.6,14.1,6,7,2.9,3.6,3.4,6,6.7,3.1,4.2,10.7,3.8,14.1.2.9.2.5,9.2,13,7.5,3-5.3,4-1.6,8.8-3.9,3.5-1.7,3.5-6.4,7-3.2,1.9-2.6,2.9-5.9,5.5-8.1,0-.5,0-.6.3-1-5-.9-17.5-10.2-21.5-13.8-6.8-6-10.8-11.3-10.7-20.5.1-.4-.2-5.5-1-7-.3-.6-.2-6.1,0-11-2.3,1.3-.8-5.8,2.3-8q-.2.7-.3,1.5c.1-.3.9-2.2,1-2.3.9-1.7,1.6-4.5,4.2-3.7q-.6-.9-1.3-1.8c.7-6.1,5.2-20.9,11.4-23.7,3.7-1.6,7.2.8,11.5-5.5,14.9,8.4,20.6-1.5,21.8-1.9,4.5-1.7,5.7,3.4,6,3.7,5.2,5.8,10.5,3.7,14.9,11.7,1.8,3.2,2.3,7.3,4.2,10.4.8,1.3-.5,10.8.3,12.7,3,6.7,2.6,13.6.7,16.7,4.3-6.9,1.1,2.4,5.2-1.3.4-.8,1.5-3.5,1.6-3.9.3-1.5.3-3.4.3-4.9,0-4.9-.9-6.8-4.5-10.2l.5-.5c1.5.5,10,4.1,10.4,4.5.6.7.5,1.6.8,2.6.3,1.2.1,3.2.6,3.6,7.6-1.8,11.1,12.3,2.1,19.8-7,5.8-10.7-1.6-15.1,5-.2.3-.6,3.1-3.6,7.3-4,5.8-10.8,10-16.9,13.3.8,1.9,1.1,3.9,1.6,5.8.4,1.5,1.3,3.4,1.3,3.6,3.7.4,5.2,4.3,7.1,5.5.4.2,2.3.6,3.1.6,4.6,9,16.6,6.9,19.5-2.6,4.7-4.1,7.2-4.4,7.2-4.4,0,0,5.5-1.5,11.4,1.8,4.8,0,8.1.5,11.4-3.6,11.9,1.3,16.4-10.7,8-18.7q2-2.7,4.1-5.4c4,1,7.8,0,9.9-3.6,2.7-4.6,1.4-9.5-2.9-12.5ZM69.7,89.2c-.2.5-.4,1.1-.5,1.6.1-.5.3-1,.5-1.6ZM58.9,95.2c.4-.1.7-.2,1.1-.3.4,0,.8,0,1.1,0-.4,0-.8,0-1.1,0-.4,0-.7.2-1.1.3-.3.1-.5.2-.8.4.2-.2.5-.3.8-.4ZM55.9,99.4c0-.3.2-.7.3-1-.1.3-.2.7-.3,1-.1.5-.1,1.1,0,1.6,0-.5,0-1.1,0-1.6ZM224.4,158.5c0,0-.2-.2-.3-.3-.2-12.5-8.3-8.5-13.2-11.7-3.1-2.1-5.3-13.2,9.6-12.5,3.8,5.4-9.5,4.3-8.1,7.1.3.7,10.3,4.1,11.7,5.8,2,2.5,2,9.5.3,11.5Z"/>
                    <g>
                      <path class="st12" d="M152.5,67.6c8.2-.8,14.1,13.3,29.6,8.1,7.5,10,13.8,6.9,10.6,19,1.7.8,8.1,6.5,8.6,6.7,3.6,1.3,14.1-1.9,10.9,11.2,3.1,1.1,13.9,5.3,15.3,7.8,1.5,2.8.5,8.5-2.8,9.6-7.5,2.6-.6-6.2-.8-7.3-8.1-7.4-19.4-.5-14.9-15.9q-4.3-.4-8.6-.8c-5.5-7.2-8.6-5.3-10.6-7.6-5.2-6.3,8.1-14.7-12.8-11.9q-.8-2.8-1.6-5.5c-8,.3-14.9-4.3-21.1-8.8-2.8-.2-11.1,5.3-9.3-.5.4-1.2,6.2-3.9,7.6-4.1Z"/>
                      <path class="st41" d="M183,79.6c2-.1-1.7,1.4-2.3,1.6-7.8,2.8-2.3-1.3,2.3-1.6Z"/>
                    </g>
                  </g>
                </g>
                <g>
                  <g>
                    <g>
                      <path class="st6" d="M151.3,187.4c-5.9,7.5-14.2,13.3-23.4,15.9-1.5-2-3.5-3.9-3.9-6.5-.3-1.9.1-5.1.3-7.1,0-.5,0-.6.3-1,8.1,1.4,18-3.3,25-7.1.8,1.9,1.1,3.9,1.6,5.8Z"/>
                      <path class="st27" d="M152.6,191c.3,1.3.5,2.7.6,4.1-4.7,5.6-11.9,9.8-18.8,12.2-1.6.5-1.2.6-1.3.6-.5.1-.2.5-1.6-.3-.2-.1-.8-.5-1-.6-.2-.1-2.2-3.1-2.6-3.6,9.2-2.6,17.5-8.4,23.4-15.9.4,1.5,1.3,3.4,1.3,3.6Z"/>
                    </g>
                    <path class="st27" d="M168.2,162.4c-4.1,10.9-31.8,24.3-39.8,24-10.1-.3-30.2-16.8-32.6-27.4,3.5.7,7.2.8,10.7-.2.4.6,2,2,4.2,5.5,4.5,7.2,7.2,14.6,17.5,13.3,8.2-1,10.2-6.6,12.7-9.4,2.1-2.4,4.4-4.7,6.5-7.1,2.3.6,4.9.9,7.3.6,1.4-.2,7.7-2.6,7-3.9,1.5-.7,5.4-3.7,6.5-4.9,1.3,2.9,1.2,6.4,0,9.4Z"/>
                    <path class="st3" d="M161.7,157.9c.7,1.3-5.6,3.7-7,3.9-2.4.3-5,0-7.3-.6.3-.3.4-.9.6-1.3,4.4.9,9.6,0,13.6-1.9Z"/>
                    <g>
                      <path class="st27" d="M166.6,168.3c-1.1-1.1,3-4,1.6-5.8,1.2-3.1,1.3-6.5,0-9.4,1.1-1.2,3.8-6.3,4.5-7.9.4-.8,2.2-3.6,2.3-4.1,2.3.3,7.4-4.7,8.1-4.9,7.6-1.8,11.1,12.3,2.1,19.8-7,5.8-10.7-1.6-15.1,5-.2.3-.6,3.1-3.6,7.3Z"/>
                      <path class="st8" d="M184.4,148.4c1.2,4.6-3.1,5.1-4.7,4.2-1.6-.9-2.4-6.7-1.5-8.8,2.7,1.1,5.6,6.9,6.2,4.5Z"/>
                      <path class="st30" d="M184.4,148.4c-.6,2.4-3.4-3.4-6.2-4.5,1.3-2.9,11-4.9,9.3,2.9-.9-6.4-6.2-3.7-6.3-3.1-.1.5,2.7,2.6,3.2,4.7Z"/>
                    </g>
                    <path class="st13" d="M146.8,160.1c-1.1.3-2.1,1.3-3.6,1.6-12.4,2.7-22.7,3.5-34.1-2.9-.6-.4-1.3-.6-1.9-1,9.4-2,16.3-12.5,16.1-21.8,13.8-1.3,4.9,2.2,11.9,14.8,2.9,5.2,6.5,7,11.7,9.3Z"/>
                    <g>
                      <path class="st44" d="M107.2,157.9c.6.3,1.3.6,1.9,1,1.5,2.3,4.8,4.3,7.1,6.5.1.1.6,1.7,1.6,2.8.5.4,1.1.8,1.6,1.1-2.5,1.2-6.4-3.6-8.8-4.9-2.2-3.5-3.8-5-4.2-5.5,0,0,0-.5-.3-1,.3,0,.7,0,1,0Z"/>
                      <path class="st44" d="M148.1,159.8c-.3.4-.4,1-.6,1.3-2.1,2.4-4.4,4.7-6.5,7.1-1,.1-3.9.8-4.5,1,1.5-1.7,3-3.3,4.5-4.9.8-.8,1.8-1.6,2.3-2.6,1.4-.3,2.4-1.4,3.6-1.6l1.3-.3Z"/>
                      <path class="st34" d="M140.9,168.3c-2.5,2.8-4.4,8.4-12.7,9.4-6.2-.3-11.9-7.3-8.4-8.1,7.7,4.6,13.1.9,16.6-.3.6-.2,3.6-.8,4.5-1Z"/>
                      <path class="st15" d="M119.5,169.2c.4.3.3.3.3.3-3.5.9,2.3,7.8,8.4,8.1-10.3,1.2-13-6.2-17.5-13.3,2.4,1.2,6.2,6.1,8.8,4.9Z"/>
                      <path class="st15" d="M143.2,161.8c-.5,1-1.5,1.8-2.3,2.6-8,2.8-16.6,3.6-24.7,1-2.4-2.2-5.6-4.1-7.1-6.5,11.4,6.4,21.7,5.6,34.1,2.9Z"/>
                      <path class="st21" d="M140.9,164.4c-1.5,1.6-3.1,3.2-4.5,4.9-3.4,1.2-8.9,5-16.6.3,0,0,0,0-.3-.3-.5-.4-1.2-.7-1.6-1.1-1-1-1.5-2.7-1.6-2.8,8.1,2.7,16.7,1.9,24.7-1Z"/>
                    </g>
                  </g>
                  <g>
                    <g>
                      <path class="st21" d="M157.2,143.9c1.2-1.2.7-1,1-2.3,0-.3,0-.7,0-1,0,0,.8-.3,0-1.9,2,.4,4.5,2.9,4.5,4.2,0,4.7-12.8,5.4-18.3.6-2.8-2.4-.5-1.5.5-2.3,2.1-1.6,3.6-5.7,9.9-4.5,3.4.6-2.4,0-3.7,2.4-2.6,4.7,2.8,8.3,6.2,4.7Z"/>
                      <path class="st18" d="M158.1,138.7c.8,1.7,0,1.9,0,1.9l-1,1c-4.3.9-3.2-3.8,1-2.9Z"/>
                      <path class="st26" d="M158.1,141.6c-.3,1.3.2,1-1,2.3-2-1.1,0-1,.3-2.3h.6Z"/>
                      <path class="st20" d="M158.1,141.6h-.6c-.1,0-.2,0-.3,0l1-1c0,.3,0,.7,0,1Z"/>
                    </g>
                    <g>
                      <path class="st42" d="M100.6,123c-4.4,5.6-5.3,20.2-5.2,19.5.3.5-3,13.5-3.2,13-2.6-4.5-6.5-14.3-1.3-24.7,1.3-2.5,6.1-7.6,9.7-7.8Z"/>
                      <path class="st13" d="M168.2,146.2c3.1-7.1-5.4-3.2-5.5-3.2,0,4.7-12.8,5.4-18.3.6-2.8-2.4-.5-1.5.5-2.3-.4-3,2.1-5.3,4.5-6.6,1.2-.7,3.9-.6,5.8-.6s4.5,1.9,6.2,3.7c.5.7,9.1-12.3,9.3-12.3.2,0,1.2-2.6,1.1-3.1-.1-1.2-3.7-4.2-4.5-5.5-1.9-3.1-2.5-7.2-4.2-10.4-4.5-8-9.8-5.8-14.9-11.7-.3-.3-1.5-5.4-6-3.7-1.1.4-6.9,10.3-21.8,1.9-4.4,6.3-7.9,3.9-11.5,5.5-5.6,7-14,28.9-13.9,28.7-.7,2.6-2,5.8-2,8.8-.3,2.4-.4,8.5-.6,9.1-2.6,5.8-.6,12.3,0,13.6,0,.2,9.5-.2,14-.8.3,0,.7,0,1,0,9.4-2,16.3-12.5,16.1-21.8,13.8-1.3,4.9,2.2,11.9,14.8,2.9,5.2,6.5,7,11.7,9.3l1.3-.3c4.4.9,9.6,0,13.6-1.9,1.5-.7,5.4-3.7,6.5-4.9,1.1-1.2,4.5-6.5,5.2-8.1-4.1,3.7-.8-5.6-5.2,1.3ZM117.9,139c-1.2-.3-.4,2-.6,2.4-.6.8-2.2-1-2.6.8,0,.4,0,1.1,0,1.3,3.2.7-2.6,7.8-3.7,7.8-.9,0-1.7-3.3-4.5-2.9-1.3.2-6.8-1.1-10-5.9.3-1.8.6-5,.7-5.2,0-.2-.1-1,.3-1.8,2.8-4.9,13.5-5.9,18.5-5.7,1.4,2.6,2,6.1,1.9,9.1ZM149.1,116.9c-.8,0-1.6,0-2.3.1.7,0,1.5-.1,2.3-.1ZM142.7,118c-.3.2-.6.3-.9.5.2-.2.5-.4.9-.5Z"/>
                      <path class="st21" d="M108.1,137.1c-10.8,2.6.7,12.8,3.2,4.9.4-1.3.4-2.3.3-3.6.3,0,2.2,1.9,2.6,2.9,0,.2.3.9.3,1,0,.2,0,.4,0,.6s0,.5,0,.7c-1.1,3.9-12.1,3.4-16.6,1.9-1.6-.5-1.8-2.2-1.6-3.6.6-4.4,10.5-6.8,11.7-4.9Z"/>
                      <path class="st27" d="M115.9,129.9c-5-.2-15.7.8-18.5,5.7-.4.8-.2,1.6-.3,1.8,4.4-6.4,18-4.8,17.2,3.9,0,.2.6,1.1,0,2.9-2.1,3.1-12.5,2.3-16.3,1.3-.2,0-1.7-.7-1,.3,2.2,3.1,7.6,4.6,9.4,5.1,2.6.6,3.5.7,4.4.5,5.3-1.8,6.6-9.5,7-12.3.3-2.3-.6-6.5-1.9-9.1Z"/>
                      <path class="st14" d="M111.4,141.9c-1.4,1.7-3.2.9-2.3-1.3,1.3-.3,1.9-2.3,2.6-2.3,0,1.3,0,2.3-.3,3.6Z"/>
                    </g>
                  </g>
                </g>
              </g>
              <path class="st39" d="M94.8,146.4"/>
              <path class="st2" d="M92.8,152.2c3.2,3.4,8.9,6.3,13.4,5.7.4.5.3.9.3,1-3.5.9-7.2.9-10.7.2,2.4,10.6,22.5,27.1,32.6,27.4,8,.2,35.6-13.1,39.8-24,1.4,1.9-2.7,4.8-1.6,5.8-4,5.8-10.8,10-16.9,13.3-7,3.8-16.9,8.6-25,7.1-5-.9-18.2-9.1-22.2-12.7-6.4-5.7-11.6-15.3-11.6-24.5,0,0,1.9.7,1.9.6Z"/>
              <path class="st2" d="M100.7,120.2c-1.1.6-4.9,6.5-5.9,7.3.7-6.1,7.1-27.3,14-29.1,8.7-2.3-2.9,2.9-6.8,15.8-.6,1.9-.6,4.1-1.3,6Z"/>
              <g>
                <path class="st27" d="M126,158.2c-2.7-.1-5-1.9-6.8-3.6-1.2-6.7,2.2-.6,3.7.3,4,2.4,11.7-.2,3.1,3.2Z"/>
                <path class="st30" d="M119.2,154.6c1.8,1.7,4.1,3.5,6.8,3.6,2.4.1,9.4-3.7,5.7-.6-7,5.7-17.5-4.5-13.6-4.5.3,0,.3.8,1.1,1.6Z"/>
              </g>
              <path class="st27" d="M148.1,125.4c1.9-.2.5.4-2,1.5-3.9,1.7-6.5,4.5-4.5,13.3,0,.3-.2.2-.5.5l-6-1.9c-.2-10.3,3.9-12.5,13-13.3Z"/>
              <path class="st27" d="M172.1,122.3c-.1-2.5-2.7-2.5-4.5-5.2-1.6-2.3-2.5-7.5-2.6-7.8-1.9-6.5-7.8-9.1-7.8-9.1,0,0,9.1,11,5.8,26-.4,0-2.7-1.4-3.2-1.5-3.6.4-.7,1.1,1,4.1,2.2,3.9,3.4,8.7,2.3,13.2,0,.2,0,1.2,0,1.2,0,0-.6,1.4-1.3,1.9-3.2,2.6-9.7,1.9-11.7,1.3-1.3-.4-3.2-1.3-3.2-1.3,0,0,1.9,5.8,13,5.8s9.3-8.4,9.7-10.4c.6-2.9,0-6.5-1.9-10.4,0-.2,4.6-6.5,4.5-7.8Z"/>
              <g>
                <path d="M94.1,128.5c0,.2.3,0,.7-.3,3.9-2.6,5.8-3.9,7.1-4.5,2.6-1.3,4.3-1.4,4.5-1.4,2.4-.8,11.4,2.3,8.3-2.4-2.9-4.4-11.1-1-14.6.8-1.1.6-6,5-6,7.8Z"/>
                <path d="M159.2,125.2c.4.4.5-1.5.2-2.6-2.6-7.1-17.8-5.8-18.7-2.8-1.3,4.6,6.8.8,14,2.6,1.8.6,2.4.6,4.5,2.8Z"/>
              </g>
              <path class="st2" d="M163.3,135.9c0,.2-.2.4-.3.2-2.6-4.8-11.1-5.9-14.5-4.4-2,1,4.9-5.3,11.2-2.4,3.2,1.5,3.4,5.2,3.6,6.5Z"/>
              <path class="st11" d="M167.4,138.4c-2.8.8-4.7.5-5.7-.5-.3-.3-.5-.5-.7-.7-4.5-6.5-16.8-3.2-16.1,4.1,2.1-1.6,3.6-5.7,9.9-4.5,3.4.6-2.4,0-3.7,2.4-2.6,4.7,2.8,8.3,6.2,4.7-2-1.1,0-1,.3-2.3-.1,0-.2,0-.3,0-4.3.9-3.2-3.8,1-2.9,2,.4,4.5,2.9,4.5,4.2.3.8-.4,1.6-.4,1.5.6-.6,1.3-1.9.7-2.4,1.5,0,4.4-3.6,4.4-3.6Z"/>
              <path class="st2" d="M96.7,136.6s2.8-3.6,5.2-4.5c3.6-1.4,12.3-2.6,14.3-1.9s-7.6-3-13.8-.7c-.8.3-2.3,1.1-3.1,2-2.6,2.6-2.6,5.2-2.6,5.2Z"/>
              <path class="st13" d="M159.7,132.2l3.2,14.9s1.6,2.3,2.6,1.9c2.7-1.1,4.5-5.8,4.5-11s-2.6-9.1-2.6-9.1l-7.8,3.2Z"/>
              <g>
                <g>
                  <path class="st39" d="M182.5,132.7c-2-1.2-1.1,3.1-7.1,3.6,0-4.9-.9-6.8-4.5-10.2l.5-.5c1.5.5,10,4.1,10.4,4.5.6.7.5,1.6.8,2.6Z"/>
                  <path class="st39" d="M182.5,132.7c.3,1.2.1,3.2.6,3.6-.7.2-5.8,5.2-8.1,4.9.3-1.5.3-3.4.3-4.9,6-.4,5.1-4.7,7.1-3.6Z"/>
                </g>
                <g>
                  <path class="st39" d="M83.4,88.8c-1.1,1.3-2.3,2.5-3.2,3.9.1-.9.4-1.8.3-2.8-1-.4-6.6-4.7-6.8-5-.2-.3-1.3-5.5-1.3-6,0-2.6,1.9-5.4,3.9-7-4,8.9,6.2,12.7,6.8,14.5.3,1-.7,2.3.3,2.4Z"/>
                  <path class="st39" d="M222.7,98.2c2.8,4.6,1.9,6.8,0,11.9,3.1.7,3.5.3,6.5,1.8l-.2.6c-.7-1.3-.4,1.1-3.9-1-.8,3.7-4.8-1.6-3.1,3.4-4.3,2-1.5-11,1.3-11.7.2-.6-3.7-7.4-.6-5Z"/>
                  <path class="st12" d="M60.7,160.9c-.2,0-1,1.2-3.4,1.9-.4,0-3-6.8-3.1-7.1-1.1-5.5,1.7-7.2,2.3-8.1q4.5-3,9.1-6-.3-3-.6-6c0-1.9-5.5-4.7-9.1-7.1-1.4-3-.7-6.7,1.3-9.4,5.8-2.6,12.9-1.1,13-5.4,0-.3-1.4-3.9-1.6-6.7-.5-7.3,9.6-8.7,10.4-9.6.3-.4,1.2-3.8,1.3-4.7.9-1.4,2.2-2.6,3.2-3.9,1.5-1.9,2.4-.3,1.3-6,10.5-11.7,9.9-7.3,24.5-5.4,2.2-.5,2.2-9.9,6.8-10.7,6.5-1.1,8.2,7,5.5,9.1-2.5,2-2.2-1.8-4.5-5.2-2.6,15.4-12,10.3-23.7,8.8-5.8,4-3,6.9-3.7,8.9-.2.5-5.2,4.8-5.5,5.5-2,4.4,3.5,3.6-11.4,11.4-1.6,4.1,6.2,11.1-4.7,15.8-3.1,1.3-11.3,1.5-9.1,4.2,1.8,2.2,10.4,4.1,10.9,11.9,1,15.5-18.3,7-9.1,23.9Z"/>
                  <path class="st12" d="M224.3,158.6c0,0-.2-.2-.3-.3-.2-12.5-8.3-8.5-13.2-11.7-3.1-2.1-5.3-13.2,9.6-12.5,3.8,5.4-9.5,4.3-8.1,7.1.3.7,10.3,4.1,11.7,5.8,2,2.5,2,9.5.3,11.5Z"/>
                  <path class="st42" d="M56.4,147.6c-.5.9-3.4,2.7-2.3,8.1-3.9-1.4-10.2-1.8-9.4-7.3,1.2-8.9,10.7-.8,11.7-.8Z"/>
                  <path class="st42" d="M64.9,135.6q.3,3,.6,6-4.5,3-9.1,6c.4-.6,1.5-1.4,1.6-1.8,1.4-3.7-3-6.4-2.6-10.1l9.4-.2Z"/>
                  <g>
                    <path class="st39" d="M86,132.7q-.4,3.2-.8,6.5c-2.1-1.4-4.5-1.1-5.7-3.6q3.2-1.5,6.5-2.9Z"/>
                    <path class="st33" d="M93.5,130.1c-.9,2.4-1.8,3.7-1.9,6.5-2.3,1.3-.8-5.8,2.3-8q-.2.7-.3,1.5Z"/>
                  </g>
                  <g>
                    <path class="st42" d="M231.2,148.4c1-11.4-5.1-11.4-5.5-12-2-2.8,3.7-2.6,6.8-6.2,4.6-5.5,3.3-15.1-3.2-18.3l-.2.6c-.7-1.3-.4,1.1-3.9-1-.8,3.7-4.8-1.6-3.1,3.4-4.3,2-1.5-11,1.3-11.7.2-.6-3.7-7.4-.6-5-2.6-4.3-7.3-6.4-12.2-4.2-1.9-.4.6-4-6.7-8,5.7-10.5-7.7-19.1-14.5-9.3-12-13.5-28.7-19.4-45.5-10.4-11.4-12.9-32.9-11.3-44.7.2-1.1,1.1,0,2.7-8.6,6.3-1.3,0-6.8-7.3-14.5-1-4,8.9,6.2,12.7,6.8,14.5.3,1-.7,2.3.3,2.4,1.5-1.9,2.4-.3,1.3-6,10.5-11.7,9.9-7.3,24.5-5.4,2.2-.5,2.2-9.9,6.8-10.7,6.5-1.1,8.2,7,5.5,9.1-2.5,2-2.2-1.8-4.5-5.2-2.6,15.4-12,10.3-23.7,8.8-5.8,4-3,6.9-3.7,8.9-.2.5-5.2,4.8-5.5,5.5-2,4.4,3.5,3.6-11.4,11.4-1.6,4.1,6.2,11.1-4.7,15.8-3.1,1.3-11.3,1.5-9.1,4.2,1.8,2.2,10.4,4.1,10.9,11.9,1,15.5-18.3,7-9.1,23.9-.2,0-1,1.2-3.4,1.9-.4,0-3-6.8-3.1-7.1-3.9-1.4-10.2-1.8-9.4-7.3,1.2-8.9,10.7-.8,11.7-.8.4-.6,1.5-1.4,1.6-1.8,1.4-3.7-3-6.4-2.6-10.1l9.4-.2c0-1.9-5.5-4.7-9.1-7.1-1.4-3-.7-6.7,1.3-9.4,5.8-2.6,12.9-1.1,13-5.4,0-.3-1.4-3.9-1.6-6.7-.5,0-1,0-1.5,0,.5,0,1,0,1.5,0-.5-7.3,9.6-8.7,10.4-9.6.3-.4,1.2-3.8,1.3-4.7.1-.9.4-1.8.3-2.8-1-.4-6.6-4.7-6.8-5-.8.1-1.6.6-2.3,1-.4.6-.7,1.2-1,1.8.3-.6.6-1.2,1-1.8-5.2,2.8-3.5,2.4-6,7.5-12.5-1-17.1,11.1-8.3,19.6-1.7.6-3.5.8-5.2,1.5-1.4.6-2.2.9-3.2,1.9-6.2,5.8-3.3,14,3.9,17.1.4,1.2-2.6,3,0,9.1-12.3-1.4-16.7,12.5-5.2,17.9-2.4,6,1.9,13.9,8.6,11.5,5.4,5.3-1.3,5.3-.2,12.8.9,5.9,9.2,9.6,14.1,6,7,2.9,3.6,3.4,6,6.7,3.1,4.2,10.7,3.8,14.1.2.9.2.5,9.2,13,7.5,3-5.3,4-1.6,8.8-3.9,3.5-1.7,3.5-6.4,7-3.2,1.9-2.6,2.9-5.9,5.5-8.1,0-.5,0-.6.3-1-5-.9-17.5-10.2-21.5-13.8-6.8-6-10.8-11.3-10.7-20.5.1-.4-.2-5.5-1-7-.3-.6-.2-6.1,0-11-2.3,1.3-.8-5.8,2.3-8q-.2.7-.3,1.5c.1-.3.9-2.2,1-2.3.9-1.7,1.6-4.5,4.2-3.7q-.6-.9-1.3-1.8c.7-6.1,5.2-20.9,11.4-23.7,3.7-1.6,7.2.8,11.5-5.5,14.9,8.4,20.6-1.5,21.8-1.9,4.5-1.7,5.7,3.4,6,3.7,5.2,5.8,10.5,3.7,14.9,11.7,1.8,3.2,2.3,7.3,4.2,10.4.8,1.3-.5,10.8.3,12.7,3,6.7,2.6,13.6.7,16.7,4.3-6.9,1.1,2.4,5.2-1.3.4-.8,1.5-3.5,1.6-3.9.3-1.5.3-3.4.3-4.9,0-4.9-.9-6.8-4.5-10.2l.5-.5c1.5.5,10,4.1,10.4,4.5.6.7.5,1.6.8,2.6.3,1.2.1,3.2.6,3.6,7.6-1.8,11.1,12.3,2.1,19.8-7,5.8-10.7-1.6-15.1,5-.2.3-.6,3.1-3.6,7.3-4,5.8-10.8,10-16.9,13.3.8,1.9,1.1,3.9,1.6,5.8.4,1.5,1.3,3.4,1.3,3.6,3.7.4,5.2,4.3,7.1,5.5.4.2,2.3.6,3.1.6,4.6,9,16.6,6.9,19.5-2.6.9.9,2.8,2.5,2.8,2.5,0,0,4.1-2,8.6-3.3s7-1.6,7.1-1.7c4.8,0,8.1.5,11.4-3.6,11.9,1.3,16.4-10.7,8-18.7q2-2.7,4.1-5.4c4,1,7.8,0,9.9-3.6,2.7-4.6,1.4-9.5-2.9-12.5ZM69.7,89.4c-.2.5-.4,1.1-.5,1.6.1-.5.3-1,.5-1.6ZM58.9,95.3c.4-.1.7-.2,1.1-.3.4,0,.8,0,1.1,0-.4,0-.8,0-1.1,0-.4,0-.7.2-1.1.3-.3.1-.5.2-.8.4.2-.2.5-.3.8-.4ZM55.8,99.5c0-.3.2-.7.3-1-.1.3-.2.7-.3,1-.1.5-.1,1.1,0,1.6,0-.5,0-1.1,0-1.6ZM224.3,158.6c0,0-.2-.2-.3-.3-.2-12.5-8.3-8.5-13.2-11.7-3.1-2.1-5.3-13.2,9.6-12.5,3.8,5.4-9.5,4.3-8.1,7.1.3.7,10.3,4.1,11.7,5.8,2,2.5,2,9.5.3,11.5Z"/>
                    <g>
                      <path class="st12" d="M152.4,67.7c8.2-.8,14.1,13.3,29.6,8.1,7.5,10,13.8,6.9,10.6,19,1.7.8,8.1,6.5,8.6,6.7,3.6,1.3,14.1-1.9,10.9,11.2,3.1,1.1,13.9,5.3,15.3,7.8,1.5,2.8.5,8.5-2.8,9.6-7.5,2.6-.6-6.2-.8-7.3-8.1-7.4-19.4-.5-14.9-15.9q-4.3-.4-8.6-.8c-5.5-7.2-8.6-5.3-10.6-7.6-5.2-6.3,8.1-14.7-12.8-11.9l-1.6-5.5c-8,.3-14.9-4.3-21.1-8.8-2.8-.2-11.1,5.3-9.3-.5.4-1.2,6.2-3.9,7.6-4.1Z"/>
                      <path class="st41" d="M182.9,79.7c2-.1-1.7,1.4-2.3,1.6-7.8,2.8-2.3-1.3,2.3-1.6Z"/>
                    </g>
                  </g>
                </g>
                <g>
                  <g>
                    <g>
                      <path class="st6" d="M151.3,187.6c-5.9,7.5-14.2,13.3-23.4,15.9-1.5-2-3.5-3.9-3.9-6.5-.3-1.9.1-5.1.3-7.1,0-.5,0-.6.3-1,8.1,1.4,18-3.3,25-7.1.8,1.9,1.1,3.9,1.6,5.8Z"/>
                      <path class="st27" d="M152.6,191.1c.3,1.3.5,2.7.6,4.1-4.7,5.6-11.9,9.8-18.8,12.2-1.6.5-1.2.6-1.3.6-.5.1-.2.5-1.6-.3-.2-.1-.8-.5-1-.6-.2-.1-2.2-3.1-2.6-3.6,9.2-2.6,17.5-8.4,23.4-15.9.4,1.5,1.3,3.4,1.3,3.6Z"/>
                    </g>
                    <path class="st27" d="M168.2,162.5c-4.1,10.9-31.8,24.3-39.8,24-10.1-.3-30.2-16.8-32.6-27.4,3.5.7,7.2.8,10.7-.2.4.6,2,2,4.2,5.5,4.5,7.2,7.2,14.6,17.5,13.3,8.2-1,10.2-6.6,12.7-9.4,2.1-2.4,4.4-4.7,6.5-7.1,2.3.6,4.9.9,7.3.6,1.4-.2,7.7-2.6,7-3.9,1.5-.7,5.4-3.7,6.5-4.9,1.3,2.9,1.2,6.4,0,9.4Z"/>
                    <path class="st3" d="M161.7,158c.7,1.3-5.6,3.7-7,3.9-2.4.3-5,0-7.3-.6.3-.3.4-.9.6-1.3,4.4.9,9.6,0,13.6-1.9Z"/>
                    <g>
                      <path class="st27" d="M166.5,168.4c-1.1-1.1,3-4,1.6-5.8,1.2-3.1,1.3-6.5,0-9.4,1.1-1.2,3.8-6.3,4.5-7.9.4-.8,2.2-3.6,2.3-4.1,2.3.3,7.4-4.7,8.1-4.9,7.6-1.8,11.1,12.3,2.1,19.8-7,5.8-10.7-1.6-15.1,5-.2.3-.6,3.1-3.6,7.3Z"/>
                      <path class="st8" d="M184.4,148.6c1.2,4.6-3.1,5.1-4.7,4.2-1.6-.9-2.4-6.7-1.5-8.8,2.7,1.1,5.6,6.9,6.2,4.5Z"/>
                      <path class="st30" d="M184.4,148.6c-.6,2.4-3.4-3.4-6.2-4.5,1.3-2.9,11-4.9,9.3,2.9-.9-6.4-6.2-3.7-6.3-3.1-.1.5,2.7,2.6,3.2,4.7Z"/>
                    </g>
                    <path class="st13" d="M146.7,160.3c-1.1.3-2.1,1.3-3.6,1.6-12.4,2.7-22.7,3.5-34.1-2.9-.6-.4-1.3-.6-1.9-1,9.4-2,16.3-12.5,16.1-21.8,13.8-1.3,4.9,2.2,11.9,14.8,2.9,5.2,6.5,7,11.7,9.3Z"/>
                    <g>
                      <path class="st44" d="M107.1,158c.6.3,1.3.6,1.9,1,1.5,2.3,4.8,4.3,7.1,6.5.1.1.6,1.7,1.6,2.8.5.4,1.1.8,1.6,1.1-2.5,1.2-6.4-3.6-8.8-4.9-2.2-3.5-3.8-5-4.2-5.5,0,0,0-.5-.3-1,.3,0,.7,0,1,0Z"/>
                      <path class="st44" d="M148,159.9c-.3.4-.4,1-.6,1.3-2.1,2.4-4.4,4.7-6.5,7.1-1,.1-3.9.8-4.5,1,1.5-1.7,3-3.3,4.5-4.9.8-.8,1.8-1.6,2.3-2.6,1.4-.3,2.4-1.4,3.6-1.6l1.3-.3Z"/>
                      <path class="st34" d="M140.9,168.4c-2.5,2.8-4.4,8.4-12.7,9.4-6.2-.3-11.9-7.3-8.4-8.1,7.7,4.6,13.1.9,16.6-.3.6-.2,3.6-.8,4.5-1Z"/>
                      <path class="st15" d="M119.4,169.4c.4.3.3.3.3.3-3.5.9,2.3,7.8,8.4,8.1-10.3,1.2-13-6.2-17.5-13.3,2.4,1.2,6.2,6.1,8.8,4.9Z"/>
                      <path class="st15" d="M143.2,161.9c-.5,1-1.5,1.8-2.3,2.6-8,2.8-16.6,3.6-24.7,1-2.4-2.2-5.6-4.1-7.1-6.5,11.4,6.4,21.7,5.6,34.1,2.9Z"/>
                      <path class="st21" d="M140.9,164.5c-1.5,1.6-3.1,3.2-4.5,4.9-3.4,1.2-8.9,5-16.6.3,0,0,0,0-.3-.3-.5-.4-1.2-.7-1.6-1.1-1-1-1.5-2.7-1.6-2.8,8.1,2.7,16.7,1.9,24.7-1Z"/>
                    </g>
                  </g>
                  <g>
                    <g>
                      <path class="st21" d="M157.1,144c1.2-1.2.7-1,1-2.3,0-.3,0-.7,0-1,0,0,.8-.3,0-1.9,2,.4,4.5,2.9,4.5,4.2,0,4.7-12.8,5.4-18.3.6-2.8-2.4-.5-1.5.5-2.3,2.1-1.6,3.6-5.7,9.9-4.5,3.4.6-2.4,0-3.7,2.4-2.6,4.7,2.8,8.3,6.2,4.7Z"/>
                      <path class="st18" d="M158.1,138.8c.8,1.7,0,1.9,0,1.9l-1,1c-4.3.9-3.2-3.8,1-2.9Z"/>
                      <path class="st26" d="M158.1,141.8c-.3,1.3.2,1-1,2.3-2-1.1,0-1,.3-2.3h.6Z"/>
                      <path class="st20" d="M158.1,141.8h-.6c-.1,0-.2,0-.3,0l1-1c0,.3,0,.7,0,1Z"/>
                    </g>
                    <g>
                      <path class="st42" d="M100.6,123.1c-4.4,5.6-5.3,20.2-5.2,19.5.3.5-3,13.5-3.2,13-2.6-4.5-6.5-14.3-1.3-24.7s6.1-7.6,9.7-7.8Z"/>
                      <path class="st13" d="M168.2,146.3c3.1-7.1-5.4-3.2-5.5-3.2,0,4.7-12.8,5.4-18.3.6-2.8-2.4-.5-1.5.5-2.3-.4-3,2.1-5.3,4.5-6.6s3.9-.6,5.8-.6,4.5,1.9,6.2,3.7c.5.7,9.1-12.3,9.3-12.3.2,0,1.2-2.6,1.1-3.1-.1-1.2-3.7-4.2-4.5-5.5-1.9-3.1-2.5-7.2-4.2-10.4-4.5-8-9.8-5.8-14.9-11.7-.3-.3-1.5-5.4-6-3.7-1.1.4-6.9,10.3-21.8,1.9-4.4,6.3-7.9,3.9-11.5,5.5-5.6,7-14,28.9-13.9,28.7-.7,2.6-2,5.8-2,8.8-.3,2.4-.4,8.5-.6,9.1-2.6,5.8-.6,12.3,0,13.6,0,.2,9.5-.2,14-.8.3,0,.7,0,1,0,9.4-2,16.3-12.5,16.1-21.8,13.8-1.3,4.9,2.2,11.9,14.8,2.9,5.2,6.5,7,11.7,9.3l1.3-.3c4.4.9,9.6,0,13.6-1.9,1.5-.7,5.4-3.7,6.5-4.9,1.1-1.2,4.5-6.5,5.2-8.1-4.1,3.7-.8-5.6-5.2,1.3ZM117.8,139.2c-1.2-.3-.4,2-.6,2.4-.6.8-2.2-1-2.6.8,0,.4,0,1.1,0,1.3,3.2.7-2.6,7.8-3.7,7.8-.9,0-1.7-3.3-4.5-2.9-1.3.2-6.8-1.1-10-5.9.3-1.8.6-5,.7-5.2,0-.2-.1-1,.3-1.8,2.8-4.9,13.5-5.9,18.5-5.7,1.4,2.6,2,6.1,1.9,9.1ZM149.1,117.1c-.8,0-1.6,0-2.3.1.7,0,1.5-.1,2.3-.1ZM142.7,118.2c-.3.2-.6.3-.9.5.2-.2.5-.4.9-.5Z"/>
                      <path class="st21" d="M108.1,137.2c-10.8,2.6.7,12.8,3.2,4.9.4-1.3.4-2.3.3-3.6.3,0,2.2,1.9,2.6,2.9,0,.2.3.9.3,1,0,.2,0,.4,0,.6s0,.5,0,.7c-1.1,3.9-12.1,3.4-16.6,1.9s-1.8-2.2-1.6-3.6c.6-4.4,10.5-6.8,11.7-4.9Z"/>
                      <path class="st27" d="M115.9,130.1c-5-.2-15.7.8-18.5,5.7-.4.8-.2,1.6-.3,1.8,4.4-6.4,18-4.8,17.2,3.9,0,.2.6,1.1,0,2.9-2.1,3.1-12.5,2.3-16.3,1.3-.2,0-1.7-.7-1,.3,2.2,3.1,7.6,4.6,9.4,5.1,2.6.6,3.5.7,4.4.5,5.3-1.8,6.6-9.5,7-12.3.3-2.3-.6-6.5-1.9-9.1Z"/>
                      <path class="st14" d="M111.3,142.1c-1.4,1.7-3.2.9-2.3-1.3,1.3-.3,1.9-2.3,2.6-2.3,0,1.3,0,2.3-.3,3.6Z"/>
                    </g>
                  </g>
                </g>
              </g>
              <path class="st39" d="M94.7,146.5"/>
              <path class="st2" d="M92.8,152.3c3.2,3.4,8.9,6.3,13.4,5.7.4.5.3.9.3,1-3.5.9-7.2.9-10.7.2,2.4,10.6,22.5,27.1,32.6,27.4,8,.2,35.6-13.1,39.8-24,1.4,1.9-2.7,4.8-1.6,5.8-4,5.8-10.8,10-16.9,13.3-7,3.8-16.9,8.6-25,7.1-5-.9-18.2-9.1-22.2-12.7-6.4-5.7-11.6-15.3-11.6-24.5,0,0,1.9.7,1.9.6Z"/>
              <path class="st2" d="M100.6,120.3c-1.1.6-4.9,6.5-5.9,7.3.7-6.1,7.1-27.3,14-29.1,8.7-2.3-2.9,2.9-6.8,15.8-.6,1.9-.6,4.1-1.3,6Z"/>
              <g>
                <path class="st27" d="M125.9,158.3c-2.7-.1-5-1.9-6.8-3.6-1.2-6.7,2.2-.6,3.7.3,4,2.4,11.7-.2,3.1,3.2Z"/>
                <path class="st30" d="M119.1,154.8c1.8,1.7,4.1,3.5,6.8,3.6,2.4.1,9.4-3.7,5.7-.6-7,5.7-17.5-4.5-13.6-4.5.3,0,.3.8,1.1,1.6Z"/>
              </g>
              <path class="st27" d="M148,125.5c1.9-.2.5.4-2,1.5-3.9,1.7-6.5,4.5-4.5,13.3,0,.3-.2.2-.5.5l-6-1.9c-.2-10.3,3.9-12.5,13-13.3Z"/>
              <path class="st2" d="M183.1,154.9l.6,1.3c.6,1.3-1.9,1.9-1.9,1.9-.8.2-1.3.6-1.9,0l.6-3.2c.6-1.3,2.4-.3,2.6,0Z"/>
              <path class="st27" d="M172,122.5c-.1-2.5-2.7-2.5-4.5-5.2-1.6-2.3-2.5-7.5-2.6-7.8-1.9-6.5-7.8-9.1-7.8-9.1,0,0,9.1,11,5.8,26-.4,0-2.7-1.4-3.2-1.5-3.6.4-.7,1.1,1,4.1,2.2,3.9,3.4,8.7,2.3,13.2,0,.2,0,1.2,0,1.2,0,0-.6,1.4-1.3,1.9-3.2,2.6-9.7,1.9-11.7,1.3-1.3-.4-3.2-1.3-3.2-1.3,0,0,1.9,5.8,13,5.8s9.3-8.4,9.7-10.4c.6-2.9,0-6.5-1.9-10.4,0-.2,4.6-6.5,4.5-7.8Z"/>
              <g>
                <path d="M94.1,128.6c0,.2.3,0,.7-.3,3.9-2.6,5.8-3.9,7.1-4.5,2.6-1.3,4.3-1.4,4.5-1.4,2.4-.8,11.4,2.3,8.3-2.4-2.9-4.4-11.1-1-14.6.8-1.1.6-6,5-6,7.8Z"/>
                <path d="M159.2,125.3c.4.4.5-1.5.2-2.6-2.6-7.1-17.8-5.8-18.7-2.8-1.3,4.6,6.8.8,14,2.6,1.8.6,2.4.6,4.5,2.8Z"/>
              </g>
              <g>
                <path class="st14" d="M183.7,160.1c0-1.3,0-3.2-.6-3.9s-1.2-1.3-1.9-.6-1.2,3-1.3,4.5.2,2.2.7,2.6c1.3,1,2.1.8,2.6.1,1.3-2.1.6-1.8.6-2.7Z"/>
                <path class="st26" d="M184.1,159.6c-.1-1.8-.3-3.1-1-3.4-1.9-.6-.6,1.9-2.6,3.2s-.4,2.2,0,2.6c2.2,2.7,3.7-.7,3.6-2.5Z"/>
              </g>
              <path class="st2" d="M163.2,136.1c0,.2-.2.4-.3.2-2.6-4.8-11.1-5.9-14.5-4.4s4.9-5.3,11.2-2.4c3.2,1.5,3.4,5.2,3.6,6.5Z"/>
              <path class="st11" d="M167.3,138.5c-2.8.8-4.7.5-5.7-.5-.3-.3-.5-.5-.7-.7-4.5-6.5-16.8-3.2-16.1,4.1,2.1-1.6,3.6-5.7,9.9-4.5,3.4.6-2.4,0-3.7,2.4-2.6,4.7,2.8,8.3,6.2,4.7-2-1.1,0-1,.3-2.3-.1,0-.2,0-.3,0-4.3.9-3.2-3.8,1-2.9,2,.4,4.5,2.9,4.5,4.2.3.8-.4,1.6-.4,1.5.6-.6,1.3-1.9.7-2.4,1.5,0,4.4-3.6,4.4-3.6Z"/>
              <path class="st2" d="M96.7,136.8s2.8-3.6,5.2-4.5c3.6-1.4,12.3-2.6,14.3-1.9s-7.6-3-13.8-.7c-.8.3-2.3,1.1-3.1,2-2.6,2.6-2.6,5.2-2.6,5.2Z"/>
              <path class="st11" d="M97.5,137h0c-2.1,1.8-4.8.3-4.8.3,0,0,.9,2.3,3,2.8,0,0,.2,0,.3,0,0,1.2,0,1.5.4,2,.6-4.4,10.5-6.8,11.7-4.9,0,0,.1.1.2.2.1.2.1.3,0,.3.1,0,.1-.2,0-.3,0,0-.1-.1-.2-.2-10.8,2.6.7,12.8,3.2,4.9-1.4,1.7-3.2.9-2.3-1.3-.6-.2-1-.3-1.3-.4.4.1.8.3,1.3.4,1.3-.3,1.9-2.3,2.6-2.3.3,0,2.2,1.9,2.6,2.9.8-8.4-12-10.2-16.8-4.4Z"/>
              <g>
                <path class="st25" d="M118.8,138.1c0,10.2-9.9,17.5-18.2,17.5s-12.3-6.7-12.3-16.9,6-14.3,14.3-14.3,16.2,3.4,16.2,13.6Z"/>
                <path class="st25" d="M170.1,138.8c0,14.8-11.6,19.4-21.3,19.4s-14.4-7.4-14.4-18.6,7.1-15.8,16.7-15.8,19,3.8,19,15.1Z"/>
                <g>
                  <path d="M173.3,144.6c3.7-6.2-2.5-12.2-3.2-14.3-1.9-5.2-4.4-6.5-6.5-7.1s-3.9-.6-8.4-.6-18.8-1.9-22.4,8.9c-4.7-2-8.2-1.7-13-.6-1-1.8-3.6-7.6-13.3-8.3-1.3,0-6-.5-10.4.6s-5.1,1.9-6.5,3.2c-1.4,1.4-3,6.4-3.2,11.7-.2,4.6,1.3,11,1.9,12.3s1.9,3.9,3.7,4.8c8.6,4.9,9.7,3.2,13.8,3,9.7-.6,17.1-12,16.9-21.3,13.8-1.3,4.9,2.2,11.9,14.8,1.7,3,6.3,7.2,10.9,8.5s9.6,1.2,14.9-1.3c8.4-3.9,11-11,13-14.3ZM117.3,139.8c-.2,4.9-2.2,8.8-5.3,11.3-4,3.2-9.9,4.2-16.1,2.4-3.7-1.1-5.1-4.1-5.7-5.7-2.6-6.5,0-15.6.6-17.5,1.2-3.7,6.8-5,10.4-5.2,5.6-.3,11.3.2,14.1,5.7,1.4,2.6,2,6.1,1.9,9.1ZM138.7,151.7c-2.3-3.1-3.5-9.1-3.6-12.8-.2-10.3,3.4-12.4,13-13.3,3.6-.3,7.4-.6,11,0,.5,0,1.6.2,1.9.3,1.4.4,2.8.9,3.8,1.8s2.8,3.9,3.9,11c.3,2.2,0,5.2-1.1,8.2,0,0,0,0,0,0-5.8,13.2-23.5,12-28.9,4.7Z"/>
                  <path class="st38" d="M182.8,129.4c-.4-.4-8.9-4.1-10.4-4.5-1.7-.5-5.3,0-5.6.2,3.1,2.9,1.9,9.7,4.5,12.3s2.4-.8,3.7-1.5l.2.2h1.3v-.5c5.9-.5,7.7-1.9,9.7-.8-.3-1-2.9-4.7-3.5-5.4Z"/>
                  <g>
                    <path class="st4" d="M87.1,132q-3.2,1.5-6.5,2.9c-.3-.7-1.7-6.3-.8-6.8,14.8-2.2,11.5-6.7,7.3,3.9Z"/>
                    <path d="M87.1,132q-.4,3.2-.8,6.5c-2.1-1.4-4.5-1.1-5.7-3.6q3.2-1.5,6.5-2.9Z"/>
                  </g>
                  <path d="M183.7,136.1c-.5-.4,2.9-.7,2.6-1.9-1.9-1.1-3.9.5-8.8,1.3-6.2.5-8.1-1.3-8.1-1.3l.6,1.9c0,.4.3,1.6.7,2.8l-1.4.5,1.3,4.5c3.5-3.5,5.5-2.3,9.7-5.8,1.5-1.2,2.9-1.9,3.2-1.9Z"/>
                </g>
              </g>
              <path class="st27" d="M152.6,191l3.5,6.9c2.1,4.1,5.8,7.2,10.2,8.4l8.1,2.3-11.7,23.8-43.5,14.9-20.7-8,6.5-32s12.4-1.4,15.6-3.8,3.3-7.4,3.3-7.4c0,0,.9,4.2,4.1,7.3s5.1,3,5.1,3l19.6-15.4Z"/>
              <path class="st11" d="M97.5,136.9h0c-2.1,1.8-4.8.3-4.8.3,0,0,.9,2.3,3,2.8,0,0,.2,0,.3,0,0,1.2,0,1.5.4,2,.6-4.4,10.5-6.8,11.7-4.9,0,0,.1.1.2.2.1.2.1.3,0,.3.1,0,.1-.2,0-.3,0,0-.1-.1-.2-.2-10.8,2.6.7,12.8,3.2,4.9-1.4,1.7-3.2.9-2.3-1.3-.6-.2-1-.3-1.3-.4.4.1.8.3,1.3.4,1.3-.3,1.9-2.3,2.6-2.3.3,0,2.2,1.9,2.6,2.9.8-8.4-12-10.2-16.8-4.4Z"/>
              <g>
                <path class="st25" d="M118.8,137.9c0,10.2-9.9,17.5-18.2,17.5s-12.3-6.7-12.3-16.9,6-14.3,14.3-14.3,16.2,3.4,16.2,13.6Z"/>
                <path class="st25" d="M170.1,138.7c0,14.8-11.6,19.4-21.3,19.4s-14.4-7.4-14.4-18.6,7.1-15.8,16.7-15.8,19,3.8,19,15.1Z"/>
                <g>
                  <path d="M173.4,144.4c3.7-6.2-2.5-12.2-3.2-14.3-1.9-5.2-4.4-6.5-6.5-7.1s-3.9-.6-8.4-.6-18.8-1.9-22.4,8.9c-4.7-2-8.2-1.7-13-.6-1-1.8-3.6-7.6-13.3-8.3-1.3,0-6-.5-10.4.6s-5.1,1.9-6.5,3.2c-1.4,1.4-3,6.4-3.2,11.7-.2,4.6,1.3,11,1.9,12.3s1.9,3.9,3.7,4.8c8.6,4.9,9.7,3.2,13.8,3,9.7-.6,17.1-12,16.9-21.3,13.8-1.3,4.9,2.2,11.9,14.8,1.7,3,6.3,7.2,10.9,8.5,3.2.9,9.6,1.2,14.9-1.3,8.4-3.9,11-11,13-14.3ZM117.3,139.7c-.2,4.9-2.2,8.8-5.3,11.3-4,3.2-9.9,4.2-16.1,2.4-3.7-1.1-5.1-4.1-5.7-5.7-2.6-6.5,0-15.6.6-17.5,1.2-3.7,6.8-5,10.4-5.2,5.6-.3,11.3.2,14.1,5.7,1.4,2.6,2,6.1,1.9,9.1ZM138.8,151.5c-2.3-3.1-3.5-9.1-3.6-12.8-.2-10.3,3.4-12.4,13-13.3,3.6-.3,7.4-.6,11,0,.5,0,1.6.2,1.9.3,1.4.4,2.8.9,3.8,1.8s2.8,3.9,3.9,11c.3,2.2,0,5.2-1.1,8.2,0,0,0,0,0,0-5.8,13.2-23.5,12-28.9,4.7Z"/>
                  <path class="st38" d="M182.8,129.3c-.4-.4-8.9-4.1-10.4-4.5-1.7-.5-5.3,0-5.6.2,3.1,2.9,1.9,9.7,4.5,12.3s2.4-.8,3.7-1.5l.2.2h1.3v-.5c5.9-.5,7.7-1.9,9.7-.8-.3-1-2.9-4.7-3.5-5.4Z"/>
                  <g>
                    <path class="st4" d="M87.2,131.9q-3.2,1.5-6.5,2.9c-.3-.7-1.7-6.3-.8-6.8,14.8-2.2,11.5-6.7,7.3,3.9Z"/>
                    <path d="M87.2,131.9q-.4,3.2-.8,6.5c-2.1-1.4-4.5-1.1-5.7-3.6q3.2-1.5,6.5-2.9Z"/>
                  </g>
                  <path d="M183.8,136c.5,0,1,0,1.3.2s.4,0,.4,0c0,0,.6-.5.7-.7.3-.4.3-.9.1-1.5-1.9-1.1-3.9.5-8.8,1.3-6.2.5-8.1-1.3-8.1-1.3l.6,1.9c0,.4.3,1.6.7,2.8l-1.4.5,1.3,4.5c3.5-3.5,5.5-2.3,9.7-5.8,1.5-1.2,2.9-1.9,3.2-1.9Z"/>
                </g>
              </g>
            </g>
            <g>
              <path class="st19" d="M110.8,247.1"/>
              <path d="M68.2,183.2s-.5,0-.6-.3c.3-.4.6.3.6.3Z"/>
            </g>
          </g>
          <g>
            <g>
              <path class="st5" d="M234,282.1"/>
              <path class="st23" d="M205,200.7"/>
              <g>
                <g>
                  <path class="st24" d="M136.7,347.6s-8.9-16.2-6.2-31c.5-2.5,1.2-5,1.7-7.6.6-2.9,4.3-8.4,4.8-11.4.5-2.8-2.2-5.4-4.3-5.5.1-.2-10.4,5.9-13.1,12.4-1.3,3.2-5.2,19.1-5.5,23.7-.4,5.2-1.1,8.3-.7,11.2.6,4.3,3.1,10.7,6.9,11.1,12.5,1.4,16.5-2.9,16.5-2.9Z"/>
                  <g>
                    <path class="st28" d="M201.2,305.5c0-1.1-2.7-4.3-5.4-6.6-4.2-3.5-10.2-4.8-10.4-4.4-.5,1,11.6,16.5,11.5,18.8.9,4.8-.7,10-3.4,13.9-.6.9-1.3,1.7-2,2.5-5.6-.5-11.4,4.1-21.1,1.1-1.4-.5-4.5-1.6-5.8-2.3-16.5-8-13.8-18.9-16.5-33.1,0,0-1.4-.5-1.5-.5.7,5.1-12.7,9.9-14.5,14-.5,2.5-1.2,5-1.7,7.6-1.2,6.6-2.7,12.9-2.4,18.3-1.1,7.4-3.8,18.5-9.6,14.9-1.7-1-3.4-3.6-4.1-7.2-2.1-10.7,1.9-25.8,2.4-27.5-4.3,15.2-5.5,30.8.3,34.9,2.8,2,6.9,3.9,13.2,1.2,8.6-3.8,19.7-5.7,30.4-7.7,12.8-2.3,18.8-5.2,29.6-8.8.3-.2,9-4.6,11.5-12.4,1.5-4.7,1.4-7.6-.5-16.8Z"/>
                    <path class="st40" d="M116.7,315.1c0,0,0-.1,0-.2,0,0,0,0,0,.2Z"/>
                  </g>
                </g>
                <path class="st16" d="M201.8,322.3c1.4-14.5-4.5-22.9-15.3-27.4-1.1-.5,9.9,1,14.8,10.6,0-1.2,10.5-89.8-9.8-91.9-2,1.2-2.4,2.5-6.3,6.3-4.8,4.7-8.2,13-10.2,19.8-.3.9-.6,1.7-.8,2.5-1.5,5.7,5.7,4,5.7,5.5s16.3,29.2,16.4,30.4c.2,6.4-21.8,10.8-21.3,9.8h0c-.6,1.3-1.2,2.6-1.6,3.8-2,6.1-5.8,8-5.8,8-3-.1-5,1.3-11.4-.7-1.3-.4-6.2-1.9-7.8-2.5.9,14.3-1.8,10.7,2.1,26.9,1.2,4.8,5.8,8.5,8,11.6,4.2,5.7,12.6,6.9,31.8-.5,3.9-1.5,11.1-8.4,11.5-12.4Z"/>
                <path class="st28" d="M181.5,298.8c-3-1-6-1.9-9.3-1.4-.2,0-.3-.2-.2-.3.5-.6,1.6-1.8,2.9-2.9,1.9-1.5,7.8-5.7,8.9-7.1.4-.5.4-.7.3-.7-.2,0-1.1.8-1.2.9s0,0,0,0c-4.6,3.2-6.9,3.6-8.5,4.2s-.3,0-.2-.2c.6-1.7,3.9-4.6,4-5.1.1-.5-3.7,2.7-4.3,3.3s-.3,0-.3-.1c-.8-6-1.6-7.2-.8,3.1,0,.4-1,2.5-1.9,3.7s-1.1,1.4-1.1,1.4c-.3.3-1.9,2.1-2.4,2.3.4.1,1.6-.7,2.1-.7s0,0,.1,0c4.2,3.4,12.3,12.5,13.5,17.4s.4.2.4,0c.3-3.4-2.6-12.5-8.2-16.3-.2-.1,0-.4.2-.3,2.4.6,5.5,1.9,8.3,3.6,5.5,3.5,8.5,8.4,11.1,14.2,0,.2.3.1.4,0,1.2-4.7-4.9-15.7-13.6-18.8Z"/>
                <path class="st28" d="M187.3,226.5c11.3,3.9,11.7-3.4,12.4-3.6,5,5.5-7.6,8.9-12.4,3.6"/>
                <path class="st28" d="M188.2,223.3c1.1-3.1,6.1-1.6,8.4-3.9-.6,4.1-6,1-8.4,3.9"/>
                <path class="st16" d="M140.2,293.3c-1-.3-2.6,0-4.9-1.3-1.9-.6-2.9.2-2.7.2,6.8,2.2-4,17.5-3.5,32.6.4-3.1,5.1-4.3,7.4-3,1.5,1.3,4.2-3,5.5-.4,1.2,2.3,1.6-4.2,7.2,6,1,1.9,3.5,5.9,6.2,7.3-1.8-1.1-4.3-5.2-5.3-7-6.9-13.5-1.5-20.3-3.5-32.8-2.2-.9-4.2-1-6.4-1.7Z"/>
                <path class="st36" d="M126.4,302.9"/>
              </g>
              <path class="st40" d="M169.4,190.9"/>
              <path class="st40" d="M213.9,266.3"/>
              <g>
                <g>
                  <path class="st0" d="M66.6,319.4c0-.5-.1-1-.2-1.5,0,.5.1,1,.2,1.5Z"/>
                  <path class="st16" d="M87.4,220c1,1.3,13.3,8.9,13.7,8.2-.4-.3-.8-.7-1.2-1-4.6-5.1-7-10.6-8.8-17.1-.5.3-1.7.3-2.2.6h0c-6-1.1-11.2,1.9-12.6,8-.1.6-.9,10.3-1.1,12.4-3.9,12.2-2.8,25.4-5,37.9-.2.2-.4.4-.6.6-3.6,4-2.6,5.7-4.2,10.4-.7,2-1.8,4.5-2.4,6.3-1.1,3.7-3.4,11.1-3.3,14.4,0,2.5-.4,6.5,2.7,12.6,1,1.9,3.6,6,5,7.8,1.6,2.1,2.2,1.6,3.9,2.9,0,0,0,.1,0,.2,2.1,2.3,4,5.8,8,6.6,0,0,0,0-.1-.1,5,3.9,9,6.3,12.8,8,2.3,1,6.1,1.1,7.7,2.2,11.1,7.8,12.3-15.6,12.1-15.2-6.5,20.8-9,12.3-12.9,12.1-11.7-.5-10.1-36.7-3.7-53.2,0-.1.1-.2.2-.3.7-1.4,1.9-4.3,5.2,1.1,1.6,2.6,2.8,5.5,4.3,7.4,0,0-.7-5.9-4.1-11.3-.9-1.5-1.8-3.5-8.2-.5-.2,0,.2-4.2-.3-6.2-.3-2.1-1.8-4.6-1.5-6.8,2.3-20.6-3.5-42.1-3.5-42.1-.1-.9-2.2-6.8.9-7.5s-1.3,1.9-1.3,1.9Z"/>
                  <path class="st28" d="M69.9,296.1s-1.7,4.4-2.1,5.3c-1.4,3.8-3.8,8-1.2,18,.8,3.1,2.9,3.3,5.5,5.1-2.4-3.6-3.9-6.8-4.8-9.7s-.5-5.9-.4-7.1c.4-3.4,3-11.6,3-11.6Z"/>
                  <g>
                    <path class="st22" d="M69.1,286.1s0,0,0,0c0,0,0,0,0,0Z"/>
                    <path class="st28" d="M91,278.9s-.4-2.1-2.2-3.9c-2.6-2.1-4-5.8-6.3-7.8,6,10,3.6,6.4,7.2,10.5-1.7-1.5-6.5-4.6-7.8-6-.9.5,6.5,6.5,9,9.5-5.3-2.4-18.3-1.3-21.2,4.6.3-.5,3-4.2,12.8-4.6,3.6-.2,7.4.9,7.6.9.2,0,.5,0,.8-.1-4.1,4.2-4.1,9.3-4.1,9.3,1.2-7.1,6.6-10.8,6.6-10.8,0,0-1.2-.3-2.2-1.6Z"/>
                  </g>
                  <path class="st28" d="M99.2,337.4c-1.8-.7-3.1-1.6-4.7-4-1.2-1.8-2.9-6-2.9-6,0,0-.9,4.4-5,4.1-3.3-1.4-6.3-2.2-7.8-4.7-.8-1.4-1.1-3.5-1.1-5.5,0-.2-.3,0-.3,0,0,0,0,8,2.2,9.2.4.3.7.6,1.1.8.2.1.3.3.5.4,0,0,0,0,.1,0,.6.4,1.1.9,1.6,1.3,0,0,0,0,.1.1.3.3.7.5,1.1.8,0,0,0,0,0,0,3.9,3.2,3.8,2.4,8.2,4.3,2.3,1,6.6,1.7,8.3,2.7,13.8,7.6,13.7-16.2,11.9-24.7-2.3-10.7-10,22.4-13.2,21.1Z"/>
                  <path class="st24" d="M97,281.5c-9.1,12.9-11.7,50.5,2.3,55.9,3.8,1.5,9.6,8.6,13.2-11.7,1.4-8-.5-17.1-4.1-26.2-5.9-14.8-5.8-14.3-7.4-16.7-2-3-3.9-1.3-3.9-1.3Z"/>
                </g>
                <path class="st31" d="M77.9,221.2c0,.1,0,.2-.1.3,0-.1,0-.2.1-.3Z"/>
              </g>
              <path class="st36" d="M157.9,256.7"/>
              <path class="st28" d="M95.1,247.2c1.7-7.5-3.1-7.5-4.1-10.8-.4-1.2-2.4-3.5-2.2-8.5.3-7.3.8-16,.4-17.7-.6,0-.7,0-1.3.2,0,.2-1.5-.6-2.9.5-3.9,3-3.1,13.5,1.4,20.8s0,3.2,0,4.8c.1,2.7.3,5.5.8,8.1,1,6.4,3.2,14.9,3.5,21.5.2,4.1,2.9,12.8.2,15.4-.3.3,2.5-1,2.8-1.3,2.3-2.1,3.8-6,3.8-6,0,0-2.2-2.7-2.8-3.7s-3.9-6.6-2.5-14.4,2.5-7,2.9-9Z"/>
            </g>
            <g>
              <path class="st27" d="M134.9,295.8s-1-.1-1.4-.2c-.8-.5-1-2.6-1.3-3.5-1.3-4.1-1.3-14.1-4.1-23.3-.4-1.2-1.7-3.2-.9-4.4-1.2-1.7-1.7-2.1-2.9-1.1s-.9,3.3-.8,5.9-.2,2.6-.2,2.6c0,0-.2-.8,0-2.6.5-3.5-.6-8-2.6-5.9-.3.4-.8,2.7-1.9,3.1l-7.1,19.8-3.1,5.1c-1.4.6-10.5-.9-12.7-1.3-.6-.1-2-.6-2.7-.7-.3,1-.7,2.1-1,3.1-1.2,3.3-1.5,6.8-2.1,10.2,7.4.6,16.1.5,18.2-.8,3.6,5.4,11.4.6,11.4.6,0,0,4.6,8,10.4,2.8.6.3,2.9,1.6,2.9,1.6,0,0,1.6-5.3,1.9-7.2.4-2.6,0-3.8,0-3.8Z"/>
              <path class="st2" d="M133,306.8s-2.3-1.3-2.9-1.6c-5.8,4.7-11.4-1.7-10.7-7.7s1.5-4.6,2.1-8.1c.9-5.2,1.2-10.8,1.5-11.3,1-1.3,4.4,11.9,5,10.8s-1.1-9.1-1.3-9.7c-.4-2.1-.3-3.4-.8-4.9s-.1-1.2-.8-2.1-4.5-1-5.1.8c-1.1,3.6-14.2,31.3-.4,5.6,2.6-4.9-.3,17.9-1.3,21.2s-7.2,6.4-10.2,1.8c-2.1,1.3-10.9,1.4-18.2.8-.3,1.9-.5,3.8-.5,5.7.1,0,.3,0,.4,0,7.1.4,25.4,0,29.7-5.9,1.1,7.5,11.8,9.2,11.8,9.2l1.4-4.7Z"/>
            </g>
          </g>
          <path class="st28" d="M189.5,215.3c-.3-.3-.3-1.2-3.5-1.3-42,55.6-76.6,37.5-76.6,37.5-5.8-2.7-19.7-37.3-19.9-37.2.9,7,3.2,17.7,6.6,24.7,2.5,5.2,10.7,20.6,22.6,20.6,0,0,0,0,0,0,12.3,1.6,30.6-4.8,45.2-15.3,5.9-4.2,11.9-12.2,18.6-19.1,3.1-3.2,8.5-8.6,7-10Z"/>
          <g>
            <path class="st16" d="M121.4,235.8s0,0,0-.1c-5.8-2.8-13.1-9.7-14.2-12.9-2.1-6.3-2-8,.2-15.2s.2-.3.3-.4c-2.4-.7-4.5-2-7.8,0s0,0,0,0c0,15.7-.7,7.8-1.3.2s0,0,0,0c-3.8-.6-4.4.3-6.7,2.5s0,0,0,0c-2,2.4-2,6.7-2,6.7-.4,7.1,2.3,12.9,5.6,19.9,2.5,5.2,10.7,20.6,22.6,20.6s0,0,0,0c1.6-4.6.5-17.4,3.4-21.2Z"/>
            <path class="st28" d="M99.9,207.1c-.4,13.4.3,17.2,8.6,27.8-10.7-11.1-9.5-17.7-9.9-27.6,0,0,.3-.3,1.3-.2Z"/>
          </g>
          <g>
            <path class="st16" d="M185,211.1c-.1-2.7-4.8-3.2-7.4-2.2-8.2,8.5-8.1,8.7,0,0-1.5-3-3.1-3.1-8-1.7,0,.5-.5,1.4-.6,1.9-1.6,9.4-13,19.8-22.4,24.2-7.5,3.5-17.5,2.3-25.8,2.4-1.9,5-2.6,16.3-2.9,21.4,12.3,1.6,30.6-4.8,45.2-15.3,5.9-4.2,11.9-12.2,18.6-19.1s8.6-9.4,7.1-10.7c-.3-.3-1.3-2.2-3.8-.9Z"/>
            <path class="st28" d="M178.2,208.7c-7.2,9.4-13.2,18.7-27.6,28.7,13.5-9.3,19.8-19.3,26.7-29,.6.2.8.3.9.3Z"/>
            <path class="st28" d="M163.7,217.2c-9.8,12.8-25.6,16.5-42.3,16.3-11.7-5.6-16.3-17.7-14.6-26.3-5.2,14.6,5.9,25.5,13.4,29.1,0,0,0,0,0,0,0,0,0,0,0,0,0,0,.2,0,.3.1,0,0,0,0,0,0,10.3,3.6,18.6.4,26-3,9.4-4.4,21.5-14.9,23-25.7-1.3,3-3.8,7-5.8,9.6Z"/>
          </g>
          <path class="st28" d="M98.6,232.6c2.2,7.6,7.9,14.2,15.6,16.3,14.3,3.8,30.4-4.4,42.8-11.1-9.7,6.4-20.4,12.1-32.2,13.2-12.8,1.4-23.6-5.6-26.3-18.5h0Z"/>
          <path class="st28" d="M177.6,265.6l-.5,5.2"/>
        </g>
        <g>
          <path class="st32" d="M187.4,37c3.7,9.2-3.3-2.6-18.1-8-7.4-2.7-16.9-4.3-24.7-5.5-7-1-22.3-3.7-26.6,1.3-2.5.5-9.6,3.5-11.1,4.8l-2-1.7c.6-.9-1.3-1.5,4.4-5.1,18-6.8,64.6,0,78,14Z"/>
          <path class="st35" d="M144.6,23.6c-1.2,3.9-13.5-1.5-26.6,1.3,4.2-5,19.6-2.4,26.6-1.3Z"/>
          <g>
            <path class="st7" d="M187.4,37c3.7,9.2-3.3-2.6-18.1-8-7.4-2.7-16.9-4.3-24.7-5.5-1.2,3.9-13.5-1.5-26.6,1.3-2.5.5-9.6,3.5-11.1,4.8-.3.3-2.4,3.8-2.8,4.9-3.9-4.9.7-6.2.9-6.5.6-.9-1.3-1.5,4.4-5.1-8.9,3.4-12.6,9-4.3,16.2,6.8,5.9,27.3,11.6,36.4,13.3,5.3,1,11.7,1.7,17.1,2,16,.9,42.6-3,28.8-17.5ZM141.3,46.7c-29.5-5.9-40.4-23-2.1-19.1,6.2.6,38.6,6.5,39,13.9.5,10-30.7,6.4-36.8,5.2Z"/>
            <path class="st35" d="M105,28.1l2,1.7c-.3.3-2.4,3.8-2.8,4.9-3.9-4.9.7-6.2.9-6.5Z"/>
          </g>
        </g>
        <g class="st37">
          <image width="159" height="91" transform="translate(56 34)" xlink:href="TO_THEOLOGY-1.png"/>
        </g>
        <path class="st29" d="M121.6,262.1c-.8,1.9-.4,4.7-2.9,5.6.2-1.5,2.5-8.4,2.9-5.6Z"/>
        <path class="st29" d="M125.7,262.1c.7,2,0,4.7,2.3,5.8,0-1.5-1.7-8.6-2.3-5.8Z"/>
      </g>
    </g>
  </g>
</svg>