<?xml version="1.0" encoding="UTF-8"?>
<svg id="Layer_1" xmlns="http://www.w3.org/2000/svg" version="1.1" viewBox="0 0 310 491">
  <defs>
    <style>
      .st0 {
        fill: #29574f;
      }

      .st1 {
        fill: #72bfb3;
      }

      .st2 {
        fill: #c45f41;
      }

      .st3 {
        fill: #c05e58;
      }

      .st4 {
        fill: #03030a;
      }

      .st5 {
        fill: #8e3226;
      }

      .st6 {
        fill: #96cbc0;
      }

      .st7 {
        fill: #f7b750;
      }

      .st8 {
        fill: #a34737;
      }

      .st9 {
        fill: #a1a2a3;
      }

      .st10 {
        fill: #23110a;
      }

      .st11 {
        fill: #66bcb8;
      }

      .st12 {
        fill: #281a26;
      }

      .st13 {
        fill: #f0935d;
      }

      .st14 {
        fill: #bdeded;
      }

      .st15 {
        fill: #c12e4b;
      }

      .st16 {
        fill: #e5fdfe;
      }

      .st17 {
        fill: #958a8d;
      }

      .st18 {
        fill: #2e643c;
      }

      .st19 {
        fill: #fbfbfc;
      }

      .st20 {
        fill: #a9a1a0;
      }

      .st21 {
        fill: #fff;
      }

      .st22 {
        fill: #281f30;
      }

      .st23 {
        fill: #c9892d;
      }

      .st24 {
        fill: #e6794d;
      }

      .st25 {
        fill: #7aebe9;
      }

      .st26 {
        fill: #27151d;
      }

      .st27 {
        fill: #040106;
      }

      .st28 {
        opacity: .2;
      }

      .st29 {
        fill: #268c8c;
      }

      .st30 {
        fill: #511407;
      }

      .st31 {
        fill: #c392c2;
      }

      .st32 {
        fill: #bf5a41;
      }

      .st33 {
        fill: #661b6a;
      }

      .st34 {
        fill: #17ae9d;
      }

      .st35 {
        fill: #d53a5c;
      }

      .st36 {
        fill: #4d3340;
      }

      .st37 {
        fill: #95409b;
      }

      .st38 {
        fill: #29999b;
      }

      .st39 {
        fill: #120f12;
      }

      .st40 {
        display: none;
      }

      .st41 {
        fill: #320532;
      }

      .st42 {
        fill: #1d121b;
      }

      .st43 {
        fill: #382e41;
      }

      .st44 {
        fill: #4e0b1b;
      }

      .st45 {
        fill: #b175a7;
      }
    </style>
  </defs>
  <g>
    <g>
      <g>
        <path class="st13" d="M216.9,166.2l3.9,17.8s2,2.8,3.1,2.3c3.2-1.3,5.4-7,5.4-13.1s-3.1-10.8-3.1-10.8l-9.3,3.9Z"/>
        <g>
          <g id="Background" class="st40">
            <path class="st9" d="M170.5,445.1c-59.3,0-118.6,0-177.9,0V49.2h395.9v395.9c-48.6,0-97.2,0-145.8,0l1.5-9.3c3.6-1.3,7.9-3.1,11.2-5,2.7-1.5,5.5-2.9,6.6-6-.4-5.3-1.8-10.5-3.1-15.7,60.8-43.5,77.6-109,27.1-169,.3-.1,2.9,0,6.8-2.3,8.7-5.3,10.8-15.9,6.8-24.9,15.2-3.2,20.7-20.9,8.9-31.3,1-3.6,0-7.5-2.7-10.1,14-11.6,11-30.8-5-38.3,2.7-12.8-10.1-22.6-22-21.7,3.1-16.3-10.4-29.8-26.1-21.8-13.1-13.9-35.4-20.5-53-11.2-16.1-16.3-53.2-10.8-64.2,9.3-12.8-10.3-33.6,1.3-29.2,17.6q-4.5,4-9.1,7.9c-11.9,1.3-19.6,14.9-14.1,25.7-12.8,6.5-14.4,24.3-1.5,31.7-14.3,3.7-20.7,24.4-6.2,32.1-2.6,13.5,10.5,16.7,10.8,17.8-2.2,6.2-1.2,11.9,3.1,16.8-27.1,21.7-39.8,58.2-34.8,92.2,5.6,38.1,35.6,66.7,66.9,86-.5,3.4-1.4,6.8-1.2,10.2,1.9,2.3,3.8,3.6,6.2,5.2,11.4,7.6,29.5,10.2,42.9,11.6l1.2,2.3Z"/>
          </g>
          <g>
            <g>
              <path class="st39" d="M244,166.7c-2.4-1.4-1.3,3.7-8.5,4.3,0-5.9-1.1-8.1-5.4-12.2l.6-.6c1.7.6,11.9,4.9,12.4,5.4.7.8.7,1.9,1,3.1Z"/>
              <path class="st39" d="M244,166.7c.4,1.4.1,3.8.8,4.3-.9.2-6.9,6.2-9.7,5.8.4-1.7.4-4,.4-5.8,7.2-.5,6.1-5.6,8.5-4.3Z"/>
            </g>
            <g>
              <path class="st39" d="M126.1,114.5c-1.3,1.6-2.8,2.9-3.9,4.6.1-1.1.5-2.1.4-3.3-1.2-.4-7.8-5.6-8.1-6-.2-.3-1.6-6.5-1.5-7.2.1-3.1,2.3-6.4,4.6-8.3-4.8,10.6,7.4,15.2,8.1,17.2.4,1.2-.9,2.7.4,2.9Z"/>
              <path class="st39" d="M291.9,125.7c3.3,5.5,2.2,8.1,0,14.1,3.7.9,4.2.3,7.7,2.1l-.2.8c-.8-1.6-.5,1.3-4.6-1.2-1,4.4-5.7-1.9-3.7,4.1-5.2,2.4-1.8-13.1,1.5-13.9.2-.7-4.4-8.8-.8-6Z"/>
              <path class="st12" d="M99,200.4c-.2,0-1.2,1.4-4.1,2.3-.4-.1-3.6-8.1-3.7-8.5-1.3-6.5,2.1-8.6,2.7-9.7q5.4-3.6,10.8-7.2-.4-3.6-.8-7.2c0-2.2-6.5-5.6-10.8-8.5-1.7-3.6-.9-8,1.5-11.2,6.8-3.1,15.4-1.3,15.5-6.4,0-.4-1.7-4.7-1.9-7.9-.6-8.7,11.4-10.3,12.4-11.4.4-.4,1.4-4.6,1.5-5.6,1.1-1.7,2.6-3.1,3.9-4.6,1.8-2.2,2.9-.3,1.5-7.2,12.5-13.9,11.8-8.7,29.2-6.4,2.6-.6,2.6-11.8,8.1-12.8,7.7-1.3,9.7,8.4,6.6,10.8-3,2.3-2.6-2.1-5.4-6.2-3.1,18.3-14.3,12.2-28.2,10.4-6.9,4.7-3.6,8.2-4.4,10.6-.2.7-6.2,5.7-6.6,6.6-2.4,5.2,4.2,4.2-13.5,13.5-1.9,4.8,7.3,13.2-5.6,18.8-3.7,1.6-13.5,1.7-10.8,5,2.2,2.7,12.4,4.9,13,14.1,1.2,18.4-21.8,8.3-10.8,28.4Z"/>
              <path class="st12" d="M293.9,197.7c-.1-.1-.2-.3-.4-.4-.3-14.8-9.9-10.1-15.7-13.9-3.7-2.5-6.3-15.7,11.4-14.9,4.5,6.4-11.3,5.1-9.7,8.5.4.8,12.2,4.9,13.9,7,2.4,2.9,2.4,11.3.4,13.7Z"/>
              <path class="st42" d="M94,184.5c-.6,1.1-4,3.2-2.7,9.7-4.7-1.7-12.1-2.2-11.2-8.7,1.5-10.5,12.7-1,13.9-1Z"/>
              <path class="st42" d="M104,170.2q.4,3.6.8,7.2-5.4,3.6-10.8,7.2c.4-.7,1.8-1.7,1.9-2.1,1.6-4.4-3.5-7.6-3.1-12l11.2-.2Z"/>
              <g>
                <path class="st39" d="M129.2,166.7q-.5,3.9-1,7.7c-2.5-1.6-5.4-1.3-6.8-4.3l7.7-3.5Z"/>
                <path class="st34" d="M138.1,163.6c-1.1,2.9-2.2,4.4-2.3,7.7-2.7,1.6-.9-6.9,2.7-9.5q-.2.9-.4,1.7Z"/>
              </g>
              <g>
                <path class="st42" d="M302,185.5c1.2-13.5-6.1-13.6-6.6-14.3-2.4-3.4,4.5-3,8.1-7.3,5.5-6.5,3.9-17.9-3.9-21.8l-.2.8c-.8-1.6-.5,1.3-4.6-1.2-1,4.4-5.7-1.9-3.7,4.1-5.2,2.4-1.8-13.1,1.5-13.9.2-.7-4.4-8.8-.8-6-3.1-5.2-8.7-7.6-14.5-5-2.2-.4.8-4.7-7.9-9.5,6.8-12.5-9.2-22.7-17.2-11-14.3-16-34.2-23.1-54.1-12.4-13.6-15.4-39.2-13.5-53.2.2-1.4,1.3,0,3.2-10.2,7.5-1.6,0-8-8.7-17.2-1.2-4.8,10.6,7.4,15.2,8.1,17.2.4,1.2-.9,2.7.4,2.9,1.8-2.2,2.9-.3,1.5-7.2,12.5-13.9,11.8-8.7,29.2-6.4,2.6-.6,2.6-11.8,8.1-12.8,7.7-1.3,9.7,8.4,6.6,10.8-3,2.3-2.6-2.1-5.4-6.2-3.1,18.3-14.3,12.2-28.2,10.4-6.9,4.7-3.6,8.2-4.4,10.6-.2.7-6.2,5.7-6.6,6.6-2.4,5.2,4.2,4.2-13.5,13.5-1.9,4.8,7.3,13.2-5.6,18.8-3.7,1.6-13.5,1.7-10.8,5,2.2,2.7,12.4,4.9,13,14.1,1.2,18.4-21.8,8.3-10.8,28.4-.2,0-1.2,1.4-4.1,2.3-.4-.1-3.6-8.1-3.7-8.5-4.7-1.7-12.1-2.2-11.2-8.7,1.5-10.5,12.7-1,13.9-1,.4-.7,1.8-1.7,1.9-2.1,1.6-4.4-3.5-7.6-3.1-12l11.2-.2c0-2.2-6.5-5.6-10.8-8.5-1.7-3.6-.9-8,1.5-11.2,6.8-3.1,15.4-1.3,15.5-6.4,0-.4-1.7-4.7-1.9-7.9-.6,0-1.2,0-1.8,0,.6,0,1.2,0,1.8,0-.6-8.7,11.4-10.3,12.4-11.4.4-.4,1.4-4.6,1.5-5.6.1-1.1.5-2.1.4-3.3-1.2-.4-7.8-5.6-8.1-6-1,.2-1.9.7-2.7,1.2-.5.7-.9,1.4-1.2,2.1.3-.7.7-1.4,1.2-2.1-6.2,3.4-4.2,2.8-7.2,8.9-14.9-1.2-20.4,13.2-9.9,23.4-2.1.7-4.1.9-6.2,1.7-1.6.7-2.6,1.1-3.9,2.3-7.3,6.9-3.9,16.6,4.6,20.3.5,1.4-3.1,3.5,0,10.8-14.6-1.7-19.8,14.9-6.2,21.3-2.9,7.2,2.3,16.6,10.2,13.7,6.4,6.3-1.6,6.3-.2,15.3,1.1,7,10.9,11.4,16.8,7.2,8.3,3.5,4.3,4,7.2,7.9,3.7,5,12.7,4.5,16.8.2,1.1.3.5,10.9,15.5,8.9,3.6-6.4,4.8-1.9,10.4-4.6,4.2-2,4.1-7.6,8.3-3.9,2.2-3.1,3.5-7.1,6.6-9.7,0-.6.1-.7.4-1.2-6-1-20.8-12.2-25.6-16.4-8.1-7.1-12.8-13.5-12.7-24.4.1-.5-.3-6.5-1.2-8.3-.3-.7-.2-7.3,0-13.1-2.7,1.6-.9-6.9,2.7-9.5q-.2.9-.4,1.7c.1-.3,1.1-2.6,1.2-2.7,1.1-2,2-5.4,5-4.4q-.8-1.1-1.5-2.1c.8-7.3,6.1-24.9,13.5-28.2,4.4-1.9,8.5.9,13.7-6.6,17.7,10,24.6-1.8,25.9-2.3,5.3-2,6.8,4.1,7.2,4.4,6.1,7,12.5,4.4,17.8,13.9,2.1,3.8,2.8,8.7,5,12.4,1,1.5-.6,12.9.3,15.1,3.5,8,3.1,16.2.8,19.9,5.2-8.2,1.3,2.8,6.2-1.5.4-1,1.8-4.1,1.9-4.6.4-1.7.4-4,.4-5.8,0-5.9-1.1-8.1-5.4-12.2l.6-.6c1.7.6,11.9,4.9,12.4,5.4.7.8.7,1.9,1,3.1.4,1.4.1,3.8.8,4.3,9.1-2.2,13.2,14.7,2.5,23.6-8.3,6.9-12.8-1.9-18,6-.3.4-.7,3.6-4.3,8.7-4.8,6.9-12.9,11.9-20.1,15.9.9,2.2,1.3,4.7,1.9,7,.5,1.8,1.5,4,1.5,4.3,4.4.4,6.1,5.1,8.5,6.6.4.3,2.8.7,3.7.8,5.4,10.7,19.8,8.2,23.2-3.1,7.5,7.9,18.9,9.4,22-3.1,5.7,0,9.7.6,13.5-4.3,14.2,1.5,19.6-12.7,9.5-22.2q2.4-3.2,4.8-6.4c4.8,1.2,9.3,0,11.8-4.3,3.2-5.5,1.7-11.3-3.5-14.9ZM109.7,115.2c-.2.6-.4,1.3-.6,1.8.2-.6.3-1.2.6-1.8ZM96.9,122.3c.4-.2.9-.3,1.3-.4.4,0,.9,0,1.3,0-.5,0-.9,0-1.3,0-.4,0-.9.2-1.3.4-.3.1-.6.3-.9.5.3-.2.6-.4.9-.5ZM93.2,127.2c0-.4.2-.8.3-1.2-.1.4-.3.8-.3,1.2-.1.6-.2,1.3-.1,1.9,0-.6,0-1.3.1-1.9ZM293.9,197.7c-.1-.1-.2-.3-.4-.4-.3-14.8-9.9-10.1-15.7-13.9-3.7-2.5-6.3-15.7,11.4-14.9,4.5,6.4-11.3,5.1-9.7,8.5.4.8,12.2,4.9,13.9,7,2.4,2.9,2.4,11.3.4,13.7Z"/>
                <g>
                  <path class="st12" d="M208.2,89.4c9.7-.9,16.8,15.8,35.2,9.7,8.9,11.9,16.5,8.2,12.6,22.6,2,1,9.6,7.7,10.2,7.9,4.3,1.5,16.8-2.3,13,13.3,3.7,1.3,16.6,6.4,18.2,9.3,1.8,3.4.6,10.1-3.3,11.4-9,3.1-.7-7.4-1-8.7-9.7-8.9-23.1-.6-17.8-18.9l-10.2-1c-6.5-8.5-10.2-6.3-12.6-9.1-6.2-7.5,9.7-17.5-15.3-14.1q-1-3.3-1.9-6.6c-9.5.3-17.8-5.1-25.1-10.4-3.3-.2-13.3,6.3-11-.6.5-1.5,7.4-4.7,9.1-4.8Z"/>
                  <path class="st41" d="M244.6,103.7c2.4-.2-2,1.7-2.7,1.9-9.3,3.4-2.7-1.5,2.7-1.9Z"/>
                </g>
              </g>
            </g>
            <g>
              <g>
                <path class="st24" d="M227,202.3c-4.9,13-37.9,28.9-47.4,28.6-12-.4-36-20-38.9-32.7,4.2.9,8.6.9,12.8-.2.5.7,2.4,2.4,5,6.6,5.4,8.5,8.6,17.3,20.9,15.9,9.8-1.2,12.1-7.8,15.1-11.2,2.5-2.9,5.3-5.6,7.7-8.5,2.8.7,5.9,1.1,8.7.8,1.7-.2,9.1-3.1,8.3-4.6,1.8-.9,6.4-4.4,7.7-5.8,1.5,3.5,1.4,7.6,0,11.2Z"/>
                <path class="st3" d="M219.3,196.9c.8,1.5-6.7,4.4-8.3,4.6-2.8.4-5.9,0-8.7-.8.3-.4.5-1.1.8-1.5,5.2,1.1,11.4,0,16.2-2.3Z"/>
                <g>
                  <path class="st24" d="M225.1,209.3c-1.3-1.3,3.6-4.7,1.9-7,1.4-3.6,1.5-7.7,0-11.2,1.3-1.4,4.5-7.5,5.4-9.4.4-1,2.6-4.3,2.7-4.9,2.8.4,8.8-5.6,9.7-5.8,9.1-2.2,13.2,14.7,2.5,23.6-8.3,6.9-12.8-1.9-18,6-.3.4-.7,3.6-4.3,8.7Z"/>
                  <path class="st8" d="M246.3,185.7c1.5,5.4-3.7,6.1-5.6,5-1.9-1.1-2.8-8-1.7-10.4,3.3,1.4,6.7,8.3,7.3,5.4Z"/>
                  <path class="st30" d="M246.3,185.7c-.7,2.8-4.1-4.1-7.3-5.4,1.6-3.5,13.1-5.8,11,3.5-1.1-7.6-7.3-4.4-7.5-3.7-.2.6,3.2,3.1,3.9,5.6Z"/>
                </g>
                <path class="st13" d="M201.5,199.6c-1.4.3-2.5,1.6-4.3,1.9-14.7,3.2-27,4.1-40.6-3.5-.8-.4-1.6-.8-2.3-1.2,11.2-2.4,19.4-14.8,19.1-25.9,16.4-1.5,5.8,2.6,14.1,17.6,3.4,6.1,7.8,8.3,13.9,11Z"/>
                <g>
                  <path class="st44" d="M154.3,196.9c.8.4,1.6.7,2.3,1.2,1.8,2.8,5.7,5.2,8.5,7.7.1.1.8,2,1.9,3.3.5.5,1.3.9,1.9,1.4-3,1.5-7.6-4.3-10.4-5.8-2.7-4.2-4.5-5.9-5-6.6,0,0,0-.6-.4-1.2.4,0,.8,0,1.2,0Z"/>
                  <path class="st44" d="M203,199.2c-.3.5-.4,1.1-.8,1.5-2.5,2.9-5.2,5.6-7.7,8.5-1.2.2-4.7.9-5.4,1.2,1.7-2,3.6-3.9,5.4-5.8.9-1,2.1-1.9,2.7-3.1,1.7-.4,2.9-1.6,4.3-1.9l1.5-.4Z"/>
                  <path class="st35" d="M194.5,209.3c-3,3.4-5.3,10-15.1,11.2-7.3-.4-14.2-8.6-10.1-9.7,9.2,5.5,15.6,1.1,19.7-.4.7-.3,4.3-1,5.4-1.2Z"/>
                  <path class="st15" d="M169,210.4c.4.3.4.4.4.4-4.1,1,2.7,9.3,10.1,9.7-12.3,1.5-15.5-7.3-20.9-15.9,2.9,1.5,7.4,7.3,10.4,5.8Z"/>
                  <path class="st15" d="M197.2,201.5c-.6,1.2-1.8,2.1-2.7,3.1-9.5,3.4-19.7,4.3-29.4,1.2-2.8-2.6-6.7-4.9-8.5-7.7,13.6,7.6,25.9,6.7,40.6,3.5Z"/>
                  <path class="st19" d="M194.5,204.6c-1.8,1.9-3.7,3.8-5.4,5.8-4.1,1.5-10.6,5.9-19.7.4,0,0,0,0-.4-.4-.6-.4-1.4-.8-1.9-1.4-1.2-1.2-1.8-3.2-1.9-3.3,9.7,3.2,19.9,2.2,29.4-1.2Z"/>
                </g>
              </g>
              <g>
                <g>
                  <path class="st19" d="M213.8,180.3c1.4-1.5.8-1.2,1.2-2.7,0-.3,0-.8,0-1.2,0-.1,1-.3,0-2.3,2.3.5,5.4,3.5,5.4,5,0,5.6-15.2,6.5-21.8.8-3.3-2.8-.6-1.8.6-2.7,2.5-1.9,4.2-6.8,11.8-5.4,4.1.7-2.8,0-4.4,2.9-3.1,5.6,3.3,9.9,7.3,5.6Z"/>
                  <path class="st16" d="M215,174.1c1,2,0,2.2,0,2.3l-1.2,1.2c-5.1,1.1-3.9-4.5,1.2-3.5Z"/>
                  <path class="st25" d="M215,177.5c-.4,1.5.2,1.2-1.2,2.7-2.3-1.3,0-1.2.4-2.7h.8Z"/>
                  <path class="st18" d="M215,177.5h-.8c-.1,0-.3,0-.4,0l1.2-1.2c0,.4,0,.8,0,1.2Z"/>
                </g>
                <g>
                  <path class="st42" d="M146.5,155.4c-5.3,6.7-6.4,24.1-6.2,23.2.4.6-3.6,16-3.9,15.5-3.1-5.4-7.7-17-1.5-29.4,1.5-3,7.3-9,11.6-9.3Z"/>
                  <path class="st13" d="M227,183c3.7-8.5-6.4-3.9-6.6-3.9,0,5.6-15.2,6.5-21.8.8-3.3-2.8-.6-1.8.6-2.7-.5-3.5,2.5-6.3,5.4-7.9s4.6-.8,7-.8,5.4,2.3,7.4,4.4c.6.8,10.8-14.6,11-14.7.2,0,1.4-3.1,1.4-3.7-.1-1.4-4.5-5-5.4-6.6-2.3-3.6-2.9-8.6-5-12.4-5.3-9.6-11.7-7-17.8-13.9-.3-.4-1.8-6.4-7.2-4.4-1.3.5-8.2,12.3-25.9,2.3-5.2,7.5-9.4,4.6-13.7,6.6-6.6,8.4-16.7,34.4-16.6,34.2-.8,3.1-2.4,7-2.4,10.5-.4,2.9-.4,10.1-.8,10.8-3.1,7-.8,14.7,0,16.2.1.2,11.4-.2,16.7-1,.4,0,.8,0,1.2,0,11.2-2.4,19.4-14.8,19.1-25.9,16.4-1.5,5.8,2.6,14.1,17.6,3.4,6.1,7.8,8.3,13.9,11l1.5-.4c5.2,1.1,11.4,0,16.2-2.3,1.8-.9,6.4-4.4,7.7-5.8,1.3-1.4,5.3-7.8,6.2-9.7-4.8,4.4-.9-6.6-6.2,1.5ZM167.1,174.5c-1.5-.3-.4,2.4-.8,2.9-.7,1-2.6-1.2-3.1,1,0,.4,0,1.3,0,1.5,3.9.9-3.1,9.3-4.4,9.3-1.1,0-2.1-3.9-5.4-3.5-1.6.2-8.1-1.3-11.9-7,.4-2.1.8-5.9.9-6.2,0-.2-.1-1.2.4-2.1,3.3-5.8,16.1-7,22-6.8,1.6,3.1,2.4,7.3,2.3,10.8ZM204.3,148.1c-.9,0-1.9,0-2.7.1.9,0,1.8-.1,2.7-.1ZM196.6,149.5c-.4.2-.8.4-1,.6.3-.2.6-.4,1-.6Z"/>
                  <path class="st19" d="M155.5,172.1c-12.9,3.1.9,15.3,3.9,5.8.5-1.5.4-2.7.4-4.3.4,0,2.6,2.2,3.1,3.5,0,.2.4,1.1.4,1.2,0,.2,0,.5,0,.7s0,.7,0,.8c-1.3,4.6-14.3,4.1-19.7,2.3s-2.1-2.7-1.9-4.3c.7-5.3,12.5-8.1,13.9-5.8Z"/>
                  <path class="st24" d="M164.7,163.6c-6-.3-18.7,1-22,6.8-.5.9-.3,1.9-.4,2.1,5.3-7.6,21.5-5.7,20.5,4.6,0,.2.7,1.3,0,3.4-2.5,3.7-14.8,2.8-19.4,1.6-.3,0-2.1-.9-1.2.4,2.7,3.7,9,5.5,11.2,6,3.1.8,4.2.9,5.3.5,6.3-2.1,7.9-11.4,8.3-14.7.4-2.7-.7-7.7-2.3-10.8Z"/>
                  <path class="st14" d="M159.3,177.9c-1.7,2.1-3.8,1.1-2.7-1.5,1.6-.4,2.2-2.7,3.1-2.7,0,1.5,0,2.7-.4,4.3Z"/>
                </g>
              </g>
            </g>
          </g>
        </g>
        <path class="st39" d="M139.6,183.2"/>
        <path class="st2" d="M137.2,190.2c3.8,4,10.6,7.5,15.9,6.7.4.6.4,1.1.4,1.2-4.1,1.1-8.5,1.1-12.8.2,2.9,12.6,26.8,32.3,38.9,32.7,9.5.3,42.4-15.6,47.4-28.6,1.7,2.3-3.2,5.7-1.9,7-4.8,6.9-12.9,11.9-20.1,15.9-8.4,4.5-20.2,10.2-29.8,8.5-6-1-21.7-10.8-26.5-15.1-7.6-6.7-13.9-18.2-13.8-29.2,0,0,2.2.8,2.3.8Z"/>
        <path class="st2" d="M146.6,152c-1.3.7-5.8,7.8-7,8.7.8-7.3,8.5-32.5,16.7-34.6,10.3-2.7-3.4,3.4-8.1,18.8-.7,2.2-.7,4.9-1.5,7.2Z"/>
        <g>
          <path class="st24" d="M176.7,197.3c-3.2-.1-6-2.2-8.1-4.3-1.5-8,2.6-.7,4.4.4,4.8,2.8,13.9-.2,3.7,3.9Z"/>
          <path class="st30" d="M168.6,193c2.1,2,4.9,4.1,8.1,4.3,2.9.1,11.2-4.4,6.8-.8-8.3,6.8-20.8-5.3-16.2-5.4.4,0,.3.9,1.4,1.9Z"/>
        </g>
        <path class="st24" d="M203,158.2c2.3-.2.6.5-2.4,1.8-4.7,2-7.7,5.4-5.4,15.8,0,.4-.3.3-.6.6q-3.6-1.2-7.2-2.3c-.3-12.3,4.6-14.8,15.5-15.9Z"/>
        <path class="st2" d="M244.7,193.2l.8,1.5c.8,1.5-2.3,2.3-2.3,2.3-.9.3-1.5.8-2.3,0l.8-3.9c.8-1.5,2.8-.4,3.1,0Z"/>
        <path class="st24" d="M231.6,154.6c-.1-3-3.2-3-5.4-6.2-1.9-2.7-3-8.9-3.1-9.3-2.3-7.7-9.3-10.8-9.3-10.8,0,0,10.8,13.1,7,30.9-.4-.1-3.2-1.7-3.8-1.8-4.2.5-.8,1.3,1.2,4.8,2.6,4.7,4,10.3,2.7,15.7,0,.2,0,1.4,0,1.4,0,0-.8,1.7-1.5,2.3-3.9,3.1-11.5,2.2-13.9,1.5-1.5-.4-3.9-1.5-3.9-1.5,0,0,2.3,7,15.5,7s11.1-9.9,11.6-12.4c.7-3.5,0-7.7-2.3-12.4,0-.2,5.5-7.8,5.4-9.3Z"/>
        <g>
          <path d="M138.7,161.9c0,.2.4,0,.8-.3,4.6-3.1,7-4.6,8.5-5.4,3.1-1.5,5.1-1.6,5.4-1.7,2.9-.9,13.6,2.8,9.9-2.9-3.5-5.2-13.2-1.2-17.4,1-1.3.7-7.2,5.9-7.2,9.3Z"/>
          <path d="M216.3,157.9c.4.5.6-1.8.2-3.1-3.1-8.4-21.2-7-22.2-3.3-1.5,5.5,8,.9,16.6,3.1,2.1.7,2.9.7,5.4,3.3Z"/>
        </g>
        <g>
          <path class="st14" d="M245.5,199.4c0-1.5,0-3.9-.8-4.6s-1.4-1.6-2.3-.8-1.4,3.6-1.5,5.4c0,.6.3,2.6.8,3.1,1.5,1.2,2.5,1,3.1.2,1.5-2.4.8-2.1.8-3.2Z"/>
          <path class="st25" d="M245.9,198.8c-.2-2.2-.3-3.7-1.2-4-2.3-.8-.8,2.3-3.1,3.9s-.4,2.6,0,3.1c2.6,3.2,4.5-.8,4.3-2.9Z"/>
        </g>
        <path class="st2" d="M221.1,170.8c0,.2-.3.5-.4.3-3.1-5.7-13.3-7.1-17.2-5.2s5.8-6.3,13.4-2.8c3.8,1.8,4,6.1,4.2,7.7Z"/>
        <path class="st10" d="M226,173.7c-3.4,1-5.6.6-6.8-.6-.3-.3-.6-.6-.8-.8-5.3-7.7-20-3.8-19.2,4.8,2.5-1.9,4.2-6.8,11.8-5.4,4.1.7-2.8,0-4.4,2.9-3.1,5.6,3.3,9.9,7.3,5.6-2.3-1.3,0-1.2.4-2.7-.1,0-.3,0-.4,0-5.1,1.1-3.9-4.5,1.2-3.5,2.3.5,5.4,3.5,5.4,5,.3,1-.5,1.9-.4,1.8.8-.8,1.5-2.3.8-2.9,1.8,0,5.2-4.3,5.2-4.3Z"/>
        <path class="st2" d="M141.9,171.6s3.4-4.3,6.2-5.4c4.3-1.7,14.7-3.1,17-2.3s-9-3.5-16.4-.8c-1,.4-2.7,1.3-3.7,2.3-3.1,3.1-3.1,6.2-3.1,6.2Z"/>
        <path class="st10" d="M142.8,171.9h0c-2.5,2.1-5.7.3-5.7.3,0,0,1.1,2.8,3.6,3.3.1,0,.2,0,.4.1,0,1.4,0,1.7.4,2.3.7-5.3,12.5-8.1,13.9-5.8,0,0,.2.2.2.2.2.2.1.3,0,.4.1,0,.2-.2,0-.4,0,0-.1-.1-.2-.2-12.9,3.1.9,15.3,3.9,5.8-1.7,2.1-3.8,1.1-2.7-1.5-.7-.2-1.2-.4-1.6-.5.4.1.9.3,1.6.5,1.6-.4,2.2-2.7,3.1-2.7.4,0,2.6,2.2,3.1,3.5.9-10-14.3-12.1-20-5.3Z"/>
        <g>
          <g>
            <path class="st7" d="M209.8,442.8c-13.3,1.2-70.5-20.6-67.3-7.6.2.8,3.2,13.7,6.2,16.2,5.4,4.6,33.3,6.2,51.8,5.4,11.1,0,41.8-8.6,42.6-12.5.7-3.7.8-4.6,1.5-9.3-10.9,4-23.2,6.7-34.8,7.7Z"/>
            <path class="st23" d="M189.1,457l-1-8.2s2.1,8.2,3.1,8.2h-2.1Z"/>
          </g>
          <g>
            <path class="st37" d="M239.2,327.6s.4-5.1.5-5.3,0-4.6,0-4.6c7,1.5,9.3.8,9.3.8,0,0,11.6-13.4,12.7-16.4.6-1.6,3.9-12.4,2.8-17.2-1.7-6.7-4.1-13.1-8.6-18.4-8.6-10.1-30.1-8.4-37.1-13.1-1.6,3.4-21.9,20.6-26.7,17.5.6,5.4-15.9,1.2-15.9.7-.2-2.6-4.5-10.4-5.3-13.6-.7-3.1,2-6.2,0-6.2-4.2,0-14,3.3-19,3.6-5.8.4-8.7.7-14.1,3.9-7.9,4.6-16.1,17.8-14.1,21.8,2.7,5.4,9.6,13.9,15.1,18.5,1.5,1.2,3-.7,3.8-2.2-2.6,5.9-7.1,15.3-6.1,23.1,1.1,8.8,5.4,13.9,8.5,16.2,2.1,1.6,7,3.1,7,3.1,0,0,3.9,4-.8,11.6s-7.7,11-14.7,28.9c-3.8,14.8-6.8,29.7-8.9,44.9-.2,1.7,0,3.4-.8,5,11.4,7.6,29.5,10.2,42.9,11.6,13.3,1.4,26.9,2,40.2.8,11.6-1.1,23.9-3.7,34.8-7.7,3.6-1.3,7.9-3.1,11.2-5-1.7-12.1-4.4-23.9-7.7-35.6-2.5-8.8-5-17.4-9.3-25.5-5.8-4.5-4-24-3.1-33.3l3.4-8Z"/>
            <path class="st33" d="M236.2,330.7s0,.1,0,.2c0-.1,0-.2,0-.2Z"/>
            <path class="st33" d="M236.2,330.9c0,.2,0,.5,0,.9,0-.4,0-.6,0-.9Z"/>
          </g>
          <path class="st37" d="M133.2,327.7"/>
          <path class="st33" d="M238.8,367.4c-3.8-5.4-3.6-20.6-2.7-30.6,1.8-2.3,3.3-5.2,3.9-7.9.7-2.8.3-12.2-2.1-19.1-1.2.2,3.6,9.8-.6,18.5-1.6,2.3-3.8,5.3-7.3,7.7-1.7,1-3.7,2-6.1,2.8-4.6,1.3-10.6,1.3-18.7-1,.5.1,27.3,31,33.3,43.3,5.8,11.9,12.6,48.6,11.6,51.8.4,0,5.2-2.6,7.7-3.9s-2.1-37.6-18.9-61.6Z"/>
          <path class="st33" d="M156.4,341.1c3.9,0,7.7-2.3,7.7-2.3-4.6,2.3-12.4,1.3-12.4,1.3,0,0,.9,1.4.8,3.9,0,2.6-1.2,6.3-3.1,9.5-3.1,5.4-5.5,10-7.4,13.8-2.1,3.7-3.8,7.9-4.7,10.5-.7,1.8-1,2.7-1,2.7-3.8,14.8-7.2,34.9-9.3,50,5.1,3.1,5.4,3.1,5.4,3.1,0,0-2.5-17,1.6-32.8,5.8-22.4,15.2-31.9,17.8-36,11.6-18.6,4.7-23.7,4.7-23.7Z"/>
          <path class="st37" d="M133.3,327.6"/>
        </g>
        <path class="st33" d="M246.7,402.8c-3.4-11-5.1-13.7-8.5-24.7-3.8,6.5-8.3,9.1-15.1,10.4-3.8.7,9.9-24.6,3.5-28.2-17.5-9.7-60.4-6.7-71.1-7.7-2.8-.3,4.7,36.3,2,35.9-3.5,1.3-7.3,1.4-11,.8-2.9-.5-8.2-2.8-10.2-5-1.8,3.6-2,7.9-3,11.7-.4,1.3-.9,4.2-1,4.6,1.7,5.1,7,10.8,11.6,13.9,6,4.1,13.1,6.9,20.7,8.6,3.6.8,9.5-12.9,13.3-12.5,11.6,1.2,15.9,2.2,27.1,0s10.7,11.4,13.1,10.8c5.7-1.5,10.9-3.3,15.5-5.4,3.8-2,15-7.2,13.1-13.1Z"/>
      </g>
      <path class="st22" d="M231.7,178.8c-.1,1.1-.3,2.1-.4,3.2.1,0,.3-.2.4-.2,0-.1,0-.3,0-.4,0-.8,0-1.7,0-2.5Z"/>
      <g>
        <path class="st24" d="M209.2,241.2c-.2-1.6-.5-3.2-.8-4.8,0-.3-1-2.4-1.5-4.3-5.9,7.5-13.8,13.6-22.7,17.2-4.1-3.5-10-9.4-9.5-11.2-.8,2.3-3.1,18.6-3.9,20.9-3,9,7.8,13.1,13.1,13.1,13.9,0,23.6-7.1,23.2-9.3-.3-.6,1.5-1.7.6-2.7.6-.3,1.2-.6,1.7-1.2.7-.7,0-15.5-.4-17.8Z"/>
        <path class="st5" d="M206.9,232.1c-7,9-16.9,15.9-27.8,18.9-1.8-2.4-4.2-4.6-4.6-7.7-.4-2.2.1-6.1.4-8.5,0-.6.1-.7.4-1.2,9.6,1.7,21.4-4,29.8-8.5.9,2.2,1.3,4.7,1.9,7Z"/>
      </g>
      <path class="st38" d="M236.6,121.3"/>
      <path class="st42" d="M157.5,123.6c0,0,.2,0,.2,0,6.9-1.3,12.4-11.6,20.1-6,7.2,5.2,16.3-7,24.7-9.7,1.6-.5,16.2,1.4,17.8,1,0-1.5-3.9-7.7-10.1-9.3s-11.6,3.8-13.1,2.3-3.9-2.3-3.9-2.3c0,0-10.8-5.4-17.1,2.9-1,.8-5.1-2.7-8.4-3.1-6-.7-12.4,2.5-16.6,9.2-.8,1.2-4.2,8-1.1,13s-4.7.4-8.6,5.8c-2.9,4-4.6,10.8-3.9,10.8,1.2,0,18.7-14.6,19.9-14.6Z"/>
      <g>
        <path class="st31" d="M190.8,269.5c-9.1,0-18.7-4.2-19.1-12.9,0-2,.8-5.4.8-5.4l-7,1.5-6.2,1.5c2.4,14.9,17,27.1,31.5,27.1s27.3-12.2,29.6-27.1c0,0-3.5-2.3-4.6-3.1s-6.2-3.9-6.2-3.9c0,0,.2,5,0,7-.8,8.6-9.7,15.2-18.8,15.2Z"/>
        <path class="st45" d="M163.1,260.9c2.4.2,4.9-.3,7.1-1.2s.6-.6.7-.9,0-.8-.2-1.2-.5-.6-.9-.7-.8,0-1.2.2c-.2,0-.1,0,0,0,0,0-.1,0-.2,0-.1,0-.2,0-.3.1-.3,0-.5.2-.8.2-.5.1-1,.3-1.5.3,0,0-.1,0-.2,0-.2,0-.2,0,0,0,0,0-.3,0-.3,0-.3,0-.5,0-.8,0-.5,0-1.1,0-1.6,0-.8,0-1.5.7-1.5,1.5s.7,1.4,1.5,1.5h0Z"/>
        <path class="st45" d="M168.7,268.4c.8-.1,1.5-.4,2.2-.8s1.3-.9,1.7-1.5c.1-.1.2-.3.3-.5,0-.2.1-.4.1-.6,0-.4-.2-.8-.4-1.1s-.7-.5-1.1-.4-.8.1-1.1.4-.6.6-.9.9l.3-.2c-.3.3-.7.5-1.1.6l.4-.2c-.4.2-.8.3-1.3.3s-.7.4-.9.7-.3.8-.2,1.2.3.7.7.9l.4.2c.3,0,.5,0,.8,0h0Z"/>
        <path class="st45" d="M175.8,274.3c.7-1.3,1.4-2.5,2.2-3.7s.2-.8.2-1.2-.4-.7-.7-.9-.8-.3-1.2-.2-.7.4-.9.7c-.8,1.2-1.6,2.4-2.2,3.7s-.3.8-.2,1.2.4.7.7.9c.7.4,1.7.2,2.1-.5h0Z"/>
        <path class="st45" d="M185.8,277.8c0-.9,0-1.9.1-2.8s0-.5,0-.7v.2c0,0,0-.1,0-.2,0-.1,0-.2,0-.3,0-.5.2-.9.3-1.4.2-.8-.2-1.7-1-1.8s-1.7.2-1.8,1c-.4,2-.7,4-.6,6.1s.7,1.5,1.5,1.5,1.5-.7,1.5-1.5h0Z"/>
        <path class="st45" d="M196.9,278.4c.1-2,0-3.9-.2-5.9s-.1-.8-.4-1.1-.7-.5-1.1-.4-.8.1-1.1.4-.5.7-.4,1.1c.3,2,.3,3.9.2,5.9s.7,1.5,1.5,1.5,1.5-.7,1.5-1.5h0Z"/>
        <path class="st45" d="M206.9,273.4c-.3-.3-.5-.6-.7-.9l.2.3c-.8-1.1-1.5-2.2-2.1-3.4s-1.4-1-2.1-.5-.9,1.3-.5,2.1c.8,1.7,1.9,3.2,3.1,4.6s.7.4,1.1.4.8-.2,1.1-.4.5-.7.4-1.1-.2-.7-.4-1.1h0Z"/>
        <path class="st45" d="M212.1,266.6c-.4,0-.8-.2-1.1-.3l.4.2c-.5-.2-.9-.4-1.3-.7l.3.2c-.4-.3-.7-.6-1-1l.2.3c-.3-.4-.5-.8-.7-1.2l.2.4c0-.1-.1-.3-.1-.4-.1-.4-.3-.7-.7-.9s-.8-.3-1.2-.2c-.7.2-1.3,1-1,1.8.8,2.3,2.8,4.3,5.3,4.7s.8,0,1.2-.2.6-.5.7-.9,0-.8-.2-1.2-.5-.6-.9-.7h0Z"/>
        <path class="st45" d="M216.1,259.9c-.2,0-.5,0-.7,0h.4c-.5,0-1-.2-1.5-.4l.4.2c-.5-.2-.9-.5-1.3-.8l.3.2c-.4-.3-.7-.6-1-1s-.7-.4-1.1-.4-.8.2-1.1.4-.5.7-.4,1.1.2.7.4,1.1c1.3,1.7,3.5,2.7,5.6,2.7s1.5-.7,1.5-1.5-.7-1.5-1.5-1.5h0Z"/>
        <path class="st45" d="M217.8,254.8c-.3,0-.5-.2-.8-.3l.4.2c-.6-.3-1.2-.6-1.7-1l.3.2c-.5-.4-1-.8-1.4-1.4l.2.3c-.2-.3-.5-.6-.6-1-.4-.7-1.4-1-2.1-.5s-.9,1.3-.5,2.1c1.2,2.1,3.1,3.6,5.4,4.3s1.7-.3,1.8-1-.2-1.6-1-1.8h0Z"/>
      </g>
      <g>
        <path class="st37" d="M140.5,283.5s0,0,0,0c-4.4-6.9,5.3-23,14-28.6-16.7.8-27.1,7.3-28.6,8-17.9,8.7-13.6,41.5-25.9,43.5.1,1,7.8,6.5,8.3,6.7,5.3,2.9,12.1,4.1,17.7,6.1,8.1,2.8,10.1,3.9,10.1,3.9,0,0-1-4.7,0-3.9s0-.7.2-2.2c2.3-16,6.7-28.9,4.2-33.6Z"/>
        <path class="st2" d="M136.4,371.5c-.2-5.1,1-6.6,1.5-8.8-3.8,2.9-7.1,6.5-11.1,9.2-4.9,3.3-32.6,18.5-35.3,10.7.7,3.3,1.4,4.7,3.4,7.3,2,2.6,2.7,2.5,4.5,4.2,15.3.5,27.9-5,37.8-16.9,0-.3.3-1.7-.8-5.8Z"/>
        <path class="st24" d="M227.6,372.7c-3.5.2-7.4,0-11,0,1.6-1.9,8.3-2.4,12.3-3.5,3.5-.9,10.6-4.9,4.2,0-1.7,1.3-3.8,2.1-5.5,3.5Z"/>
        <path class="st32" d="M161.3,382.3c-2.9,3-5.8,6.7-10.2,6.9-2.9-.5-8.2-2.8-10.2-5-1.1-1.2-2.4-4.1-3-5.8,0-2.5,2.4,2.5,5.5,4.2,6.4,3.6,11.6,1.6,17.9-.4Z"/>
        <path class="st5" d="M266.2,343.9c-2.1-4.5-12-17-12.2-19.8-.3-4.5,13.5-8.8,16.3-12-.9-1.9-1-3.2-1.8-5.2-4.9,4.9-10.9,9.5-17.5,11.4-1,.3-3.7.3-4,.3-2.4,0-5.8-.6-5.8-.6,0,0-1.6,3.7-.7,5.9.7,1.6,16.2,23.5,18.7,27.9v.4c1.1.2,6.2.2,10.4.9,6.6,1.2,14.5,4.4,21.2,5.8-5.9-6.6-16.5-13.7-24.6-15Z"/>
        <path class="st5" d="M128.7,318.2c-1,0-2-.3-3-.4-5.9-.6-12.2-1.8-17.5-4.7-.5,1.3-1,3.5-1.4,4.7,4.7,2.3,17,18.9,16,25-.2,1.5-9.5,13.7-10,14.3-.4.6-8.5,8-8.2,9.1,1.5-.5,21.8-7.2,23.1-7.7.7-.6-1-2.2-.3-2.7,4.7-16.6,2.3-16.7,9.3-33.4-.4-1.3-.6-6.2.2-8.6.7-2.1-5.9,4.5-8.1,4.3Z"/>
        <path class="st5" d="M171.5,369.2c0,0,.7.7.8,1-.4,1.2-14.4,4-2.3,7.5,0,4.8-3.6,9.1-7.9,10.7-3.5,1.3-7.3,1.4-11,.8,4.4-.2,7.3-3.9,10.2-6.9,2.5-1-4.7-1.4-9.3-2.7-6.2-1.8-19.9-7.6-4.9-3.5,23.4.2,8.2.3-5.5-11.7,9.3,5.1,19.4,8.7,29.8,4.8Z"/>
        <path class="st24" d="M166,362.7c-.9.2,2.1,3.5-7.2,1.2-10-2.6-17.6-10.3-9.6-20,.8-.9,1.3-1.6,2.3-2.3,1-.8,2.6-2.1,3.8-2.7.7-.3,3.5-1.2,3.8-.8.8-1,1.4-2.1,2.3-3.1-.3-5.6-4.6-1.6-7.2,0-1.2.7-1.4.7-1.5.8-.6.5-2.2,1.6-2.6,1.9-3.1,2.7-7,7.8-8.1,11.9-4.6,1.6-10.6,6.1-14.5,6.1-.7.6-8.9,3.4-9.2,3.6-1.5.5-10.9,5.2-11.5,6.2-.3-1.7,10.8-11.3,16-12.1s1.3-10.9,1.3-10.9c0,0,5.2-21.3-17.2-24.7-4.8,13.4-9.5,35.9-13,46.8-2.4,7.3-4,10.2-2.3,18,2.7,7.8,30.4-7.4,35.3-10.7,4-2.7,7.3-6.3,11.1-9.2-.5,2.2-1.7,3.7-1.5,8.8,1.1,4,.7,5.5.8,5.8,0,0,.7,1.1.8,1.2,0-2.5,2.4,2.5,5.5,4.2,6.4,3.6,11.6,1.6,17.9-.4,2.5-1-4.7-1.4-9.3-2.7-6.2-1.8-19.9-7.6-4.9-3.5,23.4.2,8.2.3-5.5-11.7,9.3,5.1,19.4,8.7,29.8,4.8-.6-2.1-3-7-5.5-6.5Z"/>
        <g>
          <rect class="st11" x="164.7" y="332.6" width="3.9" height="8.5" rx=".8" ry=".8"/>
          <rect class="st25" x="167" y="332.6" width="1.5" height="8.5" rx=".7" ry=".7"/>
        </g>
        <path class="st26" d="M174.4,331.6c0-.3-3.6-1.2-8-1.2s-8,1-8,1.2-1,1.9-.5,2.5c0,0,0,0,0,0,0,0,0,0,.1.1,0,0,0,0,0,0,0,0,0,0,.1,0,0,0,0,0,.1,0,0,0,0,0,0,0,0,0,0,0,0,0,1.4.1,4.9-1.1,7.9-1.1s9.1,2,9.1.7,0,0,0,0c.2-.7-1-2.3-1-2.4Z"/>
        <g>
          <g>
            <rect class="st11" x="202.4" y="333.5" width="3.9" height="8.5" rx=".8" ry=".8" transform="translate(77.7 -36.1) rotate(12.5)"/>
            <rect class="st25" x="204.7" y="333.8" width="1.5" height="8.5" rx=".7" ry=".7" transform="translate(77.7 -36.4) rotate(12.5)"/>
          </g>
          <path class="st26" d="M213.1,334.3c0-.2-3.3-2-7.6-2.9-4.3-1-8-.8-8.1-.5s-1.4,1.6-1,2.4c0,0,0,0,0,0,0,0,0,0,0,.1,0,0,0,0,0,0,0,0,0,0,.1,0,0,0,0,0,.1,0,0,0,0,0,0,0,0,0,0,0,0,0,1.3.4,5,0,8,.7s8.4,3.9,8.7,2.6,0,0,0,0c.3-.7-.4-2.4-.4-2.5Z"/>
        </g>
        <g>
          <path class="st26" d="M223.9,343.9c-.8-.9-1.7-1.8-2.7-2.6s-2.3-1.8-3.3-2.3c-.7-.3-3.3-.8-3.8-.8s-10.6,4-26.8,4c-15.8,0-28.3-4.3-28.6-4.3-1.3-.1-3.4.5-4.1.9-3.4,2-4.8,4-5.6,5-8.2,9.7-.5,17.5,9.5,20.1,9.3,2.4,6.2-1,7.2-1.2,2.5-.5,4.4,3.2,5,5.2,0,0,0,3.2-4,4.8-.6.3-3,.7-3.2,1.6,0,.5,1.6,1.5,3.3,2.3s2.9.9,4.5.6c7-1,23.1-1,30.1,0s13,.5,13,.5c0,0,17.5-24.2,9.3-33.9Z"/>
          <path class="st36" d="M200.6,346.4c-1.1-.5-4.4,1.4-14,1.7-9.6-.2-16-2.2-17.1-1.7-.1,0-13.2,1.4-12.9,8.4q.2,1,.4,1.9c1.3,2,4.2,4,7.6,5.2,7.2,2.4,15.3-4.5,22-4.5,6.7,0,11.8,7,19,4.5,3.4-1.2,6.3-3.2,7.6-5.2q.2-1,.4-1.9c.3-7-12.8-8.4-12.9-8.4Z"/>
          <path class="st25" d="M184.7,365.6c0-.7,1.2-1.3,2.6-1.3s1.1.6,1.1,1.3.4,1.3-1.1,1.3-2.6-.6-2.6-1.3Z"/>
          <path class="st11" d="M189.2,368.7c0,.7,0,1.3-1.9,1.3s-3.5-.6-3.5-1.3,1.6-1.3,3.5-1.3,1.9.6,1.9,1.3Z"/>
        </g>
        <path class="st2" d="M197,378.7"/>
        <path class="st2" d="M198.5,374.7"/>
      </g>
      <path class="st33" d="M142.4,298.6c1.3-2.8,1.5-6.2,1.4-6.2,0,0,0-.1,0-.2-3.1,3.1-7.7,3.9-7.7,3.9,1.4,2.4,2.3,2.3,1.1,3.7-4.1,5.7-7.3,10.7-11.1,17.9,1.5,0,5.3,1.7,6.2,2.3,1.8,1.2,4,2.7,4.6,2.3-.6-8.3,1.3-14.2,4.6-21.7.3-.7.6-1.4.9-2.1Z"/>
      <path class="st37" d="M272.1,302.3c-1.7-2.6-5.1-22.7-14.1-33.1,0,.4-.2.8-.2,1.2-1.4,5.2-3.4,10-5.9,14.5.8,11.1-5.5,22.5-6.6,33.6,8.5.8,17.1-1.5,22.4-5.4.4-.3,7.4-7,9.3-7.8-1.4-1.4-3.6-1.2-4.8-3Z"/>
      <path class="st33" d="M241.2,313.5c-.8-7.1,7.2-12.8,7.4-19.8,0-.4,0-3.2-.1-3.2-.1,1-.3,1.9-.4,2.9-.7,4.8-11.4,11.5-10.7,16.3,1.5,10.1,3.1,10.6,1.6,20.5,1.5.1,2.6-13.7,2.3-16.6Z"/>
    </g>
    <g>
      <g>
        <path class="st29" d="M248.3,163.4c0-1.9.3-3.5-.3-4.8-.4-.8-7.8-9.7-9.6-10.9-.4.4-3.2.7-3.6,1.1,1.9,8.5,4.3,10.5,2.9,19.4-.4,2.7-1.1,6.1-2,8.6,3,1.1,11.3-6.7,12.3-6.8-.6-.8.3-4.3.3-6.5Z"/>
        <g>
          <path class="st38" d="M235.6,176.9h-1.1c-1.1-.1-1.9-1-1.9-2.1l.9-26.2c0-1.1,1-1.9,2.1-1.9h1.1c1.1.1,1.9,1,1.9,2.1l-.9,26.2c0,1.1-1,1.9-2.1,1.9Z"/>
          <path class="st38" d="M235.6,146.7c-58.2-11.2-90.6-.6-111.1,7.1-1.4,0-2.4,3.3-2.4,3.9-.4,11.3-2.1,36.4,25.7,42.5,18.3,3.9,22.3-4.9,26.8-8s1.5-1.2,2.6-1.1c2,.1,3.6,1.5,4.3,2.2,6.6,6.2,14.9,12.3,33.6,6.3,2.3-.7,17.8-8.1,21-30,.4,0,.2-16,2.1-18.3.7-.9.2-4-2.6-4.6Z"/>
          <g>
            <path class="st42" d="M229.1,150.7c-31.9-12.2-95.1,1.9-100.8,5.9s-3.2,1.9-3.8,4c-4.2,13.7,1.5,35,23.8,37.2s19.6-2.1,23.6-7c9.8-8.3,14.9,7.4,24.8,9,23.6,3.8,42.7-25,36.3-45.6-.6-1.8-2-2.7-3.8-3.4Z"/>
            <path class="st12" d="M231.3,176.4c3.3-7.7,3.4-16.7,1.5-22.3s-2-2.7-3.8-3.4c-26.4-10.1-77.6-10.1-100.8,5.9-2,1.4-3.2,1.9-3.8,4-2.7,9.3-2.8,24.9,11.9,33.6,11.7-8.5,31.8-16.7,53.9-19.1,15-1.6,29.5-1,41.1,1.4Z"/>
          </g>
        </g>
      </g>
      <g class="st28">
        <path class="st21" d="M142.9,164.1c4.9-3.6,10.7-6.1,16.6-7.7,1.8-.5,3.5-.9,5.3-1.2s1.2-2.8-.5-2.5c-6.5,1.1-12.9,3.4-18.6,6.6s-3.1,1.8-4.5,2.9-.6,1.3-.1,1.8,1.3.5,1.8.1h0Z"/>
      </g>
      <g class="st28">
        <path class="st21" d="M152.8,165.2c3.7-2.4,8-3.9,12.4-4.5s1.2-.9,1-1.5-.8-1.1-1.5-1c-4.6.6-9.2,2.2-13,4.7s-.9,1.1-.6,1.7,1.1,1,1.7.6h0Z"/>
      </g>
    </g>
    <g>
      <path class="st33" d="M84.4,69c-7.2,8.6-10.2,33.8-11.5,41.1.3,2.2,1.9,2.3,3.5,1.8,2.5-.9,4.2-3.1,4.6-5.7.9-6.4,7-18.9,12.6-27.7s6.8-5.8,11.3-5c5.1.9,11.7,1.7,14.9.9,2.8-.7,6-3.8,9-6.7,3.5-3.4,8.8-4.2,13.1-1.9,9.2,5,20.6,12.5,24.6,17.6,1.6,2.1,4.3,3.1,6.9,2.6s3-1.2,2.1-3.3c-5-5.8-20.4-25.2-30.7-29.9-14.2-6.4-50.3,4.3-60.2,16.2Z"/>
      <g>
        <path class="st37" d="M194.2,34.5c0,0-1.3.1-1.7.3.2,0-6.4,1.6-6.5,1.5-18.5,6.3-38.2,5.6-57.4,8.5-9.8,3-20,5.2-29.8,8.6-14.7,5-28.4,12.8-43.4,17-6.4,2.7-13,4.9-19.7,6.7-.6,0-.8.1-.8,0-.4.1-1.5.6-1.6.6-1,.6-1.3,1.7-1.1,2.7s3.5,6.6,5.3,8.2c5.9,5.3,25.4-12.4,35.6-16.6,0,0,33.4-7.1,42.8-9.6s41-12.8,41-12.8c11-1.4,36.7,4.2,39.1-3.4.8-2.3.8-8.6.4-9.8s-1.1-1.7-2.2-1.8Z"/>
        <path class="st31" d="M139.8,43.1c-30.5,1.4-57.2,14.1-84.3,27,21.7-5.4,41.2-17.9,63.6-21.7,21.3-2.9,67.5-9.7,20.8-5.3Z"/>
      </g>
      <g>
        <path class="st27" d="M126,56.9c1.2,0,2.1,1,2.4,2.1l4.5,16.7c.5,1.8-.6,3.7-2.4,4.2,0,0-6.5,2.5-8.8,3.1s-9.4,1.8-9.4,1.8c-1.8.5-3.7-.6-4.2-2.4l-4.5-17c-.3-1.1,0-2.5,1-3,4.9-2.5,16.6-5.7,21.5-5.5Z"/>
        <g>
          <path class="st42" d="M124.7,59.3c1-.1,2,.5,2.2,1.5l4.1,15.4c-.2.5-.5,1.1-.8,1.5-.5.4-4.5,2.5-8.7,3.7s-9.5,1.5-10.2,1.4c-.3,0-1.3-.5-1.5-.8-.5-.9-2.8-11-4.1-15.6s.3-2.1,1.2-2.4,4.7-2.4,8.5-3.4,9.2-1.2,9.2-1.2Z"/>
          <g>
            <path class="st27" d="M114.7,61.9c12.7-4.6,18.5,14.1,7.2,18.2-12.7,4.6-18.8-13.9-7.2-18.2Z"/>
            <path class="st29" d="M114.7,62.5c12-4.6,17.8,12.9,7.1,17.1-11.8,4.6-17.8-12.9-7.1-17.1Z"/>
            <path class="st27" d="M115,63.4c11.1-4.5,16.5,12.7,5.6,15.7-10,2.8-14.6-12.1-5.6-15.7Z"/>
            <g>
              <path class="st27" d="M111.5,72.2c.8-.4,1.1-1.5.2-2,0,0,0-.2.1-.2,3.2,1.5,3.4-5.3.6-2.8,4.3-6.5,14-2.7,13,5-.6,5.3-7.8,8-11.8,4.5-1-.9-3-4.2-2.2-4.5Z"/>
              <path class="st17" d="M111.8,70c-.8-.4-.8-.7.6-2.8,2.8-2.5,2.6,4.3-.6,2.8Z"/>
              <path class="st20" d="M111.7,70.2c.9.4.5,1.5-.2,2-.9-1.6-.4-1.7.2-2Z"/>
            </g>
          </g>
        </g>
      </g>
      <path class="st31" d="M48.2,86.4l-13.7,3.9c-1.1-2.3-5.1-12.8-2-14.4,1-.5,7.3-1.8,10.4-2.7s1.7.1,2.1.9c1.5,3,3,10.7,3.2,12.4Z"/>
      <g>
        <path class="st43" d="M36,76.5l-2.2-10c.6-.2,3.8-1.2,4.2-.7l2.5,8c.1.4.3,1,0,1.3-1.5,1.4-3.2,1.6-4.5,1.5Z"/>
        <path class="st4" d="M33.9,66.5l2.2,10c-2.7-.6-1.1-2.5-3.4-9.5,0-.3,1-.4,1.2-.5Z"/>
      </g>
      <g>
        <ellipse class="st6" cx="35.1" cy="65.1" rx="35.5" ry="4.9" transform="translate(-15.7 11.3) rotate(-15)"/>
        <ellipse class="st1" cx="35.1" cy="65.1" rx="28.9" ry="4" transform="translate(-15.7 11.3) rotate(-15)"/>
        <ellipse class="st34" cx="35.1" cy="65.1" rx="18.9" ry="2.6" transform="translate(-15.7 11.3) rotate(-15)"/>
        <ellipse class="st0" cx="35.1" cy="65.1" rx="6.7" ry=".9" transform="translate(-15.7 11.3) rotate(-15)"/>
      </g>
      <g>
        <path class="st43" d="M33.9,66.4l-1.7-6.4c-.8-8.6,3.4-1.5,5.6,5.3,0,0-1.5.5-1.7.5l-2.2.6Z"/>
        <path class="st4" d="M33.9,66.4l-.9.2c-.6-2.1-.6-4.4-.8-6.6l1.7,6.4Z"/>
      </g>
      <path class="st31" d="M198.7,46.1l-13.7,3.9c-1.1-2.3-5.1-12.8-2-14.4,1-.5,7.3-1.8,10.4-2.7s1.7.1,2.1.9c1.5,3,3,10.7,3.2,12.4Z"/>
      <path class="st31" d="M198.7,46.1c.2,1.8.8,3.2-1.3,4.2-.8.4-9.2,2.5-9.9,2.5-1.7-.1-2.3-2.1-2.6-2.8l13.7-3.9Z"/>
      <g>
        <path class="st43" d="M186.5,36.1l-2.2-10c.6-.2,3.8-1.2,4.2-.7l2.5,8c.1.4.3,1,0,1.3-1.5,1.4-3.2,1.6-4.5,1.5Z"/>
        <path class="st4" d="M184.3,26.1l2.2,10c-2.7-.6-1.1-2.5-3.4-9.5,0-.3,1-.4,1.2-.5Z"/>
      </g>
      <g>
        <ellipse class="st6" cx="185.6" cy="24.8" rx="35.5" ry="4.9" transform="translate(0 48.9) rotate(-15)"/>
        <ellipse class="st1" cx="185.6" cy="24.8" rx="28.9" ry="4" transform="translate(0 48.9) rotate(-15)"/>
        <ellipse class="st34" cx="185.6" cy="24.8" rx="18.9" ry="2.6" transform="translate(0 48.9) rotate(-15)"/>
        <ellipse class="st0" cx="185.6" cy="24.8" rx="6.7" ry=".9" transform="translate(0 48.9) rotate(-15)"/>
      </g>
      <g>
        <path class="st43" d="M184.4,26.1l-1.7-6.4c-.8-8.6,3.4-1.5,5.6,5.3,0,0-1.5.5-1.7.5l-2.2.6Z"/>
        <path class="st4" d="M184.4,26.1l-.9.2c-.6-2.1-.6-4.4-.8-6.6l1.7,6.4Z"/>
      </g>
      <path class="st31" d="M48.2,86.4c.2,1.8.8,3.2-1.3,4.2-.8.4-9.2,2.5-9.9,2.5-1.7-.1-2.3-2.1-2.6-2.8l13.7-3.9Z"/>
    </g>
  </g>
  <g>
    <path class="st39" d="M244,166.7c-2.4-1.4-1.3,3.7-8.5,4.3,0-5.9-1.1-8.1-5.4-12.2l.6-.6c1.7.6,11.9,4.9,12.4,5.4.7.8.7,1.9,1,3.1Z"/>
    <path class="st39" d="M244,166.7c.4,1.4.1,3.8.8,4.3-.9.2-6.9,6.2-9.7,5.8.4-1.7.4-4,.4-5.8,7.2-.5,6.1-5.6,8.5-4.3Z"/>
  </g>
  <g>
    <path class="st2" d="M293.7,370.5c0,8.7-4.8,15-13.5,15.7-12.8,1-33.3-12.4-36.2-26.1.2-1.3-1-2.9.5-1.8,1.4,1,6.9,15.9,26.1,20.3,31.3,7.3,15.8-20.2,17.4-21.3,3.1-2.1,5.4,11,5.8,13.2Z"/>
    <path class="st24" d="M288.3,353c-6.8-15.1-11.9-26.8-18.5-42-8.6,7.3-20.1,7.6-20.1,7.6,0,0,9.7,23.6,11.5,28.1,8.1,1.6,18.5,2.4,24.1,9.2-6.6-1.7-14.3-5.2-20.9-6.7-4.1-.9-9.3-1.1-10.3-1.3-8.1-1.7-7.3-5.3-14.9-8.8-2.8-1.9-8.6-5.1-12.6-8.5,0,0-13.9-2.2-14-2.4-2.6-.1-8.6-2.8-10.6-2.1-.1,0-.3,0-.4,0-.9.6-.7,2.8-.3,3.7.6,1.3,10.1,4.1,9.6,4.1,8.5.6,18.2,18.3,15.6,21.1-11.7,12.4-20.1,2.6-19.5,12.3,0,0,0,0,0,0,.2,3.9,2.1,3,5.2,3.9-.5.7-.6,1.7-.1,2.1,1.4,1.3,19.2,2.2,25.5-2.1,4-2.7,6.4-6.9,6.9-11.6.2-1.3,6.6,14.6,25.8,19,31.3,7.3,15.8-20.2,17.4-21.3,3.1-2.1,5.4,11,5.8,13.2,0-7-2.6-11.4-5.4-17.5ZM230.3,337.9c.3,0,.6.3.9.6-.3-.3-.6-.5-.9-.6-.2,0-.6,0-1,0,.4,0,.7,0,1,0ZM232.9,358.1c-.2.2-.3.3-.5.5.2-.2.3-.3.5-.5ZM225.6,363.9c-.9.6-1.9,1.2-2.8,1.7-2.6,1.4-5.3,2.4-8.1,2.7,2.8-.3,5.5-1.3,8.1-2.7,1-.5,1.9-1.1,2.8-1.7ZM219.4,370.3c-.8.1-5.3,0-5.5,0h0c.3-.1,4.7.1,5.5,0ZM213.5,368.4c-.5,0-1,0-1.6,0,.5,0,1,0,1.6,0Z"/>
    <path class="st5" d="M207.4,366.6s8.4,2.6,17.7-.8c9.3-3.4,10.1-8.2,10.1-8.2,0,0,.2,3.3-1,4.2s-15.6,11.3-26.9,4.8Z"/>
    <path class="st5" d="M212.5,371.1s8.4,2.6,17.7-.8c3.3-1.2,5.4-3.3,6.9-4.6,2.8-2.3,3.2-3.6,3.2-3.6,0,0-.9,3.6-2.1,4.5s-8.2,5.8-17.1,6c-2.9,0-5.9.1-8.6-1.5Z"/>
  </g>
</svg>