<?xml version="1.0" encoding="UTF-8"?>
<svg id="Layer_1" xmlns="http://www.w3.org/2000/svg" version="1.1" viewBox="0 0 310 491">
  <defs>
    <style>
      .st0 {
        fill: none;
      }

      .st1 {
        fill: #544251;
      }

      .st2 {
        fill: #c45f41;
      }

      .st3 {
        fill: #c05e58;
      }

      .st4 {
        fill: #232323;
      }

      .st5 {
        fill: #d7dadc;
      }

      .st6 {
        fill: #8e3226;
      }

      .st7 {
        fill: #f7b750;
      }

      .st8 {
        fill: #a34737;
      }

      .st9 {
        fill: #f4f4f4;
      }

      .st10 {
        fill: #dbdbdb;
      }

      .st11 {
        fill: #23110a;
      }

      .st12 {
        fill: #281a26;
      }

      .st13 {
        fill: #f0935d;
      }

      .st14 {
        fill: #bdeded;
      }

      .st15 {
        fill: #c12e4b;
      }

      .st16 {
        fill: #f8edf9;
      }

      .st17 {
        fill: #e5fdfe;
      }

      .st18 {
        fill: #dcb5d8;
      }

      .st19 {
        fill: #2e643c;
      }

      .st20 {
        fill: #fbfbfc;
      }

      .st21 {
        fill: #2e1638;
      }

      .st22 {
        fill: #120418;
      }

      .st23 {
        fill: #8a788e;
      }

      .st24 {
        opacity: .2;
      }

      .st24, .st25 {
        fill: #7aebe9;
      }

      .st26 {
        fill: #e6794d;
      }

      .st27 {
        fill: #e5d4e8;
      }

      .st28 {
        fill: #f7c192;
      }

      .st29 {
        fill: #511407;
      }

      .st30 {
        fill: #661b6a;
      }

      .st31 {
        fill: #ffd229;
      }

      .st32 {
        fill: #17ae9d;
      }

      .st33 {
        fill: #d53a5c;
      }

      .st34 {
        fill: #ffc012;
      }

      .st35 {
        fill: #95409b;
      }

      .st36 {
        fill: #353535;
      }

      .st37 {
        fill: #120f12;
      }

      .st38 {
        fill: #2b0f33;
      }

      .st39 {
        fill: #320532;
      }

      .st40 {
        fill: #1d121b;
      }

      .st41 {
        fill: #e8e8e8;
      }

      .st42 {
        fill: #4e0b1b;
      }
    </style>
  </defs>
  <g>
    <g>
      <g>
        <g>
          <g>
            <path class="st41" d="M187.7,241.5c-4.8,4.3-8.1,9-11.3,14.5,0,1-.4,1.2.9,1.3,6.2.6,12.3-13.3,19.9-14.8,8.5-6.3,18.2-5.5,28.2-6.3-14.2-1.4-21.8-4.7-37.5,7.5-2.4,1.9-5.9,3.5-2.6.5.7-.6,2.1-1.7,2.5-2.7Z"/>
            <path class="st9" d="M228.5,283.1c3.7,5.2,7.4,10.5,9.8,16.5.8,0,1,.3,1.9-.3.8-2.1-.4-5.5-1.5-7.4-2.8-2.1-6.2-8.8-9-9.2-.5,0-.8.2-1.2.4Z"/>
            <path class="st9" d="M271.6,283c.9-2.8-1.7-4.4-4.1-5.4-1.4-.5-7.9-1.8-17.4-5.9,2.5,2.4,17.9,10.6,20.3,11.4.5.2.8.3,1.2-.2Z"/>
            <path class="st9" d="M288.4,273.5c2-3.5.2-4.7-3.1-6.1-6.1.9-12.1,0-18.2-1-1-.3-.3.4-.2.5,2.1,1.9,16.6,3.4,21.5,6.6Z"/>
            <path class="st9" d="M254.1,291.3c2.6-3.8-1.4-6.7-3-8.2s-.2-.2-.3-.2c-4.2-2.1-5.7-3.8-9.4-6.2,2.6,4.2,6.6,7.7,9.7,11.5.9,1.1,1.8,3.9,3,3.1Z"/>
            <path class="st10" d="M215.1,307.8c.7-2.3-.9-4.5-2.2-6.2-.2-.2-3.2-3.7-3.5-3.8-.3-.1-2.6.5-3.4-.1-.6.5,6.1,11.8,9.1,10.1Z"/>
            <path class="st10" d="M227.3,304.2c2.3-2.1,1.2-5.3-.2-7.6-1.9-2.2-4-4.6-6.2-6.5-.2,0-.5,0-.5.2,0,.8,6,12.1,6.9,13.9Z"/>
          </g>
          <path class="st1" d="M209.3,268.8"/>
        </g>
        <path class="st41" d="M176.4,255.9c-1.4,2.3-2.9,4.7-3.8,7.3,1.5.4,3.3.7,4.9,1,.6.1,1.1.3,1.6.6,2,1.2,4.7,5.8,4.8,5.9,6.7,9.8,17.2,34.4,21.8,37.2.1,0,.2.2.3.3,2.2,1.3,8.3,3.1,9.3-.4-3,1.7-9.7-9.5-9.1-10.1.8.6,3.1,0,3.4.1.2,0,3.3,3.6,3.5,3.8,3.7,2.1,10.1,5.5,14.2,2.9.4-.2.2-.3.2-.3-.9-1.8-6.9-13.1-6.9-13.9,0-.2.4-.2.5-.2,2.3,1.9,4.3,4.3,6.2,6.5,1.8,2.4,11.7,6.4,13.1,2.8-.9.5-1.1.3-1.9.3-2.4-6-6.1-11.3-9.8-16.5.5-.3.7-.5,1.2-.4,2.8.4,6.1,7.1,9,9.2,3.5,2.6,7.6,3.6,11.8,2.1,1.6-.6,2.7-1.3,3.6-2.7-1.2.7-2.1-2.1-3-3.1-3.1-3.9-7.1-7.3-9.7-11.5,3.7,2.5,5.3,4.1,9.6,6.3,5.2,2.6,14.4,6.2,19.4,1.6.7-.7.9-.9,1.2-1.6-.4.4-.7.4-1.2.2-2.3-.8-17.7-9-20.3-11.4,9.5,4.1,16,5.3,17.4,5.9,1.9.2,3.8.8,5.8.9,4.9.3,12.4-.5,15.1-5.1-3.9-3.4-20.7-5.5-21.2-6.6,0,0,0-.2,0-.4,6,.9,12,1.9,18.2,1,4.7-.7,7.5-1.7,11.2-4.6.8-.6,1.7-1.3,2.4-2,3.9-4.3,5.8-11.6,3.5-12-.6-.1-10.7,1.9-12.6,2,3.7,0,7.3-.7,11-1.2-8.5,6.9-48,5-48.1,4.1,6.7.5,18.3,1.8,24.8,0,1.4-.4,3.5-1.3,4.8-1.9,0,0,0,0,0,0,0,0,0,0,0,0,8.1-3.6,19.8-12.2,23.5-20.6,0-.1,0-.3-.2-.3-5.4,1.2-10.8,2.9-13.7,3.5-2.3.5-9.9,1.3-11.5,1.5-13.3,1.8-26.1,2.5-39.5,1.9l-9.9-1c-2.1-.3-4.2-.5-5.8-.7-10,.8-19.7,0-28.2,6.3-7.6,1.5-13.7,15.4-19.9,14.8-1.3-.1-.8-.3-.9-1.3ZM257.2,241.9c0,0,.2,0,.3,0,0,0,0,0,0,0,0,0-.2,0-.3,0Z"/>
      </g>
      <path class="st9" d="M182.9,246.3c-1.7,2.3-1.6,2-2.1,2.9s5.4-4.2,7.1-5.5c15.6-12.2,23.3-9,37.5-7.5,5.4.5,10.2,1.3,15.7,1.6,13.4.6,26.2,0,39.5-1.9,1.6-.2,9.2-1.1,11.5-1.5,2.6-.5,7.1-1.9,11.9-3.1.9-.2,1.6.7,1.1,1.5-4.4,7.9-15.2,15.6-22.7,18.9-1.4.6-3.4,1.5-5.6,2.1-6.2,1.5-19,.3-25.8-.2,0,.2,8.4,1.7,10,1.8,11,.8,31.7,1.6,41.4-6.6-3.7.5-8.9,1.5-12.6,2-.4,0,4.2-2.7,9.2-6,2.8-1.9,5-4.5,7.1-7.1,2.9-4.6,2.7-9,2.3-10-.5-.7-9.9,3.4-23,6.2.3,0,.6-.2.9-.3-17.2,2.6-30.8,1.1-47.6.1,0,0,0,0,0,0,0,0,0,0,0,0,0,0,0,0,0,0-18.2-1-36-5.6-51.1,7.9-.9.7-4.3,4.1-4.8,4.9ZM215.5,233.3s0,0,0,0c0,0,0,0,0,0ZM215.4,233.3s0,0,0,0c0,0,0,0,0,0ZM271.2,235.7c.8,0,1.6-.1,2.5-.2-.8,0-1.6.2-2.5.2ZM215.4,233.6c0,0,0,.2.2.2,0,0,0,0,0,0,0,0-.1,0-.1-.2ZM215.4,233.5s0,0,0,0c0,0,0,0,0,0Z"/>
    </g>
    <g>
      <g>
        <g>
          <g>
            <path class="st41" d="M97,238.8c3.7,3.3,6.2,7,8.7,11.2,0,.8.3.9-.7,1-4.8.5-9.5-10.3-15.3-11.5-6.5-4.9-14-4.3-21.8-4.9,11-1.1,16.9-3.6,29,5.9,1.9,1.5,4.6,2.7,2,.4s-1.6-1.3-1.9-2.1Z"/>
            <path class="st9" d="M65.4,270.9c-2.9,4-5.7,8.1-7.6,12.7-.7,0-.8.2-1.5-.2-.6-1.6.3-4.3,1.2-5.7,2.2-1.6,4.8-6.8,7-7.1.4,0,.6.1.9.3Z"/>
            <path class="st9" d="M32,270.7c-.7-2.1,1.4-3.4,3.2-4.1,1.1-.4,6.1-1.4,13.5-4.5-2,1.8-13.9,8.1-15.7,8.8-.4.1-.6.2-1-.1Z"/>
            <path class="st9" d="M19.1,263.3c-1.6-2.7-.2-3.6,2.4-4.7,4.7.7,9.4,0,14.1-.7.8-.2.2.3.2.4-1.6,1.5-12.8,2.6-16.6,5Z"/>
            <path class="st9" d="M45.5,277.1c-2-2.9,1.1-5.2,2.3-6.3s.1-.1.2-.2c3.2-1.6,4.4-2.9,7.3-4.8-2,3.2-5.1,5.9-7.5,8.9-.7.8-1.4,3-2.3,2.4Z"/>
            <path class="st10" d="M75.6,290c-.5-1.8.7-3.4,1.7-4.8.1-.2,2.5-2.8,2.7-2.9.3,0,2,.4,2.6,0,.5.4-4.8,9.1-7.1,7.8Z"/>
            <path class="st10" d="M66.2,287.2c-1.8-1.7-.9-4.1.1-5.9,1.5-1.7,3.1-3.5,4.8-5,.1,0,.4,0,.4.2,0,.6-4.7,9.3-5.4,10.7Z"/>
          </g>
          <path class="st1" d="M80.2,259.8"/>
        </g>
        <path class="st41" d="M105.1,250.9c-4.8.5-9.5-10.3-15.3-11.5-6.5-4.9-14-4.3-21.8-4.9-1.3.1-2.9.3-4.5.5l-7.6.7c-10.4.5-20.3,0-30.5-1.5-1.2-.2-7.1-.8-8.9-1.2-2.3-.5-6.4-1.8-10.6-2.7-.1,0-.2,0-.2.2,2.8,6.5,11.9,13.2,18.2,16,0,0,0,0,0,0,0,0,0,0,0,0,1.1.5,2.6,1.1,3.7,1.5,5,1.5,14,.5,19.2.1,0,.7-30.6,2.1-37.2-3.3,2.8.4,5.6.9,8.5.9-1.4,0-9.2-1.6-9.7-1.5-1.8.3-.4,6,2.7,9.3.5.6,1.3,1.1,1.9,1.6,2.9,2.3,5.1,3,8.7,3.6,4.7.7,9.4,0,14.1-.7,0,.2,0,.3,0,.3-.3.8-13.4,2.4-16.4,5,2.1,3.6,7.9,4.2,11.7,4,1.5,0,3-.6,4.5-.7,1.1-.4,6.1-1.4,13.5-4.5-2,1.8-13.9,8.1-15.7,8.8-.4.1-.6.2-1-.1.3.5.4.7.9,1.2,3.8,3.5,11,.8,15-1.2,3.3-1.7,4.5-2.9,7.4-4.9-2,3.2-5.1,5.9-7.5,8.9-.7.8-1.4,3-2.3,2.4.7,1.1,1.5,1.7,2.8,2.1,3.3,1.2,6.5.4,9.2-1.6,2.2-1.6,4.8-6.8,7-7.1.4,0,.5,0,.9.3-2.9,4-5.7,8.1-7.6,12.7-.7,0-.8.2-1.5-.2,1,2.8,8.7-.3,10.1-2.1,1.5-1.7,3.1-3.5,4.8-5,.1,0,.4,0,.4.2,0,.6-4.7,9.3-5.4,10.7,0,0,0,0,.2.2,3.1,2,8.1-.6,11-2.2.1-.2,2.5-2.8,2.7-2.9.3,0,2,.4,2.6,0,.5.4-4.8,9.1-7.1,7.8.7,2.7,5.5,1.3,7.2.3,0,0,.2-.1.2-.2,3.5-2.2,11.7-21.2,16.9-28.7,0-.1,2.2-3.6,3.7-4.5.4-.2.8-.4,1.3-.5,1.2-.2,2.6-.4,3.8-.7-.7-2-1.9-3.8-2.9-5.6,0,.8.3.9-.7,1ZM43.1,238.9s0,0,0,0c0,0,.1,0,.2,0,0,0-.1,0-.2,0Z"/>
      </g>
      <path class="st9" d="M97,238.8c-11.6-10.5-25.4-7-39.5-6.3,0,0,0,0,0,0,0,0,0,0,0,0,0,0,0,0,0,0-13,.7-23.6,1.9-36.8-.2.2,0,.5.1.7.2-10.1-2.1-17.4-5.3-17.7-4.8-.3.8-.5,4.2,1.8,7.8,1.6,2,3.3,4.1,5.5,5.5,3.8,2.6,7.4,4.7,7.1,4.7-2.8-.4-6.9-1.2-9.7-1.5,7.5,6.4,23.5,5.9,32,5.2,1.3,0,7.8-1.3,7.8-1.4-5.2.4-15.1,1.2-19.9.1-1.7-.4-3.3-1.1-4.3-1.6-5.8-2.6-14.2-8.6-17.5-14.7-.3-.6.2-1.3.9-1.1,3.7.9,7.2,2,9.2,2.4,1.8.4,7.7,1,8.9,1.2,10.2,1.4,20.2,2,30.5,1.5,4.3-.2,8-.8,12.2-1.2,11-1.1,16.9-3.6,29,5.9,1.3,1,5.8,4.8,5.5,4.3-.4-.7-.3-.5-1.6-2.3-.4-.6-3-3.2-3.7-3.8ZM75.6,232.4s0,0,0,0c0,0,0,0,0,0ZM75.6,232.5s0,0,0,0c0,0,0,0,0,0ZM30.5,234c.6,0,1.3.1,1.9.2-.6,0-1.3-.1-1.9-.2ZM75.5,232.8s0,0,0,0c0,0,.1,0,.1-.2,0,0,0,.2-.1.2ZM75.6,232.6s0,0,0,0c0,0,0,0,0,0Z"/>
    </g>
  </g>
  <g>
    <g>
      <path class="st13" d="M170.9,140.2l4.4,20.1s2.2,3.1,3.5,2.6c3.6-1.5,6.1-7.9,6.1-14.8s-3.5-12.2-3.5-12.2l-10.5,4.4Z"/>
      <path class="st2" d="M202.3,170.7l.9,1.7c.9,1.7-2.6,2.6-2.6,2.6-1,.3-1.7.9-2.6,0l.9-4.4c.9-1.7,3.2-.4,3.5,0Z"/>
      <g>
        <path class="st14" d="M203.2,177.7c0-1.7,0-4.4-.9-5.2s-1.6-1.8-2.6-.9c-.7.6-1.6,4-1.7,6.1,0,.7.3,3,.9,3.4,1.7,1.3,2.9,1.1,3.5.2,1.7-2.8.9-2.4.9-3.6Z"/>
        <path class="st25" d="M203.7,177c-.2-2.4-.4-4.2-1.4-4.5-2.6-.9-.9,2.6-3.5,4.4-1,.7-.5,2.9,0,3.5,3,3.6,5-.9,4.8-3.3Z"/>
      </g>
      <g>
        <g>
          <path class="st37" d="M211.1,152.1c-2.7-1.5-1.5,4.2-9.6,4.8,0-6.6-1.2-9.1-6.1-13.7l.7-.7c2,.6,13.4,5.5,14,6.1.8.9.7,2.1,1.1,3.5Z"/>
          <path class="st37" d="M211.1,152.1c.4,1.6.2,4.3.9,4.8-1,.2-7.8,7-10.9,6.5.4-2,.5-4.5.4-6.5,8.1-.6,6.9-6.3,9.6-4.8Z"/>
        </g>
        <g>
          <path class="st37" d="M78,93.2c-1.4,1.8-3.1,3.3-4.4,5.2.2-1.2.6-2.4.4-3.7-1.3-.5-8.8-6.3-9.2-6.8-.2-.3-1.8-7.4-1.7-8.1.1-3.5,2.6-7.2,5.2-9.4-5.4,12,8.3,17.1,9.2,19.4.5,1.3-1,3,.4,3.3Z"/>
          <path class="st37" d="M265.2,105.9c3.8,6.2,2.5,9.2,0,15.9,4.1,1,4.7.4,8.7,2.4l-.2.9c-.9-1.8-.6,1.5-5.2-1.3-1.1,4.9-6.4-2.2-4.1,4.6-5.8,2.7-2-14.8,1.7-15.7.3-.7-4.9-9.9-.9-6.8Z"/>
          <path class="st12" d="M47.4,190.1c-.2,0-1.4,1.6-4.6,2.6-.5-.1-4-9.1-4.1-9.6-1.5-7.3,2.3-9.7,3.1-10.9q6.1-4,12.2-8.1-.4-4-.9-8.1c0-2.5-7.3-6.3-12.2-9.6-1.9-4-1-9,1.7-12.7,7.7-3.5,17.4-1.5,17.5-7.2,0-.5-1.9-5.3-2.2-8.9-.7-9.8,12.8-11.7,14-12.9.5-.5,1.6-5.1,1.7-6.3,1.2-1.9,2.9-3.5,4.4-5.2,2-2.5,3.3-.4,1.7-8.1,14.1-15.7,13.3-9.8,32.9-7.2,2.9-.7,2.9-13.3,9.2-14.4,8.7-1.5,11,9.4,7.4,12.2-3.4,2.6-2.9-2.4-6.1-7-3.5,20.7-16.2,13.8-31.9,11.8-7.7,5.3-4.1,9.3-5,12-.3.7-7,6.5-7.4,7.4-2.7,5.9,4.8,4.8-15.3,15.3-2.2,5.5,8.3,14.9-6.3,21.2-4.2,1.8-15.2,2-12.2,5.7,2.4,3,14,5.5,14.6,15.9,1.3,20.8-24.7,9.4-12.2,32.1Z"/>
          <path class="st12" d="M267.4,187c-.1-.1-.3-.3-.4-.4-.3-16.8-11.2-11.4-17.7-15.7-4.2-2.8-7.2-17.7,12.9-16.8,5.1,7.3-12.8,5.8-10.9,9.6.4.9,13.8,5.5,15.7,7.9,2.7,3.3,2.7,12.7.4,15.5Z"/>
          <path class="st40" d="M41.8,172.2c-.7,1.2-4.5,3.6-3.1,10.9-5.3-1.9-13.7-2.4-12.7-9.8,1.7-11.9,14.4-1.1,15.7-1.1Z"/>
          <path class="st40" d="M53.1,156.1q.4,4,.9,8.1-6.1,4-12.2,8.1c.5-.8,2-1.9,2.2-2.4,1.8-4.9-4-8.6-3.5-13.5l12.7-.2Z"/>
          <g>
            <path class="st37" d="M81.5,152.1q-.5,4.4-1.1,8.7c-2.8-1.8-6.1-1.5-7.6-4.8q4.4-2,8.7-3.9Z"/>
            <path class="st32" d="M91.5,148.6c-1.3,3.2-2.5,4.9-2.6,8.7-3.1,1.8-1.1-7.7,3.1-10.7q-.2,1-.4,2Z"/>
          </g>
          <g>
            <path class="st40" d="M276.5,173.3c1.4-15.3-6.8-15.4-7.4-16.1-2.7-3.8,5-3.4,9.2-8.3,6.2-7.3,4.4-20.2-4.4-24.7l-.2.9c-.9-1.8-.6,1.5-5.2-1.3-1.1,4.9-6.4-2.2-4.1,4.6-5.8,2.7-2-14.8,1.7-15.7.3-.7-4.9-9.9-.9-6.8-3.5-5.8-9.8-8.5-16.4-5.7-2.5-.5.9-5.4-8.9-10.7,7.6-14.1-10.3-25.7-19.4-12.4-16.1-18.1-38.6-26.1-61.1-14-15.3-17.3-44.2-15.2-60,.2-1.5,1.5,0,3.7-11.6,8.5-1.8,0-9.1-9.9-19.4-1.3-5.4,12,8.3,17.1,9.2,19.4.5,1.3-1,3,.4,3.3,2-2.5,3.3-.4,1.7-8.1,14.1-15.7,13.3-9.8,32.9-7.2,2.9-.7,2.9-13.3,9.2-14.4,8.7-1.5,11,9.4,7.4,12.2-3.4,2.6-2.9-2.4-6.1-7-3.5,20.7-16.2,13.8-31.9,11.8-7.7,5.3-4.1,9.3-5,12-.3.7-7,6.5-7.4,7.4-2.7,5.9,4.8,4.8-15.3,15.3-2.2,5.5,8.3,14.9-6.3,21.2-4.2,1.8-15.2,2-12.2,5.7,2.4,3,14,5.5,14.6,15.9,1.3,20.8-24.7,9.4-12.2,32.1-.2,0-1.4,1.6-4.6,2.6-.5-.1-4-9.1-4.1-9.6-5.3-1.9-13.7-2.4-12.7-9.8,1.7-11.9,14.4-1.1,15.7-1.1.5-.8,2-1.9,2.2-2.4,1.8-4.9-4-8.6-3.5-13.5l12.7-.2c0-2.5-7.3-6.3-12.2-9.6-1.9-4-1-9,1.7-12.7,7.7-3.5,17.4-1.5,17.5-7.2,0-.5-1.9-5.3-2.2-8.9-.7,0-1.4,0-2,0,.6,0,1.3,0,2,0-.7-9.8,12.8-11.7,14-12.9.5-.5,1.6-5.1,1.7-6.3.2-1.2.6-2.4.4-3.7-1.3-.5-8.8-6.3-9.2-6.8-1.1.2-2.1.8-3.1,1.3-.5.8-1,1.6-1.3,2.4.4-.8.8-1.6,1.3-2.4-7,3.8-4.7,3.2-8.1,10-16.8-1.4-23,14.9-11.1,26.4-2.3.8-4.7,1-7,2-1.8.7-2.9,1.3-4.4,2.6-8.3,7.8-4.4,18.8,5.2,22.9.6,1.6-3.6,4,0,12.2-16.5-1.9-22.4,16.8-7,24-3.3,8.1,2.6,18.7,11.6,15.5,7.3,7.1-1.8,7.2-.2,17.2,1.2,7.9,12.3,12.9,19,8.1,9.4,3.9,4.8,4.5,8.1,8.9,4.1,5.7,14.3,5.1,19,.2,1.3.3.6,12.3,17.5,10,4.1-7.2,5.4-2.2,11.8-5.2,4.7-2.3,4.7-8.6,9.4-4.4,2.5-3.6,4-8,7.4-10.9,0-.6.1-.8.4-1.3-6.7-1.2-23.4-13.7-28.8-18.5-9.1-8-14.5-15.2-14.4-27.5.1-.6-.3-7.3-1.3-9.4-.4-.7-.3-8.2,0-14.8-3.1,1.8-1.1-7.7,3.1-10.7q-.2,1-.4,2c.1-.4,1.2-2.9,1.3-3.1,1.2-2.3,2.2-6.1,5.7-5q-.9-1.2-1.7-2.4c.9-8.2,6.9-28.1,15.3-31.9,4.9-2.2,9.6,1,15.5-7.4,20,11.3,27.7-2.1,29.2-2.6,6-2.3,7.7,4.6,8.1,5,6.9,7.8,14.1,4.9,20.1,15.7,2.4,4.2,3.1,9.9,5.7,14,1.1,1.7-.7,14.5.4,17.1,4,9,3.5,18.3.9,22.4,5.8-9.3,1.5,3.2,7-1.7.5-1.1,2.1-4.6,2.2-5.2.4-2,.5-4.5.4-6.5,0-6.6-1.2-9.1-6.1-13.7l.7-.7c2,.6,13.4,5.5,14,6.1.8.9.7,2.1,1.1,3.5.4,1.6.2,4.3.9,4.8,10.2-2.5,14.9,16.6,2.8,26.6-9.4,7.8-14.4-2.1-20.3,6.8-.3.5-.8,4.1-4.8,9.8-5.4,7.8-14.5,13.5-22.7,17.9,1.1,2.5,1.4,5.3,2.2,7.9.6,2.1,1.7,4.5,1.7,4.8,5,.5,6.9,5.8,9.6,7.4.5.3,3.1.8,4.1.9,6.1,12,22.3,9.3,26.2-3.5,6.3-5.5,9.6-5.9,9.6-5.9,0,0,7.4-2,15.3,2.4,6.4,0,10.9.7,15.3-4.8,16,1.7,22.1-14.3,10.7-25.1q2.7-3.6,5.5-7.2c5.4,1.3,10.5,0,13.3-4.8,3.6-6.2,1.9-12.7-3.9-16.8ZM59.5,93.9c-.3.7-.5,1.4-.6,2.1.2-.7.4-1.4.6-2.1ZM45,102c.5-.2,1-.3,1.5-.4.5,0,1-.1,1.5,0-.5,0-1,0-1.5,0-.5,0-1,.2-1.5.4-.3.1-.7.3-1,.6.3-.2.7-.4,1-.6ZM40.9,107.6c0-.5.2-.9.4-1.4-.2.4-.3.9-.4,1.4-.1.7-.2,1.4-.1,2.2,0-.7,0-1.5.1-2.2ZM267.4,187c-.1-.1-.3-.3-.4-.4-.3-16.8-11.2-11.4-17.7-15.7-4.2-2.8-7.2-17.7,12.9-16.8,5.1,7.3-12.8,5.8-10.9,9.6.4.9,13.8,5.5,15.7,7.9,2.7,3.3,2.7,12.7.4,15.5Z"/>
            <g>
              <path class="st12" d="M170.7,64.9c11-1,19,17.8,39.7,10.9,10.1,13.4,18.6,9.3,14.2,25.5,2.3,1.1,10.9,8.7,11.6,8.9,4.8,1.7,19-2.6,14.6,15.1,4.1,1.4,18.7,7.2,20.5,10.5,2.1,3.8.6,11.4-3.7,12.9-10.1,3.5-.7-8.4-1.1-9.8-10.9-10-26.1-.7-20.1-21.4l-11.6-1.1c-7.3-9.6-11.5-7.1-14.2-10.3-7-8.5,10.9-19.7-17.2-15.9q-1.1-3.7-2.2-7.4c-10.7.4-20.1-5.8-28.4-11.8-3.7-.3-15,7.1-12.4-.7.5-1.7,8.4-5.3,10.3-5.5Z"/>
              <path class="st39" d="M211.7,81c2.7-.2-2.2,1.9-3.1,2.2-10.5,3.8-3-1.7,3.1-2.2Z"/>
            </g>
          </g>
        </g>
        <g>
          <g>
            <g>
              <path class="st6" d="M169.2,225.9c-7.9,10.1-19,17.9-31.4,21.4-2.1-2.7-4.7-5.2-5.2-8.7-.4-2.5.2-6.9.4-9.6,0-.6.1-.8.4-1.3,10.9,1.9,24.1-4.5,33.6-9.6,1.1,2.5,1.4,5.3,2.2,7.9Z"/>
              <path class="st26" d="M170.9,230.7c.3,1.8.6,3.6.9,5.5-6.3,7.6-16,13.2-25.3,16.4-2.2.7-1.7.9-1.7.9-.6.1-.3.6-2.2-.4-.2-.1-1.1-.7-1.3-.9-.2-.2-3-4.1-3.5-4.8,12.4-3.5,23.5-11.3,31.4-21.4.6,2.1,1.7,4.5,1.7,4.8Z"/>
            </g>
            <path class="st26" d="M191.9,192.3c-5.6,14.6-42.8,32.6-53.5,32.3-13.6-.4-40.6-22.6-43.9-36.9,4.8,1,9.7,1,14.4-.2.5.8,2.7,2.7,5.7,7.4,6.1,9.6,9.7,19.6,23.6,17.9,11.1-1.3,13.7-8.8,17-12.7,2.8-3.2,5.9-6.3,8.7-9.6,3.1.8,6.6,1.3,9.8.9,1.9-.2,10.3-3.5,9.4-5.2,2-1,7.2-4.9,8.7-6.5,1.7,4,1.6,8.5,0,12.7Z"/>
            <path class="st3" d="M183.1,186.2c.9,1.7-7.5,5-9.4,5.2-3.2.4-6.7-.1-9.8-.9.4-.5.5-1.2.9-1.7,5.9,1.2,12.9,0,18.3-2.6Z"/>
            <g>
              <path class="st26" d="M189.7,200.1c-1.5-1.4,4.1-5.3,2.2-7.9,1.6-4.1,1.7-8.7,0-12.7,1.5-1.6,5.1-8.5,6.1-10.6.5-1.1,3-4.9,3.1-5.5,3.1.4,9.9-6.3,10.9-6.5,10.2-2.5,14.9,16.6,2.8,26.6-9.4,7.8-14.4-2.1-20.3,6.8-.3.5-.8,4.1-4.8,9.8Z"/>
              <path class="st8" d="M213.7,173.5c1.7,6.1-4.2,6.9-6.3,5.7-2.1-1.2-3.2-9-2-11.8,3.7,1.5,7.5,9.3,8.3,6.1Z"/>
              <path class="st29" d="M213.7,173.5c-.8,3.2-4.6-4.6-8.3-6.1,1.7-4,14.7-6.6,12.4,3.9-1.2-8.5-8.3-5-8.5-4.1-.2.7,3.6,3.5,4.4,6.3Z"/>
            </g>
            <path class="st13" d="M163.1,189.2c-1.5.4-2.9,1.8-4.8,2.2-16.6,3.6-30.5,4.7-45.8-3.9-.8-.5-1.8-.8-2.6-1.3,12.6-2.7,21.9-16.7,21.6-29.2,18.5-1.7,6.6,3,15.9,19.9,3.9,6.9,8.8,9.4,15.7,12.4Z"/>
            <g>
              <path class="st42" d="M109.8,186.2c.9.5,1.8.8,2.6,1.3,2,3.2,6.4,5.8,9.6,8.7.2.1.8,2.3,2.2,3.7.6.6,1.5,1,2.2,1.5-3.4,1.6-8.6-4.9-11.8-6.5-3-4.8-5.1-6.7-5.7-7.4,0,0,0-.7-.4-1.3.4,0,.9,0,1.3,0Z"/>
              <path class="st42" d="M164.8,188.8c-.3.5-.5,1.3-.9,1.7-2.8,3.3-5.9,6.4-8.7,9.6-1.3.2-5.3,1-6.1,1.3,2-2.2,4.1-4.4,6.1-6.5,1-1.1,2.4-2.2,3.1-3.5,1.9-.4,3.3-1.8,4.8-2.2l1.7-.4Z"/>
              <path class="st33" d="M155.2,200.1c-3.3,3.8-5.9,11.3-17,12.7-8.3-.4-16-9.8-11.3-10.9,10.3,6.2,17.6,1.2,22.3-.4.8-.3,4.8-1.1,6.1-1.3Z"/>
              <path class="st15" d="M126.4,201.4c.5.3.4.4.4.4-4.7,1.2,3.1,10.5,11.3,10.9-13.8,1.7-17.5-8.3-23.6-17.9,3.2,1.7,8.4,8.2,11.8,6.5Z"/>
              <path class="st15" d="M158.3,191.4c-.7,1.3-2,2.4-3.1,3.5-10.7,3.8-22.3,4.9-33.2,1.3-3.2-2.9-7.6-5.6-9.6-8.7,15.4,8.6,29.2,7.5,45.8,3.9Z"/>
              <path class="st20" d="M155.2,194.9c-2,2.2-4.1,4.3-6.1,6.5-4.6,1.6-11.9,6.7-22.3.4,0,0,0,0-.4-.4-.7-.5-1.6-.9-2.2-1.5-1.3-1.4-2-3.6-2.2-3.7,10.9,3.6,22.5,2.5,33.2-1.3Z"/>
            </g>
          </g>
          <g>
            <g>
              <path class="st20" d="M177,167.4c1.6-1.7.9-1.3,1.3-3.1,0-.4,0-.9,0-1.3,0-.1,1.1-.4,0-2.6,2.6.6,6.1,3.9,6.1,5.7,0,6.4-17.1,7.3-24.7.9-3.7-3.2-.7-2,.7-3.1,2.9-2.1,4.8-7.6,13.3-6.1,4.6.8-3.2,0-5,3.3-3.5,6.4,3.7,11.2,8.3,6.3Z"/>
              <path class="st17" d="M178.3,160.4c1.1,2.3,0,2.5,0,2.6l-1.3,1.3c-5.7,1.2-4.4-5.1,1.3-3.9Z"/>
              <path class="st25" d="M178.3,164.4c-.4,1.7.2,1.4-1.3,3.1-2.6-1.5,0-1.3.4-3.1h.9Z"/>
              <path class="st19" d="M178.3,164.4h-.9c-.1,0-.3,0-.4,0l1.3-1.3c0,.4,0,.9,0,1.3Z"/>
            </g>
            <g>
              <path class="st40" d="M101.1,139.3c-6,7.6-7.2,27.2-7,26.2.4.7-4,18.1-4.4,17.5-3.5-6.1-8.7-19.2-1.7-33.2,1.7-3.4,8.2-10.2,13.1-10.5Z"/>
              <path class="st13" d="M191.9,170.5c4.2-9.6-7.2-4.4-7.4-4.4,0,6.4-17.1,7.3-24.7.9-3.7-3.2-.7-2,.7-3.1-.6-4,2.8-7.1,6.1-8.9,1.6-.9,5.2-.9,7.9-.9s6.1,2.6,8.3,5c.7.9,12.2-16.5,12.4-16.6.2,0,1.6-3.5,1.5-4.1-.2-1.6-5-5.7-6.1-7.4-2.6-4.1-3.3-9.7-5.7-14-6-10.8-13.2-7.9-20.1-15.7-.4-.4-2.1-7.3-8.1-5-1.5.6-9.2,13.9-29.2,2.6-5.9,8.4-10.6,5.2-15.5,7.4-7.5,9.4-18.9,38.8-18.7,38.6-.9,3.5-2.7,7.9-2.7,11.9-.4,3.3-.5,11.4-.9,12.2-3.5,7.9-.9,16.6,0,18.3.1.3,12.8-.3,18.8-1.1.4,0,.9,0,1.3,0,12.6-2.7,21.9-16.7,21.6-29.2,18.5-1.7,6.6,3,15.9,19.9,3.9,6.9,8.8,9.4,15.7,12.4l1.7-.4c5.9,1.2,12.9,0,18.3-2.6,2-1,7.2-4.9,8.7-6.5,1.5-1.6,6-8.8,7-10.9-5.5,4.9-1-7.5-7,1.7ZM124.2,160.9c-1.7-.4-.5,2.7-.9,3.3-.8,1.1-2.9-1.4-3.5,1.1,0,.5,0,1.4,0,1.7,4.3,1-3.5,10.5-5,10.5-1.3,0-2.3-4.4-6.1-3.9-1.8.2-9.2-1.4-13.4-7.9.4-2.4.9-6.7,1-6.9.1-.3-.2-1.4.4-2.4,3.7-6.5,18.1-7.9,24.9-7.6,1.8,3.5,2.8,8.2,2.6,12.2ZM166.2,131.2c-1.1,0-2.1,0-3.1.1,1,0,2-.1,3.1-.1ZM157.6,132.7c-.5.2-.8.5-1.2.7.3-.3.7-.5,1.2-.7Z"/>
              <path class="st20" d="M111.1,158.2c-14.5,3.5,1,17.3,4.4,6.5.5-1.7.5-3.1.4-4.8.5,0,2.9,2.5,3.5,3.9,0,.2.4,1.2.4,1.3,0,.2,0,.5,0,.8s0,.7,0,.9c-1.5,5.2-16.2,4.6-22.3,2.6-2.1-.7-2.4-3-2.2-4.8.7-5.9,14.1-9.2,15.7-6.5Z"/>
              <path class="st26" d="M121.6,148.6c-6.7-.3-21.1,1.1-24.9,7.6-.6,1-.3,2.1-.4,2.4,6-8.6,24.2-6.4,23.1,5.2,0,.2.8,1.5,0,3.9-2.8,4.2-16.8,3.1-21.9,1.8-.3,0-2.3-1-1.3.4,3,4.2,10.2,6.2,12.6,6.8,3.5.9,4.7,1,5.9.6,7.2-2.4,8.9-12.8,9.4-16.6.4-3.1-.8-8.7-2.6-12.2Z"/>
              <path class="st14" d="M115.5,164.8c-1.9,2.3-4.3,1.2-3.1-1.7,1.8-.4,2.5-3.1,3.5-3.1,0,1.7.1,3.1-.4,4.8Z"/>
            </g>
          </g>
        </g>
      </g>
      <path class="st37" d="M93.2,170.7"/>
      <path class="st2" d="M90.6,178.6c4.3,4.5,11.9,8.5,17.9,7.6.5.7.4,1.3.4,1.3-4.7,1.3-9.6,1.2-14.4.2,3.2,14.3,30.3,36.5,43.9,36.9,10.7.3,47.9-17.6,53.5-32.3,1.9,2.5-3.7,6.4-2.2,7.9-5.4,7.8-14.5,13.5-22.7,17.9-9.5,5.1-22.7,11.5-33.6,9.6-6.7-1.2-24.5-12.2-29.9-17-8.6-7.6-15.7-20.6-15.5-32.9,0,0,2.5.9,2.6.9Z"/>
      <path class="st2" d="M101.1,135.6c-1.5.8-6.6,8.8-7.9,9.9.9-8.2,9.6-36.7,18.8-39.1,11.6-3.1-3.9,3.9-9.2,21.2-.8,2.5-.8,5.5-1.7,8.1Z"/>
      <g>
        <path class="st26" d="M135.1,186.6c-3.6-.2-6.8-2.5-9.2-4.8-1.7-9,2.9-.8,5,.4,5.4,3.2,15.7-.2,4.1,4.4Z"/>
        <path class="st29" d="M126,181.8c2.4,2.3,5.6,4.6,9.2,4.8,3.3.1,12.6-5,7.6-.9-9.4,7.7-23.5-6-18.3-6.1.4,0,.4,1,1.5,2.2Z"/>
      </g>
      <path class="st26" d="M164.8,142.5c2.6-.2.7.6-2.7,2-5.3,2.2-8.7,6.1-6.1,17.8.1.5-.3.3-.7.7q-4-1.3-8.1-2.6c-.3-13.9,5.2-16.8,17.5-17.9Z"/>
      <path class="st26" d="M197.1,138.4c-.2-3.4-3.6-3.4-6.1-7-2.1-3.1-3.4-10.1-3.5-10.5-2.6-8.7-10.5-12.2-10.5-12.2,0,0,12.2,14.8,7.9,34.9-.5-.1-3.6-1.9-4.3-2-4.8.6-.9,1.5,1.3,5.5,3,5.3,4.5,11.7,3.1,17.7,0,.3,0,1.6,0,1.6,0,0-.9,1.9-1.7,2.6-4.4,3.5-13,2.5-15.7,1.7-1.7-.5-4.4-1.7-4.4-1.7,0,0,2.6,7.9,17.5,7.9s12.5-11.2,13.1-14c.8-3.9,0-8.7-2.6-14-.1-.2,6.2-8.8,6.1-10.5Z"/>
      <g>
        <path d="M92.3,146.7c0,.2.5,0,.9-.4,5.2-3.5,7.9-5.2,9.6-6.1,3.5-1.7,5.8-1.8,6.1-1.9,3.3-1.1,15.4,3.2,11.1-3.3-3.9-5.9-14.9-1.4-19.6,1.1-1.5.8-8.1,6.7-8.1,10.5Z"/>
        <path d="M179.8,142.2c.5.5.7-2.1.2-3.5-3.6-9.5-23.9-7.8-25.1-3.7-1.7,6.2,9.1,1,18.8,3.5,2.4.8,3.3.8,6.1,3.7Z"/>
      </g>
      <path class="st2" d="M185.3,156.7c0,.3-.3.6-.5.3-3.4-6.4-15-8-19.4-5.8-2.7,1.3,6.5-7.1,15.1-3.2,4.3,2,4.5,6.9,4.8,8.7Z"/>
      <path class="st11" d="M190.8,160c-3.8,1.1-6.3.7-7.7-.7-.4-.4-.7-.7-.9-.9-6-8.7-22.6-4.3-21.7,5.5,2.9-2.1,4.8-7.6,13.3-6.1,4.6.8-3.2,0-5,3.3-3.5,6.4,3.7,11.2,8.3,6.3-2.6-1.5,0-1.3.4-3.1-.1,0-.3,0-.4,0-5.7,1.2-4.4-5.1,1.3-3.9,2.6.6,6.1,3.9,6.1,5.7.4,1.1-.6,2.1-.5,2,.9-.9,1.7-2.6.9-3.2,2,0,5.9-4.8,5.9-4.8Z"/>
      <path class="st2" d="M95.8,157.6s3.8-4.9,7-6.1c4.9-1.9,16.6-3.5,19.2-2.6s-10.2-4-18.5-.9c-1.1.4-3.1,1.5-4.2,2.6-3.5,3.5-3.5,7-3.5,7Z"/>
      <path class="st13" d="M180.4,151.7l4.4,20.1s2.2,3.1,3.5,2.6c3.6-1.5,6.1-7.9,6.1-14.8s-3.5-12.2-3.5-12.2l-10.5,4.4Z"/>
      <path class="st37" d="M93.1,170.9"/>
      <path class="st2" d="M90.5,178.8c4.3,4.5,11.9,8.5,17.9,7.6.5.7.4,1.3.4,1.3-4.7,1.3-9.6,1.2-14.4.2,3.2,14.3,30.3,36.5,43.9,36.9,10.7.3,47.9-17.6,53.5-32.3,1.9,2.5-3.7,6.4-2.2,7.9-5.4,7.8-14.5,13.5-22.7,17.9-9.5,5.1-22.7,11.5-33.6,9.6-6.7-1.2-24.5-12.2-29.9-17-8.6-7.6-15.7-20.6-15.5-32.9,0,0,2.5.9,2.6.9Z"/>
      <path class="st2" d="M101,135.7c-1.5.8-6.6,8.8-7.9,9.9.9-8.2,9.6-36.7,18.8-39.1,11.6-3.1-3.9,3.9-9.2,21.2-.8,2.5-.8,5.5-1.7,8.1Z"/>
      <g>
        <path class="st26" d="M135.1,186.8c-3.6-.2-6.8-2.5-9.2-4.8-1.7-9,2.9-.8,5,.4,5.4,3.2,15.7-.2,4.1,4.4Z"/>
        <path class="st29" d="M125.9,182c2.4,2.3,5.6,4.6,9.2,4.8,3.3.1,12.6-5,7.6-.9-9.4,7.7-23.5-6-18.3-6.1.4,0,.4,1,1.5,2.2Z"/>
      </g>
      <path class="st26" d="M164.8,142.7c2.6-.2.7.6-2.7,2-5.3,2.2-8.7,6.1-6.1,17.8.1.5-.3.3-.7.7q-4-1.3-8.1-2.6c-.3-13.9,5.2-16.8,17.5-17.9Z"/>
      <path class="st2" d="M211.8,182.3l.9,1.7c.9,1.7-2.6,2.6-2.6,2.6-1,.3-1.7.9-2.6,0l.9-4.4c.9-1.7,3.2-.4,3.5,0Z"/>
      <path class="st26" d="M197,138.6c-.2-3.4-3.6-3.4-6.1-7-2.1-3.1-3.4-10.1-3.5-10.5-2.6-8.7-10.5-12.2-10.5-12.2,0,0,12.2,14.8,7.9,34.9-.5-.1-3.6-1.9-4.3-2-4.8.6-.9,1.5,1.3,5.5,3,5.3,4.5,11.7,3.1,17.7,0,.3,0,1.6,0,1.6,0,0-.9,1.9-1.7,2.6-4.4,3.5-13,2.5-15.7,1.7-1.7-.5-4.4-1.7-4.4-1.7,0,0,2.6,7.9,17.5,7.9s12.5-11.2,13.1-14c.8-3.9,0-8.7-2.6-14-.1-.2,6.2-8.8,6.1-10.5Z"/>
      <g>
        <path d="M92.2,146.8c0,.2.5,0,.9-.4,5.2-3.5,7.9-5.2,9.6-6.1,3.5-1.7,5.8-1.8,6.1-1.9,3.3-1.1,15.4,3.2,11.1-3.3-3.9-5.9-14.9-1.4-19.6,1.1-1.5.8-8.1,6.7-8.1,10.5Z"/>
        <path d="M179.8,142.4c.5.5.7-2.1.2-3.5-3.6-9.5-23.9-7.8-25.1-3.7-1.7,6.2,9.1,1,18.8,3.5,2.4.8,3.3.8,6.1,3.7Z"/>
      </g>
      <g>
        <path class="st14" d="M212.7,189.2c0-1.7,0-4.4-.9-5.2s-1.6-1.8-2.6-.9c-.7.6-1.6,4-1.7,6.1s.3,3,.9,3.4c1.7,1.3,2.9,1.1,3.5.2,1.7-2.8.9-2.4.9-3.6Z"/>
        <path class="st25" d="M213.2,188.5c-.2-2.4-.4-4.2-1.4-4.5-2.6-.9-.9,2.6-3.5,4.4-1,.7-.5,2.9,0,3.5,3,3.6,5-.9,4.8-3.3Z"/>
      </g>
      <path class="st2" d="M185.2,156.9c0,.3-.3.6-.5.3-3.4-6.4-15-8-19.4-5.8s6.5-7.1,15.1-3.2c4.3,2,4.5,6.9,4.8,8.7Z"/>
      <path class="st11" d="M190.7,160.2c-3.8,1.1-6.3.7-7.7-.7-.4-.4-.7-.7-.9-.9-6-8.7-22.6-4.3-21.7,5.5,2.9-2.1,4.8-7.6,13.3-6.1,4.6.8-3.2,0-5,3.3-3.5,6.4,3.7,11.2,8.3,6.3-2.6-1.5,0-1.3.4-3.1-.1,0-.3,0-.4,0-5.7,1.2-4.4-5.1,1.3-3.9,2.6.6,6.1,3.9,6.1,5.7.4,1.1-.6,2.1-.5,2,.9-.9,1.7-2.6.9-3.2,2,0,5.9-4.8,5.9-4.8Z"/>
      <path class="st2" d="M95.8,157.8s3.8-4.9,7-6.1c4.9-1.9,16.6-3.5,19.2-2.6s-10.2-4-18.5-.9c-1.1.4-3.1,1.5-4.2,2.6-3.5,3.5-3.5,7-3.5,7Z"/>
      <path class="st11" d="M96.8,158.1h0c-2.8,2.4-6.4.3-6.4.3,0,0,1.3,3.2,4.1,3.7.1,0,.3,0,.4.1,0,1.6,0,2,.5,2.6.7-5.9,14.1-9.2,15.7-6.5.1,0,.2.2.2.3.2.2.1.3,0,.4.2,0,.2-.2,0-.4,0,0-.1-.2-.2-.3-14.5,3.5,1,17.3,4.4,6.5-1.9,2.3-4.3,1.2-3.1-1.7-.8-.2-1.3-.4-1.8-.6.5.2,1.1.3,1.8.6,1.8-.4,2.5-3.1,3.5-3.1.5,0,2.9,2.5,3.5,3.9,1-11.3-16.1-13.7-22.6-6Z"/>
      <g>
        <path class="st24" d="M125.4,159.6c0,13.7-13.4,23.6-24.4,23.6s-16.6-9-16.6-22.7,8.1-19.2,19.2-19.2,21.8,4.6,21.8,18.3Z"/>
        <path class="st24" d="M194.4,160.6c0,19.9-15.6,26-28.6,26s-19.4-9.9-19.4-25.1,9.5-21.2,22.5-21.2,25.5,5.1,25.5,20.2Z"/>
        <g>
          <path d="M198.7,168.3c5-8.4-3.3-16.4-4.4-19.2-2.6-7-5.9-8.8-8.7-9.6s-5.2-.9-11.3-.9-25.3-2.6-30.1,12c-6.3-2.7-11-2.3-17.5-.9-1.3-2.4-4.8-10.2-17.9-11.1-1.7-.1-8-.6-14,.9s-6.9,2.5-8.7,4.4c-1.9,1.9-4,8.5-4.4,15.7-.3,6.1,1.7,14.8,2.6,16.6s2.6,5.2,5,6.5c11.6,6.6,13.1,4.3,18.5,4,13.1-.9,23-16.1,22.7-28.6,18.5-1.7,6.6,3,15.9,19.9,2.2,4,8.5,9.6,14.6,11.4s12.9,1.6,20.1-1.7c11.3-5.2,14.8-14.8,17.5-19.2ZM123.5,161.9c-.2,6.6-2.9,11.8-7.1,15.1-5.4,4.3-13.3,5.7-21.7,3.2-5-1.5-6.8-5.5-7.6-7.6-3.5-8.7,0-20.9.9-23.6,1.7-5,9.1-6.7,14-7,7.5-.4,15.1.2,19,7.6,1.8,3.5,2.8,8.2,2.6,12.2ZM152.3,177.9c-3.1-4.1-4.7-12.2-4.8-17.2-.3-13.9,4.5-16.7,17.5-17.9,4.9-.5,10-.8,14.8,0,.7.1,2.1.3,2.6.4,1.9.5,3.7,1.2,5.1,2.5s3.8,5.2,5.2,14.8c.4,3,0,7-1.5,11,0,0,0,0,0,0-7.8,17.8-31.5,16.1-38.8,6.3Z"/>
          <path class="st36" d="M211.5,148c-.5-.6-12-5.5-14-6.1-2.2-.6-7.1,0-7.5.2,4.1,3.9,2.5,13,6.1,16.6s3.2-1,5-2l.2.2h1.7v-.7c7.9-.6,10.4-2.6,13.1-1.1-.4-1.4-3.9-6.3-4.8-7.2Z"/>
          <g>
            <path class="st4" d="M82.9,151.5q-4.4,2-8.7,3.9c-.5-1-2.3-8.4-1.1-9.2,19.9-3,15.5-9,9.8,5.2Z"/>
            <path d="M82.9,151.5q-.5,4.4-1.1,8.7c-2.8-1.8-6.1-1.5-7.6-4.8q4.4-2,8.7-3.9Z"/>
          </g>
          <path d="M212.7,156.9c-.7-.5,3.9-1,3.5-2.6-2.6-1.5-5.3.7-11.8,1.8-8.3.7-10.9-1.8-10.9-1.8l.9,2.6c0,.5.4,2.1.9,3.8l-1.8.6,1.8,6c4.7-4.7,7.3-3,13.1-7.9,2.1-1.6,3.9-2.5,4.4-2.6Z"/>
        </g>
      </g>
      <path class="st26" d="M170.9,230.7l4.7,9.2c2.8,5.5,7.8,9.6,13.7,11.3l10.9,3.1-15.8,32-58.4,20-27.8-10.7,8.7-43.1s16.7-1.8,20.9-5.2,4.5-10,4.5-10c0,0,1.2,5.7,5.5,9.9s6.8,4,6.8,4l26.3-20.7Z"/>
      <path class="st11" d="M96.9,157.9h0c-2.8,2.4-6.4.3-6.4.3,0,0,1.3,3.2,4.1,3.7.1,0,.3,0,.4.1,0,1.6,0,2,.5,2.6.7-5.9,14.1-9.2,15.7-6.5.1,0,.2.2.2.3.2.2.1.3,0,.4.2,0,.2-.2,0-.4,0,0-.1-.2-.2-.3-14.5,3.5,1,17.3,4.4,6.5-1.9,2.3-4.3,1.2-3.1-1.7-.8-.2-1.3-.4-1.8-.6.5.2,1.1.3,1.8.6,1.8-.4,2.5-3.1,3.5-3.1.5,0,2.9,2.5,3.5,3.9,1-11.3-16.1-13.7-22.6-6Z"/>
      <g>
        <path class="st24" d="M125.5,159.4c0,13.7-13.4,23.6-24.4,23.6s-16.6-9-16.6-22.7,8.1-19.2,19.2-19.2,21.8,4.6,21.8,18.3Z"/>
        <path class="st24" d="M194.4,160.4c0,19.9-15.6,26-28.6,26s-19.4-9.9-19.4-25.1,9.5-21.2,22.5-21.2,25.5,5.1,25.5,20.2Z"/>
        <g>
          <path d="M198.8,168.1c5-8.4-3.3-16.4-4.4-19.2-2.6-7-5.9-8.8-8.7-9.6s-5.2-.9-11.3-.9-25.3-2.6-30.1,12c-6.3-2.7-11-2.3-17.5-.9-1.3-2.4-4.8-10.2-17.9-11.1-1.7-.1-8-.6-14,.9s-6.9,2.5-8.7,4.4c-1.9,1.9-4,8.5-4.4,15.7-.3,6.1,1.7,14.8,2.6,16.6s2.6,5.2,5,6.5c11.6,6.6,13.1,4.3,18.5,4,13.1-.9,23-16.1,22.7-28.6,18.5-1.7,6.6,3,15.9,19.9,2.2,4,8.5,9.6,14.6,11.4,4.3,1.2,12.9,1.6,20.1-1.7,11.3-5.2,14.8-14.8,17.5-19.2ZM123.5,161.7c-.2,6.6-2.9,11.8-7.1,15.1-5.4,4.3-13.3,5.7-21.7,3.2-5-1.5-6.8-5.5-7.6-7.6-3.5-8.7,0-20.9.9-23.6,1.7-5,9.1-6.7,14-7,7.5-.4,15.1.2,19,7.6,1.8,3.5,2.8,8.2,2.6,12.2ZM152.3,177.7c-3.1-4.1-4.7-12.2-4.8-17.2-.3-13.9,4.5-16.7,17.5-17.9,4.9-.5,10-.8,14.8,0,.7.1,2.1.3,2.6.4,1.9.5,3.7,1.2,5.1,2.5.4.4,3.8,5.2,5.2,14.8.4,3,0,7-1.5,11,0,0,0,0,0,0-7.8,17.8-31.5,16.1-38.8,6.3Z"/>
          <path class="st36" d="M211.5,147.8c-.5-.6-12-5.5-14-6.1-2.2-.6-7.1,0-7.5.2,4.1,3.9,2.5,13,6.1,16.6.6.6,3.2-1,5-2l.2.2h1.7v-.7c7.9-.6,10.4-2.6,13.1-1.1-.4-1.4-3.9-6.3-4.8-7.2Z"/>
          <g>
            <path class="st4" d="M83,151.3q-4.4,2-8.7,3.9c-.5-1-2.3-8.4-1.1-9.2,19.9-3,15.5-9,9.8,5.2Z"/>
            <path d="M83,151.3q-.5,4.4-1.1,8.7c-2.8-1.8-6.1-1.5-7.6-4.8q4.4-2,8.7-3.9Z"/>
          </g>
          <path d="M212.8,156.8c.7,0,1.3.1,1.8.2s.6,0,.6,0c0,0,.8-.7.9-.9.4-.5.4-1.3.2-2-2.6-1.5-5.3.7-11.8,1.8-8.3.7-10.9-1.8-10.9-1.8l.9,2.6c0,.5.4,2.1.9,3.8l-1.8.6,1.8,6c4.7-4.7,7.3-3,13.1-7.9,2.1-1.6,3.9-2.5,4.4-2.6Z"/>
        </g>
      </g>
    </g>
    <g>
      <path class="st18" d="M114.7,306"/>
      <path d="M57.5,220.2s-.6,0-.8-.4c.5-.5.7.4.8.4Z"/>
    </g>
  </g>
  <g>
    <g id="Generative_Object">
      <path class="st7" d="M174.6,458.4s-36.6,9.4-53.2-8.1c-.5-.5-1.4-.3-2.1-.4-4.9-.2-22.1,4-20.7,9.7.2.9,1.6,11.1,5,13.9,6.1,5.2,37.5,7,58.5,6.1,12.5,0,47.1-9.7,48-14.1.8-4.2.8-10,1.7-15.3-21.7,12-37.1,8-37.1,8Z"/>
    </g>
    <path class="st16" d="M230.7,305.1c.7-1.8,4.4-14,3.2-19.4-1.9-7.5-4.7-14.8-9.7-20.7-9.7-11.4-20.1-8.7-27.9-11.1-1.8,3.8-4,7.5-6.5,10.9-8.1,13.7-43.5,27.5-46.5,27.9-6.5.9-25.1-9-26.6-8.7-.3,0-4.5-2.2-4.6-2.4-1.2-2.7-3.6-29-5.2-29-6.5.5-9.8.8-15.9,4.4-8.9,5.1-18.2,20.1-15.9,24.7,3,6,10.9,15.6,17,20.9,1.6,1.4,3.4-.8,4.3-2.5-2.9,6.7-8,17.3-6.9,26.1,1.2,10,6.1,15.7,9.6,18.3,2.4,1.8,7.9,3.5,7.9,3.5,0,0,4.4,4.6-.9,13.1-2.1,3.4-8.7,12.4-16.5,32.6-4.2,16.7-7.7,33.5-10,50.6-.3,1.9-.7,10.3-.5,13.5,12.9,8.6,43.6,9.2,58.9,8.9,15.1-.3,61.5-6.9,73.8-11.4,4.1-1.5,8.9-3.5,12.7-5.7-1.9-13.6-5-26.9-8.7-40.1-2.8-9.9-5.6-19.6-10.5-28.8-6.5-5.1,28-20.8,29-31.2,0,0-5.8-37.3-3.3-44.1Z"/>
    <path class="st16" d="M179.7,279.3l-35.2,38.1s-25.5,32.2-37.4,30.4-17.6-11.1-17.5-25.5,2.5-12.2,4-16.1-2.1-12.2-1.9-19.1c.5-15.4,2.3-33.5,3.3-33.8,2.1-.5,10.9-2.1,12-.8,2.2,2.6,0,13.8,5.1,21.3s11.8,16,22.6,16.9c30.2,2.5,50.9-17.7,45-11.5Z"/>
    <g>
      <path class="st18" d="M114.8,306"/>
      <path d="M57.6,220.2s-.6,0-.8-.4c.5-.5.7.4.8.4Z"/>
    </g>
    <path class="st27" d="M112.1,349c4.4,0,8.7-2.6,8.7-2.6-5.2,2.6-14,1.5-14,1.5,0,0,1,1.6.9,4.4-.1,2.9-1.3,7.1-3.5,10.8-3.5,6.1-6.2,11.3-8.4,15.6-2.4,4.2-4.2,8.9-5.3,11.9-.8,2-1.1,3.1-1.1,3.1-4.7,16.7-8.4,40.3-8.4,40.3,0,0,2.9-21.7,15.2-39.6,5.3-7.7,15.9-45.2,15.9-45.2Z"/>
  </g>
  <path class="st27" d="M199.8,371.8c-4.3-6.1.4-16.1,1.5-27.4,2-2.6,3.8-5.9,4.4-8.9.8-3.1.4-13.8-2.4-21.6-1.4.2,4,11.1-.7,20.8-1.8,2.6-4.3,6-8.2,8.7-1.9,1.2-4.2,2.2-6.9,3.2-5.2,1.4-12,1.5-21.1-1.1,0,0,10.5,5.2,17.1,4.7s11.4-3.5,11.4-3.5c0,0-1.4,16.5,1.3,20.6,1.9,2.8-3.6,6.9-10.1,9.5s-8.6.1-17.4-4.7c-7.5-4.2-20.6-4.9-22-4.1s-6.4,8.2-6.2,8.9c3,9.9,60.9,12.4,63.4,17.6,6.5,13.5,14.2,54.8,13.1,58.5.4,0,5.9-3,8.7-4.4s-6.9-49.5-25.9-76.6Z"/>
  <g>
    <g>
      <path class="st5" d="M280.3,353.1"/>
      <path class="st22" d="M241.3,243.7"/>
      <g>
        <g>
          <path class="st23" d="M149.5,441.1s-11.9-21.8-8.4-41.7c.6-3.4,1.6-6.8,2.2-10.2.8-4,5.8-11.3,6.5-15.3s-3-7.2-5.8-7.4c.2-.3-14,7.9-17.6,16.7-1.7,4.3-7,25.6-7.4,31.8-.5,6.9-1.4,11.1-.9,15,.8,5.8,4.2,14.3,9.2,14.9,16.8,1.8,22.2-3.9,22.2-3.9Z"/>
          <g>
            <path class="st27" d="M236.2,384.5c.1-1.4-3.6-5.8-7.3-8.8-5.7-4.7-13.7-6.5-14-5.9-.6,1.3,15.5,22.2,15.5,25.3,1.3,6.4-.9,13.4-4.6,18.6-.8,1.1-1.7,2.3-2.6,3.4-7.5-.6-15.3,5.5-28.3,1.4-1.9-.6-6.1-2.2-7.8-3.1-22.2-10.8-18.6-25.4-22.1-44.4,0,0-1.8-.6-2-.7.9,6.8-17.1,13.3-19.5,18.9-.7,3.4-1.6,6.8-2.2,10.2-1.6,8.8-3.6,17.3-3.2,24.6-1.5,10-5.1,24.8-12.9,20-2.3-1.4-4.6-4.8-5.5-9.7-2.8-14.4,2.5-34.6,3.2-36.9-5.8,20.4-7.4,41.3.4,46.9,3.8,2.7,9.3,5.2,17.8,1.6,11.6-5.1,26.4-7.7,40.9-10.4,17.1-3.1,25.3-7,39.8-11.8.4-.3,12.1-6.2,15.4-16.7,2-6.3,1.8-10.2-.7-22.5Z"/>
            <path class="st38" d="M122.7,397.4c0,0,0-.1,0-.2,0,0,0,0,0,.2Z"/>
          </g>
        </g>
        <path class="st16" d="M236.9,407.1c1.9-19.5-6-30.7-20.6-36.8-1.5-.6,13.2,1.4,19.9,14.3,0-1.6,14.2-120.6-13.2-123.4-2.7,1.6-3.2,3.3-8.5,8.4-6.5,6.3-11,17.5-13.8,26.7-.4,1.2-.8,2.3-1.1,3.4-2.1,7.7,7.6,5.3,7.7,7.4s21.9,39.2,22,40.9c.3,8.6-29.4,14.5-28.7,13.2h.1c-.8,1.8-1.6,3.5-2.1,5-2.7,8.2-7.8,10.8-7.8,10.8-4-.2-6.8,1.8-15.3-.9-1.7-.6-8.4-2.6-10.5-3.3,1.2,19.2-2.4,14.3,2.8,36.2,1.6,6.5,7.7,11.5,10.7,15.6,5.6,7.6,16.9,9.3,42.8-.6,5.2-2,14.9-11.3,15.4-16.7Z"/>
        <path class="st27" d="M209.7,375.5c-4-1.4-8.1-2.6-12.5-1.9-.2,0-.4-.2-.2-.4.7-.8,2.1-2.4,3.9-3.9,2.5-2,10.5-7.7,11.9-9.6.5-.7.6-1,.4-.9-.3,0-1.5,1.1-1.6,1.2s0,0,0,0c-6.2,4.4-9.2,4.8-11.4,5.7s-.4-.1-.3-.3c.8-2.2,5.2-6.2,5.4-6.9.2-.7-5,3.6-5.8,4.5s-.4,0-.4-.1c-1-8-2.1-9.7-1.1,4.1,0,.5-1.4,3.4-2.6,4.9-.8,1-1.5,1.9-1.5,1.9-.4.5-2.6,2.8-3.2,3.1.5.2,2.2-.9,2.9-1s.1,0,.2,0c5.6,4.5,16.5,16.8,18.1,23.3s.5.2.5,0c.4-4.5-3.5-16.9-11-21.9-.2-.2,0-.5.2-.5,3.2.9,7.4,2.6,11.1,4.9,7.4,4.6,11.4,11.3,14.9,19.1s.4.2.5,0c1.6-6.3-6.6-21.1-18.3-25.2Z"/>
        <path class="st27" d="M217.5,278.4c15.2,5.2,15.7-4.6,16.7-4.9,6.7,7.4-10.2,11.9-16.7,4.9"/>
        <path class="st27" d="M218.7,274.1c1.4-4.1,8.2-2.1,11.3-5.2-.8,5.5-8.1,1.4-11.3,5.2"/>
        <path class="st16" d="M154.3,368.1c-1.3-.4-3.5,0-6.5-1.8-2.6-.8-3.9.2-3.7.3,9.1,2.9-5.4,23.5-4.7,43.9.6-4.1,6.9-5.7,9.9-4,2.1,1.8,5.6-4,7.4-.5,1.6,3.1,2.2-5.6,9.6,8.1,1.4,2.6,4.7,8,8.4,9.9-2.4-1.5-5.8-7-7.1-9.5-9.3-18.1-2.1-27.3-4.7-44.1-2.9-1.2-5.6-1.3-8.6-2.3Z"/>
        <path class="st35" d="M135.7,381"/>
      </g>
      <path class="st38" d="M193.4,230.5"/>
      <path class="st38" d="M253.3,331.9"/>
      <g>
        <g>
          <path class="st0" d="M55.4,403.3c-.1-.7-.2-1.4-.3-2,0,.7.2,1.3.3,2Z"/>
          <path class="st16" d="M83.3,269.6c1.3,1.8,17.9,12,18.4,11-.5-.5-1.1-.9-1.6-1.4-6.2-6.8-9.4-14.3-11.9-23-.6.4-2.3.5-2.9.8h0c-8-1.5-15.1,2.5-16.9,10.7-.2.8-1.2,13.8-1.4,16.7-5.3,16.4-3.7,34.2-6.7,51-.3.3-.5.5-.8.8-4.8,5.4-3.5,7.7-5.6,13.9-.9,2.7-2.5,6-3.2,8.4-1.4,4.9-4.5,14.9-4.5,19.3,0,3.4-.6,8.8,3.7,16.9,1.3,2.6,4.8,8,6.7,10.5,2.2,2.8,2.9,2.2,5.2,3.9,0,0,0,.2.1.2,2.9,3.1,5.4,7.8,10.8,8.9,0,0-.1-.1-.2-.2,6.7,5.2,12,8.4,17.3,10.7,3.1,1.4,8.1,1.5,10.3,3,14.9,10.5,16.5-21,16.3-20.4-8.8,27.9-12,16.5-17.3,16.2-15.7-.7-13.6-49.3-5-71.5,0-.1.2-.3.3-.4,1-1.9,2.5-5.7,7,1.5,2.2,3.5,3.8,7.4,5.8,9.9,0,0-.9-8-5.5-15.2-1.2-2-2.5-4.7-11-.6-.3-.1.2-5.6-.4-8.3-.5-2.8-2.4-6.2-2-9.1,3.1-27.6-4.7-56.5-4.7-56.6-.2-1.2-3-9.2,1.3-10.1s-1.7,2.6-1.7,2.6Z"/>
          <path class="st27" d="M59.8,372s-2.3,5.9-2.8,7.2c-1.9,5.1-5.2,10.8-1.6,24.1,1.1,4.2,3.9,4.4,7.3,6.9-3.2-4.8-5.2-9.1-6.4-13-.4-1.3-.7-7.9-.5-9.5.5-4.6,4-15.6,4-15.6Z"/>
          <g>
            <path class="st21" d="M58.7,358.4s0,0,0,0c0,0,0,0,0,0Z"/>
            <path class="st27" d="M88.2,348.9s-.6-2.8-3-5.2c-3.5-2.8-5.4-7.8-8.5-10.4,8,13.4,4.8,8.5,9.7,14.2-2.3-2.1-8.8-6.2-10.5-8-1.2.7,8.7,8.7,12.1,12.8-7.2-3.2-24.6-1.7-28.5,6.2.4-.7,4-5.6,17.1-6.2,4.8-.2,10,1.2,10.2,1.2.3,0,.7,0,1.1-.2-5.5,5.7-5.5,12.5-5.5,12.5,1.7-9.6,8.8-14.5,8.8-14.5,0,0-1.6-.4-3-2.2Z"/>
          </g>
          <path class="st27" d="M99.2,427.4c-2.4-1-4.2-2.2-6.3-5.3-1.6-2.4-3.9-8.1-3.9-8.1,0,0-1.3,5.9-6.8,5.6-4.4-1.8-8.5-3-10.5-6.4-1.1-1.8-1.4-4.8-1.5-7.4,0-.3-.4,0-.4,0,0,0,0,10.8,3,12.4.5.4,1,.8,1.5,1.1.2.2.4.3.6.5,0,0,0,0,.1.1.7.6,1.5,1.2,2.2,1.7,0,0,.1,0,.2.1.5.4.9.7,1.4,1,0,0,0,0,0,0,5.3,4.3,5.1,3.3,11,5.8,3.1,1.4,8.9,2.3,11.2,3.6,18.5,10.2,18.4-21.7,16-33.1-3.1-14.4-13.4,30.1-17.8,28.3Z"/>
          <path class="st23" d="M96.2,352.4c-12.2,17.3-15.7,67.9,3.1,75.2,5.1,2,12.9,11.5,17.7-15.8,1.9-10.8-.6-23-5.5-35.3-7.9-19.9-7.8-19.2-10-22.4-2.7-4.1-5.2-1.8-5.2-1.7Z"/>
        </g>
        <path class="st30" d="M70.6,271.3c0,.1-.1.3-.1.4,0-.1,0-.3.1-.4Z"/>
      </g>
      <path class="st35" d="M178.1,319"/>
      <path class="st27" d="M93.6,306.3c2.3-10-4.2-10.1-5.5-14.5-.5-1.7-3.2-4.7-3-11.4.4-9.8,1.1-21.4.6-23.8-.9.1-.9,0-1.7.3.1.2-2-.9-3.9.6-5.3,4-4.1,18.2,1.9,28,1.1,1.8,0,4.3.1,6.5.1,3.7.5,7.4,1,10.9,1.3,8.6,4.3,20.1,4.7,28.9.2,5.5,3.9,17.2.2,20.7-.4.4,3.3-1.4,3.8-1.8,3.2-2.8,5.1-8.1,5.1-8.1,0,0-2.9-3.7-3.8-4.9s-5.2-8.9-3.4-19.4,3.3-9.4,3.9-12.1Z"/>
    </g>
    <g>
      <path class="st26" d="M146.8,369.5s-1.3-.2-1.8-.3c-1.1-.7-1.3-3.3-1.7-4.5-1.6-5.2-1.7-18.1-5.3-29.9-.5-1.6-2.2-4.1-1.2-5.6-2.2-.5-2.3-3.2-4.3-2.9-.6.1-1.7,8.4-2.3,11.1s-1,.6-1.2,0c-.8-3-2.6-11.8-5-9-.4.5-.9,3.6-2.3,4l-8.3,25.7-3.8,6.6c-1.8.8-13.5-.7-16.4-1.2-.8-.1-1.7-.3-2.5-.5-.4,1.3-.8,2.7-1.2,3.9-1.4,4.3-2.6,8.6-3.3,12.9,9.5.5,20.7,0,23.4-1.7,4,5.8,11.8,2.2,13.4-2.5,2.8-8.2-2.2-24.4.7-34.8,2-7.2,8.1-5.7,7.4,5.1-.3,4.3-6.4,14.8-5.8,25.7.4,7.8,7.7,15.9,15.1,9.9.8.3,3.7,2.1,3.7,2.1,0,0,2-6.9,2.4-9.2.6-3.4,0-4.9,0-4.9Z"/>
      <g>
        <path class="st2" d="M144.4,383.7s-2.9-1.7-3.7-2.1c-7.4,6-14.6-2.2-13.7-9.9s1.9-5.9,2.7-10.4c1.2-6.6,1.5-13.9,1.9-14.5,1.2-1.7,5.6,15.2,6.5,13.9s-1.5-11.7-1.6-12.5c-.5-2.6-.4-4.4-1-6.3s-.5-3.1-1.3-4.2-1.4-1.7-2.1-2.3-1.7,1.3-2.2,1.3c-.7,0-1.6-2.1-2.4-1.4-1.4,1.2-2.8,3.3-3.5,5.6-1.3,4.6-11.5,29.8-1.9,16.1s2,14.1.9,18.5c-1.1,4-9.1,8.6-13.1,2.7-2.7,1.8-13.9,2.2-23.4,1.7-.4,2.4-.5,4.9-.4,7.4.2,0,.3,0,.5,0,9.2.2,32.6-.9,37.9-8.7,2.5,4.4,18.1,11.1,18.1,11.1l1.8-6.1Z"/>
        <path class="st26" d="M124.1,345.6c3.3-1.2,2.7-4.9,3.9-7.5,2.2,2.8,1.4,6.8,0,10.1s-.6,1.1-.7,1.7c-.8,2.9-.8,5.1-1.8,7.5s-.5,9.8-1.6,11.9c-3.7,6.9-9.6,5.3-9,.3,0-.5,9.2-23.6,9.2-24Z"/>
        <path class="st28" d="M128,338c-1.1,2.6-.5,6.3-3.9,7.5.3-2,3.4-11.3,3.9-7.5Z"/>
      </g>
    </g>
  </g>
  <path class="st27" d="M220.4,263.3c-.4-.5-.5-1.6-4.7-1.7-56.5,74.7-103,50.5-103,50.4-7.8-3.7-26.5-50.1-26.7-50,1.2,9.4,4.4,23.7,8.9,33.2,3.3,7,14.4,27.7,30.4,27.7,0,0,0,0,0,0,16.6,2.2,41.1-6.5,60.7-20.6,7.9-5.7,16-16.4,24.9-25.6,4.1-4.2,11.4-11.6,9.4-13.4Z"/>
  <g>
    <path class="st16" d="M128.9,290.8c0,0,0-.1,0-.2-7.8-3.7-17.6-13.1-19-17.3-2.8-8.5-2.6-10.7.3-20.4s.3-.4.4-.5c-3.2-1-6-2.7-10.4-.1s0,0,0,.1c0,21.1-.9,10.5-1.7.2s0,0,0-.1c-5.1-.8-6,.4-9,3.4,0,0,0,0-.1,0-2.7,3.2-2.7,9-2.7,9.1-.6,9.5,3,17.3,7.5,26.7,3.3,7,14.4,27.7,30.3,27.7s0,0,.1,0c2.2-6.2.7-23.4,4.6-28.5Z"/>
    <path class="st27" d="M100.1,252.3c-.6,18.1.4,23.1,11.6,37.4-14.4-14.9-12.7-23.8-13.4-37.1,0,0,.4-.4,1.8-.2Z"/>
  </g>
  <g>
    <path class="st16" d="M214.5,257.7c-.2-3.7-6.5-4.3-10-2.9-11,11.4-10.8,11.7,0,0-2.1-4-4.1-4.2-10.7-2.3,0,.7-.7,1.8-.8,2.6-2.2,12.6-17.5,26.6-30.1,32.5-10,4.6-23.5,3.1-34.6,3.2-2.5,6.8-3.5,21.9-3.9,28.7,16.6,2.2,41.1-6.5,60.7-20.6,7.9-5.7,16-16.4,24.9-25.6,4.1-4.2,11.6-12.6,9.6-14.4-.4-.5-1.7-2.9-5.1-1.2Z"/>
    <path class="st27" d="M205.2,254.5c-9.6,12.6-17.8,25.2-37.1,38.5,18.2-12.5,26.6-26,35.9-38.9.9.3,1.1.4,1.2.4Z"/>
    <path class="st27" d="M185.9,265.9c-13.2,17.2-34.4,22.2-56.8,21.9-15.7-7.5-21.9-23.8-19.6-35.3-7,19.6,8,34.3,18,39.1,0,0,0,0,0,0,0,0,0,0,0,0,.1,0,.2.1.3.2,0,0,0,0,0,0,13.8,4.9,25,.5,35-4.1,12.7-5.9,28.9-20.1,30.8-34.5-1.8,4-5.1,9.4-7.8,12.9Z"/>
  </g>
  <path class="st27" d="M98.4,286.5c2.9,10.2,10.7,19.1,21,22,19.3,5.2,40.8-6,57.5-14.9-13,8.6-27.4,16.2-43.2,17.8-17.3,1.8-31.7-7.6-35.3-24.8h0Z"/>
  <path class="st27" d="M204.5,331l-.7,7"/>
  <g>
    <path class="st31" d="M217.7,23.8c5,12.3-4.4-3.5-24.3-10.7-10-3.6-22.7-5.8-33.3-7.4-9.4-1.4-30-5-35.7,1.8-3.4.7-12.9,4.6-14.9,6.5l-2.6-2.2c.8-1.2-1.8-2,5.9-6.8,24.1-9.1,86.8-.1,104.8,18.8Z"/>
    <path class="st34" d="M160.1,5.8c-1.6,5.2-18.2-2-35.7,1.8,5.7-6.8,26.3-3.2,35.7-1.8Z"/>
    <g>
      <path class="st7" d="M217.7,23.8c5,12.3-4.4-3.5-24.3-10.7-10-3.6-22.7-5.8-33.3-7.4-1.6,5.2-18.2-2-35.7,1.8-3.4.7-12.9,4.6-14.9,6.5-.4.4-3.2,5-3.8,6.6-5.2-6.6.9-8.3,1.2-8.8.8-1.2-1.8-2,5.9-6.8-12,4.5-16.9,12.1-5.8,21.8,9.1,8,36.7,15.6,48.9,17.8,7.1,1.3,15.8,2.3,23,2.7,21.6,1.2,57.3-4.1,38.7-23.5ZM155.8,36.8c-39.6-7.9-54.3-31-2.9-25.7,8.3.9,51.9,8.7,52.4,18.7.7,13.5-41.3,8.6-49.5,7Z"/>
      <path class="st34" d="M106.9,11.8l2.6,2.2c-.4.4-3.2,5-3.8,6.6-5.2-6.6.9-8.3,1.2-8.8Z"/>
    </g>
  </g>
  <path class="st28" d="M131,338.1c.9,2.7,0,6.3,3.2,7.9-.1-2-2.3-11.6-3.2-7.9Z"/>
  <path class="st26" d="M134.1,345.9c-3.2-1.5-2.3-5.2-3.2-7.9-2.5,2.6-2,6.7-1,10.1s.5,1.2.6,1.8c.5,2.9.4,5.1,1.1,7.7s-.4,9.8.5,12c3,7.2,9.1,6.2,9,1.1,0-.5-6.9-24.4-6.9-24.8Z"/>
  <path class="st28" d="M125.4,326.1c-1.1,2.6-.5,6.3-3.9,7.5.3-2,3.4-11.3,3.9-7.5Z"/>
  <path class="st28" d="M134.7,326.3c.9,2.7,0,6.3,3.2,7.9-.1-2-2.3-11.6-3.2-7.9Z"/>
</svg>