<?xml version="1.0" encoding="UTF-8"?>
<svg id="Layer_1" xmlns="http://www.w3.org/2000/svg" version="1.1" viewBox="0 0 310 491">
  <defs>
    <style>
      .st0 {
        fill: #29574f;
      }

      .st1 {
        fill: #72bfb3;
      }

      .st2 {
        fill: #c45f41;
      }

      .st3 {
        fill: #c05e58;
      }

      .st4 {
        fill: #03030a;
      }

      .st5 {
        fill: #8e3226;
      }

      .st6 {
        fill: #96cbc0;
      }

      .st7 {
        fill: #f7b750;
      }

      .st8 {
        fill: #a34737;
      }

      .st9 {
        fill: #a1a2a3;
      }

      .st10 {
        fill: #23110a;
      }

      .st11 {
        fill: #66bcb8;
      }

      .st12 {
        fill: #281a26;
      }

      .st13 {
        fill: #f0935d;
      }

      .st14 {
        fill: #bdeded;
      }

      .st15 {
        fill: #c12e4b;
      }

      .st16 {
        fill: #e5fdfe;
      }

      .st17 {
        fill: #958a8d;
      }

      .st18 {
        fill: #2e643c;
      }

      .st19 {
        fill: #fbfbfc;
      }

      .st20 {
        fill: #a9a1a0;
      }

      .st21 {
        fill: #fff;
      }

      .st22 {
        fill: #281f30;
      }

      .st23 {
        fill: #c9892d;
      }

      .st24 {
        fill: #e6794d;
      }

      .st25 {
        fill: #7aebe9;
      }

      .st26 {
        fill: #27151d;
      }

      .st27 {
        fill: #040106;
      }

      .st28 {
        opacity: .2;
      }

      .st29 {
        fill: #268c8c;
      }

      .st30 {
        fill: #511407;
      }

      .st31 {
        fill: #c392c2;
      }

      .st32 {
        fill: #bf5a41;
      }

      .st33 {
        fill: #661b6a;
      }

      .st34 {
        fill: #17ae9d;
      }

      .st35 {
        fill: #d53a5c;
      }

      .st36 {
        fill: #4d3340;
      }

      .st37 {
        fill: #95409b;
      }

      .st38 {
        fill: #29999b;
      }

      .st39 {
        fill: #120f12;
      }

      .st40 {
        display: none;
      }

      .st41 {
        fill: #320532;
      }

      .st42 {
        fill: #1d121b;
      }

      .st43 {
        fill: #382e41;
      }

      .st44 {
        fill: #4e0b1b;
      }

      .st45 {
        fill: #b175a7;
      }
    </style>
  </defs>
  <g>
    <path class="st39" d="M241.6,163.1c-2.4-1.4-1.3,3.7-8.4,4.2,0-5.8-1.1-8-5.4-12l.6-.6c1.7.5,11.8,4.9,12.2,5.4.7.8.6,1.8,1,3.1Z"/>
    <path class="st39" d="M241.6,163.1c.4,1.4.1,3.7.8,4.2-.9.2-6.8,6.1-9.6,5.7.3-1.7.4-4,.4-5.7,7.1-.5,6-5.6,8.4-4.2Z"/>
  </g>
  <path class="st2" d="M290.7,364.5c0,8.6-4.8,14.9-13.4,15.6-12.6,1-32.9-12.3-35.8-25.8.2-1.3-1-2.9.5-1.8,1.3,1,6.8,15.7,25.8,20.1,30.9,7.2,15.6-19.9,17.2-21,3-2.1,5.4,10.9,5.7,13Z"/>
  <path class="st24" d="M285.4,347.3c-6.7-14.9-11.8-26.5-18.3-41.5-8.5,7.2-19.9,7.5-19.9,7.5,0,0,9.5,23.3,11.4,27.8,8,1.6,18.3,2.3,23.8,9.1-6.5-1.7-14.2-5.2-20.6-6.6-4.1-.9-9.1-1.1-10.2-1.3-8-1.6-7.2-5.2-14.7-8.7-2.8-1.9-8.5-5-12.4-8.4,0,0-13.8-2.2-13.8-2.4-2.6-.1-8.5-2.7-10.4-2.1-.1,0-.3,0-.4,0-.9.6-.7,2.7-.3,3.7.6,1.3,10,4,9.5,4,8.4.6,18,18.1,15.4,20.8-11.5,12.3-19.9,2.6-19.3,12.1,0,0,0,0,0,0,.2,3.9,2.1,2.9,5.2,3.8-.5.7-.6,1.7-.1,2.1,1.4,1.3,19,2.1,25.2-2.1,3.9-2.7,6.3-6.8,6.9-11.5.2-1.3,6.5,14.4,25.5,18.8,30.9,7.2,15.6-19.9,17.2-21,3-2.1,5.4,10.9,5.7,13,0-7-2.6-11.2-5.3-17.3ZM228,332.3c.3,0,.6.3.9.6-.3-.3-.6-.5-.9-.6-.2,0-.6,0-1,0,.4,0,.7,0,1,0ZM230.6,352.2c-.2.2-.3.3-.5.5.2-.2.3-.3.5-.5ZM223.4,358c-.9.6-1.9,1.2-2.8,1.7-2.5,1.4-5.2,2.3-8,2.6,2.8-.3,5.4-1.3,8-2.6,1-.5,1.9-1.1,2.8-1.7ZM217.2,364.4c-.8.1-5.2,0-5.5,0h0c.3-.1,4.6.1,5.5,0ZM211.4,362.4c-.5,0-1,0-1.6,0,.5,0,1,0,1.6,0Z"/>
  <path class="st5" d="M205.3,360.7s8.3,2.6,17.5-.8,10-8.1,10-8.1c0,0,.2,3.2-1,4.2s-15.4,11.2-26.6,4.7Z"/>
  <path class="st5" d="M210.4,365.1s8.3,2.6,17.5-.8c3.3-1.2,5.3-3.3,6.8-4.5,2.7-2.3,3.2-3.5,3.2-3.5,0,0-.9,3.6-2.1,4.5s-8.1,5.8-16.9,5.9c-2.9,0-5.8.1-8.5-1.5Z"/>
  <g>
    <g>
      <g>
        <path class="st13" d="M214.8,162.6l3.8,17.6s1.9,2.8,3.1,2.3c3.1-1.3,5.4-6.9,5.4-13s-3.1-10.7-3.1-10.7l-9.2,3.8Z"/>
        <g>
          <g id="Background" class="st40">
            <path class="st9" d="M168.9,438.3c-58.6,0-117.2,0-175.8,0V46.9h391.4v391.4c-48,0-96.1,0-144.1,0l1.5-9.2c3.6-1.3,7.8-3.1,11.1-5,2.6-1.5,5.4-2.9,6.5-5.9-.4-5.3-1.8-10.4-3.1-15.5,60.1-43,76.7-107.7,26.8-167,.3-.1,2.9,0,6.7-2.3,8.6-5.3,10.7-15.8,6.7-24.7,15-3.1,20.4-20.7,8.8-31,1-3.5,0-7.4-2.7-9.9,13.8-11.4,10.9-30.5-5-37.8,2.6-12.6-9.9-22.3-21.8-21.4,3-16.1-10.3-29.5-25.8-21.6-13-13.8-35-20.3-52.4-11.1-15.9-16.1-52.6-10.7-63.4,9.2-12.6-10.2-33.2,1.3-28.9,17.4q-4.5,3.9-9,7.8c-11.8,1.2-19.4,14.7-13.9,25.4-12.6,6.4-14.2,24-1.5,31.3-14.2,3.6-20.5,24.1-6.1,31.7-2.5,13.3,10.4,16.5,10.7,17.6-2.2,6.1-1.2,11.8,3.1,16.6-26.8,21.5-39.4,57.5-34.4,91.2,5.5,37.6,35.2,65.9,66.1,85-.5,3.4-1.4,6.7-1.1,10.1,1.9,2.2,3.7,3.6,6.1,5.2,11.3,7.5,29.1,10.1,42.4,11.5l1.1,2.3Z"/>
          </g>
          <g>
            <g>
              <path class="st39" d="M241.6,163.1c-2.4-1.4-1.3,3.7-8.4,4.2,0-5.8-1.1-8-5.4-12l.6-.6c1.7.5,11.8,4.9,12.2,5.4.7.8.6,1.8,1,3.1Z"/>
              <path class="st39" d="M241.6,163.1c.4,1.4.1,3.7.8,4.2-.9.2-6.8,6.1-9.6,5.7.3-1.7.4-4,.4-5.7,7.1-.5,6-5.6,8.4-4.2Z"/>
            </g>
            <g>
              <path class="st39" d="M125,111.5c-1.2,1.6-2.7,2.9-3.8,4.6.1-1.1.5-2.1.4-3.2-1.2-.4-7.7-5.5-8-5.9-.2-.3-1.6-6.5-1.5-7.1.1-3.1,2.3-6.3,4.6-8.2-4.7,10.5,7.3,15,8,17,.4,1.1-.9,2.7.4,2.9Z"/>
              <path class="st39" d="M289,122.6c3.3,5.5,2.2,8.1,0,13.9,3.6.9,4.1.3,7.6,2.1l-.2.8c-.8-1.5-.5,1.3-4.6-1.1-.9,4.3-5.6-1.9-3.6,4-5.1,2.3-1.7-13,1.5-13.8.2-.7-4.3-8.7-.8-5.9Z"/>
              <path class="st12" d="M98.2,196.4c-.2,0-1.2,1.4-4,2.3-.4-.1-3.5-8-3.6-8.4-1.3-6.4,2.1-8.5,2.7-9.6q5.4-3.5,10.7-7.1-.4-3.5-.8-7.1c0-2.2-6.4-5.5-10.7-8.4-1.7-3.5-.8-7.9,1.5-11.1,6.8-3,15.2-1.3,15.3-6.3,0-.4-1.7-4.6-1.9-7.8-.6-8.6,11.3-10.2,12.2-11.3.4-.4,1.4-4.5,1.5-5.5,1.1-1.7,2.6-3,3.8-4.6,1.8-2.2,2.8-.3,1.5-7.1,12.4-13.7,11.6-8.6,28.9-6.3,2.6-.6,2.6-11.7,8-12.6,7.7-1.3,9.6,8.3,6.5,10.7-2.9,2.3-2.6-2.1-5.4-6.1-3,18.1-14.2,12.1-27.9,10.3-6.8,4.7-3.6,8.1-4.4,10.5-.2.6-6.1,5.7-6.5,6.5-2.4,5.1,4.2,4.2-13.4,13.4-1.9,4.8,7.2,13-5.5,18.5-3.7,1.6-13.3,1.7-10.7,5,2.1,2.6,12.2,4.8,12.8,13.9,1.1,18.2-21.6,8.2-10.7,28.1Z"/>
              <path class="st12" d="M290.9,193.7c-.1-.1-.2-.3-.4-.4-.3-14.7-9.8-10-15.5-13.8-3.7-2.4-6.3-15.5,11.3-14.7,4.5,6.4-11.2,5.1-9.6,8.4.4.8,12.1,4.9,13.8,6.9,2.4,2.9,2.4,11.1.4,13.6Z"/>
              <path class="st42" d="M93.3,180.7c-.6,1.1-4,3.1-2.7,9.6-4.6-1.7-12-2.1-11.1-8.6,1.4-10.4,12.6-.9,13.8-1Z"/>
              <path class="st42" d="M103.2,166.6q.4,3.5.8,7.1-5.4,3.5-10.7,7.1c.4-.7,1.7-1.6,1.9-2.1,1.6-4.3-3.5-7.5-3.1-11.8l11.1-.2Z"/>
              <g>
                <path class="st39" d="M128,163.1q-.5,3.8-1,7.6c-2.5-1.6-5.3-1.3-6.7-4.2l7.6-3.4Z"/>
                <path class="st34" d="M136.8,160.1c-1.1,2.8-2.2,4.3-2.3,7.6-2.7,1.5-.9-6.8,2.7-9.4l-.4,1.7Z"/>
              </g>
              <g>
                <path class="st42" d="M298.9,181.6c1.2-13.4-6-13.4-6.5-14.1-2.4-3.3,4.4-3,8-7.3,5.5-6.4,3.8-17.7-3.8-21.6l-.2.8c-.8-1.5-.5,1.3-4.6-1.1-.9,4.3-5.6-1.9-3.6,4-5.1,2.3-1.7-13,1.5-13.8.2-.7-4.3-8.7-.8-5.9-3.1-5.1-8.6-7.5-14.3-5-2.2-.4.8-4.7-7.8-9.4,6.7-12.4-9.1-22.5-17-10.9-14.1-15.9-33.8-22.9-53.5-12.2-13.4-15.2-38.7-13.4-52.6.2-1.3,1.3,0,3.2-10.1,7.5-1.6,0-8-8.6-17-1.1-4.7,10.5,7.3,15,8,17,.4,1.1-.9,2.7.4,2.9,1.8-2.2,2.8-.3,1.5-7.1,12.4-13.7,11.6-8.6,28.9-6.3,2.6-.6,2.6-11.7,8-12.6,7.7-1.3,9.6,8.3,6.5,10.7-2.9,2.3-2.6-2.1-5.4-6.1-3,18.1-14.2,12.1-27.9,10.3-6.8,4.7-3.6,8.1-4.4,10.5-.2.6-6.1,5.7-6.5,6.5-2.4,5.1,4.2,4.2-13.4,13.4-1.9,4.8,7.2,13-5.5,18.5-3.7,1.6-13.3,1.7-10.7,5,2.1,2.6,12.2,4.8,12.8,13.9,1.1,18.2-21.6,8.2-10.7,28.1-.2,0-1.2,1.4-4,2.3-.4-.1-3.5-8-3.6-8.4-4.6-1.7-12-2.1-11.1-8.6,1.4-10.4,12.6-.9,13.8-1,.4-.7,1.7-1.6,1.9-2.1,1.6-4.3-3.5-7.5-3.1-11.8l11.1-.2c0-2.2-6.4-5.5-10.7-8.4-1.7-3.5-.8-7.9,1.5-11.1,6.8-3,15.2-1.3,15.3-6.3,0-.4-1.7-4.6-1.9-7.8-.6,0-1.2,0-1.8,0,.6,0,1.1,0,1.8,0-.6-8.6,11.3-10.2,12.2-11.3.4-.4,1.4-4.5,1.5-5.5.1-1.1.5-2.1.4-3.2-1.2-.4-7.7-5.5-8-5.9-.9.2-1.8.7-2.7,1.1-.5.7-.8,1.4-1.2,2.1.3-.7.7-1.4,1.2-2.1-6.1,3.4-4.1,2.8-7.1,8.8-14.7-1.2-20.2,13.1-9.7,23.1-2.1.7-4.1.9-6.1,1.7-1.6.7-2.6,1.1-3.8,2.3-7.3,6.8-3.9,16.4,4.6,20.1.5,1.4-3.1,3.5,0,10.7-14.5-1.7-19.6,14.7-6.1,21-2.9,7.1,2.3,16.4,10.1,13.6,6.4,6.2-1.6,6.3-.2,15.1,1.1,6.9,10.8,11.3,16.6,7.1,8.2,3.4,4.2,4,7.1,7.8,3.6,5,12.6,4.5,16.6.2,1.1.3.5,10.8,15.3,8.8,3.6-6.3,4.8-1.9,10.3-4.6,4.1-2,4.1-7.5,8.2-3.8,2.2-3.1,3.5-7,6.5-9.6,0-.6.1-.7.4-1.1-5.9-1-20.5-12-25.3-16.2-8-7-12.7-13.3-12.6-24.1.1-.5-.3-6.4-1.1-8.2-.3-.7-.2-7.2,0-13-2.7,1.5-.9-6.8,2.7-9.4q-.2.9-.4,1.7c.1-.3,1.1-2.5,1.1-2.7,1.1-2,1.9-5.3,5-4.4q-.8-1.1-1.5-2.1c.8-7.2,6.1-24.7,13.4-27.9,4.3-1.9,8.4.9,13.6-6.5,17.5,9.9,24.3-1.8,25.6-2.3,5.3-2,6.8,4,7.1,4.4,6.1,6.9,12.3,4.3,17.6,13.8,2.1,3.7,2.7,8.6,5,12.2.9,1.5-.6,12.7.3,14.9,3.5,7.9,3.1,16.1.8,19.6,5.1-8.1,1.3,2.8,6.1-1.5.4-1,1.8-4.1,1.9-4.6.3-1.7.4-4,.4-5.7,0-5.8-1.1-8-5.4-12l.6-.6c1.7.5,11.8,4.9,12.2,5.4.7.8.6,1.8,1,3.1.4,1.4.1,3.7.8,4.2,9-2.2,13.1,14.5,2.5,23.3-8.2,6.8-12.6-1.9-17.8,5.9-.3.4-.7,3.6-4.2,8.6-4.7,6.8-12.7,11.8-19.9,15.7.9,2.2,1.3,4.6,1.9,6.9.5,1.8,1.5,3.9,1.5,4.2,4.4.4,6.1,5,8.4,6.5.4.3,2.7.7,3.6.8,5.4,10.6,19.6,8.1,22.9-3.1,7.4,7.8,18.6,9.3,21.8-3.1,5.6,0,9.6.6,13.4-4.2,14,1.5,19.4-12.6,9.4-22q2.4-3.2,4.8-6.3c4.7,1.2,9.2,0,11.7-4.2,3.2-5.4,1.6-11.1-3.4-14.7ZM108.8,112.1c-.2.6-.4,1.2-.6,1.8.2-.6.3-1.2.6-1.8ZM96.1,119.2c.4-.2.9-.3,1.3-.4.4,0,.9,0,1.3,0-.4,0-.9,0-1.3,0-.4,0-.9.2-1.3.4-.3.1-.6.3-.9.5.3-.2.6-.4.9-.5ZM92.5,124.1c0-.4.2-.8.3-1.2-.1.4-.3.8-.3,1.2-.1.6-.2,1.3-.1,1.9,0-.6,0-1.3.1-1.9ZM290.9,193.7c-.1-.1-.2-.3-.4-.4-.3-14.7-9.8-10-15.5-13.8-3.7-2.4-6.3-15.5,11.3-14.7,4.5,6.4-11.2,5.1-9.6,8.4.4.8,12.1,4.9,13.8,6.9,2.4,2.9,2.4,11.1.4,13.6Z"/>
                <g>
                  <path class="st12" d="M206.2,86.7c9.6-.9,16.6,15.6,34.8,9.6,8.8,11.7,16.3,8.1,12.4,22.4,2,1,9.5,7.6,10.1,7.8,4.2,1.5,16.6-2.2,12.8,13.2,3.6,1.2,16.4,6.3,18,9.2,1.8,3.3.6,9.9-3.2,11.3-8.9,3.1-.7-7.3-1-8.6-9.6-8.8-22.9-.6-17.6-18.7q-5.1-.5-10.1-1c-6.4-8.4-10.1-6.2-12.4-9-6.1-7.4,9.6-17.3-15.1-13.9q-1-3.2-1.9-6.5c-9.4.3-17.6-5.1-24.8-10.3-3.2-.2-13.1,6.2-10.9-.6.5-1.4,7.3-4.6,9-4.8Z"/>
                  <path class="st41" d="M242.1,100.8c2.4-.2-2,1.7-2.7,1.9-9.2,3.3-2.7-1.5,2.7-1.9Z"/>
                </g>
              </g>
            </g>
            <g>
              <g>
                <path class="st24" d="M224.7,198.3c-4.9,12.8-37.4,28.6-46.8,28.3-11.9-.4-35.6-19.8-38.4-32.3,4.2.9,8.5.9,12.6-.2.5.7,2.3,2.3,5,6.5,5.3,8.4,8.5,17.1,20.6,15.7,9.7-1.2,12-7.7,14.9-11.1,2.5-2.8,5.2-5.6,7.6-8.4,2.7.7,5.8,1.1,8.6.8,1.6-.2,9-3.1,8.2-4.6,1.8-.9,6.3-4.3,7.6-5.7,1.5,3.5,1.4,7.5,0,11.1Z"/>
                <path class="st3" d="M217.1,192.9c.8,1.5-6.6,4.4-8.2,4.6-2.8.3-5.9,0-8.6-.8.3-.4.5-1.1.8-1.5,5.2,1.1,11.3,0,16.1-2.3Z"/>
                <g>
                  <path class="st24" d="M222.8,205.2c-1.3-1.2,3.6-4.6,1.9-6.9,1.4-3.6,1.5-7.6,0-11.1,1.3-1.4,4.5-7.5,5.3-9.3.4-1,2.6-4.3,2.7-4.8,2.7.4,8.7-5.5,9.6-5.7,9-2.1,13.1,14.5,2.5,23.3-8.2,6.8-12.6-1.9-17.8,5.9-.3.4-.7,3.6-4.2,8.6Z"/>
                  <path class="st8" d="M243.9,181.8c1.4,5.4-3.7,6-5.5,5-1.9-1.1-2.8-7.9-1.7-10.3,3.2,1.3,6.6,8.2,7.3,5.4Z"/>
                  <path class="st30" d="M243.9,181.8c-.7,2.8-4-4-7.3-5.4,1.5-3.5,12.9-5.8,10.9,3.4-1-7.5-7.3-4.4-7.5-3.6-.2.6,3.2,3.1,3.8,5.5Z"/>
                </g>
                <path class="st13" d="M199.5,195.6c-1.3.3-2.5,1.5-4.2,1.9-14.5,3.1-26.7,4.1-40.1-3.4-.7-.4-1.5-.7-2.3-1.1,11.1-2.3,19.2-14.7,18.9-25.6,16.2-1.5,5.8,2.6,13.9,17.4,3.4,6.1,7.7,8.2,13.8,10.9Z"/>
                <g>
                  <path class="st44" d="M152.9,192.9c.8.4,1.5.7,2.3,1.1,1.8,2.8,5.6,5.1,8.4,7.6.1.1.7,2,1.9,3.2.5.5,1.3.9,1.9,1.3-3,1.4-7.5-4.3-10.3-5.7-2.6-4.2-4.5-5.8-5-6.5,0,0,0-.6-.4-1.1.4,0,.8,0,1.1,0Z"/>
                  <path class="st44" d="M201,195.2c-.3.4-.4,1.1-.8,1.5-2.4,2.9-5.2,5.6-7.6,8.4-1.1.2-4.6.9-5.4,1.1,1.7-2,3.6-3.8,5.4-5.7.9-1,2.1-1.9,2.7-3.1,1.7-.4,2.9-1.6,4.2-1.9l1.5-.4Z"/>
                  <path class="st35" d="M192.6,205.2c-2.9,3.3-5.2,9.9-14.9,11.1-7.3-.4-14-8.5-9.9-9.6,9.1,5.4,15.4,1.1,19.5-.4.7-.3,4.2-1,5.4-1.1Z"/>
                  <path class="st15" d="M167.4,206.3c.4.3.4.4.4.4-4.1,1,2.7,9.2,9.9,9.6-12.1,1.5-15.3-7.3-20.6-15.7,2.8,1.5,7.3,7.2,10.3,5.7Z"/>
                  <path class="st15" d="M195.3,197.5c-.6,1.1-1.8,2.1-2.7,3.1-9.4,3.4-19.5,4.3-29,1.1-2.8-2.5-6.6-4.9-8.4-7.6,13.5,7.5,25.6,6.6,40.1,3.4Z"/>
                  <path class="st19" d="M192.6,200.6c-1.8,1.9-3.6,3.8-5.4,5.7-4,1.4-10.4,5.8-19.5.4,0,0,0,0-.4-.4-.6-.4-1.4-.8-1.9-1.3-1.2-1.2-1.8-3.1-1.9-3.2,9.5,3.1,19.7,2.2,29-1.1Z"/>
                </g>
              </g>
              <g>
                <g>
                  <path class="st19" d="M211.7,176.5c1.4-1.5.8-1.1,1.1-2.7,0-.3,0-.8,0-1.1,0-.1,1-.3,0-2.3,2.3.5,5.3,3.5,5.4,5,0,5.6-15,6.4-21.6.8-3.3-2.8-.6-1.8.6-2.7,2.5-1.9,4.2-6.7,11.7-5.4,4,.7-2.8,0-4.4,2.9-3.1,5.6,3.3,9.8,7.3,5.5Z"/>
                  <path class="st16" d="M212.9,170.4c1,2,0,2.2,0,2.3l-1.1,1.1c-5,1.1-3.8-4.5,1.1-3.4Z"/>
                  <path class="st25" d="M212.9,173.8c-.3,1.5.2,1.2-1.1,2.7-2.3-1.3,0-1.2.4-2.7h.8Z"/>
                  <path class="st18" d="M212.9,173.8h-.8c-.1,0-.3,0-.4,0l1.1-1.1c0,.4,0,.8,0,1.1Z"/>
                </g>
                <g>
                  <path class="st42" d="M145.2,151.9c-5.2,6.6-6.3,23.8-6.1,22.9.4.6-3.5,15.8-3.8,15.3-3.1-5.4-7.6-16.8-1.5-29,1.5-3,7.2-8.9,11.5-9.2Z"/>
                  <path class="st13" d="M224.7,179.2c3.7-8.4-6.3-3.8-6.5-3.8,0,5.6-15,6.4-21.6.8-3.3-2.8-.6-1.8.6-2.7-.5-3.5,2.5-6.2,5.3-7.8s4.6-.8,6.9-.8,5.4,2.3,7.3,4.4c.6.8,10.7-14.4,10.9-14.5.2,0,1.4-3,1.3-3.6-.1-1.4-4.4-5-5.4-6.5-2.2-3.6-2.9-8.5-5-12.2-5.3-9.5-11.5-6.9-17.6-13.8-.3-.4-1.8-6.4-7.1-4.4-1.3.5-8.1,12.2-25.6,2.3-5.1,7.4-9.3,4.6-13.6,6.5-6.5,8.3-16.5,34-16.4,33.8-.8,3.1-2.3,6.9-2.4,10.4-.4,2.9-.4,10-.8,10.7-3.1,6.9-.8,14.5,0,16.1.1.2,11.2-.2,16.5-1,.4,0,.8,0,1.1,0,11.1-2.3,19.2-14.7,18.9-25.6,16.2-1.5,5.8,2.6,13.9,17.4,3.4,6.1,7.7,8.2,13.8,10.9l1.5-.4c5.2,1.1,11.3,0,16.1-2.3,1.8-.9,6.3-4.3,7.6-5.7,1.3-1.4,5.3-7.7,6.1-9.6-4.8,4.3-.9-6.5-6.1,1.5ZM165.5,170.8c-1.5-.3-.4,2.4-.8,2.9-.7,1-2.5-1.2-3.1,1,0,.4,0,1.3,0,1.5,3.8.8-3.1,9.2-4.4,9.2-1.1,0-2-3.8-5.4-3.4-1.6.2-8-1.2-11.7-6.9.3-2.1.8-5.8.9-6.1,0-.2-.1-1.2.4-2.1,3.3-5.7,15.9-6.9,21.8-6.7,1.6,3.1,2.4,7.2,2.3,10.7ZM202.3,144.7c-.9,0-1.8,0-2.7.1.9,0,1.8-.1,2.7-.1ZM194.7,146.1c-.4.2-.7.4-1,.6.3-.2.6-.4,1-.6Z"/>
                  <path class="st19" d="M154,168.5c-12.7,3.1.9,15.1,3.8,5.7.5-1.5.4-2.7.4-4.2.4,0,2.6,2.2,3.1,3.4,0,.2.4,1.1.4,1.1,0,.2,0,.5,0,.7s0,.6,0,.8c-1.3,4.5-14.2,4.1-19.5,2.3s-2.1-2.6-1.9-4.2c.7-5.2,12.3-8,13.8-5.7Z"/>
                  <path class="st24" d="M163.2,160.1c-5.9-.3-18.5,1-21.8,6.7-.5.9-.3,1.9-.4,2.1,5.2-7.5,21.2-5.6,20.3,4.6,0,.2.7,1.3,0,3.4-2.5,3.7-14.7,2.8-19.1,1.6-.3,0-2-.9-1.1.4,2.6,3.7,8.9,5.4,11,6,3.1.8,4.2.9,5.2.5,6.3-2.1,7.8-11.2,8.2-14.5s-.7-7.6-2.3-10.7Z"/>
                  <path class="st14" d="M157.9,174.2c-1.7,2.1-3.7,1.1-2.7-1.5,1.6-.3,2.2-2.7,3.1-2.7,0,1.5,0,2.7-.4,4.2Z"/>
                </g>
              </g>
            </g>
          </g>
        </g>
        <path class="st39" d="M138.3,179.4"/>
        <path class="st2" d="M136,186.3c3.8,4,10.5,7.4,15.7,6.7.4.6.3,1.1.4,1.1-4.1,1.1-8.4,1.1-12.6.2,2.8,12.5,26.5,31.9,38.4,32.3,9.4.3,41.9-15.5,46.8-28.3,1.7,2.2-3.2,5.6-1.9,6.9-4.7,6.8-12.7,11.8-19.9,15.7-8.3,4.5-19.9,10.1-29.4,8.4-5.9-1-21.5-10.7-26.2-14.9-7.5-6.6-13.7-18-13.6-28.8,0,0,2.2.8,2.3.8Z"/>
        <path class="st2" d="M145.2,148.6c-1.3.7-5.8,7.7-6.9,8.6.8-7.2,8.4-32.1,16.5-34.2,10.2-2.7-3.4,3.4-8,18.5-.7,2.2-.7,4.8-1.5,7.1Z"/>
        <g>
          <path class="st24" d="M175.1,193.3c-3.2-.1-5.9-2.2-8-4.2-1.5-7.9,2.6-.7,4.4.4,4.7,2.8,13.8-.2,3.6,3.8Z"/>
          <path class="st30" d="M167,189.1c2.1,2,4.9,4.1,8,4.2,2.9.1,11-4.3,6.7-.8-8.2,6.7-20.6-5.3-16.1-5.4.4,0,.3.9,1.3,1.9Z"/>
        </g>
        <path class="st24" d="M201,154.7c2.3-.2.6.5-2.3,1.8-4.6,1.9-7.6,5.4-5.3,15.6,0,.4-.3.3-.6.6q-3.5-1.1-7.1-2.3c-.3-12.2,4.5-14.7,15.3-15.7Z"/>
        <path class="st2" d="M242.3,189.3l.8,1.5c.8,1.5-2.3,2.3-2.3,2.3-.9.3-1.5.8-2.3,0l.8-3.8c.8-1.5,2.8-.3,3.1,0Z"/>
        <path class="st24" d="M229.3,151.1c-.1-3-3.2-2.9-5.4-6.1-1.9-2.7-3-8.8-3.1-9.2-2.3-7.6-9.2-10.7-9.2-10.7,0,0,10.7,13,6.9,30.6-.4-.1-3.2-1.7-3.8-1.8-4.2.5-.8,1.3,1.1,4.8,2.6,4.6,4,10.2,2.7,15.5,0,.2,0,1.4,0,1.4,0,0-.8,1.7-1.5,2.3-3.8,3.1-11.4,2.2-13.8,1.5-1.5-.4-3.8-1.5-3.8-1.5,0,0,2.3,6.9,15.3,6.9s11-9.8,11.5-12.2c.7-3.4,0-7.6-2.3-12.2,0-.2,5.4-7.7,5.4-9.2Z"/>
        <g>
          <path d="M137.5,158.3c0,.2.4,0,.8-.3,4.6-3.1,6.9-4.6,8.4-5.4,3.1-1.5,5.1-1.6,5.4-1.6,2.9-.9,13.5,2.8,9.7-2.9-3.4-5.2-13.1-1.2-17.2,1-1.3.7-7.1,5.8-7.1,9.2Z"/>
          <path d="M214.2,154.4c.4.5.6-1.8.2-3.1-3.1-8.3-21-6.9-22-3.2-1.5,5.4,8,.9,16.4,3.1,2.1.7,2.9.7,5.4,3.2Z"/>
        </g>
        <g>
          <path class="st14" d="M243,195.4c0-1.5,0-3.8-.8-4.6s-1.4-1.5-2.3-.8-1.4,3.5-1.5,5.4.3,2.6.8,3c1.5,1.2,2.5,1,3,.2,1.5-2.4.8-2.1.8-3.2Z"/>
          <path class="st25" d="M243.5,194.8c-.2-2.1-.3-3.7-1.2-4-2.3-.8-.8,2.3-3.1,3.8s-.4,2.5,0,3.1c2.6,3.2,4.4-.8,4.2-2.9Z"/>
        </g>
        <path class="st2" d="M219,167.1c0,.2-.3.5-.4.3-3-5.6-13.1-7-17-5.1s5.7-6.3,13.2-2.8,4,6.1,4.2,7.6Z"/>
        <path class="st10" d="M223.8,170c-3.3,1-5.5.6-6.7-.6-.3-.3-.6-.6-.8-.8-5.3-7.6-19.8-3.8-19,4.8,2.5-1.9,4.2-6.7,11.7-5.4,4,.7-2.8,0-4.4,2.9-3.1,5.6,3.3,9.8,7.3,5.5-2.3-1.3,0-1.2.4-2.7-.1,0-.3,0-.4,0-5,1.1-3.8-4.5,1.1-3.4,2.3.5,5.3,3.5,5.4,5,.3,1-.5,1.8-.4,1.8.8-.8,1.5-2.3.8-2.8,1.8,0,5.2-4.2,5.2-4.2Z"/>
        <path class="st2" d="M140.6,167.9s3.3-4.3,6.1-5.4c4.3-1.7,14.5-3.1,16.8-2.3s-8.9-3.5-16.2-.8c-1,.4-2.7,1.3-3.7,2.3-3.1,3.1-3.1,6.1-3.1,6.1Z"/>
        <path class="st10" d="M141.5,168.2h0c-2.4,2.1-5.6.3-5.6.3,0,0,1.1,2.8,3.6,3.3.1,0,.2,0,.4.1,0,1.4,0,1.7.4,2.3.7-5.2,12.3-8,13.8-5.7,0,0,.2.2.2.2.1.2.1.3,0,.4.1,0,.2-.2,0-.4,0,0-.1-.1-.2-.2-12.7,3.1.9,15.1,3.8,5.7-1.7,2.1-3.7,1.1-2.7-1.5-.7-.2-1.2-.4-1.6-.5.4.1.9.3,1.6.5,1.6-.3,2.2-2.7,3.1-2.7.4,0,2.6,2.2,3.1,3.4.9-9.9-14.1-12-19.8-5.2Z"/>
        <g>
          <g>
            <path class="st7" d="M207.7,436c-13.2,1.2-69.7-20.3-66.5-7.5.2.8,3.2,13.6,6.1,16.1,5.4,4.6,32.9,6.1,51.2,5.4,11,0,41.3-8.5,42.1-12.4.7-3.7.8-4.6,1.5-9.2-10.8,4-23,6.6-34.4,7.6Z"/>
            <path class="st23" d="M187.3,450.1l-1-8.2s2,8.2,3.1,8.2h-2Z"/>
          </g>
          <g>
            <path class="st37" d="M236.9,322.2s.4-5,.5-5.2,0-4.6,0-4.6c6.9,1.5,9.2.8,9.2.8,0,0,11.4-13.3,12.5-16.2.6-1.6,3.8-12.2,2.8-17-1.7-6.6-4.1-12.9-8.5-18.1-8.5-10-29.8-8.3-36.6-12.9-1.6,3.4-21.6,20.4-26.4,17.3.6,5.4-15.7,1.2-15.8.7-.2-2.5-4.5-10.3-5.2-13.4-.7-3.1,2-6.1,0-6.1-4.1,0-13.8,3.2-18.8,3.6-5.7.4-8.6.7-13.9,3.8-7.8,4.5-15.9,17.6-13.9,21.6,2.6,5.3,9.5,13.7,14.9,18.3,1.4,1.2,2.9-.7,3.8-2.2-2.5,5.9-7,15.1-6.1,22.8,1,8.7,5.3,13.7,8.4,16.1,2.1,1.6,6.9,3.1,6.9,3.1,0,0,3.9,4-.8,11.5s-7.6,10.9-14.5,28.5c-3.7,14.6-6.7,29.4-8.8,44.3-.2,1.6,0,3.4-.8,5,11.3,7.5,29.1,10.1,42.4,11.5,13.1,1.4,26.6,2,39.7.8,11.4-1,23.6-3.7,34.4-7.6,3.6-1.3,7.8-3.1,11.1-5-1.7-11.9-4.4-23.6-7.6-35.2-2.5-8.7-4.9-17.2-9.2-25.2-5.7-4.5-3.9-23.8-3-32.9l3.4-7.9Z"/>
            <path class="st33" d="M233.8,325.2s0,.1,0,.2c0-.1,0-.2,0-.2Z"/>
            <path class="st33" d="M233.9,325.4c0,.2,0,.5,0,.8,0-.4,0-.6,0-.8Z"/>
          </g>
          <path class="st37" d="M132,322.2"/>
          <path class="st33" d="M236.4,361.5c-3.7-5.3-3.6-20.4-2.7-30.2,1.8-2.3,3.3-5.2,3.8-7.8.7-2.7.3-12.1-2.1-18.9-1.2.2,3.5,9.7-.6,18.3-1.6,2.3-3.8,5.3-7.2,7.6-1.7,1-3.7,2-6,2.8-4.5,1.3-10.5,1.3-18.5-1,.5.1,27,30.7,32.9,42.8,5.7,11.8,12.4,48,11.5,51.2.4,0,5.2-2.6,7.6-3.8s-2.1-37.1-18.7-60.9Z"/>
          <path class="st33" d="M155,335.5c3.8,0,7.6-2.3,7.6-2.3-4.6,2.3-12.3,1.3-12.3,1.3,0,0,.9,1.4.8,3.8,0,2.6-1.2,6.2-3,9.4-3.1,5.3-5.5,9.9-7.3,13.7-2.1,3.7-3.7,7.8-4.7,10.4-.7,1.8-1,2.7-1,2.7-3.7,14.6-7.1,34.5-9.2,49.4,5.1,3.1,5.4,3.1,5.4,3.1,0,0-2.5-16.8,1.5-32.4,5.7-22.2,15-31.5,17.6-35.6,11.5-18.3,4.6-23.4,4.6-23.4Z"/>
          <path class="st37" d="M132.1,322.2"/>
        </g>
        <path class="st33" d="M244.2,396.4c-3.4-10.9-5-13.6-8.4-24.5-3.8,6.4-8.2,9-14.9,10.2-3.8.7,9.7-24.3,3.4-27.8-17.3-9.6-59.7-6.6-70.3-7.6-2.7-.3,4.7,35.9,2,35.5-3.4,1.3-7.2,1.4-10.8.8-2.8-.5-8.1-2.8-10.1-4.9-1.8,3.6-2,7.8-3,11.6-.4,1.3-.9,4.1-1,4.5,1.7,5,6.9,10.7,11.5,13.8s12.9,6.8,20.5,8.5c3.6.8,9.4-12.7,13.2-12.3,11.5,1.2,15.7,2.2,26.8,0s10.6,11.3,12.9,10.7c5.6-1.5,10.8-3.3,15.3-5.3,3.7-1.9,14.8-7.1,13-13Z"/>
      </g>
      <path class="st22" d="M229.4,175c-.1,1-.3,2.1-.4,3.1.1,0,.3-.2.4-.2,0-.1,0-.3,0-.4,0-.8,0-1.6,0-2.5Z"/>
      <g>
        <path class="st24" d="M207.2,236.7c-.2-1.6-.5-3.2-.8-4.8,0-.3-1-2.4-1.5-4.2-5.8,7.4-13.6,13.4-22.4,17-4.1-3.5-9.9-9.3-9.3-11.1-.8,2.3-3.1,18.3-3.8,20.6-3,8.9,7.7,13,13,13,13.8,0,23.3-7.1,22.9-9.2-.3-.6,1.5-1.7.6-2.7.6-.2,1.2-.6,1.7-1.2.7-.7,0-15.3-.4-17.6Z"/>
        <path class="st5" d="M204.9,227.7c-6.9,8.9-16.7,15.7-27.5,18.7-1.8-2.4-4.1-4.6-4.6-7.6-.3-2.2.1-6,.4-8.4,0-.6.1-.7.4-1.1,9.5,1.7,21.1-3.9,29.4-8.4.9,2.2,1.3,4.6,1.9,6.9Z"/>
      </g>
      <path class="st38" d="M234.3,118.2"/>
      <path class="st42" d="M156.1,120.5c0,0,.2,0,.2,0,6.8-1.3,12.2-11.5,19.9-5.9,7.1,5.1,16.1-6.9,24.4-9.6,1.6-.5,16,1.4,17.6,1,0-1.5-3.8-7.6-9.9-9.2s-11.5,3.8-13,2.3-3.8-2.3-3.8-2.3c0,0-10.7-5.4-16.9,2.9-1,.8-5.1-2.6-8.4-3-5.9-.7-12.2,2.5-16.5,9.1-.7,1.2-4.2,7.9-1.1,12.9s-4.7.3-8.5,5.7c-2.8,4-4.5,10.7-3.8,10.7,1.2,0,18.4-14.4,19.6-14.5Z"/>
      <g>
        <path class="st31" d="M188.9,264.7c-9,0-18.5-4.2-18.9-12.7s.8-5.4.8-5.4l-6.9,1.5-6.1,1.5c2.3,14.7,16.8,26.8,31.1,26.8s26.9-12,29.3-26.8c0,0-3.5-2.3-4.6-3.1s-6.1-3.8-6.1-3.8c0,0,.2,5,0,6.9-.8,8.5-9.6,15-18.6,15Z"/>
        <path class="st45" d="M161.6,256.2c2.4.2,4.8-.3,7-1.2s.6-.6.7-.9,0-.8-.2-1.2-.5-.6-.9-.7-.8,0-1.2.2c-.2,0-.1,0,0,0,0,0-.1,0-.2,0-.1,0-.2,0-.3.1-.2,0-.5.2-.8.2-.5.1-1,.3-1.5.3,0,0-.1,0-.2,0-.2,0-.1,0,0,0,0,0-.3,0-.3,0-.3,0-.5,0-.8,0-.5,0-1.1,0-1.6,0-.8,0-1.5.7-1.5,1.5s.7,1.4,1.5,1.5h0Z"/>
        <path class="st45" d="M167.1,263.6c.7-.1,1.5-.4,2.1-.8s1.3-.9,1.7-1.5c.1-.1.2-.3.3-.5,0-.2.1-.4.1-.6,0-.4-.2-.8-.4-1.1s-.7-.5-1.1-.4-.8.1-1.1.4-.5.6-.9.9l.3-.2c-.3.3-.7.5-1.1.6l.4-.2c-.4.2-.8.3-1.2.3s-.7.4-.9.7-.3.8-.2,1.2.3.7.7.9l.4.2c.3,0,.5,0,.8,0h0Z"/>
        <path class="st45" d="M174.2,269.5c.7-1.3,1.4-2.5,2.2-3.6s.2-.8.2-1.2-.4-.7-.7-.9-.8-.3-1.2-.2-.7.4-.9.7c-.8,1.2-1.5,2.4-2.2,3.6s-.3.8-.2,1.2.4.7.7.9c.7.4,1.7.2,2.1-.5h0Z"/>
        <path class="st45" d="M184,272.9c0-.9,0-1.9.1-2.8s0-.5,0-.7v.2c0,0,0-.1,0-.2,0-.1,0-.2,0-.3,0-.5.2-.9.3-1.4.2-.8-.2-1.7-1-1.8s-1.7.2-1.8,1c-.4,2-.7,4-.6,6s.7,1.5,1.5,1.5,1.5-.7,1.5-1.5h0Z"/>
        <path class="st45" d="M195,273.5c.1-1.9,0-3.9-.2-5.8s-.1-.8-.4-1.1-.7-.5-1.1-.4-.8.1-1.1.4-.5.7-.4,1.1c.3,1.9.3,3.9.2,5.8s.7,1.5,1.5,1.5,1.5-.7,1.5-1.5h0Z"/>
        <path class="st45" d="M204.9,268.6c-.3-.3-.5-.6-.7-.9l.2.3c-.8-1.1-1.5-2.2-2.1-3.4s-.6-.6-.9-.7-.8,0-1.2.2c-.7.5-.9,1.3-.5,2.1.8,1.7,1.9,3.2,3.1,4.6s.7.4,1.1.4.8-.2,1.1-.4.5-.7.4-1.1-.2-.7-.4-1.1h0Z"/>
        <path class="st45" d="M210.1,261.9c-.4,0-.7-.2-1.1-.3l.4.2c-.4-.2-.9-.4-1.2-.7l.3.2c-.4-.3-.7-.6-1-1l.2.3c-.3-.4-.5-.8-.7-1.2l.2.4c0-.1-.1-.3-.1-.4-.1-.4-.3-.7-.7-.9s-.8-.3-1.2-.2c-.7.2-1.3,1-1,1.8.8,2.3,2.8,4.2,5.2,4.7s.8,0,1.2-.2.6-.5.7-.9,0-.8-.2-1.2-.5-.6-.9-.7h0Z"/>
        <path class="st45" d="M214,255.2c-.2,0-.5,0-.7,0h.4c-.5,0-1-.2-1.5-.4l.4.2c-.5-.2-.9-.5-1.3-.8l.3.2c-.4-.3-.7-.6-1-1s-.7-.4-1.1-.4-.8.2-1.1.4-.5.7-.4,1.1.2.7.4,1.1c1.3,1.7,3.5,2.6,5.6,2.7s1.5-.7,1.5-1.5-.7-1.5-1.5-1.5h0Z"/>
        <path class="st45" d="M215.7,250.1c-.3,0-.5-.2-.8-.3l.4.2c-.6-.3-1.2-.6-1.7-1l.3.2c-.5-.4-.9-.8-1.3-1.3l.2.3c-.2-.3-.4-.6-.6-1-.4-.7-1.4-1-2.1-.5s-.9,1.3-.5,2.1c1.1,2,3.1,3.6,5.3,4.3s1.7-.3,1.8-1-.2-1.6-1-1.8h0Z"/>
      </g>
      <g>
        <path class="st37" d="M139.2,278.5s0,0,0,0c-4.3-6.8,5.2-22.7,13.9-28.2-16.5.8-26.8,7.2-28.3,7.9-17.7,8.6-13.4,41-25.6,43,.1.9,7.7,6.4,8.2,6.6,5.3,2.8,11.9,4.1,17.5,6,8,2.7,9.9,3.8,9.9,3.8,0,0-1-4.6,0-3.8s0-.7.2-2.2c2.3-15.8,6.6-28.6,4.2-33.2Z"/>
        <path class="st2" d="M135.2,365.5c-.1-5.1,1-6.5,1.5-8.7-3.8,2.9-7.1,6.4-11,9.1-4.8,3.3-32.2,18.3-34.9,10.6.7,3.2,1.4,4.6,3.4,7.2,2,2.6,2.7,2.5,4.5,4.2,15.1.5,27.6-5,37.3-16.7,0-.3.3-1.7-.7-5.7Z"/>
        <path class="st24" d="M225.4,366.7c-3.4.2-7.3,0-10.8,0,1.6-1.8,8.3-2.4,12.1-3.4,3.5-.9,10.5-4.9,4.1,0-1.7,1.3-3.8,2-5.4,3.4Z"/>
        <path class="st32" d="M159.8,376.2c-2.9,3-5.7,6.6-10.1,6.8-2.8-.5-8.1-2.8-10.1-4.9-1.1-1.2-2.4-4.1-3-5.7,0-2.4,2.4,2.4,5.4,4.2,6.3,3.6,11.5,1.6,17.7-.4Z"/>
        <path class="st5" d="M263.5,338.3c-2-4.4-11.9-16.8-12.1-19.6-.3-4.5,13.4-8.7,16.1-11.9-.9-1.9-1-3.2-1.8-5.1-4.9,4.9-10.8,9.3-17.3,11.3-1,.3-3.7.3-3.9.3-2.3,0-5.7-.6-5.7-.6,0,0-1.6,3.6-.7,5.8.7,1.6,16,23.2,18.5,27.6v.4c1.1.2,6.2.2,10.3.9,6.5,1.2,14.3,4.3,20.9,5.7-5.8-6.5-16.3-13.5-24.3-14.8Z"/>
        <path class="st5" d="M127.6,312.8c-1,0-2-.3-3-.4-5.9-.6-12.1-1.8-17.3-4.7-.5,1.3-1,3.5-1.4,4.7,4.7,2.3,16.8,18.7,15.8,24.8-.2,1.5-9.4,13.5-9.9,14.2-.4.6-8.4,7.9-8.1,9,1.5-.5,21.5-7.2,22.8-7.6.7-.6-1-2.1-.3-2.7,4.6-16.5,2.3-16.5,9.2-33-.4-1.3-.5-6.2.2-8.5.7-2.1-5.9,4.4-8.1,4.3Z"/>
        <path class="st5" d="M169.9,363.3c0,0,.7.7.7.9-.4,1.2-14.2,4-2.2,7.4,0,4.8-3.5,9-7.8,10.6-3.4,1.3-7.2,1.4-10.8.8,4.3-.2,7.2-3.9,10.1-6.8,2.4-1-4.7-1.4-9.1-2.7-6.1-1.8-19.7-7.5-4.9-3.4,23.1.2,8.1.3-5.4-11.6,9.2,5,19.2,8.6,29.5,4.7Z"/>
        <path class="st24" d="M164.5,356.8c-.9.2,2.1,3.5-7.1,1.1-9.9-2.5-17.4-10.2-9.5-19.7.7-.9,1.3-1.5,2.2-2.3,1-.8,2.6-2.1,3.7-2.7.7-.3,3.5-1.2,3.7-.8.8-1,1.4-2.1,2.2-3-.3-5.6-4.6-1.6-7.1,0-1.2.7-1.4.7-1.5.8-.6.4-2.2,1.5-2.6,1.9-3.1,2.6-6.9,7.7-8,11.8-4.5,1.5-10.5,6-14.4,6.1-.7.6-8.8,3.4-9.1,3.5-1.5.5-10.8,5.1-11.4,6.2-.3-1.7,10.7-11.2,15.9-12s1.3-10.8,1.3-10.8c0,0,5.1-21-17-24.5-4.7,13.2-9.4,35.5-12.9,46.3-2.3,7.2-3.9,10.1-2.2,17.8,2.7,7.7,30.1-7.4,34.9-10.6,4-2.7,7.2-6.2,11-9.1-.5,2.2-1.6,3.6-1.5,8.7,1.1,4,.7,5.4.7,5.7,0,0,.7,1.1.7,1.1,0-2.4,2.4,2.4,5.4,4.2,6.3,3.6,11.5,1.6,17.7-.4,2.4-1-4.7-1.4-9.1-2.7-6.1-1.8-19.7-7.5-4.9-3.4,23.1.2,8.1.3-5.4-11.6,9.2,5,19.2,8.6,29.5,4.7-.6-2-3-6.9-5.4-6.4Z"/>
        <g>
          <rect class="st11" x="163.1" y="327" width="3.8" height="8.4" rx=".8" ry=".8"/>
          <rect class="st25" x="165.5" y="327" width="1.5" height="8.4" rx=".7" ry=".7"/>
        </g>
        <path class="st26" d="M172.8,326.1c0-.2-3.6-1.2-7.9-1.2s-7.9,1-7.9,1.2-1,1.9-.5,2.5c0,0,0,0,0,0,0,0,0,0,.1.1,0,0,0,0,0,0,0,0,0,0,.1,0,0,0,0,0,.1,0,0,0,0,0,0,0,0,0,0,0,0,0,1.3.1,4.8-1.1,7.8-1.1s9,2,9,.7,0,0,0,0c.2-.7-.9-2.2-.9-2.3Z"/>
        <g>
          <g>
            <rect class="st11" x="200.4" y="328" width="3.8" height="8.4" rx=".8" ry=".8" transform="translate(76.4 -35.8) rotate(12.5)"/>
            <rect class="st25" x="202.7" y="328.2" width="1.5" height="8.4" rx=".7" ry=".7" transform="translate(76.5 -36.1) rotate(12.5)"/>
          </g>
          <path class="st26" d="M211,328.8c0-.2-3.2-2-7.5-2.9s-7.9-.7-8-.5-1.4,1.6-1,2.4c0,0,0,0,0,0,0,0,0,0,0,.1,0,0,0,0,0,0,0,0,0,0,.1,0,0,0,0,0,.1,0,0,0,0,0,0,0,0,0,0,0,0,0,1.3.4,4.9,0,7.9.6,3.7.8,8.3,3.9,8.6,2.6s0,0,0,0c.3-.7-.4-2.4-.4-2.5Z"/>
        </g>
        <g>
          <path class="st26" d="M221.7,338.2c-.8-.9-1.7-1.8-2.6-2.5s-2.3-1.8-3.2-2.2c-.7-.3-3.3-.8-3.7-.8s-10.4,4-26.5,4-28-4.2-28.3-4.2c-1.3-.1-3.3.5-4,.9-3.4,1.9-4.8,4-5.5,4.9-8.1,9.6-.5,17.3,9.4,19.9,9.2,2.4,6.2-1,7.1-1.1,2.5-.5,4.4,3.1,5,5.2,0,0,0,3.1-3.9,4.7-.6.2-3,.7-3.1,1.6,0,.5,1.6,1.5,3.3,2.3s2.9.9,4.4.6c6.9-1,22.8-1,29.7,0s12.9.5,12.9.5c0,0,17.3-23.9,9.2-33.6Z"/>
          <path class="st36" d="M198.6,340.7c-1.1-.5-4.3,1.4-13.8,1.7-9.5-.2-15.8-2.2-16.9-1.7-.1,0-13,1.4-12.7,8.3q.2.9.4,1.9c1.2,1.9,4.1,4,7.5,5.1,7.1,2.4,15.1-4.4,21.7-4.5s11.6,6.9,18.8,4.5c3.3-1.1,6.2-3.2,7.5-5.1q.2-.9.4-1.9c.3-6.9-12.6-8.3-12.7-8.3Z"/>
          <path class="st25" d="M182.9,359.7c0-.7,1.2-1.3,2.6-1.3s1,.6,1,1.3.4,1.3-1,1.3-2.6-.6-2.6-1.3Z"/>
          <path class="st11" d="M187.4,362.8c0,.7,0,1.3-1.9,1.3s-3.4-.6-3.4-1.3,1.5-1.3,3.4-1.3,1.9.6,1.9,1.3Z"/>
        </g>
        <path class="st2" d="M195.1,372.7"/>
        <path class="st2" d="M196.6,368.7"/>
      </g>
      <path class="st33" d="M141.1,293.4c1.3-2.8,1.4-6.2,1.4-6.2,0,0,0-.1,0-.2-3.1,3.1-7.6,3.8-7.6,3.8,1.4,2.4,2.3,2.3,1.1,3.7-4,5.7-7.2,10.5-11,17.7,1.5,0,5.3,1.7,6.1,2.3,1.8,1.2,3.9,2.7,4.6,2.3-.6-8.2,1.3-14.1,4.6-21.4.3-.7.6-1.4.9-2.1Z"/>
      <path class="st37" d="M269.3,297.1c-1.7-2.6-5-22.5-14-32.7,0,.4-.2.8-.2,1.2-1.4,5.1-3.4,9.9-5.9,14.3.8,11-5.4,22.2-6.5,33.2,8.4.8,16.9-1.5,22.2-5.4.4-.3,7.3-6.9,9.2-7.7-1.4-1.3-3.6-1.2-4.7-3Z"/>
      <path class="st33" d="M238.8,308.2c-.8-7,7.1-12.6,7.3-19.6,0-.4,0-3.1-.1-3.1-.1,1-.3,1.9-.4,2.8-.7,4.8-11.3,11.3-10.6,16.1,1.5,9.9,3,10.5,1.6,20.2,1.5.1,2.6-13.6,2.2-16.4Z"/>
    </g>
    <g>
      <g>
        <path class="st29" d="M245.8,159.8c0-1.9.3-3.5-.3-4.8-.4-.8-7.7-9.6-9.5-10.7-.4.4-3.2.7-3.6,1.1,1.8,8.4,4.3,10.4,2.8,19.1-.4,2.7-1.1,6-1.9,8.5,3,1.1,11.1-6.6,12.2-6.8-.6-.8.3-4.3.2-6.5Z"/>
        <g>
          <path class="st38" d="M233.3,173.2h-1.1c-1.1-.1-1.9-1-1.9-2.1l.9-25.9c0-1.1,1-1.9,2.1-1.9h1.1c1.1.1,1.9,1,1.9,2.1l-.9,25.9c0,1.1-1,1.9-2.1,1.9Z"/>
          <path class="st38" d="M233.3,143.3c-57.5-11.1-89.5-.6-109.8,7-1.3,0-2.4,3.3-2.4,3.8-.4,11.1-2.1,36,25.4,42,18.1,3.9,22-4.8,26.5-7.9s1.4-1.2,2.6-1.1c2,.1,3.5,1.5,4.3,2.2,6.6,6.2,14.7,12.1,33.2,6.3,2.3-.7,17.6-8,20.7-29.7.4,0,.2-15.8,2.1-18.1.7-.8.2-4-2.6-4.5Z"/>
          <g>
            <path class="st42" d="M226.8,147.3c-31.5-12-94,1.9-99.6,5.8s-3.1,1.9-3.8,3.9c-4.1,13.5,1.5,34.6,23.5,36.7,9.8.9,19.4-2.1,23.3-7,9.7-8.2,14.8,7.3,24.5,8.9,23.3,3.8,42.2-24.7,35.8-45.1s-2-2.6-3.7-3.3Z"/>
            <path class="st12" d="M229,172.7c3.3-7.6,3.4-16.6,1.5-22.1s-1.9-2.7-3.7-3.3c-26.1-9.9-76.7-10-99.6,5.8-2,1.4-3.2,1.9-3.8,3.9-2.7,9.2-2.8,24.7,11.7,33.2,11.6-8.4,31.5-16.5,53.3-18.9,14.8-1.6,29.1-1,40.6,1.4Z"/>
          </g>
        </g>
      </g>
      <g class="st28">
        <path class="st21" d="M141.6,160.5c4.9-3.5,10.6-6,16.4-7.6s3.5-.9,5.3-1.2,1.1-2.8-.5-2.5c-6.4,1.1-12.7,3.3-18.4,6.5s-3,1.8-4.4,2.8-.5,1.3-.1,1.8,1.2.5,1.8.1h0Z"/>
      </g>
      <g class="st28">
        <path class="st21" d="M151.5,161.7c3.7-2.4,7.9-3.9,12.2-4.4s1.1-.8,1-1.5-.8-1.1-1.5-1c-4.5.6-9.1,2.1-12.9,4.7s-.9,1-.6,1.7,1.1,1,1.7.6h0Z"/>
      </g>
    </g>
    <g>
      <path class="st33" d="M83.8,66.5c-7.1,8.5-10.1,33.4-11.4,40.7.3,2.2,1.8,2.3,3.5,1.7,2.5-.9,4.2-3.1,4.6-5.6.9-6.3,6.9-18.7,12.5-27.4s6.8-5.7,11.1-5,11.5,1.7,14.7.9c2.8-.7,5.9-3.7,8.9-6.7,3.4-3.4,8.7-4.1,12.9-1.9,9.1,4.9,20.3,12.4,24.3,17.3,1.6,2,4.2,3.1,6.8,2.6s2.9-1.2,2.1-3.2c-5-5.7-20.2-24.9-30.3-29.5-14-6.3-49.7,4.2-59.5,16Z"/>
      <g>
        <path class="st37" d="M192.4,32.4c0,0-1.3.1-1.7.3.2,0-6.3,1.6-6.4,1.4-18.3,6.3-37.8,5.6-56.7,8.4-9.7,3-19.8,5.2-29.4,8.5-14.6,4.9-28.1,12.6-42.9,16.8-6.3,2.6-12.8,4.9-19.5,6.6-.5,0-.8.1-.8,0-.4.1-1.5.6-1.6.6-1,.6-1.3,1.7-1,2.6s3.4,6.5,5.2,8.1c5.8,5.3,25.1-12.2,35.1-16.4,0,0,33-7,42.3-9.5s40.5-12.7,40.5-12.7c10.8-1.4,36.2,4.1,38.7-3.3.7-2.3.8-8.5.4-9.6s-1-1.7-2.2-1.8Z"/>
        <path class="st31" d="M138.6,41c-30.1,1.4-56.6,14-83.4,26.7,21.4-5.4,40.8-17.7,62.8-21.4,21-2.9,66.7-9.6,20.5-5.3Z"/>
      </g>
      <g>
        <path class="st27" d="M124.9,54.6c1.1,0,2.1,1,2.4,2.1l4.4,16.5c.5,1.8-.6,3.7-2.4,4.2,0,0-6.4,2.4-8.7,3s-9.3,1.8-9.3,1.8c-1.8.5-3.7-.6-4.2-2.4l-4.5-16.8c-.3-1.1,0-2.4,1-2.9,4.9-2.5,16.4-5.6,21.3-5.5Z"/>
        <g>
          <path class="st42" d="M123.7,56.9c1-.1,2,.5,2.2,1.5l4.1,15.2c-.2.4-.5,1.1-.8,1.5-.5.4-4.4,2.5-8.6,3.6-4.6,1.2-9.4,1.5-10.1,1.4-.3,0-1.3-.5-1.5-.8-.5-.9-2.8-10.9-4.1-15.4s.3-2.1,1.2-2.4,4.7-2.4,8.4-3.4,9.1-1.2,9.1-1.2Z"/>
          <g>
            <path class="st27" d="M113.8,59.5c12.6-4.6,18.3,13.9,7.1,18-12.5,4.5-18.6-13.8-7.1-18Z"/>
            <path class="st29" d="M113.8,60.1c11.9-4.5,17.6,12.8,7,16.9-11.7,4.5-17.6-12.8-7-16.9Z"/>
            <path class="st27" d="M114,61c11-4.4,16.3,12.5,5.5,15.6-9.9,2.8-14.4-12-5.5-15.6Z"/>
            <g>
              <path class="st27" d="M110.6,69.7c.8-.4,1.1-1.5.2-2,0,0,0-.2.1-.2,3.2,1.4,3.3-5.2.6-2.8,4.2-6.5,13.8-2.7,12.9,5-.6,5.2-7.7,7.9-11.7,4.5-1-.9-3-4.2-2.1-4.4Z"/>
              <path class="st17" d="M110.9,67.5c-.8-.3-.8-.7.6-2.8,2.8-2.4,2.6,4.3-.6,2.8Z"/>
              <path class="st20" d="M110.8,67.7c.9.4.5,1.5-.2,2-.9-1.6-.4-1.7.2-2Z"/>
            </g>
          </g>
        </g>
      </g>
      <path class="st31" d="M48.1,83.8l-13.5,3.8c-1.1-2.3-5-12.6-2-14.2,1-.5,7.2-1.8,10.3-2.7s1.7.1,2.1.9c1.5,3,3,10.6,3.2,12.2Z"/>
      <g>
        <path class="st43" d="M36,73.9l-2.2-9.9c.6-.2,3.8-1.2,4.1-.7l2.5,7.9c.1.4.2.9,0,1.2-1.5,1.4-3.2,1.6-4.4,1.4Z"/>
        <path class="st4" d="M33.9,64.1l2.2,9.9c-2.7-.6-1.1-2.4-3.4-9.4,0-.3.9-.4,1.2-.5Z"/>
      </g>
      <g>
        <ellipse class="st6" cx="35.1" cy="62.7" rx="35.1" ry="4.9" transform="translate(-15 11.2) rotate(-15)"/>
        <ellipse class="st1" cx="35.1" cy="62.7" rx="28.6" ry="4" transform="translate(-15 11.2) rotate(-15)"/>
        <ellipse class="st34" cx="35.1" cy="62.7" rx="18.7" ry="2.6" transform="translate(-15 11.2) rotate(-15)"/>
        <ellipse class="st0" cx="35.1" cy="62.7" rx="6.7" ry=".9" transform="translate(-15 11.2) rotate(-15)"/>
      </g>
      <g>
        <path class="st43" d="M33.9,64l-1.7-6.3c-.8-8.5,3.3-1.5,5.5,5.2,0,0-1.5.5-1.6.5l-2.2.6Z"/>
        <path class="st4" d="M33.9,64l-.9.2c-.6-2.1-.6-4.4-.8-6.5l1.7,6.3Z"/>
      </g>
      <path class="st31" d="M196.8,43.9l-13.5,3.8c-1.1-2.3-5-12.6-2-14.2,1-.5,7.2-1.8,10.3-2.7s1.7.1,2.1.9c1.5,3,3,10.6,3.2,12.2Z"/>
      <path class="st31" d="M196.8,43.9c.2,1.7.8,3.2-1.3,4.1-.8.4-9.1,2.5-9.8,2.4-1.7-.1-2.2-2.1-2.5-2.7l13.5-3.8Z"/>
      <g>
        <path class="st43" d="M184.7,34l-2.2-9.9c.6-.2,3.8-1.2,4.1-.7l2.5,7.9c.1.4.2.9,0,1.2-1.5,1.4-3.2,1.6-4.4,1.4Z"/>
        <path class="st4" d="M182.6,24.2l2.2,9.9c-2.7-.6-1.1-2.4-3.4-9.4,0-.3.9-.4,1.2-.5Z"/>
      </g>
      <g>
        <ellipse class="st6" cx="183.8" cy="22.8" rx="35.1" ry="4.9" transform="translate(.4 48.4) rotate(-15)"/>
        <ellipse class="st1" cx="183.8" cy="22.8" rx="28.6" ry="4" transform="translate(.4 48.4) rotate(-15)"/>
        <ellipse class="st34" cx="183.8" cy="22.8" rx="18.7" ry="2.6" transform="translate(.4 48.4) rotate(-15)"/>
        <ellipse class="st0" cx="183.8" cy="22.8" rx="6.7" ry=".9" transform="translate(.4 48.4) rotate(-15)"/>
      </g>
      <g>
        <path class="st43" d="M182.6,24.1l-1.7-6.3c-.8-8.5,3.3-1.5,5.5,5.2s-1.5.5-1.6.5l-2.2.6Z"/>
        <path class="st4" d="M182.6,24.1l-.9.2c-.6-2.1-.6-4.4-.8-6.5l1.7,6.3Z"/>
      </g>
      <path class="st31" d="M48.1,83.8c.2,1.7.8,3.2-1.3,4.1-.8.4-9.1,2.5-9.8,2.4-1.7-.1-2.2-2.1-2.5-2.7l13.5-3.8Z"/>
    </g>
  </g>
</svg>