<?xml version="1.0" encoding="UTF-8"?>
<svg xmlns="http://www.w3.org/2000/svg" version="1.1" viewBox="0 0 310 491">
  <defs>
    <style>
      .st0 {
        fill: #c45f41;
      }

      .st1 {
        fill: #f6921e;
      }

      .st2 {
        fill: #c05e58;
      }

      .st3 {
        fill: #232323;
      }

      .st4 {
        fill: #8cb9cc;
      }

      .st5, .st6 {
        fill: #c2d3dc;
      }

      .st5, .st7 {
        opacity: .2;
      }

      .st5, .st8 {
        mix-blend-mode: screen;
      }

      .st9 {
        fill: #a34737;
      }

      .st10 {
        fill: #23110a;
      }

      .st11 {
        fill: #281a26;
      }

      .st12 {
        fill: #f0935d;
      }

      .st13 {
        fill: #bdeded;
      }

      .st14 {
        fill: #c12e4b;
      }

      .st15 {
        fill: #f3c4ac;
      }

      .st16 {
        isolation: isolate;
      }

      .st17 {
        fill: #e5fdfe;
      }

      .st18 {
        fill: #7f2c86;
      }

      .st19 {
        fill: #db7b11;
      }

      .st20 {
        fill: #2e643c;
      }

      .st21 {
        fill: #fbfbfc;
      }

      .st7, .st22 {
        fill: #7aebe9;
      }

      .st23 {
        fill: #e6794d;
      }

      .st24 {
        fill: #a64429;
      }

      .st25 {
        fill: #e16b28;
      }

      .st26 {
        fill: #511407;
      }

      .st27 {
        fill: none;
        stroke: #424242;
        stroke-miterlimit: 10;
        stroke-width: 5px;
      }

      .st28 {
        fill: #424242;
      }

      .st29 {
        fill: #211c19;
      }

      .st30 {
        fill: #f6d6c6;
      }

      .st31 {
        fill: #661b6a;
      }

      .st32 {
        fill: #17ae9d;
      }

      .st33 {
        fill: #d53a5c;
      }

      .st34 {
        fill: #303133;
      }

      .st35 {
        fill: #f89f12;
      }

      .st36 {
        fill: #95409b;
      }

      .st37 {
        fill: #353535;
      }

      .st38 {
        fill: #120f12;
      }

      .st39 {
        fill: #320532;
      }

      .st40 {
        fill: #1d121b;
      }

      .st41 {
        fill: #4e0b1b;
      }

      .st8 {
        opacity: .3;
      }

      .st42 {
        fill: #fdfdfd;
      }
    </style>
  </defs>
  <g class="st16">
    <g id="Layer_1">
      <g>
        <g>
          <g>
            <path class="st31" d="M217.2,451.5c0,1.3-3.4,2.5-7.7,2.4-8-.3-7.2-1.2-7.7-2.4s-2.4-6.5-4-11.5.1-1.2.1-1.2l19.9-1.2s.4.5.4.8c-.3,5.5-1,12.9-1,13.2Z"/>
            <path class="st36" d="M226.2,459.4c0,1.3-3.4,2.5-7.7,2.4-8-.3-7.2-1.2-7.7-2.4-.9-2.2-7.5-20.7-6.3-20.9s21.3,1.4,22.6,1.7-.9,18.8-.9,19.2Z"/>
            <path class="st18" d="M227,449c-2.4,10-10.4-2.2-19.9-.2s-3.3-10.2-2.6-10.3c1.2-.3,21,.2,22.7.5s0,9.5-.2,10.1Z"/>
          </g>
          <g>
            <path class="st31" d="M102.3,451.5c0,1.3,3.5,2.5,7.7,2.4,8-.3,7.2-1.2,7.7-2.4s2.4-6.5,4.1-11.5.9-2.6.9-2.6l-21,.2s-.4.5-.4.8c.3,5.5,1,12.9,1,13.2Z"/>
            <path class="st36" d="M93.4,459.4c0,1.3,3.5,2.5,7.7,2.4,8-.3,7.2-1.2,7.7-2.4.9-2.2,7.5-20.7,6.3-20.9s-21.3,1.4-22.6,1.7.9,18.8.9,19.2Z"/>
            <path class="st18" d="M92.8,444.9c10.7.9,12.5,16,21.1.2,1.2-2.3,3.5-10.2,2.8-10.3-1.3-.3-22.4,1.5-24.2,1.7s0,8.4.3,8.5Z"/>
          </g>
        </g>
        <g>
          <g>
            <g>
              <path class="st36" d="M63.4,435.1c0-.3,0-.5-.1-.8,0,.2.1.5.1.8Z"/>
              <path class="st36" d="M258,327.4c-2-18.7-9.6-23.5-40.5-24-15.3-.2-36.2.6-65,1.3-18.6-.3-34.4-1.6-48.6-1.5-9.1,0-17.6.7-25.8,2.5-11.7,1.6-18.8,5.9-20.1,12.3-3.7,19.1-13.3,74.3,2.3,108.9.5,1.2,8.3,7.7,12.6,7.9,39.7,1,119.7,9.3,164.2,4.1q16.7-1.9,19.7-14.4c6.1-31.7,4.1-68.3,1.1-97.1Z"/>
            </g>
            <g>
              <path class="st36" d="M166.6,423.1s70.2-4.3,71.1-8c0,0,4.4-7.8,4.3-34.9-.2-48.1-6.9-57.4-6.9-57.4,0-.8-3.8-1.6-4.6-1.6-15.9,1.3-54.6-1.2-67.2.2-1.6,0,.6,91.8,0,92.5.7,2.9,0,8.8,3.3,9.2Z"/>
              <path class="st18" d="M166.6,422.6c17.9-.9,35.6-4.9,53.2-8,4.1-.8,11.4-1.7,15.2-3-.7.4-1.5,1.3-1.7,2.4,0,0,.5-1.1.5-1.1,2.4-6.2,3.5-13.9,4.6-20.9,1.1-7.6,1.6-15.4,1.6-23.1,0-14.3-.7-29.1-5.8-42.6-.3-.7-.7-1.5-1.1-2,0,0-.5-1.4-.5-1.4,0,.5.3,1.3.7,1.6-.8-.2-2.2-.5-2.9-.5-21,2.9-44.8.9-66.6,2.7,0,0-.5,0-.5,0,2.2,0,4.2-1.6,4.8-3.6-.2,13.2,0,30.3-.7,44.5-.8,15.2-2.7,30.4-3.3,45.6,0,0,0,.4,0,.4,0,.2,0,.5-.2.7,0,0,.1-.6.1-.6.7,2.5-.3,8.1,2.7,8.9h0ZM166.6,423.6c-4-.6-3.1-6.6-4-9.6,0,0,.1-.6.1-.6,0,0,0,0,0,.1,0,0,0,.1,0,0,0,0,0,0,0,0s0,0,0,0c0,0,0-.2,0-.2,0,0,0-.9,0-1.1-.6-15-3.3-29.8-4.3-44.8-.6-7.7-.8-15.4-1-23.2,0-7.8-.4-15.7.5-23.5.1-.5.3-1.2.5-1.7.7-1.7,2.7-3.1,4.7-3.1,0,0-.5,0-.5,0,11.6-.8,22.8.2,34.3.6,11.1.5,22.3,1.7,33.3,1.7,1.3,0,2.2.3,3.4.7,1.6.5,3.9,1.5,3.9,3.6,0,0-.5-1.4-.5-1.4.7,1,1,2.1,1.4,3.3,2.1,6.7,2.7,13.7,3.5,20.6,1.1,11.3,1.7,23.8,2.5,35.2.6,8,1.1,15.9.3,23.9-.5,4.3-1.1,8.7-2.9,12.7-.4.8.3-.9.3-.9-.4,1.8-2,3.1-3.4,3.7-5.8,2.1-11.9,2.3-17.9,2.8-6,.4-12.1.4-18.1.3-12.1-.2-24-.3-36.1.6h0Z"/>
            </g>
            <g>
              <path class="st36" d="M144.2,423.1s-44.8-3.9-67.9-4c0,0-6.1-11-6.3-38.9-.4-48.1,6.9-57.4,6.9-57.4,0-.8,3.8-1.6,4.6-1.6,15.8,1.3,54.2-1.2,66.7.2,1.6,0-.6,91.8,0,92.5-.7,2.9-.7,8.8-3.9,9.2Z"/>
              <path class="st18" d="M144.2,423.6c-22.6-2.1-45.3.6-67.9,0,0,0-2.7,0-2.7,0,0,0-1.3-2.3-1.3-2.3-5.5-11.8-5.4-25.4-4.8-38.1.7-12.3,1.2-24.6,2.2-36.9.7-7.2,1.4-14.6,3.6-21.6.4-1.2.8-2.3,1.5-3.4,0,0-.5,1.5-.5,1.5,0-2.7,3.2-3.5,5.3-4.1.7-.1,1.2-.3,2-.3,10.9,0,22.1-1.2,33-1.6,11.4-.4,22.6-1.4,34.1-.6,0,0-.5,0-.5,0,2.2,0,4.3,1.6,4.9,3.6.5,1.3.5,2.9.7,4.2.7,14.6.2,29.2-.8,43.7-1,13.5-3.2,26.9-4.1,40.4-.1,1.8-.2,3.6-.2,5.4,0,0,0,.2,0,.2h0c0,0,0,0,0,0,0,0,0,0,0,0-.2-.5,0,.4,0,.4-.9,3-.6,8.9-4.6,9.6h0ZM144.2,422.6c3.1-.8,2.6-6.2,3.3-8.9,0,0,.1.6.1.6-.2-.3-.2-.8-.2-1.1-.6-15.2-2.5-30.4-3.3-45.6-.7-14.2-.5-31.3-.7-44.5.5,2,2.6,3.6,4.8,3.6,0,0-.5,0-.5,0-21.6-1.8-45.3.2-66.1-2.6-.6,0-2.2.3-2.9.5.4-.3.8-1.1.7-1.6,0,0-.5,1.5-.5,1.5,0,0,0,0,0,0-3.8,6.7-4.8,14.7-5.9,22.3-2.5,22.6-1.2,49.1,7.4,70.3,0,0-3.9-2.3-3.9-2.3,22.9,0,45.1,6.4,67.8,8h0Z"/>
            </g>
            <g>
              <path class="st31" d="M255,316.2c-.2-.3,5.7,70-3.8,98.6-2,6-6,11.4-8.7,12-37.9,8.3-121.3,4.1-165.1,2.9-19-.5-25.2-41.2-25.2-41.2,0,0-1.1,22.9,10.1,43.3.2.3.3.6.5.9,0,0,0,0,0,0,0,0,0,0,0,0,2.9,5.1,6,6.2,18.9,5.1,23.2.6,62,2.9,80,3.7,44.9,1.9,64.2-.8,81.9-2.6,11.6-1.2,10.7-5.4,12.8-11.8,1.3-3.8,3.5-20,3.7-23.2,1.5-18.9.6-80.1-5.3-87.6Z"/>
              <path class="st31" d="M63.4,435.1c0-.3,0-.5-.1-.8,0,.2.1.5.1.8Z"/>
            </g>
          </g>
          <g>
            <g>
              <path class="st31" d="M131,343.7c2.3,0,6.4-2.5,3.9-7.3-.2,2-.3,4.7-.7,4.8-1.3,1.5-5,.8-7,.8.6.6,2.5,1.7,3.7,1.7Z"/>
              <path class="st34" d="M125.6,335.7c-1.6,3.4,1.4,7.6,5,7.4,10.6-2.4,1.1-15.9-5-7.4Z"/>
              <path class="st28" d="M131.5,334.9c-3.8-.5-2.8,5.7.8,4.7,2.2-.6,1.4-4.4-.8-4.7Z"/>
            </g>
            <g>
              <path class="st31" d="M187.4,338c.2,1.3-2,6.4-6.2,5.1,1.9-.3,3.8-1.2,3.9-1.6,1.4-1.4,1.2-3.8,1.2-5.9.6.6.9,1.1,1.2,2.3Z"/>
              <path class="st34" d="M186.2,335.7c1.6,3.4-1.4,7.6-5,7.4-10.6-2.4-1.1-15.9,5-7.4Z"/>
              <path class="st28" d="M180.3,334.9c3.8-.5,2.8,5.7-.8,4.7-2.2-.6-1.4-4.4.8-4.7Z"/>
            </g>
          </g>
          <path class="st31" d="M225.4,303.8c0,4.6-39.9,6.8-80.1,6.6-15.5,0-62-3.7-63.2-4.7s5.9-17.8,17.4-19.3c11.7-1.5,39.9,12.2,57.9,12.2s42.4-14,54.2-12c8.1,1.4,13.9,15.4,13.9,17.3Z"/>
        </g>
        <g>
          <line class="st27" x1="156.9" y1="66.6" x2="183.7" y2="18.7"/>
          <line class="st27" x1="156.5" y1="66.1" x2="129.8" y2="18.2"/>
          <ellipse class="st28" cx="156.7" cy="66.2" rx="21.7" ry="19"/>
          <g>
            <path class="st25" d="M133.1,11.6c1.4,3.6-.2,7.7-3.6,9.2s-7.3-.2-8.7-3.8.2-7.7,3.6-9.2,7.3.2,8.7,3.8Z"/>
            <path class="st1" d="M122.6,12c.8-1.8,2.8-2.6,4.5-1.8s2.4,2.9,1.7,4.7-2.8,2.6-4.5,1.8-2.4-2.9-1.7-4.7Z"/>
          </g>
          <g>
            <path class="st24" d="M302.2,94h0c-3-10.3-7.2-18-15.8-24.2-1.7.4-3.4,3.3-3,4.9,6.7,5.3,10.7,12,13.6,20.2.3.9,1.4,2.5,1.7,3.6h0c7.9,28.6,6.4,98.9,2.6,129.8-.8,6.4-1.7,12.6-3,18.9-4.3,21.4-10,40.4-33,44.9-14.5,2.8-70.2,5.1-88.1,5.4-30.7.5-98.6-.8-127.1-4.9-14.5-2.1-20-4.1-31.9-13.5,9.2,21.5,22.3,22.8,43,25.1,7.2.8,14.6.4,21.7,1.8,48.5,1.8,97.2,3.1,145.6-.4.3,0,2.4-.6,6.4-.9,5.5-.5,11.1-.3,16.6-.9,12.6-1.3,21.7-1.5,31.9-9.9,3.6-2.9,6.6-6,8.9-10.1,19.9-34.4,21-151.1,9.8-189.7ZM300.5,98.1c.2,0,.4-.2.6-.2-.2,0-.3.2-.6.2ZM301.8,96.9c0,.3-.2.6-.5.8.4-.3.5-.5.5-.8,0-.1,0-.2,0-.3,0-.1,0-.2,0-.3,0-.3-.2-.5-.2-.8-.1-.5,0-.9.4-1.3-.5.4-.5.8-.4,1.3,0,.3.2.5.2.8,0,.1,0,.2,0,.3,0,.1,0,.2,0,.3Z"/>
            <path class="st30" d="M292.8,192.1c-.4,9.4-1.6,19.1-2.6,28.5l-3.4-.9c3.1-31,4.2-84.1-2.6-113.8-.5-2.4-3-6.8-3-7.2,0-1.1,12.3,71.5,11.5,93.4Z"/>
            <path class="st15" d="M290.3,220.6c-.6,6.2-1.1,12.3-2.1,18.4-1.8,10.7-3.5,22.6-11.1,30.5-.6.6-1.5,1.2-2.1,1.8-.8-1.1,1.8-2-.9-4,9.8-10,11.4-33.7,12.8-47.6l3.4.9Z"/>
            <path class="st1" d="M298.8,98.5c-.3-1.1-4.5-23.8-12.3-28.7-20.3-14.8-232.9-12.8-251.8-4.9-13.9,5.8-21.3,18.3-24.9,33C-.7,140.2,1.1,239,18.2,279c11.9,9.4,17.4,11.3,31.9,13.5.2-3.7,250.4-57.8,251.2-64.2,3.9-30.8,5.4-101.2-2.6-129.8Z"/>
            <path class="st25" d="M287.1,109.2c-3.1-15-12.2-18.7-14.1-20.1-7.7-5.7-28.6-6.4-38.7-7.2-31.4-2.5-79.6-3.6-111.1-2.7-12.4.3-68.3,3.3-76.6,5.8-12,3.7-15.6,14.6-17.7,26.3-5.5,30.3-6.1,75.2-3,106,.7,6.6,1.6,17.2,3.8,27,0,0,0,0,0,0,1.7,13.5,10,44.7,20.4,48.2,28.4,4.2,96.4,5.5,127.1,4.9,18-.3,70.2-2.4,84.8-3.6,25-2.1,37.9-26.3,39.3-65.6,1.4-39-14.2-119.1-14.2-119.1ZM270.7,265.1c-3.3,1.2-34.3,2-44.9,2.7-50.8,3.1-102-.7-152.7-5.4-23.2-5.7-29-9.3-34.8-14.5-2.6-9.7-7.5-21.1-8.1-26.4-3.3-28.8-3.4-58-.4-86.9,2.3-22.4,3-41.6,20.2-46,10.9-2.8,62.9-5.5,77.1-5.8,25.6-.6,112.1,1.5,133.5,5.8,9.1,1.9,15,4.9,18.5,12.7-1,27.8-20.7,169.2-8.2,163.7Z"/>
            <path class="st34" d="M280.5,105.7c-3.2-11.2-9.4-14.9-20-17.1,0,0,0,0,0,0-21.3-4.4-107.9-6.5-133.5-5.8-14.1.4-66.1,3.1-77.1,5.8-17.2,4.4-17.9,23.6-20.2,46-2.9,28.9-2.8,58.1.4,86.9,1,9.3,4.1,33.8,13.1,37.7,61.6,14.8,218.8,14.1,227.4,5.8,8.3-8,13.8-54.9,14.5-66.2,1.2-22,1-73.3-4.7-93.2ZM267.9,91.6c1.1.5,2.2,1,3.3,1.7-1-.6-2.1-1.2-3.3-1.7Z"/>
            <g>
              <path class="st28" d="M140.8,88.1c16.7,0,33.2.6,49.8,2.2,9.4.9,34.1,2.3,40,10.6,5.3,7.4,7.8,47.2,8.1,57.9.5,17.4-.2,71.9-5.1,86.2-2.3,6.8-6.7,9.8-12.8,12.3-86.9,11.5-168.7.4-176-6.7-9.9-9.6-11.8-67.9-11.3-82.8.4-12.4,4.1-57,9.8-66,4.3-6.7,16.8-7.6,24.1-8.8,21.7-3.4,51.3-4.9,73.4-4.9Z"/>
              <path class="st4" d="M126.6,94c17.4-.5,89.7-.2,98.6,15.5,6.3,11.1,7.2,63.2,6.8,78.1-.3,11.6-2,55.1-10.9,61.3-7,4.8-49.7,8.1-60,8.5-9.1.3-24.5.3-33.6,0-12.4-.5-67.8-5.3-75.8-11.2-7-5.2-11.1-43.3-11.7-53.2-1.1-18.7,1.8-59.8,6.8-77.2,3.5-12.2,12-13.6,22.8-15.9,14.3-3.1,42.1-5.4,57-5.8Z"/>
            </g>
          </g>
          <g>
            <path class="st25" d="M191.6,12.3c1.4,3.6-.2,7.7-3.6,9.2s-7.3-.2-8.7-3.8.2-7.7,3.6-9.2,7.3.2,8.7,3.8Z"/>
            <path class="st1" d="M181.1,12.7c.8-1.8,2.8-2.6,4.5-1.8s2.4,2.9,1.7,4.7c-.8,1.8-2.8,2.6-4.5,1.8s-2.4-2.9-1.7-4.7Z"/>
          </g>
        </g>
        <path class="st12" d="M155.7,176.6l2.9,14.2s1.5,2.2,2.3,1.9c2.4-1.1,4.1-5.6,4.1-10.5s-2.3-8.7-2.3-8.7l-7,3.1Z"/>
        <g>
          <g>
            <path class="st38" d="M176.3,177c-1.8-1.1-1,3-6.5,3.4,0-4.7-.8-6.5-4.1-9.8l.4-.5c1.3.4,9,3.9,9.4,4.3.6.6.5,1.5.7,2.5Z"/>
            <path class="st38" d="M176.3,177c.3,1.1.1,3,.6,3.4-.7.2-5.2,4.9-7.3,4.6.3-1.4.3-3.2.3-4.6,5.5-.4,4.6-4.5,6.5-3.4Z"/>
          </g>
          <g>
            <path class="st38" d="M86.8,135.2c-1,1.3-2.1,2.3-2.9,3.7.1-.9.4-1.7.3-2.6-.9-.3-5.9-4.5-6.2-4.8-.2-.2-1.2-5.2-1.2-5.7,0-2.5,1.7-5.1,3.5-6.7-3.6,8.5,5.6,12.2,6.2,13.8.3.9-.7,2.1.3,2.3Z"/>
            <path class="st38" d="M212.7,144.2c2.5,4.4,1.7,6.5,0,11.3,2.8.7,3.2.3,5.9,1.7v.6c-.7-1.3-.5,1.1-3.7-.9-.7,3.5-4.3-1.6-2.8,3.3-3.9,1.9-1.3-10.5,1.2-11.1.2-.5-3.3-7-.6-4.8Z"/>
            <path class="st11" d="M66.2,204c-.2,0-.9,1.1-3.1,1.9-.3,0-2.7-6.4-2.8-6.8-1-5.2,1.6-6.9,2.1-7.7q4.1-2.9,8.2-5.7-.3-2.9-.6-5.7c0-1.8-4.9-4.4-8.2-6.8-1.3-2.9-.6-6.4,1.2-9,5.2-2.5,11.7-1.1,11.7-5.1,0-.3-1.3-3.7-1.5-6.3-.4-7,8.6-8.3,9.4-9.1.3-.4,1.1-3.7,1.2-4.5.8-1.4,2-2.5,2.9-3.7,1.3-1.8,2.2-.3,1.2-5.7,9.5-11.1,8.9-6.9,22.2-5.1,2-.5,2-9.5,6.2-10.2,5.9-1.1,7.4,6.7,5,8.7-2.3,1.9-2-1.7-4.1-5-2.3,14.7-10.9,9.8-21.4,8.4-5.2,3.8-2.7,6.6-3.4,8.5-.2.5-4.7,4.6-5,5.3-1.8,4.2,3.2,3.4-10.3,10.8-1.4,3.9,5.6,10.6-4.3,15-2.8,1.3-10.2,1.4-8.2,4,1.6,2.1,9.4,3.9,9.8,11.3.9,14.7-16.6,6.6-8.2,22.8Z"/>
            <path class="st11" d="M214.2,201.8c0,0-.2-.2-.3-.3-.2-11.9-7.5-8.1-11.9-11.1-2.8-2-4.8-12.6,8.7-11.9,3.4,5.2-8.6,4.1-7.3,6.8.3.6,9.3,3.9,10.6,5.6,1.8,2.4,1.8,9,.3,11Z"/>
            <path class="st40" d="M62.4,191.3c-.5.9-3.1,2.5-2.1,7.7-3.5-1.4-9.2-1.7-8.5-7,1.1-8.4,9.7-.8,10.6-.8Z"/>
            <path class="st40" d="M70,179.8q.3,2.9.6,5.7-4.1,2.9-8.2,5.7c.3-.6,1.3-1.3,1.5-1.7,1.2-3.5-2.7-6.1-2.3-9.6q4.3,0,8.5-.2Z"/>
            <g>
              <path class="st38" d="M89.1,177q-.4,3.1-.7,6.2c-1.9-1.3-4.1-1-5.1-3.4q2.9-1.4,5.9-2.8Z"/>
              <path class="st32" d="M95.9,174.5c-.8,2.3-1.7,3.5-1.8,6.2-2.1,1.2-.7-5.5,2.1-7.6l-.3,1.4Z"/>
            </g>
            <g>
              <path class="st40" d="M54.2,203.5c-2.2,5.7,1.7,13.3,7.8,11,4.9,5-1.2,5.1-.1,12.2.8,5.6,8.3,9.1,12.8,5.7,6.3,2.8,3.3,3.2,5.4,6.3,2.8,4,9.6,3.6,12.8.2.8.2.5,7.9,10.2,7.3.6-.3,1.2-.5,1.8-.7,2.5-4.2,3.5-1.1,7.6-3.2,3.2-1.6,3.1-6.1,6.3-3.1,1.7-2.5,2.7-5.7,5-7.7,0-.5,0-.5.3-.9-4.5-.8-15.8-9.7-19.4-13.1-6.1-5.7-9.7-10.8-9.7-19.5,0-.4-.2-5.2-.9-6.7-.2-.5-.2-5.8,0-10.5-2.1,1.2-.7-5.5,2.1-7.6q-.1.7-.3,1.4c0-.3.8-2.1.9-2.2.8-1.6,1.5-4.3,3.8-3.6q-.6-.9-1.2-1.7c.6-5.9,4.7-20,10.3-22.6,3.3-1.6,6.5.7,10.4-5.3,13.5,8,18.7-1.5,19.7-1.9,4-1.6,5.2,3.3,5.4,3.6,4.7,5.6,9.5,3.5,13.5,11.1,1.6,3,2.1,7,3.8,9.9.7,1.2-.5,10.3.3,12.1,2.7,6.4,2.3,13,.6,15.9,3.9-6.6,1,2.3,4.7-1.2.3-.8,1.4-3.3,1.5-3.7.3-1.4.3-3.2.3-4.6,0-4.7-.8-6.5-4.1-9.8l.4-.5c1.3.4,9,3.9,9.4,4.3.6.6.5,1.5.7,2.5.3,1.1.1,3,.6,3.4,6.9-1.7,10.1,11.7,1.9,18.9-6.3,5.5-9.7-1.5-13.7,4.8-.2.3-.6,2.9-3.2,7-3.6,5.5-9.8,9.6-15.3,12.7.7,1.8,1,3.7,1.5,5.6.4,1.5,1.1,3.2,1.2,3.4,3.4.4,4.7,4.1,6.5,5.3.3.2,2.1.6,2.8.6,4.1,8.6,15,6.6,17.6-2.5,5.7,6.3,14.3,7.5,16.7-2.5,4.3,0,7.4.5,10.3-3.4,10.8,1.2,14.9-10.2,7.2-17.8q1.8-2.6,3.7-5.1c3.6,1,7,0,9-3.4,2.4-4.4,1.3-9-2.6-11.9.9-10.8-4.6-10.9-5-11.5-1.8-2.7,3.4-2.4,6.2-5.9,4.2-5.2,2.9-14.4-2.9-17.5v.6c-.7-1.3-.5,1.1-3.7-.9-.7,3.5-4.3-1.6-2.8,3.3-3.9,1.9-1.3-10.5,1.2-11.1.2-.5-3.3-7-.6-4.8-2.4-4.1-6.6-6.1-11-4-1.7-.4.6-3.8-6-7.6,5.1-10-7-18.2-13.1-8.8-10.8-12.8-26-18.5-41.1-9.9-10.3-12.3-29.7-10.8-40.4.2-1,1.1,0,2.6-7.8,6-1.2,0-6.1-7-13.1-.9-3.6,8.5,5.6,12.2,6.2,13.8.3.9-.7,2.1.3,2.3,1.3-1.8,2.2-.3,1.2-5.7,9.5-11.1,8.9-6.9,22.2-5.1,2-.5,2-9.5,6.2-10.2,5.9-1.1,7.4,6.7,5,8.7-2.3,1.9-2-1.7-4.1-5-2.3,14.7-10.9,9.8-21.4,8.4-5.2,3.8-2.7,6.6-3.4,8.5-.2.5-4.7,4.6-5,5.3-1.8,4.2,3.2,3.4-10.3,10.8-1.4,3.9,5.6,10.6-4.3,15-2.8,1.3-10.2,1.4-8.2,4,1.6,2.1,9.4,3.9,9.8,11.3.9,14.7-16.6,6.6-8.2,22.8-.2,0-.9,1.1-3.1,1.9-.3,0-2.7-6.4-2.8-6.8-3.5-1.4-9.2-1.7-8.5-7,1.1-8.4,9.7-.8,10.6-.8.3-.6,1.3-1.3,1.5-1.7,1.2-3.5-2.7-6.1-2.3-9.6l8.5-.2c0-1.8-4.9-4.4-8.2-6.8-1.3-2.9-.6-6.4,1.2-9,5.2-2.5,11.7-1.1,11.7-5.1,0-.3-1.3-3.7-1.5-6.3-.4-7,8.6-8.3,9.4-9.1.3-.4,1.1-3.7,1.2-4.5.1-.9.4-1.7.3-2.6-.9-.3-5.9-4.5-6.2-4.8-.7.1-1.4.6-2.1.9-4.7,2.7-3.2,2.3-5.4,7.1-11.3-1-15.5,10.6-7.5,18.7-1.6.5-3.1.7-4.7,1.4-1.2.5-2,.9-2.9,1.9-5.6,5.5-3,13.3,3.5,16.3.4,1.2-2.4,2.8,0,8.7-11.1-1.3-15.1,11.9-4.7,17ZM210.7,178.4c3.4,5.2-8.6,4.1-7.3,6.8.3.6,9.3,3.9,10.6,5.6,1.8,2.4,1.8,9,.3,11,0,0-.2-.2-.3-.3-.2-11.9-7.5-8.1-11.9-11.1-2.8-2-4.8-12.6,8.7-11.9Z"/>
              <g>
                <path class="st11" d="M149.2,115.1c7.4-.7,12.8,12.6,26.7,7.7,6.8,9.5,12.5,6.6,9.5,18.1,1.5.8,7.3,6.2,7.8,6.3,3.2,1.2,12.8-1.8,9.8,10.7,2.8,1,12.6,5.1,13.8,7.4,1.4,2.7.4,8.1-2.5,9.1-6.8,2.5-.5-5.9-.7-7-7.3-7.1-17.6-.5-13.5-15.2q-3.9-.4-7.8-.8c-4.9-6.8-7.8-5-9.5-7.3-4.7-6,7.3-14-11.6-11.3q-.7-2.6-1.5-5.3c-7.2.2-13.5-4.1-19.1-8.4-2.5-.2-10.1,5-8.4-.5.4-1.2,5.6-3.7,6.9-3.9Z"/>
                <path class="st39" d="M176.8,126.5c1.8-.1-1.5,1.3-2.1,1.5-7.1,2.7-2-1.2,2.1-1.5Z"/>
              </g>
            </g>
          </g>
          <g>
            <g>
              <path class="st23" d="M163.4,205.5c-3.7,10.4-28.8,23.1-36,22.9-9.1-.3-27.3-16-29.5-26.2,3.2.7,6.6.7,9.7-.2.4.5,1.8,1.9,3.8,5.3,4.1,6.8,6.5,13.9,15.9,12.7,7.4-.9,9.2-6.3,11.5-9,1.9-2.3,4-4.5,5.9-6.8,2.1.5,4.5.9,6.6.6,1.3-.2,6.9-2.5,6.3-3.7,1.4-.7,4.9-3.5,5.9-4.6,1.2,2.8,1.1,6.1,0,9Z"/>
              <path class="st2" d="M157.5,201.2c.6,1.2-5.1,3.5-6.3,3.7-2.1.3-4.5,0-6.6-.6.3-.3.4-.9.6-1.2,4,.9,8.7,0,12.3-1.9Z"/>
              <g>
                <path class="st23" d="M161.9,211.1c-1-1,2.8-3.8,1.5-5.6,1.1-2.9,1.2-6.2,0-9,1-1.1,3.4-6,4.1-7.6.3-.8,2-3.5,2.1-3.9,2.1.3,6.7-4.5,7.3-4.6,6.9-1.7,10.1,11.7,1.9,18.9-6.3,5.5-9.7-1.5-13.7,4.8-.2.3-.6,2.9-3.2,7Z"/>
                <path class="st9" d="M178.1,192.2c1.1,4.4-2.8,4.9-4.3,4-1.4-.9-2.1-6.4-1.3-8.4,2.5,1.1,5.1,6.6,5.6,4.3Z"/>
                <path class="st26" d="M178.1,192.2c-.5,2.3-3.1-3.3-5.6-4.3,1.2-2.8,9.9-4.7,8.4,2.8-.8-6.1-5.6-3.6-5.7-2.9-.1.5,2.4,2.5,2.9,4.5Z"/>
              </g>
              <path class="st12" d="M144,203.3c-1,.3-1.9,1.3-3.2,1.5-11.2,2.6-20.5,3.3-30.8-2.8-.6-.3-1.2-.6-1.8-.9,8.5-1.9,14.7-11.9,14.5-20.7,12.5-1.2,4.4,2.1,10.7,14.1,2.6,4.9,5.9,6.7,10.6,8.8Z"/>
              <g>
                <path class="st41" d="M108.2,201.2c.6.3,1.2.6,1.8.9,1.4,2.2,4.3,4.1,6.5,6.2.1.1.6,1.6,1.5,2.6.4.4,1,.7,1.5,1.1-2.3,1.2-5.8-3.5-7.9-4.6-2-3.4-3.5-4.7-3.8-5.3,0,0,0-.5-.3-.9.3,0,.6,0,.9,0Z"/>
                <path class="st41" d="M145.2,203c-.2.4-.3.9-.6,1.2-1.9,2.3-4,4.5-5.9,6.8-.9.1-3.6.7-4.1.9,1.3-1.6,2.7-3.1,4.1-4.6.7-.8,1.6-1.6,2.1-2.5,1.3-.3,2.2-1.3,3.2-1.5l1.2-.3Z"/>
                <path class="st33" d="M138.7,211.1c-2.2,2.7-4,8-11.5,9-5.6-.3-10.8-6.9-7.6-7.7,7,4.4,11.9.9,15-.3.6-.2,3.2-.8,4.1-.9Z"/>
                <path class="st14" d="M119.4,212c.3.2.3.3.3.3-3.1.8,2.1,7.4,7.6,7.7-9.3,1.2-11.8-5.9-15.9-12.7,2.2,1.2,5.6,5.8,7.9,4.6Z"/>
                <path class="st14" d="M140.8,204.9c-.5.9-1.4,1.7-2.1,2.5-7.2,2.7-15,3.5-22.3.9-2.1-2.1-5.1-4-6.5-6.2,10.3,6.1,19.7,5.3,30.8,2.8Z"/>
                <path class="st21" d="M138.7,207.4c-1.4,1.5-2.8,3.1-4.1,4.6-3.1,1.2-8,4.7-15,.3,0,0,0,0-.3-.3-.5-.4-1.1-.7-1.5-1.1-.9-1-1.4-2.5-1.5-2.6,7.3,2.5,15.1,1.8,22.3-.9Z"/>
              </g>
            </g>
            <g>
              <g>
                <path class="st21" d="M153.4,187.9c1-1.2.6-.9.9-2.2,0-.3,0-.6,0-.9,0,0,.8-.3,0-1.9,1.8.4,4.1,2.8,4.1,4,0,4.5-11.5,5.2-16.6.6-2.5-2.3-.5-1.4.4-2.2,1.9-1.5,3.2-5.4,9-4.3,3.1.6-2.1,0-3.4,2.3-2.4,4.5,2.5,8,5.6,4.5Z"/>
                <path class="st17" d="M154.3,182.9c.8,1.6,0,1.8,0,1.9q-.4.5-.9.9c-3.9.9-2.9-3.6.9-2.8Z"/>
                <path class="st22" d="M154.3,185.7c-.3,1.2.2,1-.9,2.2-1.8-1.1,0-1,.3-2.2h.6Z"/>
                <path class="st20" d="M154.3,185.7h-.6c0,0-.2,0-.3,0q.4-.5.9-.9c0,.3,0,.7,0,.9Z"/>
              </g>
              <g>
                <path class="st40" d="M102.3,167.9c-4,5.4-4.8,19.3-4.7,18.6.3.5-2.7,12.8-2.9,12.4-2.3-4.3-5.9-13.6-1.2-23.5,1.1-2.4,5.5-7.2,8.8-7.4Z"/>
                <path class="st12" d="M163.4,190c2.8-6.8-4.8-3.1-5-3.1,0,4.5-11.5,5.2-16.6.6-2.5-2.3-.5-1.4.4-2.2-.4-2.8,1.9-5,4.1-6.3,1.1-.6,3.5-.6,5.3-.6s4.1,1.9,5.6,3.5c.5.6,8.2-11.7,8.4-11.8.1,0,1.1-2.5,1-2.9-.1-1.1-3.4-4-4.1-5.3-1.7-2.9-2.2-6.9-3.8-9.9-4-7.7-8.8-5.6-13.5-11.1-.2-.3-1.4-5.2-5.4-3.6-1,.4-6.2,9.9-19.7,1.9-4,6-7.1,3.7-10.4,5.3-5,6.7-12.7,27.5-12.6,27.4-.6,2.5-1.8,5.6-1.8,8.4-.3,2.3-.3,8.1-.6,8.7-2.3,5.6-.6,11.8,0,13,0,.2,8.6-.2,12.7-.8.3,0,.6,0,.9,0,8.5-1.9,14.7-11.9,14.5-20.7,12.5-1.2,4.4,2.1,10.7,14.1,2.6,4.9,5.9,6.7,10.6,8.8q.6-.2,1.2-.3c4,.9,8.7,0,12.3-1.9,1.4-.7,4.9-3.5,5.9-4.6,1-1.1,4.1-6.2,4.7-7.7-3.7,3.5-.7-5.3-4.7,1.2ZM117.9,183.2c-1.1-.2-.3,1.9-.6,2.3-.5.8-1.9-1-2.3.8,0,.4,0,1,0,1.2,2.9.7-2.3,7.4-3.4,7.4-.8,0-1.6-3.1-4.1-2.8-1.2.2-6.2-1-9-5.6.3-1.7.6-4.7.7-4.9,0-.2-.1-1,.3-1.7,2.5-4.6,12.2-5.6,16.7-5.4,1.2,2.5,1.9,5.9,1.8,8.7ZM146.2,162.1c-.7,0-1.4,0-2.1,0,.7,0,1.4-.1,2.1,0ZM140.4,163.2c-.3.2-.6.3-.8.5.2-.2.5-.3.8-.5Z"/>
                <path class="st21" d="M109.1,181.3c-9.8,2.5.7,12.2,2.9,4.6.4-1.2.3-2.2.3-3.4.3,0,2,1.8,2.3,2.8,0,.2.3.9.3.9,0,.2,0,.4,0,.6s0,.5,0,.6c-1,3.7-10.9,3.3-15,1.9-1.4-.5-1.6-2.1-1.5-3.4.5-4.2,9.5-6.5,10.6-4.6Z"/>
                <path class="st23" d="M116.1,174.5c-4.5-.2-14.2.8-16.7,5.4-.4.7-.2,1.5-.3,1.7,4-6.1,16.3-4.5,15.6,3.7,0,.2.5,1,0,2.8-1.9,3-11.3,2.2-14.7,1.3-.2,0-1.6-.7-.9.3,2,3,6.9,4.4,8.5,4.8,2.3.6,3.2.7,4,.4,4.8-1.7,6-9.1,6.3-11.8.3-2.2-.5-6.2-1.8-8.7Z"/>
                <path class="st13" d="M112,186c-1.3,1.7-2.9.9-2.1-1.2,1.2-.3,1.7-2.2,2.3-2.2,0,1.2,0,2.2-.3,3.4Z"/>
              </g>
            </g>
          </g>
        </g>
        <path class="st38" d="M97,190.2"/>
        <path class="st0" d="M95.2,195.8c2.9,3.2,8,6,12.1,5.4.3.5.3.9.3.9-3.1.9-6.5.9-9.7.2,2.2,10.1,20.4,25.9,29.5,26.2,7.2.2,32.2-12.5,36-22.9,1.3,1.8-2.5,4.6-1.5,5.6-3.6,5.5-9.8,9.6-15.3,12.7-6.4,3.6-15.3,8.2-22.6,6.8-4.5-.8-16.5-8.7-20.1-12.1-5.8-5.4-10.5-14.6-10.5-23.3,0,0,1.7.6,1.8.6Z"/>
        <path class="st0" d="M102.3,165.2c-1,.6-4.4,6.2-5.3,7,.6-5.9,6.5-26,12.7-27.7,7.8-2.2-2.6,2.8-6.2,15-.5,1.8-.6,3.9-1.2,5.7Z"/>
        <g>
          <path class="st23" d="M125.2,201.5c-2.4-.1-4.6-1.8-6.2-3.4-1.1-6.4,2-.6,3.4.3,3.6,2.3,10.6-.2,2.8,3.1Z"/>
          <path class="st26" d="M119.1,198.1c1.6,1.6,3.7,3.3,6.2,3.4,2.2,0,8.5-3.5,5.1-.6-6.3,5.5-15.8-4.3-12.3-4.3.3,0,.2.7,1,1.5Z"/>
        </g>
        <path class="st23" d="M145.2,170.2c1.7-.2.5.4-1.8,1.4-3.6,1.6-5.9,4.3-4.1,12.7,0,.3-.2.2-.4.5q-2.7-.9-5.4-1.9c-.2-9.9,3.5-11.9,11.7-12.7Z"/>
        <path class="st0" d="M176.9,198.3l.6,1.2c.6,1.2-1.8,1.9-1.8,1.9-.7.2-1.2.6-1.8,0l.6-3.1c.6-1.2,2.2-.3,2.3,0Z"/>
        <path class="st23" d="M166.9,167.3c-.1-2.4-2.4-2.4-4.1-5-1.4-2.2-2.3-7.1-2.3-7.4-1.8-6.2-7-8.7-7-8.7,0,0,8.2,10.5,5.3,24.8-.3,0-2.4-1.3-2.9-1.4-3.2.4-.6,1,.9,3.9,2,3.7,3.1,8.3,2.1,12.5,0,.2,0,1.1,0,1.1,0,0-.6,1.4-1.2,1.9-2.9,2.5-8.8,1.8-10.6,1.2-1.2-.3-2.9-1.2-2.9-1.2,0,0,1.8,5.6,11.7,5.6s8.4-8,8.8-9.9c.5-2.8,0-6.2-1.8-9.9,0-.2,4.2-6.2,4.1-7.4Z"/>
        <g>
          <path d="M96.4,173.1c0,.2.3,0,.6-.3,3.5-2.5,5.3-3.7,6.5-4.3,2.3-1.2,3.9-1.3,4.1-1.3,2.2-.8,10.4,2.2,7.5-2.3-2.6-4.2-10-1-13.2.8-1,.6-5.4,4.7-5.5,7.5Z"/>
          <path d="M155.3,170c.3.4.4-1.5.1-2.5-2.4-6.7-16.1-5.6-16.9-2.6-1.2,4.4,6.1.7,12.6,2.5,1.6.6,2.2.6,4.1,2.6Z"/>
        </g>
        <g>
          <path class="st13" d="M177.5,203.2c0-1.2,0-3.1-.6-3.7s-1.1-1.3-1.8-.6-1.1,2.9-1.2,4.3c0,.5.2,2.1.6,2.4,1.2.9,1.9.8,2.3.1,1.2-2,.6-1.7.6-2.6Z"/>
          <path class="st22" d="M177.8,202.7c-.1-1.7-.3-3-.9-3.2-1.8-.6-.6,1.9-2.3,3.1-.7.5-.3,2.1,0,2.5,2,2.6,3.4-.6,3.3-2.4Z"/>
        </g>
        <path class="st0" d="M159,180.3c0,.2-.2.4-.3.2-2.3-4.5-10.1-5.7-13.1-4.1-1.8.9,4.4-5.1,10.2-2.2,2.9,1.4,3,4.9,3.2,6.2Z"/>
        <path class="st10" d="M162.7,182.6c-2.6.8-4.2.5-5.2-.5-.2-.3-.4-.5-.6-.7-4.1-6.2-15.2-3.1-14.6,3.9,1.9-1.5,3.2-5.4,9-4.3,3.1.6-2.1,0-3.4,2.3-2.4,4.5,2.5,8,5.6,4.5-1.8-1.1,0-1,.3-2.2,0,0-.2,0-.3,0-3.9.9-2.9-3.6.9-2.8,1.8.4,4.1,2.8,4.1,4,.3.8-.4,1.5-.3,1.4.6-.6,1.2-1.9.6-2.3,1.4,0,4-3.4,4-3.4Z"/>
        <path class="st0" d="M98.8,180.9s2.6-3.4,4.7-4.3c3.3-1.4,11.2-2.5,12.9-1.9s-6.9-2.8-12.4-.6c-.8.3-2.1,1.1-2.8,1.9-2.3,2.5-2.3,5-2.3,5Z"/>
        <path class="st10" d="M99.5,181.1h0c-1.9,1.7-4.3.2-4.3.2,0,0,.8,2.2,2.7,2.7,0,0,.2,0,.3,0,0,1.1,0,1.4.3,1.9.5-4.2,9.5-6.5,10.6-4.6,0,0,.1.1.2.2.1.2,0,.2,0,.3.1,0,.1-.1,0-.3,0,0,0-.1-.2-.2-9.8,2.5.7,12.2,2.9,4.6-1.3,1.7-2.9.9-2.1-1.2-.5-.2-.9-.3-1.2-.4.3.1.7.2,1.2.4,1.2-.3,1.7-2.2,2.3-2.2.3,0,2,1.8,2.3,2.8.7-8-10.8-9.7-15.2-4.2Z"/>
        <g>
          <path class="st7" d="M118.7,182.2c0,9.7-9,16.7-16.4,16.7s-11.2-6.4-11.2-16.1,5.5-13.6,12.9-13.6,14.7,3.3,14.7,13Z"/>
          <path class="st7" d="M165.1,182.9c0,14.1-10.5,18.5-19.2,18.5s-13.1-7-13.1-17.8,6.4-15,15.1-15,17.2,3.6,17.2,14.4Z"/>
          <g>
            <path d="M168.1,188.3c3.4-5.9-2.2-11.7-2.9-13.6-1.8-5-4-6.2-5.9-6.8-1.2-.4-3.5-.6-7.6-.6s-17-1.9-20.3,8.5c-4.2-1.9-7.4-1.6-11.7-.6-.9-1.7-3.2-7.2-12-7.9-1.1,0-5.4-.4-9.4.6-4.7,1.2-4.6,1.8-5.9,3.1s-2.7,6.1-2.9,11.1c-.2,4.4,1.2,10.5,1.8,11.8.4.8,1.8,3.7,3.4,4.6,7.8,4.7,8.8,3.1,12.5,2.8,8.8-.6,15.5-11.4,15.3-20.3,12.5-1.2,4.4,2.1,10.7,14.1,1.5,2.9,5.7,6.8,9.8,8.1,2.9.9,8.7,1.1,13.5-1.2,7.6-3.7,10-10.5,11.7-13.6ZM117.4,183.8c-.2,4.7-2,8.3-4.8,10.7-3.6,3.1-8.9,4-14.6,2.3-3.4-1.1-4.6-3.9-5.1-5.4-2.3-6.2,0-14.9.6-16.7,1.1-3.6,6.1-4.7,9.4-5,5.1-.3,10.2.2,12.8,5.4,1.2,2.5,1.9,5.9,1.8,8.7ZM136.8,195.1c-2.1-2.9-3.2-8.6-3.2-12.2-.2-9.9,3-11.8,11.7-12.7,3.3-.3,6.7-.5,10,0,.5,0,1.4.2,1.8.3,1.2.3,2.5.8,3.4,1.8s2.6,3.7,3.5,10.5c.3,2.1,0,5-1,7.8,0,0,0,0,0,0-5.2,12.6-21.2,11.5-26.1,4.5Z"/>
            <path class="st37" d="M176.6,173.9c-.3-.4-8.1-3.9-9.4-4.3-1.5-.5-4.8,0-5,.2,2.8,2.7,1.7,9.2,4.1,11.8s2.2-.7,3.4-1.4v.2h1.3v-.5c5.3-.5,7-1.8,8.8-.8-.2-1-2.6-4.5-3.2-5.1Z"/>
            <g>
              <path class="st3" d="M90.1,176.4q-2.9,1.4-5.9,2.8c-.3-.7-1.6-6-.7-6.5,13.4-2.1,10.4-6.4,6.6,3.7Z"/>
              <path d="M90.1,176.4q-.4,3.1-.7,6.2c-1.9-1.3-4.1-1-5.1-3.4q2.9-1.4,5.9-2.8Z"/>
            </g>
            <path d="M177.5,180.3c-.5-.4,2.6-.7,2.3-1.9-1.7-1-3.6.5-8,1.3-5.6.5-7.3-1.3-7.3-1.3l.6,1.9c0,.3.3,1.5.6,2.7l-1.2.4,1.2,4.3c3.2-3.4,4.9-2.2,8.8-5.6,1.4-1.1,2.6-1.8,2.9-1.9Z"/>
          </g>
        </g>
        <path class="st6" d="M231.1,144.7"/>
        <path class="st6" d="M161,127.9"/>
        <path class="st42" d="M101.2,115.5"/>
        <path class="st5" d="M224.8,111.8c-2.4-13.3-59-16.5-70-16.8-8.8-.3-19.7-.3-28.5,0-14.1.4-56.3,4-67.7,9.4-21.7,10.2-19.1,112-8.3,126.4,8.8,11.7,56.1,12.6,70,11,28.3-3.2,62.4-18,81.5-40.6,20.5-24.3,23.3-58,23-89.4Z"/>
        <g class="st8">
          <path class="st42" d="M80.6,133"/>
          <path class="st42" d="M94.5,107.9c1.5-2.8-.9-6.2-3.9-5.5-11.6,2.8-26.8,6.1-31.8,15.7-5.7,11-7.7,50.3-1.1,54.6,10,6.4,11.9-12.6,14.8-25.7,0,0,3.5-6.1,8-14,4.7-8.2,10.3-18.3,14-25.1Z"/>
        </g>
        <g>
          <path class="st29" d="M246,159.1c1.3.8,2.8,1.2,4.3,1.3,6.4.5,12.9-3.1,15.8-9.4,2.3,2,5.6.8,5.1,3.8-1,6.2-9.9,7.8-14.7,7.9-13.8.2-20-8.2-10.4-3.6Z"/>
          <ellipse class="st24" cx="252.3" cy="142.7" rx="17.1" ry="18.3"/>
          <ellipse class="st25" cx="252.3" cy="141.8" rx="16.4" ry="17.3"/>
          <ellipse class="st1" cx="252.3" cy="141.8" rx="13.6" ry="14.4"/>
          <ellipse class="st19" cx="252.3" cy="141.8" rx="10.6" ry="11.2"/>
          <ellipse class="st35" cx="252.3" cy="140.8" rx="9.7" ry="10.2"/>
          <path class="st42" d="M251.2,133.1c4.1-.3,4.8,5.6.9,8.5-6.8,5-8.7-7.9-.9-8.5Z"/>
        </g>
        <g>
          <path class="st1" d="M238.2,188.8c1.4-.4,27.6-.4,28.9,0,.7.2,2.3,2.5,1.9,3.4-.7,1.5-30.7,1.4-32.1.7-1.7-.9.4-3.8,1.3-4Z"/>
          <path class="st1" d="M268.2,196.4c.8,2.8.1,1.9-.4,2.7-4.1-.5-28.7.7-30,0-1.2-.6-.6-2.7.4-3.1,1.5-.6,26.3-1,30,.4Z"/>
          <path class="st1" d="M238.2,208.5c1.3-.6,27.6-.6,28.9,0,1.1.5.8,3.1-.4,3.6-1.3.5-27.2.6-28.5,0-.9-.4-.9-3.2,0-3.6Z"/>
          <path class="st1" d="M260.5,218.4c-3.3.2-18.8.3-20.4,0-3.6-.6-2.7-2.7-1.9-3.1,1.2-.7,26.8-1.1,28.1-.4.9.4.9,3.2,0,3.6-.4.2-4.3,0-5.7,0Z"/>
          <path class="st1" d="M265.2,222.5c.2,1.3-.2,2.3-1.5,2.7-1.1.4-22.3.3-23.4,0-2.1-.6-1.8-1.9-1.5-3.6,8.6-.7,18.3-1.1,26.4.9Z"/>
          <path class="st1" d="M268.2,202.7c.1.3,0,2.5-.2,2.7-1.2.9-28.8.4-30.2,0-.4-.1-.6-.9-.6-.9,0-.8-.2-1.8.6-2.2,1.4-.7,26.6.2,30.4.4Z"/>
          <path class="st1" d="M247.6,181.6c3-.5,14-1,13.8,3.8l-17.7.2c-1.5-.6.8-3.5,3.8-4Z"/>
        </g>
      </g>
    </g>
  </g>
</svg>